%TF.GenerationSoftware,KiCad,Pcbnew,8.0.7-8.0.7-0~ubuntu22.04.1*%
%TF.CreationDate,2025-02-05T23:47:48-05:00*%
%TF.ProjectId,SHERPENT20250113,53484552-5045-44e5-9432-303235303131,rev?*%
%TF.SameCoordinates,Original*%
%TF.FileFunction,Drillmap*%
%TF.FilePolarity,Positive*%
%FSLAX45Y45*%
G04 Gerber Fmt 4.5, Leading zero omitted, Abs format (unit mm)*
G04 Created by KiCad (PCBNEW 8.0.7-8.0.7-0~ubuntu22.04.1) date 2025-02-05 23:47:48*
%MOMM*%
%LPD*%
G01*
G04 APERTURE LIST*
%ADD10C,0.050000*%
%ADD11C,0.200000*%
%ADD12C,0.100000*%
%ADD13C,0.120000*%
%ADD14C,0.130000*%
%ADD15C,0.150000*%
G04 APERTURE END LIST*
D10*
X17209760Y-11414800D02*
X20709880Y-11414800D01*
X20709880Y-11414800D02*
X20709880Y-13709640D01*
X20709880Y-6889840D02*
X20709880Y-9184680D01*
X13191480Y-13709640D02*
X13191480Y-6889840D01*
X17209760Y-9184680D02*
X17209760Y-11414800D01*
X20709880Y-13709640D02*
X13191480Y-13709640D01*
X13191480Y-6889840D02*
X20709880Y-6889840D01*
X20709880Y-9184680D02*
X17209760Y-9184680D01*
D11*
D12*
X16140497Y-10227456D02*
X16160497Y-10247456D01*
X16160497Y-10227456D02*
X16140497Y-10247456D01*
X16248704Y-10226884D02*
X16268704Y-10246884D01*
X16268704Y-10226884D02*
X16248704Y-10246884D01*
X13555000Y-12700000D02*
G75*
G02*
X13525000Y-12700000I-15000J0D01*
G01*
X13525000Y-12700000D02*
G75*
G02*
X13555000Y-12700000I15000J0D01*
G01*
X13755000Y-11860000D02*
G75*
G02*
X13725000Y-11860000I-15000J0D01*
G01*
X13725000Y-11860000D02*
G75*
G02*
X13755000Y-11860000I15000J0D01*
G01*
X13795000Y-8360000D02*
G75*
G02*
X13765000Y-8360000I-15000J0D01*
G01*
X13765000Y-8360000D02*
G75*
G02*
X13795000Y-8360000I15000J0D01*
G01*
X14051640Y-8846640D02*
G75*
G02*
X14021640Y-8846640I-15000J0D01*
G01*
X14021640Y-8846640D02*
G75*
G02*
X14051640Y-8846640I15000J0D01*
G01*
X14075000Y-7880000D02*
G75*
G02*
X14045000Y-7880000I-15000J0D01*
G01*
X14045000Y-7880000D02*
G75*
G02*
X14075000Y-7880000I15000J0D01*
G01*
X14465000Y-9430000D02*
G75*
G02*
X14435000Y-9430000I-15000J0D01*
G01*
X14435000Y-9430000D02*
G75*
G02*
X14465000Y-9430000I15000J0D01*
G01*
X14685000Y-8340000D02*
G75*
G02*
X14655000Y-8340000I-15000J0D01*
G01*
X14655000Y-8340000D02*
G75*
G02*
X14685000Y-8340000I15000J0D01*
G01*
X14685000Y-8450000D02*
G75*
G02*
X14655000Y-8450000I-15000J0D01*
G01*
X14655000Y-8450000D02*
G75*
G02*
X14685000Y-8450000I15000J0D01*
G01*
X15265000Y-8840000D02*
G75*
G02*
X15235000Y-8840000I-15000J0D01*
G01*
X15235000Y-8840000D02*
G75*
G02*
X15265000Y-8840000I15000J0D01*
G01*
X15390000Y-8975000D02*
G75*
G02*
X15360000Y-8975000I-15000J0D01*
G01*
X15360000Y-8975000D02*
G75*
G02*
X15390000Y-8975000I15000J0D01*
G01*
X15390000Y-9050000D02*
G75*
G02*
X15360000Y-9050000I-15000J0D01*
G01*
X15360000Y-9050000D02*
G75*
G02*
X15390000Y-9050000I15000J0D01*
G01*
X15390000Y-9125000D02*
G75*
G02*
X15360000Y-9125000I-15000J0D01*
G01*
X15360000Y-9125000D02*
G75*
G02*
X15390000Y-9125000I15000J0D01*
G01*
X15465000Y-8975000D02*
G75*
G02*
X15435000Y-8975000I-15000J0D01*
G01*
X15435000Y-8975000D02*
G75*
G02*
X15465000Y-8975000I15000J0D01*
G01*
X15465000Y-9050000D02*
G75*
G02*
X15435000Y-9050000I-15000J0D01*
G01*
X15435000Y-9050000D02*
G75*
G02*
X15465000Y-9050000I15000J0D01*
G01*
X15465000Y-9125000D02*
G75*
G02*
X15435000Y-9125000I-15000J0D01*
G01*
X15435000Y-9125000D02*
G75*
G02*
X15465000Y-9125000I15000J0D01*
G01*
X15615000Y-9125000D02*
G75*
G02*
X15585000Y-9125000I-15000J0D01*
G01*
X15585000Y-9125000D02*
G75*
G02*
X15615000Y-9125000I15000J0D01*
G01*
X15690000Y-9000000D02*
G75*
G02*
X15660000Y-9000000I-15000J0D01*
G01*
X15660000Y-9000000D02*
G75*
G02*
X15690000Y-9000000I15000J0D01*
G01*
X15690000Y-9075000D02*
G75*
G02*
X15660000Y-9075000I-15000J0D01*
G01*
X15660000Y-9075000D02*
G75*
G02*
X15690000Y-9075000I15000J0D01*
G01*
X15695680Y-11320820D02*
G75*
G02*
X15665680Y-11320820I-15000J0D01*
G01*
X15665680Y-11320820D02*
G75*
G02*
X15695680Y-11320820I15000J0D01*
G01*
X15765000Y-9000000D02*
G75*
G02*
X15735000Y-9000000I-15000J0D01*
G01*
X15735000Y-9000000D02*
G75*
G02*
X15765000Y-9000000I15000J0D01*
G01*
X15765000Y-9075000D02*
G75*
G02*
X15735000Y-9075000I-15000J0D01*
G01*
X15735000Y-9075000D02*
G75*
G02*
X15765000Y-9075000I15000J0D01*
G01*
X15785000Y-9820000D02*
G75*
G02*
X15755000Y-9820000I-15000J0D01*
G01*
X15755000Y-9820000D02*
G75*
G02*
X15785000Y-9820000I15000J0D01*
G01*
X15840000Y-9000000D02*
G75*
G02*
X15810000Y-9000000I-15000J0D01*
G01*
X15810000Y-9000000D02*
G75*
G02*
X15840000Y-9000000I15000J0D01*
G01*
X15840000Y-9075000D02*
G75*
G02*
X15810000Y-9075000I-15000J0D01*
G01*
X15810000Y-9075000D02*
G75*
G02*
X15840000Y-9075000I15000J0D01*
G01*
X15915000Y-8846295D02*
G75*
G02*
X15885000Y-8846295I-15000J0D01*
G01*
X15885000Y-8846295D02*
G75*
G02*
X15915000Y-8846295I15000J0D01*
G01*
X15965000Y-9025000D02*
G75*
G02*
X15935000Y-9025000I-15000J0D01*
G01*
X15935000Y-9025000D02*
G75*
G02*
X15965000Y-9025000I15000J0D01*
G01*
X15990000Y-8846295D02*
G75*
G02*
X15960000Y-8846295I-15000J0D01*
G01*
X15960000Y-8846295D02*
G75*
G02*
X15990000Y-8846295I15000J0D01*
G01*
X16000628Y-10234874D02*
G75*
G02*
X15970628Y-10234874I-15000J0D01*
G01*
X15970628Y-10234874D02*
G75*
G02*
X16000628Y-10234874I15000J0D01*
G01*
X16040000Y-9025000D02*
G75*
G02*
X16010000Y-9025000I-15000J0D01*
G01*
X16010000Y-9025000D02*
G75*
G02*
X16040000Y-9025000I15000J0D01*
G01*
X16065000Y-8846295D02*
G75*
G02*
X16035000Y-8846295I-15000J0D01*
G01*
X16035000Y-8846295D02*
G75*
G02*
X16065000Y-8846295I15000J0D01*
G01*
X16115000Y-9025000D02*
G75*
G02*
X16085000Y-9025000I-15000J0D01*
G01*
X16085000Y-9025000D02*
G75*
G02*
X16115000Y-9025000I15000J0D01*
G01*
X16140000Y-8700000D02*
G75*
G02*
X16110000Y-8700000I-15000J0D01*
G01*
X16110000Y-8700000D02*
G75*
G02*
X16140000Y-8700000I15000J0D01*
G01*
X16265000Y-8700000D02*
G75*
G02*
X16235000Y-8700000I-15000J0D01*
G01*
X16235000Y-8700000D02*
G75*
G02*
X16265000Y-8700000I15000J0D01*
G01*
X16295000Y-8010000D02*
G75*
G02*
X16265000Y-8010000I-15000J0D01*
G01*
X16265000Y-8010000D02*
G75*
G02*
X16295000Y-8010000I15000J0D01*
G01*
X16443340Y-10321660D02*
G75*
G02*
X16413340Y-10321660I-15000J0D01*
G01*
X16413340Y-10321660D02*
G75*
G02*
X16443340Y-10321660I15000J0D01*
G01*
X16452600Y-11422610D02*
G75*
G02*
X16422600Y-11422610I-15000J0D01*
G01*
X16422600Y-11422610D02*
G75*
G02*
X16452600Y-11422610I15000J0D01*
G01*
X16724660Y-10730560D02*
G75*
G02*
X16694660Y-10730560I-15000J0D01*
G01*
X16694660Y-10730560D02*
G75*
G02*
X16724660Y-10730560I15000J0D01*
G01*
X16905000Y-9120000D02*
G75*
G02*
X16875000Y-9120000I-15000J0D01*
G01*
X16875000Y-9120000D02*
G75*
G02*
X16905000Y-9120000I15000J0D01*
G01*
X16985000Y-11030000D02*
G75*
G02*
X16955000Y-11030000I-15000J0D01*
G01*
X16955000Y-11030000D02*
G75*
G02*
X16985000Y-11030000I15000J0D01*
G01*
X17175000Y-8050000D02*
G75*
G02*
X17145000Y-8050000I-15000J0D01*
G01*
X17145000Y-8050000D02*
G75*
G02*
X17175000Y-8050000I15000J0D01*
G01*
X17467500Y-7597500D02*
G75*
G02*
X17437500Y-7597500I-15000J0D01*
G01*
X17437500Y-7597500D02*
G75*
G02*
X17467500Y-7597500I15000J0D01*
G01*
X18511460Y-7843540D02*
G75*
G02*
X18481460Y-7843540I-15000J0D01*
G01*
X18481460Y-7843540D02*
G75*
G02*
X18511460Y-7843540I15000J0D01*
G01*
X18888587Y-8052500D02*
G75*
G02*
X18858587Y-8052500I-15000J0D01*
G01*
X18858587Y-8052500D02*
G75*
G02*
X18888587Y-8052500I15000J0D01*
G01*
X19084040Y-8195400D02*
G75*
G02*
X19054040Y-8195400I-15000J0D01*
G01*
X19054040Y-8195400D02*
G75*
G02*
X19084040Y-8195400I15000J0D01*
G01*
X19154285Y-8272077D02*
G75*
G02*
X19124285Y-8272077I-15000J0D01*
G01*
X19124285Y-8272077D02*
G75*
G02*
X19154285Y-8272077I15000J0D01*
G01*
X19289061Y-8232421D02*
G75*
G02*
X19259061Y-8232421I-15000J0D01*
G01*
X19259061Y-8232421D02*
G75*
G02*
X19289061Y-8232421I15000J0D01*
G01*
X19484886Y-7952622D02*
G75*
G02*
X19454886Y-7952622I-15000J0D01*
G01*
X19454886Y-7952622D02*
G75*
G02*
X19484886Y-7952622I15000J0D01*
G01*
X19651781Y-7903690D02*
G75*
G02*
X19621781Y-7903690I-15000J0D01*
G01*
X19621781Y-7903690D02*
G75*
G02*
X19651781Y-7903690I15000J0D01*
G01*
X19833340Y-12202200D02*
G75*
G02*
X19803340Y-12202200I-15000J0D01*
G01*
X19803340Y-12202200D02*
G75*
G02*
X19833340Y-12202200I15000J0D01*
G01*
X20008600Y-8482215D02*
G75*
G02*
X19978600Y-8482215I-15000J0D01*
G01*
X19978600Y-8482215D02*
G75*
G02*
X20008600Y-8482215I15000J0D01*
G01*
X20085000Y-8550000D02*
G75*
G02*
X20055000Y-8550000I-15000J0D01*
G01*
X20055000Y-8550000D02*
G75*
G02*
X20085000Y-8550000I15000J0D01*
G01*
X20146851Y-8242211D02*
G75*
G02*
X20116851Y-8242211I-15000J0D01*
G01*
X20116851Y-8242211D02*
G75*
G02*
X20146851Y-8242211I15000J0D01*
G01*
X20451985Y-8476985D02*
G75*
G02*
X20421985Y-8476985I-15000J0D01*
G01*
X20421985Y-8476985D02*
G75*
G02*
X20451985Y-8476985I15000J0D01*
G01*
X13400000Y-8331280D02*
X13400000Y-8371280D01*
X13380000Y-8351280D02*
X13420000Y-8351280D01*
X13400000Y-11872800D02*
X13400000Y-11912800D01*
X13380000Y-11892800D02*
X13420000Y-11892800D01*
X14020000Y-12340000D02*
X14020000Y-12380000D01*
X14000000Y-12360000D02*
X14040000Y-12360000D01*
X14347080Y-7414720D02*
X14347080Y-7454720D01*
X14327080Y-7434720D02*
X14367080Y-7434720D01*
X14425920Y-12669880D02*
X14425920Y-12709880D01*
X14405920Y-12689880D02*
X14445920Y-12689880D01*
X15195540Y-7747360D02*
X15195540Y-7787360D01*
X15175540Y-7767360D02*
X15215540Y-7767360D01*
X15276820Y-13149940D02*
X15276820Y-13189940D01*
X15256820Y-13169940D02*
X15296820Y-13169940D01*
X15426680Y-8341614D02*
X15426680Y-8381614D01*
X15406680Y-8361614D02*
X15446680Y-8361614D01*
X15500340Y-10361020D02*
X15500340Y-10401020D01*
X15480340Y-10381020D02*
X15520340Y-10381020D01*
X16044660Y-11136360D02*
X16044660Y-11176360D01*
X16024660Y-11156360D02*
X16064660Y-11156360D01*
X16134660Y-11626360D02*
X16134660Y-11666360D01*
X16114660Y-11646360D02*
X16154660Y-11646360D01*
X16239790Y-10399275D02*
X16239790Y-10439275D01*
X16219790Y-10419275D02*
X16259790Y-10419275D01*
X16287740Y-9304380D02*
X16287740Y-9344380D01*
X16267740Y-9324380D02*
X16307740Y-9324380D01*
X16758780Y-8509320D02*
X16758780Y-8549320D01*
X16738780Y-8529320D02*
X16778780Y-8529320D01*
X16850000Y-6990000D02*
X16850000Y-7030000D01*
X16830000Y-7010000D02*
X16870000Y-7010000D01*
X16993860Y-9611720D02*
X16993860Y-9651720D01*
X16973860Y-9631720D02*
X17013860Y-9631720D01*
X17682000Y-12413540D02*
X17682000Y-12453540D01*
X17662000Y-12433540D02*
X17702000Y-12433540D01*
X17840000Y-8780000D02*
X17840000Y-8820000D01*
X17820000Y-8800000D02*
X17860000Y-8800000D01*
X17860000Y-7902300D02*
X17860000Y-7942300D01*
X17840000Y-7922300D02*
X17880000Y-7922300D01*
X18020000Y-7590000D02*
X18020000Y-7630000D01*
X18000000Y-7610000D02*
X18040000Y-7610000D01*
X18180000Y-8180000D02*
X18180000Y-8220000D01*
X18160000Y-8200000D02*
X18200000Y-8200000D01*
X18401020Y-8637680D02*
X18401020Y-8677680D01*
X18381020Y-8657680D02*
X18421020Y-8657680D01*
X18425000Y-8464960D02*
X18425000Y-8504960D01*
X18405000Y-8484960D02*
X18445000Y-8484960D01*
X18510000Y-7620000D02*
X18510000Y-7660000D01*
X18490000Y-7640000D02*
X18530000Y-7640000D01*
X18533100Y-12743540D02*
X18533100Y-12783540D01*
X18513100Y-12763540D02*
X18553100Y-12763540D01*
X18614884Y-8416805D02*
X18614884Y-8456805D01*
X18594884Y-8436805D02*
X18634884Y-8436805D01*
X19040000Y-8740000D02*
X19040000Y-8780000D01*
X19020000Y-8760000D02*
X19060000Y-8760000D01*
X19148216Y-8043101D02*
X19148216Y-8083101D01*
X19128216Y-8063101D02*
X19168216Y-8063101D01*
X19155400Y-8624980D02*
X19155400Y-8664980D01*
X19135400Y-8644980D02*
X19175400Y-8644980D01*
X19200000Y-7670000D02*
X19200000Y-7710000D01*
X19180000Y-7690000D02*
X19220000Y-7690000D01*
X19275236Y-8044626D02*
X19275236Y-8084626D01*
X19255236Y-8064626D02*
X19295236Y-8064626D01*
X19563070Y-8575450D02*
X19563070Y-8615450D01*
X19543070Y-8595450D02*
X19583070Y-8595450D01*
X19598852Y-7610077D02*
X19598852Y-7650077D01*
X19578852Y-7630077D02*
X19618852Y-7630077D01*
X19623629Y-7708645D02*
X19623629Y-7748645D01*
X19603629Y-7728645D02*
X19643629Y-7728645D01*
X19641942Y-7798058D02*
X19641942Y-7838058D01*
X19621942Y-7818058D02*
X19661942Y-7818058D01*
X19780000Y-8210000D02*
X19780000Y-8250000D01*
X19760000Y-8230000D02*
X19800000Y-8230000D01*
X19899620Y-12507500D02*
X19899620Y-12547500D01*
X19879620Y-12527500D02*
X19919620Y-12527500D01*
X19900000Y-8730000D02*
X19900000Y-8770000D01*
X19880000Y-8750000D02*
X19920000Y-8750000D01*
X20064720Y-7819800D02*
X20064720Y-7859800D01*
X20044720Y-7839800D02*
X20084720Y-7839800D01*
X20147270Y-7546750D02*
X20147270Y-7586750D01*
X20127270Y-7566750D02*
X20167270Y-7566750D01*
X20222161Y-7639944D02*
X20222161Y-7679944D01*
X20202161Y-7659944D02*
X20242161Y-7659944D01*
X20476200Y-7766460D02*
X20476200Y-7806460D01*
X20456200Y-7786460D02*
X20496200Y-7786460D01*
X20515920Y-8091580D02*
X20515920Y-8131580D01*
X20495920Y-8111580D02*
X20535920Y-8111580D01*
X20533300Y-8519520D02*
X20533300Y-8559520D01*
X20513300Y-8539520D02*
X20553300Y-8539520D01*
X20537160Y-12006940D02*
X20537160Y-12046940D01*
X20517160Y-12026940D02*
X20557160Y-12026940D01*
X16549622Y-7544062D02*
X16549622Y-7515778D01*
X16521338Y-7515778D01*
X16521338Y-7544062D01*
X16549622Y-7544062D01*
X16549622Y-7679062D02*
X16549622Y-7650778D01*
X16521338Y-7650778D01*
X16521338Y-7679062D01*
X16549622Y-7679062D01*
X16634622Y-7544062D02*
X16634622Y-7515778D01*
X16606338Y-7515778D01*
X16606338Y-7544062D01*
X16634622Y-7544062D01*
X16634622Y-7679062D02*
X16634622Y-7650778D01*
X16606338Y-7650778D01*
X16606338Y-7679062D01*
X16634622Y-7679062D01*
X16719622Y-7544062D02*
X16719622Y-7515778D01*
X16691338Y-7515778D01*
X16691338Y-7544062D01*
X16719622Y-7544062D01*
X16719622Y-7679062D02*
X16719622Y-7650778D01*
X16691338Y-7650778D01*
X16691338Y-7679062D01*
X16719622Y-7679062D01*
X16804622Y-7544062D02*
X16804622Y-7515778D01*
X16776338Y-7515778D01*
X16776338Y-7544062D01*
X16804622Y-7544062D01*
X16804622Y-7679062D02*
X16804622Y-7650778D01*
X16776338Y-7650778D01*
X16776338Y-7679062D01*
X16804622Y-7679062D01*
X16889622Y-7544062D02*
X16889622Y-7515778D01*
X16861338Y-7515778D01*
X16861338Y-7544062D01*
X16889622Y-7544062D01*
X16889622Y-7679062D02*
X16889622Y-7650778D01*
X16861338Y-7650778D01*
X16861338Y-7679062D01*
X16889622Y-7679062D01*
X16974622Y-7544062D02*
X16974622Y-7515778D01*
X16946338Y-7515778D01*
X16946338Y-7544062D01*
X16974622Y-7544062D01*
X16974622Y-7679062D02*
X16974622Y-7650778D01*
X16946338Y-7650778D01*
X16946338Y-7679062D01*
X16974622Y-7679062D01*
X17059622Y-7544062D02*
X17059622Y-7515778D01*
X17031338Y-7515778D01*
X17031338Y-7544062D01*
X17059622Y-7544062D01*
X17059622Y-7679062D02*
X17059622Y-7650778D01*
X17031338Y-7650778D01*
X17031338Y-7679062D01*
X17059622Y-7679062D01*
X17144622Y-7544062D02*
X17144622Y-7515778D01*
X17116338Y-7515778D01*
X17116338Y-7544062D01*
X17144622Y-7544062D01*
X17144622Y-7679062D02*
X17144622Y-7650778D01*
X17116338Y-7650778D01*
X17116338Y-7679062D01*
X17144622Y-7679062D01*
X15390000Y-10885000D02*
X15415000Y-10860000D01*
X15390000Y-10835000D01*
X15365000Y-10860000D01*
X15390000Y-10885000D01*
X15561300Y-10865760D02*
X15586300Y-10840760D01*
X15561300Y-10815760D01*
X15536300Y-10840760D01*
X15561300Y-10865760D01*
X15575000Y-10000000D02*
X15600000Y-9975000D01*
X15575000Y-9950000D01*
X15550000Y-9975000D01*
X15575000Y-10000000D01*
X15575000Y-10125000D02*
X15600000Y-10100000D01*
X15575000Y-10075000D01*
X15550000Y-10100000D01*
X15575000Y-10125000D01*
X15650000Y-9875000D02*
X15675000Y-9850000D01*
X15650000Y-9825000D01*
X15625000Y-9850000D01*
X15650000Y-9875000D01*
X15725000Y-10000000D02*
X15750000Y-9975000D01*
X15725000Y-9950000D01*
X15700000Y-9975000D01*
X15725000Y-10000000D01*
X15725000Y-10125000D02*
X15750000Y-10100000D01*
X15725000Y-10075000D01*
X15700000Y-10100000D01*
X15725000Y-10125000D01*
X15920877Y-10151011D02*
X15945877Y-10126011D01*
X15920877Y-10101011D01*
X15895877Y-10126011D01*
X15920877Y-10151011D01*
X16041360Y-10073280D02*
X16066360Y-10048280D01*
X16041360Y-10023280D01*
X16016360Y-10048280D01*
X16041360Y-10073280D01*
X16350000Y-10012715D02*
X16375000Y-9987715D01*
X16350000Y-9962715D01*
X16325000Y-9987715D01*
X16350000Y-10012715D01*
X16375000Y-9775000D02*
X16400000Y-9750000D01*
X16375000Y-9725000D01*
X16350000Y-9750000D01*
X16375000Y-9775000D01*
X16375000Y-9900000D02*
X16400000Y-9875000D01*
X16375000Y-9850000D01*
X16350000Y-9875000D01*
X16375000Y-9900000D01*
X16450000Y-10100000D02*
X16475000Y-10075000D01*
X16450000Y-10050000D01*
X16425000Y-10075000D01*
X16450000Y-10100000D01*
X16475000Y-9725000D02*
X16500000Y-9700000D01*
X16475000Y-9675000D01*
X16450000Y-9700000D01*
X16475000Y-9725000D01*
X16475000Y-9850000D02*
X16500000Y-9825000D01*
X16475000Y-9800000D01*
X16450000Y-9825000D01*
X16475000Y-9850000D01*
X16475000Y-9975000D02*
X16500000Y-9950000D01*
X16475000Y-9925000D01*
X16450000Y-9950000D01*
X16475000Y-9975000D01*
X16575000Y-9775000D02*
X16600000Y-9750000D01*
X16575000Y-9725000D01*
X16550000Y-9750000D01*
X16575000Y-9775000D01*
X16575000Y-9900000D02*
X16600000Y-9875000D01*
X16575000Y-9850000D01*
X16550000Y-9875000D01*
X16575000Y-9900000D01*
X17100000Y-7201250D02*
X17125000Y-7176250D01*
X17100000Y-7151250D01*
X17075000Y-7176250D01*
X17100000Y-7201250D01*
X16365980Y-7164920D02*
X16435980Y-7234920D01*
X16435980Y-7164920D02*
X16365980Y-7234920D01*
X16435980Y-7199920D02*
G75*
G02*
X16365980Y-7199920I-35000J0D01*
G01*
X16365980Y-7199920D02*
G75*
G02*
X16435980Y-7199920I35000J0D01*
G01*
X16435980Y-7244920D02*
X16435980Y-7154920D01*
X16365980Y-7154920D02*
G75*
G02*
X16435980Y-7154920I35000J0D01*
G01*
X16365980Y-7154920D02*
X16365980Y-7244920D01*
X16365980Y-7244920D02*
G75*
G03*
X16435980Y-7244920I35000J0D01*
G01*
X16365980Y-7579920D02*
X16435980Y-7649920D01*
X16435980Y-7579920D02*
X16365980Y-7649920D01*
X16435980Y-7614920D02*
G75*
G02*
X16365980Y-7614920I-35000J0D01*
G01*
X16365980Y-7614920D02*
G75*
G02*
X16435980Y-7614920I35000J0D01*
G01*
X16435980Y-7679920D02*
X16435980Y-7549920D01*
X16365980Y-7549920D02*
G75*
G02*
X16435980Y-7549920I35000J0D01*
G01*
X16365980Y-7549920D02*
X16365980Y-7679920D01*
X16365980Y-7679920D02*
G75*
G03*
X16435980Y-7679920I35000J0D01*
G01*
X17229980Y-7164920D02*
X17299980Y-7234920D01*
X17299980Y-7164920D02*
X17229980Y-7234920D01*
X17299980Y-7199920D02*
G75*
G02*
X17229980Y-7199920I-35000J0D01*
G01*
X17229980Y-7199920D02*
G75*
G02*
X17299980Y-7199920I35000J0D01*
G01*
X17299980Y-7244920D02*
X17299980Y-7154920D01*
X17229980Y-7154920D02*
G75*
G02*
X17299980Y-7154920I35000J0D01*
G01*
X17229980Y-7154920D02*
X17229980Y-7244920D01*
X17229980Y-7244920D02*
G75*
G03*
X17299980Y-7244920I35000J0D01*
G01*
X17229980Y-7579920D02*
X17299980Y-7649920D01*
X17299980Y-7579920D02*
X17229980Y-7649920D01*
X17299980Y-7614920D02*
G75*
G02*
X17229980Y-7614920I-35000J0D01*
G01*
X17229980Y-7614920D02*
G75*
G02*
X17299980Y-7614920I35000J0D01*
G01*
X17299980Y-7679920D02*
X17299980Y-7549920D01*
X17229980Y-7549920D02*
G75*
G02*
X17299980Y-7549920I35000J0D01*
G01*
X17229980Y-7549920D02*
X17229980Y-7679920D01*
X17229980Y-7679920D02*
G75*
G03*
X17299980Y-7679920I35000J0D01*
G01*
X15580000Y-12074489D02*
X15660000Y-12154489D01*
X15660000Y-12074489D02*
X15580000Y-12154489D01*
X15620000Y-12074489D02*
X15620000Y-12154489D01*
X15580000Y-12114489D02*
X15660000Y-12114489D01*
X15580000Y-12274489D02*
X15660000Y-12354489D01*
X15660000Y-12274489D02*
X15580000Y-12354489D01*
X15620000Y-12274489D02*
X15620000Y-12354489D01*
X15580000Y-12314489D02*
X15660000Y-12314489D01*
X17140000Y-11685511D02*
X17220000Y-11765511D01*
X17220000Y-11685511D02*
X17140000Y-11765511D01*
X17180000Y-11685511D02*
X17180000Y-11765511D01*
X17140000Y-11725511D02*
X17220000Y-11725511D01*
X17140000Y-11885511D02*
X17220000Y-11965511D01*
X17220000Y-11885511D02*
X17140000Y-11965511D01*
X17180000Y-11885511D02*
X17180000Y-11965511D01*
X17140000Y-11925511D02*
X17220000Y-11925511D01*
X18086700Y-8599120D02*
X18166700Y-8679120D01*
X18166700Y-8599120D02*
X18086700Y-8679120D01*
X18126700Y-8599120D02*
X18126700Y-8679120D01*
X18086700Y-8639120D02*
X18166700Y-8639120D01*
X18086700Y-8853120D02*
X18166700Y-8933120D01*
X18166700Y-8853120D02*
X18086700Y-8933120D01*
X18126700Y-8853120D02*
X18126700Y-8933120D01*
X18086700Y-8893120D02*
X18166700Y-8893120D01*
X14365954Y-8316194D02*
X14465954Y-8416195D01*
X14465954Y-8316194D02*
X14365954Y-8416195D01*
X14451310Y-8401550D02*
X14451310Y-8330839D01*
X14380599Y-8330839D01*
X14380599Y-8401550D01*
X14451310Y-8401550D01*
X14365954Y-8570195D02*
X14465954Y-8670195D01*
X14465954Y-8570195D02*
X14365954Y-8670195D01*
X14451310Y-8655550D02*
X14451310Y-8584839D01*
X14380599Y-8584839D01*
X14380599Y-8655550D01*
X14451310Y-8655550D01*
X14855394Y-8318734D02*
X14955394Y-8418735D01*
X14955394Y-8318734D02*
X14855394Y-8418735D01*
X14940750Y-8404090D02*
X14940750Y-8333379D01*
X14870039Y-8333379D01*
X14870039Y-8404090D01*
X14940750Y-8404090D01*
X14855394Y-8572735D02*
X14955394Y-8672735D01*
X14955394Y-8572735D02*
X14855394Y-8672735D01*
X14940750Y-8658090D02*
X14940750Y-8587379D01*
X14870039Y-8587379D01*
X14870039Y-8658090D01*
X14940750Y-8658090D01*
X14910000Y-11767500D02*
X15010000Y-11867500D01*
X15010000Y-11767500D02*
X14910000Y-11867500D01*
X14995356Y-11852856D02*
X14995356Y-11782144D01*
X14924644Y-11782144D01*
X14924644Y-11852856D01*
X14995356Y-11852856D01*
X14910000Y-12021500D02*
X15010000Y-12121500D01*
X15010000Y-12021500D02*
X14910000Y-12121500D01*
X14995356Y-12106856D02*
X14995356Y-12036144D01*
X14924644Y-12036144D01*
X14924644Y-12106856D01*
X14995356Y-12106856D01*
X14910000Y-12275500D02*
X15010000Y-12375500D01*
X15010000Y-12275500D02*
X14910000Y-12375500D01*
X14995356Y-12360856D02*
X14995356Y-12290144D01*
X14924644Y-12290144D01*
X14924644Y-12360856D01*
X14995356Y-12360856D01*
X16525000Y-13225000D02*
X16625000Y-13325000D01*
X16625000Y-13225000D02*
X16525000Y-13325000D01*
X16610356Y-13310356D02*
X16610356Y-13239644D01*
X16539644Y-13239644D01*
X16539644Y-13310356D01*
X16610356Y-13310356D01*
X16975000Y-13225000D02*
X17075000Y-13325000D01*
X17075000Y-13225000D02*
X16975000Y-13325000D01*
X17060356Y-13310356D02*
X17060356Y-13239644D01*
X16989644Y-13239644D01*
X16989644Y-13310356D01*
X17060356Y-13310356D01*
X18036060Y-11565460D02*
X18136060Y-11665460D01*
X18136060Y-11565460D02*
X18036060Y-11665460D01*
X18121416Y-11650816D02*
X18121416Y-11580104D01*
X18050704Y-11580104D01*
X18050704Y-11650816D01*
X18121416Y-11650816D01*
X18036060Y-11819460D02*
X18136060Y-11919460D01*
X18136060Y-11819460D02*
X18036060Y-11919460D01*
X18121416Y-11904816D02*
X18121416Y-11834104D01*
X18050704Y-11834104D01*
X18050704Y-11904816D01*
X18121416Y-11904816D01*
X18036060Y-12073460D02*
X18136060Y-12173460D01*
X18136060Y-12073460D02*
X18036060Y-12173460D01*
X18121416Y-12158816D02*
X18121416Y-12088104D01*
X18050704Y-12088104D01*
X18050704Y-12158816D01*
X18121416Y-12158816D01*
X19442000Y-13270000D02*
X19542000Y-13370000D01*
X19542000Y-13270000D02*
X19442000Y-13370000D01*
X19527356Y-13355356D02*
X19527356Y-13284644D01*
X19456644Y-13284644D01*
X19456644Y-13355356D01*
X19527356Y-13355356D01*
X19696000Y-13270000D02*
X19796000Y-13370000D01*
X19796000Y-13270000D02*
X19696000Y-13370000D01*
X19781356Y-13355356D02*
X19781356Y-13284644D01*
X19710644Y-13284644D01*
X19710644Y-13355356D01*
X19781356Y-13355356D01*
X19950000Y-13270000D02*
X20050000Y-13370000D01*
X20050000Y-13270000D02*
X19950000Y-13370000D01*
X20035356Y-13355356D02*
X20035356Y-13284644D01*
X19964644Y-13284644D01*
X19964644Y-13355356D01*
X20035356Y-13355356D01*
D13*
X13558750Y-9031250D02*
X13678750Y-9151250D01*
X13678750Y-9031250D02*
X13558750Y-9151250D01*
X13618750Y-9151250D02*
X13678750Y-9091250D01*
X13618750Y-9031250D01*
X13558750Y-9091250D01*
X13618750Y-9151250D01*
X13558750Y-11331250D02*
X13678750Y-11451250D01*
X13678750Y-11331250D02*
X13558750Y-11451250D01*
X13618750Y-11451250D02*
X13678750Y-11391250D01*
X13618750Y-11331250D01*
X13558750Y-11391250D01*
X13618750Y-11451250D01*
X13812750Y-9031250D02*
X13932750Y-9151250D01*
X13932750Y-9031250D02*
X13812750Y-9151250D01*
X13872750Y-9151250D02*
X13932750Y-9091250D01*
X13872750Y-9031250D01*
X13812750Y-9091250D01*
X13872750Y-9151250D01*
X14704750Y-9031250D02*
X14824750Y-9151250D01*
X14824750Y-9031250D02*
X14704750Y-9151250D01*
X14764750Y-9151250D02*
X14824750Y-9091250D01*
X14764750Y-9031250D01*
X14704750Y-9091250D01*
X14764750Y-9151250D01*
X14958750Y-9031250D02*
X15078750Y-9151250D01*
X15078750Y-9031250D02*
X14958750Y-9151250D01*
X15018750Y-9151250D02*
X15078750Y-9091250D01*
X15018750Y-9031250D01*
X14958750Y-9091250D01*
X15018750Y-9151250D01*
X14958750Y-11331250D02*
X15078750Y-11451250D01*
X15078750Y-11331250D02*
X14958750Y-11451250D01*
X15018750Y-11451250D02*
X15078750Y-11391250D01*
X15018750Y-11331250D01*
X14958750Y-11391250D01*
X15018750Y-11451250D01*
D14*
X16450000Y-12960000D02*
X16450000Y-13090000D01*
X16385000Y-13025000D02*
X16515000Y-13025000D01*
X16515000Y-13025000D02*
G75*
G02*
X16385000Y-13025000I-65000J0D01*
G01*
X16385000Y-13025000D02*
G75*
G02*
X16515000Y-13025000I65000J0D01*
G01*
X17150000Y-12960000D02*
X17150000Y-13090000D01*
X17085000Y-13025000D02*
X17215000Y-13025000D01*
X17215000Y-13025000D02*
G75*
G02*
X17085000Y-13025000I-65000J0D01*
G01*
X17085000Y-13025000D02*
G75*
G02*
X17215000Y-13025000I65000J0D01*
G01*
D15*
X15545753Y-8099793D02*
X15545753Y-7993726D01*
X15439686Y-7993726D01*
X15439686Y-8099793D01*
X15545753Y-8099793D01*
X15567720Y-8046760D02*
G75*
G02*
X15417720Y-8046760I-75000J0D01*
G01*
X15417720Y-8046760D02*
G75*
G02*
X15567720Y-8046760I75000J0D01*
G01*
X15868333Y-9567914D02*
X15868333Y-9461847D01*
X15762266Y-9461847D01*
X15762266Y-9567914D01*
X15868333Y-9567914D01*
X15890300Y-9514880D02*
G75*
G02*
X15740300Y-9514880I-75000J0D01*
G01*
X15740300Y-9514880D02*
G75*
G02*
X15890300Y-9514880I75000J0D01*
G01*
X16143033Y-12023033D02*
X16143033Y-11916966D01*
X16036966Y-11916966D01*
X16036966Y-12023033D01*
X16143033Y-12023033D01*
X16165000Y-11970000D02*
G75*
G02*
X16015000Y-11970000I-75000J0D01*
G01*
X16015000Y-11970000D02*
G75*
G02*
X16165000Y-11970000I75000J0D01*
G01*
X17473034Y-8673034D02*
X17473034Y-8566967D01*
X17366967Y-8566967D01*
X17366967Y-8673034D01*
X17473034Y-8673034D01*
X17495000Y-8620000D02*
G75*
G02*
X17345000Y-8620000I-75000J0D01*
G01*
X17345000Y-8620000D02*
G75*
G02*
X17495000Y-8620000I75000J0D01*
G01*
X20338734Y-12976593D02*
X20338734Y-12870526D01*
X20232667Y-12870526D01*
X20232667Y-12976593D01*
X20338734Y-12976593D01*
X20360700Y-12923560D02*
G75*
G02*
X20210700Y-12923560I-75000J0D01*
G01*
X20210700Y-12923560D02*
G75*
G02*
X20360700Y-12923560I75000J0D01*
G01*
D11*
X13449757Y-14023624D02*
X13449757Y-13823624D01*
X13449757Y-13823624D02*
X13497376Y-13823624D01*
X13497376Y-13823624D02*
X13525947Y-13833148D01*
X13525947Y-13833148D02*
X13544995Y-13852195D01*
X13544995Y-13852195D02*
X13554519Y-13871243D01*
X13554519Y-13871243D02*
X13564042Y-13909338D01*
X13564042Y-13909338D02*
X13564042Y-13937909D01*
X13564042Y-13937909D02*
X13554519Y-13976005D01*
X13554519Y-13976005D02*
X13544995Y-13995052D01*
X13544995Y-13995052D02*
X13525947Y-14014100D01*
X13525947Y-14014100D02*
X13497376Y-14023624D01*
X13497376Y-14023624D02*
X13449757Y-14023624D01*
X13649757Y-14023624D02*
X13649757Y-13890290D01*
X13649757Y-13928386D02*
X13659281Y-13909338D01*
X13659281Y-13909338D02*
X13668804Y-13899814D01*
X13668804Y-13899814D02*
X13687852Y-13890290D01*
X13687852Y-13890290D02*
X13706900Y-13890290D01*
X13773566Y-14023624D02*
X13773566Y-13890290D01*
X13773566Y-13823624D02*
X13764042Y-13833148D01*
X13764042Y-13833148D02*
X13773566Y-13842671D01*
X13773566Y-13842671D02*
X13783090Y-13833148D01*
X13783090Y-13833148D02*
X13773566Y-13823624D01*
X13773566Y-13823624D02*
X13773566Y-13842671D01*
X13897376Y-14023624D02*
X13878328Y-14014100D01*
X13878328Y-14014100D02*
X13868804Y-13995052D01*
X13868804Y-13995052D02*
X13868804Y-13823624D01*
X14002138Y-14023624D02*
X13983090Y-14014100D01*
X13983090Y-14014100D02*
X13973566Y-13995052D01*
X13973566Y-13995052D02*
X13973566Y-13823624D01*
X14230709Y-14023624D02*
X14230709Y-13823624D01*
X14230709Y-13823624D02*
X14297376Y-13966481D01*
X14297376Y-13966481D02*
X14364042Y-13823624D01*
X14364042Y-13823624D02*
X14364042Y-14023624D01*
X14544995Y-14023624D02*
X14544995Y-13918862D01*
X14544995Y-13918862D02*
X14535471Y-13899814D01*
X14535471Y-13899814D02*
X14516423Y-13890290D01*
X14516423Y-13890290D02*
X14478328Y-13890290D01*
X14478328Y-13890290D02*
X14459281Y-13899814D01*
X14544995Y-14014100D02*
X14525947Y-14023624D01*
X14525947Y-14023624D02*
X14478328Y-14023624D01*
X14478328Y-14023624D02*
X14459281Y-14014100D01*
X14459281Y-14014100D02*
X14449757Y-13995052D01*
X14449757Y-13995052D02*
X14449757Y-13976005D01*
X14449757Y-13976005D02*
X14459281Y-13956957D01*
X14459281Y-13956957D02*
X14478328Y-13947433D01*
X14478328Y-13947433D02*
X14525947Y-13947433D01*
X14525947Y-13947433D02*
X14544995Y-13937909D01*
X14640233Y-13890290D02*
X14640233Y-14090290D01*
X14640233Y-13899814D02*
X14659281Y-13890290D01*
X14659281Y-13890290D02*
X14697376Y-13890290D01*
X14697376Y-13890290D02*
X14716423Y-13899814D01*
X14716423Y-13899814D02*
X14725947Y-13909338D01*
X14725947Y-13909338D02*
X14735471Y-13928386D01*
X14735471Y-13928386D02*
X14735471Y-13985528D01*
X14735471Y-13985528D02*
X14725947Y-14004576D01*
X14725947Y-14004576D02*
X14716423Y-14014100D01*
X14716423Y-14014100D02*
X14697376Y-14023624D01*
X14697376Y-14023624D02*
X14659281Y-14023624D01*
X14659281Y-14023624D02*
X14640233Y-14014100D01*
X14821185Y-14004576D02*
X14830709Y-14014100D01*
X14830709Y-14014100D02*
X14821185Y-14023624D01*
X14821185Y-14023624D02*
X14811662Y-14014100D01*
X14811662Y-14014100D02*
X14821185Y-14004576D01*
X14821185Y-14004576D02*
X14821185Y-14023624D01*
X14821185Y-13899814D02*
X14830709Y-13909338D01*
X14830709Y-13909338D02*
X14821185Y-13918862D01*
X14821185Y-13918862D02*
X14811662Y-13909338D01*
X14811662Y-13909338D02*
X14821185Y-13899814D01*
X14821185Y-13899814D02*
X14821185Y-13918862D01*
D12*
X13168980Y-14342140D02*
X13188980Y-14362140D01*
X13188980Y-14342140D02*
X13168980Y-14362140D01*
D11*
X13487852Y-14243624D02*
X13506900Y-14243624D01*
X13506900Y-14243624D02*
X13525947Y-14253148D01*
X13525947Y-14253148D02*
X13535471Y-14262671D01*
X13535471Y-14262671D02*
X13544995Y-14281719D01*
X13544995Y-14281719D02*
X13554519Y-14319814D01*
X13554519Y-14319814D02*
X13554519Y-14367433D01*
X13554519Y-14367433D02*
X13544995Y-14405528D01*
X13544995Y-14405528D02*
X13535471Y-14424576D01*
X13535471Y-14424576D02*
X13525947Y-14434100D01*
X13525947Y-14434100D02*
X13506900Y-14443624D01*
X13506900Y-14443624D02*
X13487852Y-14443624D01*
X13487852Y-14443624D02*
X13468804Y-14434100D01*
X13468804Y-14434100D02*
X13459281Y-14424576D01*
X13459281Y-14424576D02*
X13449757Y-14405528D01*
X13449757Y-14405528D02*
X13440233Y-14367433D01*
X13440233Y-14367433D02*
X13440233Y-14319814D01*
X13440233Y-14319814D02*
X13449757Y-14281719D01*
X13449757Y-14281719D02*
X13459281Y-14262671D01*
X13459281Y-14262671D02*
X13468804Y-14253148D01*
X13468804Y-14253148D02*
X13487852Y-14243624D01*
X13640233Y-14424576D02*
X13649757Y-14434100D01*
X13649757Y-14434100D02*
X13640233Y-14443624D01*
X13640233Y-14443624D02*
X13630709Y-14434100D01*
X13630709Y-14434100D02*
X13640233Y-14424576D01*
X13640233Y-14424576D02*
X13640233Y-14443624D01*
X13725947Y-14262671D02*
X13735471Y-14253148D01*
X13735471Y-14253148D02*
X13754519Y-14243624D01*
X13754519Y-14243624D02*
X13802138Y-14243624D01*
X13802138Y-14243624D02*
X13821185Y-14253148D01*
X13821185Y-14253148D02*
X13830709Y-14262671D01*
X13830709Y-14262671D02*
X13840233Y-14281719D01*
X13840233Y-14281719D02*
X13840233Y-14300767D01*
X13840233Y-14300767D02*
X13830709Y-14329338D01*
X13830709Y-14329338D02*
X13716423Y-14443624D01*
X13716423Y-14443624D02*
X13840233Y-14443624D01*
X13964042Y-14243624D02*
X13983090Y-14243624D01*
X13983090Y-14243624D02*
X14002138Y-14253148D01*
X14002138Y-14253148D02*
X14011662Y-14262671D01*
X14011662Y-14262671D02*
X14021185Y-14281719D01*
X14021185Y-14281719D02*
X14030709Y-14319814D01*
X14030709Y-14319814D02*
X14030709Y-14367433D01*
X14030709Y-14367433D02*
X14021185Y-14405528D01*
X14021185Y-14405528D02*
X14011662Y-14424576D01*
X14011662Y-14424576D02*
X14002138Y-14434100D01*
X14002138Y-14434100D02*
X13983090Y-14443624D01*
X13983090Y-14443624D02*
X13964042Y-14443624D01*
X13964042Y-14443624D02*
X13944995Y-14434100D01*
X13944995Y-14434100D02*
X13935471Y-14424576D01*
X13935471Y-14424576D02*
X13925947Y-14405528D01*
X13925947Y-14405528D02*
X13916423Y-14367433D01*
X13916423Y-14367433D02*
X13916423Y-14319814D01*
X13916423Y-14319814D02*
X13925947Y-14281719D01*
X13925947Y-14281719D02*
X13935471Y-14262671D01*
X13935471Y-14262671D02*
X13944995Y-14253148D01*
X13944995Y-14253148D02*
X13964042Y-14243624D01*
X14154519Y-14243624D02*
X14173566Y-14243624D01*
X14173566Y-14243624D02*
X14192614Y-14253148D01*
X14192614Y-14253148D02*
X14202138Y-14262671D01*
X14202138Y-14262671D02*
X14211662Y-14281719D01*
X14211662Y-14281719D02*
X14221185Y-14319814D01*
X14221185Y-14319814D02*
X14221185Y-14367433D01*
X14221185Y-14367433D02*
X14211662Y-14405528D01*
X14211662Y-14405528D02*
X14202138Y-14424576D01*
X14202138Y-14424576D02*
X14192614Y-14434100D01*
X14192614Y-14434100D02*
X14173566Y-14443624D01*
X14173566Y-14443624D02*
X14154519Y-14443624D01*
X14154519Y-14443624D02*
X14135471Y-14434100D01*
X14135471Y-14434100D02*
X14125947Y-14424576D01*
X14125947Y-14424576D02*
X14116423Y-14405528D01*
X14116423Y-14405528D02*
X14106900Y-14367433D01*
X14106900Y-14367433D02*
X14106900Y-14319814D01*
X14106900Y-14319814D02*
X14116423Y-14281719D01*
X14116423Y-14281719D02*
X14125947Y-14262671D01*
X14125947Y-14262671D02*
X14135471Y-14253148D01*
X14135471Y-14253148D02*
X14154519Y-14243624D01*
X14306900Y-14443624D02*
X14306900Y-14310290D01*
X14306900Y-14329338D02*
X14316423Y-14319814D01*
X14316423Y-14319814D02*
X14335471Y-14310290D01*
X14335471Y-14310290D02*
X14364043Y-14310290D01*
X14364043Y-14310290D02*
X14383090Y-14319814D01*
X14383090Y-14319814D02*
X14392614Y-14338862D01*
X14392614Y-14338862D02*
X14392614Y-14443624D01*
X14392614Y-14338862D02*
X14402138Y-14319814D01*
X14402138Y-14319814D02*
X14421185Y-14310290D01*
X14421185Y-14310290D02*
X14449757Y-14310290D01*
X14449757Y-14310290D02*
X14468804Y-14319814D01*
X14468804Y-14319814D02*
X14478328Y-14338862D01*
X14478328Y-14338862D02*
X14478328Y-14443624D01*
X14573566Y-14443624D02*
X14573566Y-14310290D01*
X14573566Y-14329338D02*
X14583090Y-14319814D01*
X14583090Y-14319814D02*
X14602138Y-14310290D01*
X14602138Y-14310290D02*
X14630709Y-14310290D01*
X14630709Y-14310290D02*
X14649757Y-14319814D01*
X14649757Y-14319814D02*
X14659281Y-14338862D01*
X14659281Y-14338862D02*
X14659281Y-14443624D01*
X14659281Y-14338862D02*
X14668804Y-14319814D01*
X14668804Y-14319814D02*
X14687852Y-14310290D01*
X14687852Y-14310290D02*
X14716423Y-14310290D01*
X14716423Y-14310290D02*
X14735471Y-14319814D01*
X14735471Y-14319814D02*
X14744995Y-14338862D01*
X14744995Y-14338862D02*
X14744995Y-14443624D01*
X15135471Y-14234100D02*
X14964043Y-14491243D01*
X15392614Y-14243624D02*
X15411662Y-14243624D01*
X15411662Y-14243624D02*
X15430709Y-14253148D01*
X15430709Y-14253148D02*
X15440233Y-14262671D01*
X15440233Y-14262671D02*
X15449757Y-14281719D01*
X15449757Y-14281719D02*
X15459281Y-14319814D01*
X15459281Y-14319814D02*
X15459281Y-14367433D01*
X15459281Y-14367433D02*
X15449757Y-14405528D01*
X15449757Y-14405528D02*
X15440233Y-14424576D01*
X15440233Y-14424576D02*
X15430709Y-14434100D01*
X15430709Y-14434100D02*
X15411662Y-14443624D01*
X15411662Y-14443624D02*
X15392614Y-14443624D01*
X15392614Y-14443624D02*
X15373566Y-14434100D01*
X15373566Y-14434100D02*
X15364043Y-14424576D01*
X15364043Y-14424576D02*
X15354519Y-14405528D01*
X15354519Y-14405528D02*
X15344995Y-14367433D01*
X15344995Y-14367433D02*
X15344995Y-14319814D01*
X15344995Y-14319814D02*
X15354519Y-14281719D01*
X15354519Y-14281719D02*
X15364043Y-14262671D01*
X15364043Y-14262671D02*
X15373566Y-14253148D01*
X15373566Y-14253148D02*
X15392614Y-14243624D01*
X15544995Y-14424576D02*
X15554519Y-14434100D01*
X15554519Y-14434100D02*
X15544995Y-14443624D01*
X15544995Y-14443624D02*
X15535471Y-14434100D01*
X15535471Y-14434100D02*
X15544995Y-14424576D01*
X15544995Y-14424576D02*
X15544995Y-14443624D01*
X15678328Y-14243624D02*
X15697376Y-14243624D01*
X15697376Y-14243624D02*
X15716424Y-14253148D01*
X15716424Y-14253148D02*
X15725947Y-14262671D01*
X15725947Y-14262671D02*
X15735471Y-14281719D01*
X15735471Y-14281719D02*
X15744995Y-14319814D01*
X15744995Y-14319814D02*
X15744995Y-14367433D01*
X15744995Y-14367433D02*
X15735471Y-14405528D01*
X15735471Y-14405528D02*
X15725947Y-14424576D01*
X15725947Y-14424576D02*
X15716424Y-14434100D01*
X15716424Y-14434100D02*
X15697376Y-14443624D01*
X15697376Y-14443624D02*
X15678328Y-14443624D01*
X15678328Y-14443624D02*
X15659281Y-14434100D01*
X15659281Y-14434100D02*
X15649757Y-14424576D01*
X15649757Y-14424576D02*
X15640233Y-14405528D01*
X15640233Y-14405528D02*
X15630709Y-14367433D01*
X15630709Y-14367433D02*
X15630709Y-14319814D01*
X15630709Y-14319814D02*
X15640233Y-14281719D01*
X15640233Y-14281719D02*
X15649757Y-14262671D01*
X15649757Y-14262671D02*
X15659281Y-14253148D01*
X15659281Y-14253148D02*
X15678328Y-14243624D01*
X15868805Y-14243624D02*
X15887852Y-14243624D01*
X15887852Y-14243624D02*
X15906900Y-14253148D01*
X15906900Y-14253148D02*
X15916424Y-14262671D01*
X15916424Y-14262671D02*
X15925947Y-14281719D01*
X15925947Y-14281719D02*
X15935471Y-14319814D01*
X15935471Y-14319814D02*
X15935471Y-14367433D01*
X15935471Y-14367433D02*
X15925947Y-14405528D01*
X15925947Y-14405528D02*
X15916424Y-14424576D01*
X15916424Y-14424576D02*
X15906900Y-14434100D01*
X15906900Y-14434100D02*
X15887852Y-14443624D01*
X15887852Y-14443624D02*
X15868805Y-14443624D01*
X15868805Y-14443624D02*
X15849757Y-14434100D01*
X15849757Y-14434100D02*
X15840233Y-14424576D01*
X15840233Y-14424576D02*
X15830709Y-14405528D01*
X15830709Y-14405528D02*
X15821186Y-14367433D01*
X15821186Y-14367433D02*
X15821186Y-14319814D01*
X15821186Y-14319814D02*
X15830709Y-14281719D01*
X15830709Y-14281719D02*
X15840233Y-14262671D01*
X15840233Y-14262671D02*
X15849757Y-14253148D01*
X15849757Y-14253148D02*
X15868805Y-14243624D01*
X16002138Y-14243624D02*
X16135471Y-14243624D01*
X16135471Y-14243624D02*
X16049757Y-14443624D01*
X16221186Y-14443624D02*
X16259281Y-14443624D01*
X16259281Y-14443624D02*
X16278328Y-14434100D01*
X16278328Y-14434100D02*
X16287852Y-14424576D01*
X16287852Y-14424576D02*
X16306900Y-14396005D01*
X16306900Y-14396005D02*
X16316424Y-14357909D01*
X16316424Y-14357909D02*
X16316424Y-14281719D01*
X16316424Y-14281719D02*
X16306900Y-14262671D01*
X16306900Y-14262671D02*
X16297376Y-14253148D01*
X16297376Y-14253148D02*
X16278328Y-14243624D01*
X16278328Y-14243624D02*
X16240233Y-14243624D01*
X16240233Y-14243624D02*
X16221186Y-14253148D01*
X16221186Y-14253148D02*
X16211662Y-14262671D01*
X16211662Y-14262671D02*
X16202138Y-14281719D01*
X16202138Y-14281719D02*
X16202138Y-14329338D01*
X16202138Y-14329338D02*
X16211662Y-14348386D01*
X16211662Y-14348386D02*
X16221186Y-14357909D01*
X16221186Y-14357909D02*
X16240233Y-14367433D01*
X16240233Y-14367433D02*
X16278328Y-14367433D01*
X16278328Y-14367433D02*
X16297376Y-14357909D01*
X16297376Y-14357909D02*
X16306900Y-14348386D01*
X16306900Y-14348386D02*
X16316424Y-14329338D01*
X16392614Y-14243624D02*
X16392614Y-14281719D01*
X16468805Y-14243624D02*
X16468805Y-14281719D01*
X16764043Y-14519814D02*
X16754519Y-14510290D01*
X16754519Y-14510290D02*
X16735471Y-14481719D01*
X16735471Y-14481719D02*
X16725948Y-14462671D01*
X16725948Y-14462671D02*
X16716424Y-14434100D01*
X16716424Y-14434100D02*
X16706900Y-14386481D01*
X16706900Y-14386481D02*
X16706900Y-14348386D01*
X16706900Y-14348386D02*
X16716424Y-14300767D01*
X16716424Y-14300767D02*
X16725948Y-14272195D01*
X16725948Y-14272195D02*
X16735471Y-14253148D01*
X16735471Y-14253148D02*
X16754519Y-14224576D01*
X16754519Y-14224576D02*
X16764043Y-14215052D01*
X16830710Y-14262671D02*
X16840233Y-14253148D01*
X16840233Y-14253148D02*
X16859281Y-14243624D01*
X16859281Y-14243624D02*
X16906900Y-14243624D01*
X16906900Y-14243624D02*
X16925948Y-14253148D01*
X16925948Y-14253148D02*
X16935471Y-14262671D01*
X16935471Y-14262671D02*
X16944995Y-14281719D01*
X16944995Y-14281719D02*
X16944995Y-14300767D01*
X16944995Y-14300767D02*
X16935471Y-14329338D01*
X16935471Y-14329338D02*
X16821186Y-14443624D01*
X16821186Y-14443624D02*
X16944995Y-14443624D01*
X17183091Y-14443624D02*
X17183091Y-14243624D01*
X17268805Y-14443624D02*
X17268805Y-14338862D01*
X17268805Y-14338862D02*
X17259281Y-14319814D01*
X17259281Y-14319814D02*
X17240233Y-14310290D01*
X17240233Y-14310290D02*
X17211662Y-14310290D01*
X17211662Y-14310290D02*
X17192614Y-14319814D01*
X17192614Y-14319814D02*
X17183091Y-14329338D01*
X17392614Y-14443624D02*
X17373567Y-14434100D01*
X17373567Y-14434100D02*
X17364043Y-14424576D01*
X17364043Y-14424576D02*
X17354519Y-14405528D01*
X17354519Y-14405528D02*
X17354519Y-14348386D01*
X17354519Y-14348386D02*
X17364043Y-14329338D01*
X17364043Y-14329338D02*
X17373567Y-14319814D01*
X17373567Y-14319814D02*
X17392614Y-14310290D01*
X17392614Y-14310290D02*
X17421186Y-14310290D01*
X17421186Y-14310290D02*
X17440233Y-14319814D01*
X17440233Y-14319814D02*
X17449757Y-14329338D01*
X17449757Y-14329338D02*
X17459281Y-14348386D01*
X17459281Y-14348386D02*
X17459281Y-14405528D01*
X17459281Y-14405528D02*
X17449757Y-14424576D01*
X17449757Y-14424576D02*
X17440233Y-14434100D01*
X17440233Y-14434100D02*
X17421186Y-14443624D01*
X17421186Y-14443624D02*
X17392614Y-14443624D01*
X17573567Y-14443624D02*
X17554519Y-14434100D01*
X17554519Y-14434100D02*
X17544995Y-14415052D01*
X17544995Y-14415052D02*
X17544995Y-14243624D01*
X17725948Y-14434100D02*
X17706900Y-14443624D01*
X17706900Y-14443624D02*
X17668805Y-14443624D01*
X17668805Y-14443624D02*
X17649757Y-14434100D01*
X17649757Y-14434100D02*
X17640233Y-14415052D01*
X17640233Y-14415052D02*
X17640233Y-14338862D01*
X17640233Y-14338862D02*
X17649757Y-14319814D01*
X17649757Y-14319814D02*
X17668805Y-14310290D01*
X17668805Y-14310290D02*
X17706900Y-14310290D01*
X17706900Y-14310290D02*
X17725948Y-14319814D01*
X17725948Y-14319814D02*
X17735472Y-14338862D01*
X17735472Y-14338862D02*
X17735472Y-14357909D01*
X17735472Y-14357909D02*
X17640233Y-14376957D01*
X17811662Y-14434100D02*
X17830710Y-14443624D01*
X17830710Y-14443624D02*
X17868805Y-14443624D01*
X17868805Y-14443624D02*
X17887853Y-14434100D01*
X17887853Y-14434100D02*
X17897376Y-14415052D01*
X17897376Y-14415052D02*
X17897376Y-14405528D01*
X17897376Y-14405528D02*
X17887853Y-14386481D01*
X17887853Y-14386481D02*
X17868805Y-14376957D01*
X17868805Y-14376957D02*
X17840233Y-14376957D01*
X17840233Y-14376957D02*
X17821186Y-14367433D01*
X17821186Y-14367433D02*
X17811662Y-14348386D01*
X17811662Y-14348386D02*
X17811662Y-14338862D01*
X17811662Y-14338862D02*
X17821186Y-14319814D01*
X17821186Y-14319814D02*
X17840233Y-14310290D01*
X17840233Y-14310290D02*
X17868805Y-14310290D01*
X17868805Y-14310290D02*
X17887853Y-14319814D01*
X17964043Y-14519814D02*
X17973567Y-14510290D01*
X17973567Y-14510290D02*
X17992614Y-14481719D01*
X17992614Y-14481719D02*
X18002138Y-14462671D01*
X18002138Y-14462671D02*
X18011662Y-14434100D01*
X18011662Y-14434100D02*
X18021186Y-14386481D01*
X18021186Y-14386481D02*
X18021186Y-14348386D01*
X18021186Y-14348386D02*
X18011662Y-14300767D01*
X18011662Y-14300767D02*
X18002138Y-14272195D01*
X18002138Y-14272195D02*
X17992614Y-14253148D01*
X17992614Y-14253148D02*
X17973567Y-14224576D01*
X17973567Y-14224576D02*
X17964043Y-14215052D01*
D12*
X13188980Y-14616140D02*
G75*
G02*
X13158980Y-14616140I-15000J0D01*
G01*
X13158980Y-14616140D02*
G75*
G02*
X13188980Y-14616140I15000J0D01*
G01*
D11*
X13487852Y-14507624D02*
X13506900Y-14507624D01*
X13506900Y-14507624D02*
X13525947Y-14517148D01*
X13525947Y-14517148D02*
X13535471Y-14526671D01*
X13535471Y-14526671D02*
X13544995Y-14545719D01*
X13544995Y-14545719D02*
X13554519Y-14583814D01*
X13554519Y-14583814D02*
X13554519Y-14631433D01*
X13554519Y-14631433D02*
X13544995Y-14669528D01*
X13544995Y-14669528D02*
X13535471Y-14688576D01*
X13535471Y-14688576D02*
X13525947Y-14698100D01*
X13525947Y-14698100D02*
X13506900Y-14707624D01*
X13506900Y-14707624D02*
X13487852Y-14707624D01*
X13487852Y-14707624D02*
X13468804Y-14698100D01*
X13468804Y-14698100D02*
X13459281Y-14688576D01*
X13459281Y-14688576D02*
X13449757Y-14669528D01*
X13449757Y-14669528D02*
X13440233Y-14631433D01*
X13440233Y-14631433D02*
X13440233Y-14583814D01*
X13440233Y-14583814D02*
X13449757Y-14545719D01*
X13449757Y-14545719D02*
X13459281Y-14526671D01*
X13459281Y-14526671D02*
X13468804Y-14517148D01*
X13468804Y-14517148D02*
X13487852Y-14507624D01*
X13640233Y-14688576D02*
X13649757Y-14698100D01*
X13649757Y-14698100D02*
X13640233Y-14707624D01*
X13640233Y-14707624D02*
X13630709Y-14698100D01*
X13630709Y-14698100D02*
X13640233Y-14688576D01*
X13640233Y-14688576D02*
X13640233Y-14707624D01*
X13716423Y-14507624D02*
X13840233Y-14507624D01*
X13840233Y-14507624D02*
X13773566Y-14583814D01*
X13773566Y-14583814D02*
X13802138Y-14583814D01*
X13802138Y-14583814D02*
X13821185Y-14593338D01*
X13821185Y-14593338D02*
X13830709Y-14602862D01*
X13830709Y-14602862D02*
X13840233Y-14621909D01*
X13840233Y-14621909D02*
X13840233Y-14669528D01*
X13840233Y-14669528D02*
X13830709Y-14688576D01*
X13830709Y-14688576D02*
X13821185Y-14698100D01*
X13821185Y-14698100D02*
X13802138Y-14707624D01*
X13802138Y-14707624D02*
X13744995Y-14707624D01*
X13744995Y-14707624D02*
X13725947Y-14698100D01*
X13725947Y-14698100D02*
X13716423Y-14688576D01*
X13964042Y-14507624D02*
X13983090Y-14507624D01*
X13983090Y-14507624D02*
X14002138Y-14517148D01*
X14002138Y-14517148D02*
X14011662Y-14526671D01*
X14011662Y-14526671D02*
X14021185Y-14545719D01*
X14021185Y-14545719D02*
X14030709Y-14583814D01*
X14030709Y-14583814D02*
X14030709Y-14631433D01*
X14030709Y-14631433D02*
X14021185Y-14669528D01*
X14021185Y-14669528D02*
X14011662Y-14688576D01*
X14011662Y-14688576D02*
X14002138Y-14698100D01*
X14002138Y-14698100D02*
X13983090Y-14707624D01*
X13983090Y-14707624D02*
X13964042Y-14707624D01*
X13964042Y-14707624D02*
X13944995Y-14698100D01*
X13944995Y-14698100D02*
X13935471Y-14688576D01*
X13935471Y-14688576D02*
X13925947Y-14669528D01*
X13925947Y-14669528D02*
X13916423Y-14631433D01*
X13916423Y-14631433D02*
X13916423Y-14583814D01*
X13916423Y-14583814D02*
X13925947Y-14545719D01*
X13925947Y-14545719D02*
X13935471Y-14526671D01*
X13935471Y-14526671D02*
X13944995Y-14517148D01*
X13944995Y-14517148D02*
X13964042Y-14507624D01*
X14154519Y-14507624D02*
X14173566Y-14507624D01*
X14173566Y-14507624D02*
X14192614Y-14517148D01*
X14192614Y-14517148D02*
X14202138Y-14526671D01*
X14202138Y-14526671D02*
X14211662Y-14545719D01*
X14211662Y-14545719D02*
X14221185Y-14583814D01*
X14221185Y-14583814D02*
X14221185Y-14631433D01*
X14221185Y-14631433D02*
X14211662Y-14669528D01*
X14211662Y-14669528D02*
X14202138Y-14688576D01*
X14202138Y-14688576D02*
X14192614Y-14698100D01*
X14192614Y-14698100D02*
X14173566Y-14707624D01*
X14173566Y-14707624D02*
X14154519Y-14707624D01*
X14154519Y-14707624D02*
X14135471Y-14698100D01*
X14135471Y-14698100D02*
X14125947Y-14688576D01*
X14125947Y-14688576D02*
X14116423Y-14669528D01*
X14116423Y-14669528D02*
X14106900Y-14631433D01*
X14106900Y-14631433D02*
X14106900Y-14583814D01*
X14106900Y-14583814D02*
X14116423Y-14545719D01*
X14116423Y-14545719D02*
X14125947Y-14526671D01*
X14125947Y-14526671D02*
X14135471Y-14517148D01*
X14135471Y-14517148D02*
X14154519Y-14507624D01*
X14306900Y-14707624D02*
X14306900Y-14574290D01*
X14306900Y-14593338D02*
X14316423Y-14583814D01*
X14316423Y-14583814D02*
X14335471Y-14574290D01*
X14335471Y-14574290D02*
X14364043Y-14574290D01*
X14364043Y-14574290D02*
X14383090Y-14583814D01*
X14383090Y-14583814D02*
X14392614Y-14602862D01*
X14392614Y-14602862D02*
X14392614Y-14707624D01*
X14392614Y-14602862D02*
X14402138Y-14583814D01*
X14402138Y-14583814D02*
X14421185Y-14574290D01*
X14421185Y-14574290D02*
X14449757Y-14574290D01*
X14449757Y-14574290D02*
X14468804Y-14583814D01*
X14468804Y-14583814D02*
X14478328Y-14602862D01*
X14478328Y-14602862D02*
X14478328Y-14707624D01*
X14573566Y-14707624D02*
X14573566Y-14574290D01*
X14573566Y-14593338D02*
X14583090Y-14583814D01*
X14583090Y-14583814D02*
X14602138Y-14574290D01*
X14602138Y-14574290D02*
X14630709Y-14574290D01*
X14630709Y-14574290D02*
X14649757Y-14583814D01*
X14649757Y-14583814D02*
X14659281Y-14602862D01*
X14659281Y-14602862D02*
X14659281Y-14707624D01*
X14659281Y-14602862D02*
X14668804Y-14583814D01*
X14668804Y-14583814D02*
X14687852Y-14574290D01*
X14687852Y-14574290D02*
X14716423Y-14574290D01*
X14716423Y-14574290D02*
X14735471Y-14583814D01*
X14735471Y-14583814D02*
X14744995Y-14602862D01*
X14744995Y-14602862D02*
X14744995Y-14707624D01*
X15135471Y-14498100D02*
X14964043Y-14755243D01*
X15392614Y-14507624D02*
X15411662Y-14507624D01*
X15411662Y-14507624D02*
X15430709Y-14517148D01*
X15430709Y-14517148D02*
X15440233Y-14526671D01*
X15440233Y-14526671D02*
X15449757Y-14545719D01*
X15449757Y-14545719D02*
X15459281Y-14583814D01*
X15459281Y-14583814D02*
X15459281Y-14631433D01*
X15459281Y-14631433D02*
X15449757Y-14669528D01*
X15449757Y-14669528D02*
X15440233Y-14688576D01*
X15440233Y-14688576D02*
X15430709Y-14698100D01*
X15430709Y-14698100D02*
X15411662Y-14707624D01*
X15411662Y-14707624D02*
X15392614Y-14707624D01*
X15392614Y-14707624D02*
X15373566Y-14698100D01*
X15373566Y-14698100D02*
X15364043Y-14688576D01*
X15364043Y-14688576D02*
X15354519Y-14669528D01*
X15354519Y-14669528D02*
X15344995Y-14631433D01*
X15344995Y-14631433D02*
X15344995Y-14583814D01*
X15344995Y-14583814D02*
X15354519Y-14545719D01*
X15354519Y-14545719D02*
X15364043Y-14526671D01*
X15364043Y-14526671D02*
X15373566Y-14517148D01*
X15373566Y-14517148D02*
X15392614Y-14507624D01*
X15544995Y-14688576D02*
X15554519Y-14698100D01*
X15554519Y-14698100D02*
X15544995Y-14707624D01*
X15544995Y-14707624D02*
X15535471Y-14698100D01*
X15535471Y-14698100D02*
X15544995Y-14688576D01*
X15544995Y-14688576D02*
X15544995Y-14707624D01*
X15678328Y-14507624D02*
X15697376Y-14507624D01*
X15697376Y-14507624D02*
X15716424Y-14517148D01*
X15716424Y-14517148D02*
X15725947Y-14526671D01*
X15725947Y-14526671D02*
X15735471Y-14545719D01*
X15735471Y-14545719D02*
X15744995Y-14583814D01*
X15744995Y-14583814D02*
X15744995Y-14631433D01*
X15744995Y-14631433D02*
X15735471Y-14669528D01*
X15735471Y-14669528D02*
X15725947Y-14688576D01*
X15725947Y-14688576D02*
X15716424Y-14698100D01*
X15716424Y-14698100D02*
X15697376Y-14707624D01*
X15697376Y-14707624D02*
X15678328Y-14707624D01*
X15678328Y-14707624D02*
X15659281Y-14698100D01*
X15659281Y-14698100D02*
X15649757Y-14688576D01*
X15649757Y-14688576D02*
X15640233Y-14669528D01*
X15640233Y-14669528D02*
X15630709Y-14631433D01*
X15630709Y-14631433D02*
X15630709Y-14583814D01*
X15630709Y-14583814D02*
X15640233Y-14545719D01*
X15640233Y-14545719D02*
X15649757Y-14526671D01*
X15649757Y-14526671D02*
X15659281Y-14517148D01*
X15659281Y-14517148D02*
X15678328Y-14507624D01*
X15935471Y-14707624D02*
X15821186Y-14707624D01*
X15878328Y-14707624D02*
X15878328Y-14507624D01*
X15878328Y-14507624D02*
X15859281Y-14536195D01*
X15859281Y-14536195D02*
X15840233Y-14555243D01*
X15840233Y-14555243D02*
X15821186Y-14564767D01*
X16125947Y-14707624D02*
X16011662Y-14707624D01*
X16068805Y-14707624D02*
X16068805Y-14507624D01*
X16068805Y-14507624D02*
X16049757Y-14536195D01*
X16049757Y-14536195D02*
X16030709Y-14555243D01*
X16030709Y-14555243D02*
X16011662Y-14564767D01*
X16240233Y-14593338D02*
X16221186Y-14583814D01*
X16221186Y-14583814D02*
X16211662Y-14574290D01*
X16211662Y-14574290D02*
X16202138Y-14555243D01*
X16202138Y-14555243D02*
X16202138Y-14545719D01*
X16202138Y-14545719D02*
X16211662Y-14526671D01*
X16211662Y-14526671D02*
X16221186Y-14517148D01*
X16221186Y-14517148D02*
X16240233Y-14507624D01*
X16240233Y-14507624D02*
X16278328Y-14507624D01*
X16278328Y-14507624D02*
X16297376Y-14517148D01*
X16297376Y-14517148D02*
X16306900Y-14526671D01*
X16306900Y-14526671D02*
X16316424Y-14545719D01*
X16316424Y-14545719D02*
X16316424Y-14555243D01*
X16316424Y-14555243D02*
X16306900Y-14574290D01*
X16306900Y-14574290D02*
X16297376Y-14583814D01*
X16297376Y-14583814D02*
X16278328Y-14593338D01*
X16278328Y-14593338D02*
X16240233Y-14593338D01*
X16240233Y-14593338D02*
X16221186Y-14602862D01*
X16221186Y-14602862D02*
X16211662Y-14612386D01*
X16211662Y-14612386D02*
X16202138Y-14631433D01*
X16202138Y-14631433D02*
X16202138Y-14669528D01*
X16202138Y-14669528D02*
X16211662Y-14688576D01*
X16211662Y-14688576D02*
X16221186Y-14698100D01*
X16221186Y-14698100D02*
X16240233Y-14707624D01*
X16240233Y-14707624D02*
X16278328Y-14707624D01*
X16278328Y-14707624D02*
X16297376Y-14698100D01*
X16297376Y-14698100D02*
X16306900Y-14688576D01*
X16306900Y-14688576D02*
X16316424Y-14669528D01*
X16316424Y-14669528D02*
X16316424Y-14631433D01*
X16316424Y-14631433D02*
X16306900Y-14612386D01*
X16306900Y-14612386D02*
X16297376Y-14602862D01*
X16297376Y-14602862D02*
X16278328Y-14593338D01*
X16392614Y-14507624D02*
X16392614Y-14545719D01*
X16468805Y-14507624D02*
X16468805Y-14545719D01*
X16764043Y-14783814D02*
X16754519Y-14774290D01*
X16754519Y-14774290D02*
X16735471Y-14745719D01*
X16735471Y-14745719D02*
X16725948Y-14726671D01*
X16725948Y-14726671D02*
X16716424Y-14698100D01*
X16716424Y-14698100D02*
X16706900Y-14650481D01*
X16706900Y-14650481D02*
X16706900Y-14612386D01*
X16706900Y-14612386D02*
X16716424Y-14564767D01*
X16716424Y-14564767D02*
X16725948Y-14536195D01*
X16725948Y-14536195D02*
X16735471Y-14517148D01*
X16735471Y-14517148D02*
X16754519Y-14488576D01*
X16754519Y-14488576D02*
X16764043Y-14479052D01*
X16935471Y-14507624D02*
X16840233Y-14507624D01*
X16840233Y-14507624D02*
X16830710Y-14602862D01*
X16830710Y-14602862D02*
X16840233Y-14593338D01*
X16840233Y-14593338D02*
X16859281Y-14583814D01*
X16859281Y-14583814D02*
X16906900Y-14583814D01*
X16906900Y-14583814D02*
X16925948Y-14593338D01*
X16925948Y-14593338D02*
X16935471Y-14602862D01*
X16935471Y-14602862D02*
X16944995Y-14621909D01*
X16944995Y-14621909D02*
X16944995Y-14669528D01*
X16944995Y-14669528D02*
X16935471Y-14688576D01*
X16935471Y-14688576D02*
X16925948Y-14698100D01*
X16925948Y-14698100D02*
X16906900Y-14707624D01*
X16906900Y-14707624D02*
X16859281Y-14707624D01*
X16859281Y-14707624D02*
X16840233Y-14698100D01*
X16840233Y-14698100D02*
X16830710Y-14688576D01*
X17011662Y-14507624D02*
X17135471Y-14507624D01*
X17135471Y-14507624D02*
X17068805Y-14583814D01*
X17068805Y-14583814D02*
X17097376Y-14583814D01*
X17097376Y-14583814D02*
X17116424Y-14593338D01*
X17116424Y-14593338D02*
X17125948Y-14602862D01*
X17125948Y-14602862D02*
X17135471Y-14621909D01*
X17135471Y-14621909D02*
X17135471Y-14669528D01*
X17135471Y-14669528D02*
X17125948Y-14688576D01*
X17125948Y-14688576D02*
X17116424Y-14698100D01*
X17116424Y-14698100D02*
X17097376Y-14707624D01*
X17097376Y-14707624D02*
X17040233Y-14707624D01*
X17040233Y-14707624D02*
X17021186Y-14698100D01*
X17021186Y-14698100D02*
X17011662Y-14688576D01*
X17373567Y-14707624D02*
X17373567Y-14507624D01*
X17459281Y-14707624D02*
X17459281Y-14602862D01*
X17459281Y-14602862D02*
X17449757Y-14583814D01*
X17449757Y-14583814D02*
X17430710Y-14574290D01*
X17430710Y-14574290D02*
X17402138Y-14574290D01*
X17402138Y-14574290D02*
X17383091Y-14583814D01*
X17383091Y-14583814D02*
X17373567Y-14593338D01*
X17583091Y-14707624D02*
X17564043Y-14698100D01*
X17564043Y-14698100D02*
X17554519Y-14688576D01*
X17554519Y-14688576D02*
X17544995Y-14669528D01*
X17544995Y-14669528D02*
X17544995Y-14612386D01*
X17544995Y-14612386D02*
X17554519Y-14593338D01*
X17554519Y-14593338D02*
X17564043Y-14583814D01*
X17564043Y-14583814D02*
X17583091Y-14574290D01*
X17583091Y-14574290D02*
X17611662Y-14574290D01*
X17611662Y-14574290D02*
X17630710Y-14583814D01*
X17630710Y-14583814D02*
X17640233Y-14593338D01*
X17640233Y-14593338D02*
X17649757Y-14612386D01*
X17649757Y-14612386D02*
X17649757Y-14669528D01*
X17649757Y-14669528D02*
X17640233Y-14688576D01*
X17640233Y-14688576D02*
X17630710Y-14698100D01*
X17630710Y-14698100D02*
X17611662Y-14707624D01*
X17611662Y-14707624D02*
X17583091Y-14707624D01*
X17764043Y-14707624D02*
X17744995Y-14698100D01*
X17744995Y-14698100D02*
X17735472Y-14679052D01*
X17735472Y-14679052D02*
X17735472Y-14507624D01*
X17916424Y-14698100D02*
X17897376Y-14707624D01*
X17897376Y-14707624D02*
X17859281Y-14707624D01*
X17859281Y-14707624D02*
X17840233Y-14698100D01*
X17840233Y-14698100D02*
X17830710Y-14679052D01*
X17830710Y-14679052D02*
X17830710Y-14602862D01*
X17830710Y-14602862D02*
X17840233Y-14583814D01*
X17840233Y-14583814D02*
X17859281Y-14574290D01*
X17859281Y-14574290D02*
X17897376Y-14574290D01*
X17897376Y-14574290D02*
X17916424Y-14583814D01*
X17916424Y-14583814D02*
X17925948Y-14602862D01*
X17925948Y-14602862D02*
X17925948Y-14621909D01*
X17925948Y-14621909D02*
X17830710Y-14640957D01*
X18002138Y-14698100D02*
X18021186Y-14707624D01*
X18021186Y-14707624D02*
X18059281Y-14707624D01*
X18059281Y-14707624D02*
X18078329Y-14698100D01*
X18078329Y-14698100D02*
X18087853Y-14679052D01*
X18087853Y-14679052D02*
X18087853Y-14669528D01*
X18087853Y-14669528D02*
X18078329Y-14650481D01*
X18078329Y-14650481D02*
X18059281Y-14640957D01*
X18059281Y-14640957D02*
X18030710Y-14640957D01*
X18030710Y-14640957D02*
X18011662Y-14631433D01*
X18011662Y-14631433D02*
X18002138Y-14612386D01*
X18002138Y-14612386D02*
X18002138Y-14602862D01*
X18002138Y-14602862D02*
X18011662Y-14583814D01*
X18011662Y-14583814D02*
X18030710Y-14574290D01*
X18030710Y-14574290D02*
X18059281Y-14574290D01*
X18059281Y-14574290D02*
X18078329Y-14583814D01*
X18154519Y-14783814D02*
X18164043Y-14774290D01*
X18164043Y-14774290D02*
X18183091Y-14745719D01*
X18183091Y-14745719D02*
X18192614Y-14726671D01*
X18192614Y-14726671D02*
X18202138Y-14698100D01*
X18202138Y-14698100D02*
X18211662Y-14650481D01*
X18211662Y-14650481D02*
X18211662Y-14612386D01*
X18211662Y-14612386D02*
X18202138Y-14564767D01*
X18202138Y-14564767D02*
X18192614Y-14536195D01*
X18192614Y-14536195D02*
X18183091Y-14517148D01*
X18183091Y-14517148D02*
X18164043Y-14488576D01*
X18164043Y-14488576D02*
X18154519Y-14479052D01*
D12*
X13168980Y-14860140D02*
X13168980Y-14900140D01*
X13148980Y-14880140D02*
X13188980Y-14880140D01*
D11*
X13487852Y-14771624D02*
X13506900Y-14771624D01*
X13506900Y-14771624D02*
X13525947Y-14781148D01*
X13525947Y-14781148D02*
X13535471Y-14790671D01*
X13535471Y-14790671D02*
X13544995Y-14809719D01*
X13544995Y-14809719D02*
X13554519Y-14847814D01*
X13554519Y-14847814D02*
X13554519Y-14895433D01*
X13554519Y-14895433D02*
X13544995Y-14933528D01*
X13544995Y-14933528D02*
X13535471Y-14952576D01*
X13535471Y-14952576D02*
X13525947Y-14962100D01*
X13525947Y-14962100D02*
X13506900Y-14971624D01*
X13506900Y-14971624D02*
X13487852Y-14971624D01*
X13487852Y-14971624D02*
X13468804Y-14962100D01*
X13468804Y-14962100D02*
X13459281Y-14952576D01*
X13459281Y-14952576D02*
X13449757Y-14933528D01*
X13449757Y-14933528D02*
X13440233Y-14895433D01*
X13440233Y-14895433D02*
X13440233Y-14847814D01*
X13440233Y-14847814D02*
X13449757Y-14809719D01*
X13449757Y-14809719D02*
X13459281Y-14790671D01*
X13459281Y-14790671D02*
X13468804Y-14781148D01*
X13468804Y-14781148D02*
X13487852Y-14771624D01*
X13640233Y-14952576D02*
X13649757Y-14962100D01*
X13649757Y-14962100D02*
X13640233Y-14971624D01*
X13640233Y-14971624D02*
X13630709Y-14962100D01*
X13630709Y-14962100D02*
X13640233Y-14952576D01*
X13640233Y-14952576D02*
X13640233Y-14971624D01*
X13821185Y-14838290D02*
X13821185Y-14971624D01*
X13773566Y-14762100D02*
X13725947Y-14904957D01*
X13725947Y-14904957D02*
X13849757Y-14904957D01*
X13964042Y-14771624D02*
X13983090Y-14771624D01*
X13983090Y-14771624D02*
X14002138Y-14781148D01*
X14002138Y-14781148D02*
X14011662Y-14790671D01*
X14011662Y-14790671D02*
X14021185Y-14809719D01*
X14021185Y-14809719D02*
X14030709Y-14847814D01*
X14030709Y-14847814D02*
X14030709Y-14895433D01*
X14030709Y-14895433D02*
X14021185Y-14933528D01*
X14021185Y-14933528D02*
X14011662Y-14952576D01*
X14011662Y-14952576D02*
X14002138Y-14962100D01*
X14002138Y-14962100D02*
X13983090Y-14971624D01*
X13983090Y-14971624D02*
X13964042Y-14971624D01*
X13964042Y-14971624D02*
X13944995Y-14962100D01*
X13944995Y-14962100D02*
X13935471Y-14952576D01*
X13935471Y-14952576D02*
X13925947Y-14933528D01*
X13925947Y-14933528D02*
X13916423Y-14895433D01*
X13916423Y-14895433D02*
X13916423Y-14847814D01*
X13916423Y-14847814D02*
X13925947Y-14809719D01*
X13925947Y-14809719D02*
X13935471Y-14790671D01*
X13935471Y-14790671D02*
X13944995Y-14781148D01*
X13944995Y-14781148D02*
X13964042Y-14771624D01*
X14154519Y-14771624D02*
X14173566Y-14771624D01*
X14173566Y-14771624D02*
X14192614Y-14781148D01*
X14192614Y-14781148D02*
X14202138Y-14790671D01*
X14202138Y-14790671D02*
X14211662Y-14809719D01*
X14211662Y-14809719D02*
X14221185Y-14847814D01*
X14221185Y-14847814D02*
X14221185Y-14895433D01*
X14221185Y-14895433D02*
X14211662Y-14933528D01*
X14211662Y-14933528D02*
X14202138Y-14952576D01*
X14202138Y-14952576D02*
X14192614Y-14962100D01*
X14192614Y-14962100D02*
X14173566Y-14971624D01*
X14173566Y-14971624D02*
X14154519Y-14971624D01*
X14154519Y-14971624D02*
X14135471Y-14962100D01*
X14135471Y-14962100D02*
X14125947Y-14952576D01*
X14125947Y-14952576D02*
X14116423Y-14933528D01*
X14116423Y-14933528D02*
X14106900Y-14895433D01*
X14106900Y-14895433D02*
X14106900Y-14847814D01*
X14106900Y-14847814D02*
X14116423Y-14809719D01*
X14116423Y-14809719D02*
X14125947Y-14790671D01*
X14125947Y-14790671D02*
X14135471Y-14781148D01*
X14135471Y-14781148D02*
X14154519Y-14771624D01*
X14306900Y-14971624D02*
X14306900Y-14838290D01*
X14306900Y-14857338D02*
X14316423Y-14847814D01*
X14316423Y-14847814D02*
X14335471Y-14838290D01*
X14335471Y-14838290D02*
X14364043Y-14838290D01*
X14364043Y-14838290D02*
X14383090Y-14847814D01*
X14383090Y-14847814D02*
X14392614Y-14866862D01*
X14392614Y-14866862D02*
X14392614Y-14971624D01*
X14392614Y-14866862D02*
X14402138Y-14847814D01*
X14402138Y-14847814D02*
X14421185Y-14838290D01*
X14421185Y-14838290D02*
X14449757Y-14838290D01*
X14449757Y-14838290D02*
X14468804Y-14847814D01*
X14468804Y-14847814D02*
X14478328Y-14866862D01*
X14478328Y-14866862D02*
X14478328Y-14971624D01*
X14573566Y-14971624D02*
X14573566Y-14838290D01*
X14573566Y-14857338D02*
X14583090Y-14847814D01*
X14583090Y-14847814D02*
X14602138Y-14838290D01*
X14602138Y-14838290D02*
X14630709Y-14838290D01*
X14630709Y-14838290D02*
X14649757Y-14847814D01*
X14649757Y-14847814D02*
X14659281Y-14866862D01*
X14659281Y-14866862D02*
X14659281Y-14971624D01*
X14659281Y-14866862D02*
X14668804Y-14847814D01*
X14668804Y-14847814D02*
X14687852Y-14838290D01*
X14687852Y-14838290D02*
X14716423Y-14838290D01*
X14716423Y-14838290D02*
X14735471Y-14847814D01*
X14735471Y-14847814D02*
X14744995Y-14866862D01*
X14744995Y-14866862D02*
X14744995Y-14971624D01*
X15135471Y-14762100D02*
X14964043Y-15019243D01*
X15392614Y-14771624D02*
X15411662Y-14771624D01*
X15411662Y-14771624D02*
X15430709Y-14781148D01*
X15430709Y-14781148D02*
X15440233Y-14790671D01*
X15440233Y-14790671D02*
X15449757Y-14809719D01*
X15449757Y-14809719D02*
X15459281Y-14847814D01*
X15459281Y-14847814D02*
X15459281Y-14895433D01*
X15459281Y-14895433D02*
X15449757Y-14933528D01*
X15449757Y-14933528D02*
X15440233Y-14952576D01*
X15440233Y-14952576D02*
X15430709Y-14962100D01*
X15430709Y-14962100D02*
X15411662Y-14971624D01*
X15411662Y-14971624D02*
X15392614Y-14971624D01*
X15392614Y-14971624D02*
X15373566Y-14962100D01*
X15373566Y-14962100D02*
X15364043Y-14952576D01*
X15364043Y-14952576D02*
X15354519Y-14933528D01*
X15354519Y-14933528D02*
X15344995Y-14895433D01*
X15344995Y-14895433D02*
X15344995Y-14847814D01*
X15344995Y-14847814D02*
X15354519Y-14809719D01*
X15354519Y-14809719D02*
X15364043Y-14790671D01*
X15364043Y-14790671D02*
X15373566Y-14781148D01*
X15373566Y-14781148D02*
X15392614Y-14771624D01*
X15544995Y-14952576D02*
X15554519Y-14962100D01*
X15554519Y-14962100D02*
X15544995Y-14971624D01*
X15544995Y-14971624D02*
X15535471Y-14962100D01*
X15535471Y-14962100D02*
X15544995Y-14952576D01*
X15544995Y-14952576D02*
X15544995Y-14971624D01*
X15678328Y-14771624D02*
X15697376Y-14771624D01*
X15697376Y-14771624D02*
X15716424Y-14781148D01*
X15716424Y-14781148D02*
X15725947Y-14790671D01*
X15725947Y-14790671D02*
X15735471Y-14809719D01*
X15735471Y-14809719D02*
X15744995Y-14847814D01*
X15744995Y-14847814D02*
X15744995Y-14895433D01*
X15744995Y-14895433D02*
X15735471Y-14933528D01*
X15735471Y-14933528D02*
X15725947Y-14952576D01*
X15725947Y-14952576D02*
X15716424Y-14962100D01*
X15716424Y-14962100D02*
X15697376Y-14971624D01*
X15697376Y-14971624D02*
X15678328Y-14971624D01*
X15678328Y-14971624D02*
X15659281Y-14962100D01*
X15659281Y-14962100D02*
X15649757Y-14952576D01*
X15649757Y-14952576D02*
X15640233Y-14933528D01*
X15640233Y-14933528D02*
X15630709Y-14895433D01*
X15630709Y-14895433D02*
X15630709Y-14847814D01*
X15630709Y-14847814D02*
X15640233Y-14809719D01*
X15640233Y-14809719D02*
X15649757Y-14790671D01*
X15649757Y-14790671D02*
X15659281Y-14781148D01*
X15659281Y-14781148D02*
X15678328Y-14771624D01*
X15935471Y-14971624D02*
X15821186Y-14971624D01*
X15878328Y-14971624D02*
X15878328Y-14771624D01*
X15878328Y-14771624D02*
X15859281Y-14800195D01*
X15859281Y-14800195D02*
X15840233Y-14819243D01*
X15840233Y-14819243D02*
X15821186Y-14828767D01*
X16116424Y-14771624D02*
X16021186Y-14771624D01*
X16021186Y-14771624D02*
X16011662Y-14866862D01*
X16011662Y-14866862D02*
X16021186Y-14857338D01*
X16021186Y-14857338D02*
X16040233Y-14847814D01*
X16040233Y-14847814D02*
X16087852Y-14847814D01*
X16087852Y-14847814D02*
X16106900Y-14857338D01*
X16106900Y-14857338D02*
X16116424Y-14866862D01*
X16116424Y-14866862D02*
X16125947Y-14885909D01*
X16125947Y-14885909D02*
X16125947Y-14933528D01*
X16125947Y-14933528D02*
X16116424Y-14952576D01*
X16116424Y-14952576D02*
X16106900Y-14962100D01*
X16106900Y-14962100D02*
X16087852Y-14971624D01*
X16087852Y-14971624D02*
X16040233Y-14971624D01*
X16040233Y-14971624D02*
X16021186Y-14962100D01*
X16021186Y-14962100D02*
X16011662Y-14952576D01*
X16192614Y-14771624D02*
X16325947Y-14771624D01*
X16325947Y-14771624D02*
X16240233Y-14971624D01*
X16392614Y-14771624D02*
X16392614Y-14809719D01*
X16468805Y-14771624D02*
X16468805Y-14809719D01*
X16764043Y-15047814D02*
X16754519Y-15038290D01*
X16754519Y-15038290D02*
X16735471Y-15009719D01*
X16735471Y-15009719D02*
X16725948Y-14990671D01*
X16725948Y-14990671D02*
X16716424Y-14962100D01*
X16716424Y-14962100D02*
X16706900Y-14914481D01*
X16706900Y-14914481D02*
X16706900Y-14876386D01*
X16706900Y-14876386D02*
X16716424Y-14828767D01*
X16716424Y-14828767D02*
X16725948Y-14800195D01*
X16725948Y-14800195D02*
X16735471Y-14781148D01*
X16735471Y-14781148D02*
X16754519Y-14752576D01*
X16754519Y-14752576D02*
X16764043Y-14743052D01*
X16925948Y-14838290D02*
X16925948Y-14971624D01*
X16878329Y-14762100D02*
X16830710Y-14904957D01*
X16830710Y-14904957D02*
X16954519Y-14904957D01*
X17125948Y-14771624D02*
X17030710Y-14771624D01*
X17030710Y-14771624D02*
X17021186Y-14866862D01*
X17021186Y-14866862D02*
X17030710Y-14857338D01*
X17030710Y-14857338D02*
X17049757Y-14847814D01*
X17049757Y-14847814D02*
X17097376Y-14847814D01*
X17097376Y-14847814D02*
X17116424Y-14857338D01*
X17116424Y-14857338D02*
X17125948Y-14866862D01*
X17125948Y-14866862D02*
X17135471Y-14885909D01*
X17135471Y-14885909D02*
X17135471Y-14933528D01*
X17135471Y-14933528D02*
X17125948Y-14952576D01*
X17125948Y-14952576D02*
X17116424Y-14962100D01*
X17116424Y-14962100D02*
X17097376Y-14971624D01*
X17097376Y-14971624D02*
X17049757Y-14971624D01*
X17049757Y-14971624D02*
X17030710Y-14962100D01*
X17030710Y-14962100D02*
X17021186Y-14952576D01*
X17373567Y-14971624D02*
X17373567Y-14771624D01*
X17459281Y-14971624D02*
X17459281Y-14866862D01*
X17459281Y-14866862D02*
X17449757Y-14847814D01*
X17449757Y-14847814D02*
X17430710Y-14838290D01*
X17430710Y-14838290D02*
X17402138Y-14838290D01*
X17402138Y-14838290D02*
X17383091Y-14847814D01*
X17383091Y-14847814D02*
X17373567Y-14857338D01*
X17583091Y-14971624D02*
X17564043Y-14962100D01*
X17564043Y-14962100D02*
X17554519Y-14952576D01*
X17554519Y-14952576D02*
X17544995Y-14933528D01*
X17544995Y-14933528D02*
X17544995Y-14876386D01*
X17544995Y-14876386D02*
X17554519Y-14857338D01*
X17554519Y-14857338D02*
X17564043Y-14847814D01*
X17564043Y-14847814D02*
X17583091Y-14838290D01*
X17583091Y-14838290D02*
X17611662Y-14838290D01*
X17611662Y-14838290D02*
X17630710Y-14847814D01*
X17630710Y-14847814D02*
X17640233Y-14857338D01*
X17640233Y-14857338D02*
X17649757Y-14876386D01*
X17649757Y-14876386D02*
X17649757Y-14933528D01*
X17649757Y-14933528D02*
X17640233Y-14952576D01*
X17640233Y-14952576D02*
X17630710Y-14962100D01*
X17630710Y-14962100D02*
X17611662Y-14971624D01*
X17611662Y-14971624D02*
X17583091Y-14971624D01*
X17764043Y-14971624D02*
X17744995Y-14962100D01*
X17744995Y-14962100D02*
X17735472Y-14943052D01*
X17735472Y-14943052D02*
X17735472Y-14771624D01*
X17916424Y-14962100D02*
X17897376Y-14971624D01*
X17897376Y-14971624D02*
X17859281Y-14971624D01*
X17859281Y-14971624D02*
X17840233Y-14962100D01*
X17840233Y-14962100D02*
X17830710Y-14943052D01*
X17830710Y-14943052D02*
X17830710Y-14866862D01*
X17830710Y-14866862D02*
X17840233Y-14847814D01*
X17840233Y-14847814D02*
X17859281Y-14838290D01*
X17859281Y-14838290D02*
X17897376Y-14838290D01*
X17897376Y-14838290D02*
X17916424Y-14847814D01*
X17916424Y-14847814D02*
X17925948Y-14866862D01*
X17925948Y-14866862D02*
X17925948Y-14885909D01*
X17925948Y-14885909D02*
X17830710Y-14904957D01*
X18002138Y-14962100D02*
X18021186Y-14971624D01*
X18021186Y-14971624D02*
X18059281Y-14971624D01*
X18059281Y-14971624D02*
X18078329Y-14962100D01*
X18078329Y-14962100D02*
X18087853Y-14943052D01*
X18087853Y-14943052D02*
X18087853Y-14933528D01*
X18087853Y-14933528D02*
X18078329Y-14914481D01*
X18078329Y-14914481D02*
X18059281Y-14904957D01*
X18059281Y-14904957D02*
X18030710Y-14904957D01*
X18030710Y-14904957D02*
X18011662Y-14895433D01*
X18011662Y-14895433D02*
X18002138Y-14876386D01*
X18002138Y-14876386D02*
X18002138Y-14866862D01*
X18002138Y-14866862D02*
X18011662Y-14847814D01*
X18011662Y-14847814D02*
X18030710Y-14838290D01*
X18030710Y-14838290D02*
X18059281Y-14838290D01*
X18059281Y-14838290D02*
X18078329Y-14847814D01*
X18154519Y-15047814D02*
X18164043Y-15038290D01*
X18164043Y-15038290D02*
X18183091Y-15009719D01*
X18183091Y-15009719D02*
X18192614Y-14990671D01*
X18192614Y-14990671D02*
X18202138Y-14962100D01*
X18202138Y-14962100D02*
X18211662Y-14914481D01*
X18211662Y-14914481D02*
X18211662Y-14876386D01*
X18211662Y-14876386D02*
X18202138Y-14828767D01*
X18202138Y-14828767D02*
X18192614Y-14800195D01*
X18192614Y-14800195D02*
X18183091Y-14781148D01*
X18183091Y-14781148D02*
X18164043Y-14752576D01*
X18164043Y-14752576D02*
X18154519Y-14743052D01*
D12*
X13183122Y-15158282D02*
X13183122Y-15129998D01*
X13154838Y-15129998D01*
X13154838Y-15158282D01*
X13183122Y-15158282D01*
D11*
X13487852Y-15035624D02*
X13506900Y-15035624D01*
X13506900Y-15035624D02*
X13525947Y-15045148D01*
X13525947Y-15045148D02*
X13535471Y-15054671D01*
X13535471Y-15054671D02*
X13544995Y-15073719D01*
X13544995Y-15073719D02*
X13554519Y-15111814D01*
X13554519Y-15111814D02*
X13554519Y-15159433D01*
X13554519Y-15159433D02*
X13544995Y-15197528D01*
X13544995Y-15197528D02*
X13535471Y-15216576D01*
X13535471Y-15216576D02*
X13525947Y-15226100D01*
X13525947Y-15226100D02*
X13506900Y-15235624D01*
X13506900Y-15235624D02*
X13487852Y-15235624D01*
X13487852Y-15235624D02*
X13468804Y-15226100D01*
X13468804Y-15226100D02*
X13459281Y-15216576D01*
X13459281Y-15216576D02*
X13449757Y-15197528D01*
X13449757Y-15197528D02*
X13440233Y-15159433D01*
X13440233Y-15159433D02*
X13440233Y-15111814D01*
X13440233Y-15111814D02*
X13449757Y-15073719D01*
X13449757Y-15073719D02*
X13459281Y-15054671D01*
X13459281Y-15054671D02*
X13468804Y-15045148D01*
X13468804Y-15045148D02*
X13487852Y-15035624D01*
X13640233Y-15216576D02*
X13649757Y-15226100D01*
X13649757Y-15226100D02*
X13640233Y-15235624D01*
X13640233Y-15235624D02*
X13630709Y-15226100D01*
X13630709Y-15226100D02*
X13640233Y-15216576D01*
X13640233Y-15216576D02*
X13640233Y-15235624D01*
X13821185Y-15102290D02*
X13821185Y-15235624D01*
X13773566Y-15026100D02*
X13725947Y-15168957D01*
X13725947Y-15168957D02*
X13849757Y-15168957D01*
X13964042Y-15035624D02*
X13983090Y-15035624D01*
X13983090Y-15035624D02*
X14002138Y-15045148D01*
X14002138Y-15045148D02*
X14011662Y-15054671D01*
X14011662Y-15054671D02*
X14021185Y-15073719D01*
X14021185Y-15073719D02*
X14030709Y-15111814D01*
X14030709Y-15111814D02*
X14030709Y-15159433D01*
X14030709Y-15159433D02*
X14021185Y-15197528D01*
X14021185Y-15197528D02*
X14011662Y-15216576D01*
X14011662Y-15216576D02*
X14002138Y-15226100D01*
X14002138Y-15226100D02*
X13983090Y-15235624D01*
X13983090Y-15235624D02*
X13964042Y-15235624D01*
X13964042Y-15235624D02*
X13944995Y-15226100D01*
X13944995Y-15226100D02*
X13935471Y-15216576D01*
X13935471Y-15216576D02*
X13925947Y-15197528D01*
X13925947Y-15197528D02*
X13916423Y-15159433D01*
X13916423Y-15159433D02*
X13916423Y-15111814D01*
X13916423Y-15111814D02*
X13925947Y-15073719D01*
X13925947Y-15073719D02*
X13935471Y-15054671D01*
X13935471Y-15054671D02*
X13944995Y-15045148D01*
X13944995Y-15045148D02*
X13964042Y-15035624D01*
X14154519Y-15035624D02*
X14173566Y-15035624D01*
X14173566Y-15035624D02*
X14192614Y-15045148D01*
X14192614Y-15045148D02*
X14202138Y-15054671D01*
X14202138Y-15054671D02*
X14211662Y-15073719D01*
X14211662Y-15073719D02*
X14221185Y-15111814D01*
X14221185Y-15111814D02*
X14221185Y-15159433D01*
X14221185Y-15159433D02*
X14211662Y-15197528D01*
X14211662Y-15197528D02*
X14202138Y-15216576D01*
X14202138Y-15216576D02*
X14192614Y-15226100D01*
X14192614Y-15226100D02*
X14173566Y-15235624D01*
X14173566Y-15235624D02*
X14154519Y-15235624D01*
X14154519Y-15235624D02*
X14135471Y-15226100D01*
X14135471Y-15226100D02*
X14125947Y-15216576D01*
X14125947Y-15216576D02*
X14116423Y-15197528D01*
X14116423Y-15197528D02*
X14106900Y-15159433D01*
X14106900Y-15159433D02*
X14106900Y-15111814D01*
X14106900Y-15111814D02*
X14116423Y-15073719D01*
X14116423Y-15073719D02*
X14125947Y-15054671D01*
X14125947Y-15054671D02*
X14135471Y-15045148D01*
X14135471Y-15045148D02*
X14154519Y-15035624D01*
X14306900Y-15235624D02*
X14306900Y-15102290D01*
X14306900Y-15121338D02*
X14316423Y-15111814D01*
X14316423Y-15111814D02*
X14335471Y-15102290D01*
X14335471Y-15102290D02*
X14364043Y-15102290D01*
X14364043Y-15102290D02*
X14383090Y-15111814D01*
X14383090Y-15111814D02*
X14392614Y-15130862D01*
X14392614Y-15130862D02*
X14392614Y-15235624D01*
X14392614Y-15130862D02*
X14402138Y-15111814D01*
X14402138Y-15111814D02*
X14421185Y-15102290D01*
X14421185Y-15102290D02*
X14449757Y-15102290D01*
X14449757Y-15102290D02*
X14468804Y-15111814D01*
X14468804Y-15111814D02*
X14478328Y-15130862D01*
X14478328Y-15130862D02*
X14478328Y-15235624D01*
X14573566Y-15235624D02*
X14573566Y-15102290D01*
X14573566Y-15121338D02*
X14583090Y-15111814D01*
X14583090Y-15111814D02*
X14602138Y-15102290D01*
X14602138Y-15102290D02*
X14630709Y-15102290D01*
X14630709Y-15102290D02*
X14649757Y-15111814D01*
X14649757Y-15111814D02*
X14659281Y-15130862D01*
X14659281Y-15130862D02*
X14659281Y-15235624D01*
X14659281Y-15130862D02*
X14668804Y-15111814D01*
X14668804Y-15111814D02*
X14687852Y-15102290D01*
X14687852Y-15102290D02*
X14716423Y-15102290D01*
X14716423Y-15102290D02*
X14735471Y-15111814D01*
X14735471Y-15111814D02*
X14744995Y-15130862D01*
X14744995Y-15130862D02*
X14744995Y-15235624D01*
X15135471Y-15026100D02*
X14964043Y-15283243D01*
X15392614Y-15035624D02*
X15411662Y-15035624D01*
X15411662Y-15035624D02*
X15430709Y-15045148D01*
X15430709Y-15045148D02*
X15440233Y-15054671D01*
X15440233Y-15054671D02*
X15449757Y-15073719D01*
X15449757Y-15073719D02*
X15459281Y-15111814D01*
X15459281Y-15111814D02*
X15459281Y-15159433D01*
X15459281Y-15159433D02*
X15449757Y-15197528D01*
X15449757Y-15197528D02*
X15440233Y-15216576D01*
X15440233Y-15216576D02*
X15430709Y-15226100D01*
X15430709Y-15226100D02*
X15411662Y-15235624D01*
X15411662Y-15235624D02*
X15392614Y-15235624D01*
X15392614Y-15235624D02*
X15373566Y-15226100D01*
X15373566Y-15226100D02*
X15364043Y-15216576D01*
X15364043Y-15216576D02*
X15354519Y-15197528D01*
X15354519Y-15197528D02*
X15344995Y-15159433D01*
X15344995Y-15159433D02*
X15344995Y-15111814D01*
X15344995Y-15111814D02*
X15354519Y-15073719D01*
X15354519Y-15073719D02*
X15364043Y-15054671D01*
X15364043Y-15054671D02*
X15373566Y-15045148D01*
X15373566Y-15045148D02*
X15392614Y-15035624D01*
X15544995Y-15216576D02*
X15554519Y-15226100D01*
X15554519Y-15226100D02*
X15544995Y-15235624D01*
X15544995Y-15235624D02*
X15535471Y-15226100D01*
X15535471Y-15226100D02*
X15544995Y-15216576D01*
X15544995Y-15216576D02*
X15544995Y-15235624D01*
X15678328Y-15035624D02*
X15697376Y-15035624D01*
X15697376Y-15035624D02*
X15716424Y-15045148D01*
X15716424Y-15045148D02*
X15725947Y-15054671D01*
X15725947Y-15054671D02*
X15735471Y-15073719D01*
X15735471Y-15073719D02*
X15744995Y-15111814D01*
X15744995Y-15111814D02*
X15744995Y-15159433D01*
X15744995Y-15159433D02*
X15735471Y-15197528D01*
X15735471Y-15197528D02*
X15725947Y-15216576D01*
X15725947Y-15216576D02*
X15716424Y-15226100D01*
X15716424Y-15226100D02*
X15697376Y-15235624D01*
X15697376Y-15235624D02*
X15678328Y-15235624D01*
X15678328Y-15235624D02*
X15659281Y-15226100D01*
X15659281Y-15226100D02*
X15649757Y-15216576D01*
X15649757Y-15216576D02*
X15640233Y-15197528D01*
X15640233Y-15197528D02*
X15630709Y-15159433D01*
X15630709Y-15159433D02*
X15630709Y-15111814D01*
X15630709Y-15111814D02*
X15640233Y-15073719D01*
X15640233Y-15073719D02*
X15649757Y-15054671D01*
X15649757Y-15054671D02*
X15659281Y-15045148D01*
X15659281Y-15045148D02*
X15678328Y-15035624D01*
X15935471Y-15235624D02*
X15821186Y-15235624D01*
X15878328Y-15235624D02*
X15878328Y-15035624D01*
X15878328Y-15035624D02*
X15859281Y-15064195D01*
X15859281Y-15064195D02*
X15840233Y-15083243D01*
X15840233Y-15083243D02*
X15821186Y-15092767D01*
X16116424Y-15035624D02*
X16021186Y-15035624D01*
X16021186Y-15035624D02*
X16011662Y-15130862D01*
X16011662Y-15130862D02*
X16021186Y-15121338D01*
X16021186Y-15121338D02*
X16040233Y-15111814D01*
X16040233Y-15111814D02*
X16087852Y-15111814D01*
X16087852Y-15111814D02*
X16106900Y-15121338D01*
X16106900Y-15121338D02*
X16116424Y-15130862D01*
X16116424Y-15130862D02*
X16125947Y-15149909D01*
X16125947Y-15149909D02*
X16125947Y-15197528D01*
X16125947Y-15197528D02*
X16116424Y-15216576D01*
X16116424Y-15216576D02*
X16106900Y-15226100D01*
X16106900Y-15226100D02*
X16087852Y-15235624D01*
X16087852Y-15235624D02*
X16040233Y-15235624D01*
X16040233Y-15235624D02*
X16021186Y-15226100D01*
X16021186Y-15226100D02*
X16011662Y-15216576D01*
X16192614Y-15035624D02*
X16325947Y-15035624D01*
X16325947Y-15035624D02*
X16240233Y-15235624D01*
X16392614Y-15035624D02*
X16392614Y-15073719D01*
X16468805Y-15035624D02*
X16468805Y-15073719D01*
X16764043Y-15311814D02*
X16754519Y-15302290D01*
X16754519Y-15302290D02*
X16735471Y-15273719D01*
X16735471Y-15273719D02*
X16725948Y-15254671D01*
X16725948Y-15254671D02*
X16716424Y-15226100D01*
X16716424Y-15226100D02*
X16706900Y-15178481D01*
X16706900Y-15178481D02*
X16706900Y-15140386D01*
X16706900Y-15140386D02*
X16716424Y-15092767D01*
X16716424Y-15092767D02*
X16725948Y-15064195D01*
X16725948Y-15064195D02*
X16735471Y-15045148D01*
X16735471Y-15045148D02*
X16754519Y-15016576D01*
X16754519Y-15016576D02*
X16764043Y-15007052D01*
X16944995Y-15235624D02*
X16830710Y-15235624D01*
X16887852Y-15235624D02*
X16887852Y-15035624D01*
X16887852Y-15035624D02*
X16868805Y-15064195D01*
X16868805Y-15064195D02*
X16849757Y-15083243D01*
X16849757Y-15083243D02*
X16830710Y-15092767D01*
X17116424Y-15035624D02*
X17078329Y-15035624D01*
X17078329Y-15035624D02*
X17059281Y-15045148D01*
X17059281Y-15045148D02*
X17049757Y-15054671D01*
X17049757Y-15054671D02*
X17030710Y-15083243D01*
X17030710Y-15083243D02*
X17021186Y-15121338D01*
X17021186Y-15121338D02*
X17021186Y-15197528D01*
X17021186Y-15197528D02*
X17030710Y-15216576D01*
X17030710Y-15216576D02*
X17040233Y-15226100D01*
X17040233Y-15226100D02*
X17059281Y-15235624D01*
X17059281Y-15235624D02*
X17097376Y-15235624D01*
X17097376Y-15235624D02*
X17116424Y-15226100D01*
X17116424Y-15226100D02*
X17125948Y-15216576D01*
X17125948Y-15216576D02*
X17135471Y-15197528D01*
X17135471Y-15197528D02*
X17135471Y-15149909D01*
X17135471Y-15149909D02*
X17125948Y-15130862D01*
X17125948Y-15130862D02*
X17116424Y-15121338D01*
X17116424Y-15121338D02*
X17097376Y-15111814D01*
X17097376Y-15111814D02*
X17059281Y-15111814D01*
X17059281Y-15111814D02*
X17040233Y-15121338D01*
X17040233Y-15121338D02*
X17030710Y-15130862D01*
X17030710Y-15130862D02*
X17021186Y-15149909D01*
X17373567Y-15235624D02*
X17373567Y-15035624D01*
X17459281Y-15235624D02*
X17459281Y-15130862D01*
X17459281Y-15130862D02*
X17449757Y-15111814D01*
X17449757Y-15111814D02*
X17430710Y-15102290D01*
X17430710Y-15102290D02*
X17402138Y-15102290D01*
X17402138Y-15102290D02*
X17383091Y-15111814D01*
X17383091Y-15111814D02*
X17373567Y-15121338D01*
X17583091Y-15235624D02*
X17564043Y-15226100D01*
X17564043Y-15226100D02*
X17554519Y-15216576D01*
X17554519Y-15216576D02*
X17544995Y-15197528D01*
X17544995Y-15197528D02*
X17544995Y-15140386D01*
X17544995Y-15140386D02*
X17554519Y-15121338D01*
X17554519Y-15121338D02*
X17564043Y-15111814D01*
X17564043Y-15111814D02*
X17583091Y-15102290D01*
X17583091Y-15102290D02*
X17611662Y-15102290D01*
X17611662Y-15102290D02*
X17630710Y-15111814D01*
X17630710Y-15111814D02*
X17640233Y-15121338D01*
X17640233Y-15121338D02*
X17649757Y-15140386D01*
X17649757Y-15140386D02*
X17649757Y-15197528D01*
X17649757Y-15197528D02*
X17640233Y-15216576D01*
X17640233Y-15216576D02*
X17630710Y-15226100D01*
X17630710Y-15226100D02*
X17611662Y-15235624D01*
X17611662Y-15235624D02*
X17583091Y-15235624D01*
X17764043Y-15235624D02*
X17744995Y-15226100D01*
X17744995Y-15226100D02*
X17735472Y-15207052D01*
X17735472Y-15207052D02*
X17735472Y-15035624D01*
X17916424Y-15226100D02*
X17897376Y-15235624D01*
X17897376Y-15235624D02*
X17859281Y-15235624D01*
X17859281Y-15235624D02*
X17840233Y-15226100D01*
X17840233Y-15226100D02*
X17830710Y-15207052D01*
X17830710Y-15207052D02*
X17830710Y-15130862D01*
X17830710Y-15130862D02*
X17840233Y-15111814D01*
X17840233Y-15111814D02*
X17859281Y-15102290D01*
X17859281Y-15102290D02*
X17897376Y-15102290D01*
X17897376Y-15102290D02*
X17916424Y-15111814D01*
X17916424Y-15111814D02*
X17925948Y-15130862D01*
X17925948Y-15130862D02*
X17925948Y-15149909D01*
X17925948Y-15149909D02*
X17830710Y-15168957D01*
X18002138Y-15226100D02*
X18021186Y-15235624D01*
X18021186Y-15235624D02*
X18059281Y-15235624D01*
X18059281Y-15235624D02*
X18078329Y-15226100D01*
X18078329Y-15226100D02*
X18087853Y-15207052D01*
X18087853Y-15207052D02*
X18087853Y-15197528D01*
X18087853Y-15197528D02*
X18078329Y-15178481D01*
X18078329Y-15178481D02*
X18059281Y-15168957D01*
X18059281Y-15168957D02*
X18030710Y-15168957D01*
X18030710Y-15168957D02*
X18011662Y-15159433D01*
X18011662Y-15159433D02*
X18002138Y-15140386D01*
X18002138Y-15140386D02*
X18002138Y-15130862D01*
X18002138Y-15130862D02*
X18011662Y-15111814D01*
X18011662Y-15111814D02*
X18030710Y-15102290D01*
X18030710Y-15102290D02*
X18059281Y-15102290D01*
X18059281Y-15102290D02*
X18078329Y-15111814D01*
X18154519Y-15311814D02*
X18164043Y-15302290D01*
X18164043Y-15302290D02*
X18183091Y-15273719D01*
X18183091Y-15273719D02*
X18192614Y-15254671D01*
X18192614Y-15254671D02*
X18202138Y-15226100D01*
X18202138Y-15226100D02*
X18211662Y-15178481D01*
X18211662Y-15178481D02*
X18211662Y-15140386D01*
X18211662Y-15140386D02*
X18202138Y-15092767D01*
X18202138Y-15092767D02*
X18192614Y-15064195D01*
X18192614Y-15064195D02*
X18183091Y-15045148D01*
X18183091Y-15045148D02*
X18164043Y-15016576D01*
X18164043Y-15016576D02*
X18154519Y-15007052D01*
D12*
X13163980Y-15433140D02*
X13188980Y-15408140D01*
X13163980Y-15383140D01*
X13138980Y-15408140D01*
X13163980Y-15433140D01*
D11*
X13487852Y-15299624D02*
X13506900Y-15299624D01*
X13506900Y-15299624D02*
X13525947Y-15309148D01*
X13525947Y-15309148D02*
X13535471Y-15318671D01*
X13535471Y-15318671D02*
X13544995Y-15337719D01*
X13544995Y-15337719D02*
X13554519Y-15375814D01*
X13554519Y-15375814D02*
X13554519Y-15423433D01*
X13554519Y-15423433D02*
X13544995Y-15461528D01*
X13544995Y-15461528D02*
X13535471Y-15480576D01*
X13535471Y-15480576D02*
X13525947Y-15490100D01*
X13525947Y-15490100D02*
X13506900Y-15499624D01*
X13506900Y-15499624D02*
X13487852Y-15499624D01*
X13487852Y-15499624D02*
X13468804Y-15490100D01*
X13468804Y-15490100D02*
X13459281Y-15480576D01*
X13459281Y-15480576D02*
X13449757Y-15461528D01*
X13449757Y-15461528D02*
X13440233Y-15423433D01*
X13440233Y-15423433D02*
X13440233Y-15375814D01*
X13440233Y-15375814D02*
X13449757Y-15337719D01*
X13449757Y-15337719D02*
X13459281Y-15318671D01*
X13459281Y-15318671D02*
X13468804Y-15309148D01*
X13468804Y-15309148D02*
X13487852Y-15299624D01*
X13640233Y-15480576D02*
X13649757Y-15490100D01*
X13649757Y-15490100D02*
X13640233Y-15499624D01*
X13640233Y-15499624D02*
X13630709Y-15490100D01*
X13630709Y-15490100D02*
X13640233Y-15480576D01*
X13640233Y-15480576D02*
X13640233Y-15499624D01*
X13830709Y-15299624D02*
X13735471Y-15299624D01*
X13735471Y-15299624D02*
X13725947Y-15394862D01*
X13725947Y-15394862D02*
X13735471Y-15385338D01*
X13735471Y-15385338D02*
X13754519Y-15375814D01*
X13754519Y-15375814D02*
X13802138Y-15375814D01*
X13802138Y-15375814D02*
X13821185Y-15385338D01*
X13821185Y-15385338D02*
X13830709Y-15394862D01*
X13830709Y-15394862D02*
X13840233Y-15413909D01*
X13840233Y-15413909D02*
X13840233Y-15461528D01*
X13840233Y-15461528D02*
X13830709Y-15480576D01*
X13830709Y-15480576D02*
X13821185Y-15490100D01*
X13821185Y-15490100D02*
X13802138Y-15499624D01*
X13802138Y-15499624D02*
X13754519Y-15499624D01*
X13754519Y-15499624D02*
X13735471Y-15490100D01*
X13735471Y-15490100D02*
X13725947Y-15480576D01*
X13964042Y-15299624D02*
X13983090Y-15299624D01*
X13983090Y-15299624D02*
X14002138Y-15309148D01*
X14002138Y-15309148D02*
X14011662Y-15318671D01*
X14011662Y-15318671D02*
X14021185Y-15337719D01*
X14021185Y-15337719D02*
X14030709Y-15375814D01*
X14030709Y-15375814D02*
X14030709Y-15423433D01*
X14030709Y-15423433D02*
X14021185Y-15461528D01*
X14021185Y-15461528D02*
X14011662Y-15480576D01*
X14011662Y-15480576D02*
X14002138Y-15490100D01*
X14002138Y-15490100D02*
X13983090Y-15499624D01*
X13983090Y-15499624D02*
X13964042Y-15499624D01*
X13964042Y-15499624D02*
X13944995Y-15490100D01*
X13944995Y-15490100D02*
X13935471Y-15480576D01*
X13935471Y-15480576D02*
X13925947Y-15461528D01*
X13925947Y-15461528D02*
X13916423Y-15423433D01*
X13916423Y-15423433D02*
X13916423Y-15375814D01*
X13916423Y-15375814D02*
X13925947Y-15337719D01*
X13925947Y-15337719D02*
X13935471Y-15318671D01*
X13935471Y-15318671D02*
X13944995Y-15309148D01*
X13944995Y-15309148D02*
X13964042Y-15299624D01*
X14154519Y-15299624D02*
X14173566Y-15299624D01*
X14173566Y-15299624D02*
X14192614Y-15309148D01*
X14192614Y-15309148D02*
X14202138Y-15318671D01*
X14202138Y-15318671D02*
X14211662Y-15337719D01*
X14211662Y-15337719D02*
X14221185Y-15375814D01*
X14221185Y-15375814D02*
X14221185Y-15423433D01*
X14221185Y-15423433D02*
X14211662Y-15461528D01*
X14211662Y-15461528D02*
X14202138Y-15480576D01*
X14202138Y-15480576D02*
X14192614Y-15490100D01*
X14192614Y-15490100D02*
X14173566Y-15499624D01*
X14173566Y-15499624D02*
X14154519Y-15499624D01*
X14154519Y-15499624D02*
X14135471Y-15490100D01*
X14135471Y-15490100D02*
X14125947Y-15480576D01*
X14125947Y-15480576D02*
X14116423Y-15461528D01*
X14116423Y-15461528D02*
X14106900Y-15423433D01*
X14106900Y-15423433D02*
X14106900Y-15375814D01*
X14106900Y-15375814D02*
X14116423Y-15337719D01*
X14116423Y-15337719D02*
X14125947Y-15318671D01*
X14125947Y-15318671D02*
X14135471Y-15309148D01*
X14135471Y-15309148D02*
X14154519Y-15299624D01*
X14306900Y-15499624D02*
X14306900Y-15366290D01*
X14306900Y-15385338D02*
X14316423Y-15375814D01*
X14316423Y-15375814D02*
X14335471Y-15366290D01*
X14335471Y-15366290D02*
X14364043Y-15366290D01*
X14364043Y-15366290D02*
X14383090Y-15375814D01*
X14383090Y-15375814D02*
X14392614Y-15394862D01*
X14392614Y-15394862D02*
X14392614Y-15499624D01*
X14392614Y-15394862D02*
X14402138Y-15375814D01*
X14402138Y-15375814D02*
X14421185Y-15366290D01*
X14421185Y-15366290D02*
X14449757Y-15366290D01*
X14449757Y-15366290D02*
X14468804Y-15375814D01*
X14468804Y-15375814D02*
X14478328Y-15394862D01*
X14478328Y-15394862D02*
X14478328Y-15499624D01*
X14573566Y-15499624D02*
X14573566Y-15366290D01*
X14573566Y-15385338D02*
X14583090Y-15375814D01*
X14583090Y-15375814D02*
X14602138Y-15366290D01*
X14602138Y-15366290D02*
X14630709Y-15366290D01*
X14630709Y-15366290D02*
X14649757Y-15375814D01*
X14649757Y-15375814D02*
X14659281Y-15394862D01*
X14659281Y-15394862D02*
X14659281Y-15499624D01*
X14659281Y-15394862D02*
X14668804Y-15375814D01*
X14668804Y-15375814D02*
X14687852Y-15366290D01*
X14687852Y-15366290D02*
X14716423Y-15366290D01*
X14716423Y-15366290D02*
X14735471Y-15375814D01*
X14735471Y-15375814D02*
X14744995Y-15394862D01*
X14744995Y-15394862D02*
X14744995Y-15499624D01*
X15135471Y-15290100D02*
X14964043Y-15547243D01*
X15392614Y-15299624D02*
X15411662Y-15299624D01*
X15411662Y-15299624D02*
X15430709Y-15309148D01*
X15430709Y-15309148D02*
X15440233Y-15318671D01*
X15440233Y-15318671D02*
X15449757Y-15337719D01*
X15449757Y-15337719D02*
X15459281Y-15375814D01*
X15459281Y-15375814D02*
X15459281Y-15423433D01*
X15459281Y-15423433D02*
X15449757Y-15461528D01*
X15449757Y-15461528D02*
X15440233Y-15480576D01*
X15440233Y-15480576D02*
X15430709Y-15490100D01*
X15430709Y-15490100D02*
X15411662Y-15499624D01*
X15411662Y-15499624D02*
X15392614Y-15499624D01*
X15392614Y-15499624D02*
X15373566Y-15490100D01*
X15373566Y-15490100D02*
X15364043Y-15480576D01*
X15364043Y-15480576D02*
X15354519Y-15461528D01*
X15354519Y-15461528D02*
X15344995Y-15423433D01*
X15344995Y-15423433D02*
X15344995Y-15375814D01*
X15344995Y-15375814D02*
X15354519Y-15337719D01*
X15354519Y-15337719D02*
X15364043Y-15318671D01*
X15364043Y-15318671D02*
X15373566Y-15309148D01*
X15373566Y-15309148D02*
X15392614Y-15299624D01*
X15544995Y-15480576D02*
X15554519Y-15490100D01*
X15554519Y-15490100D02*
X15544995Y-15499624D01*
X15544995Y-15499624D02*
X15535471Y-15490100D01*
X15535471Y-15490100D02*
X15544995Y-15480576D01*
X15544995Y-15480576D02*
X15544995Y-15499624D01*
X15678328Y-15299624D02*
X15697376Y-15299624D01*
X15697376Y-15299624D02*
X15716424Y-15309148D01*
X15716424Y-15309148D02*
X15725947Y-15318671D01*
X15725947Y-15318671D02*
X15735471Y-15337719D01*
X15735471Y-15337719D02*
X15744995Y-15375814D01*
X15744995Y-15375814D02*
X15744995Y-15423433D01*
X15744995Y-15423433D02*
X15735471Y-15461528D01*
X15735471Y-15461528D02*
X15725947Y-15480576D01*
X15725947Y-15480576D02*
X15716424Y-15490100D01*
X15716424Y-15490100D02*
X15697376Y-15499624D01*
X15697376Y-15499624D02*
X15678328Y-15499624D01*
X15678328Y-15499624D02*
X15659281Y-15490100D01*
X15659281Y-15490100D02*
X15649757Y-15480576D01*
X15649757Y-15480576D02*
X15640233Y-15461528D01*
X15640233Y-15461528D02*
X15630709Y-15423433D01*
X15630709Y-15423433D02*
X15630709Y-15375814D01*
X15630709Y-15375814D02*
X15640233Y-15337719D01*
X15640233Y-15337719D02*
X15649757Y-15318671D01*
X15649757Y-15318671D02*
X15659281Y-15309148D01*
X15659281Y-15309148D02*
X15678328Y-15299624D01*
X15935471Y-15499624D02*
X15821186Y-15499624D01*
X15878328Y-15499624D02*
X15878328Y-15299624D01*
X15878328Y-15299624D02*
X15859281Y-15328195D01*
X15859281Y-15328195D02*
X15840233Y-15347243D01*
X15840233Y-15347243D02*
X15821186Y-15356767D01*
X16030709Y-15499624D02*
X16068805Y-15499624D01*
X16068805Y-15499624D02*
X16087852Y-15490100D01*
X16087852Y-15490100D02*
X16097376Y-15480576D01*
X16097376Y-15480576D02*
X16116424Y-15452005D01*
X16116424Y-15452005D02*
X16125947Y-15413909D01*
X16125947Y-15413909D02*
X16125947Y-15337719D01*
X16125947Y-15337719D02*
X16116424Y-15318671D01*
X16116424Y-15318671D02*
X16106900Y-15309148D01*
X16106900Y-15309148D02*
X16087852Y-15299624D01*
X16087852Y-15299624D02*
X16049757Y-15299624D01*
X16049757Y-15299624D02*
X16030709Y-15309148D01*
X16030709Y-15309148D02*
X16021186Y-15318671D01*
X16021186Y-15318671D02*
X16011662Y-15337719D01*
X16011662Y-15337719D02*
X16011662Y-15385338D01*
X16011662Y-15385338D02*
X16021186Y-15404386D01*
X16021186Y-15404386D02*
X16030709Y-15413909D01*
X16030709Y-15413909D02*
X16049757Y-15423433D01*
X16049757Y-15423433D02*
X16087852Y-15423433D01*
X16087852Y-15423433D02*
X16106900Y-15413909D01*
X16106900Y-15413909D02*
X16116424Y-15404386D01*
X16116424Y-15404386D02*
X16125947Y-15385338D01*
X16192614Y-15299624D02*
X16325947Y-15299624D01*
X16325947Y-15299624D02*
X16240233Y-15499624D01*
X16392614Y-15299624D02*
X16392614Y-15337719D01*
X16468805Y-15299624D02*
X16468805Y-15337719D01*
X16764043Y-15575814D02*
X16754519Y-15566290D01*
X16754519Y-15566290D02*
X16735471Y-15537719D01*
X16735471Y-15537719D02*
X16725948Y-15518671D01*
X16725948Y-15518671D02*
X16716424Y-15490100D01*
X16716424Y-15490100D02*
X16706900Y-15442481D01*
X16706900Y-15442481D02*
X16706900Y-15404386D01*
X16706900Y-15404386D02*
X16716424Y-15356767D01*
X16716424Y-15356767D02*
X16725948Y-15328195D01*
X16725948Y-15328195D02*
X16735471Y-15309148D01*
X16735471Y-15309148D02*
X16754519Y-15280576D01*
X16754519Y-15280576D02*
X16764043Y-15271052D01*
X16944995Y-15499624D02*
X16830710Y-15499624D01*
X16887852Y-15499624D02*
X16887852Y-15299624D01*
X16887852Y-15299624D02*
X16868805Y-15328195D01*
X16868805Y-15328195D02*
X16849757Y-15347243D01*
X16849757Y-15347243D02*
X16830710Y-15356767D01*
X17040233Y-15499624D02*
X17078329Y-15499624D01*
X17078329Y-15499624D02*
X17097376Y-15490100D01*
X17097376Y-15490100D02*
X17106900Y-15480576D01*
X17106900Y-15480576D02*
X17125948Y-15452005D01*
X17125948Y-15452005D02*
X17135471Y-15413909D01*
X17135471Y-15413909D02*
X17135471Y-15337719D01*
X17135471Y-15337719D02*
X17125948Y-15318671D01*
X17125948Y-15318671D02*
X17116424Y-15309148D01*
X17116424Y-15309148D02*
X17097376Y-15299624D01*
X17097376Y-15299624D02*
X17059281Y-15299624D01*
X17059281Y-15299624D02*
X17040233Y-15309148D01*
X17040233Y-15309148D02*
X17030710Y-15318671D01*
X17030710Y-15318671D02*
X17021186Y-15337719D01*
X17021186Y-15337719D02*
X17021186Y-15385338D01*
X17021186Y-15385338D02*
X17030710Y-15404386D01*
X17030710Y-15404386D02*
X17040233Y-15413909D01*
X17040233Y-15413909D02*
X17059281Y-15423433D01*
X17059281Y-15423433D02*
X17097376Y-15423433D01*
X17097376Y-15423433D02*
X17116424Y-15413909D01*
X17116424Y-15413909D02*
X17125948Y-15404386D01*
X17125948Y-15404386D02*
X17135471Y-15385338D01*
X17373567Y-15499624D02*
X17373567Y-15299624D01*
X17459281Y-15499624D02*
X17459281Y-15394862D01*
X17459281Y-15394862D02*
X17449757Y-15375814D01*
X17449757Y-15375814D02*
X17430710Y-15366290D01*
X17430710Y-15366290D02*
X17402138Y-15366290D01*
X17402138Y-15366290D02*
X17383091Y-15375814D01*
X17383091Y-15375814D02*
X17373567Y-15385338D01*
X17583091Y-15499624D02*
X17564043Y-15490100D01*
X17564043Y-15490100D02*
X17554519Y-15480576D01*
X17554519Y-15480576D02*
X17544995Y-15461528D01*
X17544995Y-15461528D02*
X17544995Y-15404386D01*
X17544995Y-15404386D02*
X17554519Y-15385338D01*
X17554519Y-15385338D02*
X17564043Y-15375814D01*
X17564043Y-15375814D02*
X17583091Y-15366290D01*
X17583091Y-15366290D02*
X17611662Y-15366290D01*
X17611662Y-15366290D02*
X17630710Y-15375814D01*
X17630710Y-15375814D02*
X17640233Y-15385338D01*
X17640233Y-15385338D02*
X17649757Y-15404386D01*
X17649757Y-15404386D02*
X17649757Y-15461528D01*
X17649757Y-15461528D02*
X17640233Y-15480576D01*
X17640233Y-15480576D02*
X17630710Y-15490100D01*
X17630710Y-15490100D02*
X17611662Y-15499624D01*
X17611662Y-15499624D02*
X17583091Y-15499624D01*
X17764043Y-15499624D02*
X17744995Y-15490100D01*
X17744995Y-15490100D02*
X17735472Y-15471052D01*
X17735472Y-15471052D02*
X17735472Y-15299624D01*
X17916424Y-15490100D02*
X17897376Y-15499624D01*
X17897376Y-15499624D02*
X17859281Y-15499624D01*
X17859281Y-15499624D02*
X17840233Y-15490100D01*
X17840233Y-15490100D02*
X17830710Y-15471052D01*
X17830710Y-15471052D02*
X17830710Y-15394862D01*
X17830710Y-15394862D02*
X17840233Y-15375814D01*
X17840233Y-15375814D02*
X17859281Y-15366290D01*
X17859281Y-15366290D02*
X17897376Y-15366290D01*
X17897376Y-15366290D02*
X17916424Y-15375814D01*
X17916424Y-15375814D02*
X17925948Y-15394862D01*
X17925948Y-15394862D02*
X17925948Y-15413909D01*
X17925948Y-15413909D02*
X17830710Y-15432957D01*
X18002138Y-15490100D02*
X18021186Y-15499624D01*
X18021186Y-15499624D02*
X18059281Y-15499624D01*
X18059281Y-15499624D02*
X18078329Y-15490100D01*
X18078329Y-15490100D02*
X18087853Y-15471052D01*
X18087853Y-15471052D02*
X18087853Y-15461528D01*
X18087853Y-15461528D02*
X18078329Y-15442481D01*
X18078329Y-15442481D02*
X18059281Y-15432957D01*
X18059281Y-15432957D02*
X18030710Y-15432957D01*
X18030710Y-15432957D02*
X18011662Y-15423433D01*
X18011662Y-15423433D02*
X18002138Y-15404386D01*
X18002138Y-15404386D02*
X18002138Y-15394862D01*
X18002138Y-15394862D02*
X18011662Y-15375814D01*
X18011662Y-15375814D02*
X18030710Y-15366290D01*
X18030710Y-15366290D02*
X18059281Y-15366290D01*
X18059281Y-15366290D02*
X18078329Y-15375814D01*
X18154519Y-15575814D02*
X18164043Y-15566290D01*
X18164043Y-15566290D02*
X18183091Y-15537719D01*
X18183091Y-15537719D02*
X18192614Y-15518671D01*
X18192614Y-15518671D02*
X18202138Y-15490100D01*
X18202138Y-15490100D02*
X18211662Y-15442481D01*
X18211662Y-15442481D02*
X18211662Y-15404386D01*
X18211662Y-15404386D02*
X18202138Y-15356767D01*
X18202138Y-15356767D02*
X18192614Y-15328195D01*
X18192614Y-15328195D02*
X18183091Y-15309148D01*
X18183091Y-15309148D02*
X18164043Y-15280576D01*
X18164043Y-15280576D02*
X18154519Y-15271052D01*
D12*
X13118980Y-15637140D02*
X13188980Y-15707140D01*
X13188980Y-15637140D02*
X13118980Y-15707140D01*
X13188980Y-15672140D02*
G75*
G02*
X13118980Y-15672140I-35000J0D01*
G01*
X13118980Y-15672140D02*
G75*
G02*
X13188980Y-15672140I35000J0D01*
G01*
D11*
X13487852Y-15563624D02*
X13506900Y-15563624D01*
X13506900Y-15563624D02*
X13525947Y-15573148D01*
X13525947Y-15573148D02*
X13535471Y-15582671D01*
X13535471Y-15582671D02*
X13544995Y-15601719D01*
X13544995Y-15601719D02*
X13554519Y-15639814D01*
X13554519Y-15639814D02*
X13554519Y-15687433D01*
X13554519Y-15687433D02*
X13544995Y-15725528D01*
X13544995Y-15725528D02*
X13535471Y-15744576D01*
X13535471Y-15744576D02*
X13525947Y-15754100D01*
X13525947Y-15754100D02*
X13506900Y-15763624D01*
X13506900Y-15763624D02*
X13487852Y-15763624D01*
X13487852Y-15763624D02*
X13468804Y-15754100D01*
X13468804Y-15754100D02*
X13459281Y-15744576D01*
X13459281Y-15744576D02*
X13449757Y-15725528D01*
X13449757Y-15725528D02*
X13440233Y-15687433D01*
X13440233Y-15687433D02*
X13440233Y-15639814D01*
X13440233Y-15639814D02*
X13449757Y-15601719D01*
X13449757Y-15601719D02*
X13459281Y-15582671D01*
X13459281Y-15582671D02*
X13468804Y-15573148D01*
X13468804Y-15573148D02*
X13487852Y-15563624D01*
X13640233Y-15744576D02*
X13649757Y-15754100D01*
X13649757Y-15754100D02*
X13640233Y-15763624D01*
X13640233Y-15763624D02*
X13630709Y-15754100D01*
X13630709Y-15754100D02*
X13640233Y-15744576D01*
X13640233Y-15744576D02*
X13640233Y-15763624D01*
X13716423Y-15563624D02*
X13849757Y-15563624D01*
X13849757Y-15563624D02*
X13764042Y-15763624D01*
X13964042Y-15563624D02*
X13983090Y-15563624D01*
X13983090Y-15563624D02*
X14002138Y-15573148D01*
X14002138Y-15573148D02*
X14011662Y-15582671D01*
X14011662Y-15582671D02*
X14021185Y-15601719D01*
X14021185Y-15601719D02*
X14030709Y-15639814D01*
X14030709Y-15639814D02*
X14030709Y-15687433D01*
X14030709Y-15687433D02*
X14021185Y-15725528D01*
X14021185Y-15725528D02*
X14011662Y-15744576D01*
X14011662Y-15744576D02*
X14002138Y-15754100D01*
X14002138Y-15754100D02*
X13983090Y-15763624D01*
X13983090Y-15763624D02*
X13964042Y-15763624D01*
X13964042Y-15763624D02*
X13944995Y-15754100D01*
X13944995Y-15754100D02*
X13935471Y-15744576D01*
X13935471Y-15744576D02*
X13925947Y-15725528D01*
X13925947Y-15725528D02*
X13916423Y-15687433D01*
X13916423Y-15687433D02*
X13916423Y-15639814D01*
X13916423Y-15639814D02*
X13925947Y-15601719D01*
X13925947Y-15601719D02*
X13935471Y-15582671D01*
X13935471Y-15582671D02*
X13944995Y-15573148D01*
X13944995Y-15573148D02*
X13964042Y-15563624D01*
X14154519Y-15563624D02*
X14173566Y-15563624D01*
X14173566Y-15563624D02*
X14192614Y-15573148D01*
X14192614Y-15573148D02*
X14202138Y-15582671D01*
X14202138Y-15582671D02*
X14211662Y-15601719D01*
X14211662Y-15601719D02*
X14221185Y-15639814D01*
X14221185Y-15639814D02*
X14221185Y-15687433D01*
X14221185Y-15687433D02*
X14211662Y-15725528D01*
X14211662Y-15725528D02*
X14202138Y-15744576D01*
X14202138Y-15744576D02*
X14192614Y-15754100D01*
X14192614Y-15754100D02*
X14173566Y-15763624D01*
X14173566Y-15763624D02*
X14154519Y-15763624D01*
X14154519Y-15763624D02*
X14135471Y-15754100D01*
X14135471Y-15754100D02*
X14125947Y-15744576D01*
X14125947Y-15744576D02*
X14116423Y-15725528D01*
X14116423Y-15725528D02*
X14106900Y-15687433D01*
X14106900Y-15687433D02*
X14106900Y-15639814D01*
X14106900Y-15639814D02*
X14116423Y-15601719D01*
X14116423Y-15601719D02*
X14125947Y-15582671D01*
X14125947Y-15582671D02*
X14135471Y-15573148D01*
X14135471Y-15573148D02*
X14154519Y-15563624D01*
X14306900Y-15763624D02*
X14306900Y-15630290D01*
X14306900Y-15649338D02*
X14316423Y-15639814D01*
X14316423Y-15639814D02*
X14335471Y-15630290D01*
X14335471Y-15630290D02*
X14364043Y-15630290D01*
X14364043Y-15630290D02*
X14383090Y-15639814D01*
X14383090Y-15639814D02*
X14392614Y-15658862D01*
X14392614Y-15658862D02*
X14392614Y-15763624D01*
X14392614Y-15658862D02*
X14402138Y-15639814D01*
X14402138Y-15639814D02*
X14421185Y-15630290D01*
X14421185Y-15630290D02*
X14449757Y-15630290D01*
X14449757Y-15630290D02*
X14468804Y-15639814D01*
X14468804Y-15639814D02*
X14478328Y-15658862D01*
X14478328Y-15658862D02*
X14478328Y-15763624D01*
X14573566Y-15763624D02*
X14573566Y-15630290D01*
X14573566Y-15649338D02*
X14583090Y-15639814D01*
X14583090Y-15639814D02*
X14602138Y-15630290D01*
X14602138Y-15630290D02*
X14630709Y-15630290D01*
X14630709Y-15630290D02*
X14649757Y-15639814D01*
X14649757Y-15639814D02*
X14659281Y-15658862D01*
X14659281Y-15658862D02*
X14659281Y-15763624D01*
X14659281Y-15658862D02*
X14668804Y-15639814D01*
X14668804Y-15639814D02*
X14687852Y-15630290D01*
X14687852Y-15630290D02*
X14716423Y-15630290D01*
X14716423Y-15630290D02*
X14735471Y-15639814D01*
X14735471Y-15639814D02*
X14744995Y-15658862D01*
X14744995Y-15658862D02*
X14744995Y-15763624D01*
X15135471Y-15554100D02*
X14964043Y-15811243D01*
X15392614Y-15563624D02*
X15411662Y-15563624D01*
X15411662Y-15563624D02*
X15430709Y-15573148D01*
X15430709Y-15573148D02*
X15440233Y-15582671D01*
X15440233Y-15582671D02*
X15449757Y-15601719D01*
X15449757Y-15601719D02*
X15459281Y-15639814D01*
X15459281Y-15639814D02*
X15459281Y-15687433D01*
X15459281Y-15687433D02*
X15449757Y-15725528D01*
X15449757Y-15725528D02*
X15440233Y-15744576D01*
X15440233Y-15744576D02*
X15430709Y-15754100D01*
X15430709Y-15754100D02*
X15411662Y-15763624D01*
X15411662Y-15763624D02*
X15392614Y-15763624D01*
X15392614Y-15763624D02*
X15373566Y-15754100D01*
X15373566Y-15754100D02*
X15364043Y-15744576D01*
X15364043Y-15744576D02*
X15354519Y-15725528D01*
X15354519Y-15725528D02*
X15344995Y-15687433D01*
X15344995Y-15687433D02*
X15344995Y-15639814D01*
X15344995Y-15639814D02*
X15354519Y-15601719D01*
X15354519Y-15601719D02*
X15364043Y-15582671D01*
X15364043Y-15582671D02*
X15373566Y-15573148D01*
X15373566Y-15573148D02*
X15392614Y-15563624D01*
X15544995Y-15744576D02*
X15554519Y-15754100D01*
X15554519Y-15754100D02*
X15544995Y-15763624D01*
X15544995Y-15763624D02*
X15535471Y-15754100D01*
X15535471Y-15754100D02*
X15544995Y-15744576D01*
X15544995Y-15744576D02*
X15544995Y-15763624D01*
X15678328Y-15563624D02*
X15697376Y-15563624D01*
X15697376Y-15563624D02*
X15716424Y-15573148D01*
X15716424Y-15573148D02*
X15725947Y-15582671D01*
X15725947Y-15582671D02*
X15735471Y-15601719D01*
X15735471Y-15601719D02*
X15744995Y-15639814D01*
X15744995Y-15639814D02*
X15744995Y-15687433D01*
X15744995Y-15687433D02*
X15735471Y-15725528D01*
X15735471Y-15725528D02*
X15725947Y-15744576D01*
X15725947Y-15744576D02*
X15716424Y-15754100D01*
X15716424Y-15754100D02*
X15697376Y-15763624D01*
X15697376Y-15763624D02*
X15678328Y-15763624D01*
X15678328Y-15763624D02*
X15659281Y-15754100D01*
X15659281Y-15754100D02*
X15649757Y-15744576D01*
X15649757Y-15744576D02*
X15640233Y-15725528D01*
X15640233Y-15725528D02*
X15630709Y-15687433D01*
X15630709Y-15687433D02*
X15630709Y-15639814D01*
X15630709Y-15639814D02*
X15640233Y-15601719D01*
X15640233Y-15601719D02*
X15649757Y-15582671D01*
X15649757Y-15582671D02*
X15659281Y-15573148D01*
X15659281Y-15573148D02*
X15678328Y-15563624D01*
X15821186Y-15582671D02*
X15830709Y-15573148D01*
X15830709Y-15573148D02*
X15849757Y-15563624D01*
X15849757Y-15563624D02*
X15897376Y-15563624D01*
X15897376Y-15563624D02*
X15916424Y-15573148D01*
X15916424Y-15573148D02*
X15925947Y-15582671D01*
X15925947Y-15582671D02*
X15935471Y-15601719D01*
X15935471Y-15601719D02*
X15935471Y-15620767D01*
X15935471Y-15620767D02*
X15925947Y-15649338D01*
X15925947Y-15649338D02*
X15811662Y-15763624D01*
X15811662Y-15763624D02*
X15935471Y-15763624D01*
X16002138Y-15563624D02*
X16135471Y-15563624D01*
X16135471Y-15563624D02*
X16049757Y-15763624D01*
X16297376Y-15563624D02*
X16259281Y-15563624D01*
X16259281Y-15563624D02*
X16240233Y-15573148D01*
X16240233Y-15573148D02*
X16230709Y-15582671D01*
X16230709Y-15582671D02*
X16211662Y-15611243D01*
X16211662Y-15611243D02*
X16202138Y-15649338D01*
X16202138Y-15649338D02*
X16202138Y-15725528D01*
X16202138Y-15725528D02*
X16211662Y-15744576D01*
X16211662Y-15744576D02*
X16221186Y-15754100D01*
X16221186Y-15754100D02*
X16240233Y-15763624D01*
X16240233Y-15763624D02*
X16278328Y-15763624D01*
X16278328Y-15763624D02*
X16297376Y-15754100D01*
X16297376Y-15754100D02*
X16306900Y-15744576D01*
X16306900Y-15744576D02*
X16316424Y-15725528D01*
X16316424Y-15725528D02*
X16316424Y-15677909D01*
X16316424Y-15677909D02*
X16306900Y-15658862D01*
X16306900Y-15658862D02*
X16297376Y-15649338D01*
X16297376Y-15649338D02*
X16278328Y-15639814D01*
X16278328Y-15639814D02*
X16240233Y-15639814D01*
X16240233Y-15639814D02*
X16221186Y-15649338D01*
X16221186Y-15649338D02*
X16211662Y-15658862D01*
X16211662Y-15658862D02*
X16202138Y-15677909D01*
X16392614Y-15563624D02*
X16392614Y-15601719D01*
X16468805Y-15563624D02*
X16468805Y-15601719D01*
X16764043Y-15839814D02*
X16754519Y-15830290D01*
X16754519Y-15830290D02*
X16735471Y-15801719D01*
X16735471Y-15801719D02*
X16725948Y-15782671D01*
X16725948Y-15782671D02*
X16716424Y-15754100D01*
X16716424Y-15754100D02*
X16706900Y-15706481D01*
X16706900Y-15706481D02*
X16706900Y-15668386D01*
X16706900Y-15668386D02*
X16716424Y-15620767D01*
X16716424Y-15620767D02*
X16725948Y-15592195D01*
X16725948Y-15592195D02*
X16735471Y-15573148D01*
X16735471Y-15573148D02*
X16754519Y-15544576D01*
X16754519Y-15544576D02*
X16764043Y-15535052D01*
X16878329Y-15563624D02*
X16897376Y-15563624D01*
X16897376Y-15563624D02*
X16916424Y-15573148D01*
X16916424Y-15573148D02*
X16925948Y-15582671D01*
X16925948Y-15582671D02*
X16935471Y-15601719D01*
X16935471Y-15601719D02*
X16944995Y-15639814D01*
X16944995Y-15639814D02*
X16944995Y-15687433D01*
X16944995Y-15687433D02*
X16935471Y-15725528D01*
X16935471Y-15725528D02*
X16925948Y-15744576D01*
X16925948Y-15744576D02*
X16916424Y-15754100D01*
X16916424Y-15754100D02*
X16897376Y-15763624D01*
X16897376Y-15763624D02*
X16878329Y-15763624D01*
X16878329Y-15763624D02*
X16859281Y-15754100D01*
X16859281Y-15754100D02*
X16849757Y-15744576D01*
X16849757Y-15744576D02*
X16840233Y-15725528D01*
X16840233Y-15725528D02*
X16830710Y-15687433D01*
X16830710Y-15687433D02*
X16830710Y-15639814D01*
X16830710Y-15639814D02*
X16840233Y-15601719D01*
X16840233Y-15601719D02*
X16849757Y-15582671D01*
X16849757Y-15582671D02*
X16859281Y-15573148D01*
X16859281Y-15573148D02*
X16878329Y-15563624D01*
X17183091Y-15763624D02*
X17183091Y-15563624D01*
X17268805Y-15763624D02*
X17268805Y-15658862D01*
X17268805Y-15658862D02*
X17259281Y-15639814D01*
X17259281Y-15639814D02*
X17240233Y-15630290D01*
X17240233Y-15630290D02*
X17211662Y-15630290D01*
X17211662Y-15630290D02*
X17192614Y-15639814D01*
X17192614Y-15639814D02*
X17183091Y-15649338D01*
X17392614Y-15763624D02*
X17373567Y-15754100D01*
X17373567Y-15754100D02*
X17364043Y-15744576D01*
X17364043Y-15744576D02*
X17354519Y-15725528D01*
X17354519Y-15725528D02*
X17354519Y-15668386D01*
X17354519Y-15668386D02*
X17364043Y-15649338D01*
X17364043Y-15649338D02*
X17373567Y-15639814D01*
X17373567Y-15639814D02*
X17392614Y-15630290D01*
X17392614Y-15630290D02*
X17421186Y-15630290D01*
X17421186Y-15630290D02*
X17440233Y-15639814D01*
X17440233Y-15639814D02*
X17449757Y-15649338D01*
X17449757Y-15649338D02*
X17459281Y-15668386D01*
X17459281Y-15668386D02*
X17459281Y-15725528D01*
X17459281Y-15725528D02*
X17449757Y-15744576D01*
X17449757Y-15744576D02*
X17440233Y-15754100D01*
X17440233Y-15754100D02*
X17421186Y-15763624D01*
X17421186Y-15763624D02*
X17392614Y-15763624D01*
X17573567Y-15763624D02*
X17554519Y-15754100D01*
X17554519Y-15754100D02*
X17544995Y-15735052D01*
X17544995Y-15735052D02*
X17544995Y-15563624D01*
X17725948Y-15754100D02*
X17706900Y-15763624D01*
X17706900Y-15763624D02*
X17668805Y-15763624D01*
X17668805Y-15763624D02*
X17649757Y-15754100D01*
X17649757Y-15754100D02*
X17640233Y-15735052D01*
X17640233Y-15735052D02*
X17640233Y-15658862D01*
X17640233Y-15658862D02*
X17649757Y-15639814D01*
X17649757Y-15639814D02*
X17668805Y-15630290D01*
X17668805Y-15630290D02*
X17706900Y-15630290D01*
X17706900Y-15630290D02*
X17725948Y-15639814D01*
X17725948Y-15639814D02*
X17735472Y-15658862D01*
X17735472Y-15658862D02*
X17735472Y-15677909D01*
X17735472Y-15677909D02*
X17640233Y-15696957D01*
X17811662Y-15754100D02*
X17830710Y-15763624D01*
X17830710Y-15763624D02*
X17868805Y-15763624D01*
X17868805Y-15763624D02*
X17887853Y-15754100D01*
X17887853Y-15754100D02*
X17897376Y-15735052D01*
X17897376Y-15735052D02*
X17897376Y-15725528D01*
X17897376Y-15725528D02*
X17887853Y-15706481D01*
X17887853Y-15706481D02*
X17868805Y-15696957D01*
X17868805Y-15696957D02*
X17840233Y-15696957D01*
X17840233Y-15696957D02*
X17821186Y-15687433D01*
X17821186Y-15687433D02*
X17811662Y-15668386D01*
X17811662Y-15668386D02*
X17811662Y-15658862D01*
X17811662Y-15658862D02*
X17821186Y-15639814D01*
X17821186Y-15639814D02*
X17840233Y-15630290D01*
X17840233Y-15630290D02*
X17868805Y-15630290D01*
X17868805Y-15630290D02*
X17887853Y-15639814D01*
X18135472Y-15687433D02*
X18287853Y-15687433D01*
X18211662Y-15763624D02*
X18211662Y-15611243D01*
X18621186Y-15630290D02*
X18621186Y-15763624D01*
X18573567Y-15554100D02*
X18525948Y-15696957D01*
X18525948Y-15696957D02*
X18649757Y-15696957D01*
X18868805Y-15754100D02*
X18887853Y-15763624D01*
X18887853Y-15763624D02*
X18925948Y-15763624D01*
X18925948Y-15763624D02*
X18944996Y-15754100D01*
X18944996Y-15754100D02*
X18954519Y-15735052D01*
X18954519Y-15735052D02*
X18954519Y-15725528D01*
X18954519Y-15725528D02*
X18944996Y-15706481D01*
X18944996Y-15706481D02*
X18925948Y-15696957D01*
X18925948Y-15696957D02*
X18897376Y-15696957D01*
X18897376Y-15696957D02*
X18878329Y-15687433D01*
X18878329Y-15687433D02*
X18868805Y-15668386D01*
X18868805Y-15668386D02*
X18868805Y-15658862D01*
X18868805Y-15658862D02*
X18878329Y-15639814D01*
X18878329Y-15639814D02*
X18897376Y-15630290D01*
X18897376Y-15630290D02*
X18925948Y-15630290D01*
X18925948Y-15630290D02*
X18944996Y-15639814D01*
X19068805Y-15763624D02*
X19049757Y-15754100D01*
X19049757Y-15754100D02*
X19040234Y-15735052D01*
X19040234Y-15735052D02*
X19040234Y-15563624D01*
X19173567Y-15763624D02*
X19154519Y-15754100D01*
X19154519Y-15754100D02*
X19144996Y-15744576D01*
X19144996Y-15744576D02*
X19135472Y-15725528D01*
X19135472Y-15725528D02*
X19135472Y-15668386D01*
X19135472Y-15668386D02*
X19144996Y-15649338D01*
X19144996Y-15649338D02*
X19154519Y-15639814D01*
X19154519Y-15639814D02*
X19173567Y-15630290D01*
X19173567Y-15630290D02*
X19202138Y-15630290D01*
X19202138Y-15630290D02*
X19221186Y-15639814D01*
X19221186Y-15639814D02*
X19230710Y-15649338D01*
X19230710Y-15649338D02*
X19240234Y-15668386D01*
X19240234Y-15668386D02*
X19240234Y-15725528D01*
X19240234Y-15725528D02*
X19230710Y-15744576D01*
X19230710Y-15744576D02*
X19221186Y-15754100D01*
X19221186Y-15754100D02*
X19202138Y-15763624D01*
X19202138Y-15763624D02*
X19173567Y-15763624D01*
X19297377Y-15630290D02*
X19373567Y-15630290D01*
X19325948Y-15563624D02*
X19325948Y-15735052D01*
X19325948Y-15735052D02*
X19335472Y-15754100D01*
X19335472Y-15754100D02*
X19354519Y-15763624D01*
X19354519Y-15763624D02*
X19373567Y-15763624D01*
X19430710Y-15754100D02*
X19449757Y-15763624D01*
X19449757Y-15763624D02*
X19487853Y-15763624D01*
X19487853Y-15763624D02*
X19506900Y-15754100D01*
X19506900Y-15754100D02*
X19516424Y-15735052D01*
X19516424Y-15735052D02*
X19516424Y-15725528D01*
X19516424Y-15725528D02*
X19506900Y-15706481D01*
X19506900Y-15706481D02*
X19487853Y-15696957D01*
X19487853Y-15696957D02*
X19459281Y-15696957D01*
X19459281Y-15696957D02*
X19440234Y-15687433D01*
X19440234Y-15687433D02*
X19430710Y-15668386D01*
X19430710Y-15668386D02*
X19430710Y-15658862D01*
X19430710Y-15658862D02*
X19440234Y-15639814D01*
X19440234Y-15639814D02*
X19459281Y-15630290D01*
X19459281Y-15630290D02*
X19487853Y-15630290D01*
X19487853Y-15630290D02*
X19506900Y-15639814D01*
X19583091Y-15839814D02*
X19592615Y-15830290D01*
X19592615Y-15830290D02*
X19611662Y-15801719D01*
X19611662Y-15801719D02*
X19621186Y-15782671D01*
X19621186Y-15782671D02*
X19630710Y-15754100D01*
X19630710Y-15754100D02*
X19640234Y-15706481D01*
X19640234Y-15706481D02*
X19640234Y-15668386D01*
X19640234Y-15668386D02*
X19630710Y-15620767D01*
X19630710Y-15620767D02*
X19621186Y-15592195D01*
X19621186Y-15592195D02*
X19611662Y-15573148D01*
X19611662Y-15573148D02*
X19592615Y-15544576D01*
X19592615Y-15544576D02*
X19583091Y-15535052D01*
D12*
X13108980Y-15896140D02*
X13188980Y-15976140D01*
X13188980Y-15896140D02*
X13108980Y-15976140D01*
X13148980Y-15896140D02*
X13148980Y-15976140D01*
X13108980Y-15936140D02*
X13188980Y-15936140D01*
D11*
X13487852Y-15827624D02*
X13506900Y-15827624D01*
X13506900Y-15827624D02*
X13525947Y-15837148D01*
X13525947Y-15837148D02*
X13535471Y-15846671D01*
X13535471Y-15846671D02*
X13544995Y-15865719D01*
X13544995Y-15865719D02*
X13554519Y-15903814D01*
X13554519Y-15903814D02*
X13554519Y-15951433D01*
X13554519Y-15951433D02*
X13544995Y-15989528D01*
X13544995Y-15989528D02*
X13535471Y-16008576D01*
X13535471Y-16008576D02*
X13525947Y-16018100D01*
X13525947Y-16018100D02*
X13506900Y-16027624D01*
X13506900Y-16027624D02*
X13487852Y-16027624D01*
X13487852Y-16027624D02*
X13468804Y-16018100D01*
X13468804Y-16018100D02*
X13459281Y-16008576D01*
X13459281Y-16008576D02*
X13449757Y-15989528D01*
X13449757Y-15989528D02*
X13440233Y-15951433D01*
X13440233Y-15951433D02*
X13440233Y-15903814D01*
X13440233Y-15903814D02*
X13449757Y-15865719D01*
X13449757Y-15865719D02*
X13459281Y-15846671D01*
X13459281Y-15846671D02*
X13468804Y-15837148D01*
X13468804Y-15837148D02*
X13487852Y-15827624D01*
X13640233Y-16008576D02*
X13649757Y-16018100D01*
X13649757Y-16018100D02*
X13640233Y-16027624D01*
X13640233Y-16027624D02*
X13630709Y-16018100D01*
X13630709Y-16018100D02*
X13640233Y-16008576D01*
X13640233Y-16008576D02*
X13640233Y-16027624D01*
X13764042Y-15913338D02*
X13744995Y-15903814D01*
X13744995Y-15903814D02*
X13735471Y-15894290D01*
X13735471Y-15894290D02*
X13725947Y-15875243D01*
X13725947Y-15875243D02*
X13725947Y-15865719D01*
X13725947Y-15865719D02*
X13735471Y-15846671D01*
X13735471Y-15846671D02*
X13744995Y-15837148D01*
X13744995Y-15837148D02*
X13764042Y-15827624D01*
X13764042Y-15827624D02*
X13802138Y-15827624D01*
X13802138Y-15827624D02*
X13821185Y-15837148D01*
X13821185Y-15837148D02*
X13830709Y-15846671D01*
X13830709Y-15846671D02*
X13840233Y-15865719D01*
X13840233Y-15865719D02*
X13840233Y-15875243D01*
X13840233Y-15875243D02*
X13830709Y-15894290D01*
X13830709Y-15894290D02*
X13821185Y-15903814D01*
X13821185Y-15903814D02*
X13802138Y-15913338D01*
X13802138Y-15913338D02*
X13764042Y-15913338D01*
X13764042Y-15913338D02*
X13744995Y-15922862D01*
X13744995Y-15922862D02*
X13735471Y-15932386D01*
X13735471Y-15932386D02*
X13725947Y-15951433D01*
X13725947Y-15951433D02*
X13725947Y-15989528D01*
X13725947Y-15989528D02*
X13735471Y-16008576D01*
X13735471Y-16008576D02*
X13744995Y-16018100D01*
X13744995Y-16018100D02*
X13764042Y-16027624D01*
X13764042Y-16027624D02*
X13802138Y-16027624D01*
X13802138Y-16027624D02*
X13821185Y-16018100D01*
X13821185Y-16018100D02*
X13830709Y-16008576D01*
X13830709Y-16008576D02*
X13840233Y-15989528D01*
X13840233Y-15989528D02*
X13840233Y-15951433D01*
X13840233Y-15951433D02*
X13830709Y-15932386D01*
X13830709Y-15932386D02*
X13821185Y-15922862D01*
X13821185Y-15922862D02*
X13802138Y-15913338D01*
X13964042Y-15827624D02*
X13983090Y-15827624D01*
X13983090Y-15827624D02*
X14002138Y-15837148D01*
X14002138Y-15837148D02*
X14011662Y-15846671D01*
X14011662Y-15846671D02*
X14021185Y-15865719D01*
X14021185Y-15865719D02*
X14030709Y-15903814D01*
X14030709Y-15903814D02*
X14030709Y-15951433D01*
X14030709Y-15951433D02*
X14021185Y-15989528D01*
X14021185Y-15989528D02*
X14011662Y-16008576D01*
X14011662Y-16008576D02*
X14002138Y-16018100D01*
X14002138Y-16018100D02*
X13983090Y-16027624D01*
X13983090Y-16027624D02*
X13964042Y-16027624D01*
X13964042Y-16027624D02*
X13944995Y-16018100D01*
X13944995Y-16018100D02*
X13935471Y-16008576D01*
X13935471Y-16008576D02*
X13925947Y-15989528D01*
X13925947Y-15989528D02*
X13916423Y-15951433D01*
X13916423Y-15951433D02*
X13916423Y-15903814D01*
X13916423Y-15903814D02*
X13925947Y-15865719D01*
X13925947Y-15865719D02*
X13935471Y-15846671D01*
X13935471Y-15846671D02*
X13944995Y-15837148D01*
X13944995Y-15837148D02*
X13964042Y-15827624D01*
X14154519Y-15827624D02*
X14173566Y-15827624D01*
X14173566Y-15827624D02*
X14192614Y-15837148D01*
X14192614Y-15837148D02*
X14202138Y-15846671D01*
X14202138Y-15846671D02*
X14211662Y-15865719D01*
X14211662Y-15865719D02*
X14221185Y-15903814D01*
X14221185Y-15903814D02*
X14221185Y-15951433D01*
X14221185Y-15951433D02*
X14211662Y-15989528D01*
X14211662Y-15989528D02*
X14202138Y-16008576D01*
X14202138Y-16008576D02*
X14192614Y-16018100D01*
X14192614Y-16018100D02*
X14173566Y-16027624D01*
X14173566Y-16027624D02*
X14154519Y-16027624D01*
X14154519Y-16027624D02*
X14135471Y-16018100D01*
X14135471Y-16018100D02*
X14125947Y-16008576D01*
X14125947Y-16008576D02*
X14116423Y-15989528D01*
X14116423Y-15989528D02*
X14106900Y-15951433D01*
X14106900Y-15951433D02*
X14106900Y-15903814D01*
X14106900Y-15903814D02*
X14116423Y-15865719D01*
X14116423Y-15865719D02*
X14125947Y-15846671D01*
X14125947Y-15846671D02*
X14135471Y-15837148D01*
X14135471Y-15837148D02*
X14154519Y-15827624D01*
X14306900Y-16027624D02*
X14306900Y-15894290D01*
X14306900Y-15913338D02*
X14316423Y-15903814D01*
X14316423Y-15903814D02*
X14335471Y-15894290D01*
X14335471Y-15894290D02*
X14364043Y-15894290D01*
X14364043Y-15894290D02*
X14383090Y-15903814D01*
X14383090Y-15903814D02*
X14392614Y-15922862D01*
X14392614Y-15922862D02*
X14392614Y-16027624D01*
X14392614Y-15922862D02*
X14402138Y-15903814D01*
X14402138Y-15903814D02*
X14421185Y-15894290D01*
X14421185Y-15894290D02*
X14449757Y-15894290D01*
X14449757Y-15894290D02*
X14468804Y-15903814D01*
X14468804Y-15903814D02*
X14478328Y-15922862D01*
X14478328Y-15922862D02*
X14478328Y-16027624D01*
X14573566Y-16027624D02*
X14573566Y-15894290D01*
X14573566Y-15913338D02*
X14583090Y-15903814D01*
X14583090Y-15903814D02*
X14602138Y-15894290D01*
X14602138Y-15894290D02*
X14630709Y-15894290D01*
X14630709Y-15894290D02*
X14649757Y-15903814D01*
X14649757Y-15903814D02*
X14659281Y-15922862D01*
X14659281Y-15922862D02*
X14659281Y-16027624D01*
X14659281Y-15922862D02*
X14668804Y-15903814D01*
X14668804Y-15903814D02*
X14687852Y-15894290D01*
X14687852Y-15894290D02*
X14716423Y-15894290D01*
X14716423Y-15894290D02*
X14735471Y-15903814D01*
X14735471Y-15903814D02*
X14744995Y-15922862D01*
X14744995Y-15922862D02*
X14744995Y-16027624D01*
X15135471Y-15818100D02*
X14964043Y-16075243D01*
X15392614Y-15827624D02*
X15411662Y-15827624D01*
X15411662Y-15827624D02*
X15430709Y-15837148D01*
X15430709Y-15837148D02*
X15440233Y-15846671D01*
X15440233Y-15846671D02*
X15449757Y-15865719D01*
X15449757Y-15865719D02*
X15459281Y-15903814D01*
X15459281Y-15903814D02*
X15459281Y-15951433D01*
X15459281Y-15951433D02*
X15449757Y-15989528D01*
X15449757Y-15989528D02*
X15440233Y-16008576D01*
X15440233Y-16008576D02*
X15430709Y-16018100D01*
X15430709Y-16018100D02*
X15411662Y-16027624D01*
X15411662Y-16027624D02*
X15392614Y-16027624D01*
X15392614Y-16027624D02*
X15373566Y-16018100D01*
X15373566Y-16018100D02*
X15364043Y-16008576D01*
X15364043Y-16008576D02*
X15354519Y-15989528D01*
X15354519Y-15989528D02*
X15344995Y-15951433D01*
X15344995Y-15951433D02*
X15344995Y-15903814D01*
X15344995Y-15903814D02*
X15354519Y-15865719D01*
X15354519Y-15865719D02*
X15364043Y-15846671D01*
X15364043Y-15846671D02*
X15373566Y-15837148D01*
X15373566Y-15837148D02*
X15392614Y-15827624D01*
X15544995Y-16008576D02*
X15554519Y-16018100D01*
X15554519Y-16018100D02*
X15544995Y-16027624D01*
X15544995Y-16027624D02*
X15535471Y-16018100D01*
X15535471Y-16018100D02*
X15544995Y-16008576D01*
X15544995Y-16008576D02*
X15544995Y-16027624D01*
X15678328Y-15827624D02*
X15697376Y-15827624D01*
X15697376Y-15827624D02*
X15716424Y-15837148D01*
X15716424Y-15837148D02*
X15725947Y-15846671D01*
X15725947Y-15846671D02*
X15735471Y-15865719D01*
X15735471Y-15865719D02*
X15744995Y-15903814D01*
X15744995Y-15903814D02*
X15744995Y-15951433D01*
X15744995Y-15951433D02*
X15735471Y-15989528D01*
X15735471Y-15989528D02*
X15725947Y-16008576D01*
X15725947Y-16008576D02*
X15716424Y-16018100D01*
X15716424Y-16018100D02*
X15697376Y-16027624D01*
X15697376Y-16027624D02*
X15678328Y-16027624D01*
X15678328Y-16027624D02*
X15659281Y-16018100D01*
X15659281Y-16018100D02*
X15649757Y-16008576D01*
X15649757Y-16008576D02*
X15640233Y-15989528D01*
X15640233Y-15989528D02*
X15630709Y-15951433D01*
X15630709Y-15951433D02*
X15630709Y-15903814D01*
X15630709Y-15903814D02*
X15640233Y-15865719D01*
X15640233Y-15865719D02*
X15649757Y-15846671D01*
X15649757Y-15846671D02*
X15659281Y-15837148D01*
X15659281Y-15837148D02*
X15678328Y-15827624D01*
X15811662Y-15827624D02*
X15935471Y-15827624D01*
X15935471Y-15827624D02*
X15868805Y-15903814D01*
X15868805Y-15903814D02*
X15897376Y-15903814D01*
X15897376Y-15903814D02*
X15916424Y-15913338D01*
X15916424Y-15913338D02*
X15925947Y-15922862D01*
X15925947Y-15922862D02*
X15935471Y-15941909D01*
X15935471Y-15941909D02*
X15935471Y-15989528D01*
X15935471Y-15989528D02*
X15925947Y-16008576D01*
X15925947Y-16008576D02*
X15916424Y-16018100D01*
X15916424Y-16018100D02*
X15897376Y-16027624D01*
X15897376Y-16027624D02*
X15840233Y-16027624D01*
X15840233Y-16027624D02*
X15821186Y-16018100D01*
X15821186Y-16018100D02*
X15811662Y-16008576D01*
X16125947Y-16027624D02*
X16011662Y-16027624D01*
X16068805Y-16027624D02*
X16068805Y-15827624D01*
X16068805Y-15827624D02*
X16049757Y-15856195D01*
X16049757Y-15856195D02*
X16030709Y-15875243D01*
X16030709Y-15875243D02*
X16011662Y-15884767D01*
X16306900Y-15827624D02*
X16211662Y-15827624D01*
X16211662Y-15827624D02*
X16202138Y-15922862D01*
X16202138Y-15922862D02*
X16211662Y-15913338D01*
X16211662Y-15913338D02*
X16230709Y-15903814D01*
X16230709Y-15903814D02*
X16278328Y-15903814D01*
X16278328Y-15903814D02*
X16297376Y-15913338D01*
X16297376Y-15913338D02*
X16306900Y-15922862D01*
X16306900Y-15922862D02*
X16316424Y-15941909D01*
X16316424Y-15941909D02*
X16316424Y-15989528D01*
X16316424Y-15989528D02*
X16306900Y-16008576D01*
X16306900Y-16008576D02*
X16297376Y-16018100D01*
X16297376Y-16018100D02*
X16278328Y-16027624D01*
X16278328Y-16027624D02*
X16230709Y-16027624D01*
X16230709Y-16027624D02*
X16211662Y-16018100D01*
X16211662Y-16018100D02*
X16202138Y-16008576D01*
X16392614Y-15827624D02*
X16392614Y-15865719D01*
X16468805Y-15827624D02*
X16468805Y-15865719D01*
X16764043Y-16103814D02*
X16754519Y-16094290D01*
X16754519Y-16094290D02*
X16735471Y-16065719D01*
X16735471Y-16065719D02*
X16725948Y-16046671D01*
X16725948Y-16046671D02*
X16716424Y-16018100D01*
X16716424Y-16018100D02*
X16706900Y-15970481D01*
X16706900Y-15970481D02*
X16706900Y-15932386D01*
X16706900Y-15932386D02*
X16716424Y-15884767D01*
X16716424Y-15884767D02*
X16725948Y-15856195D01*
X16725948Y-15856195D02*
X16735471Y-15837148D01*
X16735471Y-15837148D02*
X16754519Y-15808576D01*
X16754519Y-15808576D02*
X16764043Y-15799052D01*
X16925948Y-15827624D02*
X16887852Y-15827624D01*
X16887852Y-15827624D02*
X16868805Y-15837148D01*
X16868805Y-15837148D02*
X16859281Y-15846671D01*
X16859281Y-15846671D02*
X16840233Y-15875243D01*
X16840233Y-15875243D02*
X16830710Y-15913338D01*
X16830710Y-15913338D02*
X16830710Y-15989528D01*
X16830710Y-15989528D02*
X16840233Y-16008576D01*
X16840233Y-16008576D02*
X16849757Y-16018100D01*
X16849757Y-16018100D02*
X16868805Y-16027624D01*
X16868805Y-16027624D02*
X16906900Y-16027624D01*
X16906900Y-16027624D02*
X16925948Y-16018100D01*
X16925948Y-16018100D02*
X16935471Y-16008576D01*
X16935471Y-16008576D02*
X16944995Y-15989528D01*
X16944995Y-15989528D02*
X16944995Y-15941909D01*
X16944995Y-15941909D02*
X16935471Y-15922862D01*
X16935471Y-15922862D02*
X16925948Y-15913338D01*
X16925948Y-15913338D02*
X16906900Y-15903814D01*
X16906900Y-15903814D02*
X16868805Y-15903814D01*
X16868805Y-15903814D02*
X16849757Y-15913338D01*
X16849757Y-15913338D02*
X16840233Y-15922862D01*
X16840233Y-15922862D02*
X16830710Y-15941909D01*
X17183091Y-16027624D02*
X17183091Y-15827624D01*
X17268805Y-16027624D02*
X17268805Y-15922862D01*
X17268805Y-15922862D02*
X17259281Y-15903814D01*
X17259281Y-15903814D02*
X17240233Y-15894290D01*
X17240233Y-15894290D02*
X17211662Y-15894290D01*
X17211662Y-15894290D02*
X17192614Y-15903814D01*
X17192614Y-15903814D02*
X17183091Y-15913338D01*
X17392614Y-16027624D02*
X17373567Y-16018100D01*
X17373567Y-16018100D02*
X17364043Y-16008576D01*
X17364043Y-16008576D02*
X17354519Y-15989528D01*
X17354519Y-15989528D02*
X17354519Y-15932386D01*
X17354519Y-15932386D02*
X17364043Y-15913338D01*
X17364043Y-15913338D02*
X17373567Y-15903814D01*
X17373567Y-15903814D02*
X17392614Y-15894290D01*
X17392614Y-15894290D02*
X17421186Y-15894290D01*
X17421186Y-15894290D02*
X17440233Y-15903814D01*
X17440233Y-15903814D02*
X17449757Y-15913338D01*
X17449757Y-15913338D02*
X17459281Y-15932386D01*
X17459281Y-15932386D02*
X17459281Y-15989528D01*
X17459281Y-15989528D02*
X17449757Y-16008576D01*
X17449757Y-16008576D02*
X17440233Y-16018100D01*
X17440233Y-16018100D02*
X17421186Y-16027624D01*
X17421186Y-16027624D02*
X17392614Y-16027624D01*
X17573567Y-16027624D02*
X17554519Y-16018100D01*
X17554519Y-16018100D02*
X17544995Y-15999052D01*
X17544995Y-15999052D02*
X17544995Y-15827624D01*
X17725948Y-16018100D02*
X17706900Y-16027624D01*
X17706900Y-16027624D02*
X17668805Y-16027624D01*
X17668805Y-16027624D02*
X17649757Y-16018100D01*
X17649757Y-16018100D02*
X17640233Y-15999052D01*
X17640233Y-15999052D02*
X17640233Y-15922862D01*
X17640233Y-15922862D02*
X17649757Y-15903814D01*
X17649757Y-15903814D02*
X17668805Y-15894290D01*
X17668805Y-15894290D02*
X17706900Y-15894290D01*
X17706900Y-15894290D02*
X17725948Y-15903814D01*
X17725948Y-15903814D02*
X17735472Y-15922862D01*
X17735472Y-15922862D02*
X17735472Y-15941909D01*
X17735472Y-15941909D02*
X17640233Y-15960957D01*
X17811662Y-16018100D02*
X17830710Y-16027624D01*
X17830710Y-16027624D02*
X17868805Y-16027624D01*
X17868805Y-16027624D02*
X17887853Y-16018100D01*
X17887853Y-16018100D02*
X17897376Y-15999052D01*
X17897376Y-15999052D02*
X17897376Y-15989528D01*
X17897376Y-15989528D02*
X17887853Y-15970481D01*
X17887853Y-15970481D02*
X17868805Y-15960957D01*
X17868805Y-15960957D02*
X17840233Y-15960957D01*
X17840233Y-15960957D02*
X17821186Y-15951433D01*
X17821186Y-15951433D02*
X17811662Y-15932386D01*
X17811662Y-15932386D02*
X17811662Y-15922862D01*
X17811662Y-15922862D02*
X17821186Y-15903814D01*
X17821186Y-15903814D02*
X17840233Y-15894290D01*
X17840233Y-15894290D02*
X17868805Y-15894290D01*
X17868805Y-15894290D02*
X17887853Y-15903814D01*
X17964043Y-16103814D02*
X17973567Y-16094290D01*
X17973567Y-16094290D02*
X17992614Y-16065719D01*
X17992614Y-16065719D02*
X18002138Y-16046671D01*
X18002138Y-16046671D02*
X18011662Y-16018100D01*
X18011662Y-16018100D02*
X18021186Y-15970481D01*
X18021186Y-15970481D02*
X18021186Y-15932386D01*
X18021186Y-15932386D02*
X18011662Y-15884767D01*
X18011662Y-15884767D02*
X18002138Y-15856195D01*
X18002138Y-15856195D02*
X17992614Y-15837148D01*
X17992614Y-15837148D02*
X17973567Y-15808576D01*
X17973567Y-15808576D02*
X17964043Y-15799052D01*
D12*
X13088980Y-16150140D02*
X13188980Y-16250140D01*
X13188980Y-16150140D02*
X13088980Y-16250140D01*
X13174336Y-16235496D02*
X13174336Y-16164784D01*
X13103624Y-16164784D01*
X13103624Y-16235496D01*
X13174336Y-16235496D01*
D11*
X13554519Y-16291624D02*
X13440233Y-16291624D01*
X13497376Y-16291624D02*
X13497376Y-16091624D01*
X13497376Y-16091624D02*
X13478328Y-16120195D01*
X13478328Y-16120195D02*
X13459281Y-16139243D01*
X13459281Y-16139243D02*
X13440233Y-16148767D01*
X13640233Y-16272576D02*
X13649757Y-16282100D01*
X13649757Y-16282100D02*
X13640233Y-16291624D01*
X13640233Y-16291624D02*
X13630709Y-16282100D01*
X13630709Y-16282100D02*
X13640233Y-16272576D01*
X13640233Y-16272576D02*
X13640233Y-16291624D01*
X13773566Y-16091624D02*
X13792614Y-16091624D01*
X13792614Y-16091624D02*
X13811662Y-16101148D01*
X13811662Y-16101148D02*
X13821185Y-16110671D01*
X13821185Y-16110671D02*
X13830709Y-16129719D01*
X13830709Y-16129719D02*
X13840233Y-16167814D01*
X13840233Y-16167814D02*
X13840233Y-16215433D01*
X13840233Y-16215433D02*
X13830709Y-16253528D01*
X13830709Y-16253528D02*
X13821185Y-16272576D01*
X13821185Y-16272576D02*
X13811662Y-16282100D01*
X13811662Y-16282100D02*
X13792614Y-16291624D01*
X13792614Y-16291624D02*
X13773566Y-16291624D01*
X13773566Y-16291624D02*
X13754519Y-16282100D01*
X13754519Y-16282100D02*
X13744995Y-16272576D01*
X13744995Y-16272576D02*
X13735471Y-16253528D01*
X13735471Y-16253528D02*
X13725947Y-16215433D01*
X13725947Y-16215433D02*
X13725947Y-16167814D01*
X13725947Y-16167814D02*
X13735471Y-16129719D01*
X13735471Y-16129719D02*
X13744995Y-16110671D01*
X13744995Y-16110671D02*
X13754519Y-16101148D01*
X13754519Y-16101148D02*
X13773566Y-16091624D01*
X13964042Y-16091624D02*
X13983090Y-16091624D01*
X13983090Y-16091624D02*
X14002138Y-16101148D01*
X14002138Y-16101148D02*
X14011662Y-16110671D01*
X14011662Y-16110671D02*
X14021185Y-16129719D01*
X14021185Y-16129719D02*
X14030709Y-16167814D01*
X14030709Y-16167814D02*
X14030709Y-16215433D01*
X14030709Y-16215433D02*
X14021185Y-16253528D01*
X14021185Y-16253528D02*
X14011662Y-16272576D01*
X14011662Y-16272576D02*
X14002138Y-16282100D01*
X14002138Y-16282100D02*
X13983090Y-16291624D01*
X13983090Y-16291624D02*
X13964042Y-16291624D01*
X13964042Y-16291624D02*
X13944995Y-16282100D01*
X13944995Y-16282100D02*
X13935471Y-16272576D01*
X13935471Y-16272576D02*
X13925947Y-16253528D01*
X13925947Y-16253528D02*
X13916423Y-16215433D01*
X13916423Y-16215433D02*
X13916423Y-16167814D01*
X13916423Y-16167814D02*
X13925947Y-16129719D01*
X13925947Y-16129719D02*
X13935471Y-16110671D01*
X13935471Y-16110671D02*
X13944995Y-16101148D01*
X13944995Y-16101148D02*
X13964042Y-16091624D01*
X14154519Y-16091624D02*
X14173566Y-16091624D01*
X14173566Y-16091624D02*
X14192614Y-16101148D01*
X14192614Y-16101148D02*
X14202138Y-16110671D01*
X14202138Y-16110671D02*
X14211662Y-16129719D01*
X14211662Y-16129719D02*
X14221185Y-16167814D01*
X14221185Y-16167814D02*
X14221185Y-16215433D01*
X14221185Y-16215433D02*
X14211662Y-16253528D01*
X14211662Y-16253528D02*
X14202138Y-16272576D01*
X14202138Y-16272576D02*
X14192614Y-16282100D01*
X14192614Y-16282100D02*
X14173566Y-16291624D01*
X14173566Y-16291624D02*
X14154519Y-16291624D01*
X14154519Y-16291624D02*
X14135471Y-16282100D01*
X14135471Y-16282100D02*
X14125947Y-16272576D01*
X14125947Y-16272576D02*
X14116423Y-16253528D01*
X14116423Y-16253528D02*
X14106900Y-16215433D01*
X14106900Y-16215433D02*
X14106900Y-16167814D01*
X14106900Y-16167814D02*
X14116423Y-16129719D01*
X14116423Y-16129719D02*
X14125947Y-16110671D01*
X14125947Y-16110671D02*
X14135471Y-16101148D01*
X14135471Y-16101148D02*
X14154519Y-16091624D01*
X14306900Y-16291624D02*
X14306900Y-16158290D01*
X14306900Y-16177338D02*
X14316423Y-16167814D01*
X14316423Y-16167814D02*
X14335471Y-16158290D01*
X14335471Y-16158290D02*
X14364043Y-16158290D01*
X14364043Y-16158290D02*
X14383090Y-16167814D01*
X14383090Y-16167814D02*
X14392614Y-16186862D01*
X14392614Y-16186862D02*
X14392614Y-16291624D01*
X14392614Y-16186862D02*
X14402138Y-16167814D01*
X14402138Y-16167814D02*
X14421185Y-16158290D01*
X14421185Y-16158290D02*
X14449757Y-16158290D01*
X14449757Y-16158290D02*
X14468804Y-16167814D01*
X14468804Y-16167814D02*
X14478328Y-16186862D01*
X14478328Y-16186862D02*
X14478328Y-16291624D01*
X14573566Y-16291624D02*
X14573566Y-16158290D01*
X14573566Y-16177338D02*
X14583090Y-16167814D01*
X14583090Y-16167814D02*
X14602138Y-16158290D01*
X14602138Y-16158290D02*
X14630709Y-16158290D01*
X14630709Y-16158290D02*
X14649757Y-16167814D01*
X14649757Y-16167814D02*
X14659281Y-16186862D01*
X14659281Y-16186862D02*
X14659281Y-16291624D01*
X14659281Y-16186862D02*
X14668804Y-16167814D01*
X14668804Y-16167814D02*
X14687852Y-16158290D01*
X14687852Y-16158290D02*
X14716423Y-16158290D01*
X14716423Y-16158290D02*
X14735471Y-16167814D01*
X14735471Y-16167814D02*
X14744995Y-16186862D01*
X14744995Y-16186862D02*
X14744995Y-16291624D01*
X15135471Y-16082100D02*
X14964043Y-16339243D01*
X15392614Y-16091624D02*
X15411662Y-16091624D01*
X15411662Y-16091624D02*
X15430709Y-16101148D01*
X15430709Y-16101148D02*
X15440233Y-16110671D01*
X15440233Y-16110671D02*
X15449757Y-16129719D01*
X15449757Y-16129719D02*
X15459281Y-16167814D01*
X15459281Y-16167814D02*
X15459281Y-16215433D01*
X15459281Y-16215433D02*
X15449757Y-16253528D01*
X15449757Y-16253528D02*
X15440233Y-16272576D01*
X15440233Y-16272576D02*
X15430709Y-16282100D01*
X15430709Y-16282100D02*
X15411662Y-16291624D01*
X15411662Y-16291624D02*
X15392614Y-16291624D01*
X15392614Y-16291624D02*
X15373566Y-16282100D01*
X15373566Y-16282100D02*
X15364043Y-16272576D01*
X15364043Y-16272576D02*
X15354519Y-16253528D01*
X15354519Y-16253528D02*
X15344995Y-16215433D01*
X15344995Y-16215433D02*
X15344995Y-16167814D01*
X15344995Y-16167814D02*
X15354519Y-16129719D01*
X15354519Y-16129719D02*
X15364043Y-16110671D01*
X15364043Y-16110671D02*
X15373566Y-16101148D01*
X15373566Y-16101148D02*
X15392614Y-16091624D01*
X15544995Y-16272576D02*
X15554519Y-16282100D01*
X15554519Y-16282100D02*
X15544995Y-16291624D01*
X15544995Y-16291624D02*
X15535471Y-16282100D01*
X15535471Y-16282100D02*
X15544995Y-16272576D01*
X15544995Y-16272576D02*
X15544995Y-16291624D01*
X15678328Y-16091624D02*
X15697376Y-16091624D01*
X15697376Y-16091624D02*
X15716424Y-16101148D01*
X15716424Y-16101148D02*
X15725947Y-16110671D01*
X15725947Y-16110671D02*
X15735471Y-16129719D01*
X15735471Y-16129719D02*
X15744995Y-16167814D01*
X15744995Y-16167814D02*
X15744995Y-16215433D01*
X15744995Y-16215433D02*
X15735471Y-16253528D01*
X15735471Y-16253528D02*
X15725947Y-16272576D01*
X15725947Y-16272576D02*
X15716424Y-16282100D01*
X15716424Y-16282100D02*
X15697376Y-16291624D01*
X15697376Y-16291624D02*
X15678328Y-16291624D01*
X15678328Y-16291624D02*
X15659281Y-16282100D01*
X15659281Y-16282100D02*
X15649757Y-16272576D01*
X15649757Y-16272576D02*
X15640233Y-16253528D01*
X15640233Y-16253528D02*
X15630709Y-16215433D01*
X15630709Y-16215433D02*
X15630709Y-16167814D01*
X15630709Y-16167814D02*
X15640233Y-16129719D01*
X15640233Y-16129719D02*
X15649757Y-16110671D01*
X15649757Y-16110671D02*
X15659281Y-16101148D01*
X15659281Y-16101148D02*
X15678328Y-16091624D01*
X15811662Y-16091624D02*
X15935471Y-16091624D01*
X15935471Y-16091624D02*
X15868805Y-16167814D01*
X15868805Y-16167814D02*
X15897376Y-16167814D01*
X15897376Y-16167814D02*
X15916424Y-16177338D01*
X15916424Y-16177338D02*
X15925947Y-16186862D01*
X15925947Y-16186862D02*
X15935471Y-16205909D01*
X15935471Y-16205909D02*
X15935471Y-16253528D01*
X15935471Y-16253528D02*
X15925947Y-16272576D01*
X15925947Y-16272576D02*
X15916424Y-16282100D01*
X15916424Y-16282100D02*
X15897376Y-16291624D01*
X15897376Y-16291624D02*
X15840233Y-16291624D01*
X15840233Y-16291624D02*
X15821186Y-16282100D01*
X15821186Y-16282100D02*
X15811662Y-16272576D01*
X16030709Y-16291624D02*
X16068805Y-16291624D01*
X16068805Y-16291624D02*
X16087852Y-16282100D01*
X16087852Y-16282100D02*
X16097376Y-16272576D01*
X16097376Y-16272576D02*
X16116424Y-16244005D01*
X16116424Y-16244005D02*
X16125947Y-16205909D01*
X16125947Y-16205909D02*
X16125947Y-16129719D01*
X16125947Y-16129719D02*
X16116424Y-16110671D01*
X16116424Y-16110671D02*
X16106900Y-16101148D01*
X16106900Y-16101148D02*
X16087852Y-16091624D01*
X16087852Y-16091624D02*
X16049757Y-16091624D01*
X16049757Y-16091624D02*
X16030709Y-16101148D01*
X16030709Y-16101148D02*
X16021186Y-16110671D01*
X16021186Y-16110671D02*
X16011662Y-16129719D01*
X16011662Y-16129719D02*
X16011662Y-16177338D01*
X16011662Y-16177338D02*
X16021186Y-16196386D01*
X16021186Y-16196386D02*
X16030709Y-16205909D01*
X16030709Y-16205909D02*
X16049757Y-16215433D01*
X16049757Y-16215433D02*
X16087852Y-16215433D01*
X16087852Y-16215433D02*
X16106900Y-16205909D01*
X16106900Y-16205909D02*
X16116424Y-16196386D01*
X16116424Y-16196386D02*
X16125947Y-16177338D01*
X16297376Y-16158290D02*
X16297376Y-16291624D01*
X16249757Y-16082100D02*
X16202138Y-16224957D01*
X16202138Y-16224957D02*
X16325947Y-16224957D01*
X16392614Y-16091624D02*
X16392614Y-16129719D01*
X16468805Y-16091624D02*
X16468805Y-16129719D01*
X16764043Y-16367814D02*
X16754519Y-16358290D01*
X16754519Y-16358290D02*
X16735471Y-16329719D01*
X16735471Y-16329719D02*
X16725948Y-16310671D01*
X16725948Y-16310671D02*
X16716424Y-16282100D01*
X16716424Y-16282100D02*
X16706900Y-16234481D01*
X16706900Y-16234481D02*
X16706900Y-16196386D01*
X16706900Y-16196386D02*
X16716424Y-16148767D01*
X16716424Y-16148767D02*
X16725948Y-16120195D01*
X16725948Y-16120195D02*
X16735471Y-16101148D01*
X16735471Y-16101148D02*
X16754519Y-16072576D01*
X16754519Y-16072576D02*
X16764043Y-16063052D01*
X16944995Y-16291624D02*
X16830710Y-16291624D01*
X16887852Y-16291624D02*
X16887852Y-16091624D01*
X16887852Y-16091624D02*
X16868805Y-16120195D01*
X16868805Y-16120195D02*
X16849757Y-16139243D01*
X16849757Y-16139243D02*
X16830710Y-16148767D01*
X17125948Y-16091624D02*
X17030710Y-16091624D01*
X17030710Y-16091624D02*
X17021186Y-16186862D01*
X17021186Y-16186862D02*
X17030710Y-16177338D01*
X17030710Y-16177338D02*
X17049757Y-16167814D01*
X17049757Y-16167814D02*
X17097376Y-16167814D01*
X17097376Y-16167814D02*
X17116424Y-16177338D01*
X17116424Y-16177338D02*
X17125948Y-16186862D01*
X17125948Y-16186862D02*
X17135471Y-16205909D01*
X17135471Y-16205909D02*
X17135471Y-16253528D01*
X17135471Y-16253528D02*
X17125948Y-16272576D01*
X17125948Y-16272576D02*
X17116424Y-16282100D01*
X17116424Y-16282100D02*
X17097376Y-16291624D01*
X17097376Y-16291624D02*
X17049757Y-16291624D01*
X17049757Y-16291624D02*
X17030710Y-16282100D01*
X17030710Y-16282100D02*
X17021186Y-16272576D01*
X17373567Y-16291624D02*
X17373567Y-16091624D01*
X17459281Y-16291624D02*
X17459281Y-16186862D01*
X17459281Y-16186862D02*
X17449757Y-16167814D01*
X17449757Y-16167814D02*
X17430710Y-16158290D01*
X17430710Y-16158290D02*
X17402138Y-16158290D01*
X17402138Y-16158290D02*
X17383091Y-16167814D01*
X17383091Y-16167814D02*
X17373567Y-16177338D01*
X17583091Y-16291624D02*
X17564043Y-16282100D01*
X17564043Y-16282100D02*
X17554519Y-16272576D01*
X17554519Y-16272576D02*
X17544995Y-16253528D01*
X17544995Y-16253528D02*
X17544995Y-16196386D01*
X17544995Y-16196386D02*
X17554519Y-16177338D01*
X17554519Y-16177338D02*
X17564043Y-16167814D01*
X17564043Y-16167814D02*
X17583091Y-16158290D01*
X17583091Y-16158290D02*
X17611662Y-16158290D01*
X17611662Y-16158290D02*
X17630710Y-16167814D01*
X17630710Y-16167814D02*
X17640233Y-16177338D01*
X17640233Y-16177338D02*
X17649757Y-16196386D01*
X17649757Y-16196386D02*
X17649757Y-16253528D01*
X17649757Y-16253528D02*
X17640233Y-16272576D01*
X17640233Y-16272576D02*
X17630710Y-16282100D01*
X17630710Y-16282100D02*
X17611662Y-16291624D01*
X17611662Y-16291624D02*
X17583091Y-16291624D01*
X17764043Y-16291624D02*
X17744995Y-16282100D01*
X17744995Y-16282100D02*
X17735472Y-16263052D01*
X17735472Y-16263052D02*
X17735472Y-16091624D01*
X17916424Y-16282100D02*
X17897376Y-16291624D01*
X17897376Y-16291624D02*
X17859281Y-16291624D01*
X17859281Y-16291624D02*
X17840233Y-16282100D01*
X17840233Y-16282100D02*
X17830710Y-16263052D01*
X17830710Y-16263052D02*
X17830710Y-16186862D01*
X17830710Y-16186862D02*
X17840233Y-16167814D01*
X17840233Y-16167814D02*
X17859281Y-16158290D01*
X17859281Y-16158290D02*
X17897376Y-16158290D01*
X17897376Y-16158290D02*
X17916424Y-16167814D01*
X17916424Y-16167814D02*
X17925948Y-16186862D01*
X17925948Y-16186862D02*
X17925948Y-16205909D01*
X17925948Y-16205909D02*
X17830710Y-16224957D01*
X18002138Y-16282100D02*
X18021186Y-16291624D01*
X18021186Y-16291624D02*
X18059281Y-16291624D01*
X18059281Y-16291624D02*
X18078329Y-16282100D01*
X18078329Y-16282100D02*
X18087853Y-16263052D01*
X18087853Y-16263052D02*
X18087853Y-16253528D01*
X18087853Y-16253528D02*
X18078329Y-16234481D01*
X18078329Y-16234481D02*
X18059281Y-16224957D01*
X18059281Y-16224957D02*
X18030710Y-16224957D01*
X18030710Y-16224957D02*
X18011662Y-16215433D01*
X18011662Y-16215433D02*
X18002138Y-16196386D01*
X18002138Y-16196386D02*
X18002138Y-16186862D01*
X18002138Y-16186862D02*
X18011662Y-16167814D01*
X18011662Y-16167814D02*
X18030710Y-16158290D01*
X18030710Y-16158290D02*
X18059281Y-16158290D01*
X18059281Y-16158290D02*
X18078329Y-16167814D01*
X18154519Y-16367814D02*
X18164043Y-16358290D01*
X18164043Y-16358290D02*
X18183091Y-16329719D01*
X18183091Y-16329719D02*
X18192614Y-16310671D01*
X18192614Y-16310671D02*
X18202138Y-16282100D01*
X18202138Y-16282100D02*
X18211662Y-16234481D01*
X18211662Y-16234481D02*
X18211662Y-16196386D01*
X18211662Y-16196386D02*
X18202138Y-16148767D01*
X18202138Y-16148767D02*
X18192614Y-16120195D01*
X18192614Y-16120195D02*
X18183091Y-16101148D01*
X18183091Y-16101148D02*
X18164043Y-16072576D01*
X18164043Y-16072576D02*
X18154519Y-16063052D01*
D13*
X13068980Y-16404140D02*
X13188980Y-16524140D01*
X13188980Y-16404140D02*
X13068980Y-16524140D01*
X13128980Y-16524140D02*
X13188980Y-16464140D01*
X13128980Y-16404140D01*
X13068980Y-16464140D01*
X13128980Y-16524140D01*
D11*
X13554519Y-16555624D02*
X13440233Y-16555624D01*
X13497376Y-16555624D02*
X13497376Y-16355624D01*
X13497376Y-16355624D02*
X13478328Y-16384195D01*
X13478328Y-16384195D02*
X13459281Y-16403243D01*
X13459281Y-16403243D02*
X13440233Y-16412767D01*
X13640233Y-16536576D02*
X13649757Y-16546100D01*
X13649757Y-16546100D02*
X13640233Y-16555624D01*
X13640233Y-16555624D02*
X13630709Y-16546100D01*
X13630709Y-16546100D02*
X13640233Y-16536576D01*
X13640233Y-16536576D02*
X13640233Y-16555624D01*
X13725947Y-16374671D02*
X13735471Y-16365148D01*
X13735471Y-16365148D02*
X13754519Y-16355624D01*
X13754519Y-16355624D02*
X13802138Y-16355624D01*
X13802138Y-16355624D02*
X13821185Y-16365148D01*
X13821185Y-16365148D02*
X13830709Y-16374671D01*
X13830709Y-16374671D02*
X13840233Y-16393719D01*
X13840233Y-16393719D02*
X13840233Y-16412767D01*
X13840233Y-16412767D02*
X13830709Y-16441338D01*
X13830709Y-16441338D02*
X13716423Y-16555624D01*
X13716423Y-16555624D02*
X13840233Y-16555624D01*
X13964042Y-16355624D02*
X13983090Y-16355624D01*
X13983090Y-16355624D02*
X14002138Y-16365148D01*
X14002138Y-16365148D02*
X14011662Y-16374671D01*
X14011662Y-16374671D02*
X14021185Y-16393719D01*
X14021185Y-16393719D02*
X14030709Y-16431814D01*
X14030709Y-16431814D02*
X14030709Y-16479433D01*
X14030709Y-16479433D02*
X14021185Y-16517528D01*
X14021185Y-16517528D02*
X14011662Y-16536576D01*
X14011662Y-16536576D02*
X14002138Y-16546100D01*
X14002138Y-16546100D02*
X13983090Y-16555624D01*
X13983090Y-16555624D02*
X13964042Y-16555624D01*
X13964042Y-16555624D02*
X13944995Y-16546100D01*
X13944995Y-16546100D02*
X13935471Y-16536576D01*
X13935471Y-16536576D02*
X13925947Y-16517528D01*
X13925947Y-16517528D02*
X13916423Y-16479433D01*
X13916423Y-16479433D02*
X13916423Y-16431814D01*
X13916423Y-16431814D02*
X13925947Y-16393719D01*
X13925947Y-16393719D02*
X13935471Y-16374671D01*
X13935471Y-16374671D02*
X13944995Y-16365148D01*
X13944995Y-16365148D02*
X13964042Y-16355624D01*
X14154519Y-16355624D02*
X14173566Y-16355624D01*
X14173566Y-16355624D02*
X14192614Y-16365148D01*
X14192614Y-16365148D02*
X14202138Y-16374671D01*
X14202138Y-16374671D02*
X14211662Y-16393719D01*
X14211662Y-16393719D02*
X14221185Y-16431814D01*
X14221185Y-16431814D02*
X14221185Y-16479433D01*
X14221185Y-16479433D02*
X14211662Y-16517528D01*
X14211662Y-16517528D02*
X14202138Y-16536576D01*
X14202138Y-16536576D02*
X14192614Y-16546100D01*
X14192614Y-16546100D02*
X14173566Y-16555624D01*
X14173566Y-16555624D02*
X14154519Y-16555624D01*
X14154519Y-16555624D02*
X14135471Y-16546100D01*
X14135471Y-16546100D02*
X14125947Y-16536576D01*
X14125947Y-16536576D02*
X14116423Y-16517528D01*
X14116423Y-16517528D02*
X14106900Y-16479433D01*
X14106900Y-16479433D02*
X14106900Y-16431814D01*
X14106900Y-16431814D02*
X14116423Y-16393719D01*
X14116423Y-16393719D02*
X14125947Y-16374671D01*
X14125947Y-16374671D02*
X14135471Y-16365148D01*
X14135471Y-16365148D02*
X14154519Y-16355624D01*
X14306900Y-16555624D02*
X14306900Y-16422290D01*
X14306900Y-16441338D02*
X14316423Y-16431814D01*
X14316423Y-16431814D02*
X14335471Y-16422290D01*
X14335471Y-16422290D02*
X14364043Y-16422290D01*
X14364043Y-16422290D02*
X14383090Y-16431814D01*
X14383090Y-16431814D02*
X14392614Y-16450862D01*
X14392614Y-16450862D02*
X14392614Y-16555624D01*
X14392614Y-16450862D02*
X14402138Y-16431814D01*
X14402138Y-16431814D02*
X14421185Y-16422290D01*
X14421185Y-16422290D02*
X14449757Y-16422290D01*
X14449757Y-16422290D02*
X14468804Y-16431814D01*
X14468804Y-16431814D02*
X14478328Y-16450862D01*
X14478328Y-16450862D02*
X14478328Y-16555624D01*
X14573566Y-16555624D02*
X14573566Y-16422290D01*
X14573566Y-16441338D02*
X14583090Y-16431814D01*
X14583090Y-16431814D02*
X14602138Y-16422290D01*
X14602138Y-16422290D02*
X14630709Y-16422290D01*
X14630709Y-16422290D02*
X14649757Y-16431814D01*
X14649757Y-16431814D02*
X14659281Y-16450862D01*
X14659281Y-16450862D02*
X14659281Y-16555624D01*
X14659281Y-16450862D02*
X14668804Y-16431814D01*
X14668804Y-16431814D02*
X14687852Y-16422290D01*
X14687852Y-16422290D02*
X14716423Y-16422290D01*
X14716423Y-16422290D02*
X14735471Y-16431814D01*
X14735471Y-16431814D02*
X14744995Y-16450862D01*
X14744995Y-16450862D02*
X14744995Y-16555624D01*
X15135471Y-16346100D02*
X14964043Y-16603243D01*
X15392614Y-16355624D02*
X15411662Y-16355624D01*
X15411662Y-16355624D02*
X15430709Y-16365148D01*
X15430709Y-16365148D02*
X15440233Y-16374671D01*
X15440233Y-16374671D02*
X15449757Y-16393719D01*
X15449757Y-16393719D02*
X15459281Y-16431814D01*
X15459281Y-16431814D02*
X15459281Y-16479433D01*
X15459281Y-16479433D02*
X15449757Y-16517528D01*
X15449757Y-16517528D02*
X15440233Y-16536576D01*
X15440233Y-16536576D02*
X15430709Y-16546100D01*
X15430709Y-16546100D02*
X15411662Y-16555624D01*
X15411662Y-16555624D02*
X15392614Y-16555624D01*
X15392614Y-16555624D02*
X15373566Y-16546100D01*
X15373566Y-16546100D02*
X15364043Y-16536576D01*
X15364043Y-16536576D02*
X15354519Y-16517528D01*
X15354519Y-16517528D02*
X15344995Y-16479433D01*
X15344995Y-16479433D02*
X15344995Y-16431814D01*
X15344995Y-16431814D02*
X15354519Y-16393719D01*
X15354519Y-16393719D02*
X15364043Y-16374671D01*
X15364043Y-16374671D02*
X15373566Y-16365148D01*
X15373566Y-16365148D02*
X15392614Y-16355624D01*
X15544995Y-16536576D02*
X15554519Y-16546100D01*
X15554519Y-16546100D02*
X15544995Y-16555624D01*
X15544995Y-16555624D02*
X15535471Y-16546100D01*
X15535471Y-16546100D02*
X15544995Y-16536576D01*
X15544995Y-16536576D02*
X15544995Y-16555624D01*
X15678328Y-16355624D02*
X15697376Y-16355624D01*
X15697376Y-16355624D02*
X15716424Y-16365148D01*
X15716424Y-16365148D02*
X15725947Y-16374671D01*
X15725947Y-16374671D02*
X15735471Y-16393719D01*
X15735471Y-16393719D02*
X15744995Y-16431814D01*
X15744995Y-16431814D02*
X15744995Y-16479433D01*
X15744995Y-16479433D02*
X15735471Y-16517528D01*
X15735471Y-16517528D02*
X15725947Y-16536576D01*
X15725947Y-16536576D02*
X15716424Y-16546100D01*
X15716424Y-16546100D02*
X15697376Y-16555624D01*
X15697376Y-16555624D02*
X15678328Y-16555624D01*
X15678328Y-16555624D02*
X15659281Y-16546100D01*
X15659281Y-16546100D02*
X15649757Y-16536576D01*
X15649757Y-16536576D02*
X15640233Y-16517528D01*
X15640233Y-16517528D02*
X15630709Y-16479433D01*
X15630709Y-16479433D02*
X15630709Y-16431814D01*
X15630709Y-16431814D02*
X15640233Y-16393719D01*
X15640233Y-16393719D02*
X15649757Y-16374671D01*
X15649757Y-16374671D02*
X15659281Y-16365148D01*
X15659281Y-16365148D02*
X15678328Y-16355624D01*
X15916424Y-16422290D02*
X15916424Y-16555624D01*
X15868805Y-16346100D02*
X15821186Y-16488957D01*
X15821186Y-16488957D02*
X15944995Y-16488957D01*
X16002138Y-16355624D02*
X16135471Y-16355624D01*
X16135471Y-16355624D02*
X16049757Y-16555624D01*
X16202138Y-16374671D02*
X16211662Y-16365148D01*
X16211662Y-16365148D02*
X16230709Y-16355624D01*
X16230709Y-16355624D02*
X16278328Y-16355624D01*
X16278328Y-16355624D02*
X16297376Y-16365148D01*
X16297376Y-16365148D02*
X16306900Y-16374671D01*
X16306900Y-16374671D02*
X16316424Y-16393719D01*
X16316424Y-16393719D02*
X16316424Y-16412767D01*
X16316424Y-16412767D02*
X16306900Y-16441338D01*
X16306900Y-16441338D02*
X16192614Y-16555624D01*
X16192614Y-16555624D02*
X16316424Y-16555624D01*
X16392614Y-16355624D02*
X16392614Y-16393719D01*
X16468805Y-16355624D02*
X16468805Y-16393719D01*
X16764043Y-16631814D02*
X16754519Y-16622290D01*
X16754519Y-16622290D02*
X16735471Y-16593719D01*
X16735471Y-16593719D02*
X16725948Y-16574671D01*
X16725948Y-16574671D02*
X16716424Y-16546100D01*
X16716424Y-16546100D02*
X16706900Y-16498481D01*
X16706900Y-16498481D02*
X16706900Y-16460386D01*
X16706900Y-16460386D02*
X16716424Y-16412767D01*
X16716424Y-16412767D02*
X16725948Y-16384195D01*
X16725948Y-16384195D02*
X16735471Y-16365148D01*
X16735471Y-16365148D02*
X16754519Y-16336576D01*
X16754519Y-16336576D02*
X16764043Y-16327052D01*
X16925948Y-16355624D02*
X16887852Y-16355624D01*
X16887852Y-16355624D02*
X16868805Y-16365148D01*
X16868805Y-16365148D02*
X16859281Y-16374671D01*
X16859281Y-16374671D02*
X16840233Y-16403243D01*
X16840233Y-16403243D02*
X16830710Y-16441338D01*
X16830710Y-16441338D02*
X16830710Y-16517528D01*
X16830710Y-16517528D02*
X16840233Y-16536576D01*
X16840233Y-16536576D02*
X16849757Y-16546100D01*
X16849757Y-16546100D02*
X16868805Y-16555624D01*
X16868805Y-16555624D02*
X16906900Y-16555624D01*
X16906900Y-16555624D02*
X16925948Y-16546100D01*
X16925948Y-16546100D02*
X16935471Y-16536576D01*
X16935471Y-16536576D02*
X16944995Y-16517528D01*
X16944995Y-16517528D02*
X16944995Y-16469909D01*
X16944995Y-16469909D02*
X16935471Y-16450862D01*
X16935471Y-16450862D02*
X16925948Y-16441338D01*
X16925948Y-16441338D02*
X16906900Y-16431814D01*
X16906900Y-16431814D02*
X16868805Y-16431814D01*
X16868805Y-16431814D02*
X16849757Y-16441338D01*
X16849757Y-16441338D02*
X16840233Y-16450862D01*
X16840233Y-16450862D02*
X16830710Y-16469909D01*
X17183091Y-16555624D02*
X17183091Y-16355624D01*
X17268805Y-16555624D02*
X17268805Y-16450862D01*
X17268805Y-16450862D02*
X17259281Y-16431814D01*
X17259281Y-16431814D02*
X17240233Y-16422290D01*
X17240233Y-16422290D02*
X17211662Y-16422290D01*
X17211662Y-16422290D02*
X17192614Y-16431814D01*
X17192614Y-16431814D02*
X17183091Y-16441338D01*
X17392614Y-16555624D02*
X17373567Y-16546100D01*
X17373567Y-16546100D02*
X17364043Y-16536576D01*
X17364043Y-16536576D02*
X17354519Y-16517528D01*
X17354519Y-16517528D02*
X17354519Y-16460386D01*
X17354519Y-16460386D02*
X17364043Y-16441338D01*
X17364043Y-16441338D02*
X17373567Y-16431814D01*
X17373567Y-16431814D02*
X17392614Y-16422290D01*
X17392614Y-16422290D02*
X17421186Y-16422290D01*
X17421186Y-16422290D02*
X17440233Y-16431814D01*
X17440233Y-16431814D02*
X17449757Y-16441338D01*
X17449757Y-16441338D02*
X17459281Y-16460386D01*
X17459281Y-16460386D02*
X17459281Y-16517528D01*
X17459281Y-16517528D02*
X17449757Y-16536576D01*
X17449757Y-16536576D02*
X17440233Y-16546100D01*
X17440233Y-16546100D02*
X17421186Y-16555624D01*
X17421186Y-16555624D02*
X17392614Y-16555624D01*
X17573567Y-16555624D02*
X17554519Y-16546100D01*
X17554519Y-16546100D02*
X17544995Y-16527052D01*
X17544995Y-16527052D02*
X17544995Y-16355624D01*
X17725948Y-16546100D02*
X17706900Y-16555624D01*
X17706900Y-16555624D02*
X17668805Y-16555624D01*
X17668805Y-16555624D02*
X17649757Y-16546100D01*
X17649757Y-16546100D02*
X17640233Y-16527052D01*
X17640233Y-16527052D02*
X17640233Y-16450862D01*
X17640233Y-16450862D02*
X17649757Y-16431814D01*
X17649757Y-16431814D02*
X17668805Y-16422290D01*
X17668805Y-16422290D02*
X17706900Y-16422290D01*
X17706900Y-16422290D02*
X17725948Y-16431814D01*
X17725948Y-16431814D02*
X17735472Y-16450862D01*
X17735472Y-16450862D02*
X17735472Y-16469909D01*
X17735472Y-16469909D02*
X17640233Y-16488957D01*
X17811662Y-16546100D02*
X17830710Y-16555624D01*
X17830710Y-16555624D02*
X17868805Y-16555624D01*
X17868805Y-16555624D02*
X17887853Y-16546100D01*
X17887853Y-16546100D02*
X17897376Y-16527052D01*
X17897376Y-16527052D02*
X17897376Y-16517528D01*
X17897376Y-16517528D02*
X17887853Y-16498481D01*
X17887853Y-16498481D02*
X17868805Y-16488957D01*
X17868805Y-16488957D02*
X17840233Y-16488957D01*
X17840233Y-16488957D02*
X17821186Y-16479433D01*
X17821186Y-16479433D02*
X17811662Y-16460386D01*
X17811662Y-16460386D02*
X17811662Y-16450862D01*
X17811662Y-16450862D02*
X17821186Y-16431814D01*
X17821186Y-16431814D02*
X17840233Y-16422290D01*
X17840233Y-16422290D02*
X17868805Y-16422290D01*
X17868805Y-16422290D02*
X17887853Y-16431814D01*
X17964043Y-16631814D02*
X17973567Y-16622290D01*
X17973567Y-16622290D02*
X17992614Y-16593719D01*
X17992614Y-16593719D02*
X18002138Y-16574671D01*
X18002138Y-16574671D02*
X18011662Y-16546100D01*
X18011662Y-16546100D02*
X18021186Y-16498481D01*
X18021186Y-16498481D02*
X18021186Y-16460386D01*
X18021186Y-16460386D02*
X18011662Y-16412767D01*
X18011662Y-16412767D02*
X18002138Y-16384195D01*
X18002138Y-16384195D02*
X17992614Y-16365148D01*
X17992614Y-16365148D02*
X17973567Y-16336576D01*
X17973567Y-16336576D02*
X17964043Y-16327052D01*
D14*
X13123980Y-16663140D02*
X13123980Y-16793140D01*
X13058980Y-16728140D02*
X13188980Y-16728140D01*
X13188980Y-16728140D02*
G75*
G02*
X13058980Y-16728140I-65000J0D01*
G01*
X13058980Y-16728140D02*
G75*
G02*
X13188980Y-16728140I65000J0D01*
G01*
D11*
X13554519Y-16819624D02*
X13440233Y-16819624D01*
X13497376Y-16819624D02*
X13497376Y-16619624D01*
X13497376Y-16619624D02*
X13478328Y-16648195D01*
X13478328Y-16648195D02*
X13459281Y-16667243D01*
X13459281Y-16667243D02*
X13440233Y-16676767D01*
X13640233Y-16800576D02*
X13649757Y-16810100D01*
X13649757Y-16810100D02*
X13640233Y-16819624D01*
X13640233Y-16819624D02*
X13630709Y-16810100D01*
X13630709Y-16810100D02*
X13640233Y-16800576D01*
X13640233Y-16800576D02*
X13640233Y-16819624D01*
X13716423Y-16619624D02*
X13840233Y-16619624D01*
X13840233Y-16619624D02*
X13773566Y-16695814D01*
X13773566Y-16695814D02*
X13802138Y-16695814D01*
X13802138Y-16695814D02*
X13821185Y-16705338D01*
X13821185Y-16705338D02*
X13830709Y-16714862D01*
X13830709Y-16714862D02*
X13840233Y-16733909D01*
X13840233Y-16733909D02*
X13840233Y-16781529D01*
X13840233Y-16781529D02*
X13830709Y-16800576D01*
X13830709Y-16800576D02*
X13821185Y-16810100D01*
X13821185Y-16810100D02*
X13802138Y-16819624D01*
X13802138Y-16819624D02*
X13744995Y-16819624D01*
X13744995Y-16819624D02*
X13725947Y-16810100D01*
X13725947Y-16810100D02*
X13716423Y-16800576D01*
X13964042Y-16619624D02*
X13983090Y-16619624D01*
X13983090Y-16619624D02*
X14002138Y-16629148D01*
X14002138Y-16629148D02*
X14011662Y-16638671D01*
X14011662Y-16638671D02*
X14021185Y-16657719D01*
X14021185Y-16657719D02*
X14030709Y-16695814D01*
X14030709Y-16695814D02*
X14030709Y-16743433D01*
X14030709Y-16743433D02*
X14021185Y-16781529D01*
X14021185Y-16781529D02*
X14011662Y-16800576D01*
X14011662Y-16800576D02*
X14002138Y-16810100D01*
X14002138Y-16810100D02*
X13983090Y-16819624D01*
X13983090Y-16819624D02*
X13964042Y-16819624D01*
X13964042Y-16819624D02*
X13944995Y-16810100D01*
X13944995Y-16810100D02*
X13935471Y-16800576D01*
X13935471Y-16800576D02*
X13925947Y-16781529D01*
X13925947Y-16781529D02*
X13916423Y-16743433D01*
X13916423Y-16743433D02*
X13916423Y-16695814D01*
X13916423Y-16695814D02*
X13925947Y-16657719D01*
X13925947Y-16657719D02*
X13935471Y-16638671D01*
X13935471Y-16638671D02*
X13944995Y-16629148D01*
X13944995Y-16629148D02*
X13964042Y-16619624D01*
X14154519Y-16619624D02*
X14173566Y-16619624D01*
X14173566Y-16619624D02*
X14192614Y-16629148D01*
X14192614Y-16629148D02*
X14202138Y-16638671D01*
X14202138Y-16638671D02*
X14211662Y-16657719D01*
X14211662Y-16657719D02*
X14221185Y-16695814D01*
X14221185Y-16695814D02*
X14221185Y-16743433D01*
X14221185Y-16743433D02*
X14211662Y-16781529D01*
X14211662Y-16781529D02*
X14202138Y-16800576D01*
X14202138Y-16800576D02*
X14192614Y-16810100D01*
X14192614Y-16810100D02*
X14173566Y-16819624D01*
X14173566Y-16819624D02*
X14154519Y-16819624D01*
X14154519Y-16819624D02*
X14135471Y-16810100D01*
X14135471Y-16810100D02*
X14125947Y-16800576D01*
X14125947Y-16800576D02*
X14116423Y-16781529D01*
X14116423Y-16781529D02*
X14106900Y-16743433D01*
X14106900Y-16743433D02*
X14106900Y-16695814D01*
X14106900Y-16695814D02*
X14116423Y-16657719D01*
X14116423Y-16657719D02*
X14125947Y-16638671D01*
X14125947Y-16638671D02*
X14135471Y-16629148D01*
X14135471Y-16629148D02*
X14154519Y-16619624D01*
X14306900Y-16819624D02*
X14306900Y-16686290D01*
X14306900Y-16705338D02*
X14316423Y-16695814D01*
X14316423Y-16695814D02*
X14335471Y-16686290D01*
X14335471Y-16686290D02*
X14364043Y-16686290D01*
X14364043Y-16686290D02*
X14383090Y-16695814D01*
X14383090Y-16695814D02*
X14392614Y-16714862D01*
X14392614Y-16714862D02*
X14392614Y-16819624D01*
X14392614Y-16714862D02*
X14402138Y-16695814D01*
X14402138Y-16695814D02*
X14421185Y-16686290D01*
X14421185Y-16686290D02*
X14449757Y-16686290D01*
X14449757Y-16686290D02*
X14468804Y-16695814D01*
X14468804Y-16695814D02*
X14478328Y-16714862D01*
X14478328Y-16714862D02*
X14478328Y-16819624D01*
X14573566Y-16819624D02*
X14573566Y-16686290D01*
X14573566Y-16705338D02*
X14583090Y-16695814D01*
X14583090Y-16695814D02*
X14602138Y-16686290D01*
X14602138Y-16686290D02*
X14630709Y-16686290D01*
X14630709Y-16686290D02*
X14649757Y-16695814D01*
X14649757Y-16695814D02*
X14659281Y-16714862D01*
X14659281Y-16714862D02*
X14659281Y-16819624D01*
X14659281Y-16714862D02*
X14668804Y-16695814D01*
X14668804Y-16695814D02*
X14687852Y-16686290D01*
X14687852Y-16686290D02*
X14716423Y-16686290D01*
X14716423Y-16686290D02*
X14735471Y-16695814D01*
X14735471Y-16695814D02*
X14744995Y-16714862D01*
X14744995Y-16714862D02*
X14744995Y-16819624D01*
X15135471Y-16610100D02*
X14964043Y-16867243D01*
X15392614Y-16619624D02*
X15411662Y-16619624D01*
X15411662Y-16619624D02*
X15430709Y-16629148D01*
X15430709Y-16629148D02*
X15440233Y-16638671D01*
X15440233Y-16638671D02*
X15449757Y-16657719D01*
X15449757Y-16657719D02*
X15459281Y-16695814D01*
X15459281Y-16695814D02*
X15459281Y-16743433D01*
X15459281Y-16743433D02*
X15449757Y-16781529D01*
X15449757Y-16781529D02*
X15440233Y-16800576D01*
X15440233Y-16800576D02*
X15430709Y-16810100D01*
X15430709Y-16810100D02*
X15411662Y-16819624D01*
X15411662Y-16819624D02*
X15392614Y-16819624D01*
X15392614Y-16819624D02*
X15373566Y-16810100D01*
X15373566Y-16810100D02*
X15364043Y-16800576D01*
X15364043Y-16800576D02*
X15354519Y-16781529D01*
X15354519Y-16781529D02*
X15344995Y-16743433D01*
X15344995Y-16743433D02*
X15344995Y-16695814D01*
X15344995Y-16695814D02*
X15354519Y-16657719D01*
X15354519Y-16657719D02*
X15364043Y-16638671D01*
X15364043Y-16638671D02*
X15373566Y-16629148D01*
X15373566Y-16629148D02*
X15392614Y-16619624D01*
X15544995Y-16800576D02*
X15554519Y-16810100D01*
X15554519Y-16810100D02*
X15544995Y-16819624D01*
X15544995Y-16819624D02*
X15535471Y-16810100D01*
X15535471Y-16810100D02*
X15544995Y-16800576D01*
X15544995Y-16800576D02*
X15544995Y-16819624D01*
X15678328Y-16619624D02*
X15697376Y-16619624D01*
X15697376Y-16619624D02*
X15716424Y-16629148D01*
X15716424Y-16629148D02*
X15725947Y-16638671D01*
X15725947Y-16638671D02*
X15735471Y-16657719D01*
X15735471Y-16657719D02*
X15744995Y-16695814D01*
X15744995Y-16695814D02*
X15744995Y-16743433D01*
X15744995Y-16743433D02*
X15735471Y-16781529D01*
X15735471Y-16781529D02*
X15725947Y-16800576D01*
X15725947Y-16800576D02*
X15716424Y-16810100D01*
X15716424Y-16810100D02*
X15697376Y-16819624D01*
X15697376Y-16819624D02*
X15678328Y-16819624D01*
X15678328Y-16819624D02*
X15659281Y-16810100D01*
X15659281Y-16810100D02*
X15649757Y-16800576D01*
X15649757Y-16800576D02*
X15640233Y-16781529D01*
X15640233Y-16781529D02*
X15630709Y-16743433D01*
X15630709Y-16743433D02*
X15630709Y-16695814D01*
X15630709Y-16695814D02*
X15640233Y-16657719D01*
X15640233Y-16657719D02*
X15649757Y-16638671D01*
X15649757Y-16638671D02*
X15659281Y-16629148D01*
X15659281Y-16629148D02*
X15678328Y-16619624D01*
X15925947Y-16619624D02*
X15830709Y-16619624D01*
X15830709Y-16619624D02*
X15821186Y-16714862D01*
X15821186Y-16714862D02*
X15830709Y-16705338D01*
X15830709Y-16705338D02*
X15849757Y-16695814D01*
X15849757Y-16695814D02*
X15897376Y-16695814D01*
X15897376Y-16695814D02*
X15916424Y-16705338D01*
X15916424Y-16705338D02*
X15925947Y-16714862D01*
X15925947Y-16714862D02*
X15935471Y-16733909D01*
X15935471Y-16733909D02*
X15935471Y-16781529D01*
X15935471Y-16781529D02*
X15925947Y-16800576D01*
X15925947Y-16800576D02*
X15916424Y-16810100D01*
X15916424Y-16810100D02*
X15897376Y-16819624D01*
X15897376Y-16819624D02*
X15849757Y-16819624D01*
X15849757Y-16819624D02*
X15830709Y-16810100D01*
X15830709Y-16810100D02*
X15821186Y-16800576D01*
X16125947Y-16819624D02*
X16011662Y-16819624D01*
X16068805Y-16819624D02*
X16068805Y-16619624D01*
X16068805Y-16619624D02*
X16049757Y-16648195D01*
X16049757Y-16648195D02*
X16030709Y-16667243D01*
X16030709Y-16667243D02*
X16011662Y-16676767D01*
X16202138Y-16638671D02*
X16211662Y-16629148D01*
X16211662Y-16629148D02*
X16230709Y-16619624D01*
X16230709Y-16619624D02*
X16278328Y-16619624D01*
X16278328Y-16619624D02*
X16297376Y-16629148D01*
X16297376Y-16629148D02*
X16306900Y-16638671D01*
X16306900Y-16638671D02*
X16316424Y-16657719D01*
X16316424Y-16657719D02*
X16316424Y-16676767D01*
X16316424Y-16676767D02*
X16306900Y-16705338D01*
X16306900Y-16705338D02*
X16192614Y-16819624D01*
X16192614Y-16819624D02*
X16316424Y-16819624D01*
X16392614Y-16619624D02*
X16392614Y-16657719D01*
X16468805Y-16619624D02*
X16468805Y-16657719D01*
X16764043Y-16895814D02*
X16754519Y-16886290D01*
X16754519Y-16886290D02*
X16735471Y-16857719D01*
X16735471Y-16857719D02*
X16725948Y-16838671D01*
X16725948Y-16838671D02*
X16716424Y-16810100D01*
X16716424Y-16810100D02*
X16706900Y-16762481D01*
X16706900Y-16762481D02*
X16706900Y-16724386D01*
X16706900Y-16724386D02*
X16716424Y-16676767D01*
X16716424Y-16676767D02*
X16725948Y-16648195D01*
X16725948Y-16648195D02*
X16735471Y-16629148D01*
X16735471Y-16629148D02*
X16754519Y-16600576D01*
X16754519Y-16600576D02*
X16764043Y-16591052D01*
X16830710Y-16638671D02*
X16840233Y-16629148D01*
X16840233Y-16629148D02*
X16859281Y-16619624D01*
X16859281Y-16619624D02*
X16906900Y-16619624D01*
X16906900Y-16619624D02*
X16925948Y-16629148D01*
X16925948Y-16629148D02*
X16935471Y-16638671D01*
X16935471Y-16638671D02*
X16944995Y-16657719D01*
X16944995Y-16657719D02*
X16944995Y-16676767D01*
X16944995Y-16676767D02*
X16935471Y-16705338D01*
X16935471Y-16705338D02*
X16821186Y-16819624D01*
X16821186Y-16819624D02*
X16944995Y-16819624D01*
X17183091Y-16819624D02*
X17183091Y-16619624D01*
X17268805Y-16819624D02*
X17268805Y-16714862D01*
X17268805Y-16714862D02*
X17259281Y-16695814D01*
X17259281Y-16695814D02*
X17240233Y-16686290D01*
X17240233Y-16686290D02*
X17211662Y-16686290D01*
X17211662Y-16686290D02*
X17192614Y-16695814D01*
X17192614Y-16695814D02*
X17183091Y-16705338D01*
X17392614Y-16819624D02*
X17373567Y-16810100D01*
X17373567Y-16810100D02*
X17364043Y-16800576D01*
X17364043Y-16800576D02*
X17354519Y-16781529D01*
X17354519Y-16781529D02*
X17354519Y-16724386D01*
X17354519Y-16724386D02*
X17364043Y-16705338D01*
X17364043Y-16705338D02*
X17373567Y-16695814D01*
X17373567Y-16695814D02*
X17392614Y-16686290D01*
X17392614Y-16686290D02*
X17421186Y-16686290D01*
X17421186Y-16686290D02*
X17440233Y-16695814D01*
X17440233Y-16695814D02*
X17449757Y-16705338D01*
X17449757Y-16705338D02*
X17459281Y-16724386D01*
X17459281Y-16724386D02*
X17459281Y-16781529D01*
X17459281Y-16781529D02*
X17449757Y-16800576D01*
X17449757Y-16800576D02*
X17440233Y-16810100D01*
X17440233Y-16810100D02*
X17421186Y-16819624D01*
X17421186Y-16819624D02*
X17392614Y-16819624D01*
X17573567Y-16819624D02*
X17554519Y-16810100D01*
X17554519Y-16810100D02*
X17544995Y-16791052D01*
X17544995Y-16791052D02*
X17544995Y-16619624D01*
X17725948Y-16810100D02*
X17706900Y-16819624D01*
X17706900Y-16819624D02*
X17668805Y-16819624D01*
X17668805Y-16819624D02*
X17649757Y-16810100D01*
X17649757Y-16810100D02*
X17640233Y-16791052D01*
X17640233Y-16791052D02*
X17640233Y-16714862D01*
X17640233Y-16714862D02*
X17649757Y-16695814D01*
X17649757Y-16695814D02*
X17668805Y-16686290D01*
X17668805Y-16686290D02*
X17706900Y-16686290D01*
X17706900Y-16686290D02*
X17725948Y-16695814D01*
X17725948Y-16695814D02*
X17735472Y-16714862D01*
X17735472Y-16714862D02*
X17735472Y-16733909D01*
X17735472Y-16733909D02*
X17640233Y-16752957D01*
X17811662Y-16810100D02*
X17830710Y-16819624D01*
X17830710Y-16819624D02*
X17868805Y-16819624D01*
X17868805Y-16819624D02*
X17887853Y-16810100D01*
X17887853Y-16810100D02*
X17897376Y-16791052D01*
X17897376Y-16791052D02*
X17897376Y-16781529D01*
X17897376Y-16781529D02*
X17887853Y-16762481D01*
X17887853Y-16762481D02*
X17868805Y-16752957D01*
X17868805Y-16752957D02*
X17840233Y-16752957D01*
X17840233Y-16752957D02*
X17821186Y-16743433D01*
X17821186Y-16743433D02*
X17811662Y-16724386D01*
X17811662Y-16724386D02*
X17811662Y-16714862D01*
X17811662Y-16714862D02*
X17821186Y-16695814D01*
X17821186Y-16695814D02*
X17840233Y-16686290D01*
X17840233Y-16686290D02*
X17868805Y-16686290D01*
X17868805Y-16686290D02*
X17887853Y-16695814D01*
X17964043Y-16895814D02*
X17973567Y-16886290D01*
X17973567Y-16886290D02*
X17992614Y-16857719D01*
X17992614Y-16857719D02*
X18002138Y-16838671D01*
X18002138Y-16838671D02*
X18011662Y-16810100D01*
X18011662Y-16810100D02*
X18021186Y-16762481D01*
X18021186Y-16762481D02*
X18021186Y-16724386D01*
X18021186Y-16724386D02*
X18011662Y-16676767D01*
X18011662Y-16676767D02*
X18002138Y-16648195D01*
X18002138Y-16648195D02*
X17992614Y-16629148D01*
X17992614Y-16629148D02*
X17973567Y-16600576D01*
X17973567Y-16600576D02*
X17964043Y-16591052D01*
D15*
X13167013Y-17045174D02*
X13167013Y-16939107D01*
X13060946Y-16939107D01*
X13060946Y-17045174D01*
X13167013Y-17045174D01*
X13188980Y-16992140D02*
G75*
G02*
X13038980Y-16992140I-75000J0D01*
G01*
X13038980Y-16992140D02*
G75*
G02*
X13188980Y-16992140I75000J0D01*
G01*
D11*
X13554519Y-17083624D02*
X13440233Y-17083624D01*
X13497376Y-17083624D02*
X13497376Y-16883624D01*
X13497376Y-16883624D02*
X13478328Y-16912195D01*
X13478328Y-16912195D02*
X13459281Y-16931243D01*
X13459281Y-16931243D02*
X13440233Y-16940767D01*
X13640233Y-17064576D02*
X13649757Y-17074100D01*
X13649757Y-17074100D02*
X13640233Y-17083624D01*
X13640233Y-17083624D02*
X13630709Y-17074100D01*
X13630709Y-17074100D02*
X13640233Y-17064576D01*
X13640233Y-17064576D02*
X13640233Y-17083624D01*
X13830709Y-16883624D02*
X13735471Y-16883624D01*
X13735471Y-16883624D02*
X13725947Y-16978862D01*
X13725947Y-16978862D02*
X13735471Y-16969338D01*
X13735471Y-16969338D02*
X13754519Y-16959814D01*
X13754519Y-16959814D02*
X13802138Y-16959814D01*
X13802138Y-16959814D02*
X13821185Y-16969338D01*
X13821185Y-16969338D02*
X13830709Y-16978862D01*
X13830709Y-16978862D02*
X13840233Y-16997910D01*
X13840233Y-16997910D02*
X13840233Y-17045529D01*
X13840233Y-17045529D02*
X13830709Y-17064576D01*
X13830709Y-17064576D02*
X13821185Y-17074100D01*
X13821185Y-17074100D02*
X13802138Y-17083624D01*
X13802138Y-17083624D02*
X13754519Y-17083624D01*
X13754519Y-17083624D02*
X13735471Y-17074100D01*
X13735471Y-17074100D02*
X13725947Y-17064576D01*
X13964042Y-16883624D02*
X13983090Y-16883624D01*
X13983090Y-16883624D02*
X14002138Y-16893148D01*
X14002138Y-16893148D02*
X14011662Y-16902671D01*
X14011662Y-16902671D02*
X14021185Y-16921719D01*
X14021185Y-16921719D02*
X14030709Y-16959814D01*
X14030709Y-16959814D02*
X14030709Y-17007433D01*
X14030709Y-17007433D02*
X14021185Y-17045529D01*
X14021185Y-17045529D02*
X14011662Y-17064576D01*
X14011662Y-17064576D02*
X14002138Y-17074100D01*
X14002138Y-17074100D02*
X13983090Y-17083624D01*
X13983090Y-17083624D02*
X13964042Y-17083624D01*
X13964042Y-17083624D02*
X13944995Y-17074100D01*
X13944995Y-17074100D02*
X13935471Y-17064576D01*
X13935471Y-17064576D02*
X13925947Y-17045529D01*
X13925947Y-17045529D02*
X13916423Y-17007433D01*
X13916423Y-17007433D02*
X13916423Y-16959814D01*
X13916423Y-16959814D02*
X13925947Y-16921719D01*
X13925947Y-16921719D02*
X13935471Y-16902671D01*
X13935471Y-16902671D02*
X13944995Y-16893148D01*
X13944995Y-16893148D02*
X13964042Y-16883624D01*
X14154519Y-16883624D02*
X14173566Y-16883624D01*
X14173566Y-16883624D02*
X14192614Y-16893148D01*
X14192614Y-16893148D02*
X14202138Y-16902671D01*
X14202138Y-16902671D02*
X14211662Y-16921719D01*
X14211662Y-16921719D02*
X14221185Y-16959814D01*
X14221185Y-16959814D02*
X14221185Y-17007433D01*
X14221185Y-17007433D02*
X14211662Y-17045529D01*
X14211662Y-17045529D02*
X14202138Y-17064576D01*
X14202138Y-17064576D02*
X14192614Y-17074100D01*
X14192614Y-17074100D02*
X14173566Y-17083624D01*
X14173566Y-17083624D02*
X14154519Y-17083624D01*
X14154519Y-17083624D02*
X14135471Y-17074100D01*
X14135471Y-17074100D02*
X14125947Y-17064576D01*
X14125947Y-17064576D02*
X14116423Y-17045529D01*
X14116423Y-17045529D02*
X14106900Y-17007433D01*
X14106900Y-17007433D02*
X14106900Y-16959814D01*
X14106900Y-16959814D02*
X14116423Y-16921719D01*
X14116423Y-16921719D02*
X14125947Y-16902671D01*
X14125947Y-16902671D02*
X14135471Y-16893148D01*
X14135471Y-16893148D02*
X14154519Y-16883624D01*
X14306900Y-17083624D02*
X14306900Y-16950290D01*
X14306900Y-16969338D02*
X14316423Y-16959814D01*
X14316423Y-16959814D02*
X14335471Y-16950290D01*
X14335471Y-16950290D02*
X14364043Y-16950290D01*
X14364043Y-16950290D02*
X14383090Y-16959814D01*
X14383090Y-16959814D02*
X14392614Y-16978862D01*
X14392614Y-16978862D02*
X14392614Y-17083624D01*
X14392614Y-16978862D02*
X14402138Y-16959814D01*
X14402138Y-16959814D02*
X14421185Y-16950290D01*
X14421185Y-16950290D02*
X14449757Y-16950290D01*
X14449757Y-16950290D02*
X14468804Y-16959814D01*
X14468804Y-16959814D02*
X14478328Y-16978862D01*
X14478328Y-16978862D02*
X14478328Y-17083624D01*
X14573566Y-17083624D02*
X14573566Y-16950290D01*
X14573566Y-16969338D02*
X14583090Y-16959814D01*
X14583090Y-16959814D02*
X14602138Y-16950290D01*
X14602138Y-16950290D02*
X14630709Y-16950290D01*
X14630709Y-16950290D02*
X14649757Y-16959814D01*
X14649757Y-16959814D02*
X14659281Y-16978862D01*
X14659281Y-16978862D02*
X14659281Y-17083624D01*
X14659281Y-16978862D02*
X14668804Y-16959814D01*
X14668804Y-16959814D02*
X14687852Y-16950290D01*
X14687852Y-16950290D02*
X14716423Y-16950290D01*
X14716423Y-16950290D02*
X14735471Y-16959814D01*
X14735471Y-16959814D02*
X14744995Y-16978862D01*
X14744995Y-16978862D02*
X14744995Y-17083624D01*
X15135471Y-16874100D02*
X14964043Y-17131243D01*
X15392614Y-16883624D02*
X15411662Y-16883624D01*
X15411662Y-16883624D02*
X15430709Y-16893148D01*
X15430709Y-16893148D02*
X15440233Y-16902671D01*
X15440233Y-16902671D02*
X15449757Y-16921719D01*
X15449757Y-16921719D02*
X15459281Y-16959814D01*
X15459281Y-16959814D02*
X15459281Y-17007433D01*
X15459281Y-17007433D02*
X15449757Y-17045529D01*
X15449757Y-17045529D02*
X15440233Y-17064576D01*
X15440233Y-17064576D02*
X15430709Y-17074100D01*
X15430709Y-17074100D02*
X15411662Y-17083624D01*
X15411662Y-17083624D02*
X15392614Y-17083624D01*
X15392614Y-17083624D02*
X15373566Y-17074100D01*
X15373566Y-17074100D02*
X15364043Y-17064576D01*
X15364043Y-17064576D02*
X15354519Y-17045529D01*
X15354519Y-17045529D02*
X15344995Y-17007433D01*
X15344995Y-17007433D02*
X15344995Y-16959814D01*
X15344995Y-16959814D02*
X15354519Y-16921719D01*
X15354519Y-16921719D02*
X15364043Y-16902671D01*
X15364043Y-16902671D02*
X15373566Y-16893148D01*
X15373566Y-16893148D02*
X15392614Y-16883624D01*
X15544995Y-17064576D02*
X15554519Y-17074100D01*
X15554519Y-17074100D02*
X15544995Y-17083624D01*
X15544995Y-17083624D02*
X15535471Y-17074100D01*
X15535471Y-17074100D02*
X15544995Y-17064576D01*
X15544995Y-17064576D02*
X15544995Y-17083624D01*
X15678328Y-16883624D02*
X15697376Y-16883624D01*
X15697376Y-16883624D02*
X15716424Y-16893148D01*
X15716424Y-16893148D02*
X15725947Y-16902671D01*
X15725947Y-16902671D02*
X15735471Y-16921719D01*
X15735471Y-16921719D02*
X15744995Y-16959814D01*
X15744995Y-16959814D02*
X15744995Y-17007433D01*
X15744995Y-17007433D02*
X15735471Y-17045529D01*
X15735471Y-17045529D02*
X15725947Y-17064576D01*
X15725947Y-17064576D02*
X15716424Y-17074100D01*
X15716424Y-17074100D02*
X15697376Y-17083624D01*
X15697376Y-17083624D02*
X15678328Y-17083624D01*
X15678328Y-17083624D02*
X15659281Y-17074100D01*
X15659281Y-17074100D02*
X15649757Y-17064576D01*
X15649757Y-17064576D02*
X15640233Y-17045529D01*
X15640233Y-17045529D02*
X15630709Y-17007433D01*
X15630709Y-17007433D02*
X15630709Y-16959814D01*
X15630709Y-16959814D02*
X15640233Y-16921719D01*
X15640233Y-16921719D02*
X15649757Y-16902671D01*
X15649757Y-16902671D02*
X15659281Y-16893148D01*
X15659281Y-16893148D02*
X15678328Y-16883624D01*
X15925947Y-16883624D02*
X15830709Y-16883624D01*
X15830709Y-16883624D02*
X15821186Y-16978862D01*
X15821186Y-16978862D02*
X15830709Y-16969338D01*
X15830709Y-16969338D02*
X15849757Y-16959814D01*
X15849757Y-16959814D02*
X15897376Y-16959814D01*
X15897376Y-16959814D02*
X15916424Y-16969338D01*
X15916424Y-16969338D02*
X15925947Y-16978862D01*
X15925947Y-16978862D02*
X15935471Y-16997910D01*
X15935471Y-16997910D02*
X15935471Y-17045529D01*
X15935471Y-17045529D02*
X15925947Y-17064576D01*
X15925947Y-17064576D02*
X15916424Y-17074100D01*
X15916424Y-17074100D02*
X15897376Y-17083624D01*
X15897376Y-17083624D02*
X15849757Y-17083624D01*
X15849757Y-17083624D02*
X15830709Y-17074100D01*
X15830709Y-17074100D02*
X15821186Y-17064576D01*
X16030709Y-17083624D02*
X16068805Y-17083624D01*
X16068805Y-17083624D02*
X16087852Y-17074100D01*
X16087852Y-17074100D02*
X16097376Y-17064576D01*
X16097376Y-17064576D02*
X16116424Y-17036005D01*
X16116424Y-17036005D02*
X16125947Y-16997910D01*
X16125947Y-16997910D02*
X16125947Y-16921719D01*
X16125947Y-16921719D02*
X16116424Y-16902671D01*
X16116424Y-16902671D02*
X16106900Y-16893148D01*
X16106900Y-16893148D02*
X16087852Y-16883624D01*
X16087852Y-16883624D02*
X16049757Y-16883624D01*
X16049757Y-16883624D02*
X16030709Y-16893148D01*
X16030709Y-16893148D02*
X16021186Y-16902671D01*
X16021186Y-16902671D02*
X16011662Y-16921719D01*
X16011662Y-16921719D02*
X16011662Y-16969338D01*
X16011662Y-16969338D02*
X16021186Y-16988386D01*
X16021186Y-16988386D02*
X16030709Y-16997910D01*
X16030709Y-16997910D02*
X16049757Y-17007433D01*
X16049757Y-17007433D02*
X16087852Y-17007433D01*
X16087852Y-17007433D02*
X16106900Y-16997910D01*
X16106900Y-16997910D02*
X16116424Y-16988386D01*
X16116424Y-16988386D02*
X16125947Y-16969338D01*
X16316424Y-17083624D02*
X16202138Y-17083624D01*
X16259281Y-17083624D02*
X16259281Y-16883624D01*
X16259281Y-16883624D02*
X16240233Y-16912195D01*
X16240233Y-16912195D02*
X16221186Y-16931243D01*
X16221186Y-16931243D02*
X16202138Y-16940767D01*
X16392614Y-16883624D02*
X16392614Y-16921719D01*
X16468805Y-16883624D02*
X16468805Y-16921719D01*
X16764043Y-17159814D02*
X16754519Y-17150290D01*
X16754519Y-17150290D02*
X16735471Y-17121719D01*
X16735471Y-17121719D02*
X16725948Y-17102671D01*
X16725948Y-17102671D02*
X16716424Y-17074100D01*
X16716424Y-17074100D02*
X16706900Y-17026481D01*
X16706900Y-17026481D02*
X16706900Y-16988386D01*
X16706900Y-16988386D02*
X16716424Y-16940767D01*
X16716424Y-16940767D02*
X16725948Y-16912195D01*
X16725948Y-16912195D02*
X16735471Y-16893148D01*
X16735471Y-16893148D02*
X16754519Y-16864576D01*
X16754519Y-16864576D02*
X16764043Y-16855052D01*
X16935471Y-16883624D02*
X16840233Y-16883624D01*
X16840233Y-16883624D02*
X16830710Y-16978862D01*
X16830710Y-16978862D02*
X16840233Y-16969338D01*
X16840233Y-16969338D02*
X16859281Y-16959814D01*
X16859281Y-16959814D02*
X16906900Y-16959814D01*
X16906900Y-16959814D02*
X16925948Y-16969338D01*
X16925948Y-16969338D02*
X16935471Y-16978862D01*
X16935471Y-16978862D02*
X16944995Y-16997910D01*
X16944995Y-16997910D02*
X16944995Y-17045529D01*
X16944995Y-17045529D02*
X16935471Y-17064576D01*
X16935471Y-17064576D02*
X16925948Y-17074100D01*
X16925948Y-17074100D02*
X16906900Y-17083624D01*
X16906900Y-17083624D02*
X16859281Y-17083624D01*
X16859281Y-17083624D02*
X16840233Y-17074100D01*
X16840233Y-17074100D02*
X16830710Y-17064576D01*
X17183091Y-17083624D02*
X17183091Y-16883624D01*
X17268805Y-17083624D02*
X17268805Y-16978862D01*
X17268805Y-16978862D02*
X17259281Y-16959814D01*
X17259281Y-16959814D02*
X17240233Y-16950290D01*
X17240233Y-16950290D02*
X17211662Y-16950290D01*
X17211662Y-16950290D02*
X17192614Y-16959814D01*
X17192614Y-16959814D02*
X17183091Y-16969338D01*
X17392614Y-17083624D02*
X17373567Y-17074100D01*
X17373567Y-17074100D02*
X17364043Y-17064576D01*
X17364043Y-17064576D02*
X17354519Y-17045529D01*
X17354519Y-17045529D02*
X17354519Y-16988386D01*
X17354519Y-16988386D02*
X17364043Y-16969338D01*
X17364043Y-16969338D02*
X17373567Y-16959814D01*
X17373567Y-16959814D02*
X17392614Y-16950290D01*
X17392614Y-16950290D02*
X17421186Y-16950290D01*
X17421186Y-16950290D02*
X17440233Y-16959814D01*
X17440233Y-16959814D02*
X17449757Y-16969338D01*
X17449757Y-16969338D02*
X17459281Y-16988386D01*
X17459281Y-16988386D02*
X17459281Y-17045529D01*
X17459281Y-17045529D02*
X17449757Y-17064576D01*
X17449757Y-17064576D02*
X17440233Y-17074100D01*
X17440233Y-17074100D02*
X17421186Y-17083624D01*
X17421186Y-17083624D02*
X17392614Y-17083624D01*
X17573567Y-17083624D02*
X17554519Y-17074100D01*
X17554519Y-17074100D02*
X17544995Y-17055052D01*
X17544995Y-17055052D02*
X17544995Y-16883624D01*
X17725948Y-17074100D02*
X17706900Y-17083624D01*
X17706900Y-17083624D02*
X17668805Y-17083624D01*
X17668805Y-17083624D02*
X17649757Y-17074100D01*
X17649757Y-17074100D02*
X17640233Y-17055052D01*
X17640233Y-17055052D02*
X17640233Y-16978862D01*
X17640233Y-16978862D02*
X17649757Y-16959814D01*
X17649757Y-16959814D02*
X17668805Y-16950290D01*
X17668805Y-16950290D02*
X17706900Y-16950290D01*
X17706900Y-16950290D02*
X17725948Y-16959814D01*
X17725948Y-16959814D02*
X17735472Y-16978862D01*
X17735472Y-16978862D02*
X17735472Y-16997910D01*
X17735472Y-16997910D02*
X17640233Y-17016957D01*
X17811662Y-17074100D02*
X17830710Y-17083624D01*
X17830710Y-17083624D02*
X17868805Y-17083624D01*
X17868805Y-17083624D02*
X17887853Y-17074100D01*
X17887853Y-17074100D02*
X17897376Y-17055052D01*
X17897376Y-17055052D02*
X17897376Y-17045529D01*
X17897376Y-17045529D02*
X17887853Y-17026481D01*
X17887853Y-17026481D02*
X17868805Y-17016957D01*
X17868805Y-17016957D02*
X17840233Y-17016957D01*
X17840233Y-17016957D02*
X17821186Y-17007433D01*
X17821186Y-17007433D02*
X17811662Y-16988386D01*
X17811662Y-16988386D02*
X17811662Y-16978862D01*
X17811662Y-16978862D02*
X17821186Y-16959814D01*
X17821186Y-16959814D02*
X17840233Y-16950290D01*
X17840233Y-16950290D02*
X17868805Y-16950290D01*
X17868805Y-16950290D02*
X17887853Y-16959814D01*
X17964043Y-17159814D02*
X17973567Y-17150290D01*
X17973567Y-17150290D02*
X17992614Y-17121719D01*
X17992614Y-17121719D02*
X18002138Y-17102671D01*
X18002138Y-17102671D02*
X18011662Y-17074100D01*
X18011662Y-17074100D02*
X18021186Y-17026481D01*
X18021186Y-17026481D02*
X18021186Y-16988386D01*
X18021186Y-16988386D02*
X18011662Y-16940767D01*
X18011662Y-16940767D02*
X18002138Y-16912195D01*
X18002138Y-16912195D02*
X17992614Y-16893148D01*
X17992614Y-16893148D02*
X17973567Y-16864576D01*
X17973567Y-16864576D02*
X17964043Y-16855052D01*
M02*
