%TF.GenerationSoftware,KiCad,Pcbnew,9.0.0*%
%TF.CreationDate,2025-03-29T02:07:02-04:00*%
%TF.ProjectId,SHERPENT20250113,53484552-5045-44e5-9432-303235303131,rev?*%
%TF.SameCoordinates,Original*%
%TF.FileFunction,Legend,Top*%
%TF.FilePolarity,Positive*%
%FSLAX46Y46*%
G04 Gerber Fmt 4.6, Leading zero omitted, Abs format (unit mm)*
G04 Created by KiCad (PCBNEW 9.0.0) date 2025-03-29 02:07:02*
%MOMM*%
%LPD*%
G01*
G04 APERTURE LIST*
G04 Aperture macros list*
%AMRoundRect*
0 Rectangle with rounded corners*
0 $1 Rounding radius*
0 $2 $3 $4 $5 $6 $7 $8 $9 X,Y pos of 4 corners*
0 Add a 4 corners polygon primitive as box body*
4,1,4,$2,$3,$4,$5,$6,$7,$8,$9,$2,$3,0*
0 Add four circle primitives for the rounded corners*
1,1,$1+$1,$2,$3*
1,1,$1+$1,$4,$5*
1,1,$1+$1,$6,$7*
1,1,$1+$1,$8,$9*
0 Add four rect primitives between the rounded corners*
20,1,$1+$1,$2,$3,$4,$5,0*
20,1,$1+$1,$4,$5,$6,$7,0*
20,1,$1+$1,$6,$7,$8,$9,0*
20,1,$1+$1,$8,$9,$2,$3,0*%
%AMFreePoly0*
4,1,6,1.000000,0.000000,0.500000,-0.750000,-0.500000,-0.750000,-0.500000,0.750000,0.500000,0.750000,1.000000,0.000000,1.000000,0.000000,$1*%
%AMFreePoly1*
4,1,6,0.500000,-0.750000,-0.650000,-0.750000,-0.150000,0.000000,-0.650000,0.750000,0.500000,0.750000,0.500000,-0.750000,0.500000,-0.750000,$1*%
%AMFreePoly2*
4,1,5,0.200000,-0.625000,-0.200000,-0.625000,-0.200000,0.625000,0.200000,0.625000,0.200000,-0.625000,0.200000,-0.625000,$1*%
%AMFreePoly3*
4,1,5,0.200000,-0.725000,-0.200000,-0.725000,-0.200000,0.725000,0.200000,0.725000,0.200000,-0.725000,0.200000,-0.725000,$1*%
G04 Aperture macros list end*
%ADD10C,0.100000*%
%ADD11C,0.150000*%
%ADD12C,0.200000*%
%ADD13C,0.300000*%
%ADD14C,0.375000*%
%ADD15C,0.152400*%
%ADD16C,0.120000*%
%ADD17C,0.508000*%
%ADD18C,0.250000*%
%ADD19C,0.387500*%
%ADD20C,0.000000*%
%ADD21R,3.505200X5.000000*%
%ADD22RoundRect,0.237500X0.300000X0.237500X-0.300000X0.237500X-0.300000X-0.237500X0.300000X-0.237500X0*%
%ADD23C,3.000000*%
%ADD24RoundRect,0.250000X0.650000X-1.000000X0.650000X1.000000X-0.650000X1.000000X-0.650000X-1.000000X0*%
%ADD25RoundRect,0.090000X-0.660000X-0.360000X0.660000X-0.360000X0.660000X0.360000X-0.660000X0.360000X0*%
%ADD26RoundRect,0.237500X-0.300000X-0.237500X0.300000X-0.237500X0.300000X0.237500X-0.300000X0.237500X0*%
%ADD27RoundRect,0.200000X-0.200000X-0.275000X0.200000X-0.275000X0.200000X0.275000X-0.200000X0.275000X0*%
%ADD28R,0.228600X0.609600*%
%ADD29RoundRect,0.075000X0.000000X0.106066X-0.106066X0.000000X0.000000X-0.106066X0.106066X0.000000X0*%
%ADD30FreePoly0,0.000000*%
%ADD31FreePoly1,0.000000*%
%ADD32RoundRect,0.250000X-0.312500X-0.625000X0.312500X-0.625000X0.312500X0.625000X-0.312500X0.625000X0*%
%ADD33C,3.200000*%
%ADD34R,1.700000X1.700000*%
%ADD35O,1.700000X1.700000*%
%ADD36RoundRect,0.200000X-0.275000X0.200000X-0.275000X-0.200000X0.275000X-0.200000X0.275000X0.200000X0*%
%ADD37RoundRect,0.090000X0.660000X0.360000X-0.660000X0.360000X-0.660000X-0.360000X0.660000X-0.360000X0*%
%ADD38RoundRect,0.237500X0.237500X-0.287500X0.237500X0.287500X-0.237500X0.287500X-0.237500X-0.287500X0*%
%ADD39FreePoly0,180.000000*%
%ADD40FreePoly1,180.000000*%
%ADD41RoundRect,0.218750X0.218750X0.256250X-0.218750X0.256250X-0.218750X-0.256250X0.218750X-0.256250X0*%
%ADD42R,1.600000X1.600000*%
%ADD43C,1.600000*%
%ADD44RoundRect,0.200000X0.200000X0.275000X-0.200000X0.275000X-0.200000X-0.275000X0.200000X-0.275000X0*%
%ADD45RoundRect,0.237500X0.237500X-0.300000X0.237500X0.300000X-0.237500X0.300000X-0.237500X-0.300000X0*%
%ADD46RoundRect,0.150000X0.587500X0.150000X-0.587500X0.150000X-0.587500X-0.150000X0.587500X-0.150000X0*%
%ADD47RoundRect,0.237500X0.250000X0.237500X-0.250000X0.237500X-0.250000X-0.237500X0.250000X-0.237500X0*%
%ADD48RoundRect,0.218750X-0.218750X-0.256250X0.218750X-0.256250X0.218750X0.256250X-0.218750X0.256250X0*%
%ADD49RoundRect,0.200000X0.275000X-0.200000X0.275000X0.200000X-0.275000X0.200000X-0.275000X-0.200000X0*%
%ADD50RoundRect,0.375000X-0.375000X0.625000X-0.375000X-0.625000X0.375000X-0.625000X0.375000X0.625000X0*%
%ADD51RoundRect,0.500000X-1.400000X0.500000X-1.400000X-0.500000X1.400000X-0.500000X1.400000X0.500000X0*%
%ADD52R,0.889000X1.803400*%
%ADD53O,1.452400X2.652400*%
%ADD54O,1.452400X3.352400*%
%ADD55RoundRect,0.150000X-0.587500X-0.150000X0.587500X-0.150000X0.587500X0.150000X-0.587500X0.150000X0*%
%ADD56R,2.000000X2.000000*%
%ADD57C,1.700000*%
%ADD58C,2.000000*%
%ADD59R,0.575000X0.250000*%
%ADD60R,0.225000X0.700000*%
%ADD61R,0.549999X0.249999*%
%ADD62FreePoly2,90.000000*%
%ADD63FreePoly3,180.000000*%
%ADD64R,0.399999X1.000000*%
%ADD65FreePoly2,270.000000*%
%ADD66R,0.249999X0.549999*%
G04 APERTURE END LIST*
D10*
X154800000Y-115400000D02*
X156900000Y-118400000D01*
X154300000Y-99700000D02*
X154900000Y-100600000D01*
D11*
X204408207Y-82269819D02*
X204074874Y-81793628D01*
X203836779Y-82269819D02*
X203836779Y-81269819D01*
X203836779Y-81269819D02*
X204217731Y-81269819D01*
X204217731Y-81269819D02*
X204312969Y-81317438D01*
X204312969Y-81317438D02*
X204360588Y-81365057D01*
X204360588Y-81365057D02*
X204408207Y-81460295D01*
X204408207Y-81460295D02*
X204408207Y-81603152D01*
X204408207Y-81603152D02*
X204360588Y-81698390D01*
X204360588Y-81698390D02*
X204312969Y-81746009D01*
X204312969Y-81746009D02*
X204217731Y-81793628D01*
X204217731Y-81793628D02*
X203836779Y-81793628D01*
X204789160Y-82222200D02*
X204932017Y-82269819D01*
X204932017Y-82269819D02*
X205170112Y-82269819D01*
X205170112Y-82269819D02*
X205265350Y-82222200D01*
X205265350Y-82222200D02*
X205312969Y-82174580D01*
X205312969Y-82174580D02*
X205360588Y-82079342D01*
X205360588Y-82079342D02*
X205360588Y-81984104D01*
X205360588Y-81984104D02*
X205312969Y-81888866D01*
X205312969Y-81888866D02*
X205265350Y-81841247D01*
X205265350Y-81841247D02*
X205170112Y-81793628D01*
X205170112Y-81793628D02*
X204979636Y-81746009D01*
X204979636Y-81746009D02*
X204884398Y-81698390D01*
X204884398Y-81698390D02*
X204836779Y-81650771D01*
X204836779Y-81650771D02*
X204789160Y-81555533D01*
X204789160Y-81555533D02*
X204789160Y-81460295D01*
X204789160Y-81460295D02*
X204836779Y-81365057D01*
X204836779Y-81365057D02*
X204884398Y-81317438D01*
X204884398Y-81317438D02*
X204979636Y-81269819D01*
X204979636Y-81269819D02*
X205217731Y-81269819D01*
X205217731Y-81269819D02*
X205360588Y-81317438D01*
X205646303Y-81269819D02*
X206217731Y-81269819D01*
X205932017Y-82269819D02*
X205932017Y-81269819D01*
X201870112Y-90146009D02*
X202012969Y-90193628D01*
X202012969Y-90193628D02*
X202060588Y-90241247D01*
X202060588Y-90241247D02*
X202108207Y-90336485D01*
X202108207Y-90336485D02*
X202108207Y-90479342D01*
X202108207Y-90479342D02*
X202060588Y-90574580D01*
X202060588Y-90574580D02*
X202012969Y-90622200D01*
X202012969Y-90622200D02*
X201917731Y-90669819D01*
X201917731Y-90669819D02*
X201536779Y-90669819D01*
X201536779Y-90669819D02*
X201536779Y-89669819D01*
X201536779Y-89669819D02*
X201870112Y-89669819D01*
X201870112Y-89669819D02*
X201965350Y-89717438D01*
X201965350Y-89717438D02*
X202012969Y-89765057D01*
X202012969Y-89765057D02*
X202060588Y-89860295D01*
X202060588Y-89860295D02*
X202060588Y-89955533D01*
X202060588Y-89955533D02*
X202012969Y-90050771D01*
X202012969Y-90050771D02*
X201965350Y-90098390D01*
X201965350Y-90098390D02*
X201870112Y-90146009D01*
X201870112Y-90146009D02*
X201536779Y-90146009D01*
X202727255Y-89669819D02*
X202917731Y-89669819D01*
X202917731Y-89669819D02*
X203012969Y-89717438D01*
X203012969Y-89717438D02*
X203108207Y-89812676D01*
X203108207Y-89812676D02*
X203155826Y-90003152D01*
X203155826Y-90003152D02*
X203155826Y-90336485D01*
X203155826Y-90336485D02*
X203108207Y-90526961D01*
X203108207Y-90526961D02*
X203012969Y-90622200D01*
X203012969Y-90622200D02*
X202917731Y-90669819D01*
X202917731Y-90669819D02*
X202727255Y-90669819D01*
X202727255Y-90669819D02*
X202632017Y-90622200D01*
X202632017Y-90622200D02*
X202536779Y-90526961D01*
X202536779Y-90526961D02*
X202489160Y-90336485D01*
X202489160Y-90336485D02*
X202489160Y-90003152D01*
X202489160Y-90003152D02*
X202536779Y-89812676D01*
X202536779Y-89812676D02*
X202632017Y-89717438D01*
X202632017Y-89717438D02*
X202727255Y-89669819D01*
X203774874Y-89669819D02*
X203965350Y-89669819D01*
X203965350Y-89669819D02*
X204060588Y-89717438D01*
X204060588Y-89717438D02*
X204155826Y-89812676D01*
X204155826Y-89812676D02*
X204203445Y-90003152D01*
X204203445Y-90003152D02*
X204203445Y-90336485D01*
X204203445Y-90336485D02*
X204155826Y-90526961D01*
X204155826Y-90526961D02*
X204060588Y-90622200D01*
X204060588Y-90622200D02*
X203965350Y-90669819D01*
X203965350Y-90669819D02*
X203774874Y-90669819D01*
X203774874Y-90669819D02*
X203679636Y-90622200D01*
X203679636Y-90622200D02*
X203584398Y-90526961D01*
X203584398Y-90526961D02*
X203536779Y-90336485D01*
X203536779Y-90336485D02*
X203536779Y-90003152D01*
X203536779Y-90003152D02*
X203584398Y-89812676D01*
X203584398Y-89812676D02*
X203679636Y-89717438D01*
X203679636Y-89717438D02*
X203774874Y-89669819D01*
X204489160Y-89669819D02*
X205060588Y-89669819D01*
X204774874Y-90669819D02*
X204774874Y-89669819D01*
D10*
X163100000Y-119600000D02*
X164000000Y-120900000D01*
X157000000Y-89000000D02*
X158250000Y-89750000D01*
X172500000Y-80250000D02*
X171500000Y-81250000D01*
X155500000Y-104250000D02*
X156500000Y-104250000D01*
X167250000Y-124000000D02*
X167500000Y-124500000D01*
X153350000Y-101450000D02*
X153850000Y-101950000D01*
D12*
X142357768Y-82732933D02*
X143881578Y-82732933D01*
X143119673Y-83494838D02*
X143119673Y-81971028D01*
D11*
X188086779Y-122619819D02*
X188086779Y-121619819D01*
X188086779Y-121619819D02*
X188324874Y-121619819D01*
X188324874Y-121619819D02*
X188467731Y-121667438D01*
X188467731Y-121667438D02*
X188562969Y-121762676D01*
X188562969Y-121762676D02*
X188610588Y-121857914D01*
X188610588Y-121857914D02*
X188658207Y-122048390D01*
X188658207Y-122048390D02*
X188658207Y-122191247D01*
X188658207Y-122191247D02*
X188610588Y-122381723D01*
X188610588Y-122381723D02*
X188562969Y-122476961D01*
X188562969Y-122476961D02*
X188467731Y-122572200D01*
X188467731Y-122572200D02*
X188324874Y-122619819D01*
X188324874Y-122619819D02*
X188086779Y-122619819D01*
X151286779Y-124919819D02*
X151286779Y-123919819D01*
X151286779Y-123919819D02*
X151524874Y-123919819D01*
X151524874Y-123919819D02*
X151667731Y-123967438D01*
X151667731Y-123967438D02*
X151762969Y-124062676D01*
X151762969Y-124062676D02*
X151810588Y-124157914D01*
X151810588Y-124157914D02*
X151858207Y-124348390D01*
X151858207Y-124348390D02*
X151858207Y-124491247D01*
X151858207Y-124491247D02*
X151810588Y-124681723D01*
X151810588Y-124681723D02*
X151762969Y-124776961D01*
X151762969Y-124776961D02*
X151667731Y-124872200D01*
X151667731Y-124872200D02*
X151524874Y-124919819D01*
X151524874Y-124919819D02*
X151286779Y-124919819D01*
D12*
X142357768Y-85482933D02*
X143881578Y-85482933D01*
D13*
X186754510Y-132600828D02*
X186754510Y-133600828D01*
X186754510Y-132743685D02*
X186825939Y-132672257D01*
X186825939Y-132672257D02*
X186968796Y-132600828D01*
X186968796Y-132600828D02*
X187183082Y-132600828D01*
X187183082Y-132600828D02*
X187325939Y-132672257D01*
X187325939Y-132672257D02*
X187397368Y-132815114D01*
X187397368Y-132815114D02*
X187397368Y-133600828D01*
X188683082Y-133529400D02*
X188540225Y-133600828D01*
X188540225Y-133600828D02*
X188254511Y-133600828D01*
X188254511Y-133600828D02*
X188111653Y-133529400D01*
X188111653Y-133529400D02*
X188040225Y-133386542D01*
X188040225Y-133386542D02*
X188040225Y-132815114D01*
X188040225Y-132815114D02*
X188111653Y-132672257D01*
X188111653Y-132672257D02*
X188254511Y-132600828D01*
X188254511Y-132600828D02*
X188540225Y-132600828D01*
X188540225Y-132600828D02*
X188683082Y-132672257D01*
X188683082Y-132672257D02*
X188754511Y-132815114D01*
X188754511Y-132815114D02*
X188754511Y-132957971D01*
X188754511Y-132957971D02*
X188040225Y-133100828D01*
X189611653Y-133600828D02*
X189468796Y-133529400D01*
X189468796Y-133529400D02*
X189397367Y-133457971D01*
X189397367Y-133457971D02*
X189325939Y-133315114D01*
X189325939Y-133315114D02*
X189325939Y-132886542D01*
X189325939Y-132886542D02*
X189397367Y-132743685D01*
X189397367Y-132743685D02*
X189468796Y-132672257D01*
X189468796Y-132672257D02*
X189611653Y-132600828D01*
X189611653Y-132600828D02*
X189825939Y-132600828D01*
X189825939Y-132600828D02*
X189968796Y-132672257D01*
X189968796Y-132672257D02*
X190040225Y-132743685D01*
X190040225Y-132743685D02*
X190111653Y-132886542D01*
X190111653Y-132886542D02*
X190111653Y-133315114D01*
X190111653Y-133315114D02*
X190040225Y-133457971D01*
X190040225Y-133457971D02*
X189968796Y-133529400D01*
X189968796Y-133529400D02*
X189825939Y-133600828D01*
X189825939Y-133600828D02*
X189611653Y-133600828D01*
X190754510Y-132600828D02*
X190754510Y-134100828D01*
X190754510Y-132672257D02*
X190897368Y-132600828D01*
X190897368Y-132600828D02*
X191183082Y-132600828D01*
X191183082Y-132600828D02*
X191325939Y-132672257D01*
X191325939Y-132672257D02*
X191397368Y-132743685D01*
X191397368Y-132743685D02*
X191468796Y-132886542D01*
X191468796Y-132886542D02*
X191468796Y-133315114D01*
X191468796Y-133315114D02*
X191397368Y-133457971D01*
X191397368Y-133457971D02*
X191325939Y-133529400D01*
X191325939Y-133529400D02*
X191183082Y-133600828D01*
X191183082Y-133600828D02*
X190897368Y-133600828D01*
X190897368Y-133600828D02*
X190754510Y-133529400D01*
X191968796Y-133600828D02*
X192754511Y-132600828D01*
X191968796Y-132600828D02*
X192754511Y-133600828D01*
D12*
X156107768Y-82732933D02*
X157631578Y-82732933D01*
X156869673Y-83494838D02*
X156869673Y-81971028D01*
D11*
X151079649Y-118995173D02*
X151841554Y-118995173D01*
X151036779Y-121788866D02*
X151798684Y-121788866D01*
X151417731Y-122169819D02*
X151417731Y-121407914D01*
X187836779Y-119488866D02*
X188598684Y-119488866D01*
X188217731Y-119869819D02*
X188217731Y-119107914D01*
X187879649Y-116695173D02*
X188641554Y-116695173D01*
D12*
X156107768Y-85482933D02*
X157631578Y-85482933D01*
D14*
X194203852Y-130425500D02*
X195346710Y-130425500D01*
X194775281Y-130996928D02*
X194775281Y-129854071D01*
X197203852Y-130996928D02*
X197203852Y-129496928D01*
X197203852Y-129496928D02*
X197560995Y-129496928D01*
X197560995Y-129496928D02*
X197775281Y-129568357D01*
X197775281Y-129568357D02*
X197918138Y-129711214D01*
X197918138Y-129711214D02*
X197989567Y-129854071D01*
X197989567Y-129854071D02*
X198060995Y-130139785D01*
X198060995Y-130139785D02*
X198060995Y-130354071D01*
X198060995Y-130354071D02*
X197989567Y-130639785D01*
X197989567Y-130639785D02*
X197918138Y-130782642D01*
X197918138Y-130782642D02*
X197775281Y-130925500D01*
X197775281Y-130925500D02*
X197560995Y-130996928D01*
X197560995Y-130996928D02*
X197203852Y-130996928D01*
X200632424Y-129568357D02*
X200489567Y-129496928D01*
X200489567Y-129496928D02*
X200275281Y-129496928D01*
X200275281Y-129496928D02*
X200060995Y-129568357D01*
X200060995Y-129568357D02*
X199918138Y-129711214D01*
X199918138Y-129711214D02*
X199846709Y-129854071D01*
X199846709Y-129854071D02*
X199775281Y-130139785D01*
X199775281Y-130139785D02*
X199775281Y-130354071D01*
X199775281Y-130354071D02*
X199846709Y-130639785D01*
X199846709Y-130639785D02*
X199918138Y-130782642D01*
X199918138Y-130782642D02*
X200060995Y-130925500D01*
X200060995Y-130925500D02*
X200275281Y-130996928D01*
X200275281Y-130996928D02*
X200418138Y-130996928D01*
X200418138Y-130996928D02*
X200632424Y-130925500D01*
X200632424Y-130925500D02*
X200703852Y-130854071D01*
X200703852Y-130854071D02*
X200703852Y-130354071D01*
X200703852Y-130354071D02*
X200418138Y-130354071D01*
D11*
X155204819Y-110916666D02*
X155204819Y-111392856D01*
X155204819Y-111392856D02*
X154204819Y-111392856D01*
X155204819Y-110059523D02*
X155204819Y-110630951D01*
X155204819Y-110345237D02*
X154204819Y-110345237D01*
X154204819Y-110345237D02*
X154347676Y-110440475D01*
X154347676Y-110440475D02*
X154442914Y-110535713D01*
X154442914Y-110535713D02*
X154490533Y-110630951D01*
X162157142Y-81459580D02*
X162109523Y-81507200D01*
X162109523Y-81507200D02*
X161966666Y-81554819D01*
X161966666Y-81554819D02*
X161871428Y-81554819D01*
X161871428Y-81554819D02*
X161728571Y-81507200D01*
X161728571Y-81507200D02*
X161633333Y-81411961D01*
X161633333Y-81411961D02*
X161585714Y-81316723D01*
X161585714Y-81316723D02*
X161538095Y-81126247D01*
X161538095Y-81126247D02*
X161538095Y-80983390D01*
X161538095Y-80983390D02*
X161585714Y-80792914D01*
X161585714Y-80792914D02*
X161633333Y-80697676D01*
X161633333Y-80697676D02*
X161728571Y-80602438D01*
X161728571Y-80602438D02*
X161871428Y-80554819D01*
X161871428Y-80554819D02*
X161966666Y-80554819D01*
X161966666Y-80554819D02*
X162109523Y-80602438D01*
X162109523Y-80602438D02*
X162157142Y-80650057D01*
X163109523Y-81554819D02*
X162538095Y-81554819D01*
X162823809Y-81554819D02*
X162823809Y-80554819D01*
X162823809Y-80554819D02*
X162728571Y-80697676D01*
X162728571Y-80697676D02*
X162633333Y-80792914D01*
X162633333Y-80792914D02*
X162538095Y-80840533D01*
X164014285Y-80554819D02*
X163538095Y-80554819D01*
X163538095Y-80554819D02*
X163490476Y-81031009D01*
X163490476Y-81031009D02*
X163538095Y-80983390D01*
X163538095Y-80983390D02*
X163633333Y-80935771D01*
X163633333Y-80935771D02*
X163871428Y-80935771D01*
X163871428Y-80935771D02*
X163966666Y-80983390D01*
X163966666Y-80983390D02*
X164014285Y-81031009D01*
X164014285Y-81031009D02*
X164061904Y-81126247D01*
X164061904Y-81126247D02*
X164061904Y-81364342D01*
X164061904Y-81364342D02*
X164014285Y-81459580D01*
X164014285Y-81459580D02*
X163966666Y-81507200D01*
X163966666Y-81507200D02*
X163871428Y-81554819D01*
X163871428Y-81554819D02*
X163633333Y-81554819D01*
X163633333Y-81554819D02*
X163538095Y-81507200D01*
X163538095Y-81507200D02*
X163490476Y-81459580D01*
X137952381Y-76931009D02*
X138095238Y-76978628D01*
X138095238Y-76978628D02*
X138142857Y-77026247D01*
X138142857Y-77026247D02*
X138190476Y-77121485D01*
X138190476Y-77121485D02*
X138190476Y-77264342D01*
X138190476Y-77264342D02*
X138142857Y-77359580D01*
X138142857Y-77359580D02*
X138095238Y-77407200D01*
X138095238Y-77407200D02*
X138000000Y-77454819D01*
X138000000Y-77454819D02*
X137619048Y-77454819D01*
X137619048Y-77454819D02*
X137619048Y-76454819D01*
X137619048Y-76454819D02*
X137952381Y-76454819D01*
X137952381Y-76454819D02*
X138047619Y-76502438D01*
X138047619Y-76502438D02*
X138095238Y-76550057D01*
X138095238Y-76550057D02*
X138142857Y-76645295D01*
X138142857Y-76645295D02*
X138142857Y-76740533D01*
X138142857Y-76740533D02*
X138095238Y-76835771D01*
X138095238Y-76835771D02*
X138047619Y-76883390D01*
X138047619Y-76883390D02*
X137952381Y-76931009D01*
X137952381Y-76931009D02*
X137619048Y-76931009D01*
X138619048Y-77073866D02*
X139380953Y-77073866D01*
X153461708Y-88867451D02*
X153604565Y-88915070D01*
X153604565Y-88915070D02*
X153652184Y-88962689D01*
X153652184Y-88962689D02*
X153699803Y-89057927D01*
X153699803Y-89057927D02*
X153699803Y-89200784D01*
X153699803Y-89200784D02*
X153652184Y-89296022D01*
X153652184Y-89296022D02*
X153604565Y-89343642D01*
X153604565Y-89343642D02*
X153509327Y-89391261D01*
X153509327Y-89391261D02*
X153128375Y-89391261D01*
X153128375Y-89391261D02*
X153128375Y-88391261D01*
X153128375Y-88391261D02*
X153461708Y-88391261D01*
X153461708Y-88391261D02*
X153556946Y-88438880D01*
X153556946Y-88438880D02*
X153604565Y-88486499D01*
X153604565Y-88486499D02*
X153652184Y-88581737D01*
X153652184Y-88581737D02*
X153652184Y-88676975D01*
X153652184Y-88676975D02*
X153604565Y-88772213D01*
X153604565Y-88772213D02*
X153556946Y-88819832D01*
X153556946Y-88819832D02*
X153461708Y-88867451D01*
X153461708Y-88867451D02*
X153128375Y-88867451D01*
X154128375Y-89010308D02*
X154890280Y-89010308D01*
X154509327Y-89391261D02*
X154509327Y-88629356D01*
X178054819Y-125138094D02*
X177054819Y-125138094D01*
X177054819Y-125138094D02*
X177054819Y-124899999D01*
X177054819Y-124899999D02*
X177102438Y-124757142D01*
X177102438Y-124757142D02*
X177197676Y-124661904D01*
X177197676Y-124661904D02*
X177292914Y-124614285D01*
X177292914Y-124614285D02*
X177483390Y-124566666D01*
X177483390Y-124566666D02*
X177626247Y-124566666D01*
X177626247Y-124566666D02*
X177816723Y-124614285D01*
X177816723Y-124614285D02*
X177911961Y-124661904D01*
X177911961Y-124661904D02*
X178007200Y-124757142D01*
X178007200Y-124757142D02*
X178054819Y-124899999D01*
X178054819Y-124899999D02*
X178054819Y-125138094D01*
X177388152Y-123709523D02*
X178054819Y-123709523D01*
X177007200Y-123947618D02*
X177721485Y-124185713D01*
X177721485Y-124185713D02*
X177721485Y-123566666D01*
X163340159Y-119338094D02*
X162340159Y-119338094D01*
X162340159Y-119338094D02*
X162340159Y-119099999D01*
X162340159Y-119099999D02*
X162387778Y-118957142D01*
X162387778Y-118957142D02*
X162483016Y-118861904D01*
X162483016Y-118861904D02*
X162578254Y-118814285D01*
X162578254Y-118814285D02*
X162768730Y-118766666D01*
X162768730Y-118766666D02*
X162911587Y-118766666D01*
X162911587Y-118766666D02*
X163102063Y-118814285D01*
X163102063Y-118814285D02*
X163197301Y-118861904D01*
X163197301Y-118861904D02*
X163292540Y-118957142D01*
X163292540Y-118957142D02*
X163340159Y-119099999D01*
X163340159Y-119099999D02*
X163340159Y-119338094D01*
X162340159Y-118433332D02*
X162340159Y-117814285D01*
X162340159Y-117814285D02*
X162721111Y-118147618D01*
X162721111Y-118147618D02*
X162721111Y-118004761D01*
X162721111Y-118004761D02*
X162768730Y-117909523D01*
X162768730Y-117909523D02*
X162816349Y-117861904D01*
X162816349Y-117861904D02*
X162911587Y-117814285D01*
X162911587Y-117814285D02*
X163149682Y-117814285D01*
X163149682Y-117814285D02*
X163244920Y-117861904D01*
X163244920Y-117861904D02*
X163292540Y-117909523D01*
X163292540Y-117909523D02*
X163340159Y-118004761D01*
X163340159Y-118004761D02*
X163340159Y-118290475D01*
X163340159Y-118290475D02*
X163292540Y-118385713D01*
X163292540Y-118385713D02*
X163244920Y-118433332D01*
X144661905Y-71857619D02*
X144661905Y-70857619D01*
X144661905Y-70857619D02*
X144900000Y-70857619D01*
X144900000Y-70857619D02*
X145042857Y-70905238D01*
X145042857Y-70905238D02*
X145138095Y-71000476D01*
X145138095Y-71000476D02*
X145185714Y-71095714D01*
X145185714Y-71095714D02*
X145233333Y-71286190D01*
X145233333Y-71286190D02*
X145233333Y-71429047D01*
X145233333Y-71429047D02*
X145185714Y-71619523D01*
X145185714Y-71619523D02*
X145138095Y-71714761D01*
X145138095Y-71714761D02*
X145042857Y-71810000D01*
X145042857Y-71810000D02*
X144900000Y-71857619D01*
X144900000Y-71857619D02*
X144661905Y-71857619D01*
X145709524Y-71857619D02*
X145900000Y-71857619D01*
X145900000Y-71857619D02*
X145995238Y-71810000D01*
X145995238Y-71810000D02*
X146042857Y-71762380D01*
X146042857Y-71762380D02*
X146138095Y-71619523D01*
X146138095Y-71619523D02*
X146185714Y-71429047D01*
X146185714Y-71429047D02*
X146185714Y-71048095D01*
X146185714Y-71048095D02*
X146138095Y-70952857D01*
X146138095Y-70952857D02*
X146090476Y-70905238D01*
X146090476Y-70905238D02*
X145995238Y-70857619D01*
X145995238Y-70857619D02*
X145804762Y-70857619D01*
X145804762Y-70857619D02*
X145709524Y-70905238D01*
X145709524Y-70905238D02*
X145661905Y-70952857D01*
X145661905Y-70952857D02*
X145614286Y-71048095D01*
X145614286Y-71048095D02*
X145614286Y-71286190D01*
X145614286Y-71286190D02*
X145661905Y-71381428D01*
X145661905Y-71381428D02*
X145709524Y-71429047D01*
X145709524Y-71429047D02*
X145804762Y-71476666D01*
X145804762Y-71476666D02*
X145995238Y-71476666D01*
X145995238Y-71476666D02*
X146090476Y-71429047D01*
X146090476Y-71429047D02*
X146138095Y-71381428D01*
X146138095Y-71381428D02*
X146185714Y-71286190D01*
X144196171Y-73862295D02*
X143739028Y-73862295D01*
X143967600Y-73862295D02*
X143967600Y-73062295D01*
X143967600Y-73062295D02*
X143891409Y-73176580D01*
X143891409Y-73176580D02*
X143815219Y-73252771D01*
X143815219Y-73252771D02*
X143739028Y-73290866D01*
X168857142Y-97609580D02*
X168809523Y-97657200D01*
X168809523Y-97657200D02*
X168666666Y-97704819D01*
X168666666Y-97704819D02*
X168571428Y-97704819D01*
X168571428Y-97704819D02*
X168428571Y-97657200D01*
X168428571Y-97657200D02*
X168333333Y-97561961D01*
X168333333Y-97561961D02*
X168285714Y-97466723D01*
X168285714Y-97466723D02*
X168238095Y-97276247D01*
X168238095Y-97276247D02*
X168238095Y-97133390D01*
X168238095Y-97133390D02*
X168285714Y-96942914D01*
X168285714Y-96942914D02*
X168333333Y-96847676D01*
X168333333Y-96847676D02*
X168428571Y-96752438D01*
X168428571Y-96752438D02*
X168571428Y-96704819D01*
X168571428Y-96704819D02*
X168666666Y-96704819D01*
X168666666Y-96704819D02*
X168809523Y-96752438D01*
X168809523Y-96752438D02*
X168857142Y-96800057D01*
X169809523Y-97704819D02*
X169238095Y-97704819D01*
X169523809Y-97704819D02*
X169523809Y-96704819D01*
X169523809Y-96704819D02*
X169428571Y-96847676D01*
X169428571Y-96847676D02*
X169333333Y-96942914D01*
X169333333Y-96942914D02*
X169238095Y-96990533D01*
X170190476Y-96800057D02*
X170238095Y-96752438D01*
X170238095Y-96752438D02*
X170333333Y-96704819D01*
X170333333Y-96704819D02*
X170571428Y-96704819D01*
X170571428Y-96704819D02*
X170666666Y-96752438D01*
X170666666Y-96752438D02*
X170714285Y-96800057D01*
X170714285Y-96800057D02*
X170761904Y-96895295D01*
X170761904Y-96895295D02*
X170761904Y-96990533D01*
X170761904Y-96990533D02*
X170714285Y-97133390D01*
X170714285Y-97133390D02*
X170142857Y-97704819D01*
X170142857Y-97704819D02*
X170761904Y-97704819D01*
X153233333Y-99754819D02*
X152900000Y-99278628D01*
X152661905Y-99754819D02*
X152661905Y-98754819D01*
X152661905Y-98754819D02*
X153042857Y-98754819D01*
X153042857Y-98754819D02*
X153138095Y-98802438D01*
X153138095Y-98802438D02*
X153185714Y-98850057D01*
X153185714Y-98850057D02*
X153233333Y-98945295D01*
X153233333Y-98945295D02*
X153233333Y-99088152D01*
X153233333Y-99088152D02*
X153185714Y-99183390D01*
X153185714Y-99183390D02*
X153138095Y-99231009D01*
X153138095Y-99231009D02*
X153042857Y-99278628D01*
X153042857Y-99278628D02*
X152661905Y-99278628D01*
X153709524Y-99754819D02*
X153900000Y-99754819D01*
X153900000Y-99754819D02*
X153995238Y-99707200D01*
X153995238Y-99707200D02*
X154042857Y-99659580D01*
X154042857Y-99659580D02*
X154138095Y-99516723D01*
X154138095Y-99516723D02*
X154185714Y-99326247D01*
X154185714Y-99326247D02*
X154185714Y-98945295D01*
X154185714Y-98945295D02*
X154138095Y-98850057D01*
X154138095Y-98850057D02*
X154090476Y-98802438D01*
X154090476Y-98802438D02*
X153995238Y-98754819D01*
X153995238Y-98754819D02*
X153804762Y-98754819D01*
X153804762Y-98754819D02*
X153709524Y-98802438D01*
X153709524Y-98802438D02*
X153661905Y-98850057D01*
X153661905Y-98850057D02*
X153614286Y-98945295D01*
X153614286Y-98945295D02*
X153614286Y-99183390D01*
X153614286Y-99183390D02*
X153661905Y-99278628D01*
X153661905Y-99278628D02*
X153709524Y-99326247D01*
X153709524Y-99326247D02*
X153804762Y-99373866D01*
X153804762Y-99373866D02*
X153995238Y-99373866D01*
X153995238Y-99373866D02*
X154090476Y-99326247D01*
X154090476Y-99326247D02*
X154138095Y-99278628D01*
X154138095Y-99278628D02*
X154185714Y-99183390D01*
X168333333Y-112359580D02*
X168285714Y-112407200D01*
X168285714Y-112407200D02*
X168142857Y-112454819D01*
X168142857Y-112454819D02*
X168047619Y-112454819D01*
X168047619Y-112454819D02*
X167904762Y-112407200D01*
X167904762Y-112407200D02*
X167809524Y-112311961D01*
X167809524Y-112311961D02*
X167761905Y-112216723D01*
X167761905Y-112216723D02*
X167714286Y-112026247D01*
X167714286Y-112026247D02*
X167714286Y-111883390D01*
X167714286Y-111883390D02*
X167761905Y-111692914D01*
X167761905Y-111692914D02*
X167809524Y-111597676D01*
X167809524Y-111597676D02*
X167904762Y-111502438D01*
X167904762Y-111502438D02*
X168047619Y-111454819D01*
X168047619Y-111454819D02*
X168142857Y-111454819D01*
X168142857Y-111454819D02*
X168285714Y-111502438D01*
X168285714Y-111502438D02*
X168333333Y-111550057D01*
X168666667Y-111454819D02*
X169285714Y-111454819D01*
X169285714Y-111454819D02*
X168952381Y-111835771D01*
X168952381Y-111835771D02*
X169095238Y-111835771D01*
X169095238Y-111835771D02*
X169190476Y-111883390D01*
X169190476Y-111883390D02*
X169238095Y-111931009D01*
X169238095Y-111931009D02*
X169285714Y-112026247D01*
X169285714Y-112026247D02*
X169285714Y-112264342D01*
X169285714Y-112264342D02*
X169238095Y-112359580D01*
X169238095Y-112359580D02*
X169190476Y-112407200D01*
X169190476Y-112407200D02*
X169095238Y-112454819D01*
X169095238Y-112454819D02*
X168809524Y-112454819D01*
X168809524Y-112454819D02*
X168714286Y-112407200D01*
X168714286Y-112407200D02*
X168666667Y-112359580D01*
X155838095Y-87754819D02*
X155838095Y-88564342D01*
X155838095Y-88564342D02*
X155885714Y-88659580D01*
X155885714Y-88659580D02*
X155933333Y-88707200D01*
X155933333Y-88707200D02*
X156028571Y-88754819D01*
X156028571Y-88754819D02*
X156219047Y-88754819D01*
X156219047Y-88754819D02*
X156314285Y-88707200D01*
X156314285Y-88707200D02*
X156361904Y-88659580D01*
X156361904Y-88659580D02*
X156409523Y-88564342D01*
X156409523Y-88564342D02*
X156409523Y-87754819D01*
X156790476Y-87754819D02*
X157409523Y-87754819D01*
X157409523Y-87754819D02*
X157076190Y-88135771D01*
X157076190Y-88135771D02*
X157219047Y-88135771D01*
X157219047Y-88135771D02*
X157314285Y-88183390D01*
X157314285Y-88183390D02*
X157361904Y-88231009D01*
X157361904Y-88231009D02*
X157409523Y-88326247D01*
X157409523Y-88326247D02*
X157409523Y-88564342D01*
X157409523Y-88564342D02*
X157361904Y-88659580D01*
X157361904Y-88659580D02*
X157314285Y-88707200D01*
X157314285Y-88707200D02*
X157219047Y-88754819D01*
X157219047Y-88754819D02*
X156933333Y-88754819D01*
X156933333Y-88754819D02*
X156838095Y-88707200D01*
X156838095Y-88707200D02*
X156790476Y-88659580D01*
X168738095Y-79954819D02*
X168738095Y-80764342D01*
X168738095Y-80764342D02*
X168785714Y-80859580D01*
X168785714Y-80859580D02*
X168833333Y-80907200D01*
X168833333Y-80907200D02*
X168928571Y-80954819D01*
X168928571Y-80954819D02*
X169119047Y-80954819D01*
X169119047Y-80954819D02*
X169214285Y-80907200D01*
X169214285Y-80907200D02*
X169261904Y-80859580D01*
X169261904Y-80859580D02*
X169309523Y-80764342D01*
X169309523Y-80764342D02*
X169309523Y-79954819D01*
X170309523Y-80954819D02*
X169738095Y-80954819D01*
X170023809Y-80954819D02*
X170023809Y-79954819D01*
X170023809Y-79954819D02*
X169928571Y-80097676D01*
X169928571Y-80097676D02*
X169833333Y-80192914D01*
X169833333Y-80192914D02*
X169738095Y-80240533D01*
X194738095Y-114902438D02*
X194642857Y-114854819D01*
X194642857Y-114854819D02*
X194500000Y-114854819D01*
X194500000Y-114854819D02*
X194357143Y-114902438D01*
X194357143Y-114902438D02*
X194261905Y-114997676D01*
X194261905Y-114997676D02*
X194214286Y-115092914D01*
X194214286Y-115092914D02*
X194166667Y-115283390D01*
X194166667Y-115283390D02*
X194166667Y-115426247D01*
X194166667Y-115426247D02*
X194214286Y-115616723D01*
X194214286Y-115616723D02*
X194261905Y-115711961D01*
X194261905Y-115711961D02*
X194357143Y-115807200D01*
X194357143Y-115807200D02*
X194500000Y-115854819D01*
X194500000Y-115854819D02*
X194595238Y-115854819D01*
X194595238Y-115854819D02*
X194738095Y-115807200D01*
X194738095Y-115807200D02*
X194785714Y-115759580D01*
X194785714Y-115759580D02*
X194785714Y-115426247D01*
X194785714Y-115426247D02*
X194595238Y-115426247D01*
X195214286Y-115854819D02*
X195214286Y-114854819D01*
X195214286Y-114854819D02*
X195785714Y-115854819D01*
X195785714Y-115854819D02*
X195785714Y-114854819D01*
X196261905Y-115854819D02*
X196261905Y-114854819D01*
X196261905Y-114854819D02*
X196500000Y-114854819D01*
X196500000Y-114854819D02*
X196642857Y-114902438D01*
X196642857Y-114902438D02*
X196738095Y-114997676D01*
X196738095Y-114997676D02*
X196785714Y-115092914D01*
X196785714Y-115092914D02*
X196833333Y-115283390D01*
X196833333Y-115283390D02*
X196833333Y-115426247D01*
X196833333Y-115426247D02*
X196785714Y-115616723D01*
X196785714Y-115616723D02*
X196738095Y-115711961D01*
X196738095Y-115711961D02*
X196642857Y-115807200D01*
X196642857Y-115807200D02*
X196500000Y-115854819D01*
X196500000Y-115854819D02*
X196261905Y-115854819D01*
X192107142Y-86704819D02*
X191773809Y-86228628D01*
X191535714Y-86704819D02*
X191535714Y-85704819D01*
X191535714Y-85704819D02*
X191916666Y-85704819D01*
X191916666Y-85704819D02*
X192011904Y-85752438D01*
X192011904Y-85752438D02*
X192059523Y-85800057D01*
X192059523Y-85800057D02*
X192107142Y-85895295D01*
X192107142Y-85895295D02*
X192107142Y-86038152D01*
X192107142Y-86038152D02*
X192059523Y-86133390D01*
X192059523Y-86133390D02*
X192011904Y-86181009D01*
X192011904Y-86181009D02*
X191916666Y-86228628D01*
X191916666Y-86228628D02*
X191535714Y-86228628D01*
X192488095Y-85800057D02*
X192535714Y-85752438D01*
X192535714Y-85752438D02*
X192630952Y-85704819D01*
X192630952Y-85704819D02*
X192869047Y-85704819D01*
X192869047Y-85704819D02*
X192964285Y-85752438D01*
X192964285Y-85752438D02*
X193011904Y-85800057D01*
X193011904Y-85800057D02*
X193059523Y-85895295D01*
X193059523Y-85895295D02*
X193059523Y-85990533D01*
X193059523Y-85990533D02*
X193011904Y-86133390D01*
X193011904Y-86133390D02*
X192440476Y-86704819D01*
X192440476Y-86704819D02*
X193059523Y-86704819D01*
X194011904Y-86704819D02*
X193440476Y-86704819D01*
X193726190Y-86704819D02*
X193726190Y-85704819D01*
X193726190Y-85704819D02*
X193630952Y-85847676D01*
X193630952Y-85847676D02*
X193535714Y-85942914D01*
X193535714Y-85942914D02*
X193440476Y-85990533D01*
X154083333Y-104859580D02*
X154035714Y-104907200D01*
X154035714Y-104907200D02*
X153892857Y-104954819D01*
X153892857Y-104954819D02*
X153797619Y-104954819D01*
X153797619Y-104954819D02*
X153654762Y-104907200D01*
X153654762Y-104907200D02*
X153559524Y-104811961D01*
X153559524Y-104811961D02*
X153511905Y-104716723D01*
X153511905Y-104716723D02*
X153464286Y-104526247D01*
X153464286Y-104526247D02*
X153464286Y-104383390D01*
X153464286Y-104383390D02*
X153511905Y-104192914D01*
X153511905Y-104192914D02*
X153559524Y-104097676D01*
X153559524Y-104097676D02*
X153654762Y-104002438D01*
X153654762Y-104002438D02*
X153797619Y-103954819D01*
X153797619Y-103954819D02*
X153892857Y-103954819D01*
X153892857Y-103954819D02*
X154035714Y-104002438D01*
X154035714Y-104002438D02*
X154083333Y-104050057D01*
X154988095Y-103954819D02*
X154511905Y-103954819D01*
X154511905Y-103954819D02*
X154464286Y-104431009D01*
X154464286Y-104431009D02*
X154511905Y-104383390D01*
X154511905Y-104383390D02*
X154607143Y-104335771D01*
X154607143Y-104335771D02*
X154845238Y-104335771D01*
X154845238Y-104335771D02*
X154940476Y-104383390D01*
X154940476Y-104383390D02*
X154988095Y-104431009D01*
X154988095Y-104431009D02*
X155035714Y-104526247D01*
X155035714Y-104526247D02*
X155035714Y-104764342D01*
X155035714Y-104764342D02*
X154988095Y-104859580D01*
X154988095Y-104859580D02*
X154940476Y-104907200D01*
X154940476Y-104907200D02*
X154845238Y-104954819D01*
X154845238Y-104954819D02*
X154607143Y-104954819D01*
X154607143Y-104954819D02*
X154511905Y-104907200D01*
X154511905Y-104907200D02*
X154464286Y-104859580D01*
X153933333Y-114754819D02*
X153600000Y-114278628D01*
X153361905Y-114754819D02*
X153361905Y-113754819D01*
X153361905Y-113754819D02*
X153742857Y-113754819D01*
X153742857Y-113754819D02*
X153838095Y-113802438D01*
X153838095Y-113802438D02*
X153885714Y-113850057D01*
X153885714Y-113850057D02*
X153933333Y-113945295D01*
X153933333Y-113945295D02*
X153933333Y-114088152D01*
X153933333Y-114088152D02*
X153885714Y-114183390D01*
X153885714Y-114183390D02*
X153838095Y-114231009D01*
X153838095Y-114231009D02*
X153742857Y-114278628D01*
X153742857Y-114278628D02*
X153361905Y-114278628D01*
X154314286Y-113850057D02*
X154361905Y-113802438D01*
X154361905Y-113802438D02*
X154457143Y-113754819D01*
X154457143Y-113754819D02*
X154695238Y-113754819D01*
X154695238Y-113754819D02*
X154790476Y-113802438D01*
X154790476Y-113802438D02*
X154838095Y-113850057D01*
X154838095Y-113850057D02*
X154885714Y-113945295D01*
X154885714Y-113945295D02*
X154885714Y-114040533D01*
X154885714Y-114040533D02*
X154838095Y-114183390D01*
X154838095Y-114183390D02*
X154266667Y-114754819D01*
X154266667Y-114754819D02*
X154885714Y-114754819D01*
X197607142Y-83609580D02*
X197559523Y-83657200D01*
X197559523Y-83657200D02*
X197416666Y-83704819D01*
X197416666Y-83704819D02*
X197321428Y-83704819D01*
X197321428Y-83704819D02*
X197178571Y-83657200D01*
X197178571Y-83657200D02*
X197083333Y-83561961D01*
X197083333Y-83561961D02*
X197035714Y-83466723D01*
X197035714Y-83466723D02*
X196988095Y-83276247D01*
X196988095Y-83276247D02*
X196988095Y-83133390D01*
X196988095Y-83133390D02*
X197035714Y-82942914D01*
X197035714Y-82942914D02*
X197083333Y-82847676D01*
X197083333Y-82847676D02*
X197178571Y-82752438D01*
X197178571Y-82752438D02*
X197321428Y-82704819D01*
X197321428Y-82704819D02*
X197416666Y-82704819D01*
X197416666Y-82704819D02*
X197559523Y-82752438D01*
X197559523Y-82752438D02*
X197607142Y-82800057D01*
X198559523Y-83704819D02*
X197988095Y-83704819D01*
X198273809Y-83704819D02*
X198273809Y-82704819D01*
X198273809Y-82704819D02*
X198178571Y-82847676D01*
X198178571Y-82847676D02*
X198083333Y-82942914D01*
X198083333Y-82942914D02*
X197988095Y-82990533D01*
X199416666Y-82704819D02*
X199226190Y-82704819D01*
X199226190Y-82704819D02*
X199130952Y-82752438D01*
X199130952Y-82752438D02*
X199083333Y-82800057D01*
X199083333Y-82800057D02*
X198988095Y-82942914D01*
X198988095Y-82942914D02*
X198940476Y-83133390D01*
X198940476Y-83133390D02*
X198940476Y-83514342D01*
X198940476Y-83514342D02*
X198988095Y-83609580D01*
X198988095Y-83609580D02*
X199035714Y-83657200D01*
X199035714Y-83657200D02*
X199130952Y-83704819D01*
X199130952Y-83704819D02*
X199321428Y-83704819D01*
X199321428Y-83704819D02*
X199416666Y-83657200D01*
X199416666Y-83657200D02*
X199464285Y-83609580D01*
X199464285Y-83609580D02*
X199511904Y-83514342D01*
X199511904Y-83514342D02*
X199511904Y-83276247D01*
X199511904Y-83276247D02*
X199464285Y-83181009D01*
X199464285Y-83181009D02*
X199416666Y-83133390D01*
X199416666Y-83133390D02*
X199321428Y-83085771D01*
X199321428Y-83085771D02*
X199130952Y-83085771D01*
X199130952Y-83085771D02*
X199035714Y-83133390D01*
X199035714Y-83133390D02*
X198988095Y-83181009D01*
X198988095Y-83181009D02*
X198940476Y-83276247D01*
X164357142Y-98109580D02*
X164309523Y-98157200D01*
X164309523Y-98157200D02*
X164166666Y-98204819D01*
X164166666Y-98204819D02*
X164071428Y-98204819D01*
X164071428Y-98204819D02*
X163928571Y-98157200D01*
X163928571Y-98157200D02*
X163833333Y-98061961D01*
X163833333Y-98061961D02*
X163785714Y-97966723D01*
X163785714Y-97966723D02*
X163738095Y-97776247D01*
X163738095Y-97776247D02*
X163738095Y-97633390D01*
X163738095Y-97633390D02*
X163785714Y-97442914D01*
X163785714Y-97442914D02*
X163833333Y-97347676D01*
X163833333Y-97347676D02*
X163928571Y-97252438D01*
X163928571Y-97252438D02*
X164071428Y-97204819D01*
X164071428Y-97204819D02*
X164166666Y-97204819D01*
X164166666Y-97204819D02*
X164309523Y-97252438D01*
X164309523Y-97252438D02*
X164357142Y-97300057D01*
X164690476Y-97204819D02*
X165309523Y-97204819D01*
X165309523Y-97204819D02*
X164976190Y-97585771D01*
X164976190Y-97585771D02*
X165119047Y-97585771D01*
X165119047Y-97585771D02*
X165214285Y-97633390D01*
X165214285Y-97633390D02*
X165261904Y-97681009D01*
X165261904Y-97681009D02*
X165309523Y-97776247D01*
X165309523Y-97776247D02*
X165309523Y-98014342D01*
X165309523Y-98014342D02*
X165261904Y-98109580D01*
X165261904Y-98109580D02*
X165214285Y-98157200D01*
X165214285Y-98157200D02*
X165119047Y-98204819D01*
X165119047Y-98204819D02*
X164833333Y-98204819D01*
X164833333Y-98204819D02*
X164738095Y-98157200D01*
X164738095Y-98157200D02*
X164690476Y-98109580D01*
X165642857Y-97204819D02*
X166261904Y-97204819D01*
X166261904Y-97204819D02*
X165928571Y-97585771D01*
X165928571Y-97585771D02*
X166071428Y-97585771D01*
X166071428Y-97585771D02*
X166166666Y-97633390D01*
X166166666Y-97633390D02*
X166214285Y-97681009D01*
X166214285Y-97681009D02*
X166261904Y-97776247D01*
X166261904Y-97776247D02*
X166261904Y-98014342D01*
X166261904Y-98014342D02*
X166214285Y-98109580D01*
X166214285Y-98109580D02*
X166166666Y-98157200D01*
X166166666Y-98157200D02*
X166071428Y-98204819D01*
X166071428Y-98204819D02*
X165785714Y-98204819D01*
X165785714Y-98204819D02*
X165690476Y-98157200D01*
X165690476Y-98157200D02*
X165642857Y-98109580D01*
X202466666Y-132854819D02*
X202466666Y-133569104D01*
X202466666Y-133569104D02*
X202419047Y-133711961D01*
X202419047Y-133711961D02*
X202323809Y-133807200D01*
X202323809Y-133807200D02*
X202180952Y-133854819D01*
X202180952Y-133854819D02*
X202085714Y-133854819D01*
X203371428Y-133188152D02*
X203371428Y-133854819D01*
X203133333Y-132807200D02*
X202895238Y-133521485D01*
X202895238Y-133521485D02*
X203514285Y-133521485D01*
X156785714Y-91854819D02*
X157119047Y-92854819D01*
X157119047Y-92854819D02*
X157452380Y-91854819D01*
X157547619Y-92950057D02*
X158309523Y-92950057D01*
X158880952Y-92331009D02*
X159023809Y-92378628D01*
X159023809Y-92378628D02*
X159071428Y-92426247D01*
X159071428Y-92426247D02*
X159119047Y-92521485D01*
X159119047Y-92521485D02*
X159119047Y-92664342D01*
X159119047Y-92664342D02*
X159071428Y-92759580D01*
X159071428Y-92759580D02*
X159023809Y-92807200D01*
X159023809Y-92807200D02*
X158928571Y-92854819D01*
X158928571Y-92854819D02*
X158547619Y-92854819D01*
X158547619Y-92854819D02*
X158547619Y-91854819D01*
X158547619Y-91854819D02*
X158880952Y-91854819D01*
X158880952Y-91854819D02*
X158976190Y-91902438D01*
X158976190Y-91902438D02*
X159023809Y-91950057D01*
X159023809Y-91950057D02*
X159071428Y-92045295D01*
X159071428Y-92045295D02*
X159071428Y-92140533D01*
X159071428Y-92140533D02*
X159023809Y-92235771D01*
X159023809Y-92235771D02*
X158976190Y-92283390D01*
X158976190Y-92283390D02*
X158880952Y-92331009D01*
X158880952Y-92331009D02*
X158547619Y-92331009D01*
X172557142Y-79854819D02*
X172223809Y-79378628D01*
X171985714Y-79854819D02*
X171985714Y-78854819D01*
X171985714Y-78854819D02*
X172366666Y-78854819D01*
X172366666Y-78854819D02*
X172461904Y-78902438D01*
X172461904Y-78902438D02*
X172509523Y-78950057D01*
X172509523Y-78950057D02*
X172557142Y-79045295D01*
X172557142Y-79045295D02*
X172557142Y-79188152D01*
X172557142Y-79188152D02*
X172509523Y-79283390D01*
X172509523Y-79283390D02*
X172461904Y-79331009D01*
X172461904Y-79331009D02*
X172366666Y-79378628D01*
X172366666Y-79378628D02*
X171985714Y-79378628D01*
X173509523Y-79854819D02*
X172938095Y-79854819D01*
X173223809Y-79854819D02*
X173223809Y-78854819D01*
X173223809Y-78854819D02*
X173128571Y-78997676D01*
X173128571Y-78997676D02*
X173033333Y-79092914D01*
X173033333Y-79092914D02*
X172938095Y-79140533D01*
X174128571Y-78854819D02*
X174223809Y-78854819D01*
X174223809Y-78854819D02*
X174319047Y-78902438D01*
X174319047Y-78902438D02*
X174366666Y-78950057D01*
X174366666Y-78950057D02*
X174414285Y-79045295D01*
X174414285Y-79045295D02*
X174461904Y-79235771D01*
X174461904Y-79235771D02*
X174461904Y-79473866D01*
X174461904Y-79473866D02*
X174414285Y-79664342D01*
X174414285Y-79664342D02*
X174366666Y-79759580D01*
X174366666Y-79759580D02*
X174319047Y-79807200D01*
X174319047Y-79807200D02*
X174223809Y-79854819D01*
X174223809Y-79854819D02*
X174128571Y-79854819D01*
X174128571Y-79854819D02*
X174033333Y-79807200D01*
X174033333Y-79807200D02*
X173985714Y-79759580D01*
X173985714Y-79759580D02*
X173938095Y-79664342D01*
X173938095Y-79664342D02*
X173890476Y-79473866D01*
X173890476Y-79473866D02*
X173890476Y-79235771D01*
X173890476Y-79235771D02*
X173938095Y-79045295D01*
X173938095Y-79045295D02*
X173985714Y-78950057D01*
X173985714Y-78950057D02*
X174033333Y-78902438D01*
X174033333Y-78902438D02*
X174128571Y-78854819D01*
X190035714Y-114854819D02*
X190369047Y-115854819D01*
X190369047Y-115854819D02*
X190702380Y-114854819D01*
X190797619Y-115950057D02*
X191559523Y-115950057D01*
X192130952Y-115331009D02*
X192273809Y-115378628D01*
X192273809Y-115378628D02*
X192321428Y-115426247D01*
X192321428Y-115426247D02*
X192369047Y-115521485D01*
X192369047Y-115521485D02*
X192369047Y-115664342D01*
X192369047Y-115664342D02*
X192321428Y-115759580D01*
X192321428Y-115759580D02*
X192273809Y-115807200D01*
X192273809Y-115807200D02*
X192178571Y-115854819D01*
X192178571Y-115854819D02*
X191797619Y-115854819D01*
X191797619Y-115854819D02*
X191797619Y-114854819D01*
X191797619Y-114854819D02*
X192130952Y-114854819D01*
X192130952Y-114854819D02*
X192226190Y-114902438D01*
X192226190Y-114902438D02*
X192273809Y-114950057D01*
X192273809Y-114950057D02*
X192321428Y-115045295D01*
X192321428Y-115045295D02*
X192321428Y-115140533D01*
X192321428Y-115140533D02*
X192273809Y-115235771D01*
X192273809Y-115235771D02*
X192226190Y-115283390D01*
X192226190Y-115283390D02*
X192130952Y-115331009D01*
X192130952Y-115331009D02*
X191797619Y-115331009D01*
X146785714Y-134554819D02*
X146785714Y-133554819D01*
X146785714Y-133554819D02*
X147023809Y-133554819D01*
X147023809Y-133554819D02*
X147166666Y-133602438D01*
X147166666Y-133602438D02*
X147261904Y-133697676D01*
X147261904Y-133697676D02*
X147309523Y-133792914D01*
X147309523Y-133792914D02*
X147357142Y-133983390D01*
X147357142Y-133983390D02*
X147357142Y-134126247D01*
X147357142Y-134126247D02*
X147309523Y-134316723D01*
X147309523Y-134316723D02*
X147261904Y-134411961D01*
X147261904Y-134411961D02*
X147166666Y-134507200D01*
X147166666Y-134507200D02*
X147023809Y-134554819D01*
X147023809Y-134554819D02*
X146785714Y-134554819D01*
X148309523Y-134554819D02*
X147738095Y-134554819D01*
X148023809Y-134554819D02*
X148023809Y-133554819D01*
X148023809Y-133554819D02*
X147928571Y-133697676D01*
X147928571Y-133697676D02*
X147833333Y-133792914D01*
X147833333Y-133792914D02*
X147738095Y-133840533D01*
X148642857Y-133554819D02*
X149309523Y-133554819D01*
X149309523Y-133554819D02*
X148880952Y-134554819D01*
X151771428Y-131236304D02*
X152228571Y-131236304D01*
X151999999Y-131236304D02*
X151999999Y-132036304D01*
X151999999Y-132036304D02*
X152076190Y-131922019D01*
X152076190Y-131922019D02*
X152152380Y-131845828D01*
X152152380Y-131845828D02*
X152228571Y-131807733D01*
X134285714Y-81754819D02*
X134285714Y-80754819D01*
X134285714Y-80754819D02*
X134523809Y-80754819D01*
X134523809Y-80754819D02*
X134666666Y-80802438D01*
X134666666Y-80802438D02*
X134761904Y-80897676D01*
X134761904Y-80897676D02*
X134809523Y-80992914D01*
X134809523Y-80992914D02*
X134857142Y-81183390D01*
X134857142Y-81183390D02*
X134857142Y-81326247D01*
X134857142Y-81326247D02*
X134809523Y-81516723D01*
X134809523Y-81516723D02*
X134761904Y-81611961D01*
X134761904Y-81611961D02*
X134666666Y-81707200D01*
X134666666Y-81707200D02*
X134523809Y-81754819D01*
X134523809Y-81754819D02*
X134285714Y-81754819D01*
X135809523Y-81754819D02*
X135238095Y-81754819D01*
X135523809Y-81754819D02*
X135523809Y-80754819D01*
X135523809Y-80754819D02*
X135428571Y-80897676D01*
X135428571Y-80897676D02*
X135333333Y-80992914D01*
X135333333Y-80992914D02*
X135238095Y-81040533D01*
X136428571Y-80754819D02*
X136523809Y-80754819D01*
X136523809Y-80754819D02*
X136619047Y-80802438D01*
X136619047Y-80802438D02*
X136666666Y-80850057D01*
X136666666Y-80850057D02*
X136714285Y-80945295D01*
X136714285Y-80945295D02*
X136761904Y-81135771D01*
X136761904Y-81135771D02*
X136761904Y-81373866D01*
X136761904Y-81373866D02*
X136714285Y-81564342D01*
X136714285Y-81564342D02*
X136666666Y-81659580D01*
X136666666Y-81659580D02*
X136619047Y-81707200D01*
X136619047Y-81707200D02*
X136523809Y-81754819D01*
X136523809Y-81754819D02*
X136428571Y-81754819D01*
X136428571Y-81754819D02*
X136333333Y-81707200D01*
X136333333Y-81707200D02*
X136285714Y-81659580D01*
X136285714Y-81659580D02*
X136238095Y-81564342D01*
X136238095Y-81564342D02*
X136190476Y-81373866D01*
X136190476Y-81373866D02*
X136190476Y-81135771D01*
X136190476Y-81135771D02*
X136238095Y-80945295D01*
X136238095Y-80945295D02*
X136285714Y-80850057D01*
X136285714Y-80850057D02*
X136333333Y-80802438D01*
X136333333Y-80802438D02*
X136428571Y-80754819D01*
X134144971Y-83925095D02*
X133687828Y-83925095D01*
X133916400Y-83925095D02*
X133916400Y-83125095D01*
X133916400Y-83125095D02*
X133840209Y-83239380D01*
X133840209Y-83239380D02*
X133764019Y-83315571D01*
X133764019Y-83315571D02*
X133687828Y-83353666D01*
X180833333Y-81454819D02*
X180500000Y-80978628D01*
X180261905Y-81454819D02*
X180261905Y-80454819D01*
X180261905Y-80454819D02*
X180642857Y-80454819D01*
X180642857Y-80454819D02*
X180738095Y-80502438D01*
X180738095Y-80502438D02*
X180785714Y-80550057D01*
X180785714Y-80550057D02*
X180833333Y-80645295D01*
X180833333Y-80645295D02*
X180833333Y-80788152D01*
X180833333Y-80788152D02*
X180785714Y-80883390D01*
X180785714Y-80883390D02*
X180738095Y-80931009D01*
X180738095Y-80931009D02*
X180642857Y-80978628D01*
X180642857Y-80978628D02*
X180261905Y-80978628D01*
X181785714Y-81454819D02*
X181214286Y-81454819D01*
X181500000Y-81454819D02*
X181500000Y-80454819D01*
X181500000Y-80454819D02*
X181404762Y-80597676D01*
X181404762Y-80597676D02*
X181309524Y-80692914D01*
X181309524Y-80692914D02*
X181214286Y-80740533D01*
X183788419Y-85488094D02*
X182788419Y-85488094D01*
X182788419Y-85488094D02*
X182788419Y-85249999D01*
X182788419Y-85249999D02*
X182836038Y-85107142D01*
X182836038Y-85107142D02*
X182931276Y-85011904D01*
X182931276Y-85011904D02*
X183026514Y-84964285D01*
X183026514Y-84964285D02*
X183216990Y-84916666D01*
X183216990Y-84916666D02*
X183359847Y-84916666D01*
X183359847Y-84916666D02*
X183550323Y-84964285D01*
X183550323Y-84964285D02*
X183645561Y-85011904D01*
X183645561Y-85011904D02*
X183740800Y-85107142D01*
X183740800Y-85107142D02*
X183788419Y-85249999D01*
X183788419Y-85249999D02*
X183788419Y-85488094D01*
X182788419Y-84059523D02*
X182788419Y-84249999D01*
X182788419Y-84249999D02*
X182836038Y-84345237D01*
X182836038Y-84345237D02*
X182883657Y-84392856D01*
X182883657Y-84392856D02*
X183026514Y-84488094D01*
X183026514Y-84488094D02*
X183216990Y-84535713D01*
X183216990Y-84535713D02*
X183597942Y-84535713D01*
X183597942Y-84535713D02*
X183693180Y-84488094D01*
X183693180Y-84488094D02*
X183740800Y-84440475D01*
X183740800Y-84440475D02*
X183788419Y-84345237D01*
X183788419Y-84345237D02*
X183788419Y-84154761D01*
X183788419Y-84154761D02*
X183740800Y-84059523D01*
X183740800Y-84059523D02*
X183693180Y-84011904D01*
X183693180Y-84011904D02*
X183597942Y-83964285D01*
X183597942Y-83964285D02*
X183359847Y-83964285D01*
X183359847Y-83964285D02*
X183264609Y-84011904D01*
X183264609Y-84011904D02*
X183216990Y-84059523D01*
X183216990Y-84059523D02*
X183169371Y-84154761D01*
X183169371Y-84154761D02*
X183169371Y-84345237D01*
X183169371Y-84345237D02*
X183216990Y-84440475D01*
X183216990Y-84440475D02*
X183264609Y-84488094D01*
X183264609Y-84488094D02*
X183359847Y-84535713D01*
X167857142Y-109454819D02*
X167523809Y-108978628D01*
X167285714Y-109454819D02*
X167285714Y-108454819D01*
X167285714Y-108454819D02*
X167666666Y-108454819D01*
X167666666Y-108454819D02*
X167761904Y-108502438D01*
X167761904Y-108502438D02*
X167809523Y-108550057D01*
X167809523Y-108550057D02*
X167857142Y-108645295D01*
X167857142Y-108645295D02*
X167857142Y-108788152D01*
X167857142Y-108788152D02*
X167809523Y-108883390D01*
X167809523Y-108883390D02*
X167761904Y-108931009D01*
X167761904Y-108931009D02*
X167666666Y-108978628D01*
X167666666Y-108978628D02*
X167285714Y-108978628D01*
X168809523Y-109454819D02*
X168238095Y-109454819D01*
X168523809Y-109454819D02*
X168523809Y-108454819D01*
X168523809Y-108454819D02*
X168428571Y-108597676D01*
X168428571Y-108597676D02*
X168333333Y-108692914D01*
X168333333Y-108692914D02*
X168238095Y-108740533D01*
X169142857Y-108454819D02*
X169761904Y-108454819D01*
X169761904Y-108454819D02*
X169428571Y-108835771D01*
X169428571Y-108835771D02*
X169571428Y-108835771D01*
X169571428Y-108835771D02*
X169666666Y-108883390D01*
X169666666Y-108883390D02*
X169714285Y-108931009D01*
X169714285Y-108931009D02*
X169761904Y-109026247D01*
X169761904Y-109026247D02*
X169761904Y-109264342D01*
X169761904Y-109264342D02*
X169714285Y-109359580D01*
X169714285Y-109359580D02*
X169666666Y-109407200D01*
X169666666Y-109407200D02*
X169571428Y-109454819D01*
X169571428Y-109454819D02*
X169285714Y-109454819D01*
X169285714Y-109454819D02*
X169190476Y-109407200D01*
X169190476Y-109407200D02*
X169142857Y-109359580D01*
X168857142Y-96204819D02*
X168523809Y-95728628D01*
X168285714Y-96204819D02*
X168285714Y-95204819D01*
X168285714Y-95204819D02*
X168666666Y-95204819D01*
X168666666Y-95204819D02*
X168761904Y-95252438D01*
X168761904Y-95252438D02*
X168809523Y-95300057D01*
X168809523Y-95300057D02*
X168857142Y-95395295D01*
X168857142Y-95395295D02*
X168857142Y-95538152D01*
X168857142Y-95538152D02*
X168809523Y-95633390D01*
X168809523Y-95633390D02*
X168761904Y-95681009D01*
X168761904Y-95681009D02*
X168666666Y-95728628D01*
X168666666Y-95728628D02*
X168285714Y-95728628D01*
X169809523Y-96204819D02*
X169238095Y-96204819D01*
X169523809Y-96204819D02*
X169523809Y-95204819D01*
X169523809Y-95204819D02*
X169428571Y-95347676D01*
X169428571Y-95347676D02*
X169333333Y-95442914D01*
X169333333Y-95442914D02*
X169238095Y-95490533D01*
X170761904Y-96204819D02*
X170190476Y-96204819D01*
X170476190Y-96204819D02*
X170476190Y-95204819D01*
X170476190Y-95204819D02*
X170380952Y-95347676D01*
X170380952Y-95347676D02*
X170285714Y-95442914D01*
X170285714Y-95442914D02*
X170190476Y-95490533D01*
X169785714Y-88954819D02*
X170119047Y-89954819D01*
X170119047Y-89954819D02*
X170452380Y-88954819D01*
X170547619Y-90050057D02*
X171309523Y-90050057D01*
X171547619Y-89954819D02*
X171547619Y-88954819D01*
X171547619Y-88954819D02*
X171785714Y-88954819D01*
X171785714Y-88954819D02*
X171928571Y-89002438D01*
X171928571Y-89002438D02*
X172023809Y-89097676D01*
X172023809Y-89097676D02*
X172071428Y-89192914D01*
X172071428Y-89192914D02*
X172119047Y-89383390D01*
X172119047Y-89383390D02*
X172119047Y-89526247D01*
X172119047Y-89526247D02*
X172071428Y-89716723D01*
X172071428Y-89716723D02*
X172023809Y-89811961D01*
X172023809Y-89811961D02*
X171928571Y-89907200D01*
X171928571Y-89907200D02*
X171785714Y-89954819D01*
X171785714Y-89954819D02*
X171547619Y-89954819D01*
X168857142Y-94609580D02*
X168809523Y-94657200D01*
X168809523Y-94657200D02*
X168666666Y-94704819D01*
X168666666Y-94704819D02*
X168571428Y-94704819D01*
X168571428Y-94704819D02*
X168428571Y-94657200D01*
X168428571Y-94657200D02*
X168333333Y-94561961D01*
X168333333Y-94561961D02*
X168285714Y-94466723D01*
X168285714Y-94466723D02*
X168238095Y-94276247D01*
X168238095Y-94276247D02*
X168238095Y-94133390D01*
X168238095Y-94133390D02*
X168285714Y-93942914D01*
X168285714Y-93942914D02*
X168333333Y-93847676D01*
X168333333Y-93847676D02*
X168428571Y-93752438D01*
X168428571Y-93752438D02*
X168571428Y-93704819D01*
X168571428Y-93704819D02*
X168666666Y-93704819D01*
X168666666Y-93704819D02*
X168809523Y-93752438D01*
X168809523Y-93752438D02*
X168857142Y-93800057D01*
X169809523Y-94704819D02*
X169238095Y-94704819D01*
X169523809Y-94704819D02*
X169523809Y-93704819D01*
X169523809Y-93704819D02*
X169428571Y-93847676D01*
X169428571Y-93847676D02*
X169333333Y-93942914D01*
X169333333Y-93942914D02*
X169238095Y-93990533D01*
X170761904Y-94704819D02*
X170190476Y-94704819D01*
X170476190Y-94704819D02*
X170476190Y-93704819D01*
X170476190Y-93704819D02*
X170380952Y-93847676D01*
X170380952Y-93847676D02*
X170285714Y-93942914D01*
X170285714Y-93942914D02*
X170190476Y-93990533D01*
X158566666Y-78531009D02*
X158233333Y-78531009D01*
X158233333Y-79054819D02*
X158233333Y-78054819D01*
X158233333Y-78054819D02*
X158709523Y-78054819D01*
X158995238Y-78054819D02*
X159614285Y-78054819D01*
X159614285Y-78054819D02*
X159280952Y-78435771D01*
X159280952Y-78435771D02*
X159423809Y-78435771D01*
X159423809Y-78435771D02*
X159519047Y-78483390D01*
X159519047Y-78483390D02*
X159566666Y-78531009D01*
X159566666Y-78531009D02*
X159614285Y-78626247D01*
X159614285Y-78626247D02*
X159614285Y-78864342D01*
X159614285Y-78864342D02*
X159566666Y-78959580D01*
X159566666Y-78959580D02*
X159519047Y-79007200D01*
X159519047Y-79007200D02*
X159423809Y-79054819D01*
X159423809Y-79054819D02*
X159138095Y-79054819D01*
X159138095Y-79054819D02*
X159042857Y-79007200D01*
X159042857Y-79007200D02*
X158995238Y-78959580D01*
X180857142Y-79954819D02*
X180523809Y-79478628D01*
X180285714Y-79954819D02*
X180285714Y-78954819D01*
X180285714Y-78954819D02*
X180666666Y-78954819D01*
X180666666Y-78954819D02*
X180761904Y-79002438D01*
X180761904Y-79002438D02*
X180809523Y-79050057D01*
X180809523Y-79050057D02*
X180857142Y-79145295D01*
X180857142Y-79145295D02*
X180857142Y-79288152D01*
X180857142Y-79288152D02*
X180809523Y-79383390D01*
X180809523Y-79383390D02*
X180761904Y-79431009D01*
X180761904Y-79431009D02*
X180666666Y-79478628D01*
X180666666Y-79478628D02*
X180285714Y-79478628D01*
X181809523Y-79954819D02*
X181238095Y-79954819D01*
X181523809Y-79954819D02*
X181523809Y-78954819D01*
X181523809Y-78954819D02*
X181428571Y-79097676D01*
X181428571Y-79097676D02*
X181333333Y-79192914D01*
X181333333Y-79192914D02*
X181238095Y-79240533D01*
X182285714Y-79954819D02*
X182476190Y-79954819D01*
X182476190Y-79954819D02*
X182571428Y-79907200D01*
X182571428Y-79907200D02*
X182619047Y-79859580D01*
X182619047Y-79859580D02*
X182714285Y-79716723D01*
X182714285Y-79716723D02*
X182761904Y-79526247D01*
X182761904Y-79526247D02*
X182761904Y-79145295D01*
X182761904Y-79145295D02*
X182714285Y-79050057D01*
X182714285Y-79050057D02*
X182666666Y-79002438D01*
X182666666Y-79002438D02*
X182571428Y-78954819D01*
X182571428Y-78954819D02*
X182380952Y-78954819D01*
X182380952Y-78954819D02*
X182285714Y-79002438D01*
X182285714Y-79002438D02*
X182238095Y-79050057D01*
X182238095Y-79050057D02*
X182190476Y-79145295D01*
X182190476Y-79145295D02*
X182190476Y-79383390D01*
X182190476Y-79383390D02*
X182238095Y-79478628D01*
X182238095Y-79478628D02*
X182285714Y-79526247D01*
X182285714Y-79526247D02*
X182380952Y-79573866D01*
X182380952Y-79573866D02*
X182571428Y-79573866D01*
X182571428Y-79573866D02*
X182666666Y-79526247D01*
X182666666Y-79526247D02*
X182714285Y-79478628D01*
X182714285Y-79478628D02*
X182761904Y-79383390D01*
X165757142Y-81346845D02*
X165709523Y-81394465D01*
X165709523Y-81394465D02*
X165566666Y-81442084D01*
X165566666Y-81442084D02*
X165471428Y-81442084D01*
X165471428Y-81442084D02*
X165328571Y-81394465D01*
X165328571Y-81394465D02*
X165233333Y-81299226D01*
X165233333Y-81299226D02*
X165185714Y-81203988D01*
X165185714Y-81203988D02*
X165138095Y-81013512D01*
X165138095Y-81013512D02*
X165138095Y-80870655D01*
X165138095Y-80870655D02*
X165185714Y-80680179D01*
X165185714Y-80680179D02*
X165233333Y-80584941D01*
X165233333Y-80584941D02*
X165328571Y-80489703D01*
X165328571Y-80489703D02*
X165471428Y-80442084D01*
X165471428Y-80442084D02*
X165566666Y-80442084D01*
X165566666Y-80442084D02*
X165709523Y-80489703D01*
X165709523Y-80489703D02*
X165757142Y-80537322D01*
X166090476Y-80442084D02*
X166709523Y-80442084D01*
X166709523Y-80442084D02*
X166376190Y-80823036D01*
X166376190Y-80823036D02*
X166519047Y-80823036D01*
X166519047Y-80823036D02*
X166614285Y-80870655D01*
X166614285Y-80870655D02*
X166661904Y-80918274D01*
X166661904Y-80918274D02*
X166709523Y-81013512D01*
X166709523Y-81013512D02*
X166709523Y-81251607D01*
X166709523Y-81251607D02*
X166661904Y-81346845D01*
X166661904Y-81346845D02*
X166614285Y-81394465D01*
X166614285Y-81394465D02*
X166519047Y-81442084D01*
X166519047Y-81442084D02*
X166233333Y-81442084D01*
X166233333Y-81442084D02*
X166138095Y-81394465D01*
X166138095Y-81394465D02*
X166090476Y-81346845D01*
X167328571Y-80442084D02*
X167423809Y-80442084D01*
X167423809Y-80442084D02*
X167519047Y-80489703D01*
X167519047Y-80489703D02*
X167566666Y-80537322D01*
X167566666Y-80537322D02*
X167614285Y-80632560D01*
X167614285Y-80632560D02*
X167661904Y-80823036D01*
X167661904Y-80823036D02*
X167661904Y-81061131D01*
X167661904Y-81061131D02*
X167614285Y-81251607D01*
X167614285Y-81251607D02*
X167566666Y-81346845D01*
X167566666Y-81346845D02*
X167519047Y-81394465D01*
X167519047Y-81394465D02*
X167423809Y-81442084D01*
X167423809Y-81442084D02*
X167328571Y-81442084D01*
X167328571Y-81442084D02*
X167233333Y-81394465D01*
X167233333Y-81394465D02*
X167185714Y-81346845D01*
X167185714Y-81346845D02*
X167138095Y-81251607D01*
X167138095Y-81251607D02*
X167090476Y-81061131D01*
X167090476Y-81061131D02*
X167090476Y-80823036D01*
X167090476Y-80823036D02*
X167138095Y-80632560D01*
X167138095Y-80632560D02*
X167185714Y-80537322D01*
X167185714Y-80537322D02*
X167233333Y-80489703D01*
X167233333Y-80489703D02*
X167328571Y-80442084D01*
X180233333Y-123259580D02*
X180185714Y-123307200D01*
X180185714Y-123307200D02*
X180042857Y-123354819D01*
X180042857Y-123354819D02*
X179947619Y-123354819D01*
X179947619Y-123354819D02*
X179804762Y-123307200D01*
X179804762Y-123307200D02*
X179709524Y-123211961D01*
X179709524Y-123211961D02*
X179661905Y-123116723D01*
X179661905Y-123116723D02*
X179614286Y-122926247D01*
X179614286Y-122926247D02*
X179614286Y-122783390D01*
X179614286Y-122783390D02*
X179661905Y-122592914D01*
X179661905Y-122592914D02*
X179709524Y-122497676D01*
X179709524Y-122497676D02*
X179804762Y-122402438D01*
X179804762Y-122402438D02*
X179947619Y-122354819D01*
X179947619Y-122354819D02*
X180042857Y-122354819D01*
X180042857Y-122354819D02*
X180185714Y-122402438D01*
X180185714Y-122402438D02*
X180233333Y-122450057D01*
X180804762Y-122783390D02*
X180709524Y-122735771D01*
X180709524Y-122735771D02*
X180661905Y-122688152D01*
X180661905Y-122688152D02*
X180614286Y-122592914D01*
X180614286Y-122592914D02*
X180614286Y-122545295D01*
X180614286Y-122545295D02*
X180661905Y-122450057D01*
X180661905Y-122450057D02*
X180709524Y-122402438D01*
X180709524Y-122402438D02*
X180804762Y-122354819D01*
X180804762Y-122354819D02*
X180995238Y-122354819D01*
X180995238Y-122354819D02*
X181090476Y-122402438D01*
X181090476Y-122402438D02*
X181138095Y-122450057D01*
X181138095Y-122450057D02*
X181185714Y-122545295D01*
X181185714Y-122545295D02*
X181185714Y-122592914D01*
X181185714Y-122592914D02*
X181138095Y-122688152D01*
X181138095Y-122688152D02*
X181090476Y-122735771D01*
X181090476Y-122735771D02*
X180995238Y-122783390D01*
X180995238Y-122783390D02*
X180804762Y-122783390D01*
X180804762Y-122783390D02*
X180709524Y-122831009D01*
X180709524Y-122831009D02*
X180661905Y-122878628D01*
X180661905Y-122878628D02*
X180614286Y-122973866D01*
X180614286Y-122973866D02*
X180614286Y-123164342D01*
X180614286Y-123164342D02*
X180661905Y-123259580D01*
X180661905Y-123259580D02*
X180709524Y-123307200D01*
X180709524Y-123307200D02*
X180804762Y-123354819D01*
X180804762Y-123354819D02*
X180995238Y-123354819D01*
X180995238Y-123354819D02*
X181090476Y-123307200D01*
X181090476Y-123307200D02*
X181138095Y-123259580D01*
X181138095Y-123259580D02*
X181185714Y-123164342D01*
X181185714Y-123164342D02*
X181185714Y-122973866D01*
X181185714Y-122973866D02*
X181138095Y-122878628D01*
X181138095Y-122878628D02*
X181090476Y-122831009D01*
X181090476Y-122831009D02*
X180995238Y-122783390D01*
X136585714Y-124954819D02*
X136585714Y-123954819D01*
X136585714Y-123954819D02*
X136823809Y-123954819D01*
X136823809Y-123954819D02*
X136966666Y-124002438D01*
X136966666Y-124002438D02*
X137061904Y-124097676D01*
X137061904Y-124097676D02*
X137109523Y-124192914D01*
X137109523Y-124192914D02*
X137157142Y-124383390D01*
X137157142Y-124383390D02*
X137157142Y-124526247D01*
X137157142Y-124526247D02*
X137109523Y-124716723D01*
X137109523Y-124716723D02*
X137061904Y-124811961D01*
X137061904Y-124811961D02*
X136966666Y-124907200D01*
X136966666Y-124907200D02*
X136823809Y-124954819D01*
X136823809Y-124954819D02*
X136585714Y-124954819D01*
X138109523Y-124954819D02*
X137538095Y-124954819D01*
X137823809Y-124954819D02*
X137823809Y-123954819D01*
X137823809Y-123954819D02*
X137728571Y-124097676D01*
X137728571Y-124097676D02*
X137633333Y-124192914D01*
X137633333Y-124192914D02*
X137538095Y-124240533D01*
X138966666Y-123954819D02*
X138776190Y-123954819D01*
X138776190Y-123954819D02*
X138680952Y-124002438D01*
X138680952Y-124002438D02*
X138633333Y-124050057D01*
X138633333Y-124050057D02*
X138538095Y-124192914D01*
X138538095Y-124192914D02*
X138490476Y-124383390D01*
X138490476Y-124383390D02*
X138490476Y-124764342D01*
X138490476Y-124764342D02*
X138538095Y-124859580D01*
X138538095Y-124859580D02*
X138585714Y-124907200D01*
X138585714Y-124907200D02*
X138680952Y-124954819D01*
X138680952Y-124954819D02*
X138871428Y-124954819D01*
X138871428Y-124954819D02*
X138966666Y-124907200D01*
X138966666Y-124907200D02*
X139014285Y-124859580D01*
X139014285Y-124859580D02*
X139061904Y-124764342D01*
X139061904Y-124764342D02*
X139061904Y-124526247D01*
X139061904Y-124526247D02*
X139014285Y-124431009D01*
X139014285Y-124431009D02*
X138966666Y-124383390D01*
X138966666Y-124383390D02*
X138871428Y-124335771D01*
X138871428Y-124335771D02*
X138680952Y-124335771D01*
X138680952Y-124335771D02*
X138585714Y-124383390D01*
X138585714Y-124383390D02*
X138538095Y-124431009D01*
X138538095Y-124431009D02*
X138490476Y-124526247D01*
X141687828Y-121815704D02*
X142144971Y-121815704D01*
X141916399Y-121815704D02*
X141916399Y-122615704D01*
X141916399Y-122615704D02*
X141992590Y-122501419D01*
X141992590Y-122501419D02*
X142068780Y-122425228D01*
X142068780Y-122425228D02*
X142144971Y-122387133D01*
X173609524Y-88204819D02*
X174228571Y-88204819D01*
X174228571Y-88204819D02*
X173895238Y-88585771D01*
X173895238Y-88585771D02*
X174038095Y-88585771D01*
X174038095Y-88585771D02*
X174133333Y-88633390D01*
X174133333Y-88633390D02*
X174180952Y-88681009D01*
X174180952Y-88681009D02*
X174228571Y-88776247D01*
X174228571Y-88776247D02*
X174228571Y-89014342D01*
X174228571Y-89014342D02*
X174180952Y-89109580D01*
X174180952Y-89109580D02*
X174133333Y-89157200D01*
X174133333Y-89157200D02*
X174038095Y-89204819D01*
X174038095Y-89204819D02*
X173752381Y-89204819D01*
X173752381Y-89204819D02*
X173657143Y-89157200D01*
X173657143Y-89157200D02*
X173609524Y-89109580D01*
X174561905Y-88538152D02*
X174800000Y-89204819D01*
X174800000Y-89204819D02*
X175038095Y-88538152D01*
X175323810Y-88204819D02*
X175942857Y-88204819D01*
X175942857Y-88204819D02*
X175609524Y-88585771D01*
X175609524Y-88585771D02*
X175752381Y-88585771D01*
X175752381Y-88585771D02*
X175847619Y-88633390D01*
X175847619Y-88633390D02*
X175895238Y-88681009D01*
X175895238Y-88681009D02*
X175942857Y-88776247D01*
X175942857Y-88776247D02*
X175942857Y-89014342D01*
X175942857Y-89014342D02*
X175895238Y-89109580D01*
X175895238Y-89109580D02*
X175847619Y-89157200D01*
X175847619Y-89157200D02*
X175752381Y-89204819D01*
X175752381Y-89204819D02*
X175466667Y-89204819D01*
X175466667Y-89204819D02*
X175371429Y-89157200D01*
X175371429Y-89157200D02*
X175323810Y-89109580D01*
X177542857Y-89931009D02*
X177685714Y-89978628D01*
X177685714Y-89978628D02*
X177733333Y-90026247D01*
X177733333Y-90026247D02*
X177780952Y-90121485D01*
X177780952Y-90121485D02*
X177780952Y-90264342D01*
X177780952Y-90264342D02*
X177733333Y-90359580D01*
X177733333Y-90359580D02*
X177685714Y-90407200D01*
X177685714Y-90407200D02*
X177590476Y-90454819D01*
X177590476Y-90454819D02*
X177209524Y-90454819D01*
X177209524Y-90454819D02*
X177209524Y-89454819D01*
X177209524Y-89454819D02*
X177542857Y-89454819D01*
X177542857Y-89454819D02*
X177638095Y-89502438D01*
X177638095Y-89502438D02*
X177685714Y-89550057D01*
X177685714Y-89550057D02*
X177733333Y-89645295D01*
X177733333Y-89645295D02*
X177733333Y-89740533D01*
X177733333Y-89740533D02*
X177685714Y-89835771D01*
X177685714Y-89835771D02*
X177638095Y-89883390D01*
X177638095Y-89883390D02*
X177542857Y-89931009D01*
X177542857Y-89931009D02*
X177209524Y-89931009D01*
X178400000Y-89454819D02*
X178590476Y-89454819D01*
X178590476Y-89454819D02*
X178685714Y-89502438D01*
X178685714Y-89502438D02*
X178780952Y-89597676D01*
X178780952Y-89597676D02*
X178828571Y-89788152D01*
X178828571Y-89788152D02*
X178828571Y-90121485D01*
X178828571Y-90121485D02*
X178780952Y-90311961D01*
X178780952Y-90311961D02*
X178685714Y-90407200D01*
X178685714Y-90407200D02*
X178590476Y-90454819D01*
X178590476Y-90454819D02*
X178400000Y-90454819D01*
X178400000Y-90454819D02*
X178304762Y-90407200D01*
X178304762Y-90407200D02*
X178209524Y-90311961D01*
X178209524Y-90311961D02*
X178161905Y-90121485D01*
X178161905Y-90121485D02*
X178161905Y-89788152D01*
X178161905Y-89788152D02*
X178209524Y-89597676D01*
X178209524Y-89597676D02*
X178304762Y-89502438D01*
X178304762Y-89502438D02*
X178400000Y-89454819D01*
X179447619Y-89454819D02*
X179638095Y-89454819D01*
X179638095Y-89454819D02*
X179733333Y-89502438D01*
X179733333Y-89502438D02*
X179828571Y-89597676D01*
X179828571Y-89597676D02*
X179876190Y-89788152D01*
X179876190Y-89788152D02*
X179876190Y-90121485D01*
X179876190Y-90121485D02*
X179828571Y-90311961D01*
X179828571Y-90311961D02*
X179733333Y-90407200D01*
X179733333Y-90407200D02*
X179638095Y-90454819D01*
X179638095Y-90454819D02*
X179447619Y-90454819D01*
X179447619Y-90454819D02*
X179352381Y-90407200D01*
X179352381Y-90407200D02*
X179257143Y-90311961D01*
X179257143Y-90311961D02*
X179209524Y-90121485D01*
X179209524Y-90121485D02*
X179209524Y-89788152D01*
X179209524Y-89788152D02*
X179257143Y-89597676D01*
X179257143Y-89597676D02*
X179352381Y-89502438D01*
X179352381Y-89502438D02*
X179447619Y-89454819D01*
X180161905Y-89454819D02*
X180733333Y-89454819D01*
X180447619Y-90454819D02*
X180447619Y-89454819D01*
X164357142Y-96609580D02*
X164309523Y-96657200D01*
X164309523Y-96657200D02*
X164166666Y-96704819D01*
X164166666Y-96704819D02*
X164071428Y-96704819D01*
X164071428Y-96704819D02*
X163928571Y-96657200D01*
X163928571Y-96657200D02*
X163833333Y-96561961D01*
X163833333Y-96561961D02*
X163785714Y-96466723D01*
X163785714Y-96466723D02*
X163738095Y-96276247D01*
X163738095Y-96276247D02*
X163738095Y-96133390D01*
X163738095Y-96133390D02*
X163785714Y-95942914D01*
X163785714Y-95942914D02*
X163833333Y-95847676D01*
X163833333Y-95847676D02*
X163928571Y-95752438D01*
X163928571Y-95752438D02*
X164071428Y-95704819D01*
X164071428Y-95704819D02*
X164166666Y-95704819D01*
X164166666Y-95704819D02*
X164309523Y-95752438D01*
X164309523Y-95752438D02*
X164357142Y-95800057D01*
X164690476Y-95704819D02*
X165309523Y-95704819D01*
X165309523Y-95704819D02*
X164976190Y-96085771D01*
X164976190Y-96085771D02*
X165119047Y-96085771D01*
X165119047Y-96085771D02*
X165214285Y-96133390D01*
X165214285Y-96133390D02*
X165261904Y-96181009D01*
X165261904Y-96181009D02*
X165309523Y-96276247D01*
X165309523Y-96276247D02*
X165309523Y-96514342D01*
X165309523Y-96514342D02*
X165261904Y-96609580D01*
X165261904Y-96609580D02*
X165214285Y-96657200D01*
X165214285Y-96657200D02*
X165119047Y-96704819D01*
X165119047Y-96704819D02*
X164833333Y-96704819D01*
X164833333Y-96704819D02*
X164738095Y-96657200D01*
X164738095Y-96657200D02*
X164690476Y-96609580D01*
X165690476Y-95800057D02*
X165738095Y-95752438D01*
X165738095Y-95752438D02*
X165833333Y-95704819D01*
X165833333Y-95704819D02*
X166071428Y-95704819D01*
X166071428Y-95704819D02*
X166166666Y-95752438D01*
X166166666Y-95752438D02*
X166214285Y-95800057D01*
X166214285Y-95800057D02*
X166261904Y-95895295D01*
X166261904Y-95895295D02*
X166261904Y-95990533D01*
X166261904Y-95990533D02*
X166214285Y-96133390D01*
X166214285Y-96133390D02*
X165642857Y-96704819D01*
X165642857Y-96704819D02*
X166261904Y-96704819D01*
X203607142Y-75454819D02*
X203273809Y-74978628D01*
X203035714Y-75454819D02*
X203035714Y-74454819D01*
X203035714Y-74454819D02*
X203416666Y-74454819D01*
X203416666Y-74454819D02*
X203511904Y-74502438D01*
X203511904Y-74502438D02*
X203559523Y-74550057D01*
X203559523Y-74550057D02*
X203607142Y-74645295D01*
X203607142Y-74645295D02*
X203607142Y-74788152D01*
X203607142Y-74788152D02*
X203559523Y-74883390D01*
X203559523Y-74883390D02*
X203511904Y-74931009D01*
X203511904Y-74931009D02*
X203416666Y-74978628D01*
X203416666Y-74978628D02*
X203035714Y-74978628D01*
X203988095Y-74550057D02*
X204035714Y-74502438D01*
X204035714Y-74502438D02*
X204130952Y-74454819D01*
X204130952Y-74454819D02*
X204369047Y-74454819D01*
X204369047Y-74454819D02*
X204464285Y-74502438D01*
X204464285Y-74502438D02*
X204511904Y-74550057D01*
X204511904Y-74550057D02*
X204559523Y-74645295D01*
X204559523Y-74645295D02*
X204559523Y-74740533D01*
X204559523Y-74740533D02*
X204511904Y-74883390D01*
X204511904Y-74883390D02*
X203940476Y-75454819D01*
X203940476Y-75454819D02*
X204559523Y-75454819D01*
X204940476Y-74550057D02*
X204988095Y-74502438D01*
X204988095Y-74502438D02*
X205083333Y-74454819D01*
X205083333Y-74454819D02*
X205321428Y-74454819D01*
X205321428Y-74454819D02*
X205416666Y-74502438D01*
X205416666Y-74502438D02*
X205464285Y-74550057D01*
X205464285Y-74550057D02*
X205511904Y-74645295D01*
X205511904Y-74645295D02*
X205511904Y-74740533D01*
X205511904Y-74740533D02*
X205464285Y-74883390D01*
X205464285Y-74883390D02*
X204892857Y-75454819D01*
X204892857Y-75454819D02*
X205511904Y-75454819D01*
X143198827Y-118318009D02*
X143151208Y-118365629D01*
X143151208Y-118365629D02*
X143008351Y-118413248D01*
X143008351Y-118413248D02*
X142913113Y-118413248D01*
X142913113Y-118413248D02*
X142770256Y-118365629D01*
X142770256Y-118365629D02*
X142675018Y-118270390D01*
X142675018Y-118270390D02*
X142627399Y-118175152D01*
X142627399Y-118175152D02*
X142579780Y-117984676D01*
X142579780Y-117984676D02*
X142579780Y-117841819D01*
X142579780Y-117841819D02*
X142627399Y-117651343D01*
X142627399Y-117651343D02*
X142675018Y-117556105D01*
X142675018Y-117556105D02*
X142770256Y-117460867D01*
X142770256Y-117460867D02*
X142913113Y-117413248D01*
X142913113Y-117413248D02*
X143008351Y-117413248D01*
X143008351Y-117413248D02*
X143151208Y-117460867D01*
X143151208Y-117460867D02*
X143198827Y-117508486D01*
X144151208Y-118413248D02*
X143579780Y-118413248D01*
X143865494Y-118413248D02*
X143865494Y-117413248D01*
X143865494Y-117413248D02*
X143770256Y-117556105D01*
X143770256Y-117556105D02*
X143675018Y-117651343D01*
X143675018Y-117651343D02*
X143579780Y-117698962D01*
X144770256Y-117413248D02*
X144865494Y-117413248D01*
X144865494Y-117413248D02*
X144960732Y-117460867D01*
X144960732Y-117460867D02*
X145008351Y-117508486D01*
X145008351Y-117508486D02*
X145055970Y-117603724D01*
X145055970Y-117603724D02*
X145103589Y-117794200D01*
X145103589Y-117794200D02*
X145103589Y-118032295D01*
X145103589Y-118032295D02*
X145055970Y-118222771D01*
X145055970Y-118222771D02*
X145008351Y-118318009D01*
X145008351Y-118318009D02*
X144960732Y-118365629D01*
X144960732Y-118365629D02*
X144865494Y-118413248D01*
X144865494Y-118413248D02*
X144770256Y-118413248D01*
X144770256Y-118413248D02*
X144675018Y-118365629D01*
X144675018Y-118365629D02*
X144627399Y-118318009D01*
X144627399Y-118318009D02*
X144579780Y-118222771D01*
X144579780Y-118222771D02*
X144532161Y-118032295D01*
X144532161Y-118032295D02*
X144532161Y-117794200D01*
X144532161Y-117794200D02*
X144579780Y-117603724D01*
X144579780Y-117603724D02*
X144627399Y-117508486D01*
X144627399Y-117508486D02*
X144675018Y-117460867D01*
X144675018Y-117460867D02*
X144770256Y-117413248D01*
X167404761Y-117300057D02*
X167309523Y-117252438D01*
X167309523Y-117252438D02*
X167214285Y-117157200D01*
X167214285Y-117157200D02*
X167071428Y-117014342D01*
X167071428Y-117014342D02*
X166976190Y-116966723D01*
X166976190Y-116966723D02*
X166880952Y-116966723D01*
X166928571Y-117204819D02*
X166833333Y-117157200D01*
X166833333Y-117157200D02*
X166738095Y-117061961D01*
X166738095Y-117061961D02*
X166690476Y-116871485D01*
X166690476Y-116871485D02*
X166690476Y-116538152D01*
X166690476Y-116538152D02*
X166738095Y-116347676D01*
X166738095Y-116347676D02*
X166833333Y-116252438D01*
X166833333Y-116252438D02*
X166928571Y-116204819D01*
X166928571Y-116204819D02*
X167119047Y-116204819D01*
X167119047Y-116204819D02*
X167214285Y-116252438D01*
X167214285Y-116252438D02*
X167309523Y-116347676D01*
X167309523Y-116347676D02*
X167357142Y-116538152D01*
X167357142Y-116538152D02*
X167357142Y-116871485D01*
X167357142Y-116871485D02*
X167309523Y-117061961D01*
X167309523Y-117061961D02*
X167214285Y-117157200D01*
X167214285Y-117157200D02*
X167119047Y-117204819D01*
X167119047Y-117204819D02*
X166928571Y-117204819D01*
X167690476Y-116204819D02*
X168309523Y-116204819D01*
X168309523Y-116204819D02*
X167976190Y-116585771D01*
X167976190Y-116585771D02*
X168119047Y-116585771D01*
X168119047Y-116585771D02*
X168214285Y-116633390D01*
X168214285Y-116633390D02*
X168261904Y-116681009D01*
X168261904Y-116681009D02*
X168309523Y-116776247D01*
X168309523Y-116776247D02*
X168309523Y-117014342D01*
X168309523Y-117014342D02*
X168261904Y-117109580D01*
X168261904Y-117109580D02*
X168214285Y-117157200D01*
X168214285Y-117157200D02*
X168119047Y-117204819D01*
X168119047Y-117204819D02*
X167833333Y-117204819D01*
X167833333Y-117204819D02*
X167738095Y-117157200D01*
X167738095Y-117157200D02*
X167690476Y-117109580D01*
X155657142Y-98454819D02*
X155323809Y-97978628D01*
X155085714Y-98454819D02*
X155085714Y-97454819D01*
X155085714Y-97454819D02*
X155466666Y-97454819D01*
X155466666Y-97454819D02*
X155561904Y-97502438D01*
X155561904Y-97502438D02*
X155609523Y-97550057D01*
X155609523Y-97550057D02*
X155657142Y-97645295D01*
X155657142Y-97645295D02*
X155657142Y-97788152D01*
X155657142Y-97788152D02*
X155609523Y-97883390D01*
X155609523Y-97883390D02*
X155561904Y-97931009D01*
X155561904Y-97931009D02*
X155466666Y-97978628D01*
X155466666Y-97978628D02*
X155085714Y-97978628D01*
X156609523Y-98454819D02*
X156038095Y-98454819D01*
X156323809Y-98454819D02*
X156323809Y-97454819D01*
X156323809Y-97454819D02*
X156228571Y-97597676D01*
X156228571Y-97597676D02*
X156133333Y-97692914D01*
X156133333Y-97692914D02*
X156038095Y-97740533D01*
X156942857Y-97454819D02*
X157609523Y-97454819D01*
X157609523Y-97454819D02*
X157180952Y-98454819D01*
X202619048Y-115854819D02*
X202619048Y-114854819D01*
X202619048Y-114854819D02*
X203000000Y-114854819D01*
X203000000Y-114854819D02*
X203095238Y-114902438D01*
X203095238Y-114902438D02*
X203142857Y-114950057D01*
X203142857Y-114950057D02*
X203190476Y-115045295D01*
X203190476Y-115045295D02*
X203190476Y-115188152D01*
X203190476Y-115188152D02*
X203142857Y-115283390D01*
X203142857Y-115283390D02*
X203095238Y-115331009D01*
X203095238Y-115331009D02*
X203000000Y-115378628D01*
X203000000Y-115378628D02*
X202619048Y-115378628D01*
X203523810Y-114854819D02*
X203761905Y-115854819D01*
X203761905Y-115854819D02*
X203952381Y-115140533D01*
X203952381Y-115140533D02*
X204142857Y-115854819D01*
X204142857Y-115854819D02*
X204380953Y-114854819D01*
X204761905Y-115854819D02*
X204761905Y-114854819D01*
X204761905Y-114854819D02*
X205095238Y-115569104D01*
X205095238Y-115569104D02*
X205428571Y-114854819D01*
X205428571Y-114854819D02*
X205428571Y-115854819D01*
X206428571Y-115854819D02*
X205857143Y-115854819D01*
X206142857Y-115854819D02*
X206142857Y-114854819D01*
X206142857Y-114854819D02*
X206047619Y-114997676D01*
X206047619Y-114997676D02*
X205952381Y-115092914D01*
X205952381Y-115092914D02*
X205857143Y-115140533D01*
X171219642Y-127859580D02*
X171172023Y-127907200D01*
X171172023Y-127907200D02*
X171029166Y-127954819D01*
X171029166Y-127954819D02*
X170933928Y-127954819D01*
X170933928Y-127954819D02*
X170791071Y-127907200D01*
X170791071Y-127907200D02*
X170695833Y-127811961D01*
X170695833Y-127811961D02*
X170648214Y-127716723D01*
X170648214Y-127716723D02*
X170600595Y-127526247D01*
X170600595Y-127526247D02*
X170600595Y-127383390D01*
X170600595Y-127383390D02*
X170648214Y-127192914D01*
X170648214Y-127192914D02*
X170695833Y-127097676D01*
X170695833Y-127097676D02*
X170791071Y-127002438D01*
X170791071Y-127002438D02*
X170933928Y-126954819D01*
X170933928Y-126954819D02*
X171029166Y-126954819D01*
X171029166Y-126954819D02*
X171172023Y-127002438D01*
X171172023Y-127002438D02*
X171219642Y-127050057D01*
X171600595Y-127050057D02*
X171648214Y-127002438D01*
X171648214Y-127002438D02*
X171743452Y-126954819D01*
X171743452Y-126954819D02*
X171981547Y-126954819D01*
X171981547Y-126954819D02*
X172076785Y-127002438D01*
X172076785Y-127002438D02*
X172124404Y-127050057D01*
X172124404Y-127050057D02*
X172172023Y-127145295D01*
X172172023Y-127145295D02*
X172172023Y-127240533D01*
X172172023Y-127240533D02*
X172124404Y-127383390D01*
X172124404Y-127383390D02*
X171552976Y-127954819D01*
X171552976Y-127954819D02*
X172172023Y-127954819D01*
X173124404Y-127954819D02*
X172552976Y-127954819D01*
X172838690Y-127954819D02*
X172838690Y-126954819D01*
X172838690Y-126954819D02*
X172743452Y-127097676D01*
X172743452Y-127097676D02*
X172648214Y-127192914D01*
X172648214Y-127192914D02*
X172552976Y-127240533D01*
X167833333Y-125854819D02*
X167500000Y-125378628D01*
X167261905Y-125854819D02*
X167261905Y-124854819D01*
X167261905Y-124854819D02*
X167642857Y-124854819D01*
X167642857Y-124854819D02*
X167738095Y-124902438D01*
X167738095Y-124902438D02*
X167785714Y-124950057D01*
X167785714Y-124950057D02*
X167833333Y-125045295D01*
X167833333Y-125045295D02*
X167833333Y-125188152D01*
X167833333Y-125188152D02*
X167785714Y-125283390D01*
X167785714Y-125283390D02*
X167738095Y-125331009D01*
X167738095Y-125331009D02*
X167642857Y-125378628D01*
X167642857Y-125378628D02*
X167261905Y-125378628D01*
X168738095Y-124854819D02*
X168261905Y-124854819D01*
X168261905Y-124854819D02*
X168214286Y-125331009D01*
X168214286Y-125331009D02*
X168261905Y-125283390D01*
X168261905Y-125283390D02*
X168357143Y-125235771D01*
X168357143Y-125235771D02*
X168595238Y-125235771D01*
X168595238Y-125235771D02*
X168690476Y-125283390D01*
X168690476Y-125283390D02*
X168738095Y-125331009D01*
X168738095Y-125331009D02*
X168785714Y-125426247D01*
X168785714Y-125426247D02*
X168785714Y-125664342D01*
X168785714Y-125664342D02*
X168738095Y-125759580D01*
X168738095Y-125759580D02*
X168690476Y-125807200D01*
X168690476Y-125807200D02*
X168595238Y-125854819D01*
X168595238Y-125854819D02*
X168357143Y-125854819D01*
X168357143Y-125854819D02*
X168261905Y-125807200D01*
X168261905Y-125807200D02*
X168214286Y-125759580D01*
X161035714Y-79704819D02*
X161035714Y-78704819D01*
X161035714Y-78704819D02*
X161273809Y-78704819D01*
X161273809Y-78704819D02*
X161416666Y-78752438D01*
X161416666Y-78752438D02*
X161511904Y-78847676D01*
X161511904Y-78847676D02*
X161559523Y-78942914D01*
X161559523Y-78942914D02*
X161607142Y-79133390D01*
X161607142Y-79133390D02*
X161607142Y-79276247D01*
X161607142Y-79276247D02*
X161559523Y-79466723D01*
X161559523Y-79466723D02*
X161511904Y-79561961D01*
X161511904Y-79561961D02*
X161416666Y-79657200D01*
X161416666Y-79657200D02*
X161273809Y-79704819D01*
X161273809Y-79704819D02*
X161035714Y-79704819D01*
X161988095Y-78800057D02*
X162035714Y-78752438D01*
X162035714Y-78752438D02*
X162130952Y-78704819D01*
X162130952Y-78704819D02*
X162369047Y-78704819D01*
X162369047Y-78704819D02*
X162464285Y-78752438D01*
X162464285Y-78752438D02*
X162511904Y-78800057D01*
X162511904Y-78800057D02*
X162559523Y-78895295D01*
X162559523Y-78895295D02*
X162559523Y-78990533D01*
X162559523Y-78990533D02*
X162511904Y-79133390D01*
X162511904Y-79133390D02*
X161940476Y-79704819D01*
X161940476Y-79704819D02*
X162559523Y-79704819D01*
X163130952Y-79133390D02*
X163035714Y-79085771D01*
X163035714Y-79085771D02*
X162988095Y-79038152D01*
X162988095Y-79038152D02*
X162940476Y-78942914D01*
X162940476Y-78942914D02*
X162940476Y-78895295D01*
X162940476Y-78895295D02*
X162988095Y-78800057D01*
X162988095Y-78800057D02*
X163035714Y-78752438D01*
X163035714Y-78752438D02*
X163130952Y-78704819D01*
X163130952Y-78704819D02*
X163321428Y-78704819D01*
X163321428Y-78704819D02*
X163416666Y-78752438D01*
X163416666Y-78752438D02*
X163464285Y-78800057D01*
X163464285Y-78800057D02*
X163511904Y-78895295D01*
X163511904Y-78895295D02*
X163511904Y-78942914D01*
X163511904Y-78942914D02*
X163464285Y-79038152D01*
X163464285Y-79038152D02*
X163416666Y-79085771D01*
X163416666Y-79085771D02*
X163321428Y-79133390D01*
X163321428Y-79133390D02*
X163130952Y-79133390D01*
X163130952Y-79133390D02*
X163035714Y-79181009D01*
X163035714Y-79181009D02*
X162988095Y-79228628D01*
X162988095Y-79228628D02*
X162940476Y-79323866D01*
X162940476Y-79323866D02*
X162940476Y-79514342D01*
X162940476Y-79514342D02*
X162988095Y-79609580D01*
X162988095Y-79609580D02*
X163035714Y-79657200D01*
X163035714Y-79657200D02*
X163130952Y-79704819D01*
X163130952Y-79704819D02*
X163321428Y-79704819D01*
X163321428Y-79704819D02*
X163416666Y-79657200D01*
X163416666Y-79657200D02*
X163464285Y-79609580D01*
X163464285Y-79609580D02*
X163511904Y-79514342D01*
X163511904Y-79514342D02*
X163511904Y-79323866D01*
X163511904Y-79323866D02*
X163464285Y-79228628D01*
X163464285Y-79228628D02*
X163416666Y-79181009D01*
X163416666Y-79181009D02*
X163321428Y-79133390D01*
X153666666Y-116454819D02*
X153666666Y-117169104D01*
X153666666Y-117169104D02*
X153619047Y-117311961D01*
X153619047Y-117311961D02*
X153523809Y-117407200D01*
X153523809Y-117407200D02*
X153380952Y-117454819D01*
X153380952Y-117454819D02*
X153285714Y-117454819D01*
X154095238Y-116550057D02*
X154142857Y-116502438D01*
X154142857Y-116502438D02*
X154238095Y-116454819D01*
X154238095Y-116454819D02*
X154476190Y-116454819D01*
X154476190Y-116454819D02*
X154571428Y-116502438D01*
X154571428Y-116502438D02*
X154619047Y-116550057D01*
X154619047Y-116550057D02*
X154666666Y-116645295D01*
X154666666Y-116645295D02*
X154666666Y-116740533D01*
X154666666Y-116740533D02*
X154619047Y-116883390D01*
X154619047Y-116883390D02*
X154047619Y-117454819D01*
X154047619Y-117454819D02*
X154666666Y-117454819D01*
X195169505Y-74603019D02*
X195169505Y-73603019D01*
X195169505Y-73603019D02*
X195407600Y-73603019D01*
X195407600Y-73603019D02*
X195550457Y-73650638D01*
X195550457Y-73650638D02*
X195645695Y-73745876D01*
X195645695Y-73745876D02*
X195693314Y-73841114D01*
X195693314Y-73841114D02*
X195740933Y-74031590D01*
X195740933Y-74031590D02*
X195740933Y-74174447D01*
X195740933Y-74174447D02*
X195693314Y-74364923D01*
X195693314Y-74364923D02*
X195645695Y-74460161D01*
X195645695Y-74460161D02*
X195550457Y-74555400D01*
X195550457Y-74555400D02*
X195407600Y-74603019D01*
X195407600Y-74603019D02*
X195169505Y-74603019D01*
X196074267Y-73603019D02*
X196740933Y-73603019D01*
X196740933Y-73603019D02*
X196312362Y-74603019D01*
X192128571Y-76662295D02*
X191671428Y-76662295D01*
X191900000Y-76662295D02*
X191900000Y-75862295D01*
X191900000Y-75862295D02*
X191823809Y-75976580D01*
X191823809Y-75976580D02*
X191747619Y-76052771D01*
X191747619Y-76052771D02*
X191671428Y-76090866D01*
X143066666Y-80031009D02*
X142733333Y-80031009D01*
X142733333Y-80554819D02*
X142733333Y-79554819D01*
X142733333Y-79554819D02*
X143209523Y-79554819D01*
X143542857Y-79650057D02*
X143590476Y-79602438D01*
X143590476Y-79602438D02*
X143685714Y-79554819D01*
X143685714Y-79554819D02*
X143923809Y-79554819D01*
X143923809Y-79554819D02*
X144019047Y-79602438D01*
X144019047Y-79602438D02*
X144066666Y-79650057D01*
X144066666Y-79650057D02*
X144114285Y-79745295D01*
X144114285Y-79745295D02*
X144114285Y-79840533D01*
X144114285Y-79840533D02*
X144066666Y-79983390D01*
X144066666Y-79983390D02*
X143495238Y-80554819D01*
X143495238Y-80554819D02*
X144114285Y-80554819D01*
X200357142Y-75359580D02*
X200309523Y-75407200D01*
X200309523Y-75407200D02*
X200166666Y-75454819D01*
X200166666Y-75454819D02*
X200071428Y-75454819D01*
X200071428Y-75454819D02*
X199928571Y-75407200D01*
X199928571Y-75407200D02*
X199833333Y-75311961D01*
X199833333Y-75311961D02*
X199785714Y-75216723D01*
X199785714Y-75216723D02*
X199738095Y-75026247D01*
X199738095Y-75026247D02*
X199738095Y-74883390D01*
X199738095Y-74883390D02*
X199785714Y-74692914D01*
X199785714Y-74692914D02*
X199833333Y-74597676D01*
X199833333Y-74597676D02*
X199928571Y-74502438D01*
X199928571Y-74502438D02*
X200071428Y-74454819D01*
X200071428Y-74454819D02*
X200166666Y-74454819D01*
X200166666Y-74454819D02*
X200309523Y-74502438D01*
X200309523Y-74502438D02*
X200357142Y-74550057D01*
X200738095Y-74550057D02*
X200785714Y-74502438D01*
X200785714Y-74502438D02*
X200880952Y-74454819D01*
X200880952Y-74454819D02*
X201119047Y-74454819D01*
X201119047Y-74454819D02*
X201214285Y-74502438D01*
X201214285Y-74502438D02*
X201261904Y-74550057D01*
X201261904Y-74550057D02*
X201309523Y-74645295D01*
X201309523Y-74645295D02*
X201309523Y-74740533D01*
X201309523Y-74740533D02*
X201261904Y-74883390D01*
X201261904Y-74883390D02*
X200690476Y-75454819D01*
X200690476Y-75454819D02*
X201309523Y-75454819D01*
X202166666Y-74454819D02*
X201976190Y-74454819D01*
X201976190Y-74454819D02*
X201880952Y-74502438D01*
X201880952Y-74502438D02*
X201833333Y-74550057D01*
X201833333Y-74550057D02*
X201738095Y-74692914D01*
X201738095Y-74692914D02*
X201690476Y-74883390D01*
X201690476Y-74883390D02*
X201690476Y-75264342D01*
X201690476Y-75264342D02*
X201738095Y-75359580D01*
X201738095Y-75359580D02*
X201785714Y-75407200D01*
X201785714Y-75407200D02*
X201880952Y-75454819D01*
X201880952Y-75454819D02*
X202071428Y-75454819D01*
X202071428Y-75454819D02*
X202166666Y-75407200D01*
X202166666Y-75407200D02*
X202214285Y-75359580D01*
X202214285Y-75359580D02*
X202261904Y-75264342D01*
X202261904Y-75264342D02*
X202261904Y-75026247D01*
X202261904Y-75026247D02*
X202214285Y-74931009D01*
X202214285Y-74931009D02*
X202166666Y-74883390D01*
X202166666Y-74883390D02*
X202071428Y-74835771D01*
X202071428Y-74835771D02*
X201880952Y-74835771D01*
X201880952Y-74835771D02*
X201785714Y-74883390D01*
X201785714Y-74883390D02*
X201738095Y-74931009D01*
X201738095Y-74931009D02*
X201690476Y-75026247D01*
X158964285Y-87681009D02*
X159107142Y-87728628D01*
X159107142Y-87728628D02*
X159154761Y-87776247D01*
X159154761Y-87776247D02*
X159202380Y-87871485D01*
X159202380Y-87871485D02*
X159202380Y-88014342D01*
X159202380Y-88014342D02*
X159154761Y-88109580D01*
X159154761Y-88109580D02*
X159107142Y-88157200D01*
X159107142Y-88157200D02*
X159011904Y-88204819D01*
X159011904Y-88204819D02*
X158630952Y-88204819D01*
X158630952Y-88204819D02*
X158630952Y-87204819D01*
X158630952Y-87204819D02*
X158964285Y-87204819D01*
X158964285Y-87204819D02*
X159059523Y-87252438D01*
X159059523Y-87252438D02*
X159107142Y-87300057D01*
X159107142Y-87300057D02*
X159154761Y-87395295D01*
X159154761Y-87395295D02*
X159154761Y-87490533D01*
X159154761Y-87490533D02*
X159107142Y-87585771D01*
X159107142Y-87585771D02*
X159059523Y-87633390D01*
X159059523Y-87633390D02*
X158964285Y-87681009D01*
X158964285Y-87681009D02*
X158630952Y-87681009D01*
X159488095Y-87204819D02*
X160059523Y-87204819D01*
X159773809Y-88204819D02*
X159773809Y-87204819D01*
X160916666Y-88204819D02*
X160345238Y-88204819D01*
X160630952Y-88204819D02*
X160630952Y-87204819D01*
X160630952Y-87204819D02*
X160535714Y-87347676D01*
X160535714Y-87347676D02*
X160440476Y-87442914D01*
X160440476Y-87442914D02*
X160345238Y-87490533D01*
X197607142Y-85419919D02*
X197273809Y-84943728D01*
X197035714Y-85419919D02*
X197035714Y-84419919D01*
X197035714Y-84419919D02*
X197416666Y-84419919D01*
X197416666Y-84419919D02*
X197511904Y-84467538D01*
X197511904Y-84467538D02*
X197559523Y-84515157D01*
X197559523Y-84515157D02*
X197607142Y-84610395D01*
X197607142Y-84610395D02*
X197607142Y-84753252D01*
X197607142Y-84753252D02*
X197559523Y-84848490D01*
X197559523Y-84848490D02*
X197511904Y-84896109D01*
X197511904Y-84896109D02*
X197416666Y-84943728D01*
X197416666Y-84943728D02*
X197035714Y-84943728D01*
X198559523Y-85419919D02*
X197988095Y-85419919D01*
X198273809Y-85419919D02*
X198273809Y-84419919D01*
X198273809Y-84419919D02*
X198178571Y-84562776D01*
X198178571Y-84562776D02*
X198083333Y-84658014D01*
X198083333Y-84658014D02*
X197988095Y-84705633D01*
X199416666Y-84419919D02*
X199226190Y-84419919D01*
X199226190Y-84419919D02*
X199130952Y-84467538D01*
X199130952Y-84467538D02*
X199083333Y-84515157D01*
X199083333Y-84515157D02*
X198988095Y-84658014D01*
X198988095Y-84658014D02*
X198940476Y-84848490D01*
X198940476Y-84848490D02*
X198940476Y-85229442D01*
X198940476Y-85229442D02*
X198988095Y-85324680D01*
X198988095Y-85324680D02*
X199035714Y-85372300D01*
X199035714Y-85372300D02*
X199130952Y-85419919D01*
X199130952Y-85419919D02*
X199321428Y-85419919D01*
X199321428Y-85419919D02*
X199416666Y-85372300D01*
X199416666Y-85372300D02*
X199464285Y-85324680D01*
X199464285Y-85324680D02*
X199511904Y-85229442D01*
X199511904Y-85229442D02*
X199511904Y-84991347D01*
X199511904Y-84991347D02*
X199464285Y-84896109D01*
X199464285Y-84896109D02*
X199416666Y-84848490D01*
X199416666Y-84848490D02*
X199321428Y-84800871D01*
X199321428Y-84800871D02*
X199130952Y-84800871D01*
X199130952Y-84800871D02*
X199035714Y-84848490D01*
X199035714Y-84848490D02*
X198988095Y-84896109D01*
X198988095Y-84896109D02*
X198940476Y-84991347D01*
X170454819Y-116166666D02*
X169978628Y-116499999D01*
X170454819Y-116738094D02*
X169454819Y-116738094D01*
X169454819Y-116738094D02*
X169454819Y-116357142D01*
X169454819Y-116357142D02*
X169502438Y-116261904D01*
X169502438Y-116261904D02*
X169550057Y-116214285D01*
X169550057Y-116214285D02*
X169645295Y-116166666D01*
X169645295Y-116166666D02*
X169788152Y-116166666D01*
X169788152Y-116166666D02*
X169883390Y-116214285D01*
X169883390Y-116214285D02*
X169931009Y-116261904D01*
X169931009Y-116261904D02*
X169978628Y-116357142D01*
X169978628Y-116357142D02*
X169978628Y-116738094D01*
X169454819Y-115309523D02*
X169454819Y-115499999D01*
X169454819Y-115499999D02*
X169502438Y-115595237D01*
X169502438Y-115595237D02*
X169550057Y-115642856D01*
X169550057Y-115642856D02*
X169692914Y-115738094D01*
X169692914Y-115738094D02*
X169883390Y-115785713D01*
X169883390Y-115785713D02*
X170264342Y-115785713D01*
X170264342Y-115785713D02*
X170359580Y-115738094D01*
X170359580Y-115738094D02*
X170407200Y-115690475D01*
X170407200Y-115690475D02*
X170454819Y-115595237D01*
X170454819Y-115595237D02*
X170454819Y-115404761D01*
X170454819Y-115404761D02*
X170407200Y-115309523D01*
X170407200Y-115309523D02*
X170359580Y-115261904D01*
X170359580Y-115261904D02*
X170264342Y-115214285D01*
X170264342Y-115214285D02*
X170026247Y-115214285D01*
X170026247Y-115214285D02*
X169931009Y-115261904D01*
X169931009Y-115261904D02*
X169883390Y-115309523D01*
X169883390Y-115309523D02*
X169835771Y-115404761D01*
X169835771Y-115404761D02*
X169835771Y-115595237D01*
X169835771Y-115595237D02*
X169883390Y-115690475D01*
X169883390Y-115690475D02*
X169931009Y-115738094D01*
X169931009Y-115738094D02*
X170026247Y-115785713D01*
X177385714Y-133154819D02*
X177385714Y-132154819D01*
X177385714Y-132154819D02*
X177623809Y-132154819D01*
X177623809Y-132154819D02*
X177766666Y-132202438D01*
X177766666Y-132202438D02*
X177861904Y-132297676D01*
X177861904Y-132297676D02*
X177909523Y-132392914D01*
X177909523Y-132392914D02*
X177957142Y-132583390D01*
X177957142Y-132583390D02*
X177957142Y-132726247D01*
X177957142Y-132726247D02*
X177909523Y-132916723D01*
X177909523Y-132916723D02*
X177861904Y-133011961D01*
X177861904Y-133011961D02*
X177766666Y-133107200D01*
X177766666Y-133107200D02*
X177623809Y-133154819D01*
X177623809Y-133154819D02*
X177385714Y-133154819D01*
X178909523Y-133154819D02*
X178338095Y-133154819D01*
X178623809Y-133154819D02*
X178623809Y-132154819D01*
X178623809Y-132154819D02*
X178528571Y-132297676D01*
X178528571Y-132297676D02*
X178433333Y-132392914D01*
X178433333Y-132392914D02*
X178338095Y-132440533D01*
X179480952Y-132583390D02*
X179385714Y-132535771D01*
X179385714Y-132535771D02*
X179338095Y-132488152D01*
X179338095Y-132488152D02*
X179290476Y-132392914D01*
X179290476Y-132392914D02*
X179290476Y-132345295D01*
X179290476Y-132345295D02*
X179338095Y-132250057D01*
X179338095Y-132250057D02*
X179385714Y-132202438D01*
X179385714Y-132202438D02*
X179480952Y-132154819D01*
X179480952Y-132154819D02*
X179671428Y-132154819D01*
X179671428Y-132154819D02*
X179766666Y-132202438D01*
X179766666Y-132202438D02*
X179814285Y-132250057D01*
X179814285Y-132250057D02*
X179861904Y-132345295D01*
X179861904Y-132345295D02*
X179861904Y-132392914D01*
X179861904Y-132392914D02*
X179814285Y-132488152D01*
X179814285Y-132488152D02*
X179766666Y-132535771D01*
X179766666Y-132535771D02*
X179671428Y-132583390D01*
X179671428Y-132583390D02*
X179480952Y-132583390D01*
X179480952Y-132583390D02*
X179385714Y-132631009D01*
X179385714Y-132631009D02*
X179338095Y-132678628D01*
X179338095Y-132678628D02*
X179290476Y-132773866D01*
X179290476Y-132773866D02*
X179290476Y-132964342D01*
X179290476Y-132964342D02*
X179338095Y-133059580D01*
X179338095Y-133059580D02*
X179385714Y-133107200D01*
X179385714Y-133107200D02*
X179480952Y-133154819D01*
X179480952Y-133154819D02*
X179671428Y-133154819D01*
X179671428Y-133154819D02*
X179766666Y-133107200D01*
X179766666Y-133107200D02*
X179814285Y-133059580D01*
X179814285Y-133059580D02*
X179861904Y-132964342D01*
X179861904Y-132964342D02*
X179861904Y-132773866D01*
X179861904Y-132773866D02*
X179814285Y-132678628D01*
X179814285Y-132678628D02*
X179766666Y-132631009D01*
X179766666Y-132631009D02*
X179671428Y-132583390D01*
X184632028Y-130223104D02*
X185089171Y-130223104D01*
X184860599Y-130223104D02*
X184860599Y-131023104D01*
X184860599Y-131023104D02*
X184936790Y-130908819D01*
X184936790Y-130908819D02*
X185012980Y-130832628D01*
X185012980Y-130832628D02*
X185089171Y-130794533D01*
X164357142Y-95109580D02*
X164309523Y-95157200D01*
X164309523Y-95157200D02*
X164166666Y-95204819D01*
X164166666Y-95204819D02*
X164071428Y-95204819D01*
X164071428Y-95204819D02*
X163928571Y-95157200D01*
X163928571Y-95157200D02*
X163833333Y-95061961D01*
X163833333Y-95061961D02*
X163785714Y-94966723D01*
X163785714Y-94966723D02*
X163738095Y-94776247D01*
X163738095Y-94776247D02*
X163738095Y-94633390D01*
X163738095Y-94633390D02*
X163785714Y-94442914D01*
X163785714Y-94442914D02*
X163833333Y-94347676D01*
X163833333Y-94347676D02*
X163928571Y-94252438D01*
X163928571Y-94252438D02*
X164071428Y-94204819D01*
X164071428Y-94204819D02*
X164166666Y-94204819D01*
X164166666Y-94204819D02*
X164309523Y-94252438D01*
X164309523Y-94252438D02*
X164357142Y-94300057D01*
X164690476Y-94204819D02*
X165309523Y-94204819D01*
X165309523Y-94204819D02*
X164976190Y-94585771D01*
X164976190Y-94585771D02*
X165119047Y-94585771D01*
X165119047Y-94585771D02*
X165214285Y-94633390D01*
X165214285Y-94633390D02*
X165261904Y-94681009D01*
X165261904Y-94681009D02*
X165309523Y-94776247D01*
X165309523Y-94776247D02*
X165309523Y-95014342D01*
X165309523Y-95014342D02*
X165261904Y-95109580D01*
X165261904Y-95109580D02*
X165214285Y-95157200D01*
X165214285Y-95157200D02*
X165119047Y-95204819D01*
X165119047Y-95204819D02*
X164833333Y-95204819D01*
X164833333Y-95204819D02*
X164738095Y-95157200D01*
X164738095Y-95157200D02*
X164690476Y-95109580D01*
X166261904Y-95204819D02*
X165690476Y-95204819D01*
X165976190Y-95204819D02*
X165976190Y-94204819D01*
X165976190Y-94204819D02*
X165880952Y-94347676D01*
X165880952Y-94347676D02*
X165785714Y-94442914D01*
X165785714Y-94442914D02*
X165690476Y-94490533D01*
X197869048Y-115865074D02*
X197869048Y-114865074D01*
X197869048Y-114865074D02*
X198250000Y-114865074D01*
X198250000Y-114865074D02*
X198345238Y-114912693D01*
X198345238Y-114912693D02*
X198392857Y-114960312D01*
X198392857Y-114960312D02*
X198440476Y-115055550D01*
X198440476Y-115055550D02*
X198440476Y-115198407D01*
X198440476Y-115198407D02*
X198392857Y-115293645D01*
X198392857Y-115293645D02*
X198345238Y-115341264D01*
X198345238Y-115341264D02*
X198250000Y-115388883D01*
X198250000Y-115388883D02*
X197869048Y-115388883D01*
X198773810Y-114865074D02*
X199011905Y-115865074D01*
X199011905Y-115865074D02*
X199202381Y-115150788D01*
X199202381Y-115150788D02*
X199392857Y-115865074D01*
X199392857Y-115865074D02*
X199630953Y-114865074D01*
X200011905Y-115865074D02*
X200011905Y-114865074D01*
X200011905Y-114865074D02*
X200345238Y-115579359D01*
X200345238Y-115579359D02*
X200678571Y-114865074D01*
X200678571Y-114865074D02*
X200678571Y-115865074D01*
X201107143Y-114960312D02*
X201154762Y-114912693D01*
X201154762Y-114912693D02*
X201250000Y-114865074D01*
X201250000Y-114865074D02*
X201488095Y-114865074D01*
X201488095Y-114865074D02*
X201583333Y-114912693D01*
X201583333Y-114912693D02*
X201630952Y-114960312D01*
X201630952Y-114960312D02*
X201678571Y-115055550D01*
X201678571Y-115055550D02*
X201678571Y-115150788D01*
X201678571Y-115150788D02*
X201630952Y-115293645D01*
X201630952Y-115293645D02*
X201059524Y-115865074D01*
X201059524Y-115865074D02*
X201678571Y-115865074D01*
X180857142Y-78454819D02*
X180523809Y-77978628D01*
X180285714Y-78454819D02*
X180285714Y-77454819D01*
X180285714Y-77454819D02*
X180666666Y-77454819D01*
X180666666Y-77454819D02*
X180761904Y-77502438D01*
X180761904Y-77502438D02*
X180809523Y-77550057D01*
X180809523Y-77550057D02*
X180857142Y-77645295D01*
X180857142Y-77645295D02*
X180857142Y-77788152D01*
X180857142Y-77788152D02*
X180809523Y-77883390D01*
X180809523Y-77883390D02*
X180761904Y-77931009D01*
X180761904Y-77931009D02*
X180666666Y-77978628D01*
X180666666Y-77978628D02*
X180285714Y-77978628D01*
X181238095Y-77550057D02*
X181285714Y-77502438D01*
X181285714Y-77502438D02*
X181380952Y-77454819D01*
X181380952Y-77454819D02*
X181619047Y-77454819D01*
X181619047Y-77454819D02*
X181714285Y-77502438D01*
X181714285Y-77502438D02*
X181761904Y-77550057D01*
X181761904Y-77550057D02*
X181809523Y-77645295D01*
X181809523Y-77645295D02*
X181809523Y-77740533D01*
X181809523Y-77740533D02*
X181761904Y-77883390D01*
X181761904Y-77883390D02*
X181190476Y-78454819D01*
X181190476Y-78454819D02*
X181809523Y-78454819D01*
X182380952Y-77883390D02*
X182285714Y-77835771D01*
X182285714Y-77835771D02*
X182238095Y-77788152D01*
X182238095Y-77788152D02*
X182190476Y-77692914D01*
X182190476Y-77692914D02*
X182190476Y-77645295D01*
X182190476Y-77645295D02*
X182238095Y-77550057D01*
X182238095Y-77550057D02*
X182285714Y-77502438D01*
X182285714Y-77502438D02*
X182380952Y-77454819D01*
X182380952Y-77454819D02*
X182571428Y-77454819D01*
X182571428Y-77454819D02*
X182666666Y-77502438D01*
X182666666Y-77502438D02*
X182714285Y-77550057D01*
X182714285Y-77550057D02*
X182761904Y-77645295D01*
X182761904Y-77645295D02*
X182761904Y-77692914D01*
X182761904Y-77692914D02*
X182714285Y-77788152D01*
X182714285Y-77788152D02*
X182666666Y-77835771D01*
X182666666Y-77835771D02*
X182571428Y-77883390D01*
X182571428Y-77883390D02*
X182380952Y-77883390D01*
X182380952Y-77883390D02*
X182285714Y-77931009D01*
X182285714Y-77931009D02*
X182238095Y-77978628D01*
X182238095Y-77978628D02*
X182190476Y-78073866D01*
X182190476Y-78073866D02*
X182190476Y-78264342D01*
X182190476Y-78264342D02*
X182238095Y-78359580D01*
X182238095Y-78359580D02*
X182285714Y-78407200D01*
X182285714Y-78407200D02*
X182380952Y-78454819D01*
X182380952Y-78454819D02*
X182571428Y-78454819D01*
X182571428Y-78454819D02*
X182666666Y-78407200D01*
X182666666Y-78407200D02*
X182714285Y-78359580D01*
X182714285Y-78359580D02*
X182761904Y-78264342D01*
X182761904Y-78264342D02*
X182761904Y-78073866D01*
X182761904Y-78073866D02*
X182714285Y-77978628D01*
X182714285Y-77978628D02*
X182666666Y-77931009D01*
X182666666Y-77931009D02*
X182571428Y-77883390D01*
X175433333Y-122059580D02*
X175385714Y-122107200D01*
X175385714Y-122107200D02*
X175242857Y-122154819D01*
X175242857Y-122154819D02*
X175147619Y-122154819D01*
X175147619Y-122154819D02*
X175004762Y-122107200D01*
X175004762Y-122107200D02*
X174909524Y-122011961D01*
X174909524Y-122011961D02*
X174861905Y-121916723D01*
X174861905Y-121916723D02*
X174814286Y-121726247D01*
X174814286Y-121726247D02*
X174814286Y-121583390D01*
X174814286Y-121583390D02*
X174861905Y-121392914D01*
X174861905Y-121392914D02*
X174909524Y-121297676D01*
X174909524Y-121297676D02*
X175004762Y-121202438D01*
X175004762Y-121202438D02*
X175147619Y-121154819D01*
X175147619Y-121154819D02*
X175242857Y-121154819D01*
X175242857Y-121154819D02*
X175385714Y-121202438D01*
X175385714Y-121202438D02*
X175433333Y-121250057D01*
X175909524Y-122154819D02*
X176100000Y-122154819D01*
X176100000Y-122154819D02*
X176195238Y-122107200D01*
X176195238Y-122107200D02*
X176242857Y-122059580D01*
X176242857Y-122059580D02*
X176338095Y-121916723D01*
X176338095Y-121916723D02*
X176385714Y-121726247D01*
X176385714Y-121726247D02*
X176385714Y-121345295D01*
X176385714Y-121345295D02*
X176338095Y-121250057D01*
X176338095Y-121250057D02*
X176290476Y-121202438D01*
X176290476Y-121202438D02*
X176195238Y-121154819D01*
X176195238Y-121154819D02*
X176004762Y-121154819D01*
X176004762Y-121154819D02*
X175909524Y-121202438D01*
X175909524Y-121202438D02*
X175861905Y-121250057D01*
X175861905Y-121250057D02*
X175814286Y-121345295D01*
X175814286Y-121345295D02*
X175814286Y-121583390D01*
X175814286Y-121583390D02*
X175861905Y-121678628D01*
X175861905Y-121678628D02*
X175909524Y-121726247D01*
X175909524Y-121726247D02*
X176004762Y-121773866D01*
X176004762Y-121773866D02*
X176195238Y-121773866D01*
X176195238Y-121773866D02*
X176290476Y-121726247D01*
X176290476Y-121726247D02*
X176338095Y-121678628D01*
X176338095Y-121678628D02*
X176385714Y-121583390D01*
X164357142Y-105204819D02*
X164023809Y-104728628D01*
X163785714Y-105204819D02*
X163785714Y-104204819D01*
X163785714Y-104204819D02*
X164166666Y-104204819D01*
X164166666Y-104204819D02*
X164261904Y-104252438D01*
X164261904Y-104252438D02*
X164309523Y-104300057D01*
X164309523Y-104300057D02*
X164357142Y-104395295D01*
X164357142Y-104395295D02*
X164357142Y-104538152D01*
X164357142Y-104538152D02*
X164309523Y-104633390D01*
X164309523Y-104633390D02*
X164261904Y-104681009D01*
X164261904Y-104681009D02*
X164166666Y-104728628D01*
X164166666Y-104728628D02*
X163785714Y-104728628D01*
X165309523Y-105204819D02*
X164738095Y-105204819D01*
X165023809Y-105204819D02*
X165023809Y-104204819D01*
X165023809Y-104204819D02*
X164928571Y-104347676D01*
X164928571Y-104347676D02*
X164833333Y-104442914D01*
X164833333Y-104442914D02*
X164738095Y-104490533D01*
X165690476Y-104300057D02*
X165738095Y-104252438D01*
X165738095Y-104252438D02*
X165833333Y-104204819D01*
X165833333Y-104204819D02*
X166071428Y-104204819D01*
X166071428Y-104204819D02*
X166166666Y-104252438D01*
X166166666Y-104252438D02*
X166214285Y-104300057D01*
X166214285Y-104300057D02*
X166261904Y-104395295D01*
X166261904Y-104395295D02*
X166261904Y-104490533D01*
X166261904Y-104490533D02*
X166214285Y-104633390D01*
X166214285Y-104633390D02*
X165642857Y-105204819D01*
X165642857Y-105204819D02*
X166261904Y-105204819D01*
X161604761Y-130650057D02*
X161509523Y-130602438D01*
X161509523Y-130602438D02*
X161414285Y-130507200D01*
X161414285Y-130507200D02*
X161271428Y-130364342D01*
X161271428Y-130364342D02*
X161176190Y-130316723D01*
X161176190Y-130316723D02*
X161080952Y-130316723D01*
X161128571Y-130554819D02*
X161033333Y-130507200D01*
X161033333Y-130507200D02*
X160938095Y-130411961D01*
X160938095Y-130411961D02*
X160890476Y-130221485D01*
X160890476Y-130221485D02*
X160890476Y-129888152D01*
X160890476Y-129888152D02*
X160938095Y-129697676D01*
X160938095Y-129697676D02*
X161033333Y-129602438D01*
X161033333Y-129602438D02*
X161128571Y-129554819D01*
X161128571Y-129554819D02*
X161319047Y-129554819D01*
X161319047Y-129554819D02*
X161414285Y-129602438D01*
X161414285Y-129602438D02*
X161509523Y-129697676D01*
X161509523Y-129697676D02*
X161557142Y-129888152D01*
X161557142Y-129888152D02*
X161557142Y-130221485D01*
X161557142Y-130221485D02*
X161509523Y-130411961D01*
X161509523Y-130411961D02*
X161414285Y-130507200D01*
X161414285Y-130507200D02*
X161319047Y-130554819D01*
X161319047Y-130554819D02*
X161128571Y-130554819D01*
X162509523Y-130554819D02*
X161938095Y-130554819D01*
X162223809Y-130554819D02*
X162223809Y-129554819D01*
X162223809Y-129554819D02*
X162128571Y-129697676D01*
X162128571Y-129697676D02*
X162033333Y-129792914D01*
X162033333Y-129792914D02*
X161938095Y-129840533D01*
X185954819Y-84892857D02*
X185478628Y-85226190D01*
X185954819Y-85464285D02*
X184954819Y-85464285D01*
X184954819Y-85464285D02*
X184954819Y-85083333D01*
X184954819Y-85083333D02*
X185002438Y-84988095D01*
X185002438Y-84988095D02*
X185050057Y-84940476D01*
X185050057Y-84940476D02*
X185145295Y-84892857D01*
X185145295Y-84892857D02*
X185288152Y-84892857D01*
X185288152Y-84892857D02*
X185383390Y-84940476D01*
X185383390Y-84940476D02*
X185431009Y-84988095D01*
X185431009Y-84988095D02*
X185478628Y-85083333D01*
X185478628Y-85083333D02*
X185478628Y-85464285D01*
X185050057Y-84511904D02*
X185002438Y-84464285D01*
X185002438Y-84464285D02*
X184954819Y-84369047D01*
X184954819Y-84369047D02*
X184954819Y-84130952D01*
X184954819Y-84130952D02*
X185002438Y-84035714D01*
X185002438Y-84035714D02*
X185050057Y-83988095D01*
X185050057Y-83988095D02*
X185145295Y-83940476D01*
X185145295Y-83940476D02*
X185240533Y-83940476D01*
X185240533Y-83940476D02*
X185383390Y-83988095D01*
X185383390Y-83988095D02*
X185954819Y-84559523D01*
X185954819Y-84559523D02*
X185954819Y-83940476D01*
X184954819Y-83607142D02*
X184954819Y-82988095D01*
X184954819Y-82988095D02*
X185335771Y-83321428D01*
X185335771Y-83321428D02*
X185335771Y-83178571D01*
X185335771Y-83178571D02*
X185383390Y-83083333D01*
X185383390Y-83083333D02*
X185431009Y-83035714D01*
X185431009Y-83035714D02*
X185526247Y-82988095D01*
X185526247Y-82988095D02*
X185764342Y-82988095D01*
X185764342Y-82988095D02*
X185859580Y-83035714D01*
X185859580Y-83035714D02*
X185907200Y-83083333D01*
X185907200Y-83083333D02*
X185954819Y-83178571D01*
X185954819Y-83178571D02*
X185954819Y-83464285D01*
X185954819Y-83464285D02*
X185907200Y-83559523D01*
X185907200Y-83559523D02*
X185859580Y-83607142D01*
X167988095Y-90454819D02*
X167988095Y-91264342D01*
X167988095Y-91264342D02*
X168035714Y-91359580D01*
X168035714Y-91359580D02*
X168083333Y-91407200D01*
X168083333Y-91407200D02*
X168178571Y-91454819D01*
X168178571Y-91454819D02*
X168369047Y-91454819D01*
X168369047Y-91454819D02*
X168464285Y-91407200D01*
X168464285Y-91407200D02*
X168511904Y-91359580D01*
X168511904Y-91359580D02*
X168559523Y-91264342D01*
X168559523Y-91264342D02*
X168559523Y-90454819D01*
X169511904Y-90454819D02*
X169035714Y-90454819D01*
X169035714Y-90454819D02*
X168988095Y-90931009D01*
X168988095Y-90931009D02*
X169035714Y-90883390D01*
X169035714Y-90883390D02*
X169130952Y-90835771D01*
X169130952Y-90835771D02*
X169369047Y-90835771D01*
X169369047Y-90835771D02*
X169464285Y-90883390D01*
X169464285Y-90883390D02*
X169511904Y-90931009D01*
X169511904Y-90931009D02*
X169559523Y-91026247D01*
X169559523Y-91026247D02*
X169559523Y-91264342D01*
X169559523Y-91264342D02*
X169511904Y-91359580D01*
X169511904Y-91359580D02*
X169464285Y-91407200D01*
X169464285Y-91407200D02*
X169369047Y-91454819D01*
X169369047Y-91454819D02*
X169130952Y-91454819D01*
X169130952Y-91454819D02*
X169035714Y-91407200D01*
X169035714Y-91407200D02*
X168988095Y-91359580D01*
X164357142Y-99609580D02*
X164309523Y-99657200D01*
X164309523Y-99657200D02*
X164166666Y-99704819D01*
X164166666Y-99704819D02*
X164071428Y-99704819D01*
X164071428Y-99704819D02*
X163928571Y-99657200D01*
X163928571Y-99657200D02*
X163833333Y-99561961D01*
X163833333Y-99561961D02*
X163785714Y-99466723D01*
X163785714Y-99466723D02*
X163738095Y-99276247D01*
X163738095Y-99276247D02*
X163738095Y-99133390D01*
X163738095Y-99133390D02*
X163785714Y-98942914D01*
X163785714Y-98942914D02*
X163833333Y-98847676D01*
X163833333Y-98847676D02*
X163928571Y-98752438D01*
X163928571Y-98752438D02*
X164071428Y-98704819D01*
X164071428Y-98704819D02*
X164166666Y-98704819D01*
X164166666Y-98704819D02*
X164309523Y-98752438D01*
X164309523Y-98752438D02*
X164357142Y-98800057D01*
X165309523Y-99704819D02*
X164738095Y-99704819D01*
X165023809Y-99704819D02*
X165023809Y-98704819D01*
X165023809Y-98704819D02*
X164928571Y-98847676D01*
X164928571Y-98847676D02*
X164833333Y-98942914D01*
X164833333Y-98942914D02*
X164738095Y-98990533D01*
X165642857Y-98704819D02*
X166261904Y-98704819D01*
X166261904Y-98704819D02*
X165928571Y-99085771D01*
X165928571Y-99085771D02*
X166071428Y-99085771D01*
X166071428Y-99085771D02*
X166166666Y-99133390D01*
X166166666Y-99133390D02*
X166214285Y-99181009D01*
X166214285Y-99181009D02*
X166261904Y-99276247D01*
X166261904Y-99276247D02*
X166261904Y-99514342D01*
X166261904Y-99514342D02*
X166214285Y-99609580D01*
X166214285Y-99609580D02*
X166166666Y-99657200D01*
X166166666Y-99657200D02*
X166071428Y-99704819D01*
X166071428Y-99704819D02*
X165785714Y-99704819D01*
X165785714Y-99704819D02*
X165690476Y-99657200D01*
X165690476Y-99657200D02*
X165642857Y-99609580D01*
X168333333Y-110859580D02*
X168285714Y-110907200D01*
X168285714Y-110907200D02*
X168142857Y-110954819D01*
X168142857Y-110954819D02*
X168047619Y-110954819D01*
X168047619Y-110954819D02*
X167904762Y-110907200D01*
X167904762Y-110907200D02*
X167809524Y-110811961D01*
X167809524Y-110811961D02*
X167761905Y-110716723D01*
X167761905Y-110716723D02*
X167714286Y-110526247D01*
X167714286Y-110526247D02*
X167714286Y-110383390D01*
X167714286Y-110383390D02*
X167761905Y-110192914D01*
X167761905Y-110192914D02*
X167809524Y-110097676D01*
X167809524Y-110097676D02*
X167904762Y-110002438D01*
X167904762Y-110002438D02*
X168047619Y-109954819D01*
X168047619Y-109954819D02*
X168142857Y-109954819D01*
X168142857Y-109954819D02*
X168285714Y-110002438D01*
X168285714Y-110002438D02*
X168333333Y-110050057D01*
X169190476Y-109954819D02*
X169000000Y-109954819D01*
X169000000Y-109954819D02*
X168904762Y-110002438D01*
X168904762Y-110002438D02*
X168857143Y-110050057D01*
X168857143Y-110050057D02*
X168761905Y-110192914D01*
X168761905Y-110192914D02*
X168714286Y-110383390D01*
X168714286Y-110383390D02*
X168714286Y-110764342D01*
X168714286Y-110764342D02*
X168761905Y-110859580D01*
X168761905Y-110859580D02*
X168809524Y-110907200D01*
X168809524Y-110907200D02*
X168904762Y-110954819D01*
X168904762Y-110954819D02*
X169095238Y-110954819D01*
X169095238Y-110954819D02*
X169190476Y-110907200D01*
X169190476Y-110907200D02*
X169238095Y-110859580D01*
X169238095Y-110859580D02*
X169285714Y-110764342D01*
X169285714Y-110764342D02*
X169285714Y-110526247D01*
X169285714Y-110526247D02*
X169238095Y-110431009D01*
X169238095Y-110431009D02*
X169190476Y-110383390D01*
X169190476Y-110383390D02*
X169095238Y-110335771D01*
X169095238Y-110335771D02*
X168904762Y-110335771D01*
X168904762Y-110335771D02*
X168809524Y-110383390D01*
X168809524Y-110383390D02*
X168761905Y-110431009D01*
X168761905Y-110431009D02*
X168714286Y-110526247D01*
X201666667Y-88107200D02*
X201809524Y-88154819D01*
X201809524Y-88154819D02*
X202047619Y-88154819D01*
X202047619Y-88154819D02*
X202142857Y-88107200D01*
X202142857Y-88107200D02*
X202190476Y-88059580D01*
X202190476Y-88059580D02*
X202238095Y-87964342D01*
X202238095Y-87964342D02*
X202238095Y-87869104D01*
X202238095Y-87869104D02*
X202190476Y-87773866D01*
X202190476Y-87773866D02*
X202142857Y-87726247D01*
X202142857Y-87726247D02*
X202047619Y-87678628D01*
X202047619Y-87678628D02*
X201857143Y-87631009D01*
X201857143Y-87631009D02*
X201761905Y-87583390D01*
X201761905Y-87583390D02*
X201714286Y-87535771D01*
X201714286Y-87535771D02*
X201666667Y-87440533D01*
X201666667Y-87440533D02*
X201666667Y-87345295D01*
X201666667Y-87345295D02*
X201714286Y-87250057D01*
X201714286Y-87250057D02*
X201761905Y-87202438D01*
X201761905Y-87202438D02*
X201857143Y-87154819D01*
X201857143Y-87154819D02*
X202095238Y-87154819D01*
X202095238Y-87154819D02*
X202238095Y-87202438D01*
X202571429Y-87154819D02*
X202809524Y-88154819D01*
X202809524Y-88154819D02*
X203000000Y-87440533D01*
X203000000Y-87440533D02*
X203190476Y-88154819D01*
X203190476Y-88154819D02*
X203428572Y-87154819D01*
X203714286Y-87154819D02*
X204333333Y-87154819D01*
X204333333Y-87154819D02*
X204000000Y-87535771D01*
X204000000Y-87535771D02*
X204142857Y-87535771D01*
X204142857Y-87535771D02*
X204238095Y-87583390D01*
X204238095Y-87583390D02*
X204285714Y-87631009D01*
X204285714Y-87631009D02*
X204333333Y-87726247D01*
X204333333Y-87726247D02*
X204333333Y-87964342D01*
X204333333Y-87964342D02*
X204285714Y-88059580D01*
X204285714Y-88059580D02*
X204238095Y-88107200D01*
X204238095Y-88107200D02*
X204142857Y-88154819D01*
X204142857Y-88154819D02*
X203857143Y-88154819D01*
X203857143Y-88154819D02*
X203761905Y-88107200D01*
X203761905Y-88107200D02*
X203714286Y-88059580D01*
X201516665Y-79607200D02*
X201659522Y-79654819D01*
X201659522Y-79654819D02*
X201897617Y-79654819D01*
X201897617Y-79654819D02*
X201992855Y-79607200D01*
X201992855Y-79607200D02*
X202040474Y-79559580D01*
X202040474Y-79559580D02*
X202088093Y-79464342D01*
X202088093Y-79464342D02*
X202088093Y-79369104D01*
X202088093Y-79369104D02*
X202040474Y-79273866D01*
X202040474Y-79273866D02*
X201992855Y-79226247D01*
X201992855Y-79226247D02*
X201897617Y-79178628D01*
X201897617Y-79178628D02*
X201707141Y-79131009D01*
X201707141Y-79131009D02*
X201611903Y-79083390D01*
X201611903Y-79083390D02*
X201564284Y-79035771D01*
X201564284Y-79035771D02*
X201516665Y-78940533D01*
X201516665Y-78940533D02*
X201516665Y-78845295D01*
X201516665Y-78845295D02*
X201564284Y-78750057D01*
X201564284Y-78750057D02*
X201611903Y-78702438D01*
X201611903Y-78702438D02*
X201707141Y-78654819D01*
X201707141Y-78654819D02*
X201945236Y-78654819D01*
X201945236Y-78654819D02*
X202088093Y-78702438D01*
X202421427Y-78654819D02*
X202659522Y-79654819D01*
X202659522Y-79654819D02*
X202849998Y-78940533D01*
X202849998Y-78940533D02*
X203040474Y-79654819D01*
X203040474Y-79654819D02*
X203278570Y-78654819D01*
X203611903Y-78750057D02*
X203659522Y-78702438D01*
X203659522Y-78702438D02*
X203754760Y-78654819D01*
X203754760Y-78654819D02*
X203992855Y-78654819D01*
X203992855Y-78654819D02*
X204088093Y-78702438D01*
X204088093Y-78702438D02*
X204135712Y-78750057D01*
X204135712Y-78750057D02*
X204183331Y-78845295D01*
X204183331Y-78845295D02*
X204183331Y-78940533D01*
X204183331Y-78940533D02*
X204135712Y-79083390D01*
X204135712Y-79083390D02*
X203564284Y-79654819D01*
X203564284Y-79654819D02*
X204183331Y-79654819D01*
X153083333Y-101159580D02*
X153035714Y-101207200D01*
X153035714Y-101207200D02*
X152892857Y-101254819D01*
X152892857Y-101254819D02*
X152797619Y-101254819D01*
X152797619Y-101254819D02*
X152654762Y-101207200D01*
X152654762Y-101207200D02*
X152559524Y-101111961D01*
X152559524Y-101111961D02*
X152511905Y-101016723D01*
X152511905Y-101016723D02*
X152464286Y-100826247D01*
X152464286Y-100826247D02*
X152464286Y-100683390D01*
X152464286Y-100683390D02*
X152511905Y-100492914D01*
X152511905Y-100492914D02*
X152559524Y-100397676D01*
X152559524Y-100397676D02*
X152654762Y-100302438D01*
X152654762Y-100302438D02*
X152797619Y-100254819D01*
X152797619Y-100254819D02*
X152892857Y-100254819D01*
X152892857Y-100254819D02*
X153035714Y-100302438D01*
X153035714Y-100302438D02*
X153083333Y-100350057D01*
X153464286Y-100350057D02*
X153511905Y-100302438D01*
X153511905Y-100302438D02*
X153607143Y-100254819D01*
X153607143Y-100254819D02*
X153845238Y-100254819D01*
X153845238Y-100254819D02*
X153940476Y-100302438D01*
X153940476Y-100302438D02*
X153988095Y-100350057D01*
X153988095Y-100350057D02*
X154035714Y-100445295D01*
X154035714Y-100445295D02*
X154035714Y-100540533D01*
X154035714Y-100540533D02*
X153988095Y-100683390D01*
X153988095Y-100683390D02*
X153416667Y-101254819D01*
X153416667Y-101254819D02*
X154035714Y-101254819D01*
X148933333Y-93334819D02*
X148600000Y-92858628D01*
X148361905Y-93334819D02*
X148361905Y-92334819D01*
X148361905Y-92334819D02*
X148742857Y-92334819D01*
X148742857Y-92334819D02*
X148838095Y-92382438D01*
X148838095Y-92382438D02*
X148885714Y-92430057D01*
X148885714Y-92430057D02*
X148933333Y-92525295D01*
X148933333Y-92525295D02*
X148933333Y-92668152D01*
X148933333Y-92668152D02*
X148885714Y-92763390D01*
X148885714Y-92763390D02*
X148838095Y-92811009D01*
X148838095Y-92811009D02*
X148742857Y-92858628D01*
X148742857Y-92858628D02*
X148361905Y-92858628D01*
X149504762Y-92763390D02*
X149409524Y-92715771D01*
X149409524Y-92715771D02*
X149361905Y-92668152D01*
X149361905Y-92668152D02*
X149314286Y-92572914D01*
X149314286Y-92572914D02*
X149314286Y-92525295D01*
X149314286Y-92525295D02*
X149361905Y-92430057D01*
X149361905Y-92430057D02*
X149409524Y-92382438D01*
X149409524Y-92382438D02*
X149504762Y-92334819D01*
X149504762Y-92334819D02*
X149695238Y-92334819D01*
X149695238Y-92334819D02*
X149790476Y-92382438D01*
X149790476Y-92382438D02*
X149838095Y-92430057D01*
X149838095Y-92430057D02*
X149885714Y-92525295D01*
X149885714Y-92525295D02*
X149885714Y-92572914D01*
X149885714Y-92572914D02*
X149838095Y-92668152D01*
X149838095Y-92668152D02*
X149790476Y-92715771D01*
X149790476Y-92715771D02*
X149695238Y-92763390D01*
X149695238Y-92763390D02*
X149504762Y-92763390D01*
X149504762Y-92763390D02*
X149409524Y-92811009D01*
X149409524Y-92811009D02*
X149361905Y-92858628D01*
X149361905Y-92858628D02*
X149314286Y-92953866D01*
X149314286Y-92953866D02*
X149314286Y-93144342D01*
X149314286Y-93144342D02*
X149361905Y-93239580D01*
X149361905Y-93239580D02*
X149409524Y-93287200D01*
X149409524Y-93287200D02*
X149504762Y-93334819D01*
X149504762Y-93334819D02*
X149695238Y-93334819D01*
X149695238Y-93334819D02*
X149790476Y-93287200D01*
X149790476Y-93287200D02*
X149838095Y-93239580D01*
X149838095Y-93239580D02*
X149885714Y-93144342D01*
X149885714Y-93144342D02*
X149885714Y-92953866D01*
X149885714Y-92953866D02*
X149838095Y-92858628D01*
X149838095Y-92858628D02*
X149790476Y-92811009D01*
X149790476Y-92811009D02*
X149695238Y-92763390D01*
X161566666Y-75954819D02*
X161566666Y-76669104D01*
X161566666Y-76669104D02*
X161519047Y-76811961D01*
X161519047Y-76811961D02*
X161423809Y-76907200D01*
X161423809Y-76907200D02*
X161280952Y-76954819D01*
X161280952Y-76954819D02*
X161185714Y-76954819D01*
X162566666Y-76954819D02*
X161995238Y-76954819D01*
X162280952Y-76954819D02*
X162280952Y-75954819D01*
X162280952Y-75954819D02*
X162185714Y-76097676D01*
X162185714Y-76097676D02*
X162090476Y-76192914D01*
X162090476Y-76192914D02*
X161995238Y-76240533D01*
X147933333Y-117359581D02*
X147885714Y-117407201D01*
X147885714Y-117407201D02*
X147742857Y-117454820D01*
X147742857Y-117454820D02*
X147647619Y-117454820D01*
X147647619Y-117454820D02*
X147504762Y-117407201D01*
X147504762Y-117407201D02*
X147409524Y-117311962D01*
X147409524Y-117311962D02*
X147361905Y-117216724D01*
X147361905Y-117216724D02*
X147314286Y-117026248D01*
X147314286Y-117026248D02*
X147314286Y-116883391D01*
X147314286Y-116883391D02*
X147361905Y-116692915D01*
X147361905Y-116692915D02*
X147409524Y-116597677D01*
X147409524Y-116597677D02*
X147504762Y-116502439D01*
X147504762Y-116502439D02*
X147647619Y-116454820D01*
X147647619Y-116454820D02*
X147742857Y-116454820D01*
X147742857Y-116454820D02*
X147885714Y-116502439D01*
X147885714Y-116502439D02*
X147933333Y-116550058D01*
X148266667Y-116454820D02*
X148933333Y-116454820D01*
X148933333Y-116454820D02*
X148504762Y-117454820D01*
X180857142Y-76954819D02*
X180523809Y-76478628D01*
X180285714Y-76954819D02*
X180285714Y-75954819D01*
X180285714Y-75954819D02*
X180666666Y-75954819D01*
X180666666Y-75954819D02*
X180761904Y-76002438D01*
X180761904Y-76002438D02*
X180809523Y-76050057D01*
X180809523Y-76050057D02*
X180857142Y-76145295D01*
X180857142Y-76145295D02*
X180857142Y-76288152D01*
X180857142Y-76288152D02*
X180809523Y-76383390D01*
X180809523Y-76383390D02*
X180761904Y-76431009D01*
X180761904Y-76431009D02*
X180666666Y-76478628D01*
X180666666Y-76478628D02*
X180285714Y-76478628D01*
X181238095Y-76050057D02*
X181285714Y-76002438D01*
X181285714Y-76002438D02*
X181380952Y-75954819D01*
X181380952Y-75954819D02*
X181619047Y-75954819D01*
X181619047Y-75954819D02*
X181714285Y-76002438D01*
X181714285Y-76002438D02*
X181761904Y-76050057D01*
X181761904Y-76050057D02*
X181809523Y-76145295D01*
X181809523Y-76145295D02*
X181809523Y-76240533D01*
X181809523Y-76240533D02*
X181761904Y-76383390D01*
X181761904Y-76383390D02*
X181190476Y-76954819D01*
X181190476Y-76954819D02*
X181809523Y-76954819D01*
X182142857Y-75954819D02*
X182809523Y-75954819D01*
X182809523Y-75954819D02*
X182380952Y-76954819D01*
X185527266Y-123854819D02*
X185527266Y-124569104D01*
X185527266Y-124569104D02*
X185479647Y-124711961D01*
X185479647Y-124711961D02*
X185384409Y-124807200D01*
X185384409Y-124807200D02*
X185241552Y-124854819D01*
X185241552Y-124854819D02*
X185146314Y-124854819D01*
X185908219Y-123854819D02*
X186527266Y-123854819D01*
X186527266Y-123854819D02*
X186193933Y-124235771D01*
X186193933Y-124235771D02*
X186336790Y-124235771D01*
X186336790Y-124235771D02*
X186432028Y-124283390D01*
X186432028Y-124283390D02*
X186479647Y-124331009D01*
X186479647Y-124331009D02*
X186527266Y-124426247D01*
X186527266Y-124426247D02*
X186527266Y-124664342D01*
X186527266Y-124664342D02*
X186479647Y-124759580D01*
X186479647Y-124759580D02*
X186432028Y-124807200D01*
X186432028Y-124807200D02*
X186336790Y-124854819D01*
X186336790Y-124854819D02*
X186051076Y-124854819D01*
X186051076Y-124854819D02*
X185955838Y-124807200D01*
X185955838Y-124807200D02*
X185908219Y-124759580D01*
X175054819Y-82566666D02*
X174578628Y-82899999D01*
X175054819Y-83138094D02*
X174054819Y-83138094D01*
X174054819Y-83138094D02*
X174054819Y-82757142D01*
X174054819Y-82757142D02*
X174102438Y-82661904D01*
X174102438Y-82661904D02*
X174150057Y-82614285D01*
X174150057Y-82614285D02*
X174245295Y-82566666D01*
X174245295Y-82566666D02*
X174388152Y-82566666D01*
X174388152Y-82566666D02*
X174483390Y-82614285D01*
X174483390Y-82614285D02*
X174531009Y-82661904D01*
X174531009Y-82661904D02*
X174578628Y-82757142D01*
X174578628Y-82757142D02*
X174578628Y-83138094D01*
X174388152Y-81709523D02*
X175054819Y-81709523D01*
X174007200Y-81947618D02*
X174721485Y-82185713D01*
X174721485Y-82185713D02*
X174721485Y-81566666D01*
X174204761Y-123350057D02*
X174109523Y-123302438D01*
X174109523Y-123302438D02*
X174014285Y-123207200D01*
X174014285Y-123207200D02*
X173871428Y-123064342D01*
X173871428Y-123064342D02*
X173776190Y-123016723D01*
X173776190Y-123016723D02*
X173680952Y-123016723D01*
X173728571Y-123254819D02*
X173633333Y-123207200D01*
X173633333Y-123207200D02*
X173538095Y-123111961D01*
X173538095Y-123111961D02*
X173490476Y-122921485D01*
X173490476Y-122921485D02*
X173490476Y-122588152D01*
X173490476Y-122588152D02*
X173538095Y-122397676D01*
X173538095Y-122397676D02*
X173633333Y-122302438D01*
X173633333Y-122302438D02*
X173728571Y-122254819D01*
X173728571Y-122254819D02*
X173919047Y-122254819D01*
X173919047Y-122254819D02*
X174014285Y-122302438D01*
X174014285Y-122302438D02*
X174109523Y-122397676D01*
X174109523Y-122397676D02*
X174157142Y-122588152D01*
X174157142Y-122588152D02*
X174157142Y-122921485D01*
X174157142Y-122921485D02*
X174109523Y-123111961D01*
X174109523Y-123111961D02*
X174014285Y-123207200D01*
X174014285Y-123207200D02*
X173919047Y-123254819D01*
X173919047Y-123254819D02*
X173728571Y-123254819D01*
X174538095Y-122350057D02*
X174585714Y-122302438D01*
X174585714Y-122302438D02*
X174680952Y-122254819D01*
X174680952Y-122254819D02*
X174919047Y-122254819D01*
X174919047Y-122254819D02*
X175014285Y-122302438D01*
X175014285Y-122302438D02*
X175061904Y-122350057D01*
X175061904Y-122350057D02*
X175109523Y-122445295D01*
X175109523Y-122445295D02*
X175109523Y-122540533D01*
X175109523Y-122540533D02*
X175061904Y-122683390D01*
X175061904Y-122683390D02*
X174490476Y-123254819D01*
X174490476Y-123254819D02*
X175109523Y-123254819D01*
X173083333Y-121454819D02*
X172750000Y-120978628D01*
X172511905Y-121454819D02*
X172511905Y-120454819D01*
X172511905Y-120454819D02*
X172892857Y-120454819D01*
X172892857Y-120454819D02*
X172988095Y-120502438D01*
X172988095Y-120502438D02*
X173035714Y-120550057D01*
X173035714Y-120550057D02*
X173083333Y-120645295D01*
X173083333Y-120645295D02*
X173083333Y-120788152D01*
X173083333Y-120788152D02*
X173035714Y-120883390D01*
X173035714Y-120883390D02*
X172988095Y-120931009D01*
X172988095Y-120931009D02*
X172892857Y-120978628D01*
X172892857Y-120978628D02*
X172511905Y-120978628D01*
X173416667Y-120454819D02*
X174035714Y-120454819D01*
X174035714Y-120454819D02*
X173702381Y-120835771D01*
X173702381Y-120835771D02*
X173845238Y-120835771D01*
X173845238Y-120835771D02*
X173940476Y-120883390D01*
X173940476Y-120883390D02*
X173988095Y-120931009D01*
X173988095Y-120931009D02*
X174035714Y-121026247D01*
X174035714Y-121026247D02*
X174035714Y-121264342D01*
X174035714Y-121264342D02*
X173988095Y-121359580D01*
X173988095Y-121359580D02*
X173940476Y-121407200D01*
X173940476Y-121407200D02*
X173845238Y-121454819D01*
X173845238Y-121454819D02*
X173559524Y-121454819D01*
X173559524Y-121454819D02*
X173464286Y-121407200D01*
X173464286Y-121407200D02*
X173416667Y-121359580D01*
X197607142Y-82109580D02*
X197559523Y-82157200D01*
X197559523Y-82157200D02*
X197416666Y-82204819D01*
X197416666Y-82204819D02*
X197321428Y-82204819D01*
X197321428Y-82204819D02*
X197178571Y-82157200D01*
X197178571Y-82157200D02*
X197083333Y-82061961D01*
X197083333Y-82061961D02*
X197035714Y-81966723D01*
X197035714Y-81966723D02*
X196988095Y-81776247D01*
X196988095Y-81776247D02*
X196988095Y-81633390D01*
X196988095Y-81633390D02*
X197035714Y-81442914D01*
X197035714Y-81442914D02*
X197083333Y-81347676D01*
X197083333Y-81347676D02*
X197178571Y-81252438D01*
X197178571Y-81252438D02*
X197321428Y-81204819D01*
X197321428Y-81204819D02*
X197416666Y-81204819D01*
X197416666Y-81204819D02*
X197559523Y-81252438D01*
X197559523Y-81252438D02*
X197607142Y-81300057D01*
X198559523Y-82204819D02*
X197988095Y-82204819D01*
X198273809Y-82204819D02*
X198273809Y-81204819D01*
X198273809Y-81204819D02*
X198178571Y-81347676D01*
X198178571Y-81347676D02*
X198083333Y-81442914D01*
X198083333Y-81442914D02*
X197988095Y-81490533D01*
X198892857Y-81204819D02*
X199559523Y-81204819D01*
X199559523Y-81204819D02*
X199130952Y-82204819D01*
X144964285Y-87931009D02*
X145107142Y-87978628D01*
X145107142Y-87978628D02*
X145154761Y-88026247D01*
X145154761Y-88026247D02*
X145202380Y-88121485D01*
X145202380Y-88121485D02*
X145202380Y-88264342D01*
X145202380Y-88264342D02*
X145154761Y-88359580D01*
X145154761Y-88359580D02*
X145107142Y-88407200D01*
X145107142Y-88407200D02*
X145011904Y-88454819D01*
X145011904Y-88454819D02*
X144630952Y-88454819D01*
X144630952Y-88454819D02*
X144630952Y-87454819D01*
X144630952Y-87454819D02*
X144964285Y-87454819D01*
X144964285Y-87454819D02*
X145059523Y-87502438D01*
X145059523Y-87502438D02*
X145107142Y-87550057D01*
X145107142Y-87550057D02*
X145154761Y-87645295D01*
X145154761Y-87645295D02*
X145154761Y-87740533D01*
X145154761Y-87740533D02*
X145107142Y-87835771D01*
X145107142Y-87835771D02*
X145059523Y-87883390D01*
X145059523Y-87883390D02*
X144964285Y-87931009D01*
X144964285Y-87931009D02*
X144630952Y-87931009D01*
X145488095Y-87454819D02*
X146059523Y-87454819D01*
X145773809Y-88454819D02*
X145773809Y-87454819D01*
X146345238Y-87550057D02*
X146392857Y-87502438D01*
X146392857Y-87502438D02*
X146488095Y-87454819D01*
X146488095Y-87454819D02*
X146726190Y-87454819D01*
X146726190Y-87454819D02*
X146821428Y-87502438D01*
X146821428Y-87502438D02*
X146869047Y-87550057D01*
X146869047Y-87550057D02*
X146916666Y-87645295D01*
X146916666Y-87645295D02*
X146916666Y-87740533D01*
X146916666Y-87740533D02*
X146869047Y-87883390D01*
X146869047Y-87883390D02*
X146297619Y-88454819D01*
X146297619Y-88454819D02*
X146916666Y-88454819D01*
X140854819Y-109661904D02*
X141664342Y-109661904D01*
X141664342Y-109661904D02*
X141759580Y-109614285D01*
X141759580Y-109614285D02*
X141807200Y-109566666D01*
X141807200Y-109566666D02*
X141854819Y-109471428D01*
X141854819Y-109471428D02*
X141854819Y-109280952D01*
X141854819Y-109280952D02*
X141807200Y-109185714D01*
X141807200Y-109185714D02*
X141759580Y-109138095D01*
X141759580Y-109138095D02*
X141664342Y-109090476D01*
X141664342Y-109090476D02*
X140854819Y-109090476D01*
X141188152Y-108185714D02*
X141854819Y-108185714D01*
X140807200Y-108423809D02*
X141521485Y-108661904D01*
X141521485Y-108661904D02*
X141521485Y-108042857D01*
X142325595Y-113467319D02*
X142325595Y-114276842D01*
X142325595Y-114276842D02*
X142373214Y-114372080D01*
X142373214Y-114372080D02*
X142420833Y-114419700D01*
X142420833Y-114419700D02*
X142516071Y-114467319D01*
X142516071Y-114467319D02*
X142706547Y-114467319D01*
X142706547Y-114467319D02*
X142801785Y-114419700D01*
X142801785Y-114419700D02*
X142849404Y-114372080D01*
X142849404Y-114372080D02*
X142897023Y-114276842D01*
X142897023Y-114276842D02*
X142897023Y-113467319D01*
X143325595Y-114419700D02*
X143468452Y-114467319D01*
X143468452Y-114467319D02*
X143706547Y-114467319D01*
X143706547Y-114467319D02*
X143801785Y-114419700D01*
X143801785Y-114419700D02*
X143849404Y-114372080D01*
X143849404Y-114372080D02*
X143897023Y-114276842D01*
X143897023Y-114276842D02*
X143897023Y-114181604D01*
X143897023Y-114181604D02*
X143849404Y-114086366D01*
X143849404Y-114086366D02*
X143801785Y-114038747D01*
X143801785Y-114038747D02*
X143706547Y-113991128D01*
X143706547Y-113991128D02*
X143516071Y-113943509D01*
X143516071Y-113943509D02*
X143420833Y-113895890D01*
X143420833Y-113895890D02*
X143373214Y-113848271D01*
X143373214Y-113848271D02*
X143325595Y-113753033D01*
X143325595Y-113753033D02*
X143325595Y-113657795D01*
X143325595Y-113657795D02*
X143373214Y-113562557D01*
X143373214Y-113562557D02*
X143420833Y-113514938D01*
X143420833Y-113514938D02*
X143516071Y-113467319D01*
X143516071Y-113467319D02*
X143754166Y-113467319D01*
X143754166Y-113467319D02*
X143897023Y-113514938D01*
X144658928Y-113943509D02*
X144801785Y-113991128D01*
X144801785Y-113991128D02*
X144849404Y-114038747D01*
X144849404Y-114038747D02*
X144897023Y-114133985D01*
X144897023Y-114133985D02*
X144897023Y-114276842D01*
X144897023Y-114276842D02*
X144849404Y-114372080D01*
X144849404Y-114372080D02*
X144801785Y-114419700D01*
X144801785Y-114419700D02*
X144706547Y-114467319D01*
X144706547Y-114467319D02*
X144325595Y-114467319D01*
X144325595Y-114467319D02*
X144325595Y-113467319D01*
X144325595Y-113467319D02*
X144658928Y-113467319D01*
X144658928Y-113467319D02*
X144754166Y-113514938D01*
X144754166Y-113514938D02*
X144801785Y-113562557D01*
X144801785Y-113562557D02*
X144849404Y-113657795D01*
X144849404Y-113657795D02*
X144849404Y-113753033D01*
X144849404Y-113753033D02*
X144801785Y-113848271D01*
X144801785Y-113848271D02*
X144754166Y-113895890D01*
X144754166Y-113895890D02*
X144658928Y-113943509D01*
X144658928Y-113943509D02*
X144325595Y-113943509D01*
X135542319Y-96164880D02*
X135542319Y-95974404D01*
X135542319Y-95974404D02*
X135589938Y-95879166D01*
X135589938Y-95879166D02*
X135685176Y-95783928D01*
X135685176Y-95783928D02*
X135875652Y-95736309D01*
X135875652Y-95736309D02*
X136208985Y-95736309D01*
X136208985Y-95736309D02*
X136399461Y-95783928D01*
X136399461Y-95783928D02*
X136494700Y-95879166D01*
X136494700Y-95879166D02*
X136542319Y-95974404D01*
X136542319Y-95974404D02*
X136542319Y-96164880D01*
X136542319Y-96164880D02*
X136494700Y-96260118D01*
X136494700Y-96260118D02*
X136399461Y-96355356D01*
X136399461Y-96355356D02*
X136208985Y-96402975D01*
X136208985Y-96402975D02*
X135875652Y-96402975D01*
X135875652Y-96402975D02*
X135685176Y-96355356D01*
X135685176Y-96355356D02*
X135589938Y-96260118D01*
X135589938Y-96260118D02*
X135542319Y-96164880D01*
X135875652Y-94879166D02*
X136542319Y-94879166D01*
X135875652Y-95307737D02*
X136399461Y-95307737D01*
X136399461Y-95307737D02*
X136494700Y-95260118D01*
X136494700Y-95260118D02*
X136542319Y-95164880D01*
X136542319Y-95164880D02*
X136542319Y-95022023D01*
X136542319Y-95022023D02*
X136494700Y-94926785D01*
X136494700Y-94926785D02*
X136447080Y-94879166D01*
X135875652Y-94545832D02*
X135875652Y-94164880D01*
X135542319Y-94402975D02*
X136399461Y-94402975D01*
X136399461Y-94402975D02*
X136494700Y-94355356D01*
X136494700Y-94355356D02*
X136542319Y-94260118D01*
X136542319Y-94260118D02*
X136542319Y-94164880D01*
X136161366Y-93831546D02*
X136161366Y-93069642D01*
X136542319Y-93450594D02*
X135780414Y-93450594D01*
X147118509Y-94460118D02*
X147166128Y-94317261D01*
X147166128Y-94317261D02*
X147213747Y-94269642D01*
X147213747Y-94269642D02*
X147308985Y-94222023D01*
X147308985Y-94222023D02*
X147451842Y-94222023D01*
X147451842Y-94222023D02*
X147547080Y-94269642D01*
X147547080Y-94269642D02*
X147594700Y-94317261D01*
X147594700Y-94317261D02*
X147642319Y-94412499D01*
X147642319Y-94412499D02*
X147642319Y-94793451D01*
X147642319Y-94793451D02*
X146642319Y-94793451D01*
X146642319Y-94793451D02*
X146642319Y-94460118D01*
X146642319Y-94460118D02*
X146689938Y-94364880D01*
X146689938Y-94364880D02*
X146737557Y-94317261D01*
X146737557Y-94317261D02*
X146832795Y-94269642D01*
X146832795Y-94269642D02*
X146928033Y-94269642D01*
X146928033Y-94269642D02*
X147023271Y-94317261D01*
X147023271Y-94317261D02*
X147070890Y-94364880D01*
X147070890Y-94364880D02*
X147118509Y-94460118D01*
X147118509Y-94460118D02*
X147118509Y-94793451D01*
X147261366Y-93793451D02*
X147261366Y-93031547D01*
X151361366Y-111993451D02*
X151361366Y-111231547D01*
X143318509Y-109555358D02*
X143366128Y-109412501D01*
X143366128Y-109412501D02*
X143413747Y-109364882D01*
X143413747Y-109364882D02*
X143508985Y-109317263D01*
X143508985Y-109317263D02*
X143651842Y-109317263D01*
X143651842Y-109317263D02*
X143747080Y-109364882D01*
X143747080Y-109364882D02*
X143794700Y-109412501D01*
X143794700Y-109412501D02*
X143842319Y-109507739D01*
X143842319Y-109507739D02*
X143842319Y-109888691D01*
X143842319Y-109888691D02*
X142842319Y-109888691D01*
X142842319Y-109888691D02*
X142842319Y-109555358D01*
X142842319Y-109555358D02*
X142889938Y-109460120D01*
X142889938Y-109460120D02*
X142937557Y-109412501D01*
X142937557Y-109412501D02*
X143032795Y-109364882D01*
X143032795Y-109364882D02*
X143128033Y-109364882D01*
X143128033Y-109364882D02*
X143223271Y-109412501D01*
X143223271Y-109412501D02*
X143270890Y-109460120D01*
X143270890Y-109460120D02*
X143318509Y-109555358D01*
X143318509Y-109555358D02*
X143318509Y-109888691D01*
X143842319Y-108460120D02*
X143318509Y-108460120D01*
X143318509Y-108460120D02*
X143223271Y-108507739D01*
X143223271Y-108507739D02*
X143175652Y-108602977D01*
X143175652Y-108602977D02*
X143175652Y-108793453D01*
X143175652Y-108793453D02*
X143223271Y-108888691D01*
X143794700Y-108460120D02*
X143842319Y-108555358D01*
X143842319Y-108555358D02*
X143842319Y-108793453D01*
X143842319Y-108793453D02*
X143794700Y-108888691D01*
X143794700Y-108888691D02*
X143699461Y-108936310D01*
X143699461Y-108936310D02*
X143604223Y-108936310D01*
X143604223Y-108936310D02*
X143508985Y-108888691D01*
X143508985Y-108888691D02*
X143461366Y-108793453D01*
X143461366Y-108793453D02*
X143461366Y-108555358D01*
X143461366Y-108555358D02*
X143413747Y-108460120D01*
X143175652Y-108126786D02*
X143175652Y-107745834D01*
X142842319Y-107983929D02*
X143699461Y-107983929D01*
X143699461Y-107983929D02*
X143794700Y-107936310D01*
X143794700Y-107936310D02*
X143842319Y-107841072D01*
X143842319Y-107841072D02*
X143842319Y-107745834D01*
X143175652Y-107555357D02*
X143175652Y-107174405D01*
X142842319Y-107412500D02*
X143699461Y-107412500D01*
X143699461Y-107412500D02*
X143794700Y-107364881D01*
X143794700Y-107364881D02*
X143842319Y-107269643D01*
X143842319Y-107269643D02*
X143842319Y-107174405D01*
X143794700Y-106460119D02*
X143842319Y-106555357D01*
X143842319Y-106555357D02*
X143842319Y-106745833D01*
X143842319Y-106745833D02*
X143794700Y-106841071D01*
X143794700Y-106841071D02*
X143699461Y-106888690D01*
X143699461Y-106888690D02*
X143318509Y-106888690D01*
X143318509Y-106888690D02*
X143223271Y-106841071D01*
X143223271Y-106841071D02*
X143175652Y-106745833D01*
X143175652Y-106745833D02*
X143175652Y-106555357D01*
X143175652Y-106555357D02*
X143223271Y-106460119D01*
X143223271Y-106460119D02*
X143318509Y-106412500D01*
X143318509Y-106412500D02*
X143413747Y-106412500D01*
X143413747Y-106412500D02*
X143508985Y-106888690D01*
X143842319Y-105983928D02*
X143175652Y-105983928D01*
X143366128Y-105983928D02*
X143270890Y-105936309D01*
X143270890Y-105936309D02*
X143223271Y-105888690D01*
X143223271Y-105888690D02*
X143175652Y-105793452D01*
X143175652Y-105793452D02*
X143175652Y-105698214D01*
X143175652Y-105460118D02*
X143842319Y-105222023D01*
X143175652Y-104983928D02*
X143842319Y-105222023D01*
X143842319Y-105222023D02*
X144080414Y-105317261D01*
X144080414Y-105317261D02*
X144128033Y-105364880D01*
X144128033Y-105364880D02*
X144175652Y-105460118D01*
X143747080Y-103269642D02*
X143794700Y-103317261D01*
X143794700Y-103317261D02*
X143842319Y-103460118D01*
X143842319Y-103460118D02*
X143842319Y-103555356D01*
X143842319Y-103555356D02*
X143794700Y-103698213D01*
X143794700Y-103698213D02*
X143699461Y-103793451D01*
X143699461Y-103793451D02*
X143604223Y-103841070D01*
X143604223Y-103841070D02*
X143413747Y-103888689D01*
X143413747Y-103888689D02*
X143270890Y-103888689D01*
X143270890Y-103888689D02*
X143080414Y-103841070D01*
X143080414Y-103841070D02*
X142985176Y-103793451D01*
X142985176Y-103793451D02*
X142889938Y-103698213D01*
X142889938Y-103698213D02*
X142842319Y-103555356D01*
X142842319Y-103555356D02*
X142842319Y-103460118D01*
X142842319Y-103460118D02*
X142889938Y-103317261D01*
X142889938Y-103317261D02*
X142937557Y-103269642D01*
X143842319Y-102841070D02*
X142842319Y-102841070D01*
X143842319Y-102412499D02*
X143318509Y-102412499D01*
X143318509Y-102412499D02*
X143223271Y-102460118D01*
X143223271Y-102460118D02*
X143175652Y-102555356D01*
X143175652Y-102555356D02*
X143175652Y-102698213D01*
X143175652Y-102698213D02*
X143223271Y-102793451D01*
X143223271Y-102793451D02*
X143270890Y-102841070D01*
X143842319Y-101507737D02*
X143318509Y-101507737D01*
X143318509Y-101507737D02*
X143223271Y-101555356D01*
X143223271Y-101555356D02*
X143175652Y-101650594D01*
X143175652Y-101650594D02*
X143175652Y-101841070D01*
X143175652Y-101841070D02*
X143223271Y-101936308D01*
X143794700Y-101507737D02*
X143842319Y-101602975D01*
X143842319Y-101602975D02*
X143842319Y-101841070D01*
X143842319Y-101841070D02*
X143794700Y-101936308D01*
X143794700Y-101936308D02*
X143699461Y-101983927D01*
X143699461Y-101983927D02*
X143604223Y-101983927D01*
X143604223Y-101983927D02*
X143508985Y-101936308D01*
X143508985Y-101936308D02*
X143461366Y-101841070D01*
X143461366Y-101841070D02*
X143461366Y-101602975D01*
X143461366Y-101602975D02*
X143413747Y-101507737D01*
X143842319Y-101031546D02*
X143175652Y-101031546D01*
X143366128Y-101031546D02*
X143270890Y-100983927D01*
X143270890Y-100983927D02*
X143223271Y-100936308D01*
X143223271Y-100936308D02*
X143175652Y-100841070D01*
X143175652Y-100841070D02*
X143175652Y-100745832D01*
X143175652Y-99983927D02*
X143985176Y-99983927D01*
X143985176Y-99983927D02*
X144080414Y-100031546D01*
X144080414Y-100031546D02*
X144128033Y-100079165D01*
X144128033Y-100079165D02*
X144175652Y-100174403D01*
X144175652Y-100174403D02*
X144175652Y-100317260D01*
X144175652Y-100317260D02*
X144128033Y-100412498D01*
X143794700Y-99983927D02*
X143842319Y-100079165D01*
X143842319Y-100079165D02*
X143842319Y-100269641D01*
X143842319Y-100269641D02*
X143794700Y-100364879D01*
X143794700Y-100364879D02*
X143747080Y-100412498D01*
X143747080Y-100412498D02*
X143651842Y-100460117D01*
X143651842Y-100460117D02*
X143366128Y-100460117D01*
X143366128Y-100460117D02*
X143270890Y-100412498D01*
X143270890Y-100412498D02*
X143223271Y-100364879D01*
X143223271Y-100364879D02*
X143175652Y-100269641D01*
X143175652Y-100269641D02*
X143175652Y-100079165D01*
X143175652Y-100079165D02*
X143223271Y-99983927D01*
X143794700Y-99126784D02*
X143842319Y-99222022D01*
X143842319Y-99222022D02*
X143842319Y-99412498D01*
X143842319Y-99412498D02*
X143794700Y-99507736D01*
X143794700Y-99507736D02*
X143699461Y-99555355D01*
X143699461Y-99555355D02*
X143318509Y-99555355D01*
X143318509Y-99555355D02*
X143223271Y-99507736D01*
X143223271Y-99507736D02*
X143175652Y-99412498D01*
X143175652Y-99412498D02*
X143175652Y-99222022D01*
X143175652Y-99222022D02*
X143223271Y-99126784D01*
X143223271Y-99126784D02*
X143318509Y-99079165D01*
X143318509Y-99079165D02*
X143413747Y-99079165D01*
X143413747Y-99079165D02*
X143508985Y-99555355D01*
X143842319Y-98650593D02*
X143175652Y-98650593D01*
X143366128Y-98650593D02*
X143270890Y-98602974D01*
X143270890Y-98602974D02*
X143223271Y-98555355D01*
X143223271Y-98555355D02*
X143175652Y-98460117D01*
X143175652Y-98460117D02*
X143175652Y-98364879D01*
X143842319Y-96745831D02*
X143842319Y-97317259D01*
X143842319Y-97031545D02*
X142842319Y-97031545D01*
X142842319Y-97031545D02*
X142985176Y-97126783D01*
X142985176Y-97126783D02*
X143080414Y-97222021D01*
X143080414Y-97222021D02*
X143128033Y-97317259D01*
X143556604Y-96364878D02*
X143556604Y-95888688D01*
X143842319Y-96460116D02*
X142842319Y-96126783D01*
X142842319Y-96126783D02*
X143842319Y-95793450D01*
X136161366Y-112093451D02*
X136161366Y-111331547D01*
X136542319Y-111712499D02*
X135780414Y-111712499D01*
X139518509Y-94460118D02*
X139566128Y-94317261D01*
X139566128Y-94317261D02*
X139613747Y-94269642D01*
X139613747Y-94269642D02*
X139708985Y-94222023D01*
X139708985Y-94222023D02*
X139851842Y-94222023D01*
X139851842Y-94222023D02*
X139947080Y-94269642D01*
X139947080Y-94269642D02*
X139994700Y-94317261D01*
X139994700Y-94317261D02*
X140042319Y-94412499D01*
X140042319Y-94412499D02*
X140042319Y-94793451D01*
X140042319Y-94793451D02*
X139042319Y-94793451D01*
X139042319Y-94793451D02*
X139042319Y-94460118D01*
X139042319Y-94460118D02*
X139089938Y-94364880D01*
X139089938Y-94364880D02*
X139137557Y-94317261D01*
X139137557Y-94317261D02*
X139232795Y-94269642D01*
X139232795Y-94269642D02*
X139328033Y-94269642D01*
X139328033Y-94269642D02*
X139423271Y-94317261D01*
X139423271Y-94317261D02*
X139470890Y-94364880D01*
X139470890Y-94364880D02*
X139518509Y-94460118D01*
X139518509Y-94460118D02*
X139518509Y-94793451D01*
X139661366Y-93793451D02*
X139661366Y-93031547D01*
X140042319Y-93412499D02*
X139280414Y-93412499D01*
X150142319Y-96164880D02*
X150142319Y-95974404D01*
X150142319Y-95974404D02*
X150189938Y-95879166D01*
X150189938Y-95879166D02*
X150285176Y-95783928D01*
X150285176Y-95783928D02*
X150475652Y-95736309D01*
X150475652Y-95736309D02*
X150808985Y-95736309D01*
X150808985Y-95736309D02*
X150999461Y-95783928D01*
X150999461Y-95783928D02*
X151094700Y-95879166D01*
X151094700Y-95879166D02*
X151142319Y-95974404D01*
X151142319Y-95974404D02*
X151142319Y-96164880D01*
X151142319Y-96164880D02*
X151094700Y-96260118D01*
X151094700Y-96260118D02*
X150999461Y-96355356D01*
X150999461Y-96355356D02*
X150808985Y-96402975D01*
X150808985Y-96402975D02*
X150475652Y-96402975D01*
X150475652Y-96402975D02*
X150285176Y-96355356D01*
X150285176Y-96355356D02*
X150189938Y-96260118D01*
X150189938Y-96260118D02*
X150142319Y-96164880D01*
X150475652Y-94879166D02*
X151142319Y-94879166D01*
X150475652Y-95307737D02*
X150999461Y-95307737D01*
X150999461Y-95307737D02*
X151094700Y-95260118D01*
X151094700Y-95260118D02*
X151142319Y-95164880D01*
X151142319Y-95164880D02*
X151142319Y-95022023D01*
X151142319Y-95022023D02*
X151094700Y-94926785D01*
X151094700Y-94926785D02*
X151047080Y-94879166D01*
X150475652Y-94545832D02*
X150475652Y-94164880D01*
X150142319Y-94402975D02*
X150999461Y-94402975D01*
X150999461Y-94402975D02*
X151094700Y-94355356D01*
X151094700Y-94355356D02*
X151142319Y-94260118D01*
X151142319Y-94260118D02*
X151142319Y-94164880D01*
X150761366Y-93831546D02*
X150761366Y-93069642D01*
X147689938Y-114574404D02*
X147642319Y-114669642D01*
X147642319Y-114669642D02*
X147642319Y-114812499D01*
X147642319Y-114812499D02*
X147689938Y-114955356D01*
X147689938Y-114955356D02*
X147785176Y-115050594D01*
X147785176Y-115050594D02*
X147880414Y-115098213D01*
X147880414Y-115098213D02*
X148070890Y-115145832D01*
X148070890Y-115145832D02*
X148213747Y-115145832D01*
X148213747Y-115145832D02*
X148404223Y-115098213D01*
X148404223Y-115098213D02*
X148499461Y-115050594D01*
X148499461Y-115050594D02*
X148594700Y-114955356D01*
X148594700Y-114955356D02*
X148642319Y-114812499D01*
X148642319Y-114812499D02*
X148642319Y-114717261D01*
X148642319Y-114717261D02*
X148594700Y-114574404D01*
X148594700Y-114574404D02*
X148547080Y-114526785D01*
X148547080Y-114526785D02*
X148213747Y-114526785D01*
X148213747Y-114526785D02*
X148213747Y-114717261D01*
X148642319Y-114098213D02*
X147642319Y-114098213D01*
X147642319Y-114098213D02*
X148642319Y-113526785D01*
X148642319Y-113526785D02*
X147642319Y-113526785D01*
X148642319Y-113050594D02*
X147642319Y-113050594D01*
X147642319Y-113050594D02*
X147642319Y-112812499D01*
X147642319Y-112812499D02*
X147689938Y-112669642D01*
X147689938Y-112669642D02*
X147785176Y-112574404D01*
X147785176Y-112574404D02*
X147880414Y-112526785D01*
X147880414Y-112526785D02*
X148070890Y-112479166D01*
X148070890Y-112479166D02*
X148213747Y-112479166D01*
X148213747Y-112479166D02*
X148404223Y-112526785D01*
X148404223Y-112526785D02*
X148499461Y-112574404D01*
X148499461Y-112574404D02*
X148594700Y-112669642D01*
X148594700Y-112669642D02*
X148642319Y-112812499D01*
X148642319Y-112812499D02*
X148642319Y-113050594D01*
X138042319Y-114055357D02*
X138042319Y-114531547D01*
X138042319Y-114531547D02*
X138518509Y-114579166D01*
X138518509Y-114579166D02*
X138470890Y-114531547D01*
X138470890Y-114531547D02*
X138423271Y-114436309D01*
X138423271Y-114436309D02*
X138423271Y-114198214D01*
X138423271Y-114198214D02*
X138470890Y-114102976D01*
X138470890Y-114102976D02*
X138518509Y-114055357D01*
X138518509Y-114055357D02*
X138613747Y-114007738D01*
X138613747Y-114007738D02*
X138851842Y-114007738D01*
X138851842Y-114007738D02*
X138947080Y-114055357D01*
X138947080Y-114055357D02*
X138994700Y-114102976D01*
X138994700Y-114102976D02*
X139042319Y-114198214D01*
X139042319Y-114198214D02*
X139042319Y-114436309D01*
X139042319Y-114436309D02*
X138994700Y-114531547D01*
X138994700Y-114531547D02*
X138947080Y-114579166D01*
X138375652Y-113674404D02*
X139042319Y-113436309D01*
X139042319Y-113436309D02*
X138375652Y-113198214D01*
X192107142Y-84194819D02*
X191773809Y-83718628D01*
X191535714Y-84194819D02*
X191535714Y-83194819D01*
X191535714Y-83194819D02*
X191916666Y-83194819D01*
X191916666Y-83194819D02*
X192011904Y-83242438D01*
X192011904Y-83242438D02*
X192059523Y-83290057D01*
X192059523Y-83290057D02*
X192107142Y-83385295D01*
X192107142Y-83385295D02*
X192107142Y-83528152D01*
X192107142Y-83528152D02*
X192059523Y-83623390D01*
X192059523Y-83623390D02*
X192011904Y-83671009D01*
X192011904Y-83671009D02*
X191916666Y-83718628D01*
X191916666Y-83718628D02*
X191535714Y-83718628D01*
X192488095Y-83290057D02*
X192535714Y-83242438D01*
X192535714Y-83242438D02*
X192630952Y-83194819D01*
X192630952Y-83194819D02*
X192869047Y-83194819D01*
X192869047Y-83194819D02*
X192964285Y-83242438D01*
X192964285Y-83242438D02*
X193011904Y-83290057D01*
X193011904Y-83290057D02*
X193059523Y-83385295D01*
X193059523Y-83385295D02*
X193059523Y-83480533D01*
X193059523Y-83480533D02*
X193011904Y-83623390D01*
X193011904Y-83623390D02*
X192440476Y-84194819D01*
X192440476Y-84194819D02*
X193059523Y-84194819D01*
X193678571Y-83194819D02*
X193773809Y-83194819D01*
X193773809Y-83194819D02*
X193869047Y-83242438D01*
X193869047Y-83242438D02*
X193916666Y-83290057D01*
X193916666Y-83290057D02*
X193964285Y-83385295D01*
X193964285Y-83385295D02*
X194011904Y-83575771D01*
X194011904Y-83575771D02*
X194011904Y-83813866D01*
X194011904Y-83813866D02*
X193964285Y-84004342D01*
X193964285Y-84004342D02*
X193916666Y-84099580D01*
X193916666Y-84099580D02*
X193869047Y-84147200D01*
X193869047Y-84147200D02*
X193773809Y-84194819D01*
X193773809Y-84194819D02*
X193678571Y-84194819D01*
X193678571Y-84194819D02*
X193583333Y-84147200D01*
X193583333Y-84147200D02*
X193535714Y-84099580D01*
X193535714Y-84099580D02*
X193488095Y-84004342D01*
X193488095Y-84004342D02*
X193440476Y-83813866D01*
X193440476Y-83813866D02*
X193440476Y-83575771D01*
X193440476Y-83575771D02*
X193488095Y-83385295D01*
X193488095Y-83385295D02*
X193535714Y-83290057D01*
X193535714Y-83290057D02*
X193583333Y-83242438D01*
X193583333Y-83242438D02*
X193678571Y-83194819D01*
X174366667Y-70454819D02*
X174700000Y-71454819D01*
X174700000Y-71454819D02*
X175033333Y-70454819D01*
X175366667Y-70454819D02*
X175366667Y-71264342D01*
X175366667Y-71264342D02*
X175414286Y-71359580D01*
X175414286Y-71359580D02*
X175461905Y-71407200D01*
X175461905Y-71407200D02*
X175557143Y-71454819D01*
X175557143Y-71454819D02*
X175747619Y-71454819D01*
X175747619Y-71454819D02*
X175842857Y-71407200D01*
X175842857Y-71407200D02*
X175890476Y-71359580D01*
X175890476Y-71359580D02*
X175938095Y-71264342D01*
X175938095Y-71264342D02*
X175938095Y-70454819D01*
X176366667Y-71407200D02*
X176509524Y-71454819D01*
X176509524Y-71454819D02*
X176747619Y-71454819D01*
X176747619Y-71454819D02*
X176842857Y-71407200D01*
X176842857Y-71407200D02*
X176890476Y-71359580D01*
X176890476Y-71359580D02*
X176938095Y-71264342D01*
X176938095Y-71264342D02*
X176938095Y-71169104D01*
X176938095Y-71169104D02*
X176890476Y-71073866D01*
X176890476Y-71073866D02*
X176842857Y-71026247D01*
X176842857Y-71026247D02*
X176747619Y-70978628D01*
X176747619Y-70978628D02*
X176557143Y-70931009D01*
X176557143Y-70931009D02*
X176461905Y-70883390D01*
X176461905Y-70883390D02*
X176414286Y-70835771D01*
X176414286Y-70835771D02*
X176366667Y-70740533D01*
X176366667Y-70740533D02*
X176366667Y-70645295D01*
X176366667Y-70645295D02*
X176414286Y-70550057D01*
X176414286Y-70550057D02*
X176461905Y-70502438D01*
X176461905Y-70502438D02*
X176557143Y-70454819D01*
X176557143Y-70454819D02*
X176795238Y-70454819D01*
X176795238Y-70454819D02*
X176938095Y-70502438D01*
X177700000Y-70931009D02*
X177842857Y-70978628D01*
X177842857Y-70978628D02*
X177890476Y-71026247D01*
X177890476Y-71026247D02*
X177938095Y-71121485D01*
X177938095Y-71121485D02*
X177938095Y-71264342D01*
X177938095Y-71264342D02*
X177890476Y-71359580D01*
X177890476Y-71359580D02*
X177842857Y-71407200D01*
X177842857Y-71407200D02*
X177747619Y-71454819D01*
X177747619Y-71454819D02*
X177366667Y-71454819D01*
X177366667Y-71454819D02*
X177366667Y-70454819D01*
X177366667Y-70454819D02*
X177700000Y-70454819D01*
X177700000Y-70454819D02*
X177795238Y-70502438D01*
X177795238Y-70502438D02*
X177842857Y-70550057D01*
X177842857Y-70550057D02*
X177890476Y-70645295D01*
X177890476Y-70645295D02*
X177890476Y-70740533D01*
X177890476Y-70740533D02*
X177842857Y-70835771D01*
X177842857Y-70835771D02*
X177795238Y-70883390D01*
X177795238Y-70883390D02*
X177700000Y-70931009D01*
X177700000Y-70931009D02*
X177366667Y-70931009D01*
D10*
X172866667Y-135609800D02*
X173009524Y-135657419D01*
X173009524Y-135657419D02*
X173247619Y-135657419D01*
X173247619Y-135657419D02*
X173342857Y-135609800D01*
X173342857Y-135609800D02*
X173390476Y-135562180D01*
X173390476Y-135562180D02*
X173438095Y-135466942D01*
X173438095Y-135466942D02*
X173438095Y-135371704D01*
X173438095Y-135371704D02*
X173390476Y-135276466D01*
X173390476Y-135276466D02*
X173342857Y-135228847D01*
X173342857Y-135228847D02*
X173247619Y-135181228D01*
X173247619Y-135181228D02*
X173057143Y-135133609D01*
X173057143Y-135133609D02*
X172961905Y-135085990D01*
X172961905Y-135085990D02*
X172914286Y-135038371D01*
X172914286Y-135038371D02*
X172866667Y-134943133D01*
X172866667Y-134943133D02*
X172866667Y-134847895D01*
X172866667Y-134847895D02*
X172914286Y-134752657D01*
X172914286Y-134752657D02*
X172961905Y-134705038D01*
X172961905Y-134705038D02*
X173057143Y-134657419D01*
X173057143Y-134657419D02*
X173295238Y-134657419D01*
X173295238Y-134657419D02*
X173438095Y-134705038D01*
X173771429Y-134657419D02*
X174009524Y-135657419D01*
X174009524Y-135657419D02*
X174200000Y-134943133D01*
X174200000Y-134943133D02*
X174390476Y-135657419D01*
X174390476Y-135657419D02*
X174628572Y-134657419D01*
X175533333Y-135657419D02*
X174961905Y-135657419D01*
X175247619Y-135657419D02*
X175247619Y-134657419D01*
X175247619Y-134657419D02*
X175152381Y-134800276D01*
X175152381Y-134800276D02*
X175057143Y-134895514D01*
X175057143Y-134895514D02*
X174961905Y-134943133D01*
D11*
X154404761Y-86550057D02*
X154309523Y-86502438D01*
X154309523Y-86502438D02*
X154214285Y-86407200D01*
X154214285Y-86407200D02*
X154071428Y-86264342D01*
X154071428Y-86264342D02*
X153976190Y-86216723D01*
X153976190Y-86216723D02*
X153880952Y-86216723D01*
X153928571Y-86454819D02*
X153833333Y-86407200D01*
X153833333Y-86407200D02*
X153738095Y-86311961D01*
X153738095Y-86311961D02*
X153690476Y-86121485D01*
X153690476Y-86121485D02*
X153690476Y-85788152D01*
X153690476Y-85788152D02*
X153738095Y-85597676D01*
X153738095Y-85597676D02*
X153833333Y-85502438D01*
X153833333Y-85502438D02*
X153928571Y-85454819D01*
X153928571Y-85454819D02*
X154119047Y-85454819D01*
X154119047Y-85454819D02*
X154214285Y-85502438D01*
X154214285Y-85502438D02*
X154309523Y-85597676D01*
X154309523Y-85597676D02*
X154357142Y-85788152D01*
X154357142Y-85788152D02*
X154357142Y-86121485D01*
X154357142Y-86121485D02*
X154309523Y-86311961D01*
X154309523Y-86311961D02*
X154214285Y-86407200D01*
X154214285Y-86407200D02*
X154119047Y-86454819D01*
X154119047Y-86454819D02*
X153928571Y-86454819D01*
X155261904Y-85454819D02*
X154785714Y-85454819D01*
X154785714Y-85454819D02*
X154738095Y-85931009D01*
X154738095Y-85931009D02*
X154785714Y-85883390D01*
X154785714Y-85883390D02*
X154880952Y-85835771D01*
X154880952Y-85835771D02*
X155119047Y-85835771D01*
X155119047Y-85835771D02*
X155214285Y-85883390D01*
X155214285Y-85883390D02*
X155261904Y-85931009D01*
X155261904Y-85931009D02*
X155309523Y-86026247D01*
X155309523Y-86026247D02*
X155309523Y-86264342D01*
X155309523Y-86264342D02*
X155261904Y-86359580D01*
X155261904Y-86359580D02*
X155214285Y-86407200D01*
X155214285Y-86407200D02*
X155119047Y-86454819D01*
X155119047Y-86454819D02*
X154880952Y-86454819D01*
X154880952Y-86454819D02*
X154785714Y-86407200D01*
X154785714Y-86407200D02*
X154738095Y-86359580D01*
X157988095Y-101954819D02*
X157988095Y-102764342D01*
X157988095Y-102764342D02*
X158035714Y-102859580D01*
X158035714Y-102859580D02*
X158083333Y-102907200D01*
X158083333Y-102907200D02*
X158178571Y-102954819D01*
X158178571Y-102954819D02*
X158369047Y-102954819D01*
X158369047Y-102954819D02*
X158464285Y-102907200D01*
X158464285Y-102907200D02*
X158511904Y-102859580D01*
X158511904Y-102859580D02*
X158559523Y-102764342D01*
X158559523Y-102764342D02*
X158559523Y-101954819D01*
X158988095Y-102050057D02*
X159035714Y-102002438D01*
X159035714Y-102002438D02*
X159130952Y-101954819D01*
X159130952Y-101954819D02*
X159369047Y-101954819D01*
X159369047Y-101954819D02*
X159464285Y-102002438D01*
X159464285Y-102002438D02*
X159511904Y-102050057D01*
X159511904Y-102050057D02*
X159559523Y-102145295D01*
X159559523Y-102145295D02*
X159559523Y-102240533D01*
X159559523Y-102240533D02*
X159511904Y-102383390D01*
X159511904Y-102383390D02*
X158940476Y-102954819D01*
X158940476Y-102954819D02*
X159559523Y-102954819D01*
D15*
X155516800Y-105450600D02*
X155516800Y-117210800D01*
X155516800Y-117210800D02*
X158714660Y-117210800D01*
X158714660Y-105450600D02*
X155516800Y-105450600D01*
X162885340Y-117210800D02*
X166083200Y-117210800D01*
X166083200Y-105450600D02*
X162885340Y-105450600D01*
X166083200Y-117210800D02*
X166083200Y-105450600D01*
D16*
X163246267Y-83110000D02*
X162953733Y-83110000D01*
X163246267Y-82090000D02*
X162953733Y-82090000D01*
X143600000Y-77700000D02*
G75*
G02*
X140200000Y-77700000I-1700000J0D01*
G01*
X140200000Y-77700000D02*
G75*
G02*
X143600000Y-77700000I1700000J0D01*
G01*
X155709327Y-91736442D02*
G75*
G02*
X152309327Y-91736442I-1700000J0D01*
G01*
X152309327Y-91736442D02*
G75*
G02*
X155709327Y-91736442I1700000J0D01*
G01*
X173350000Y-130810000D02*
X176650000Y-130810000D01*
X173350000Y-130810000D02*
X173350000Y-125300000D01*
X176650000Y-130810000D02*
X176650000Y-125300000D01*
X163350000Y-128010000D02*
X166650000Y-128010000D01*
X163350000Y-128010000D02*
X163350000Y-122500000D01*
X166650000Y-128010000D02*
X166650000Y-122500000D01*
X144467600Y-72350000D02*
X144467600Y-77850000D01*
X144467600Y-72350000D02*
X151467600Y-72350000D01*
X144467600Y-77850000D02*
X151017600Y-77850000D01*
X145267600Y-76000000D02*
X145267600Y-74200000D01*
X150667600Y-76000000D02*
X150667600Y-74200000D01*
X151017600Y-77850000D02*
X151467600Y-77400000D01*
X151467600Y-77400000D02*
X151467600Y-72350000D01*
X168253733Y-101490000D02*
X168546267Y-101490000D01*
X168253733Y-102510000D02*
X168546267Y-102510000D01*
X156162742Y-100477500D02*
X156637258Y-100477500D01*
X156162742Y-101522500D02*
X156637258Y-101522500D01*
X168353733Y-106690000D02*
X168646267Y-106690000D01*
X168353733Y-107710000D02*
X168646267Y-107710000D01*
D15*
X158668100Y-89425300D02*
X158668100Y-90974700D01*
X161131900Y-90974700D02*
X161131900Y-89425300D01*
X160751789Y-88594974D02*
G75*
G02*
X160548589Y-88594974I-101600J0D01*
G01*
X160548589Y-88594974D02*
G75*
G02*
X160751789Y-88594974I101600J0D01*
G01*
D16*
X168840381Y-79359619D02*
X169229289Y-79748528D01*
X169229289Y-79748528D02*
X169370711Y-79607107D01*
X169759619Y-78440381D02*
X170148528Y-78829289D01*
X170148528Y-78829289D02*
X170007107Y-78970711D01*
X169533345Y-78058543D02*
X169335355Y-77860553D01*
X169731335Y-77860553D01*
X169533345Y-78058543D01*
G36*
X169533345Y-78058543D02*
G01*
X169335355Y-77860553D01*
X169731335Y-77860553D01*
X169533345Y-78058543D01*
G37*
X197200000Y-118000000D02*
G75*
G02*
X193800000Y-118000000I-1700000J0D01*
G01*
X193800000Y-118000000D02*
G75*
G02*
X197200000Y-118000000I1700000J0D01*
G01*
X146600000Y-128998600D02*
X149400000Y-128998600D01*
X146600000Y-130998600D02*
X146600000Y-128998600D01*
X149400000Y-128998600D02*
X149400000Y-130998600D01*
X149400000Y-130998600D02*
X146600000Y-130998600D01*
X189562742Y-85787500D02*
X190037258Y-85787500D01*
X189562742Y-86832500D02*
X190037258Y-86832500D01*
X158153733Y-103690000D02*
X158446267Y-103690000D01*
X158153733Y-104710000D02*
X158446267Y-104710000D01*
X158575836Y-118205171D02*
X160029964Y-118205171D01*
X158575836Y-120025171D02*
X160029964Y-120025171D01*
X201596265Y-82690000D02*
X201303731Y-82690000D01*
X201596265Y-83710000D02*
X201303731Y-83710000D01*
X161853733Y-97190000D02*
X162146267Y-97190000D01*
X161853733Y-98210000D02*
X162146267Y-98210000D01*
X193590000Y-134530000D02*
X193590000Y-133200000D01*
X194920000Y-134530000D02*
X193590000Y-134530000D01*
X196190000Y-131870000D02*
X201330000Y-131870000D01*
X196190000Y-134530000D02*
X196190000Y-131870000D01*
X196190000Y-134530000D02*
X201330000Y-134530000D01*
X201330000Y-134530000D02*
X201330000Y-131870000D01*
X158400000Y-95200000D02*
G75*
G02*
X155000000Y-95200000I-1700000J0D01*
G01*
X155000000Y-95200000D02*
G75*
G02*
X158400000Y-95200000I1700000J0D01*
G01*
X170977500Y-82512742D02*
X170977500Y-82987258D01*
X172022500Y-82512742D02*
X172022500Y-82987258D01*
X136516400Y-119578000D02*
X139316400Y-119578000D01*
X136516400Y-121578000D02*
X136516400Y-119578000D01*
X139316400Y-119578000D02*
X139316400Y-121578000D01*
X139316400Y-121578000D02*
X136516400Y-121578000D01*
X192950000Y-118000000D02*
G75*
G02*
X189550000Y-118000000I-1700000J0D01*
G01*
X189550000Y-118000000D02*
G75*
G02*
X192950000Y-118000000I1700000J0D01*
G01*
X144500000Y-127698600D02*
X144500000Y-132748600D01*
X144950000Y-127248600D02*
X144500000Y-127698600D01*
X145300000Y-129098600D02*
X145300000Y-130898600D01*
X150700000Y-129098600D02*
X150700000Y-130898600D01*
X151500000Y-127248600D02*
X144950000Y-127248600D01*
X151500000Y-132748600D02*
X144500000Y-132748600D01*
X151500000Y-132748600D02*
X151500000Y-127248600D01*
X134416400Y-82412800D02*
X134416400Y-87912800D01*
X134416400Y-82412800D02*
X141416400Y-82412800D01*
X134416400Y-87912800D02*
X140966400Y-87912800D01*
X135216400Y-86062800D02*
X135216400Y-84262800D01*
X140616400Y-86062800D02*
X140616400Y-84262800D01*
X140966400Y-87912800D02*
X141416400Y-87462800D01*
X141416400Y-87462800D02*
X141416400Y-82412800D01*
X184262742Y-80577500D02*
X184737258Y-80577500D01*
X184262742Y-81622500D02*
X184737258Y-81622500D01*
X182660000Y-86649000D02*
X182660000Y-89109000D01*
X182660000Y-89109000D02*
X184130000Y-89109000D01*
X184130000Y-89109000D02*
X184130000Y-86649000D01*
X168162742Y-103177500D02*
X168637258Y-103177500D01*
X168162742Y-104222500D02*
X168637258Y-104222500D01*
X168062742Y-99977500D02*
X168537258Y-99977500D01*
X168062742Y-101022500D02*
X168537258Y-101022500D01*
X136516400Y-84162800D02*
X139316400Y-84162800D01*
X136516400Y-86162800D02*
X136516400Y-84162800D01*
X139316400Y-84162800D02*
X139316400Y-86162800D01*
X139316400Y-86162800D02*
X136516400Y-86162800D01*
X172500000Y-86700000D02*
G75*
G02*
X169100000Y-86700000I-1700000J0D01*
G01*
X169100000Y-86700000D02*
G75*
G02*
X172500000Y-86700000I1700000J0D01*
G01*
X168153733Y-98490000D02*
X168446267Y-98490000D01*
X168153733Y-99510000D02*
X168446267Y-99510000D01*
X158962779Y-79490000D02*
X158637221Y-79490000D01*
X158962779Y-80510000D02*
X158637221Y-80510000D01*
X184262742Y-79077500D02*
X184737258Y-79077500D01*
X184262742Y-80122500D02*
X184737258Y-80122500D01*
X166546267Y-81940000D02*
X166253733Y-81940000D01*
X166546267Y-82960000D02*
X166253733Y-82960000D01*
X177820000Y-119215113D02*
X179360000Y-119215113D01*
X177820000Y-119255113D02*
X179360000Y-119255113D01*
X177821000Y-119175113D02*
X179360000Y-119175113D01*
X177822000Y-119135113D02*
X179360000Y-119135113D01*
X177824000Y-119095113D02*
X179360000Y-119095113D01*
X177827000Y-119055113D02*
X179360000Y-119055113D01*
X177831000Y-119015113D02*
X179360000Y-119015113D01*
X177835000Y-118975113D02*
X179360000Y-118975113D01*
X177839000Y-118935113D02*
X179360000Y-118935113D01*
X177844000Y-118895113D02*
X179360000Y-118895113D01*
X177850000Y-118855113D02*
X179360000Y-118855113D01*
X177857000Y-118815113D02*
X179360000Y-118815113D01*
X177864000Y-118775113D02*
X179360000Y-118775113D01*
X177872000Y-118735113D02*
X179360000Y-118735113D01*
X177880000Y-118695113D02*
X179360000Y-118695113D01*
X177889000Y-118655113D02*
X179360000Y-118655113D01*
X177899000Y-118615113D02*
X179360000Y-118615113D01*
X177909000Y-118575113D02*
X179360000Y-118575113D01*
X177920000Y-118534113D02*
X179360000Y-118534113D01*
X177932000Y-118494113D02*
X179360000Y-118494113D01*
X177945000Y-118454113D02*
X179360000Y-118454113D01*
X177958000Y-118414113D02*
X179360000Y-118414113D01*
X177972000Y-118374113D02*
X179360000Y-118374113D01*
X177986000Y-118334113D02*
X179360000Y-118334113D01*
X178002000Y-118294113D02*
X179360000Y-118294113D01*
X178018000Y-118254113D02*
X179360000Y-118254113D01*
X178035000Y-118214113D02*
X179360000Y-118214113D01*
X178052000Y-118174113D02*
X179360000Y-118174113D01*
X178071000Y-118134113D02*
X179360000Y-118134113D01*
X178090000Y-118094113D02*
X179360000Y-118094113D01*
X178110000Y-118054113D02*
X179360000Y-118054113D01*
X178132000Y-118014113D02*
X179360000Y-118014113D01*
X178153000Y-117974113D02*
X179360000Y-117974113D01*
X178176000Y-117934113D02*
X179360000Y-117934113D01*
X178200000Y-117894113D02*
X179360000Y-117894113D01*
X178225000Y-117854113D02*
X179360000Y-117854113D01*
X178251000Y-117814113D02*
X179360000Y-117814113D01*
X178278000Y-117774113D02*
X179360000Y-117774113D01*
X178305000Y-117734113D02*
X179360000Y-117734113D01*
X178335000Y-117694113D02*
X179360000Y-117694113D01*
X178365000Y-117654113D02*
X179360000Y-117654113D01*
X178396000Y-117614113D02*
X179360000Y-117614113D01*
X178429000Y-117574113D02*
X179360000Y-117574113D01*
X178463000Y-117534113D02*
X179360000Y-117534113D01*
X178499000Y-117494113D02*
X179360000Y-117494113D01*
X178536000Y-117454113D02*
X179360000Y-117454113D01*
X178574000Y-117414113D02*
X179360000Y-117414113D01*
X178615000Y-117374113D02*
X179360000Y-117374113D01*
X178657000Y-117334113D02*
X179360000Y-117334113D01*
X178675000Y-121809888D02*
X179175000Y-121809888D01*
X178701000Y-117294113D02*
X179360000Y-117294113D01*
X178747000Y-117254113D02*
X179360000Y-117254113D01*
X178795000Y-117214113D02*
X182005000Y-117214113D01*
X178846000Y-117174113D02*
X181954000Y-117174113D01*
X178900000Y-117134113D02*
X181900000Y-117134113D01*
X178925000Y-122059888D02*
X178925000Y-121559888D01*
X178957000Y-117094113D02*
X181843000Y-117094113D01*
X179017000Y-117054113D02*
X181783000Y-117054113D01*
X179081000Y-117014113D02*
X181719000Y-117014113D01*
X179149000Y-116974113D02*
X181651000Y-116974113D01*
X179222000Y-116934113D02*
X181578000Y-116934113D01*
X179302000Y-116894113D02*
X181498000Y-116894113D01*
X179389000Y-116854113D02*
X181411000Y-116854113D01*
X179485000Y-116814113D02*
X181315000Y-116814113D01*
X179595000Y-116774113D02*
X181205000Y-116774113D01*
X179723000Y-116734113D02*
X181077000Y-116734113D01*
X179882000Y-116694113D02*
X180918000Y-116694113D01*
X180116000Y-116654113D02*
X180684000Y-116654113D01*
X181440000Y-117254113D02*
X182053000Y-117254113D01*
X181440000Y-117294113D02*
X182099000Y-117294113D01*
X181440000Y-117334113D02*
X182143000Y-117334113D01*
X181440000Y-117374113D02*
X182185000Y-117374113D01*
X181440000Y-117414113D02*
X182226000Y-117414113D01*
X181440000Y-117454113D02*
X182264000Y-117454113D01*
X181440000Y-117494113D02*
X182301000Y-117494113D01*
X181440000Y-117534113D02*
X182337000Y-117534113D01*
X181440000Y-117574113D02*
X182371000Y-117574113D01*
X181440000Y-117614113D02*
X182404000Y-117614113D01*
X181440000Y-117654113D02*
X182435000Y-117654113D01*
X181440000Y-117694113D02*
X182465000Y-117694113D01*
X181440000Y-117734113D02*
X182495000Y-117734113D01*
X181440000Y-117774113D02*
X182522000Y-117774113D01*
X181440000Y-117814113D02*
X182549000Y-117814113D01*
X181440000Y-117854113D02*
X182575000Y-117854113D01*
X181440000Y-117894113D02*
X182600000Y-117894113D01*
X181440000Y-117934113D02*
X182624000Y-117934113D01*
X181440000Y-117974113D02*
X182647000Y-117974113D01*
X181440000Y-118014113D02*
X182668000Y-118014113D01*
X181440000Y-118054113D02*
X182690000Y-118054113D01*
X181440000Y-118094113D02*
X182710000Y-118094113D01*
X181440000Y-118134113D02*
X182729000Y-118134113D01*
X181440000Y-118174113D02*
X182748000Y-118174113D01*
X181440000Y-118214113D02*
X182765000Y-118214113D01*
X181440000Y-118254113D02*
X182782000Y-118254113D01*
X181440000Y-118294113D02*
X182798000Y-118294113D01*
X181440000Y-118334113D02*
X182814000Y-118334113D01*
X181440000Y-118374113D02*
X182828000Y-118374113D01*
X181440000Y-118414113D02*
X182842000Y-118414113D01*
X181440000Y-118454113D02*
X182855000Y-118454113D01*
X181440000Y-118494113D02*
X182868000Y-118494113D01*
X181440000Y-118534113D02*
X182880000Y-118534113D01*
X181440000Y-118575113D02*
X182891000Y-118575113D01*
X181440000Y-118615113D02*
X182901000Y-118615113D01*
X181440000Y-118655113D02*
X182911000Y-118655113D01*
X181440000Y-118695113D02*
X182920000Y-118695113D01*
X181440000Y-118735113D02*
X182928000Y-118735113D01*
X181440000Y-118775113D02*
X182936000Y-118775113D01*
X181440000Y-118815113D02*
X182943000Y-118815113D01*
X181440000Y-118855113D02*
X182950000Y-118855113D01*
X181440000Y-118895113D02*
X182956000Y-118895113D01*
X181440000Y-118935113D02*
X182961000Y-118935113D01*
X181440000Y-118975113D02*
X182965000Y-118975113D01*
X181440000Y-119015113D02*
X182969000Y-119015113D01*
X181440000Y-119055113D02*
X182973000Y-119055113D01*
X181440000Y-119095113D02*
X182976000Y-119095113D01*
X181440000Y-119135113D02*
X182978000Y-119135113D01*
X181440000Y-119175113D02*
X182979000Y-119175113D01*
X181440000Y-119215113D02*
X182980000Y-119215113D01*
X181440000Y-119255113D02*
X182980000Y-119255113D01*
X183020000Y-119255113D02*
G75*
G02*
X177780000Y-119255113I-2620000J0D01*
G01*
X177780000Y-119255113D02*
G75*
G02*
X183020000Y-119255113I2620000J0D01*
G01*
X134416400Y-118278000D02*
X134416400Y-123328000D01*
X134866400Y-117828000D02*
X134416400Y-118278000D01*
X135216400Y-119678000D02*
X135216400Y-121478000D01*
X140616400Y-119678000D02*
X140616400Y-121478000D01*
X141416400Y-117828000D02*
X134866400Y-117828000D01*
X141416400Y-123328000D02*
X134416400Y-123328000D01*
X141416400Y-123328000D02*
X141416400Y-117828000D01*
X176500000Y-85900000D02*
G75*
G02*
X173100000Y-85900000I-1700000J0D01*
G01*
X173100000Y-85900000D02*
G75*
G02*
X176500000Y-85900000I1700000J0D01*
G01*
X177570000Y-83695000D02*
X178900000Y-83695000D01*
X177570000Y-85025000D02*
X177570000Y-83695000D01*
X177570000Y-86295000D02*
X177570000Y-88895000D01*
X177570000Y-86295000D02*
X180230000Y-86295000D01*
X177570000Y-88895000D02*
X180230000Y-88895000D01*
X180230000Y-86295000D02*
X180230000Y-88895000D01*
X161853733Y-95690000D02*
X162146267Y-95690000D01*
X161853733Y-96710000D02*
X162146267Y-96710000D01*
X204537258Y-76177500D02*
X204062742Y-76177500D01*
X204537258Y-77222500D02*
X204062742Y-77222500D01*
X143390000Y-120846267D02*
X143390000Y-120553733D01*
X144410000Y-120846267D02*
X144410000Y-120553733D01*
X166027600Y-117522400D02*
X165377600Y-117522400D01*
X166027600Y-117522400D02*
X166677600Y-117522400D01*
X166027600Y-120642400D02*
X165377600Y-120642400D01*
X166027600Y-120642400D02*
X166677600Y-120642400D01*
X167430100Y-120922400D02*
X166950100Y-120922400D01*
X167190100Y-120592400D01*
X167430100Y-120922400D01*
G36*
X167430100Y-120922400D02*
G01*
X166950100Y-120922400D01*
X167190100Y-120592400D01*
X167430100Y-120922400D01*
G37*
X146567600Y-74100000D02*
X149367600Y-74100000D01*
X146567600Y-76100000D02*
X146567600Y-74100000D01*
X149367600Y-74100000D02*
X149367600Y-76100000D01*
X149367600Y-76100000D02*
X146567600Y-76100000D01*
X156162742Y-98877500D02*
X156637258Y-98877500D01*
X156162742Y-99922500D02*
X156637258Y-99922500D01*
X205700000Y-118000000D02*
G75*
G02*
X202300000Y-118000000I-1700000J0D01*
G01*
X202300000Y-118000000D02*
G75*
G02*
X205700000Y-118000000I1700000J0D01*
G01*
X168516233Y-126990000D02*
X168808767Y-126990000D01*
X168516233Y-128010000D02*
X168808767Y-128010000D01*
X167077500Y-122162742D02*
X167077500Y-122637258D01*
X168122500Y-122162742D02*
X168122500Y-122637258D01*
X165504724Y-78727500D02*
X164995276Y-78727500D01*
X165504724Y-79772500D02*
X164995276Y-79772500D01*
X152670000Y-123270000D02*
X152670000Y-118130000D01*
X155330000Y-118130000D02*
X152670000Y-118130000D01*
X155330000Y-123270000D02*
X152670000Y-123270000D01*
X155330000Y-123270000D02*
X155330000Y-118130000D01*
X155330000Y-124540000D02*
X155330000Y-125870000D01*
X155330000Y-125870000D02*
X154000000Y-125870000D01*
X192400000Y-80650000D02*
X192400000Y-75150000D01*
X193200000Y-77000000D02*
X193200000Y-78800000D01*
X198600000Y-77000000D02*
X198600000Y-78800000D01*
X198950000Y-80650000D02*
X192400000Y-80650000D01*
X199400000Y-75150000D02*
X192400000Y-75150000D01*
X199400000Y-75150000D02*
X199400000Y-80200000D01*
X199400000Y-80200000D02*
X198950000Y-80650000D01*
X145837221Y-79490000D02*
X146162779Y-79490000D01*
X145837221Y-80510000D02*
X146162779Y-80510000D01*
X201246267Y-76190000D02*
X200953733Y-76190000D01*
X201246267Y-77210000D02*
X200953733Y-77210000D01*
X158270000Y-81595000D02*
X159600000Y-81595000D01*
X158270000Y-82925000D02*
X158270000Y-81595000D01*
X158270000Y-84195000D02*
X158270000Y-86795000D01*
X158270000Y-84195000D02*
X160930000Y-84195000D01*
X158270000Y-86795000D02*
X160930000Y-86795000D01*
X160930000Y-84195000D02*
X160930000Y-86795000D01*
X201262742Y-84477500D02*
X201737258Y-84477500D01*
X201262742Y-85522500D02*
X201737258Y-85522500D01*
X169577500Y-118637258D02*
X169577500Y-118162742D01*
X170622500Y-118637258D02*
X170622500Y-118162742D01*
X177360600Y-126685400D02*
X177360600Y-131735400D01*
X177810600Y-126235400D02*
X177360600Y-126685400D01*
X178160600Y-128085400D02*
X178160600Y-129885400D01*
X183560600Y-128085400D02*
X183560600Y-129885400D01*
X184360600Y-126235400D02*
X177810600Y-126235400D01*
X184360600Y-131735400D02*
X177360600Y-131735400D01*
X184360600Y-131735400D02*
X184360600Y-126235400D01*
X161853733Y-94190000D02*
X162146267Y-94190000D01*
X161853733Y-95210000D02*
X162146267Y-95210000D01*
X194500000Y-76900000D02*
X194500000Y-78900000D01*
X194500000Y-78900000D02*
X197300000Y-78900000D01*
X197300000Y-76900000D02*
X194500000Y-76900000D01*
X197300000Y-78900000D02*
X197300000Y-76900000D01*
X201450000Y-118010255D02*
G75*
G02*
X198050000Y-118010255I-1700000J0D01*
G01*
X198050000Y-118010255D02*
G75*
G02*
X201450000Y-118010255I1700000J0D01*
G01*
X184662742Y-77577500D02*
X185137258Y-77577500D01*
X184662742Y-78622500D02*
X185137258Y-78622500D01*
X175090000Y-119346267D02*
X175090000Y-119053733D01*
X176110000Y-119346267D02*
X176110000Y-119053733D01*
X165194518Y-102462742D02*
X165194518Y-102937258D01*
X166239518Y-102462742D02*
X166239518Y-102937258D01*
X156190000Y-122950000D02*
X156190000Y-126710000D01*
X156190000Y-126710000D02*
X157450000Y-126710000D01*
X163010000Y-122950000D02*
X163010000Y-126710000D01*
X163010000Y-126710000D02*
X161750000Y-126710000D01*
X163240000Y-121910000D02*
X162910000Y-121670000D01*
X163240000Y-121430000D01*
X163240000Y-121910000D01*
G36*
X163240000Y-121910000D02*
G01*
X162910000Y-121670000D01*
X163240000Y-121430000D01*
X163240000Y-121910000D01*
G37*
X184777500Y-87162742D02*
X184777500Y-87637258D01*
X185822500Y-87162742D02*
X185822500Y-87637258D01*
X161790000Y-86100000D02*
X161790000Y-89860000D01*
X161790000Y-89860000D02*
X163050000Y-89860000D01*
X168610000Y-86100000D02*
X168610000Y-89860000D01*
X168610000Y-89860000D02*
X167350000Y-89860000D01*
X168840000Y-85060000D02*
X168510000Y-84820000D01*
X168840000Y-84580000D01*
X168840000Y-85060000D01*
G36*
X168840000Y-85060000D02*
G01*
X168510000Y-84820000D01*
X168840000Y-84580000D01*
X168840000Y-85060000D01*
G37*
X161853733Y-98690000D02*
X162146267Y-98690000D01*
X161853733Y-99710000D02*
X162146267Y-99710000D01*
X168316233Y-104990000D02*
X168608767Y-104990000D01*
X168316233Y-106010000D02*
X168608767Y-106010000D01*
D15*
X201052751Y-86025200D02*
X201052751Y-86365560D01*
X201052751Y-88834440D02*
X201052751Y-89174800D01*
X201052751Y-89174800D02*
X205218351Y-89174800D01*
X205218351Y-86025200D02*
X201052751Y-86025200D01*
X205218351Y-86365560D02*
X205218351Y-86025200D01*
X205218351Y-89174800D02*
X205218351Y-88834440D01*
D17*
X199655751Y-87600000D02*
G75*
G02*
X198893751Y-87600000I-381000J0D01*
G01*
X198893751Y-87600000D02*
G75*
G02*
X199655751Y-87600000I381000J0D01*
G01*
D15*
X200767198Y-77625200D02*
X200767198Y-77965560D01*
X200767198Y-80434440D02*
X200767198Y-80774800D01*
X200767198Y-80774800D02*
X204932798Y-80774800D01*
X204932798Y-77625200D02*
X200767198Y-77625200D01*
X204932798Y-77965560D02*
X204932798Y-77625200D01*
X204932798Y-80774800D02*
X204932798Y-80434440D01*
D17*
X199370198Y-79200000D02*
G75*
G02*
X198608198Y-79200000I-381000J0D01*
G01*
X198608198Y-79200000D02*
G75*
G02*
X199370198Y-79200000I381000J0D01*
G01*
D16*
X155146267Y-102190000D02*
X154853733Y-102190000D01*
X155146267Y-103210000D02*
X154853733Y-103210000D01*
X148372936Y-93790000D02*
X149827064Y-93790000D01*
X148372936Y-95610000D02*
X149827064Y-95610000D01*
D11*
X163704800Y-69224200D02*
X163704800Y-70299200D01*
X163704800Y-73449200D02*
X163704800Y-74249200D01*
X164929800Y-77719200D02*
X171729800Y-77719200D01*
X170904800Y-78249200D02*
X171304800Y-78949200D01*
X171304800Y-78949200D02*
X171704800Y-78249200D01*
X171704800Y-78249200D02*
X170904800Y-78249200D01*
X172954800Y-69224200D02*
X172954800Y-70299200D01*
X172954800Y-74249200D02*
X172954800Y-73449200D01*
D16*
X145620000Y-120615113D02*
X147160000Y-120615113D01*
X145620000Y-120655113D02*
X147160000Y-120655113D01*
X145621000Y-120575113D02*
X147160000Y-120575113D01*
X145622000Y-120535113D02*
X147160000Y-120535113D01*
X145624000Y-120495113D02*
X147160000Y-120495113D01*
X145627000Y-120455113D02*
X147160000Y-120455113D01*
X145631000Y-120415113D02*
X147160000Y-120415113D01*
X145635000Y-120375113D02*
X147160000Y-120375113D01*
X145639000Y-120335113D02*
X147160000Y-120335113D01*
X145644000Y-120295113D02*
X147160000Y-120295113D01*
X145650000Y-120255113D02*
X147160000Y-120255113D01*
X145657000Y-120215113D02*
X147160000Y-120215113D01*
X145664000Y-120175113D02*
X147160000Y-120175113D01*
X145672000Y-120135113D02*
X147160000Y-120135113D01*
X145680000Y-120095113D02*
X147160000Y-120095113D01*
X145689000Y-120055113D02*
X147160000Y-120055113D01*
X145699000Y-120015113D02*
X147160000Y-120015113D01*
X145709000Y-119975113D02*
X147160000Y-119975113D01*
X145720000Y-119934113D02*
X147160000Y-119934113D01*
X145732000Y-119894113D02*
X147160000Y-119894113D01*
X145745000Y-119854113D02*
X147160000Y-119854113D01*
X145758000Y-119814113D02*
X147160000Y-119814113D01*
X145772000Y-119774113D02*
X147160000Y-119774113D01*
X145786000Y-119734113D02*
X147160000Y-119734113D01*
X145802000Y-119694113D02*
X147160000Y-119694113D01*
X145818000Y-119654113D02*
X147160000Y-119654113D01*
X145835000Y-119614113D02*
X147160000Y-119614113D01*
X145852000Y-119574113D02*
X147160000Y-119574113D01*
X145871000Y-119534113D02*
X147160000Y-119534113D01*
X145890000Y-119494113D02*
X147160000Y-119494113D01*
X145910000Y-119454113D02*
X147160000Y-119454113D01*
X145932000Y-119414113D02*
X147160000Y-119414113D01*
X145953000Y-119374113D02*
X147160000Y-119374113D01*
X145976000Y-119334113D02*
X147160000Y-119334113D01*
X146000000Y-119294113D02*
X147160000Y-119294113D01*
X146025000Y-119254113D02*
X147160000Y-119254113D01*
X146051000Y-119214113D02*
X147160000Y-119214113D01*
X146078000Y-119174113D02*
X147160000Y-119174113D01*
X146105000Y-119134113D02*
X147160000Y-119134113D01*
X146135000Y-119094113D02*
X147160000Y-119094113D01*
X146165000Y-119054113D02*
X147160000Y-119054113D01*
X146196000Y-119014113D02*
X147160000Y-119014113D01*
X146229000Y-118974113D02*
X147160000Y-118974113D01*
X146263000Y-118934113D02*
X147160000Y-118934113D01*
X146299000Y-118894113D02*
X147160000Y-118894113D01*
X146336000Y-118854113D02*
X147160000Y-118854113D01*
X146374000Y-118814113D02*
X147160000Y-118814113D01*
X146415000Y-118774113D02*
X147160000Y-118774113D01*
X146457000Y-118734113D02*
X147160000Y-118734113D01*
X146475000Y-123209888D02*
X146975000Y-123209888D01*
X146501000Y-118694113D02*
X147160000Y-118694113D01*
X146547000Y-118654113D02*
X147160000Y-118654113D01*
X146595000Y-118614113D02*
X149805000Y-118614113D01*
X146646000Y-118574113D02*
X149754000Y-118574113D01*
X146700000Y-118534113D02*
X149700000Y-118534113D01*
X146725000Y-123459888D02*
X146725000Y-122959888D01*
X146757000Y-118494113D02*
X149643000Y-118494113D01*
X146817000Y-118454113D02*
X149583000Y-118454113D01*
X146881000Y-118414113D02*
X149519000Y-118414113D01*
X146949000Y-118374113D02*
X149451000Y-118374113D01*
X147022000Y-118334113D02*
X149378000Y-118334113D01*
X147102000Y-118294113D02*
X149298000Y-118294113D01*
X147189000Y-118254113D02*
X149211000Y-118254113D01*
X147285000Y-118214113D02*
X149115000Y-118214113D01*
X147395000Y-118174113D02*
X149005000Y-118174113D01*
X147523000Y-118134113D02*
X148877000Y-118134113D01*
X147682000Y-118094113D02*
X148718000Y-118094113D01*
X147916000Y-118054113D02*
X148484000Y-118054113D01*
X149240000Y-118654113D02*
X149853000Y-118654113D01*
X149240000Y-118694113D02*
X149899000Y-118694113D01*
X149240000Y-118734113D02*
X149943000Y-118734113D01*
X149240000Y-118774113D02*
X149985000Y-118774113D01*
X149240000Y-118814113D02*
X150026000Y-118814113D01*
X149240000Y-118854113D02*
X150064000Y-118854113D01*
X149240000Y-118894113D02*
X150101000Y-118894113D01*
X149240000Y-118934113D02*
X150137000Y-118934113D01*
X149240000Y-118974113D02*
X150171000Y-118974113D01*
X149240000Y-119014113D02*
X150204000Y-119014113D01*
X149240000Y-119054113D02*
X150235000Y-119054113D01*
X149240000Y-119094113D02*
X150265000Y-119094113D01*
X149240000Y-119134113D02*
X150295000Y-119134113D01*
X149240000Y-119174113D02*
X150322000Y-119174113D01*
X149240000Y-119214113D02*
X150349000Y-119214113D01*
X149240000Y-119254113D02*
X150375000Y-119254113D01*
X149240000Y-119294113D02*
X150400000Y-119294113D01*
X149240000Y-119334113D02*
X150424000Y-119334113D01*
X149240000Y-119374113D02*
X150447000Y-119374113D01*
X149240000Y-119414113D02*
X150468000Y-119414113D01*
X149240000Y-119454113D02*
X150490000Y-119454113D01*
X149240000Y-119494113D02*
X150510000Y-119494113D01*
X149240000Y-119534113D02*
X150529000Y-119534113D01*
X149240000Y-119574113D02*
X150548000Y-119574113D01*
X149240000Y-119614113D02*
X150565000Y-119614113D01*
X149240000Y-119654113D02*
X150582000Y-119654113D01*
X149240000Y-119694113D02*
X150598000Y-119694113D01*
X149240000Y-119734113D02*
X150614000Y-119734113D01*
X149240000Y-119774113D02*
X150628000Y-119774113D01*
X149240000Y-119814113D02*
X150642000Y-119814113D01*
X149240000Y-119854113D02*
X150655000Y-119854113D01*
X149240000Y-119894113D02*
X150668000Y-119894113D01*
X149240000Y-119934113D02*
X150680000Y-119934113D01*
X149240000Y-119975113D02*
X150691000Y-119975113D01*
X149240000Y-120015113D02*
X150701000Y-120015113D01*
X149240000Y-120055113D02*
X150711000Y-120055113D01*
X149240000Y-120095113D02*
X150720000Y-120095113D01*
X149240000Y-120135113D02*
X150728000Y-120135113D01*
X149240000Y-120175113D02*
X150736000Y-120175113D01*
X149240000Y-120215113D02*
X150743000Y-120215113D01*
X149240000Y-120255113D02*
X150750000Y-120255113D01*
X149240000Y-120295113D02*
X150756000Y-120295113D01*
X149240000Y-120335113D02*
X150761000Y-120335113D01*
X149240000Y-120375113D02*
X150765000Y-120375113D01*
X149240000Y-120415113D02*
X150769000Y-120415113D01*
X149240000Y-120455113D02*
X150773000Y-120455113D01*
X149240000Y-120495113D02*
X150776000Y-120495113D01*
X149240000Y-120535113D02*
X150778000Y-120535113D01*
X149240000Y-120575113D02*
X150779000Y-120575113D01*
X149240000Y-120615113D02*
X150780000Y-120615113D01*
X149240000Y-120655113D02*
X150780000Y-120655113D01*
X150820000Y-120655113D02*
G75*
G02*
X145580000Y-120655113I-2620000J0D01*
G01*
X145580000Y-120655113D02*
G75*
G02*
X150820000Y-120655113I2620000J0D01*
G01*
X185137258Y-75977500D02*
X184662742Y-75977500D01*
X185137258Y-77022500D02*
X184662742Y-77022500D01*
X184530600Y-120709487D02*
X184530600Y-115569487D01*
X187190600Y-115569487D02*
X184530600Y-115569487D01*
X187190600Y-120709487D02*
X184530600Y-120709487D01*
X187190600Y-120709487D02*
X187190600Y-115569487D01*
X187190600Y-121979487D02*
X187190600Y-123309487D01*
X187190600Y-123309487D02*
X185860600Y-123309487D01*
X172477500Y-82987258D02*
X172477500Y-82512742D01*
X173522500Y-82987258D02*
X173522500Y-82512742D01*
X171200000Y-122040000D02*
X170550000Y-122040000D01*
X171200000Y-122040000D02*
X171850000Y-122040000D01*
X171200000Y-125160000D02*
X170550000Y-125160000D01*
X171200000Y-125160000D02*
X171850000Y-125160000D01*
X170037500Y-122090000D02*
X169797500Y-121760000D01*
X170277500Y-121760000D01*
X170037500Y-122090000D01*
G36*
X170037500Y-122090000D02*
G01*
X169797500Y-121760000D01*
X170277500Y-121760000D01*
X170037500Y-122090000D01*
G37*
X170565342Y-120477500D02*
X171039858Y-120477500D01*
X170565342Y-121522500D02*
X171039858Y-121522500D01*
X201596265Y-81190000D02*
X201303731Y-81190000D01*
X201596265Y-82210000D02*
X201303731Y-82210000D01*
X144470000Y-81395000D02*
X145800000Y-81395000D01*
X144470000Y-82725000D02*
X144470000Y-81395000D01*
X144470000Y-83995000D02*
X144470000Y-86595000D01*
X144470000Y-83995000D02*
X147130000Y-83995000D01*
X144470000Y-86595000D02*
X147130000Y-86595000D01*
X147130000Y-83995000D02*
X147130000Y-86595000D01*
D11*
X134487500Y-87212500D02*
X136987500Y-87212500D01*
X134487500Y-89312500D02*
X134487500Y-87212500D01*
X134487500Y-115612500D02*
X134487500Y-89312500D01*
X136987500Y-87212500D02*
X136987500Y-89512500D01*
X136987500Y-89512500D02*
X149887500Y-89512500D01*
X141687500Y-112712500D02*
X145487500Y-112712500D01*
X141687500Y-115212500D02*
X141687500Y-112712500D01*
X145487500Y-112712500D02*
X145487500Y-115212500D01*
X145487500Y-115212500D02*
X141787500Y-115212500D01*
X149887500Y-87212500D02*
X150187500Y-87212500D01*
X149887500Y-89312500D02*
X149887500Y-87212500D01*
X149887500Y-89512500D02*
X149887500Y-89212500D01*
X150187500Y-87212500D02*
X152287500Y-87212500D01*
X152287500Y-87212500D02*
X152287500Y-115612500D01*
X152287500Y-115612500D02*
X134487500Y-115612500D01*
D16*
X189562742Y-83277500D02*
X190037258Y-83277500D01*
X189562742Y-84322500D02*
X190037258Y-84322500D01*
X179460600Y-127985400D02*
X182260600Y-127985400D01*
X179460600Y-129985400D02*
X179460600Y-127985400D01*
X182260600Y-127985400D02*
X182260600Y-129985400D01*
X182260600Y-129985400D02*
X179460600Y-129985400D01*
X177900000Y-73800000D02*
G75*
G02*
X174500000Y-73800000I-1700000J0D01*
G01*
X174500000Y-73800000D02*
G75*
G02*
X177900000Y-73800000I1700000J0D01*
G01*
D10*
X164000000Y-128750000D02*
X164000000Y-128250000D01*
X164000000Y-135750000D02*
X164000000Y-131750000D01*
X165000000Y-128250000D02*
X164000000Y-128250000D01*
X165000000Y-128750000D02*
X165000000Y-128250000D01*
X165500000Y-131250000D02*
X170500000Y-131250000D01*
X166000000Y-135750000D02*
X166000000Y-136750000D01*
X166000000Y-136750000D02*
X170000000Y-136750000D01*
X170000000Y-136750000D02*
X170000000Y-135750000D01*
X171000000Y-128250000D02*
X172000000Y-128250000D01*
X171000000Y-128750000D02*
X171000000Y-128250000D01*
X172000000Y-128250000D02*
X172000000Y-128750000D01*
X172000000Y-131750000D02*
X172000000Y-135750000D01*
X172000000Y-135750000D02*
X164000000Y-135750000D01*
D16*
X147790000Y-81050000D02*
X147790000Y-84810000D01*
X147790000Y-84810000D02*
X149050000Y-84810000D01*
X154610000Y-81050000D02*
X154610000Y-84810000D01*
X154610000Y-84810000D02*
X153350000Y-84810000D01*
X154840000Y-80010000D02*
X154510000Y-79770000D01*
X154840000Y-79530000D01*
X154840000Y-80010000D01*
G36*
X154840000Y-80010000D02*
G01*
X154510000Y-79770000D01*
X154840000Y-79530000D01*
X154840000Y-80010000D01*
G37*
D12*
X160493714Y-100616213D02*
X160493714Y-101116212D01*
X160793713Y-100616213D02*
X160493714Y-100616213D01*
X162118712Y-100616213D02*
X161968714Y-100616213D01*
X163593712Y-100616213D02*
X163293713Y-100616213D01*
X163593712Y-100616213D02*
X163593712Y-101116212D01*
D18*
X164468714Y-102791213D02*
G75*
G02*
X164218712Y-102791213I-125001J0D01*
G01*
X164218712Y-102791213D02*
G75*
G02*
X164468714Y-102791213I125001J0D01*
G01*
%LPC*%
D19*
X165549546Y-76652864D02*
G75*
G02*
X165162046Y-76652864I-193750J0D01*
G01*
X165162046Y-76652864D02*
G75*
G02*
X165549546Y-76652864I193750J0D01*
G01*
X165553407Y-75293463D02*
G75*
G02*
X165165907Y-75293463I-193750J0D01*
G01*
X165165907Y-75293463D02*
G75*
G02*
X165553407Y-75293463I193750J0D01*
G01*
X166399091Y-76659300D02*
G75*
G02*
X166011591Y-76659300I-193750J0D01*
G01*
X166011591Y-76659300D02*
G75*
G02*
X166399091Y-76659300I193750J0D01*
G01*
X166401408Y-75298097D02*
G75*
G02*
X166013908Y-75298097I-193750J0D01*
G01*
X166013908Y-75298097D02*
G75*
G02*
X166401408Y-75298097I193750J0D01*
G01*
X167248550Y-75299200D02*
G75*
G02*
X166861050Y-75299200I-193750J0D01*
G01*
X166861050Y-75299200D02*
G75*
G02*
X167248550Y-75299200I193750J0D01*
G01*
X167248550Y-76649200D02*
G75*
G02*
X166861050Y-76649200I-193750J0D01*
G01*
X166861050Y-76649200D02*
G75*
G02*
X167248550Y-76649200I193750J0D01*
G01*
X168098550Y-75299200D02*
G75*
G02*
X167711050Y-75299200I-193750J0D01*
G01*
X167711050Y-75299200D02*
G75*
G02*
X168098550Y-75299200I193750J0D01*
G01*
X168098550Y-76649200D02*
G75*
G02*
X167711050Y-76649200I-193750J0D01*
G01*
X167711050Y-76649200D02*
G75*
G02*
X168098550Y-76649200I193750J0D01*
G01*
X168948550Y-75299200D02*
G75*
G02*
X168561050Y-75299200I-193750J0D01*
G01*
X168561050Y-75299200D02*
G75*
G02*
X168948550Y-75299200I193750J0D01*
G01*
X168948550Y-76649200D02*
G75*
G02*
X168561050Y-76649200I-193750J0D01*
G01*
X168561050Y-76649200D02*
G75*
G02*
X168948550Y-76649200I193750J0D01*
G01*
X169798550Y-75299200D02*
G75*
G02*
X169411050Y-75299200I-193750J0D01*
G01*
X169411050Y-75299200D02*
G75*
G02*
X169798550Y-75299200I193750J0D01*
G01*
X169798550Y-76649200D02*
G75*
G02*
X169411050Y-76649200I-193750J0D01*
G01*
X169411050Y-76649200D02*
G75*
G02*
X169798550Y-76649200I193750J0D01*
G01*
X170647287Y-75297224D02*
G75*
G02*
X170259787Y-75297224I-193750J0D01*
G01*
X170259787Y-75297224D02*
G75*
G02*
X170647287Y-75297224I193750J0D01*
G01*
X170647287Y-76655825D02*
G75*
G02*
X170259787Y-76655825I-193750J0D01*
G01*
X170259787Y-76655825D02*
G75*
G02*
X170647287Y-76655825I193750J0D01*
G01*
X171495287Y-76650318D02*
G75*
G02*
X171107787Y-76650318I-193750J0D01*
G01*
X171107787Y-76650318D02*
G75*
G02*
X171495287Y-76650318I193750J0D01*
G01*
X171504555Y-75292590D02*
G75*
G02*
X171117055Y-75292590I-193750J0D01*
G01*
X171117055Y-75292590D02*
G75*
G02*
X171504555Y-75292590I193750J0D01*
G01*
D20*
G36*
X160918714Y-102716214D02*
G01*
X160918711Y-103316213D01*
X160868714Y-103366213D01*
X160743713Y-103366213D01*
X160693713Y-103316213D01*
X160693713Y-102916214D01*
X160393714Y-102916214D01*
X160343714Y-102866214D01*
X160343714Y-102716214D01*
X160393714Y-102666214D01*
X160868714Y-102666211D01*
X160918714Y-102716214D01*
G37*
G36*
X161593714Y-100516213D02*
G01*
X161593714Y-101866213D01*
X161543714Y-101916213D01*
X160393714Y-101916213D01*
X160343714Y-101866213D01*
X160343714Y-101566214D01*
X160393714Y-101516214D01*
X161193712Y-101516214D01*
X161193712Y-100516213D01*
X161243712Y-100466213D01*
X161543711Y-100466213D01*
X161593714Y-100516213D01*
G37*
G36*
X162893714Y-100516213D02*
G01*
X162893714Y-101516214D01*
X163693712Y-101516214D01*
X163743712Y-101566214D01*
X163743712Y-101866213D01*
X163693712Y-101916213D01*
X162543712Y-101916213D01*
X162493712Y-101866213D01*
X162493712Y-100516213D01*
X162543715Y-100466213D01*
X162843714Y-100466213D01*
X162893714Y-100516213D01*
G37*
G36*
X163743712Y-102716214D02*
G01*
X163743712Y-102866211D01*
X163693712Y-102916214D01*
X163393713Y-102916214D01*
X163393713Y-103316213D01*
X163343713Y-103366213D01*
X163218712Y-103366213D01*
X163168715Y-103316213D01*
X163168712Y-102716214D01*
X163218714Y-102666214D01*
X163693712Y-102666211D01*
X163743712Y-102716214D01*
G37*
D21*
X160800000Y-114830700D03*
X160800000Y-107830700D03*
D22*
X162237500Y-82600000D03*
X163962500Y-82600000D03*
D23*
X141900000Y-77700000D03*
X154009327Y-91736442D03*
D24*
X175000000Y-129300000D03*
X175000000Y-125300000D03*
X165000000Y-126500000D03*
X165000000Y-122500000D03*
D25*
X145517600Y-73450000D03*
X145517600Y-76750000D03*
X150417600Y-76750000D03*
X150417600Y-73450000D03*
D26*
X167537500Y-102000000D03*
X169262500Y-102000000D03*
D27*
X155575000Y-101000000D03*
X157225000Y-101000000D03*
D26*
X167637500Y-107200000D03*
X169362500Y-107200000D03*
D28*
X160650189Y-89450700D03*
X160150063Y-89450700D03*
X159649937Y-89450700D03*
X159149811Y-89450700D03*
X159149811Y-90949300D03*
X159649937Y-90949300D03*
X160150063Y-90949300D03*
X160650189Y-90949300D03*
D29*
X169246967Y-78351992D03*
X168751992Y-78846967D03*
X169600520Y-79200520D03*
D23*
X195500000Y-118000000D03*
D30*
X147275000Y-129998600D03*
D31*
X148725000Y-129998600D03*
D27*
X188975000Y-86310000D03*
X190625000Y-86310000D03*
D26*
X157437500Y-104200000D03*
X159162500Y-104200000D03*
D32*
X157840400Y-119115171D03*
X160765400Y-119115171D03*
D22*
X202312498Y-83200000D03*
X200587498Y-83200000D03*
D33*
X157000000Y-73000000D03*
D26*
X161137500Y-97700000D03*
X162862500Y-97700000D03*
D34*
X194920000Y-133200000D03*
D35*
X197460000Y-133200000D03*
X200000000Y-133200000D03*
D23*
X156700000Y-95200000D03*
D36*
X171500000Y-81925000D03*
X171500000Y-83575000D03*
D30*
X137191400Y-120578000D03*
D31*
X138641400Y-120578000D03*
D33*
X139000000Y-133000000D03*
D23*
X191250000Y-118000000D03*
D37*
X150450000Y-131648600D03*
X150450000Y-128348600D03*
X145550000Y-128348600D03*
X145550000Y-131648600D03*
D25*
X135466400Y-83512800D03*
X135466400Y-86812800D03*
X140366400Y-86812800D03*
X140366400Y-83512800D03*
D27*
X183675000Y-81100000D03*
X185325000Y-81100000D03*
D38*
X183395000Y-88324000D03*
X183395000Y-86574000D03*
D27*
X167575000Y-103700000D03*
X169225000Y-103700000D03*
X167475000Y-100500000D03*
X169125000Y-100500000D03*
D39*
X138641400Y-85162800D03*
D40*
X137191400Y-85162800D03*
D23*
X170800000Y-86700000D03*
D26*
X167437500Y-99000000D03*
X169162500Y-99000000D03*
D41*
X159587500Y-80000000D03*
X158012500Y-80000000D03*
D27*
X183675000Y-79600000D03*
X185325000Y-79600000D03*
D22*
X167262500Y-82450000D03*
X165537500Y-82450000D03*
D42*
X180400000Y-120255113D03*
D43*
X180400000Y-118255113D03*
D33*
X139000000Y-73000000D03*
D37*
X140366400Y-122228000D03*
X140366400Y-118928000D03*
X135466400Y-118928000D03*
X135466400Y-122228000D03*
D23*
X174800000Y-85900000D03*
D34*
X178900000Y-85025000D03*
D35*
X178900000Y-87565000D03*
D26*
X161137500Y-96200000D03*
X162862500Y-96200000D03*
D44*
X205125000Y-76700000D03*
X203475000Y-76700000D03*
D45*
X143900000Y-121562500D03*
X143900000Y-119837500D03*
D46*
X166965100Y-120032400D03*
X166965100Y-118132400D03*
X165090100Y-119082400D03*
D39*
X148692600Y-75100000D03*
D40*
X147242600Y-75100000D03*
D27*
X155575000Y-99400000D03*
X157225000Y-99400000D03*
D23*
X204000000Y-118000000D03*
D26*
X167800000Y-127500000D03*
X169525000Y-127500000D03*
D36*
X167600000Y-121575000D03*
X167600000Y-123225000D03*
D47*
X166162500Y-79250000D03*
X164337500Y-79250000D03*
D34*
X154000000Y-124540000D03*
D35*
X154000000Y-122000000D03*
X154000000Y-119460000D03*
D25*
X193450000Y-76250000D03*
X193450000Y-79550000D03*
X198350000Y-79550000D03*
X198350000Y-76250000D03*
D48*
X145212500Y-80000000D03*
X146787500Y-80000000D03*
D22*
X201962500Y-76700000D03*
X200237500Y-76700000D03*
D34*
X159600000Y-82925000D03*
D35*
X159600000Y-85465000D03*
D27*
X200675000Y-85000000D03*
X202325000Y-85000000D03*
D49*
X170100000Y-119225000D03*
X170100000Y-117575000D03*
D37*
X183310600Y-130635400D03*
X183310600Y-127335400D03*
X178410600Y-127335400D03*
X178410600Y-130635400D03*
D26*
X161137500Y-94700000D03*
X162862500Y-94700000D03*
D39*
X196625000Y-77900000D03*
D40*
X195175000Y-77900000D03*
D23*
X199750000Y-118010255D03*
D27*
X184075000Y-78100000D03*
X185725000Y-78100000D03*
D45*
X175600000Y-120062500D03*
X175600000Y-118337500D03*
D36*
X165717018Y-101875000D03*
X165717018Y-103525000D03*
D50*
X161900000Y-121650000D03*
X159600000Y-121650000D03*
X157300000Y-121650000D03*
D51*
X159600000Y-127950000D03*
D36*
X185300000Y-86575000D03*
X185300000Y-88225000D03*
D50*
X167500000Y-84800000D03*
X165200000Y-84800000D03*
D51*
X165200000Y-91100000D03*
D50*
X162900000Y-84800000D03*
D26*
X161137500Y-99200000D03*
X162862500Y-99200000D03*
X167600000Y-105500000D03*
X169325000Y-105500000D03*
D52*
X201085553Y-87600000D03*
X205185549Y-87600000D03*
X200800000Y-79200000D03*
X204899996Y-79200000D03*
D22*
X155862500Y-102700000D03*
X154137500Y-102700000D03*
D32*
X147637500Y-94700000D03*
X150562500Y-94700000D03*
D53*
X172649800Y-71999200D03*
X164009800Y-71999200D03*
D54*
X172649800Y-76149200D03*
X164009800Y-76149200D03*
D42*
X148200000Y-121655113D03*
D43*
X148200000Y-119655113D03*
D44*
X185725000Y-76500000D03*
X184075000Y-76500000D03*
D34*
X185860600Y-121979487D03*
D35*
X185860600Y-119439487D03*
X185860600Y-116899487D03*
D49*
X173000000Y-83575000D03*
X173000000Y-81925000D03*
D55*
X170262500Y-122650000D03*
X170262500Y-124550000D03*
X172137500Y-123600000D03*
D33*
X157000000Y-133000000D03*
D27*
X169977600Y-121000000D03*
X171627600Y-121000000D03*
D22*
X202312498Y-81700000D03*
X200587498Y-81700000D03*
D34*
X145800000Y-82725000D03*
D35*
X145800000Y-85265000D03*
D56*
X136187500Y-113912500D03*
X150187500Y-113912500D03*
X136187500Y-90912500D03*
X150187500Y-90912500D03*
X138727500Y-90912500D03*
X147647500Y-90912500D03*
D27*
X188975000Y-83800000D03*
X190625000Y-83800000D03*
D30*
X180135600Y-128985400D03*
D31*
X181585600Y-128985400D03*
D23*
X176200000Y-73800000D03*
D57*
X165750000Y-132750000D03*
X170250000Y-132750000D03*
D58*
X164500000Y-130250000D03*
X171500000Y-130250000D03*
D50*
X153500000Y-79750000D03*
X151200000Y-79750000D03*
X148900000Y-79750000D03*
D51*
X151200000Y-86050000D03*
D59*
X163456213Y-102791213D03*
D60*
X163281213Y-103016213D03*
D61*
X163468714Y-102291214D03*
D62*
X163118713Y-101716213D03*
D63*
X162693713Y-101191213D03*
D64*
X162043713Y-101666213D03*
D63*
X161393713Y-101191213D03*
D65*
X160963713Y-101716213D03*
D61*
X160618712Y-102291214D03*
D60*
X160806213Y-103016213D03*
D59*
X160631213Y-102791213D03*
D66*
X161293712Y-103091212D03*
X161793713Y-103091212D03*
X162293713Y-103091212D03*
X162793714Y-103091212D03*
%LPD*%
M02*
