%TF.GenerationSoftware,KiCad,Pcbnew,9.0.0*%
%TF.CreationDate,2025-03-29T02:07:02-04:00*%
%TF.ProjectId,SHERPENT20250113,53484552-5045-44e5-9432-303235303131,rev?*%
%TF.SameCoordinates,Original*%
%TF.FileFunction,Paste,Bot*%
%TF.FilePolarity,Positive*%
%FSLAX46Y46*%
G04 Gerber Fmt 4.6, Leading zero omitted, Abs format (unit mm)*
G04 Created by KiCad (PCBNEW 9.0.0) date 2025-03-29 02:07:02*
%MOMM*%
%LPD*%
G01*
G04 APERTURE LIST*
G04 Aperture macros list*
%AMRoundRect*
0 Rectangle with rounded corners*
0 $1 Rounding radius*
0 $2 $3 $4 $5 $6 $7 $8 $9 X,Y pos of 4 corners*
0 Add a 4 corners polygon primitive as box body*
4,1,4,$2,$3,$4,$5,$6,$7,$8,$9,$2,$3,0*
0 Add four circle primitives for the rounded corners*
1,1,$1+$1,$2,$3*
1,1,$1+$1,$4,$5*
1,1,$1+$1,$6,$7*
1,1,$1+$1,$8,$9*
0 Add four rect primitives between the rounded corners*
20,1,$1+$1,$2,$3,$4,$5,0*
20,1,$1+$1,$4,$5,$6,$7,0*
20,1,$1+$1,$6,$7,$8,$9,0*
20,1,$1+$1,$8,$9,$2,$3,0*%
G04 Aperture macros list end*
%ADD10RoundRect,0.250000X-1.000000X-0.650000X1.000000X-0.650000X1.000000X0.650000X-1.000000X0.650000X0*%
%ADD11RoundRect,0.250000X1.000000X0.650000X-1.000000X0.650000X-1.000000X-0.650000X1.000000X-0.650000X0*%
%ADD12RoundRect,0.090000X-0.660000X-0.360000X0.660000X-0.360000X0.660000X0.360000X-0.660000X0.360000X0*%
%ADD13RoundRect,0.375000X-0.375000X0.625000X-0.375000X-0.625000X0.375000X-0.625000X0.375000X0.625000X0*%
%ADD14RoundRect,0.500000X-1.400000X0.500000X-1.400000X-0.500000X1.400000X-0.500000X1.400000X0.500000X0*%
%ADD15RoundRect,0.090000X0.660000X0.360000X-0.660000X0.360000X-0.660000X-0.360000X0.660000X-0.360000X0*%
%ADD16R,0.700000X0.700000*%
%ADD17R,1.500000X0.900000*%
G04 APERTURE END LIST*
D10*
X143100000Y-88000000D03*
X147100000Y-88000000D03*
D11*
X155200000Y-77800000D03*
X151200000Y-77800000D03*
D12*
X177550000Y-80350000D03*
X177550000Y-77050000D03*
X182450000Y-77050000D03*
X182450000Y-80350000D03*
D13*
X150200000Y-81050000D03*
X152500000Y-81050000D03*
X154800000Y-81050000D03*
D14*
X152500000Y-87350000D03*
D15*
X205242400Y-121975000D03*
X205242400Y-125275000D03*
X200342400Y-125275000D03*
X200342400Y-121975000D03*
X140340000Y-122265000D03*
X140340000Y-125565000D03*
X135440000Y-125565000D03*
X135440000Y-122265000D03*
D16*
X196640000Y-83550000D03*
X196640000Y-82450000D03*
X196640000Y-81350000D03*
X195540000Y-83550000D03*
X195540000Y-82450000D03*
X195540000Y-81350000D03*
X194440000Y-83550000D03*
X194440000Y-82450000D03*
X194440000Y-81350000D03*
D17*
X205250000Y-76250000D03*
X205250000Y-77750000D03*
X205250000Y-79250000D03*
X205250000Y-80750000D03*
X205250000Y-82250000D03*
X205250000Y-83750000D03*
X205250000Y-85250000D03*
X205250000Y-86750000D03*
X205250000Y-88250000D03*
X187750000Y-88250000D03*
X187750000Y-86750000D03*
X187750000Y-85250000D03*
X187750000Y-83750000D03*
X187750000Y-82250000D03*
X187750000Y-80750000D03*
X187750000Y-79250000D03*
X187750000Y-77750000D03*
X187750000Y-76250000D03*
D12*
X135600000Y-83500000D03*
X135600000Y-80200000D03*
X140500000Y-80200000D03*
X140500000Y-83500000D03*
M02*
