%TF.GenerationSoftware,KiCad,Pcbnew,9.0.0*%
%TF.CreationDate,2025-03-29T02:07:01-04:00*%
%TF.ProjectId,SHERPENT20250113,53484552-5045-44e5-9432-303235303131,rev?*%
%TF.SameCoordinates,Original*%
%TF.FileFunction,Copper,L3,Inr*%
%TF.FilePolarity,Positive*%
%FSLAX46Y46*%
G04 Gerber Fmt 4.6, Leading zero omitted, Abs format (unit mm)*
G04 Created by KiCad (PCBNEW 9.0.0) date 2025-03-29 02:07:01*
%MOMM*%
%LPD*%
G01*
G04 APERTURE LIST*
%TA.AperFunction,ComponentPad*%
%ADD10C,3.000000*%
%TD*%
%TA.AperFunction,ComponentPad*%
%ADD11R,1.700000X1.700000*%
%TD*%
%TA.AperFunction,ComponentPad*%
%ADD12O,1.700000X1.700000*%
%TD*%
%TA.AperFunction,ComponentPad*%
%ADD13R,1.600000X1.600000*%
%TD*%
%TA.AperFunction,ComponentPad*%
%ADD14C,1.600000*%
%TD*%
%TA.AperFunction,ComponentPad*%
%ADD15C,0.648000*%
%TD*%
%TA.AperFunction,ComponentPad*%
%ADD16O,1.300000X2.500000*%
%TD*%
%TA.AperFunction,ComponentPad*%
%ADD17O,1.300000X3.200000*%
%TD*%
%TA.AperFunction,ComponentPad*%
%ADD18R,2.000000X2.000000*%
%TD*%
%TA.AperFunction,ComponentPad*%
%ADD19C,1.700000*%
%TD*%
%TA.AperFunction,ComponentPad*%
%ADD20C,2.000000*%
%TD*%
%TA.AperFunction,HeatsinkPad*%
%ADD21C,0.600000*%
%TD*%
%TA.AperFunction,ViaPad*%
%ADD22C,0.450000*%
%TD*%
%TA.AperFunction,ViaPad*%
%ADD23C,1.000000*%
%TD*%
%TA.AperFunction,Conductor*%
%ADD24C,0.450000*%
%TD*%
%TA.AperFunction,Conductor*%
%ADD25C,0.300000*%
%TD*%
%TA.AperFunction,Conductor*%
%ADD26C,1.500000*%
%TD*%
G04 APERTURE END LIST*
D10*
X141900000Y-77700000D03*
X154009327Y-91736442D03*
X195500000Y-118000000D03*
D11*
X194920000Y-133200000D03*
D12*
X197460000Y-133200000D03*
X200000000Y-133200000D03*
D10*
X156700000Y-95200000D03*
X191250000Y-118000000D03*
X170800000Y-86700000D03*
D13*
X180400000Y-120255113D03*
D14*
X180400000Y-118255113D03*
D10*
X174800000Y-85900000D03*
D11*
X178900000Y-85025000D03*
D12*
X178900000Y-87565000D03*
D10*
X204000000Y-118000000D03*
D11*
X154000000Y-124540000D03*
D12*
X154000000Y-122000000D03*
X154000000Y-119460000D03*
D11*
X159600000Y-82925000D03*
D12*
X159600000Y-85465000D03*
D10*
X199750000Y-118010255D03*
D15*
X171304800Y-76649200D03*
X170454800Y-76649200D03*
X169604800Y-76649200D03*
X168754800Y-76649200D03*
X167904800Y-76649200D03*
X167054800Y-76649200D03*
X166204800Y-76649200D03*
X165354800Y-76649200D03*
X165354800Y-75299200D03*
X166204800Y-75299200D03*
X167054800Y-75299200D03*
X167904800Y-75299200D03*
X168754800Y-75299200D03*
X169604800Y-75299200D03*
X170454800Y-75299200D03*
X171304800Y-75299200D03*
D16*
X172649800Y-71999200D03*
X164009800Y-71999200D03*
D17*
X172649800Y-76149200D03*
X164009800Y-76149200D03*
D13*
X148200000Y-121655113D03*
D14*
X148200000Y-119655113D03*
D11*
X185860600Y-121979487D03*
D12*
X185860600Y-119439487D03*
X185860600Y-116899487D03*
D11*
X145800000Y-82725000D03*
D12*
X145800000Y-85265000D03*
D18*
X136187500Y-113912500D03*
X150187500Y-113912500D03*
X136187500Y-90912500D03*
X150187500Y-90912500D03*
X138727500Y-90912500D03*
X147647500Y-90912500D03*
D10*
X176200000Y-73800000D03*
D19*
X165750000Y-132750000D03*
X170250000Y-132750000D03*
D20*
X164500000Y-130250000D03*
X171500000Y-130250000D03*
D21*
X196640000Y-83000000D03*
X196640000Y-81900000D03*
X196090000Y-83550000D03*
X196090000Y-82450000D03*
X196090000Y-81350000D03*
X195540000Y-83000000D03*
X195540000Y-81900000D03*
X194990000Y-83550000D03*
X194990000Y-82450000D03*
X194990000Y-81350000D03*
X194440000Y-83000000D03*
X194440000Y-81900000D03*
D22*
X162300000Y-81000000D03*
X157000000Y-77750000D03*
X158900000Y-88700000D03*
X172700000Y-117300000D03*
X172700000Y-120100000D03*
X163600000Y-121600000D03*
D23*
X155100000Y-83600000D03*
X151200000Y-84500000D03*
X151200000Y-83600000D03*
D22*
X164700000Y-101000000D03*
X170200000Y-123600000D03*
X199000000Y-83000000D03*
X182800000Y-78100000D03*
X168762500Y-122062500D03*
X164000000Y-97000000D03*
X198600000Y-125300000D03*
X169400000Y-108300000D03*
X142000000Y-80250000D03*
X164000000Y-94000000D03*
X151000000Y-75700000D03*
X200000000Y-89000000D03*
D23*
X168800000Y-83100000D03*
D22*
X164000000Y-98000000D03*
X164700000Y-97000000D03*
X140400000Y-86000000D03*
X164700000Y-95000000D03*
X164000000Y-99000000D03*
X161100000Y-89300000D03*
X161000000Y-88700000D03*
X164700000Y-98000000D03*
X164000000Y-95000000D03*
X164000000Y-100000000D03*
X135500000Y-117750000D03*
X171300000Y-74100000D03*
X164700000Y-94000000D03*
X164000000Y-96000000D03*
X164700000Y-100000000D03*
X135250000Y-124250000D03*
X164000000Y-101000000D03*
X165300000Y-74200000D03*
X164700000Y-99000000D03*
X164700000Y-96000000D03*
D23*
X205250000Y-89750000D03*
D22*
X170000000Y-79600000D03*
D23*
X154100000Y-103900000D03*
X199700000Y-79550000D03*
D22*
X176750000Y-127500000D03*
X144000000Y-128250000D03*
X170100000Y-120200000D03*
X157200000Y-123800000D03*
X160200000Y-100000000D03*
X159500000Y-100000000D03*
X160200000Y-101000000D03*
X159500000Y-101000000D03*
X160200000Y-97000000D03*
X160200000Y-95000000D03*
X159500000Y-98000000D03*
X159500000Y-96000000D03*
X159500000Y-99000000D03*
X159500000Y-97000000D03*
X159500000Y-95000000D03*
X160200000Y-94000000D03*
X159500000Y-94000000D03*
X166250000Y-101000000D03*
X160200000Y-99000000D03*
X160200000Y-98000000D03*
X160200000Y-96000000D03*
D23*
X165200000Y-89200000D03*
D22*
X191750000Y-76250000D03*
X135500000Y-82500000D03*
X182250000Y-132250000D03*
X150500000Y-130500000D03*
D23*
X202312498Y-78800000D03*
X165200000Y-88000000D03*
X165200000Y-86800000D03*
D22*
X143750000Y-73500000D03*
X141500000Y-123250000D03*
X198500000Y-86000000D03*
X203750000Y-122000000D03*
X179000000Y-81100000D03*
X174500000Y-116250000D03*
X161550000Y-90050000D03*
D23*
X159650000Y-87650000D03*
D22*
X172500000Y-79950000D03*
X172500000Y-80650000D03*
X158503554Y-124396446D03*
X203900000Y-77800000D03*
D23*
X203100000Y-86900000D03*
D22*
X155500000Y-98300000D03*
X162718762Y-102374760D03*
X162014233Y-102413291D03*
X161381070Y-102362140D03*
D23*
X203500000Y-85300000D03*
D22*
X186300000Y-79500000D03*
X185725000Y-77300000D03*
X195500000Y-76200000D03*
X186400000Y-80800000D03*
X182400000Y-84800000D03*
X180000000Y-88800000D03*
X186400000Y-87500000D03*
X180700000Y-75800000D03*
X137800000Y-122600000D03*
X163900000Y-81400000D03*
X155250000Y-75900000D03*
X167600000Y-81200000D03*
X137500000Y-83700000D03*
X184250000Y-126750000D03*
X162894307Y-104547153D03*
X169262500Y-104600000D03*
X190625000Y-85000000D03*
D24*
X150500000Y-130500000D02*
X151000000Y-130000000D01*
X172250000Y-116250000D02*
X170751000Y-114751000D01*
X170751000Y-92501000D02*
X170500000Y-92250000D01*
X179750000Y-134750000D02*
X182250000Y-132250000D01*
X170751000Y-114751000D02*
X170751000Y-92501000D01*
X148750000Y-130500000D02*
X150500000Y-130500000D01*
X151000000Y-130000000D02*
X158000000Y-130000000D01*
X158000000Y-130000000D02*
X159000000Y-130000000D01*
X174500000Y-116250000D02*
X172250000Y-116250000D01*
X141500000Y-123250000D02*
X148750000Y-130500000D01*
X159000000Y-130000000D02*
X163750000Y-134750000D01*
X163750000Y-134750000D02*
X179750000Y-134750000D01*
D25*
X162000000Y-90500000D02*
X161600000Y-90100000D01*
X167000000Y-90500000D02*
X162000000Y-90500000D01*
X170800000Y-86700000D02*
X167000000Y-90500000D01*
D24*
X169863805Y-72663501D02*
X172204106Y-70323200D01*
X176200000Y-72500000D02*
X176200000Y-73800000D01*
X166204800Y-75299200D02*
X166204800Y-76649200D01*
X174023200Y-70323200D02*
X176200000Y-72500000D01*
X172204106Y-70323200D02*
X174023200Y-70323200D01*
X166204800Y-74994400D02*
X166204800Y-75299200D01*
X169863805Y-74250000D02*
X166949200Y-74250000D01*
X170454800Y-75299200D02*
X170454800Y-76649200D01*
X170454800Y-74840995D02*
X169863805Y-74250000D01*
X166949200Y-74250000D02*
X166204800Y-74994400D01*
X169863805Y-74250000D02*
X169863805Y-72663501D01*
X170454800Y-75299200D02*
X170454800Y-74840995D01*
D26*
X145800000Y-85265000D02*
X145800000Y-89065000D01*
X145800000Y-89065000D02*
X147647500Y-90912500D01*
D25*
X162894307Y-104547153D02*
X169209653Y-104547153D01*
X169209653Y-104547153D02*
X169262500Y-104600000D01*
%TA.AperFunction,Conductor*%
G36*
X152540846Y-92780325D02*
G01*
X152652730Y-92926135D01*
X152652740Y-92926147D01*
X152819621Y-93093028D01*
X152819633Y-93093038D01*
X153006864Y-93236706D01*
X153006873Y-93236712D01*
X153006877Y-93236715D01*
X153211278Y-93354726D01*
X153429334Y-93445048D01*
X153429337Y-93445048D01*
X153429340Y-93445050D01*
X153657301Y-93506132D01*
X153657302Y-93506132D01*
X153657313Y-93506135D01*
X153891316Y-93536942D01*
X153891320Y-93536942D01*
X154127334Y-93536942D01*
X154127338Y-93536942D01*
X154361341Y-93506135D01*
X154589320Y-93445048D01*
X154807376Y-93354726D01*
X155011777Y-93236715D01*
X155199026Y-93093034D01*
X155365919Y-92926141D01*
X155476215Y-92782399D01*
X155508693Y-92763648D01*
X155544918Y-92773355D01*
X155548698Y-92776572D01*
X155551011Y-92778753D01*
X155600200Y-92803764D01*
X155651086Y-92829639D01*
X155718126Y-92849324D01*
X155804198Y-92861700D01*
X170176500Y-92861700D01*
X170211148Y-92876052D01*
X170225500Y-92910700D01*
X170225500Y-114678803D01*
X170225499Y-114678821D01*
X170225499Y-114820186D01*
X170253743Y-114925591D01*
X170261311Y-114953834D01*
X170261312Y-114953838D01*
X170330495Y-115073665D01*
X170431125Y-115174295D01*
X170431131Y-115174300D01*
X171827779Y-116570948D01*
X171827784Y-116570954D01*
X171829495Y-116572665D01*
X171927335Y-116670505D01*
X171971194Y-116695827D01*
X172047161Y-116739687D01*
X172047163Y-116739687D01*
X172047164Y-116739688D01*
X172121798Y-116759686D01*
X172180813Y-116775499D01*
X172180814Y-116775500D01*
X172180817Y-116775500D01*
X172374590Y-116775500D01*
X172409238Y-116789852D01*
X172423590Y-116824500D01*
X172409238Y-116859148D01*
X172399090Y-116866935D01*
X172377334Y-116879495D01*
X172377334Y-116879496D01*
X172279496Y-116977334D01*
X172279495Y-116977334D01*
X172210312Y-117097161D01*
X172210311Y-117097165D01*
X172174500Y-117230813D01*
X172174500Y-117369186D01*
X172210311Y-117502834D01*
X172210312Y-117502838D01*
X172235905Y-117547165D01*
X172279495Y-117622665D01*
X172377335Y-117720505D01*
X172421194Y-117745827D01*
X172497161Y-117789687D01*
X172497163Y-117789687D01*
X172497164Y-117789688D01*
X172602571Y-117817931D01*
X172630813Y-117825499D01*
X172630814Y-117825500D01*
X172630817Y-117825500D01*
X172769186Y-117825500D01*
X172769186Y-117825499D01*
X172902836Y-117789688D01*
X173022665Y-117720505D01*
X173120505Y-117622665D01*
X173189688Y-117502836D01*
X173225499Y-117369186D01*
X173225500Y-117369186D01*
X173225500Y-117230814D01*
X173225499Y-117230813D01*
X173189688Y-117097165D01*
X173189687Y-117097161D01*
X173132176Y-116997550D01*
X173120505Y-116977335D01*
X173022665Y-116879495D01*
X173000909Y-116866934D01*
X172978080Y-116837182D01*
X172981798Y-116808941D01*
X184710100Y-116808941D01*
X184710100Y-116990032D01*
X184738428Y-117168893D01*
X184738429Y-117168896D01*
X184785536Y-117313881D01*
X184794389Y-117341126D01*
X184876604Y-117502481D01*
X184982319Y-117647986D01*
X184983048Y-117648989D01*
X184983052Y-117648994D01*
X185111093Y-117777035D01*
X185111097Y-117777038D01*
X185111099Y-117777040D01*
X185257606Y-117883483D01*
X185418961Y-117965698D01*
X185591191Y-118021658D01*
X185770054Y-118049987D01*
X185770055Y-118049987D01*
X185951145Y-118049987D01*
X185951146Y-118049987D01*
X186130009Y-118021658D01*
X186302239Y-117965698D01*
X186463594Y-117883483D01*
X186465650Y-117881989D01*
X193699500Y-117881989D01*
X193699500Y-118118011D01*
X193730307Y-118352014D01*
X193730308Y-118352018D01*
X193730309Y-118352025D01*
X193791391Y-118579986D01*
X193791395Y-118579996D01*
X193881716Y-118798050D01*
X193999725Y-119002447D01*
X193999735Y-119002462D01*
X194143403Y-119189693D01*
X194143413Y-119189705D01*
X194310294Y-119356586D01*
X194310306Y-119356596D01*
X194497537Y-119500264D01*
X194497546Y-119500270D01*
X194497550Y-119500273D01*
X194701951Y-119618284D01*
X194920007Y-119708606D01*
X194920010Y-119708606D01*
X194920013Y-119708608D01*
X195147974Y-119769690D01*
X195147975Y-119769690D01*
X195147986Y-119769693D01*
X195381989Y-119800500D01*
X195381993Y-119800500D01*
X195618007Y-119800500D01*
X195618011Y-119800500D01*
X195852014Y-119769693D01*
X195956399Y-119741723D01*
X196079986Y-119708608D01*
X196079986Y-119708607D01*
X196079993Y-119708606D01*
X196298049Y-119618284D01*
X196502450Y-119500273D01*
X196689699Y-119356592D01*
X196856592Y-119189699D01*
X196992404Y-119012705D01*
X197000264Y-119002462D01*
X197000265Y-119002459D01*
X197000273Y-119002450D01*
X197118284Y-118798049D01*
X197208606Y-118579993D01*
X197269693Y-118352014D01*
X197300500Y-118118011D01*
X197300500Y-117892244D01*
X197949500Y-117892244D01*
X197949500Y-118128266D01*
X197980307Y-118362269D01*
X197980308Y-118362273D01*
X197980309Y-118362280D01*
X198041391Y-118590241D01*
X198041395Y-118590251D01*
X198131716Y-118808305D01*
X198249725Y-119012702D01*
X198249735Y-119012717D01*
X198393403Y-119199948D01*
X198393413Y-119199960D01*
X198560294Y-119366841D01*
X198560306Y-119366851D01*
X198747537Y-119510519D01*
X198747546Y-119510525D01*
X198747550Y-119510528D01*
X198951951Y-119628539D01*
X199170007Y-119718861D01*
X199170010Y-119718861D01*
X199170013Y-119718863D01*
X199397974Y-119779945D01*
X199397975Y-119779945D01*
X199397986Y-119779948D01*
X199631989Y-119810755D01*
X199631993Y-119810755D01*
X199868007Y-119810755D01*
X199868011Y-119810755D01*
X200102014Y-119779948D01*
X200169742Y-119761800D01*
X200329986Y-119718863D01*
X200329986Y-119718862D01*
X200329993Y-119718861D01*
X200548049Y-119628539D01*
X200752450Y-119510528D01*
X200765827Y-119500264D01*
X200899863Y-119397414D01*
X200939699Y-119366847D01*
X201106592Y-119199954D01*
X201250273Y-119012705D01*
X201368284Y-118808304D01*
X201458606Y-118590248D01*
X201460894Y-118581711D01*
X201519690Y-118362280D01*
X201519689Y-118362280D01*
X201519693Y-118362269D01*
X201550500Y-118128266D01*
X201550500Y-117892244D01*
X201549150Y-117881989D01*
X202199500Y-117881989D01*
X202199500Y-118118011D01*
X202230307Y-118352014D01*
X202230308Y-118352018D01*
X202230309Y-118352025D01*
X202291391Y-118579986D01*
X202291395Y-118579996D01*
X202381716Y-118798050D01*
X202499725Y-119002447D01*
X202499735Y-119002462D01*
X202643403Y-119189693D01*
X202643413Y-119189705D01*
X202810294Y-119356586D01*
X202810306Y-119356596D01*
X202997537Y-119500264D01*
X202997546Y-119500270D01*
X202997550Y-119500273D01*
X203201951Y-119618284D01*
X203420007Y-119708606D01*
X203420010Y-119708606D01*
X203420013Y-119708608D01*
X203647974Y-119769690D01*
X203647975Y-119769690D01*
X203647986Y-119769693D01*
X203881989Y-119800500D01*
X203881993Y-119800500D01*
X204118007Y-119800500D01*
X204118011Y-119800500D01*
X204352014Y-119769693D01*
X204456399Y-119741723D01*
X204579986Y-119708608D01*
X204579986Y-119708607D01*
X204579993Y-119708606D01*
X204798049Y-119618284D01*
X205002450Y-119500273D01*
X205189699Y-119356592D01*
X205356592Y-119189699D01*
X205492404Y-119012705D01*
X205500264Y-119002462D01*
X205500265Y-119002459D01*
X205500273Y-119002450D01*
X205618284Y-118798049D01*
X205708606Y-118579993D01*
X205769693Y-118352014D01*
X205800500Y-118118011D01*
X205800500Y-117881989D01*
X205769693Y-117647986D01*
X205730705Y-117502480D01*
X205708608Y-117420013D01*
X205708604Y-117420003D01*
X205706823Y-117415704D01*
X205618284Y-117201951D01*
X205606598Y-117181711D01*
X205500274Y-116997552D01*
X205500264Y-116997537D01*
X205356596Y-116810306D01*
X205356586Y-116810294D01*
X205189705Y-116643413D01*
X205189693Y-116643403D01*
X205002462Y-116499735D01*
X205002447Y-116499725D01*
X204798050Y-116381716D01*
X204579996Y-116291395D01*
X204579986Y-116291391D01*
X204352025Y-116230309D01*
X204352018Y-116230308D01*
X204352014Y-116230307D01*
X204118011Y-116199500D01*
X203881989Y-116199500D01*
X203647986Y-116230307D01*
X203647982Y-116230307D01*
X203647974Y-116230309D01*
X203420013Y-116291391D01*
X203420003Y-116291395D01*
X203201949Y-116381716D01*
X202997552Y-116499725D01*
X202997537Y-116499735D01*
X202810306Y-116643403D01*
X202810294Y-116643413D01*
X202643413Y-116810294D01*
X202643403Y-116810306D01*
X202499735Y-116997537D01*
X202499725Y-116997552D01*
X202381716Y-117201949D01*
X202291395Y-117420003D01*
X202291391Y-117420013D01*
X202230309Y-117647974D01*
X202230307Y-117647982D01*
X202230307Y-117647986D01*
X202199500Y-117881989D01*
X201549150Y-117881989D01*
X201519693Y-117658241D01*
X201510161Y-117622666D01*
X201458608Y-117430268D01*
X201458604Y-117430258D01*
X201457393Y-117427335D01*
X201368284Y-117212206D01*
X201250273Y-117007805D01*
X201250270Y-117007801D01*
X201250264Y-117007792D01*
X201106596Y-116820561D01*
X201106586Y-116820549D01*
X200939705Y-116653668D01*
X200939693Y-116653658D01*
X200752462Y-116509990D01*
X200752447Y-116509980D01*
X200548050Y-116391971D01*
X200329996Y-116301650D01*
X200329986Y-116301646D01*
X200102025Y-116240564D01*
X200102018Y-116240563D01*
X200102014Y-116240562D01*
X199868011Y-116209755D01*
X199631989Y-116209755D01*
X199397986Y-116240562D01*
X199397982Y-116240562D01*
X199397974Y-116240564D01*
X199170013Y-116301646D01*
X199170003Y-116301650D01*
X198951949Y-116391971D01*
X198747552Y-116509980D01*
X198747537Y-116509990D01*
X198560306Y-116653658D01*
X198560294Y-116653668D01*
X198393413Y-116820549D01*
X198393403Y-116820561D01*
X198249735Y-117007792D01*
X198249725Y-117007807D01*
X198131716Y-117212204D01*
X198041395Y-117430258D01*
X198041391Y-117430268D01*
X197980309Y-117658229D01*
X197980307Y-117658237D01*
X197980307Y-117658241D01*
X197949500Y-117892244D01*
X197300500Y-117892244D01*
X197300500Y-117881989D01*
X197269693Y-117647986D01*
X197230705Y-117502480D01*
X197208608Y-117420013D01*
X197208604Y-117420003D01*
X197206823Y-117415704D01*
X197118284Y-117201951D01*
X197106598Y-117181711D01*
X197000274Y-116997552D01*
X197000264Y-116997537D01*
X196856596Y-116810306D01*
X196856586Y-116810294D01*
X196689705Y-116643413D01*
X196689693Y-116643403D01*
X196502462Y-116499735D01*
X196502447Y-116499725D01*
X196298050Y-116381716D01*
X196079996Y-116291395D01*
X196079986Y-116291391D01*
X195852025Y-116230309D01*
X195852018Y-116230308D01*
X195852014Y-116230307D01*
X195618011Y-116199500D01*
X195381989Y-116199500D01*
X195147986Y-116230307D01*
X195147982Y-116230307D01*
X195147974Y-116230309D01*
X194920013Y-116291391D01*
X194920003Y-116291395D01*
X194701949Y-116381716D01*
X194497552Y-116499725D01*
X194497537Y-116499735D01*
X194310306Y-116643403D01*
X194310294Y-116643413D01*
X194143413Y-116810294D01*
X194143403Y-116810306D01*
X193999735Y-116997537D01*
X193999725Y-116997552D01*
X193881716Y-117201949D01*
X193791395Y-117420003D01*
X193791391Y-117420013D01*
X193730309Y-117647974D01*
X193730307Y-117647982D01*
X193730307Y-117647986D01*
X193699500Y-117881989D01*
X186465650Y-117881989D01*
X186610101Y-117777040D01*
X186610104Y-117777036D01*
X186610107Y-117777035D01*
X186738148Y-117648994D01*
X186738149Y-117648991D01*
X186738153Y-117648988D01*
X186844596Y-117502481D01*
X186926811Y-117341126D01*
X186982771Y-117168896D01*
X187011100Y-116990033D01*
X187011100Y-116808941D01*
X186982771Y-116630078D01*
X186926811Y-116457848D01*
X186844596Y-116296493D01*
X186738153Y-116149986D01*
X186738151Y-116149984D01*
X186738148Y-116149980D01*
X186610107Y-116021939D01*
X186610102Y-116021935D01*
X186610101Y-116021934D01*
X186463594Y-115915491D01*
X186302239Y-115833276D01*
X186302238Y-115833275D01*
X186302237Y-115833275D01*
X186130009Y-115777316D01*
X186130006Y-115777315D01*
X185992607Y-115755553D01*
X185951146Y-115748987D01*
X185770054Y-115748987D01*
X185736394Y-115754318D01*
X185591193Y-115777315D01*
X185591190Y-115777316D01*
X185418962Y-115833275D01*
X185257606Y-115915491D01*
X185111097Y-116021935D01*
X184983048Y-116149984D01*
X184876604Y-116296493D01*
X184794388Y-116457849D01*
X184738429Y-116630077D01*
X184738428Y-116630080D01*
X184710100Y-116808941D01*
X172981798Y-116808941D01*
X172982975Y-116800000D01*
X173012728Y-116777170D01*
X173025410Y-116775500D01*
X174569186Y-116775500D01*
X174569186Y-116775499D01*
X174585018Y-116771256D01*
X174628204Y-116759686D01*
X174665489Y-116749694D01*
X174702836Y-116739688D01*
X174822665Y-116670505D01*
X174920505Y-116572665D01*
X174989688Y-116452836D01*
X175025499Y-116319186D01*
X175025500Y-116319186D01*
X175025500Y-116180814D01*
X175025499Y-116180813D01*
X174989688Y-116047165D01*
X174989687Y-116047161D01*
X174920504Y-115927334D01*
X174822665Y-115829495D01*
X174702838Y-115760312D01*
X174702834Y-115760311D01*
X174569186Y-115724500D01*
X174569183Y-115724500D01*
X172487965Y-115724500D01*
X172453317Y-115710148D01*
X171290852Y-114547683D01*
X171276500Y-114513035D01*
X171276500Y-92910700D01*
X171290852Y-92876052D01*
X171325500Y-92861700D01*
X171473106Y-92861700D01*
X171509514Y-92857784D01*
X171538041Y-92854718D01*
X171538063Y-92854713D01*
X171539334Y-92854508D01*
X171539345Y-92854578D01*
X171539346Y-92854578D01*
X171539347Y-92854589D01*
X171539433Y-92855124D01*
X171574558Y-92861432D01*
X171595972Y-92892221D01*
X171597100Y-92902675D01*
X171597100Y-114213895D01*
X171631207Y-114341184D01*
X171631208Y-114341188D01*
X171697100Y-114455314D01*
X171790286Y-114548500D01*
X171832057Y-114572617D01*
X171904411Y-114614391D01*
X171904413Y-114614391D01*
X171904414Y-114614392D01*
X172004807Y-114641292D01*
X172031704Y-114648499D01*
X172031705Y-114648500D01*
X172031708Y-114648500D01*
X172163492Y-114648500D01*
X206549300Y-114648500D01*
X206583948Y-114662852D01*
X206598300Y-114697500D01*
X206598300Y-136546900D01*
X206583948Y-136581548D01*
X206549300Y-136595900D01*
X132464300Y-136595900D01*
X132429652Y-136581548D01*
X132415300Y-136546900D01*
X132415300Y-132878712D01*
X137149500Y-132878712D01*
X137149500Y-133121288D01*
X137181162Y-133361789D01*
X137181163Y-133361793D01*
X137181164Y-133361800D01*
X137243944Y-133596095D01*
X137243946Y-133596101D01*
X137336776Y-133820213D01*
X137458062Y-134030286D01*
X137458072Y-134030301D01*
X137605730Y-134222732D01*
X137605740Y-134222744D01*
X137777255Y-134394259D01*
X137777267Y-134394269D01*
X137969698Y-134541927D01*
X137969707Y-134541933D01*
X137969711Y-134541936D01*
X138179788Y-134663224D01*
X138403900Y-134756054D01*
X138403904Y-134756055D01*
X138638199Y-134818835D01*
X138638200Y-134818835D01*
X138638211Y-134818838D01*
X138878712Y-134850500D01*
X138878716Y-134850500D01*
X139121284Y-134850500D01*
X139121288Y-134850500D01*
X139361789Y-134818838D01*
X139596100Y-134756054D01*
X139820212Y-134663224D01*
X140030289Y-134541936D01*
X140222738Y-134394265D01*
X140394265Y-134222738D01*
X140541936Y-134030289D01*
X140663224Y-133820212D01*
X140756054Y-133596100D01*
X140818838Y-133361789D01*
X140850500Y-133121288D01*
X140850500Y-132878712D01*
X155149500Y-132878712D01*
X155149500Y-133121288D01*
X155181162Y-133361789D01*
X155181163Y-133361793D01*
X155181164Y-133361800D01*
X155243944Y-133596095D01*
X155243946Y-133596101D01*
X155336776Y-133820213D01*
X155458062Y-134030286D01*
X155458072Y-134030301D01*
X155605730Y-134222732D01*
X155605740Y-134222744D01*
X155777255Y-134394259D01*
X155777267Y-134394269D01*
X155969698Y-134541927D01*
X155969707Y-134541933D01*
X155969711Y-134541936D01*
X156179788Y-134663224D01*
X156403900Y-134756054D01*
X156403904Y-134756055D01*
X156638199Y-134818835D01*
X156638200Y-134818835D01*
X156638211Y-134818838D01*
X156878712Y-134850500D01*
X156878716Y-134850500D01*
X157121284Y-134850500D01*
X157121288Y-134850500D01*
X157361789Y-134818838D01*
X157596100Y-134756054D01*
X157820212Y-134663224D01*
X158030289Y-134541936D01*
X158222738Y-134394265D01*
X158394265Y-134222738D01*
X158541936Y-134030289D01*
X158663224Y-133820212D01*
X158756054Y-133596100D01*
X158818838Y-133361789D01*
X158850500Y-133121288D01*
X158850500Y-132878712D01*
X158818838Y-132638211D01*
X158756054Y-132403900D01*
X158663224Y-132179788D01*
X158636666Y-132133789D01*
X158586654Y-132047165D01*
X158541936Y-131969711D01*
X158541933Y-131969707D01*
X158541927Y-131969698D01*
X158394269Y-131777267D01*
X158394259Y-131777255D01*
X158222744Y-131605740D01*
X158222732Y-131605730D01*
X158030301Y-131458072D01*
X158030286Y-131458062D01*
X157820212Y-131336776D01*
X157820213Y-131336776D01*
X157596101Y-131243946D01*
X157596095Y-131243944D01*
X157361800Y-131181164D01*
X157361793Y-131181163D01*
X157361789Y-131181162D01*
X157121288Y-131149500D01*
X156878712Y-131149500D01*
X156638211Y-131181162D01*
X156638207Y-131181162D01*
X156638199Y-131181164D01*
X156403904Y-131243944D01*
X156403898Y-131243946D01*
X156179786Y-131336776D01*
X155969713Y-131458062D01*
X155969698Y-131458072D01*
X155777267Y-131605730D01*
X155777255Y-131605740D01*
X155605740Y-131777255D01*
X155605730Y-131777267D01*
X155458072Y-131969698D01*
X155458062Y-131969713D01*
X155336776Y-132179786D01*
X155243946Y-132403898D01*
X155243944Y-132403904D01*
X155181164Y-132638199D01*
X155181162Y-132638207D01*
X155181162Y-132638211D01*
X155149500Y-132878712D01*
X140850500Y-132878712D01*
X140818838Y-132638211D01*
X140756054Y-132403900D01*
X140663224Y-132179788D01*
X140636666Y-132133789D01*
X140586654Y-132047165D01*
X140541936Y-131969711D01*
X140541933Y-131969707D01*
X140541927Y-131969698D01*
X140394269Y-131777267D01*
X140394259Y-131777255D01*
X140222744Y-131605740D01*
X140222732Y-131605730D01*
X140030301Y-131458072D01*
X140030286Y-131458062D01*
X139820212Y-131336776D01*
X139820213Y-131336776D01*
X139596101Y-131243946D01*
X139596095Y-131243944D01*
X139361800Y-131181164D01*
X139361793Y-131181163D01*
X139361789Y-131181162D01*
X139121288Y-131149500D01*
X138878712Y-131149500D01*
X138638211Y-131181162D01*
X138638207Y-131181162D01*
X138638199Y-131181164D01*
X138403904Y-131243944D01*
X138403898Y-131243946D01*
X138179786Y-131336776D01*
X137969713Y-131458062D01*
X137969698Y-131458072D01*
X137777267Y-131605730D01*
X137777255Y-131605740D01*
X137605740Y-131777255D01*
X137605730Y-131777267D01*
X137458072Y-131969698D01*
X137458062Y-131969713D01*
X137336776Y-132179786D01*
X137243946Y-132403898D01*
X137243944Y-132403904D01*
X137181164Y-132638199D01*
X137181162Y-132638207D01*
X137181162Y-132638211D01*
X137149500Y-132878712D01*
X132415300Y-132878712D01*
X132415300Y-128180813D01*
X143474500Y-128180813D01*
X143474500Y-128319186D01*
X143510311Y-128452834D01*
X143510312Y-128452838D01*
X143579495Y-128572665D01*
X143677335Y-128670505D01*
X143721194Y-128695827D01*
X143797161Y-128739687D01*
X143797163Y-128739687D01*
X143797164Y-128739688D01*
X143902571Y-128767931D01*
X143930813Y-128775499D01*
X143930814Y-128775500D01*
X143930817Y-128775500D01*
X144069186Y-128775500D01*
X144069186Y-128775499D01*
X144202836Y-128739688D01*
X144322665Y-128670505D01*
X144420505Y-128572665D01*
X144489688Y-128452836D01*
X144525499Y-128319186D01*
X144525500Y-128319186D01*
X144525500Y-128180814D01*
X144525499Y-128180813D01*
X144489688Y-128047165D01*
X144489687Y-128047161D01*
X144420504Y-127927334D01*
X144322665Y-127829495D01*
X144202838Y-127760312D01*
X144202834Y-127760311D01*
X144069186Y-127724500D01*
X144069183Y-127724500D01*
X143930817Y-127724500D01*
X143930814Y-127724500D01*
X143797165Y-127760311D01*
X143797161Y-127760312D01*
X143677334Y-127829495D01*
X143677334Y-127829496D01*
X143579496Y-127927334D01*
X143579495Y-127927334D01*
X143510312Y-128047161D01*
X143510311Y-128047165D01*
X143474500Y-128180813D01*
X132415300Y-128180813D01*
X132415300Y-124180813D01*
X134724500Y-124180813D01*
X134724500Y-124319186D01*
X134760311Y-124452834D01*
X134760312Y-124452838D01*
X134829495Y-124572665D01*
X134927335Y-124670505D01*
X134971194Y-124695827D01*
X135047161Y-124739687D01*
X135047163Y-124739687D01*
X135047164Y-124739688D01*
X135152571Y-124767931D01*
X135180813Y-124775499D01*
X135180814Y-124775500D01*
X135180817Y-124775500D01*
X135319186Y-124775500D01*
X135319186Y-124775499D01*
X135452836Y-124739688D01*
X135572665Y-124670505D01*
X135670505Y-124572665D01*
X135739688Y-124452836D01*
X135775499Y-124319186D01*
X135775500Y-124319186D01*
X135775500Y-124180814D01*
X135775499Y-124180813D01*
X135746820Y-124073781D01*
X135739688Y-124047164D01*
X135739687Y-124047163D01*
X135739687Y-124047161D01*
X135670504Y-123927334D01*
X135572665Y-123829495D01*
X135452838Y-123760312D01*
X135452834Y-123760311D01*
X135319186Y-123724500D01*
X135319183Y-123724500D01*
X135180817Y-123724500D01*
X135180814Y-123724500D01*
X135047165Y-123760311D01*
X135047161Y-123760312D01*
X134927334Y-123829495D01*
X134927334Y-123829496D01*
X134829496Y-123927334D01*
X134829495Y-123927334D01*
X134760312Y-124047161D01*
X134760311Y-124047165D01*
X134724500Y-124180813D01*
X132415300Y-124180813D01*
X132415300Y-123180815D01*
X140974499Y-123180815D01*
X140974499Y-123319184D01*
X140994122Y-123392414D01*
X140994122Y-123392415D01*
X141010311Y-123452835D01*
X141010312Y-123452838D01*
X141079495Y-123572665D01*
X141180125Y-123673295D01*
X141180131Y-123673300D01*
X148327779Y-130820948D01*
X148327784Y-130820954D01*
X148329495Y-130822665D01*
X148427335Y-130920505D01*
X148471194Y-130945827D01*
X148547161Y-130989687D01*
X148547164Y-130989688D01*
X148613990Y-131007594D01*
X148636265Y-131013562D01*
X148680814Y-131025500D01*
X148680816Y-131025500D01*
X148680817Y-131025500D01*
X150427804Y-131025500D01*
X150427820Y-131025501D01*
X150430817Y-131025501D01*
X150569185Y-131025501D01*
X150611346Y-131014203D01*
X150674591Y-130997256D01*
X150702836Y-130989688D01*
X150822665Y-130920505D01*
X150920505Y-130822665D01*
X150920506Y-130822663D01*
X151203318Y-130539852D01*
X151237966Y-130525500D01*
X157930817Y-130525500D01*
X158762035Y-130525500D01*
X158796683Y-130539852D01*
X163327779Y-135070948D01*
X163327784Y-135070954D01*
X163329495Y-135072665D01*
X163427335Y-135170505D01*
X163471194Y-135195827D01*
X163547161Y-135239687D01*
X163547164Y-135239688D01*
X163613990Y-135257594D01*
X163636265Y-135263562D01*
X163680814Y-135275500D01*
X163680816Y-135275500D01*
X163680817Y-135275500D01*
X179677804Y-135275500D01*
X179677820Y-135275501D01*
X179680817Y-135275501D01*
X179819185Y-135275501D01*
X179861346Y-135264203D01*
X179924591Y-135247256D01*
X179952836Y-135239688D01*
X180072665Y-135170505D01*
X180170505Y-135072665D01*
X180170505Y-135072663D01*
X180174534Y-135068635D01*
X180174538Y-135068630D01*
X182133714Y-133109454D01*
X196309500Y-133109454D01*
X196309500Y-133290545D01*
X196337828Y-133469406D01*
X196337829Y-133469409D01*
X196389211Y-133627551D01*
X196393789Y-133641639D01*
X196476004Y-133802994D01*
X196526263Y-133872170D01*
X196582446Y-133949500D01*
X196582452Y-133949507D01*
X196710493Y-134077548D01*
X196710497Y-134077551D01*
X196710499Y-134077553D01*
X196857006Y-134183996D01*
X197018361Y-134266211D01*
X197190591Y-134322171D01*
X197369454Y-134350500D01*
X197369455Y-134350500D01*
X197550545Y-134350500D01*
X197550546Y-134350500D01*
X197729409Y-134322171D01*
X197901639Y-134266211D01*
X198062994Y-134183996D01*
X198209501Y-134077553D01*
X198209504Y-134077549D01*
X198209507Y-134077548D01*
X198337548Y-133949507D01*
X198337554Y-133949500D01*
X198373154Y-133900500D01*
X198443996Y-133802994D01*
X198526211Y-133641639D01*
X198582171Y-133469409D01*
X198610500Y-133290546D01*
X198610500Y-133109454D01*
X198849500Y-133109454D01*
X198849500Y-133290545D01*
X198877828Y-133469406D01*
X198877829Y-133469409D01*
X198929211Y-133627551D01*
X198933789Y-133641639D01*
X199016004Y-133802994D01*
X199066263Y-133872170D01*
X199122446Y-133949500D01*
X199122452Y-133949507D01*
X199250493Y-134077548D01*
X199250497Y-134077551D01*
X199250499Y-134077553D01*
X199397006Y-134183996D01*
X199558361Y-134266211D01*
X199730591Y-134322171D01*
X199909454Y-134350500D01*
X199909455Y-134350500D01*
X200090545Y-134350500D01*
X200090546Y-134350500D01*
X200269409Y-134322171D01*
X200441639Y-134266211D01*
X200602994Y-134183996D01*
X200749501Y-134077553D01*
X200749504Y-134077549D01*
X200749507Y-134077548D01*
X200877548Y-133949507D01*
X200877554Y-133949500D01*
X200913154Y-133900500D01*
X200983996Y-133802994D01*
X201066211Y-133641639D01*
X201122171Y-133469409D01*
X201150500Y-133290546D01*
X201150500Y-133109454D01*
X201122171Y-132930591D01*
X201066211Y-132758361D01*
X200983996Y-132597006D01*
X200877553Y-132450499D01*
X200877551Y-132450497D01*
X200877548Y-132450493D01*
X200749507Y-132322452D01*
X200749502Y-132322448D01*
X200749501Y-132322447D01*
X200602994Y-132216004D01*
X200441639Y-132133789D01*
X200441638Y-132133788D01*
X200441637Y-132133788D01*
X200269409Y-132077829D01*
X200269406Y-132077828D01*
X200115157Y-132053398D01*
X200090546Y-132049500D01*
X199909454Y-132049500D01*
X199884868Y-132053394D01*
X199730593Y-132077828D01*
X199730590Y-132077829D01*
X199558362Y-132133788D01*
X199397006Y-132216004D01*
X199250497Y-132322448D01*
X199122448Y-132450497D01*
X199016004Y-132597006D01*
X198933788Y-132758362D01*
X198877829Y-132930590D01*
X198877828Y-132930593D01*
X198849500Y-133109454D01*
X198610500Y-133109454D01*
X198582171Y-132930591D01*
X198526211Y-132758361D01*
X198443996Y-132597006D01*
X198337553Y-132450499D01*
X198337551Y-132450497D01*
X198337548Y-132450493D01*
X198209507Y-132322452D01*
X198209502Y-132322448D01*
X198209501Y-132322447D01*
X198062994Y-132216004D01*
X197901639Y-132133789D01*
X197901638Y-132133788D01*
X197901637Y-132133788D01*
X197729409Y-132077829D01*
X197729406Y-132077828D01*
X197575157Y-132053398D01*
X197550546Y-132049500D01*
X197369454Y-132049500D01*
X197344868Y-132053394D01*
X197190593Y-132077828D01*
X197190590Y-132077829D01*
X197018362Y-132133788D01*
X196857006Y-132216004D01*
X196710497Y-132322448D01*
X196582448Y-132450497D01*
X196476004Y-132597006D01*
X196393788Y-132758362D01*
X196337829Y-132930590D01*
X196337828Y-132930593D01*
X196309500Y-133109454D01*
X182133714Y-133109454D01*
X182568630Y-132674538D01*
X182568635Y-132674534D01*
X182572663Y-132670505D01*
X182572665Y-132670505D01*
X182670505Y-132572665D01*
X182739688Y-132452836D01*
X182761664Y-132370821D01*
X182774626Y-132322448D01*
X182775501Y-132319184D01*
X182775501Y-132180815D01*
X182741358Y-132053398D01*
X182741357Y-132053394D01*
X182739687Y-132047162D01*
X182694972Y-131969713D01*
X182670505Y-131927335D01*
X182572665Y-131829495D01*
X182452838Y-131760312D01*
X182452834Y-131760311D01*
X182424591Y-131752743D01*
X182424591Y-131752742D01*
X182319186Y-131724499D01*
X182319183Y-131724499D01*
X182180817Y-131724499D01*
X182180814Y-131724499D01*
X182075407Y-131752742D01*
X182075408Y-131752743D01*
X182047165Y-131760311D01*
X182047161Y-131760312D01*
X181927334Y-131829495D01*
X181927334Y-131829496D01*
X181829493Y-131927337D01*
X179546683Y-134210148D01*
X179512035Y-134224500D01*
X163987965Y-134224500D01*
X163953317Y-134210148D01*
X162402623Y-132659454D01*
X164599500Y-132659454D01*
X164599500Y-132840545D01*
X164627828Y-133019406D01*
X164627829Y-133019409D01*
X164660929Y-133121284D01*
X164683789Y-133191639D01*
X164766004Y-133352994D01*
X164850582Y-133469406D01*
X164872448Y-133499502D01*
X164872452Y-133499507D01*
X165000493Y-133627548D01*
X165000497Y-133627551D01*
X165000499Y-133627553D01*
X165147006Y-133733996D01*
X165308361Y-133816211D01*
X165480591Y-133872171D01*
X165659454Y-133900500D01*
X165659455Y-133900500D01*
X165840545Y-133900500D01*
X165840546Y-133900500D01*
X166019409Y-133872171D01*
X166191639Y-133816211D01*
X166352994Y-133733996D01*
X166499501Y-133627553D01*
X166499504Y-133627549D01*
X166499507Y-133627548D01*
X166627548Y-133499507D01*
X166627549Y-133499504D01*
X166627553Y-133499501D01*
X166733996Y-133352994D01*
X166816211Y-133191639D01*
X166872171Y-133019409D01*
X166900500Y-132840546D01*
X166900500Y-132659454D01*
X169099500Y-132659454D01*
X169099500Y-132840545D01*
X169127828Y-133019406D01*
X169127829Y-133019409D01*
X169160929Y-133121284D01*
X169183789Y-133191639D01*
X169266004Y-133352994D01*
X169350582Y-133469406D01*
X169372448Y-133499502D01*
X169372452Y-133499507D01*
X169500493Y-133627548D01*
X169500497Y-133627551D01*
X169500499Y-133627553D01*
X169647006Y-133733996D01*
X169808361Y-133816211D01*
X169980591Y-133872171D01*
X170159454Y-133900500D01*
X170159455Y-133900500D01*
X170340545Y-133900500D01*
X170340546Y-133900500D01*
X170519409Y-133872171D01*
X170691639Y-133816211D01*
X170852994Y-133733996D01*
X170999501Y-133627553D01*
X170999504Y-133627549D01*
X170999507Y-133627548D01*
X171127548Y-133499507D01*
X171127549Y-133499504D01*
X171127553Y-133499501D01*
X171233996Y-133352994D01*
X171316211Y-133191639D01*
X171372171Y-133019409D01*
X171400500Y-132840546D01*
X171400500Y-132659454D01*
X171372171Y-132480591D01*
X171316211Y-132308361D01*
X171233996Y-132147006D01*
X171127553Y-132000499D01*
X171127551Y-132000497D01*
X171127548Y-132000493D01*
X170999507Y-131872452D01*
X170999502Y-131872448D01*
X170999501Y-131872447D01*
X170852994Y-131766004D01*
X170691639Y-131683789D01*
X170691638Y-131683788D01*
X170691637Y-131683788D01*
X170519409Y-131627829D01*
X170519406Y-131627828D01*
X170379881Y-131605730D01*
X170340546Y-131599500D01*
X170159454Y-131599500D01*
X170125794Y-131604831D01*
X169980593Y-131627828D01*
X169980590Y-131627829D01*
X169808362Y-131683788D01*
X169647006Y-131766004D01*
X169500497Y-131872448D01*
X169372448Y-132000497D01*
X169266004Y-132147006D01*
X169183788Y-132308362D01*
X169127829Y-132480590D01*
X169127828Y-132480593D01*
X169099500Y-132659454D01*
X166900500Y-132659454D01*
X166872171Y-132480591D01*
X166816211Y-132308361D01*
X166733996Y-132147006D01*
X166627553Y-132000499D01*
X166627551Y-132000497D01*
X166627548Y-132000493D01*
X166499507Y-131872452D01*
X166499502Y-131872448D01*
X166499501Y-131872447D01*
X166352994Y-131766004D01*
X166191639Y-131683789D01*
X166191638Y-131683788D01*
X166191637Y-131683788D01*
X166019409Y-131627829D01*
X166019406Y-131627828D01*
X165879881Y-131605730D01*
X165840546Y-131599500D01*
X165659454Y-131599500D01*
X165625794Y-131604831D01*
X165480593Y-131627828D01*
X165480590Y-131627829D01*
X165308362Y-131683788D01*
X165147006Y-131766004D01*
X165000497Y-131872448D01*
X164872448Y-132000497D01*
X164766004Y-132147006D01*
X164683788Y-132308362D01*
X164627829Y-132480590D01*
X164627828Y-132480593D01*
X164599500Y-132659454D01*
X162402623Y-132659454D01*
X159890817Y-130147648D01*
X163199500Y-130147648D01*
X163199500Y-130352351D01*
X163231522Y-130554531D01*
X163231523Y-130554534D01*
X163294779Y-130749217D01*
X163387714Y-130931612D01*
X163387716Y-130931615D01*
X163508035Y-131097220D01*
X163508039Y-131097225D01*
X163652775Y-131241961D01*
X163652779Y-131241964D01*
X163652781Y-131241966D01*
X163818390Y-131362287D01*
X164000781Y-131455220D01*
X164195466Y-131518477D01*
X164397648Y-131550500D01*
X164397649Y-131550500D01*
X164602351Y-131550500D01*
X164602352Y-131550500D01*
X164804534Y-131518477D01*
X164999219Y-131455220D01*
X165181610Y-131362287D01*
X165347219Y-131241966D01*
X165347222Y-131241962D01*
X165347225Y-131241961D01*
X165491961Y-131097225D01*
X165491962Y-131097222D01*
X165491966Y-131097219D01*
X165612287Y-130931610D01*
X165705220Y-130749219D01*
X165768477Y-130554534D01*
X165800500Y-130352352D01*
X165800500Y-130147648D01*
X170199500Y-130147648D01*
X170199500Y-130352351D01*
X170231522Y-130554531D01*
X170231523Y-130554534D01*
X170294779Y-130749217D01*
X170387714Y-130931612D01*
X170387716Y-130931615D01*
X170508035Y-131097220D01*
X170508039Y-131097225D01*
X170652775Y-131241961D01*
X170652779Y-131241964D01*
X170652781Y-131241966D01*
X170818390Y-131362287D01*
X171000781Y-131455220D01*
X171195466Y-131518477D01*
X171397648Y-131550500D01*
X171397649Y-131550500D01*
X171602351Y-131550500D01*
X171602352Y-131550500D01*
X171804534Y-131518477D01*
X171999219Y-131455220D01*
X172181610Y-131362287D01*
X172347219Y-131241966D01*
X172347222Y-131241962D01*
X172347225Y-131241961D01*
X172491961Y-131097225D01*
X172491962Y-131097222D01*
X172491966Y-131097219D01*
X172612287Y-130931610D01*
X172705220Y-130749219D01*
X172768477Y-130554534D01*
X172800500Y-130352352D01*
X172800500Y-130147648D01*
X172768477Y-129945466D01*
X172705220Y-129750781D01*
X172612287Y-129568390D01*
X172570090Y-129510311D01*
X172544072Y-129474499D01*
X172491966Y-129402781D01*
X172491964Y-129402779D01*
X172491961Y-129402775D01*
X172347225Y-129258039D01*
X172347220Y-129258035D01*
X172181615Y-129137716D01*
X172181612Y-129137714D01*
X171999217Y-129044779D01*
X171804534Y-128981523D01*
X171804531Y-128981522D01*
X171649220Y-128956923D01*
X171602352Y-128949500D01*
X171397648Y-128949500D01*
X171359599Y-128955526D01*
X171195468Y-128981522D01*
X171195465Y-128981523D01*
X171000782Y-129044779D01*
X170818387Y-129137714D01*
X170818384Y-129137716D01*
X170652779Y-129258035D01*
X170508035Y-129402779D01*
X170387716Y-129568384D01*
X170387714Y-129568387D01*
X170294779Y-129750782D01*
X170231523Y-129945465D01*
X170231522Y-129945468D01*
X170199500Y-130147648D01*
X165800500Y-130147648D01*
X165768477Y-129945466D01*
X165705220Y-129750781D01*
X165612287Y-129568390D01*
X165570090Y-129510311D01*
X165544072Y-129474499D01*
X165491966Y-129402781D01*
X165491964Y-129402779D01*
X165491961Y-129402775D01*
X165347225Y-129258039D01*
X165347220Y-129258035D01*
X165181615Y-129137716D01*
X165181612Y-129137714D01*
X164999217Y-129044779D01*
X164804534Y-128981523D01*
X164804531Y-128981522D01*
X164649220Y-128956923D01*
X164602352Y-128949500D01*
X164397648Y-128949500D01*
X164359599Y-128955526D01*
X164195468Y-128981522D01*
X164195465Y-128981523D01*
X164000782Y-129044779D01*
X163818387Y-129137714D01*
X163818384Y-129137716D01*
X163652779Y-129258035D01*
X163508035Y-129402779D01*
X163387716Y-129568384D01*
X163387714Y-129568387D01*
X163294779Y-129750782D01*
X163231523Y-129945465D01*
X163231522Y-129945468D01*
X163199500Y-130147648D01*
X159890817Y-130147648D01*
X159423300Y-129680131D01*
X159423298Y-129680128D01*
X159322665Y-129579495D01*
X159202838Y-129510312D01*
X159202834Y-129510311D01*
X159174591Y-129502743D01*
X159174591Y-129502742D01*
X159069186Y-129474499D01*
X159069183Y-129474499D01*
X158930817Y-129474499D01*
X158927820Y-129474499D01*
X158927804Y-129474500D01*
X151072196Y-129474500D01*
X151072180Y-129474499D01*
X151069183Y-129474499D01*
X150930817Y-129474499D01*
X150930814Y-129474499D01*
X150797166Y-129510310D01*
X150797162Y-129510311D01*
X150677334Y-129579495D01*
X150296683Y-129960148D01*
X150262035Y-129974500D01*
X148987965Y-129974500D01*
X148953317Y-129960148D01*
X146423982Y-127430813D01*
X176224500Y-127430813D01*
X176224500Y-127569186D01*
X176260311Y-127702834D01*
X176260312Y-127702838D01*
X176329495Y-127822665D01*
X176427335Y-127920505D01*
X176439165Y-127927335D01*
X176547161Y-127989687D01*
X176547163Y-127989687D01*
X176547164Y-127989688D01*
X176652571Y-128017931D01*
X176680813Y-128025499D01*
X176680814Y-128025500D01*
X176680817Y-128025500D01*
X176819186Y-128025500D01*
X176819186Y-128025499D01*
X176952836Y-127989688D01*
X177072665Y-127920505D01*
X177170505Y-127822665D01*
X177239688Y-127702836D01*
X177275499Y-127569186D01*
X177275500Y-127569186D01*
X177275500Y-127430814D01*
X177275499Y-127430813D01*
X177239688Y-127297165D01*
X177239687Y-127297161D01*
X177170504Y-127177334D01*
X177072665Y-127079495D01*
X176952838Y-127010312D01*
X176952834Y-127010311D01*
X176819186Y-126974500D01*
X176819183Y-126974500D01*
X176680817Y-126974500D01*
X176680814Y-126974500D01*
X176547165Y-127010311D01*
X176547161Y-127010312D01*
X176427334Y-127079495D01*
X176427334Y-127079496D01*
X176329496Y-127177334D01*
X176329495Y-127177334D01*
X176260312Y-127297161D01*
X176260311Y-127297165D01*
X176224500Y-127430813D01*
X146423982Y-127430813D01*
X145673982Y-126680813D01*
X183724500Y-126680813D01*
X183724500Y-126819186D01*
X183760311Y-126952834D01*
X183760312Y-126952838D01*
X183829495Y-127072665D01*
X183927335Y-127170505D01*
X183939165Y-127177335D01*
X184047161Y-127239687D01*
X184047163Y-127239687D01*
X184047164Y-127239688D01*
X184152571Y-127267931D01*
X184180813Y-127275499D01*
X184180814Y-127275500D01*
X184180817Y-127275500D01*
X184319186Y-127275500D01*
X184319186Y-127275499D01*
X184452836Y-127239688D01*
X184572665Y-127170505D01*
X184670505Y-127072665D01*
X184739688Y-126952836D01*
X184775499Y-126819186D01*
X184775500Y-126819186D01*
X184775500Y-126680814D01*
X184775499Y-126680813D01*
X184739688Y-126547165D01*
X184739687Y-126547161D01*
X184670504Y-126427334D01*
X184572665Y-126329495D01*
X184452838Y-126260312D01*
X184452834Y-126260311D01*
X184319186Y-126224500D01*
X184319183Y-126224500D01*
X184180817Y-126224500D01*
X184180814Y-126224500D01*
X184047165Y-126260311D01*
X184047161Y-126260312D01*
X183927334Y-126329495D01*
X183927334Y-126329496D01*
X183829496Y-126427334D01*
X183829495Y-126427334D01*
X183760312Y-126547161D01*
X183760311Y-126547165D01*
X183724500Y-126680813D01*
X145673982Y-126680813D01*
X142638303Y-123645134D01*
X152849500Y-123645134D01*
X152849500Y-125434858D01*
X152849501Y-125434868D01*
X152852415Y-125459992D01*
X152897794Y-125562766D01*
X152977233Y-125642205D01*
X153080006Y-125687584D01*
X153080009Y-125687585D01*
X153105135Y-125690500D01*
X154894864Y-125690499D01*
X154919991Y-125687585D01*
X155022765Y-125642206D01*
X155102206Y-125562765D01*
X155147585Y-125459991D01*
X155150500Y-125434865D01*
X155150500Y-125230813D01*
X198074500Y-125230813D01*
X198074500Y-125369186D01*
X198110311Y-125502834D01*
X198110312Y-125502838D01*
X198144912Y-125562766D01*
X198179495Y-125622665D01*
X198277335Y-125720505D01*
X198321194Y-125745827D01*
X198397161Y-125789687D01*
X198397163Y-125789687D01*
X198397164Y-125789688D01*
X198502571Y-125817931D01*
X198530813Y-125825499D01*
X198530814Y-125825500D01*
X198530817Y-125825500D01*
X198669186Y-125825500D01*
X198669186Y-125825499D01*
X198802836Y-125789688D01*
X198922665Y-125720505D01*
X199020505Y-125622665D01*
X199089688Y-125502836D01*
X199125499Y-125369186D01*
X199125500Y-125369186D01*
X199125500Y-125230814D01*
X199125499Y-125230813D01*
X199089688Y-125097165D01*
X199089687Y-125097161D01*
X199020504Y-124977334D01*
X198922665Y-124879495D01*
X198802838Y-124810312D01*
X198802834Y-124810311D01*
X198669186Y-124774500D01*
X198669183Y-124774500D01*
X198530817Y-124774500D01*
X198530814Y-124774500D01*
X198397165Y-124810311D01*
X198397161Y-124810312D01*
X198277334Y-124879495D01*
X198277334Y-124879496D01*
X198179496Y-124977334D01*
X198179495Y-124977334D01*
X198110312Y-125097161D01*
X198110311Y-125097165D01*
X198074500Y-125230813D01*
X155150500Y-125230813D01*
X155150499Y-124327259D01*
X157978054Y-124327259D01*
X157978054Y-124465632D01*
X158013865Y-124599280D01*
X158013866Y-124599284D01*
X158054986Y-124670505D01*
X158083049Y-124719111D01*
X158180889Y-124816951D01*
X158224748Y-124842273D01*
X158300715Y-124886133D01*
X158300717Y-124886133D01*
X158300718Y-124886134D01*
X158406125Y-124914377D01*
X158434367Y-124921945D01*
X158434368Y-124921946D01*
X158434371Y-124921946D01*
X158572740Y-124921946D01*
X158572740Y-124921945D01*
X158706390Y-124886134D01*
X158826219Y-124816951D01*
X158924059Y-124719111D01*
X158993242Y-124599282D01*
X159029053Y-124465632D01*
X159029054Y-124465632D01*
X159029054Y-124327260D01*
X159029053Y-124327259D01*
X158993242Y-124193611D01*
X158993241Y-124193607D01*
X158924058Y-124073780D01*
X158826219Y-123975941D01*
X158706392Y-123906758D01*
X158706388Y-123906757D01*
X158572740Y-123870946D01*
X158572737Y-123870946D01*
X158434371Y-123870946D01*
X158434368Y-123870946D01*
X158300719Y-123906757D01*
X158300715Y-123906758D01*
X158180888Y-123975941D01*
X158180888Y-123975942D01*
X158083050Y-124073780D01*
X158083049Y-124073780D01*
X158013866Y-124193607D01*
X158013865Y-124193611D01*
X157978054Y-124327259D01*
X155150499Y-124327259D01*
X155150499Y-123730813D01*
X156674500Y-123730813D01*
X156674500Y-123869186D01*
X156710311Y-124002834D01*
X156710312Y-124002838D01*
X156779495Y-124122665D01*
X156877335Y-124220505D01*
X156921194Y-124245827D01*
X156997161Y-124289687D01*
X156997163Y-124289687D01*
X156997164Y-124289688D01*
X157102571Y-124317931D01*
X157130813Y-124325499D01*
X157130814Y-124325500D01*
X157130817Y-124325500D01*
X157269186Y-124325500D01*
X157269186Y-124325499D01*
X157402836Y-124289688D01*
X157402838Y-124289687D01*
X157416818Y-124281616D01*
X157450944Y-124261912D01*
X157522665Y-124220505D01*
X157620505Y-124122665D01*
X157689688Y-124002836D01*
X157725499Y-123869186D01*
X157725500Y-123869186D01*
X157725500Y-123730814D01*
X157725499Y-123730813D01*
X157709340Y-123670506D01*
X157689688Y-123597164D01*
X157651380Y-123530813D01*
X169674500Y-123530813D01*
X169674500Y-123669186D01*
X169710311Y-123802834D01*
X169710312Y-123802838D01*
X169770311Y-123906758D01*
X169779495Y-123922665D01*
X169877335Y-124020505D01*
X169921194Y-124045827D01*
X169997161Y-124089687D01*
X169997163Y-124089687D01*
X169997164Y-124089688D01*
X170102571Y-124117931D01*
X170130813Y-124125499D01*
X170130814Y-124125500D01*
X170130817Y-124125500D01*
X170269186Y-124125500D01*
X170269186Y-124125499D01*
X170402836Y-124089688D01*
X170522665Y-124020505D01*
X170620505Y-123922665D01*
X170689688Y-123802836D01*
X170725499Y-123669186D01*
X170725500Y-123669186D01*
X170725500Y-123530814D01*
X170725499Y-123530813D01*
X170689688Y-123397165D01*
X170689687Y-123397161D01*
X170620504Y-123277334D01*
X170522665Y-123179495D01*
X170402838Y-123110312D01*
X170402834Y-123110311D01*
X170269186Y-123074500D01*
X170269183Y-123074500D01*
X170130817Y-123074500D01*
X170130814Y-123074500D01*
X169997165Y-123110311D01*
X169997161Y-123110312D01*
X169877334Y-123179495D01*
X169877334Y-123179496D01*
X169779496Y-123277334D01*
X169779495Y-123277334D01*
X169710312Y-123397161D01*
X169710311Y-123397165D01*
X169674500Y-123530813D01*
X157651380Y-123530813D01*
X157620505Y-123477335D01*
X157522665Y-123379495D01*
X157402838Y-123310312D01*
X157402834Y-123310311D01*
X157269186Y-123274500D01*
X157269183Y-123274500D01*
X157130817Y-123274500D01*
X157130814Y-123274500D01*
X156997165Y-123310311D01*
X156997161Y-123310312D01*
X156877334Y-123379495D01*
X156877334Y-123379496D01*
X156779496Y-123477334D01*
X156779495Y-123477334D01*
X156710312Y-123597161D01*
X156710311Y-123597165D01*
X156674500Y-123730813D01*
X155150499Y-123730813D01*
X155150499Y-123645136D01*
X155147585Y-123620009D01*
X155102206Y-123517235D01*
X155102205Y-123517234D01*
X155102205Y-123517233D01*
X155022766Y-123437794D01*
X155022767Y-123437794D01*
X154919993Y-123392415D01*
X154907428Y-123390957D01*
X154894865Y-123389500D01*
X154894863Y-123389500D01*
X153105141Y-123389500D01*
X153105131Y-123389501D01*
X153080007Y-123392415D01*
X152977233Y-123437794D01*
X152897794Y-123517233D01*
X152852415Y-123620006D01*
X152849500Y-123645134D01*
X142638303Y-123645134D01*
X141923300Y-122930131D01*
X141923298Y-122930128D01*
X141822665Y-122829495D01*
X141702838Y-122760312D01*
X141702835Y-122760311D01*
X141661455Y-122749224D01*
X141569185Y-122724499D01*
X141569183Y-122724499D01*
X141430817Y-122724499D01*
X141430815Y-122724499D01*
X141338545Y-122749224D01*
X141338544Y-122749224D01*
X141297165Y-122760311D01*
X141297161Y-122760312D01*
X141177334Y-122829495D01*
X141177334Y-122829496D01*
X141079496Y-122927334D01*
X141079495Y-122927334D01*
X141010312Y-123047162D01*
X141008643Y-123053394D01*
X141008642Y-123053398D01*
X140974499Y-123180815D01*
X132415300Y-123180815D01*
X132415300Y-122530813D01*
X137274500Y-122530813D01*
X137274500Y-122669186D01*
X137310311Y-122802834D01*
X137310312Y-122802838D01*
X137351603Y-122874355D01*
X137379495Y-122922665D01*
X137477335Y-123020505D01*
X137521194Y-123045827D01*
X137597161Y-123089687D01*
X137597163Y-123089687D01*
X137597164Y-123089688D01*
X137702571Y-123117931D01*
X137730813Y-123125499D01*
X137730814Y-123125500D01*
X137730817Y-123125500D01*
X137869186Y-123125500D01*
X137869186Y-123125499D01*
X138002836Y-123089688D01*
X138122665Y-123020505D01*
X138220505Y-122922665D01*
X138274296Y-122829496D01*
X138289687Y-122802838D01*
X138289687Y-122802837D01*
X138289688Y-122802836D01*
X138325499Y-122669186D01*
X138325500Y-122669186D01*
X138325500Y-122530814D01*
X138325499Y-122530813D01*
X138289688Y-122397165D01*
X138289687Y-122397161D01*
X138220504Y-122277334D01*
X138122665Y-122179495D01*
X138002838Y-122110312D01*
X138002834Y-122110311D01*
X137869186Y-122074500D01*
X137869183Y-122074500D01*
X137730817Y-122074500D01*
X137730814Y-122074500D01*
X137597165Y-122110311D01*
X137597161Y-122110312D01*
X137477334Y-122179495D01*
X137477334Y-122179496D01*
X137379496Y-122277334D01*
X137379495Y-122277334D01*
X137310312Y-122397161D01*
X137310311Y-122397165D01*
X137274500Y-122530813D01*
X132415300Y-122530813D01*
X132415300Y-121530813D01*
X163074500Y-121530813D01*
X163074500Y-121669186D01*
X163110311Y-121802834D01*
X163110312Y-121802838D01*
X163179495Y-121922665D01*
X163277335Y-122020505D01*
X163321194Y-122045827D01*
X163397161Y-122089687D01*
X163397163Y-122089687D01*
X163397164Y-122089688D01*
X163502571Y-122117931D01*
X163530813Y-122125499D01*
X163530814Y-122125500D01*
X163530817Y-122125500D01*
X163669186Y-122125500D01*
X163669186Y-122125499D01*
X163802836Y-122089688D01*
X163922665Y-122020505D01*
X163949857Y-121993313D01*
X168237000Y-121993313D01*
X168237000Y-122131686D01*
X168272811Y-122265334D01*
X168272812Y-122265338D01*
X168305911Y-122322666D01*
X168341995Y-122385165D01*
X168439835Y-122483005D01*
X168483694Y-122508327D01*
X168559661Y-122552187D01*
X168559663Y-122552187D01*
X168559664Y-122552188D01*
X168665071Y-122580431D01*
X168693313Y-122587999D01*
X168693314Y-122588000D01*
X168693317Y-122588000D01*
X168831686Y-122588000D01*
X168831686Y-122587999D01*
X168965336Y-122552188D01*
X169085165Y-122483005D01*
X169183005Y-122385165D01*
X169252188Y-122265336D01*
X169287999Y-122131686D01*
X169288000Y-122131686D01*
X169288000Y-121993314D01*
X169287999Y-121993313D01*
X169252188Y-121859665D01*
X169252187Y-121859661D01*
X169183004Y-121739834D01*
X169085165Y-121641995D01*
X168965338Y-121572812D01*
X168965334Y-121572811D01*
X168831686Y-121537000D01*
X168831683Y-121537000D01*
X168693317Y-121537000D01*
X168693314Y-121537000D01*
X168559665Y-121572811D01*
X168559661Y-121572812D01*
X168439834Y-121641995D01*
X168439834Y-121641996D01*
X168341996Y-121739834D01*
X168341995Y-121739834D01*
X168272812Y-121859661D01*
X168272811Y-121859665D01*
X168237000Y-121993313D01*
X163949857Y-121993313D01*
X164020505Y-121922665D01*
X164089688Y-121802836D01*
X164125499Y-121669186D01*
X164125500Y-121669186D01*
X164125500Y-121530814D01*
X164125499Y-121530813D01*
X164089688Y-121397165D01*
X164089687Y-121397161D01*
X164020504Y-121277334D01*
X163922665Y-121179495D01*
X163829389Y-121125642D01*
X163802838Y-121110312D01*
X163802834Y-121110311D01*
X163706958Y-121084621D01*
X184710100Y-121084621D01*
X184710100Y-122874345D01*
X184710101Y-122874355D01*
X184713015Y-122899479D01*
X184758394Y-123002253D01*
X184837833Y-123081692D01*
X184940606Y-123127071D01*
X184940609Y-123127072D01*
X184965735Y-123129987D01*
X186755464Y-123129986D01*
X186780591Y-123127072D01*
X186883365Y-123081693D01*
X186962806Y-123002252D01*
X187008185Y-122899478D01*
X187011100Y-122874352D01*
X187011099Y-121930813D01*
X203224500Y-121930813D01*
X203224500Y-122069186D01*
X203260311Y-122202834D01*
X203260312Y-122202838D01*
X203329495Y-122322665D01*
X203427335Y-122420505D01*
X203471194Y-122445827D01*
X203547161Y-122489687D01*
X203547163Y-122489687D01*
X203547164Y-122489688D01*
X203652571Y-122517931D01*
X203680813Y-122525499D01*
X203680814Y-122525500D01*
X203680817Y-122525500D01*
X203819186Y-122525500D01*
X203819186Y-122525499D01*
X203952836Y-122489688D01*
X204072665Y-122420505D01*
X204170505Y-122322665D01*
X204239688Y-122202836D01*
X204275499Y-122069186D01*
X204275500Y-122069186D01*
X204275500Y-121930814D01*
X204275499Y-121930813D01*
X204239688Y-121797165D01*
X204239687Y-121797161D01*
X204170504Y-121677334D01*
X204072665Y-121579495D01*
X203952838Y-121510312D01*
X203952834Y-121510311D01*
X203819186Y-121474500D01*
X203819183Y-121474500D01*
X203680817Y-121474500D01*
X203680814Y-121474500D01*
X203547165Y-121510311D01*
X203547161Y-121510312D01*
X203427334Y-121579495D01*
X203427334Y-121579496D01*
X203329496Y-121677334D01*
X203329495Y-121677334D01*
X203260312Y-121797161D01*
X203260311Y-121797165D01*
X203224500Y-121930813D01*
X187011099Y-121930813D01*
X187011099Y-121084623D01*
X187008185Y-121059496D01*
X186962806Y-120956722D01*
X186962805Y-120956721D01*
X186962805Y-120956720D01*
X186883366Y-120877281D01*
X186883367Y-120877281D01*
X186780593Y-120831902D01*
X186768028Y-120830444D01*
X186755465Y-120828987D01*
X186755463Y-120828987D01*
X184965741Y-120828987D01*
X184965731Y-120828988D01*
X184940607Y-120831902D01*
X184837833Y-120877281D01*
X184758394Y-120956720D01*
X184713015Y-121059493D01*
X184710100Y-121084621D01*
X163706958Y-121084621D01*
X163669186Y-121074500D01*
X163669183Y-121074500D01*
X163530817Y-121074500D01*
X163530814Y-121074500D01*
X163397165Y-121110311D01*
X163397161Y-121110312D01*
X163277334Y-121179495D01*
X163277334Y-121179496D01*
X163179496Y-121277334D01*
X163179495Y-121277334D01*
X163110312Y-121397161D01*
X163110311Y-121397165D01*
X163074500Y-121530813D01*
X132415300Y-121530813D01*
X132415300Y-119568502D01*
X147099500Y-119568502D01*
X147099500Y-119741724D01*
X147105554Y-119779945D01*
X147126597Y-119912811D01*
X147126598Y-119912814D01*
X147180127Y-120077559D01*
X147258764Y-120231895D01*
X147258767Y-120231899D01*
X147258768Y-120231901D01*
X147360586Y-120372041D01*
X147360588Y-120372043D01*
X147360591Y-120372047D01*
X147483065Y-120494521D01*
X147483068Y-120494523D01*
X147483072Y-120494527D01*
X147623212Y-120596345D01*
X147623214Y-120596346D01*
X147623217Y-120596348D01*
X147680430Y-120625499D01*
X147777555Y-120674986D01*
X147942299Y-120728515D01*
X148113389Y-120755613D01*
X148113390Y-120755613D01*
X148286610Y-120755613D01*
X148286611Y-120755613D01*
X148457701Y-120728515D01*
X148622445Y-120674986D01*
X148776788Y-120596345D01*
X148916928Y-120494527D01*
X149039414Y-120372041D01*
X149141232Y-120231901D01*
X149219873Y-120077558D01*
X149273402Y-119912814D01*
X149300500Y-119741724D01*
X149300500Y-119568502D01*
X149273402Y-119397412D01*
X149273401Y-119397409D01*
X149273400Y-119397403D01*
X149268613Y-119382672D01*
X149268612Y-119382671D01*
X149264318Y-119369454D01*
X152849500Y-119369454D01*
X152849500Y-119550545D01*
X152877828Y-119729406D01*
X152877829Y-119729409D01*
X152893400Y-119777334D01*
X152933789Y-119901639D01*
X153016004Y-120062994D01*
X153093157Y-120169186D01*
X153122448Y-120209502D01*
X153122452Y-120209507D01*
X153250493Y-120337548D01*
X153250497Y-120337551D01*
X153250499Y-120337553D01*
X153397006Y-120443996D01*
X153558361Y-120526211D01*
X153730591Y-120582171D01*
X153909454Y-120610500D01*
X153909455Y-120610500D01*
X154090545Y-120610500D01*
X154090546Y-120610500D01*
X154269409Y-120582171D01*
X154441639Y-120526211D01*
X154602994Y-120443996D01*
X154749501Y-120337553D01*
X154749504Y-120337549D01*
X154749507Y-120337548D01*
X154877548Y-120209507D01*
X154877549Y-120209504D01*
X154877553Y-120209501D01*
X154934723Y-120130813D01*
X169574500Y-120130813D01*
X169574500Y-120269186D01*
X169610311Y-120402834D01*
X169610312Y-120402838D01*
X169678247Y-120520504D01*
X169679495Y-120522665D01*
X169777335Y-120620505D01*
X169785985Y-120625499D01*
X169897161Y-120689687D01*
X169897163Y-120689687D01*
X169897164Y-120689688D01*
X170002571Y-120717931D01*
X170030813Y-120725499D01*
X170030814Y-120725500D01*
X170030817Y-120725500D01*
X170169186Y-120725500D01*
X170169186Y-120725499D01*
X170302836Y-120689688D01*
X170422665Y-120620505D01*
X170520505Y-120522665D01*
X170589688Y-120402836D01*
X170625499Y-120269186D01*
X170625500Y-120269186D01*
X170625500Y-120130814D01*
X170625499Y-120130813D01*
X170601243Y-120040287D01*
X170598704Y-120030813D01*
X172174500Y-120030813D01*
X172174500Y-120169186D01*
X172210311Y-120302834D01*
X172210312Y-120302838D01*
X172268047Y-120402836D01*
X172279495Y-120422665D01*
X172377335Y-120520505D01*
X172421194Y-120545827D01*
X172497161Y-120589687D01*
X172497163Y-120589687D01*
X172497164Y-120589688D01*
X172522020Y-120596348D01*
X172630813Y-120625499D01*
X172630814Y-120625500D01*
X172630817Y-120625500D01*
X172769186Y-120625500D01*
X172769186Y-120625499D01*
X172902836Y-120589688D01*
X173022665Y-120520505D01*
X173120505Y-120422665D01*
X173189688Y-120302836D01*
X173225499Y-120169186D01*
X173225500Y-120169186D01*
X173225500Y-120030814D01*
X173225499Y-120030813D01*
X173193881Y-119912814D01*
X173189688Y-119897164D01*
X173189687Y-119897163D01*
X173189687Y-119897161D01*
X173133879Y-119800500D01*
X173120505Y-119777335D01*
X173022665Y-119679495D01*
X172902838Y-119610312D01*
X172902834Y-119610311D01*
X172769186Y-119574500D01*
X172769183Y-119574500D01*
X172630817Y-119574500D01*
X172630814Y-119574500D01*
X172497165Y-119610311D01*
X172497161Y-119610312D01*
X172377334Y-119679495D01*
X172377334Y-119679496D01*
X172279496Y-119777334D01*
X172279495Y-119777334D01*
X172210312Y-119897161D01*
X172210311Y-119897165D01*
X172174500Y-120030813D01*
X170598704Y-120030813D01*
X170589688Y-119997165D01*
X170589687Y-119997161D01*
X170520504Y-119877334D01*
X170422665Y-119779495D01*
X170302838Y-119710312D01*
X170302834Y-119710311D01*
X170169186Y-119674500D01*
X170169183Y-119674500D01*
X170030817Y-119674500D01*
X170030814Y-119674500D01*
X169897165Y-119710311D01*
X169897161Y-119710312D01*
X169777334Y-119779495D01*
X169777334Y-119779496D01*
X169679496Y-119877334D01*
X169679495Y-119877334D01*
X169610312Y-119997161D01*
X169610311Y-119997165D01*
X169574500Y-120130813D01*
X154934723Y-120130813D01*
X154983996Y-120062994D01*
X155066211Y-119901639D01*
X155122171Y-119729409D01*
X155150500Y-119550546D01*
X155150500Y-119369454D01*
X155122171Y-119190591D01*
X155066211Y-119018361D01*
X154983996Y-118857006D01*
X154877553Y-118710499D01*
X154877551Y-118710497D01*
X154877548Y-118710493D01*
X154749507Y-118582452D01*
X154749502Y-118582448D01*
X154748488Y-118581711D01*
X154602994Y-118476004D01*
X154441639Y-118393789D01*
X154441638Y-118393788D01*
X154441637Y-118393788D01*
X154269409Y-118337829D01*
X154269406Y-118337828D01*
X154132007Y-118316066D01*
X154090546Y-118309500D01*
X153909454Y-118309500D01*
X153875794Y-118314831D01*
X153730593Y-118337828D01*
X153730590Y-118337829D01*
X153558362Y-118393788D01*
X153397006Y-118476004D01*
X153250497Y-118582448D01*
X153122448Y-118710497D01*
X153016004Y-118857006D01*
X152933788Y-119018362D01*
X152877829Y-119190590D01*
X152877828Y-119190593D01*
X152849500Y-119369454D01*
X149264318Y-119369454D01*
X149219873Y-119232668D01*
X149203205Y-119199954D01*
X149141235Y-119078330D01*
X149141233Y-119078327D01*
X149141232Y-119078325D01*
X149039414Y-118938185D01*
X149039410Y-118938181D01*
X149039408Y-118938178D01*
X148916934Y-118815704D01*
X148916935Y-118815704D01*
X148776782Y-118713877D01*
X148622446Y-118635240D01*
X148457701Y-118581711D01*
X148457698Y-118581710D01*
X148326271Y-118560894D01*
X148286611Y-118554613D01*
X148113389Y-118554613D01*
X148081192Y-118559712D01*
X147942301Y-118581710D01*
X147942298Y-118581711D01*
X147777553Y-118635240D01*
X147623217Y-118713877D01*
X147483065Y-118815704D01*
X147360591Y-118938178D01*
X147258764Y-119078330D01*
X147180127Y-119232666D01*
X147126598Y-119397411D01*
X147126597Y-119397414D01*
X147108682Y-119510528D01*
X147099500Y-119568502D01*
X132415300Y-119568502D01*
X132415300Y-117680813D01*
X134974500Y-117680813D01*
X134974500Y-117819186D01*
X135010311Y-117952834D01*
X135010312Y-117952838D01*
X135050046Y-118021658D01*
X135079495Y-118072665D01*
X135177335Y-118170505D01*
X135221194Y-118195827D01*
X135297161Y-118239687D01*
X135297163Y-118239687D01*
X135297164Y-118239688D01*
X135402571Y-118267931D01*
X135430813Y-118275499D01*
X135430814Y-118275500D01*
X135430817Y-118275500D01*
X135569186Y-118275500D01*
X135569186Y-118275499D01*
X135702836Y-118239688D01*
X135822665Y-118170505D01*
X135824668Y-118168502D01*
X179299500Y-118168502D01*
X179299500Y-118341723D01*
X179326597Y-118512811D01*
X179326598Y-118512814D01*
X179380127Y-118677559D01*
X179458764Y-118831895D01*
X179458767Y-118831899D01*
X179458768Y-118831901D01*
X179560586Y-118972041D01*
X179560588Y-118972043D01*
X179560591Y-118972047D01*
X179683065Y-119094521D01*
X179683068Y-119094523D01*
X179683072Y-119094527D01*
X179823212Y-119196345D01*
X179823214Y-119196346D01*
X179823217Y-119196348D01*
X179977553Y-119274985D01*
X179977555Y-119274986D01*
X180142299Y-119328515D01*
X180313389Y-119355613D01*
X180313390Y-119355613D01*
X180486610Y-119355613D01*
X180486611Y-119355613D01*
X180657701Y-119328515D01*
X180822445Y-119274986D01*
X180976788Y-119196345D01*
X181116928Y-119094527D01*
X181239414Y-118972041D01*
X181341232Y-118831901D01*
X181419873Y-118677558D01*
X181473402Y-118512814D01*
X181500500Y-118341724D01*
X181500500Y-118168502D01*
X181473402Y-117997412D01*
X181419873Y-117832668D01*
X181397973Y-117789687D01*
X181341235Y-117678330D01*
X181341233Y-117678327D01*
X181341232Y-117678325D01*
X181239414Y-117538185D01*
X181239410Y-117538181D01*
X181239408Y-117538178D01*
X181116934Y-117415704D01*
X181116935Y-117415704D01*
X181089912Y-117396071D01*
X180976788Y-117313881D01*
X180976786Y-117313880D01*
X180976782Y-117313877D01*
X180822446Y-117235240D01*
X180657701Y-117181711D01*
X180657698Y-117181710D01*
X180526271Y-117160894D01*
X180486611Y-117154613D01*
X180313389Y-117154613D01*
X180281192Y-117159712D01*
X180142301Y-117181710D01*
X180142298Y-117181711D01*
X179977553Y-117235240D01*
X179823217Y-117313877D01*
X179683065Y-117415704D01*
X179560591Y-117538178D01*
X179458764Y-117678330D01*
X179380127Y-117832666D01*
X179326598Y-117997411D01*
X179326597Y-117997414D01*
X179299500Y-118168502D01*
X135824668Y-118168502D01*
X135920505Y-118072665D01*
X135989688Y-117952836D01*
X136025499Y-117819186D01*
X136025500Y-117819186D01*
X136025500Y-117680814D01*
X136025499Y-117680813D01*
X135989688Y-117547165D01*
X135989687Y-117547161D01*
X135922195Y-117430262D01*
X135920505Y-117427335D01*
X135822665Y-117329495D01*
X135795614Y-117313877D01*
X135702838Y-117260312D01*
X135702834Y-117260311D01*
X135569186Y-117224500D01*
X135569183Y-117224500D01*
X135430817Y-117224500D01*
X135430814Y-117224500D01*
X135297165Y-117260311D01*
X135297161Y-117260312D01*
X135177334Y-117329495D01*
X135177334Y-117329496D01*
X135079496Y-117427334D01*
X135079495Y-117427334D01*
X135010312Y-117547161D01*
X135010311Y-117547165D01*
X134974500Y-117680813D01*
X132415300Y-117680813D01*
X132415300Y-112867634D01*
X134887000Y-112867634D01*
X134887000Y-114957358D01*
X134887001Y-114957368D01*
X134889915Y-114982492D01*
X134935294Y-115085266D01*
X135014733Y-115164705D01*
X135117506Y-115210084D01*
X135117509Y-115210085D01*
X135142635Y-115213000D01*
X137232364Y-115212999D01*
X137257491Y-115210085D01*
X137360265Y-115164706D01*
X137439706Y-115085265D01*
X137485085Y-114982491D01*
X137488000Y-114957365D01*
X137487999Y-112867636D01*
X137487999Y-112867634D01*
X148887000Y-112867634D01*
X148887000Y-114957358D01*
X148887001Y-114957368D01*
X148889915Y-114982492D01*
X148935294Y-115085266D01*
X149014733Y-115164705D01*
X149117506Y-115210084D01*
X149117509Y-115210085D01*
X149142635Y-115213000D01*
X151232364Y-115212999D01*
X151257491Y-115210085D01*
X151360265Y-115164706D01*
X151439706Y-115085265D01*
X151485085Y-114982491D01*
X151488000Y-114957365D01*
X151487999Y-112867636D01*
X151485085Y-112842509D01*
X151439706Y-112739735D01*
X151439705Y-112739734D01*
X151439705Y-112739733D01*
X151360266Y-112660294D01*
X151360267Y-112660294D01*
X151257493Y-112614915D01*
X151244928Y-112613457D01*
X151232365Y-112612000D01*
X151232363Y-112612000D01*
X149142641Y-112612000D01*
X149142631Y-112612001D01*
X149117507Y-112614915D01*
X149014733Y-112660294D01*
X148935294Y-112739733D01*
X148889915Y-112842506D01*
X148887000Y-112867634D01*
X137487999Y-112867634D01*
X137485085Y-112842509D01*
X137439706Y-112739735D01*
X137439705Y-112739734D01*
X137439705Y-112739733D01*
X137360266Y-112660294D01*
X137360267Y-112660294D01*
X137257493Y-112614915D01*
X137244928Y-112613457D01*
X137232365Y-112612000D01*
X137232363Y-112612000D01*
X135142641Y-112612000D01*
X135142631Y-112612001D01*
X135117507Y-112614915D01*
X135014733Y-112660294D01*
X134935294Y-112739733D01*
X134889915Y-112842506D01*
X134887000Y-112867634D01*
X132415300Y-112867634D01*
X132415300Y-108230813D01*
X168874500Y-108230813D01*
X168874500Y-108369186D01*
X168910311Y-108502834D01*
X168910312Y-108502838D01*
X168979495Y-108622665D01*
X169077335Y-108720505D01*
X169121194Y-108745827D01*
X169197161Y-108789687D01*
X169197163Y-108789687D01*
X169197164Y-108789688D01*
X169302571Y-108817931D01*
X169330813Y-108825499D01*
X169330814Y-108825500D01*
X169330817Y-108825500D01*
X169469186Y-108825500D01*
X169469186Y-108825499D01*
X169602836Y-108789688D01*
X169722665Y-108720505D01*
X169820505Y-108622665D01*
X169889688Y-108502836D01*
X169925499Y-108369186D01*
X169925500Y-108369186D01*
X169925500Y-108230814D01*
X169925499Y-108230813D01*
X169889688Y-108097165D01*
X169889687Y-108097161D01*
X169820504Y-107977334D01*
X169722665Y-107879495D01*
X169602838Y-107810312D01*
X169602834Y-107810311D01*
X169469186Y-107774500D01*
X169469183Y-107774500D01*
X169330817Y-107774500D01*
X169330814Y-107774500D01*
X169197165Y-107810311D01*
X169197161Y-107810312D01*
X169077334Y-107879495D01*
X169077334Y-107879496D01*
X168979496Y-107977334D01*
X168979495Y-107977334D01*
X168910312Y-108097161D01*
X168910311Y-108097165D01*
X168874500Y-108230813D01*
X132415300Y-108230813D01*
X132415300Y-103821152D01*
X153299500Y-103821152D01*
X153299500Y-103978847D01*
X153330260Y-104133487D01*
X153330263Y-104133498D01*
X153389842Y-104277335D01*
X153390606Y-104279179D01*
X153478211Y-104410289D01*
X153589711Y-104521789D01*
X153720821Y-104609394D01*
X153866503Y-104669737D01*
X153866509Y-104669738D01*
X153866512Y-104669739D01*
X154021152Y-104700499D01*
X154021158Y-104700500D01*
X154178842Y-104700500D01*
X154333497Y-104669737D01*
X154479179Y-104609394D01*
X154610289Y-104521789D01*
X154654112Y-104477966D01*
X162368807Y-104477966D01*
X162368807Y-104616339D01*
X162404618Y-104749987D01*
X162404619Y-104749991D01*
X162435131Y-104802838D01*
X162473802Y-104869818D01*
X162571642Y-104967658D01*
X162615501Y-104992980D01*
X162691468Y-105036840D01*
X162691470Y-105036840D01*
X162691471Y-105036841D01*
X162796878Y-105065084D01*
X162825120Y-105072652D01*
X162825121Y-105072653D01*
X162825124Y-105072653D01*
X162963493Y-105072653D01*
X162963493Y-105072652D01*
X163097143Y-105036841D01*
X163140161Y-105012005D01*
X163153648Y-105004218D01*
X163178148Y-104997653D01*
X168896687Y-104997653D01*
X168931335Y-105012005D01*
X168939835Y-105020505D01*
X168968128Y-105036840D01*
X169059661Y-105089687D01*
X169059663Y-105089687D01*
X169059664Y-105089688D01*
X169165071Y-105117931D01*
X169193313Y-105125499D01*
X169193314Y-105125500D01*
X169193317Y-105125500D01*
X169331686Y-105125500D01*
X169331686Y-105125499D01*
X169465336Y-105089688D01*
X169585165Y-105020505D01*
X169683005Y-104922665D01*
X169752188Y-104802836D01*
X169787999Y-104669186D01*
X169788000Y-104669186D01*
X169788000Y-104530814D01*
X169787999Y-104530813D01*
X169755705Y-104410289D01*
X169752188Y-104397164D01*
X169752187Y-104397163D01*
X169752187Y-104397161D01*
X169708327Y-104321194D01*
X169683005Y-104277335D01*
X169585165Y-104179495D01*
X169465338Y-104110312D01*
X169465334Y-104110311D01*
X169331686Y-104074500D01*
X169331683Y-104074500D01*
X169193317Y-104074500D01*
X169193314Y-104074500D01*
X169116872Y-104094983D01*
X169104190Y-104096653D01*
X163178148Y-104096653D01*
X163153648Y-104090088D01*
X163097145Y-104057465D01*
X163097141Y-104057464D01*
X162963493Y-104021653D01*
X162963490Y-104021653D01*
X162825124Y-104021653D01*
X162825121Y-104021653D01*
X162691472Y-104057464D01*
X162691468Y-104057465D01*
X162571641Y-104126648D01*
X162571641Y-104126649D01*
X162473803Y-104224487D01*
X162473802Y-104224487D01*
X162404619Y-104344314D01*
X162404618Y-104344318D01*
X162368807Y-104477966D01*
X154654112Y-104477966D01*
X154721789Y-104410289D01*
X154809394Y-104279179D01*
X154869737Y-104133497D01*
X154900500Y-103978842D01*
X154900500Y-103821158D01*
X154869737Y-103666503D01*
X154809394Y-103520821D01*
X154721789Y-103389711D01*
X154610289Y-103278211D01*
X154479179Y-103190606D01*
X154479176Y-103190604D01*
X154479175Y-103190604D01*
X154333498Y-103130263D01*
X154333487Y-103130260D01*
X154178847Y-103099500D01*
X154178842Y-103099500D01*
X154021158Y-103099500D01*
X154021152Y-103099500D01*
X153866512Y-103130260D01*
X153866501Y-103130263D01*
X153720824Y-103190604D01*
X153589711Y-103278210D01*
X153478210Y-103389711D01*
X153390604Y-103520824D01*
X153330263Y-103666501D01*
X153330260Y-103666512D01*
X153299500Y-103821152D01*
X132415300Y-103821152D01*
X132415300Y-102292953D01*
X160855570Y-102292953D01*
X160855570Y-102431326D01*
X160891381Y-102564974D01*
X160891382Y-102564978D01*
X160960565Y-102684805D01*
X161058405Y-102782645D01*
X161099722Y-102806499D01*
X161178231Y-102851827D01*
X161178233Y-102851827D01*
X161178234Y-102851828D01*
X161225333Y-102864448D01*
X161311883Y-102887639D01*
X161311884Y-102887640D01*
X161311887Y-102887640D01*
X161450256Y-102887640D01*
X161450256Y-102887639D01*
X161583906Y-102851828D01*
X161608708Y-102837507D01*
X161631031Y-102824620D01*
X161668213Y-102819724D01*
X161690179Y-102832407D01*
X161691568Y-102833796D01*
X161735427Y-102859118D01*
X161811394Y-102902978D01*
X161811396Y-102902978D01*
X161811397Y-102902979D01*
X161916804Y-102931222D01*
X161945046Y-102938790D01*
X161945047Y-102938791D01*
X161945050Y-102938791D01*
X162083419Y-102938791D01*
X162083419Y-102938790D01*
X162217069Y-102902979D01*
X162221779Y-102900260D01*
X162243639Y-102887639D01*
X162336898Y-102833796D01*
X162356407Y-102814286D01*
X162391054Y-102799934D01*
X162415555Y-102806499D01*
X162515923Y-102864447D01*
X162515925Y-102864447D01*
X162515926Y-102864448D01*
X162602477Y-102887639D01*
X162649575Y-102900259D01*
X162649576Y-102900260D01*
X162649579Y-102900260D01*
X162787948Y-102900260D01*
X162787948Y-102900259D01*
X162921598Y-102864448D01*
X163041427Y-102795265D01*
X163139267Y-102697425D01*
X163208450Y-102577596D01*
X163244261Y-102443946D01*
X163244262Y-102443946D01*
X163244262Y-102305574D01*
X163244261Y-102305573D01*
X163208450Y-102171925D01*
X163208449Y-102171921D01*
X163139266Y-102052094D01*
X163041427Y-101954255D01*
X162921600Y-101885072D01*
X162921596Y-101885071D01*
X162787948Y-101849260D01*
X162787945Y-101849260D01*
X162649579Y-101849260D01*
X162649576Y-101849260D01*
X162515927Y-101885071D01*
X162515923Y-101885072D01*
X162396096Y-101954255D01*
X162376586Y-101973765D01*
X162341938Y-101988116D01*
X162317439Y-101981551D01*
X162217071Y-101923603D01*
X162217067Y-101923602D01*
X162083419Y-101887791D01*
X162083416Y-101887791D01*
X161945050Y-101887791D01*
X161945047Y-101887791D01*
X161811398Y-101923602D01*
X161811397Y-101923602D01*
X161764270Y-101950811D01*
X161727088Y-101955705D01*
X161705123Y-101943023D01*
X161703735Y-101941635D01*
X161583908Y-101872452D01*
X161583904Y-101872451D01*
X161450256Y-101836640D01*
X161450253Y-101836640D01*
X161311887Y-101836640D01*
X161311884Y-101836640D01*
X161178235Y-101872451D01*
X161178231Y-101872452D01*
X161058404Y-101941635D01*
X161058404Y-101941636D01*
X160960566Y-102039474D01*
X160960565Y-102039474D01*
X160891382Y-102159301D01*
X160891381Y-102159305D01*
X160855570Y-102292953D01*
X132415300Y-102292953D01*
X132415300Y-98230813D01*
X154974500Y-98230813D01*
X154974500Y-98369186D01*
X155010311Y-98502834D01*
X155010312Y-98502838D01*
X155055498Y-98581101D01*
X155079495Y-98622665D01*
X155177335Y-98720505D01*
X155221194Y-98745827D01*
X155297161Y-98789687D01*
X155297163Y-98789687D01*
X155297164Y-98789688D01*
X155325069Y-98797165D01*
X155430813Y-98825499D01*
X155430814Y-98825500D01*
X155430817Y-98825500D01*
X155569186Y-98825500D01*
X155569186Y-98825499D01*
X155702836Y-98789688D01*
X155822665Y-98720505D01*
X155920505Y-98622665D01*
X155989688Y-98502836D01*
X156025499Y-98369186D01*
X156025500Y-98369186D01*
X156025500Y-98230814D01*
X156025499Y-98230813D01*
X155989688Y-98097165D01*
X155989687Y-98097161D01*
X155920504Y-97977334D01*
X155822665Y-97879495D01*
X155702838Y-97810312D01*
X155702834Y-97810311D01*
X155569186Y-97774500D01*
X155569183Y-97774500D01*
X155430817Y-97774500D01*
X155430814Y-97774500D01*
X155297165Y-97810311D01*
X155297161Y-97810312D01*
X155177334Y-97879495D01*
X155177334Y-97879496D01*
X155079496Y-97977334D01*
X155079495Y-97977334D01*
X155010312Y-98097161D01*
X155010311Y-98097165D01*
X154974500Y-98230813D01*
X132415300Y-98230813D01*
X132415300Y-93930813D01*
X163474500Y-93930813D01*
X163474500Y-94069186D01*
X163510311Y-94202834D01*
X163510312Y-94202838D01*
X163579495Y-94322665D01*
X163677335Y-94420505D01*
X163734756Y-94453657D01*
X163741525Y-94457565D01*
X163764355Y-94487318D01*
X163759460Y-94524500D01*
X163741525Y-94542435D01*
X163677334Y-94579495D01*
X163677334Y-94579496D01*
X163579496Y-94677334D01*
X163579495Y-94677334D01*
X163510312Y-94797161D01*
X163510311Y-94797165D01*
X163474500Y-94930813D01*
X163474500Y-95069186D01*
X163510311Y-95202834D01*
X163510312Y-95202838D01*
X163579495Y-95322665D01*
X163677335Y-95420505D01*
X163734756Y-95453657D01*
X163741525Y-95457565D01*
X163764355Y-95487318D01*
X163759460Y-95524500D01*
X163741525Y-95542435D01*
X163677334Y-95579495D01*
X163677334Y-95579496D01*
X163579496Y-95677334D01*
X163579495Y-95677334D01*
X163510312Y-95797161D01*
X163510311Y-95797165D01*
X163474500Y-95930813D01*
X163474500Y-96069186D01*
X163510311Y-96202834D01*
X163510312Y-96202838D01*
X163579495Y-96322665D01*
X163677335Y-96420505D01*
X163734756Y-96453657D01*
X163741525Y-96457565D01*
X163764355Y-96487318D01*
X163759460Y-96524500D01*
X163741525Y-96542435D01*
X163677334Y-96579495D01*
X163677334Y-96579496D01*
X163579496Y-96677334D01*
X163579495Y-96677334D01*
X163510312Y-96797161D01*
X163510311Y-96797165D01*
X163474500Y-96930813D01*
X163474500Y-97069186D01*
X163510311Y-97202834D01*
X163510312Y-97202838D01*
X163579495Y-97322665D01*
X163677335Y-97420505D01*
X163734756Y-97453657D01*
X163741525Y-97457565D01*
X163764355Y-97487318D01*
X163759460Y-97524500D01*
X163741525Y-97542435D01*
X163677334Y-97579495D01*
X163677334Y-97579496D01*
X163579496Y-97677334D01*
X163579495Y-97677334D01*
X163510312Y-97797161D01*
X163510311Y-97797165D01*
X163474500Y-97930813D01*
X163474500Y-98069186D01*
X163510311Y-98202834D01*
X163510312Y-98202838D01*
X163579495Y-98322665D01*
X163677335Y-98420505D01*
X163734756Y-98453657D01*
X163741525Y-98457565D01*
X163764355Y-98487318D01*
X163759460Y-98524500D01*
X163741525Y-98542435D01*
X163677334Y-98579495D01*
X163677334Y-98579496D01*
X163579496Y-98677334D01*
X163579495Y-98677334D01*
X163510312Y-98797161D01*
X163510311Y-98797165D01*
X163474500Y-98930813D01*
X163474500Y-99069186D01*
X163510311Y-99202834D01*
X163510312Y-99202838D01*
X163579495Y-99322665D01*
X163677335Y-99420505D01*
X163734756Y-99453657D01*
X163741525Y-99457565D01*
X163764355Y-99487318D01*
X163759460Y-99524500D01*
X163741525Y-99542435D01*
X163677334Y-99579495D01*
X163677334Y-99579496D01*
X163579496Y-99677334D01*
X163579495Y-99677334D01*
X163510312Y-99797161D01*
X163510311Y-99797165D01*
X163474500Y-99930813D01*
X163474500Y-100069186D01*
X163510311Y-100202834D01*
X163510312Y-100202838D01*
X163579495Y-100322665D01*
X163677335Y-100420505D01*
X163734756Y-100453657D01*
X163741525Y-100457565D01*
X163764355Y-100487318D01*
X163759460Y-100524500D01*
X163741525Y-100542435D01*
X163677334Y-100579495D01*
X163677334Y-100579496D01*
X163579496Y-100677334D01*
X163579495Y-100677334D01*
X163510312Y-100797161D01*
X163510311Y-100797165D01*
X163474500Y-100930813D01*
X163474500Y-101069186D01*
X163510311Y-101202834D01*
X163510312Y-101202838D01*
X163579495Y-101322665D01*
X163677335Y-101420505D01*
X163721194Y-101445827D01*
X163797161Y-101489687D01*
X163797163Y-101489687D01*
X163797164Y-101489688D01*
X163902571Y-101517931D01*
X163930813Y-101525499D01*
X163930814Y-101525500D01*
X163930817Y-101525500D01*
X164069186Y-101525500D01*
X164069186Y-101525499D01*
X164202836Y-101489688D01*
X164322665Y-101420505D01*
X164322665Y-101420504D01*
X164325446Y-101418899D01*
X164326539Y-101420792D01*
X164356078Y-101412670D01*
X164373890Y-101420048D01*
X164374554Y-101418899D01*
X164377334Y-101420504D01*
X164377335Y-101420505D01*
X164417594Y-101443748D01*
X164497161Y-101489687D01*
X164497163Y-101489687D01*
X164497164Y-101489688D01*
X164602571Y-101517931D01*
X164630813Y-101525499D01*
X164630814Y-101525500D01*
X164630817Y-101525500D01*
X164769186Y-101525500D01*
X164769186Y-101525499D01*
X164902836Y-101489688D01*
X165022665Y-101420505D01*
X165120505Y-101322665D01*
X165189688Y-101202836D01*
X165225499Y-101069186D01*
X165225500Y-101069186D01*
X165225500Y-100930814D01*
X165225499Y-100930813D01*
X165189688Y-100797165D01*
X165189687Y-100797161D01*
X165120504Y-100677334D01*
X165022665Y-100579495D01*
X164958473Y-100542434D01*
X164935644Y-100512682D01*
X164940539Y-100475500D01*
X164958472Y-100457566D01*
X165022665Y-100420505D01*
X165120505Y-100322665D01*
X165189688Y-100202836D01*
X165225499Y-100069186D01*
X165225500Y-100069186D01*
X165225500Y-99930814D01*
X165225499Y-99930813D01*
X165189688Y-99797165D01*
X165189687Y-99797161D01*
X165120504Y-99677334D01*
X165022665Y-99579495D01*
X164958473Y-99542434D01*
X164935644Y-99512682D01*
X164940539Y-99475500D01*
X164958472Y-99457566D01*
X165022665Y-99420505D01*
X165120505Y-99322665D01*
X165189688Y-99202836D01*
X165225499Y-99069186D01*
X165225500Y-99069186D01*
X165225500Y-98930814D01*
X165225499Y-98930813D01*
X165217931Y-98902571D01*
X165189688Y-98797164D01*
X165189687Y-98797163D01*
X165189687Y-98797161D01*
X165120504Y-98677334D01*
X165022665Y-98579495D01*
X164958473Y-98542434D01*
X164935644Y-98512682D01*
X164940539Y-98475500D01*
X164958472Y-98457566D01*
X165022665Y-98420505D01*
X165120505Y-98322665D01*
X165189688Y-98202836D01*
X165225499Y-98069186D01*
X165225500Y-98069186D01*
X165225500Y-97930814D01*
X165225499Y-97930813D01*
X165193211Y-97810312D01*
X165189688Y-97797164D01*
X165189687Y-97797163D01*
X165189687Y-97797161D01*
X165120504Y-97677334D01*
X165022665Y-97579495D01*
X164958473Y-97542434D01*
X164935644Y-97512682D01*
X164940539Y-97475500D01*
X164958472Y-97457566D01*
X165022665Y-97420505D01*
X165120505Y-97322665D01*
X165189688Y-97202836D01*
X165225499Y-97069186D01*
X165225500Y-97069186D01*
X165225500Y-96930814D01*
X165225499Y-96930813D01*
X165189688Y-96797165D01*
X165189687Y-96797161D01*
X165120504Y-96677334D01*
X165022665Y-96579495D01*
X164958473Y-96542434D01*
X164935644Y-96512682D01*
X164940539Y-96475500D01*
X164958472Y-96457566D01*
X165022665Y-96420505D01*
X165120505Y-96322665D01*
X165189688Y-96202836D01*
X165225499Y-96069186D01*
X165225500Y-96069186D01*
X165225500Y-95930814D01*
X165225499Y-95930813D01*
X165189688Y-95797165D01*
X165189687Y-95797161D01*
X165120504Y-95677334D01*
X165022665Y-95579495D01*
X164958473Y-95542434D01*
X164935644Y-95512682D01*
X164940539Y-95475500D01*
X164958472Y-95457566D01*
X165022665Y-95420505D01*
X165120505Y-95322665D01*
X165189688Y-95202836D01*
X165225499Y-95069186D01*
X165225500Y-95069186D01*
X165225500Y-94930814D01*
X165225499Y-94930813D01*
X165189688Y-94797165D01*
X165189687Y-94797161D01*
X165120504Y-94677334D01*
X165022665Y-94579495D01*
X164958473Y-94542434D01*
X164935644Y-94512682D01*
X164940539Y-94475500D01*
X164958472Y-94457566D01*
X165022665Y-94420505D01*
X165120505Y-94322665D01*
X165189688Y-94202836D01*
X165225499Y-94069186D01*
X165225500Y-94069186D01*
X165225500Y-93930814D01*
X165225499Y-93930813D01*
X165189688Y-93797165D01*
X165189687Y-93797161D01*
X165120504Y-93677334D01*
X165022665Y-93579495D01*
X164902838Y-93510312D01*
X164902834Y-93510311D01*
X164769186Y-93474500D01*
X164769183Y-93474500D01*
X164630817Y-93474500D01*
X164630814Y-93474500D01*
X164497165Y-93510311D01*
X164497161Y-93510312D01*
X164397368Y-93567928D01*
X164377335Y-93579495D01*
X164377334Y-93579495D01*
X164374554Y-93581101D01*
X164373533Y-93579333D01*
X164343357Y-93587255D01*
X164326035Y-93580080D01*
X164325446Y-93581101D01*
X164322665Y-93579495D01*
X164294136Y-93563024D01*
X164202838Y-93510312D01*
X164202834Y-93510311D01*
X164069186Y-93474500D01*
X164069183Y-93474500D01*
X163930817Y-93474500D01*
X163930814Y-93474500D01*
X163797165Y-93510311D01*
X163797161Y-93510312D01*
X163677334Y-93579495D01*
X163677334Y-93579496D01*
X163579496Y-93677334D01*
X163579495Y-93677334D01*
X163510312Y-93797161D01*
X163510311Y-93797165D01*
X163474500Y-93930813D01*
X132415300Y-93930813D01*
X132415300Y-92900419D01*
X132429652Y-92865771D01*
X132464300Y-92851419D01*
X132471263Y-92851917D01*
X132539300Y-92861700D01*
X132539304Y-92861700D01*
X152214452Y-92861700D01*
X152214456Y-92861700D01*
X152223966Y-92861105D01*
X152252508Y-92859320D01*
X152252517Y-92859319D01*
X152252518Y-92859318D01*
X152252531Y-92859318D01*
X152283197Y-92855466D01*
X152295570Y-92853654D01*
X152401008Y-92815083D01*
X152461097Y-92779431D01*
X152472856Y-92770743D01*
X152509249Y-92761697D01*
X152540846Y-92780325D01*
G37*
%TD.AperFunction*%
%TA.AperFunction,Conductor*%
G36*
X173710439Y-69418585D02*
G01*
X173756194Y-69471389D01*
X173767400Y-69522900D01*
X173767400Y-69673700D01*
X173747715Y-69740739D01*
X173694911Y-69786494D01*
X173643400Y-69797700D01*
X172134922Y-69797700D01*
X172068095Y-69815605D01*
X172068096Y-69815606D01*
X172001268Y-69833512D01*
X172001267Y-69833513D01*
X171881444Y-69902692D01*
X171881439Y-69902696D01*
X169443301Y-72340834D01*
X169443297Y-72340839D01*
X169374116Y-72460664D01*
X169374117Y-72460664D01*
X169374117Y-72460666D01*
X169338304Y-72594319D01*
X169338304Y-72742673D01*
X169338305Y-72742686D01*
X169338305Y-73600500D01*
X169318620Y-73667539D01*
X169265816Y-73713294D01*
X169214305Y-73724500D01*
X167025996Y-73724500D01*
X167025980Y-73724499D01*
X167018384Y-73724499D01*
X166880017Y-73724499D01*
X166762152Y-73756080D01*
X166746361Y-73760312D01*
X166626538Y-73829492D01*
X166626532Y-73829497D01*
X166020467Y-74435562D01*
X165959144Y-74469047D01*
X165889452Y-74464063D01*
X165833519Y-74422191D01*
X165809102Y-74356727D01*
X165813011Y-74315790D01*
X165825500Y-74269183D01*
X165825500Y-74130817D01*
X165789688Y-73997164D01*
X165731953Y-73897164D01*
X165720507Y-73877338D01*
X165720503Y-73877333D01*
X165622666Y-73779496D01*
X165622661Y-73779492D01*
X165502838Y-73710313D01*
X165502837Y-73710312D01*
X165502836Y-73710312D01*
X165369183Y-73674500D01*
X165230817Y-73674500D01*
X165097164Y-73710312D01*
X165097161Y-73710313D01*
X164977338Y-73779492D01*
X164977333Y-73779496D01*
X164879496Y-73877333D01*
X164879492Y-73877338D01*
X164810313Y-73997161D01*
X164810312Y-73997164D01*
X164774500Y-74130817D01*
X164774500Y-74269183D01*
X164778799Y-74285227D01*
X164786432Y-74313714D01*
X164784769Y-74383564D01*
X164745606Y-74441426D01*
X164681377Y-74468930D01*
X164612475Y-74457343D01*
X164597766Y-74448909D01*
X164460037Y-74356881D01*
X164460028Y-74356876D01*
X164287051Y-74285227D01*
X164287043Y-74285225D01*
X164103420Y-74248700D01*
X164103416Y-74248700D01*
X163916184Y-74248700D01*
X163916179Y-74248700D01*
X163732556Y-74285225D01*
X163732548Y-74285227D01*
X163559571Y-74356876D01*
X163559562Y-74356881D01*
X163403892Y-74460897D01*
X163403888Y-74460900D01*
X163271500Y-74593288D01*
X163271497Y-74593292D01*
X163167481Y-74748962D01*
X163167476Y-74748971D01*
X163095827Y-74921948D01*
X163095825Y-74921956D01*
X163059300Y-75105579D01*
X163059300Y-77192820D01*
X163095825Y-77376443D01*
X163095827Y-77376451D01*
X163167476Y-77549428D01*
X163167481Y-77549437D01*
X163271497Y-77705107D01*
X163271500Y-77705111D01*
X163403888Y-77837499D01*
X163403892Y-77837502D01*
X163559562Y-77941518D01*
X163559568Y-77941521D01*
X163559569Y-77941522D01*
X163732549Y-78013173D01*
X163916179Y-78049699D01*
X163916183Y-78049700D01*
X163916184Y-78049700D01*
X164103417Y-78049700D01*
X164103418Y-78049699D01*
X164287051Y-78013173D01*
X164460031Y-77941522D01*
X164615708Y-77837502D01*
X164748102Y-77705108D01*
X164852122Y-77549431D01*
X164923773Y-77376451D01*
X164936533Y-77312303D01*
X164968917Y-77250392D01*
X165029633Y-77215818D01*
X165099402Y-77219557D01*
X165105587Y-77221927D01*
X165172640Y-77249701D01*
X165293287Y-77273699D01*
X165293291Y-77273700D01*
X165293292Y-77273700D01*
X165416309Y-77273700D01*
X165416310Y-77273699D01*
X165536960Y-77249701D01*
X165650612Y-77202625D01*
X165710909Y-77162336D01*
X165777586Y-77141458D01*
X165844966Y-77159942D01*
X165848691Y-77162336D01*
X165902813Y-77198499D01*
X165908988Y-77202625D01*
X165908990Y-77202626D01*
X165908994Y-77202628D01*
X166013072Y-77245738D01*
X166022640Y-77249701D01*
X166143287Y-77273699D01*
X166143291Y-77273700D01*
X166143292Y-77273700D01*
X166266309Y-77273700D01*
X166266310Y-77273699D01*
X166386960Y-77249701D01*
X166500612Y-77202625D01*
X166560909Y-77162336D01*
X166627586Y-77141458D01*
X166694966Y-77159942D01*
X166698691Y-77162336D01*
X166752813Y-77198499D01*
X166758988Y-77202625D01*
X166758990Y-77202626D01*
X166758994Y-77202628D01*
X166863072Y-77245738D01*
X166872640Y-77249701D01*
X166993287Y-77273699D01*
X166993291Y-77273700D01*
X166993292Y-77273700D01*
X167116309Y-77273700D01*
X167116310Y-77273699D01*
X167236960Y-77249701D01*
X167350612Y-77202625D01*
X167410909Y-77162336D01*
X167477586Y-77141458D01*
X167544966Y-77159942D01*
X167548691Y-77162336D01*
X167602813Y-77198499D01*
X167608988Y-77202625D01*
X167608990Y-77202626D01*
X167608994Y-77202628D01*
X167713072Y-77245738D01*
X167722640Y-77249701D01*
X167843287Y-77273699D01*
X167843291Y-77273700D01*
X167843292Y-77273700D01*
X167966309Y-77273700D01*
X167966310Y-77273699D01*
X168086960Y-77249701D01*
X168200612Y-77202625D01*
X168260909Y-77162336D01*
X168327586Y-77141458D01*
X168394966Y-77159942D01*
X168398691Y-77162336D01*
X168452813Y-77198499D01*
X168458988Y-77202625D01*
X168458990Y-77202626D01*
X168458994Y-77202628D01*
X168563072Y-77245738D01*
X168572640Y-77249701D01*
X168693287Y-77273699D01*
X168693291Y-77273700D01*
X168693292Y-77273700D01*
X168816309Y-77273700D01*
X168816310Y-77273699D01*
X168936960Y-77249701D01*
X169050612Y-77202625D01*
X169110909Y-77162336D01*
X169177586Y-77141458D01*
X169244966Y-77159942D01*
X169248691Y-77162336D01*
X169302813Y-77198499D01*
X169308988Y-77202625D01*
X169308990Y-77202626D01*
X169308994Y-77202628D01*
X169413072Y-77245738D01*
X169422640Y-77249701D01*
X169543287Y-77273699D01*
X169543291Y-77273700D01*
X169543292Y-77273700D01*
X169666309Y-77273700D01*
X169666310Y-77273699D01*
X169786960Y-77249701D01*
X169900612Y-77202625D01*
X169960909Y-77162336D01*
X170027586Y-77141458D01*
X170094966Y-77159942D01*
X170098691Y-77162336D01*
X170152813Y-77198499D01*
X170158988Y-77202625D01*
X170158990Y-77202626D01*
X170158994Y-77202628D01*
X170263072Y-77245738D01*
X170272640Y-77249701D01*
X170393287Y-77273699D01*
X170393291Y-77273700D01*
X170393292Y-77273700D01*
X170516309Y-77273700D01*
X170516310Y-77273699D01*
X170636960Y-77249701D01*
X170750612Y-77202625D01*
X170810909Y-77162336D01*
X170877586Y-77141458D01*
X170944966Y-77159942D01*
X170948691Y-77162336D01*
X171002813Y-77198499D01*
X171008988Y-77202625D01*
X171008990Y-77202626D01*
X171008994Y-77202628D01*
X171113072Y-77245738D01*
X171122640Y-77249701D01*
X171243287Y-77273699D01*
X171243291Y-77273700D01*
X171243292Y-77273700D01*
X171366309Y-77273700D01*
X171366310Y-77273699D01*
X171486960Y-77249701D01*
X171553999Y-77221932D01*
X171623465Y-77214464D01*
X171685944Y-77245738D01*
X171721597Y-77305827D01*
X171723066Y-77312302D01*
X171735825Y-77376445D01*
X171735827Y-77376451D01*
X171807476Y-77549428D01*
X171807481Y-77549437D01*
X171911497Y-77705107D01*
X171911500Y-77705111D01*
X172043888Y-77837499D01*
X172043892Y-77837502D01*
X172199562Y-77941518D01*
X172199568Y-77941521D01*
X172199569Y-77941522D01*
X172372549Y-78013173D01*
X172556179Y-78049699D01*
X172556183Y-78049700D01*
X172556184Y-78049700D01*
X172743417Y-78049700D01*
X172743418Y-78049699D01*
X172838346Y-78030817D01*
X182274500Y-78030817D01*
X182274500Y-78169183D01*
X182306789Y-78289686D01*
X182310312Y-78302835D01*
X182310313Y-78302838D01*
X182379492Y-78422661D01*
X182379494Y-78422664D01*
X182379495Y-78422665D01*
X182477335Y-78520505D01*
X182597164Y-78589688D01*
X182730817Y-78625500D01*
X182730819Y-78625500D01*
X182869181Y-78625500D01*
X182869183Y-78625500D01*
X183002836Y-78589688D01*
X183122665Y-78520505D01*
X183220505Y-78422665D01*
X183289688Y-78302836D01*
X183325500Y-78169183D01*
X183325500Y-78030817D01*
X183289688Y-77897164D01*
X183227637Y-77789688D01*
X183220507Y-77777338D01*
X183220503Y-77777333D01*
X183122666Y-77679496D01*
X183122661Y-77679492D01*
X183002838Y-77610313D01*
X183002837Y-77610312D01*
X183002836Y-77610312D01*
X182869183Y-77574500D01*
X182730817Y-77574500D01*
X182597164Y-77610312D01*
X182597161Y-77610313D01*
X182477338Y-77679492D01*
X182477333Y-77679496D01*
X182379496Y-77777333D01*
X182379492Y-77777338D01*
X182310313Y-77897161D01*
X182310312Y-77897164D01*
X182274500Y-78030817D01*
X172838346Y-78030817D01*
X172927051Y-78013173D01*
X173100031Y-77941522D01*
X173166418Y-77897164D01*
X173208294Y-77869183D01*
X173255708Y-77837502D01*
X173388102Y-77705108D01*
X173492122Y-77549431D01*
X173563773Y-77376451D01*
X173592741Y-77230817D01*
X185199500Y-77230817D01*
X185199500Y-77369183D01*
X185215083Y-77427338D01*
X185235312Y-77502835D01*
X185235313Y-77502838D01*
X185304492Y-77622661D01*
X185304494Y-77622664D01*
X185304495Y-77622665D01*
X185402335Y-77720505D01*
X185522164Y-77789688D01*
X185655817Y-77825500D01*
X185655819Y-77825500D01*
X185794181Y-77825500D01*
X185794183Y-77825500D01*
X185927836Y-77789688D01*
X186029804Y-77730817D01*
X203374500Y-77730817D01*
X203374500Y-77869183D01*
X203396915Y-77952835D01*
X203410312Y-78002835D01*
X203410313Y-78002838D01*
X203479492Y-78122661D01*
X203479494Y-78122664D01*
X203479495Y-78122665D01*
X203577335Y-78220505D01*
X203577336Y-78220506D01*
X203577338Y-78220507D01*
X203610559Y-78239687D01*
X203697164Y-78289688D01*
X203830817Y-78325500D01*
X203830819Y-78325500D01*
X203969181Y-78325500D01*
X203969183Y-78325500D01*
X204102836Y-78289688D01*
X204222665Y-78220505D01*
X204320505Y-78122665D01*
X204389688Y-78002836D01*
X204425500Y-77869183D01*
X204425500Y-77730817D01*
X204389688Y-77597164D01*
X204335228Y-77502836D01*
X204320507Y-77477338D01*
X204320503Y-77477333D01*
X204222666Y-77379496D01*
X204222661Y-77379492D01*
X204102838Y-77310313D01*
X204102837Y-77310312D01*
X204102836Y-77310312D01*
X203969183Y-77274500D01*
X203830817Y-77274500D01*
X203697164Y-77310312D01*
X203697161Y-77310313D01*
X203577338Y-77379492D01*
X203577333Y-77379496D01*
X203479496Y-77477333D01*
X203479492Y-77477338D01*
X203410313Y-77597161D01*
X203410312Y-77597164D01*
X203374500Y-77730817D01*
X186029804Y-77730817D01*
X186047665Y-77720505D01*
X186145505Y-77622665D01*
X186214688Y-77502836D01*
X186250500Y-77369183D01*
X186250500Y-77230817D01*
X186214688Y-77097164D01*
X186145505Y-76977335D01*
X186047665Y-76879495D01*
X186047664Y-76879494D01*
X186047661Y-76879492D01*
X185927838Y-76810313D01*
X185927837Y-76810312D01*
X185927836Y-76810312D01*
X185794183Y-76774500D01*
X185655817Y-76774500D01*
X185522164Y-76810312D01*
X185522161Y-76810313D01*
X185402338Y-76879492D01*
X185402333Y-76879496D01*
X185304496Y-76977333D01*
X185304492Y-76977338D01*
X185235313Y-77097161D01*
X185235312Y-77097164D01*
X185199500Y-77230817D01*
X173592741Y-77230817D01*
X173593998Y-77224500D01*
X173599170Y-77198499D01*
X173599170Y-77198498D01*
X173599405Y-77197310D01*
X173600300Y-77192816D01*
X173600300Y-75730817D01*
X180174500Y-75730817D01*
X180174500Y-75869183D01*
X180208792Y-75997161D01*
X180210312Y-76002835D01*
X180210313Y-76002838D01*
X180279492Y-76122661D01*
X180279494Y-76122663D01*
X180279495Y-76122665D01*
X180377335Y-76220505D01*
X180377336Y-76220506D01*
X180377338Y-76220507D01*
X180437249Y-76255096D01*
X180497164Y-76289688D01*
X180630817Y-76325500D01*
X180630819Y-76325500D01*
X180769181Y-76325500D01*
X180769183Y-76325500D01*
X180902836Y-76289688D01*
X181022665Y-76220505D01*
X181112353Y-76130817D01*
X194974500Y-76130817D01*
X194974500Y-76269183D01*
X195006789Y-76389686D01*
X195010312Y-76402835D01*
X195010313Y-76402838D01*
X195079492Y-76522661D01*
X195079494Y-76522664D01*
X195079495Y-76522665D01*
X195177335Y-76620505D01*
X195297164Y-76689688D01*
X195430817Y-76725500D01*
X195430819Y-76725500D01*
X195569181Y-76725500D01*
X195569183Y-76725500D01*
X195702836Y-76689688D01*
X195822665Y-76620505D01*
X195920505Y-76522665D01*
X195989688Y-76402836D01*
X196025500Y-76269183D01*
X196025500Y-76130817D01*
X195989688Y-75997164D01*
X195935228Y-75902836D01*
X195920507Y-75877338D01*
X195920503Y-75877333D01*
X195822666Y-75779496D01*
X195822661Y-75779492D01*
X195702838Y-75710313D01*
X195702837Y-75710312D01*
X195702836Y-75710312D01*
X195569183Y-75674500D01*
X195430817Y-75674500D01*
X195297164Y-75710312D01*
X195297161Y-75710313D01*
X195177338Y-75779492D01*
X195177333Y-75779496D01*
X195079496Y-75877333D01*
X195079492Y-75877338D01*
X195010313Y-75997161D01*
X195010312Y-75997164D01*
X194974500Y-76130817D01*
X181112353Y-76130817D01*
X181120505Y-76122665D01*
X181189688Y-76002836D01*
X181225500Y-75869183D01*
X181225500Y-75730817D01*
X181189688Y-75597164D01*
X181131953Y-75497164D01*
X181120507Y-75477338D01*
X181120503Y-75477333D01*
X181022666Y-75379496D01*
X181022661Y-75379492D01*
X180902838Y-75310313D01*
X180902837Y-75310312D01*
X180902836Y-75310312D01*
X180769183Y-75274500D01*
X180630817Y-75274500D01*
X180497164Y-75310312D01*
X180497161Y-75310313D01*
X180377338Y-75379492D01*
X180377333Y-75379496D01*
X180279496Y-75477333D01*
X180279492Y-75477338D01*
X180210313Y-75597161D01*
X180210312Y-75597164D01*
X180174500Y-75730817D01*
X173600300Y-75730817D01*
X173600300Y-75105584D01*
X173598511Y-75096589D01*
X173604740Y-75026997D01*
X173647604Y-74971821D01*
X173713495Y-74948578D01*
X173720129Y-74948400D01*
X173767400Y-74948400D01*
X174751006Y-74948400D01*
X174818045Y-74968085D01*
X174840198Y-74987167D01*
X174840537Y-74986829D01*
X175010295Y-75156587D01*
X175010301Y-75156592D01*
X175197550Y-75300273D01*
X175326115Y-75374500D01*
X175401943Y-75418280D01*
X175401948Y-75418282D01*
X175401951Y-75418284D01*
X175620007Y-75508606D01*
X175847986Y-75569693D01*
X176081989Y-75600500D01*
X176081996Y-75600500D01*
X176318004Y-75600500D01*
X176318011Y-75600500D01*
X176322260Y-75599940D01*
X176323702Y-75599751D01*
X176393614Y-75590546D01*
X176552014Y-75569693D01*
X176779993Y-75508606D01*
X176998049Y-75418284D01*
X177202450Y-75300273D01*
X177389699Y-75156592D01*
X177473891Y-75072400D01*
X177559463Y-74986829D01*
X177560363Y-74987729D01*
X177614754Y-74953221D01*
X177648994Y-74948400D01*
X182376000Y-74948400D01*
X182443039Y-74968085D01*
X182488794Y-75020889D01*
X182500000Y-75072400D01*
X182500000Y-75150000D01*
X206474300Y-75150000D01*
X206541339Y-75169685D01*
X206587094Y-75222489D01*
X206598300Y-75274000D01*
X206598300Y-91222300D01*
X206578615Y-91289339D01*
X206525811Y-91335094D01*
X206474300Y-91346300D01*
X172031708Y-91346300D01*
X171904412Y-91380408D01*
X171790286Y-91446300D01*
X171790283Y-91446302D01*
X171697102Y-91539483D01*
X171697100Y-91539486D01*
X171631208Y-91653612D01*
X171597100Y-91780908D01*
X171597100Y-92432200D01*
X171577415Y-92499239D01*
X171524611Y-92544994D01*
X171473100Y-92556200D01*
X155804198Y-92556200D01*
X155737159Y-92536515D01*
X155691404Y-92483711D01*
X155681460Y-92414553D01*
X155689637Y-92384747D01*
X155705148Y-92347300D01*
X155717933Y-92316435D01*
X155779020Y-92088456D01*
X155809827Y-91854453D01*
X155809827Y-91618431D01*
X155779020Y-91384428D01*
X155717933Y-91156449D01*
X155627611Y-90938393D01*
X155627609Y-90938390D01*
X155627607Y-90938385D01*
X155582631Y-90860486D01*
X155509600Y-90733992D01*
X155365919Y-90546743D01*
X155365914Y-90546737D01*
X155199031Y-90379854D01*
X155199024Y-90379848D01*
X155011781Y-90236172D01*
X155011780Y-90236171D01*
X155011777Y-90236169D01*
X154930284Y-90189119D01*
X154807383Y-90118161D01*
X154807372Y-90118156D01*
X154589320Y-90027836D01*
X154361337Y-89966748D01*
X154127347Y-89935943D01*
X154127344Y-89935942D01*
X154127338Y-89935942D01*
X153891316Y-89935942D01*
X153891310Y-89935942D01*
X153891306Y-89935943D01*
X153657316Y-89966748D01*
X153429333Y-90027836D01*
X153211281Y-90118156D01*
X153211270Y-90118161D01*
X153006872Y-90236172D01*
X152819629Y-90379848D01*
X152819622Y-90379854D01*
X152652739Y-90546737D01*
X152652733Y-90546744D01*
X152509057Y-90733987D01*
X152391046Y-90938385D01*
X152391041Y-90938396D01*
X152300721Y-91156448D01*
X152239633Y-91384431D01*
X152208828Y-91618421D01*
X152208827Y-91618437D01*
X152208827Y-91854446D01*
X152208828Y-91854462D01*
X152239633Y-92088452D01*
X152300721Y-92316435D01*
X152329017Y-92384747D01*
X152336486Y-92454217D01*
X152305211Y-92516696D01*
X152245122Y-92552348D01*
X152214456Y-92556200D01*
X132539300Y-92556200D01*
X132472261Y-92536515D01*
X132426506Y-92483711D01*
X132415300Y-92432200D01*
X132415300Y-89867631D01*
X134887000Y-89867631D01*
X134887000Y-91957356D01*
X134887002Y-91957382D01*
X134889913Y-91982487D01*
X134889915Y-91982491D01*
X134935293Y-92085264D01*
X134935294Y-92085265D01*
X135014735Y-92164706D01*
X135117509Y-92210085D01*
X135142635Y-92213000D01*
X137232364Y-92212999D01*
X137232379Y-92212997D01*
X137232382Y-92212997D01*
X137257487Y-92210086D01*
X137257488Y-92210085D01*
X137257491Y-92210085D01*
X137360265Y-92164706D01*
X137369819Y-92155152D01*
X137431142Y-92121667D01*
X137500834Y-92126651D01*
X137545181Y-92155152D01*
X137554735Y-92164706D01*
X137657509Y-92210085D01*
X137682635Y-92213000D01*
X139772364Y-92212999D01*
X139772379Y-92212997D01*
X139772382Y-92212997D01*
X139797487Y-92210086D01*
X139797488Y-92210085D01*
X139797491Y-92210085D01*
X139900265Y-92164706D01*
X139979706Y-92085265D01*
X140025085Y-91982491D01*
X140028000Y-91957365D01*
X140027999Y-89867636D01*
X140025625Y-89847163D01*
X140025086Y-89842512D01*
X140025085Y-89842510D01*
X140025085Y-89842509D01*
X139979706Y-89739735D01*
X139900265Y-89660294D01*
X139900263Y-89660293D01*
X139797492Y-89614915D01*
X139772365Y-89612000D01*
X137682643Y-89612000D01*
X137682617Y-89612002D01*
X137657512Y-89614913D01*
X137657508Y-89614915D01*
X137554735Y-89660293D01*
X137554734Y-89660294D01*
X137545181Y-89669848D01*
X137483858Y-89703333D01*
X137414166Y-89698349D01*
X137369819Y-89669848D01*
X137360265Y-89660294D01*
X137257492Y-89614915D01*
X137232365Y-89612000D01*
X135142643Y-89612000D01*
X135142617Y-89612002D01*
X135117512Y-89614913D01*
X135117508Y-89614915D01*
X135014735Y-89660293D01*
X134935294Y-89739734D01*
X134889915Y-89842506D01*
X134889915Y-89842508D01*
X134887000Y-89867631D01*
X132415300Y-89867631D01*
X132415300Y-85930817D01*
X139874500Y-85930817D01*
X139874500Y-86069183D01*
X139908262Y-86195183D01*
X139910312Y-86202835D01*
X139910313Y-86202838D01*
X139979492Y-86322661D01*
X139979494Y-86322664D01*
X139979495Y-86322665D01*
X140077335Y-86420505D01*
X140077336Y-86420506D01*
X140077338Y-86420507D01*
X140116001Y-86442829D01*
X140197164Y-86489688D01*
X140330817Y-86525500D01*
X140330819Y-86525500D01*
X140469181Y-86525500D01*
X140469183Y-86525500D01*
X140602836Y-86489688D01*
X140722665Y-86420505D01*
X140820505Y-86322665D01*
X140889688Y-86202836D01*
X140925500Y-86069183D01*
X140925500Y-85930817D01*
X140889688Y-85797164D01*
X140832173Y-85697545D01*
X140820507Y-85677338D01*
X140820503Y-85677333D01*
X140722666Y-85579496D01*
X140722661Y-85579492D01*
X140602838Y-85510313D01*
X140602837Y-85510312D01*
X140602836Y-85510312D01*
X140469183Y-85474500D01*
X140330817Y-85474500D01*
X140197164Y-85510312D01*
X140197161Y-85510313D01*
X140077338Y-85579492D01*
X140077333Y-85579496D01*
X139979496Y-85677333D01*
X139979492Y-85677338D01*
X139910313Y-85797161D01*
X139910312Y-85797164D01*
X139874500Y-85930817D01*
X132415300Y-85930817D01*
X132415300Y-83630817D01*
X136974500Y-83630817D01*
X136974500Y-83769183D01*
X137008262Y-83895183D01*
X137010312Y-83902835D01*
X137010313Y-83902838D01*
X137079492Y-84022661D01*
X137079494Y-84022664D01*
X137079495Y-84022665D01*
X137177335Y-84120505D01*
X137177336Y-84120506D01*
X137177338Y-84120507D01*
X137216001Y-84142829D01*
X137297164Y-84189688D01*
X137430817Y-84225500D01*
X137430819Y-84225500D01*
X137569181Y-84225500D01*
X137569183Y-84225500D01*
X137702836Y-84189688D01*
X137822665Y-84120505D01*
X137920505Y-84022665D01*
X137989688Y-83902836D01*
X138025500Y-83769183D01*
X138025500Y-83630817D01*
X137989688Y-83497164D01*
X137920505Y-83377335D01*
X137822665Y-83279495D01*
X137822664Y-83279494D01*
X137822661Y-83279492D01*
X137702838Y-83210313D01*
X137702837Y-83210312D01*
X137702836Y-83210312D01*
X137569183Y-83174500D01*
X137430817Y-83174500D01*
X137297164Y-83210312D01*
X137297161Y-83210313D01*
X137177338Y-83279492D01*
X137177333Y-83279496D01*
X137079496Y-83377333D01*
X137079492Y-83377338D01*
X137010313Y-83497161D01*
X137010312Y-83497164D01*
X136974500Y-83630817D01*
X132415300Y-83630817D01*
X132415300Y-81830131D01*
X144649500Y-81830131D01*
X144649500Y-83619856D01*
X144649502Y-83619882D01*
X144652413Y-83644987D01*
X144652415Y-83644991D01*
X144697793Y-83747764D01*
X144697794Y-83747765D01*
X144777235Y-83827206D01*
X144880009Y-83872585D01*
X144905135Y-83875500D01*
X145642873Y-83875499D01*
X145709910Y-83895183D01*
X145755665Y-83947987D01*
X145765609Y-84017146D01*
X145736584Y-84080702D01*
X145677806Y-84118476D01*
X145662270Y-84121972D01*
X145530589Y-84142829D01*
X145358363Y-84198787D01*
X145358360Y-84198788D01*
X145197002Y-84281006D01*
X145050505Y-84387441D01*
X145050500Y-84387445D01*
X144922445Y-84515500D01*
X144922441Y-84515505D01*
X144816006Y-84662002D01*
X144733788Y-84823360D01*
X144733787Y-84823363D01*
X144677829Y-84995589D01*
X144649500Y-85174448D01*
X144649500Y-85355551D01*
X144677829Y-85534410D01*
X144730835Y-85697550D01*
X144733789Y-85706639D01*
X144735984Y-85710946D01*
X144749500Y-85767242D01*
X144749500Y-89168469D01*
X144789868Y-89371412D01*
X144789870Y-89371420D01*
X144868112Y-89560313D01*
X144869059Y-89562598D01*
X144984023Y-89734655D01*
X145130345Y-89880977D01*
X145130346Y-89880977D01*
X145137413Y-89888044D01*
X145137412Y-89888044D01*
X145137416Y-89888047D01*
X146310681Y-91061313D01*
X146344166Y-91122636D01*
X146347000Y-91148994D01*
X146347000Y-91957356D01*
X146347002Y-91957382D01*
X146349913Y-91982487D01*
X146349915Y-91982491D01*
X146395293Y-92085264D01*
X146395294Y-92085265D01*
X146474735Y-92164706D01*
X146577509Y-92210085D01*
X146602635Y-92213000D01*
X148692364Y-92212999D01*
X148692379Y-92212997D01*
X148692382Y-92212997D01*
X148717487Y-92210086D01*
X148717488Y-92210085D01*
X148717491Y-92210085D01*
X148820265Y-92164706D01*
X148829819Y-92155152D01*
X148891142Y-92121667D01*
X148960834Y-92126651D01*
X149005181Y-92155152D01*
X149014735Y-92164706D01*
X149117509Y-92210085D01*
X149142635Y-92213000D01*
X151232364Y-92212999D01*
X151232379Y-92212997D01*
X151232382Y-92212997D01*
X151257487Y-92210086D01*
X151257488Y-92210085D01*
X151257491Y-92210085D01*
X151360265Y-92164706D01*
X151439706Y-92085265D01*
X151485085Y-91982491D01*
X151488000Y-91957365D01*
X151487999Y-89867636D01*
X151485625Y-89847163D01*
X151485086Y-89842512D01*
X151485085Y-89842510D01*
X151485085Y-89842509D01*
X151439706Y-89739735D01*
X151360265Y-89660294D01*
X151360263Y-89660293D01*
X151257492Y-89614915D01*
X151232365Y-89612000D01*
X149142643Y-89612000D01*
X149142617Y-89612002D01*
X149117512Y-89614913D01*
X149117508Y-89614915D01*
X149014735Y-89660293D01*
X149014734Y-89660294D01*
X149005181Y-89669848D01*
X148943858Y-89703333D01*
X148874166Y-89698349D01*
X148829819Y-89669848D01*
X148820265Y-89660294D01*
X148717492Y-89614915D01*
X148692368Y-89612000D01*
X148692365Y-89612000D01*
X147883994Y-89612000D01*
X147816955Y-89592315D01*
X147796313Y-89575681D01*
X146886819Y-88666187D01*
X146867505Y-88630817D01*
X158374500Y-88630817D01*
X158374500Y-88769183D01*
X158407033Y-88890596D01*
X158410312Y-88902835D01*
X158410313Y-88902838D01*
X158479492Y-89022661D01*
X158479494Y-89022664D01*
X158479495Y-89022665D01*
X158577335Y-89120505D01*
X158577336Y-89120506D01*
X158577338Y-89120507D01*
X158595128Y-89130778D01*
X158697164Y-89189688D01*
X158830817Y-89225500D01*
X158830819Y-89225500D01*
X158969181Y-89225500D01*
X158969183Y-89225500D01*
X159102836Y-89189688D01*
X159222665Y-89120505D01*
X159320505Y-89022665D01*
X159389688Y-88902836D01*
X159425500Y-88769183D01*
X159425500Y-88630817D01*
X160474500Y-88630817D01*
X160474500Y-88769183D01*
X160507033Y-88890596D01*
X160510312Y-88902835D01*
X160510313Y-88902838D01*
X160579496Y-89022668D01*
X160579906Y-89023202D01*
X160580111Y-89023733D01*
X160583558Y-89029703D01*
X160582626Y-89030240D01*
X160605099Y-89088371D01*
X160601304Y-89130778D01*
X160574500Y-89230815D01*
X160574500Y-89230817D01*
X160574500Y-89369183D01*
X160606789Y-89489686D01*
X160610312Y-89502835D01*
X160610313Y-89502838D01*
X160679492Y-89622661D01*
X160679494Y-89622664D01*
X160679495Y-89622665D01*
X160777335Y-89720505D01*
X160777336Y-89720506D01*
X160777338Y-89720507D01*
X160810641Y-89739734D01*
X160897164Y-89789688D01*
X160943978Y-89802231D01*
X161003638Y-89838596D01*
X161034167Y-89901443D01*
X161031659Y-89954098D01*
X161024500Y-89980815D01*
X161024500Y-89980817D01*
X161024500Y-90119183D01*
X161027179Y-90129179D01*
X161060312Y-90252835D01*
X161060313Y-90252838D01*
X161129492Y-90372661D01*
X161129494Y-90372664D01*
X161129495Y-90372665D01*
X161227335Y-90470505D01*
X161347164Y-90539688D01*
X161390777Y-90551374D01*
X161446364Y-90583467D01*
X161723386Y-90860489D01*
X161723387Y-90860490D01*
X161723389Y-90860491D01*
X161782693Y-90894729D01*
X161782696Y-90894732D01*
X161816937Y-90914500D01*
X161826114Y-90919799D01*
X161940691Y-90950500D01*
X161940694Y-90950500D01*
X167059308Y-90950500D01*
X167059309Y-90950500D01*
X167149673Y-90926286D01*
X167173887Y-90919799D01*
X167276614Y-90860489D01*
X168465949Y-89671153D01*
X204449500Y-89671153D01*
X204449500Y-89828846D01*
X204480261Y-89983489D01*
X204480264Y-89983501D01*
X204540602Y-90129172D01*
X204540609Y-90129185D01*
X204628210Y-90260288D01*
X204628213Y-90260292D01*
X204739707Y-90371786D01*
X204739711Y-90371789D01*
X204870814Y-90459390D01*
X204870827Y-90459397D01*
X205016498Y-90519735D01*
X205016503Y-90519737D01*
X205171153Y-90550499D01*
X205171156Y-90550500D01*
X205171158Y-90550500D01*
X205328844Y-90550500D01*
X205328845Y-90550499D01*
X205483497Y-90519737D01*
X205602350Y-90470507D01*
X205629172Y-90459397D01*
X205629172Y-90459396D01*
X205629179Y-90459394D01*
X205760289Y-90371789D01*
X205871789Y-90260289D01*
X205959394Y-90129179D01*
X205963535Y-90119183D01*
X205995979Y-90040855D01*
X206019737Y-89983497D01*
X206050500Y-89828842D01*
X206050500Y-89671158D01*
X206050500Y-89671155D01*
X206050499Y-89671153D01*
X206028906Y-89562598D01*
X206019737Y-89516503D01*
X206008629Y-89489686D01*
X205959397Y-89370827D01*
X205959390Y-89370814D01*
X205871789Y-89239711D01*
X205871786Y-89239707D01*
X205760292Y-89128213D01*
X205760288Y-89128210D01*
X205629185Y-89040609D01*
X205629172Y-89040602D01*
X205483501Y-88980264D01*
X205483489Y-88980261D01*
X205328845Y-88949500D01*
X205328842Y-88949500D01*
X205171158Y-88949500D01*
X205171155Y-88949500D01*
X205016510Y-88980261D01*
X205016498Y-88980264D01*
X204870827Y-89040602D01*
X204870814Y-89040609D01*
X204739711Y-89128210D01*
X204739707Y-89128213D01*
X204628213Y-89239707D01*
X204628210Y-89239711D01*
X204540609Y-89370814D01*
X204540602Y-89370827D01*
X204480264Y-89516498D01*
X204480261Y-89516510D01*
X204449500Y-89671153D01*
X168465949Y-89671153D01*
X169818571Y-88318530D01*
X169879892Y-88285047D01*
X169949584Y-88290031D01*
X169968242Y-88298822D01*
X170001951Y-88318284D01*
X170220007Y-88408606D01*
X170447986Y-88469693D01*
X170681989Y-88500500D01*
X170681996Y-88500500D01*
X170918004Y-88500500D01*
X170918011Y-88500500D01*
X171152014Y-88469693D01*
X171379993Y-88408606D01*
X171598049Y-88318284D01*
X171802450Y-88200273D01*
X171989699Y-88056592D01*
X172156592Y-87889699D01*
X172300273Y-87702450D01*
X172418284Y-87498049D01*
X172454634Y-87410292D01*
X172465313Y-87384512D01*
X172465313Y-87384511D01*
X172508606Y-87279993D01*
X172569693Y-87052014D01*
X172600500Y-86818011D01*
X172600500Y-86581989D01*
X172569693Y-86347986D01*
X172508606Y-86120007D01*
X172418284Y-85901951D01*
X172418282Y-85901948D01*
X172418280Y-85901943D01*
X172374928Y-85826856D01*
X172374927Y-85826855D01*
X172374509Y-85826131D01*
X172341470Y-85768905D01*
X172800000Y-85768905D01*
X172800000Y-86031094D01*
X172834220Y-86291009D01*
X172834222Y-86291020D01*
X172902075Y-86544255D01*
X173002404Y-86786471D01*
X173002409Y-86786482D01*
X173133488Y-87013516D01*
X173133494Y-87013524D01*
X173220080Y-87126365D01*
X174122421Y-86224024D01*
X174135359Y-86255258D01*
X174217437Y-86378097D01*
X174321903Y-86482563D01*
X174444742Y-86564641D01*
X174475974Y-86577577D01*
X173573633Y-87479917D01*
X173573633Y-87479918D01*
X173686475Y-87566505D01*
X173686483Y-87566511D01*
X173913517Y-87697590D01*
X173913528Y-87697595D01*
X174155744Y-87797924D01*
X174408979Y-87865777D01*
X174408990Y-87865779D01*
X174668905Y-87899999D01*
X174668920Y-87900000D01*
X174931080Y-87900000D01*
X174931094Y-87899999D01*
X175191009Y-87865779D01*
X175191020Y-87865777D01*
X175444255Y-87797924D01*
X175686471Y-87697595D01*
X175686482Y-87697590D01*
X175913516Y-87566511D01*
X175913534Y-87566499D01*
X176026365Y-87479919D01*
X176026365Y-87479917D01*
X175124025Y-86577578D01*
X175155258Y-86564641D01*
X175278097Y-86482563D01*
X175382563Y-86378097D01*
X175464641Y-86255258D01*
X175477577Y-86224025D01*
X176379917Y-87126365D01*
X176379919Y-87126365D01*
X176466499Y-87013534D01*
X176466511Y-87013516D01*
X176597590Y-86786482D01*
X176597595Y-86786471D01*
X176697924Y-86544255D01*
X176765777Y-86291020D01*
X176765779Y-86291009D01*
X176799999Y-86031094D01*
X176800000Y-86031080D01*
X176800000Y-85768919D01*
X176799999Y-85768905D01*
X176765779Y-85508990D01*
X176765777Y-85508979D01*
X176697924Y-85255744D01*
X176597595Y-85013528D01*
X176597590Y-85013517D01*
X176466511Y-84786483D01*
X176466505Y-84786475D01*
X176379918Y-84673633D01*
X176379917Y-84673633D01*
X175477577Y-85575973D01*
X175464641Y-85544742D01*
X175382563Y-85421903D01*
X175278097Y-85317437D01*
X175155258Y-85235359D01*
X175124023Y-85222421D01*
X176026365Y-84320080D01*
X175913524Y-84233494D01*
X175913516Y-84233488D01*
X175734498Y-84130131D01*
X177749500Y-84130131D01*
X177749500Y-85919856D01*
X177749502Y-85919882D01*
X177752413Y-85944987D01*
X177752415Y-85944991D01*
X177797793Y-86047764D01*
X177797794Y-86047765D01*
X177877235Y-86127206D01*
X177980009Y-86172585D01*
X178005135Y-86175500D01*
X178742873Y-86175499D01*
X178809910Y-86195183D01*
X178855665Y-86247987D01*
X178865609Y-86317146D01*
X178836584Y-86380702D01*
X178777806Y-86418476D01*
X178762270Y-86421972D01*
X178630589Y-86442829D01*
X178458363Y-86498787D01*
X178458360Y-86498788D01*
X178297002Y-86581006D01*
X178150505Y-86687441D01*
X178150500Y-86687445D01*
X178022445Y-86815500D01*
X178022441Y-86815505D01*
X177916006Y-86962002D01*
X177833788Y-87123360D01*
X177833787Y-87123363D01*
X177777829Y-87295589D01*
X177749500Y-87474448D01*
X177749500Y-87655551D01*
X177777829Y-87834410D01*
X177833787Y-88006636D01*
X177833788Y-88006639D01*
X177878406Y-88094205D01*
X177899665Y-88135928D01*
X177916006Y-88167997D01*
X178022441Y-88314494D01*
X178022445Y-88314499D01*
X178150500Y-88442554D01*
X178150505Y-88442558D01*
X178231823Y-88501638D01*
X178297006Y-88548996D01*
X178392410Y-88597607D01*
X178458360Y-88631211D01*
X178458363Y-88631212D01*
X178544476Y-88659191D01*
X178630591Y-88687171D01*
X178713429Y-88700291D01*
X178809449Y-88715500D01*
X178809454Y-88715500D01*
X178990551Y-88715500D01*
X179077259Y-88701765D01*
X179169409Y-88687171D01*
X179312182Y-88640781D01*
X179382023Y-88638787D01*
X179441856Y-88674868D01*
X179472684Y-88737569D01*
X179474500Y-88758713D01*
X179474500Y-88869183D01*
X179501594Y-88970297D01*
X179510312Y-89002835D01*
X179510313Y-89002838D01*
X179579492Y-89122661D01*
X179579494Y-89122664D01*
X179579495Y-89122665D01*
X179677335Y-89220505D01*
X179677336Y-89220506D01*
X179677338Y-89220507D01*
X179695196Y-89230817D01*
X179797164Y-89289688D01*
X179930817Y-89325500D01*
X179930819Y-89325500D01*
X180069181Y-89325500D01*
X180069183Y-89325500D01*
X180202836Y-89289688D01*
X180322665Y-89220505D01*
X180420505Y-89122665D01*
X180489688Y-89002836D01*
X180508985Y-88930817D01*
X199474500Y-88930817D01*
X199474500Y-89069183D01*
X199506789Y-89189686D01*
X199510312Y-89202835D01*
X199510313Y-89202838D01*
X199579492Y-89322661D01*
X199579494Y-89322664D01*
X199579495Y-89322665D01*
X199677335Y-89420505D01*
X199797164Y-89489688D01*
X199930817Y-89525500D01*
X199930819Y-89525500D01*
X200069181Y-89525500D01*
X200069183Y-89525500D01*
X200202836Y-89489688D01*
X200322665Y-89420505D01*
X200420505Y-89322665D01*
X200489688Y-89202836D01*
X200525500Y-89069183D01*
X200525500Y-88930817D01*
X200489688Y-88797164D01*
X200451383Y-88730817D01*
X200420507Y-88677338D01*
X200420503Y-88677333D01*
X200322666Y-88579496D01*
X200322661Y-88579492D01*
X200202838Y-88510313D01*
X200202837Y-88510312D01*
X200202836Y-88510312D01*
X200069183Y-88474500D01*
X199930817Y-88474500D01*
X199797164Y-88510312D01*
X199797161Y-88510313D01*
X199677338Y-88579492D01*
X199677333Y-88579496D01*
X199579496Y-88677333D01*
X199579492Y-88677338D01*
X199510313Y-88797161D01*
X199510312Y-88797164D01*
X199474500Y-88930817D01*
X180508985Y-88930817D01*
X180525500Y-88869183D01*
X180525500Y-88730817D01*
X180489688Y-88597164D01*
X180439544Y-88510312D01*
X180420507Y-88477338D01*
X180420503Y-88477333D01*
X180322666Y-88379496D01*
X180322661Y-88379492D01*
X180202838Y-88310313D01*
X180202837Y-88310312D01*
X180202836Y-88310312D01*
X180069183Y-88274500D01*
X180032079Y-88274500D01*
X179965040Y-88254815D01*
X179919285Y-88202011D01*
X179909341Y-88132853D01*
X179921594Y-88094205D01*
X179966211Y-88006639D01*
X179966212Y-88006636D01*
X179971719Y-87989686D01*
X180022171Y-87834409D01*
X180036765Y-87742259D01*
X180050500Y-87655551D01*
X180050500Y-87474451D01*
X180045374Y-87442090D01*
X180045374Y-87442088D01*
X180043589Y-87430817D01*
X185874500Y-87430817D01*
X185874500Y-87569183D01*
X185908907Y-87697590D01*
X185910312Y-87702835D01*
X185910313Y-87702838D01*
X185979492Y-87822661D01*
X185979494Y-87822664D01*
X185979495Y-87822665D01*
X186077335Y-87920505D01*
X186197164Y-87989688D01*
X186330817Y-88025500D01*
X186330819Y-88025500D01*
X186469181Y-88025500D01*
X186469183Y-88025500D01*
X186602836Y-87989688D01*
X186722665Y-87920505D01*
X186820505Y-87822665D01*
X186889688Y-87702836D01*
X186925500Y-87569183D01*
X186925500Y-87430817D01*
X186889688Y-87297164D01*
X186820505Y-87177335D01*
X186722665Y-87079495D01*
X186722664Y-87079494D01*
X186722661Y-87079492D01*
X186602838Y-87010313D01*
X186602837Y-87010312D01*
X186602836Y-87010312D01*
X186469183Y-86974500D01*
X186330817Y-86974500D01*
X186197164Y-87010312D01*
X186197161Y-87010313D01*
X186077338Y-87079492D01*
X186077333Y-87079496D01*
X185979496Y-87177333D01*
X185979492Y-87177338D01*
X185910313Y-87297161D01*
X185910312Y-87297164D01*
X185874500Y-87430817D01*
X180043589Y-87430817D01*
X180036254Y-87384510D01*
X180022171Y-87295591D01*
X179983747Y-87177333D01*
X179966212Y-87123363D01*
X179966211Y-87123360D01*
X179929858Y-87052014D01*
X179883996Y-86962006D01*
X179868445Y-86940602D01*
X179830193Y-86887951D01*
X179781662Y-86821153D01*
X202299500Y-86821153D01*
X202299500Y-86978846D01*
X202330261Y-87133489D01*
X202330264Y-87133501D01*
X202390602Y-87279172D01*
X202390609Y-87279185D01*
X202478210Y-87410288D01*
X202478213Y-87410292D01*
X202589707Y-87521786D01*
X202589711Y-87521789D01*
X202720814Y-87609390D01*
X202720827Y-87609397D01*
X202856696Y-87665675D01*
X202866503Y-87669737D01*
X203006529Y-87697590D01*
X203021153Y-87700499D01*
X203021156Y-87700500D01*
X203021158Y-87700500D01*
X203178844Y-87700500D01*
X203178845Y-87700499D01*
X203333497Y-87669737D01*
X203479179Y-87609394D01*
X203610289Y-87521789D01*
X203721789Y-87410289D01*
X203809394Y-87279179D01*
X203812854Y-87270827D01*
X203823067Y-87246166D01*
X203869737Y-87133497D01*
X203900500Y-86978842D01*
X203900500Y-86821158D01*
X203900500Y-86821155D01*
X203900499Y-86821153D01*
X203877451Y-86705286D01*
X203869737Y-86666503D01*
X203848611Y-86615500D01*
X203809397Y-86520827D01*
X203809390Y-86520814D01*
X203721789Y-86389711D01*
X203721786Y-86389707D01*
X203620885Y-86288806D01*
X203587400Y-86227483D01*
X203592384Y-86157791D01*
X203634256Y-86101858D01*
X203684372Y-86079508D01*
X203733497Y-86069737D01*
X203879179Y-86009394D01*
X204010289Y-85921789D01*
X204121789Y-85810289D01*
X204209394Y-85679179D01*
X204269737Y-85533497D01*
X204300500Y-85378842D01*
X204300500Y-85221158D01*
X204300500Y-85221155D01*
X204300499Y-85221153D01*
X204296856Y-85202838D01*
X204269737Y-85066503D01*
X204246452Y-85010288D01*
X204209397Y-84920827D01*
X204209390Y-84920814D01*
X204121789Y-84789711D01*
X204121786Y-84789707D01*
X204010292Y-84678213D01*
X204010288Y-84678210D01*
X203879185Y-84590609D01*
X203879172Y-84590602D01*
X203733501Y-84530264D01*
X203733489Y-84530261D01*
X203578845Y-84499500D01*
X203578842Y-84499500D01*
X203421158Y-84499500D01*
X203421155Y-84499500D01*
X203266510Y-84530261D01*
X203266498Y-84530264D01*
X203120827Y-84590602D01*
X203120814Y-84590609D01*
X202989711Y-84678210D01*
X202989707Y-84678213D01*
X202878213Y-84789707D01*
X202878210Y-84789711D01*
X202790609Y-84920814D01*
X202790602Y-84920827D01*
X202730264Y-85066498D01*
X202730261Y-85066510D01*
X202699500Y-85221153D01*
X202699500Y-85378846D01*
X202730261Y-85533489D01*
X202730264Y-85533501D01*
X202790602Y-85679172D01*
X202790609Y-85679185D01*
X202878210Y-85810288D01*
X202878213Y-85810292D01*
X202979114Y-85911193D01*
X203012599Y-85972516D01*
X203007615Y-86042208D01*
X202965743Y-86098141D01*
X202915626Y-86120491D01*
X202866507Y-86130261D01*
X202866498Y-86130264D01*
X202720827Y-86190602D01*
X202720814Y-86190609D01*
X202589711Y-86278210D01*
X202589707Y-86278213D01*
X202478213Y-86389707D01*
X202478210Y-86389711D01*
X202390609Y-86520814D01*
X202390602Y-86520827D01*
X202330264Y-86666498D01*
X202330261Y-86666510D01*
X202299500Y-86821153D01*
X179781662Y-86821153D01*
X179777558Y-86815505D01*
X179777554Y-86815500D01*
X179649499Y-86687445D01*
X179649494Y-86687441D01*
X179502997Y-86581006D01*
X179502996Y-86581005D01*
X179502994Y-86581004D01*
X179451300Y-86554664D01*
X179341639Y-86498788D01*
X179341636Y-86498787D01*
X179169410Y-86442829D01*
X179037728Y-86421972D01*
X178974594Y-86392042D01*
X178937663Y-86332731D01*
X178938661Y-86262868D01*
X178977271Y-86204636D01*
X179041235Y-86176522D01*
X179057120Y-86175499D01*
X179794864Y-86175499D01*
X179794879Y-86175497D01*
X179794882Y-86175497D01*
X179819987Y-86172586D01*
X179819988Y-86172585D01*
X179819991Y-86172585D01*
X179922765Y-86127206D01*
X180002206Y-86047765D01*
X180047585Y-85944991D01*
X180050500Y-85919865D01*
X180050499Y-84730817D01*
X181874500Y-84730817D01*
X181874500Y-84869183D01*
X181888337Y-84920821D01*
X181910312Y-85002835D01*
X181910313Y-85002838D01*
X181979492Y-85122661D01*
X181979494Y-85122664D01*
X181979495Y-85122665D01*
X182077335Y-85220505D01*
X182077336Y-85220506D01*
X182077338Y-85220507D01*
X182078466Y-85221158D01*
X182197164Y-85289688D01*
X182330817Y-85325500D01*
X182330819Y-85325500D01*
X182469181Y-85325500D01*
X182469183Y-85325500D01*
X182602836Y-85289688D01*
X182722665Y-85220505D01*
X182820505Y-85122665D01*
X182889688Y-85002836D01*
X182908985Y-84930817D01*
X190099500Y-84930817D01*
X190099500Y-85069183D01*
X190113831Y-85122665D01*
X190135312Y-85202835D01*
X190135313Y-85202838D01*
X190204492Y-85322661D01*
X190204494Y-85322664D01*
X190204495Y-85322665D01*
X190302335Y-85420505D01*
X190422164Y-85489688D01*
X190555817Y-85525500D01*
X190555819Y-85525500D01*
X190694181Y-85525500D01*
X190694183Y-85525500D01*
X190827836Y-85489688D01*
X190947665Y-85420505D01*
X191045505Y-85322665D01*
X191114688Y-85202836D01*
X191150500Y-85069183D01*
X191150500Y-84930817D01*
X191114688Y-84797164D01*
X191067542Y-84715505D01*
X191045507Y-84677338D01*
X191045503Y-84677333D01*
X190947666Y-84579496D01*
X190947661Y-84579492D01*
X190827838Y-84510313D01*
X190827837Y-84510312D01*
X190827836Y-84510312D01*
X190694183Y-84474500D01*
X190555817Y-84474500D01*
X190422164Y-84510312D01*
X190422161Y-84510313D01*
X190302338Y-84579492D01*
X190302333Y-84579496D01*
X190204496Y-84677333D01*
X190204492Y-84677338D01*
X190135313Y-84797161D01*
X190135312Y-84797164D01*
X190099500Y-84930817D01*
X182908985Y-84930817D01*
X182925500Y-84869183D01*
X182925500Y-84730817D01*
X182889688Y-84597164D01*
X182842542Y-84515505D01*
X182820507Y-84477338D01*
X182820503Y-84477333D01*
X182722666Y-84379496D01*
X182722661Y-84379492D01*
X182602838Y-84310313D01*
X182602837Y-84310312D01*
X182602836Y-84310312D01*
X182469183Y-84274500D01*
X182330817Y-84274500D01*
X182197164Y-84310312D01*
X182197161Y-84310313D01*
X182077338Y-84379492D01*
X182077333Y-84379496D01*
X181979496Y-84477333D01*
X181979492Y-84477338D01*
X181910313Y-84597161D01*
X181910312Y-84597164D01*
X181874500Y-84730817D01*
X180050499Y-84730817D01*
X180050499Y-84130136D01*
X180050497Y-84130117D01*
X180047586Y-84105012D01*
X180047585Y-84105010D01*
X180047585Y-84105009D01*
X180002206Y-84002235D01*
X179922765Y-83922794D01*
X179922763Y-83922793D01*
X179819992Y-83877415D01*
X179794865Y-83874500D01*
X178005143Y-83874500D01*
X178005117Y-83874502D01*
X177980012Y-83877413D01*
X177980008Y-83877415D01*
X177877235Y-83922793D01*
X177797794Y-84002234D01*
X177752415Y-84105006D01*
X177752415Y-84105008D01*
X177749500Y-84130131D01*
X175734498Y-84130131D01*
X175686482Y-84102409D01*
X175686471Y-84102404D01*
X175444255Y-84002075D01*
X175191020Y-83934222D01*
X175191009Y-83934220D01*
X174931094Y-83900000D01*
X174668905Y-83900000D01*
X174408990Y-83934220D01*
X174408979Y-83934222D01*
X174155744Y-84002075D01*
X173913528Y-84102404D01*
X173913517Y-84102409D01*
X173686471Y-84233496D01*
X173573633Y-84320079D01*
X173573633Y-84320080D01*
X174475974Y-85222421D01*
X174444742Y-85235359D01*
X174321903Y-85317437D01*
X174217437Y-85421903D01*
X174135359Y-85544742D01*
X174122421Y-85575974D01*
X173220080Y-84673633D01*
X173220079Y-84673633D01*
X173133496Y-84786471D01*
X173002409Y-85013517D01*
X173002404Y-85013528D01*
X172902075Y-85255744D01*
X172834222Y-85508979D01*
X172834220Y-85508990D01*
X172800000Y-85768905D01*
X172341470Y-85768905D01*
X172300273Y-85697550D01*
X172286181Y-85679185D01*
X172156593Y-85510302D01*
X172156587Y-85510295D01*
X171989704Y-85343412D01*
X171989697Y-85343406D01*
X171802454Y-85199730D01*
X171802453Y-85199729D01*
X171802450Y-85199727D01*
X171716320Y-85150000D01*
X171598056Y-85081719D01*
X171598045Y-85081714D01*
X171379993Y-84991394D01*
X171152010Y-84930306D01*
X170918020Y-84899501D01*
X170918017Y-84899500D01*
X170918011Y-84899500D01*
X170681989Y-84899500D01*
X170681983Y-84899500D01*
X170681979Y-84899501D01*
X170447989Y-84930306D01*
X170220006Y-84991394D01*
X170001954Y-85081714D01*
X170001943Y-85081719D01*
X169797545Y-85199730D01*
X169610302Y-85343406D01*
X169610295Y-85343412D01*
X169443412Y-85510295D01*
X169443406Y-85510302D01*
X169299730Y-85697545D01*
X169181719Y-85901943D01*
X169181714Y-85901954D01*
X169091394Y-86120006D01*
X169030306Y-86347989D01*
X168999501Y-86581979D01*
X168999500Y-86581995D01*
X168999500Y-86818004D01*
X168999501Y-86818020D01*
X169030306Y-87052010D01*
X169091394Y-87279993D01*
X169181713Y-87498042D01*
X169181717Y-87498052D01*
X169201172Y-87531748D01*
X169217645Y-87599648D01*
X169194792Y-87665675D01*
X169181466Y-87681429D01*
X166849716Y-90013181D01*
X166788393Y-90046666D01*
X166762035Y-90049500D01*
X162237965Y-90049500D01*
X162208524Y-90040855D01*
X162178538Y-90034332D01*
X162173522Y-90030577D01*
X162170926Y-90029815D01*
X162150284Y-90013181D01*
X162083467Y-89946364D01*
X162051374Y-89890777D01*
X162039688Y-89847164D01*
X161970505Y-89727335D01*
X161872665Y-89629495D01*
X161872664Y-89629494D01*
X161872661Y-89629492D01*
X161752838Y-89560313D01*
X161752831Y-89560310D01*
X161706020Y-89547767D01*
X161646360Y-89511402D01*
X161615832Y-89448555D01*
X161618340Y-89395901D01*
X161625500Y-89369183D01*
X161625500Y-89230817D01*
X161589688Y-89097164D01*
X161557036Y-89040609D01*
X161520508Y-88977339D01*
X161520100Y-88976808D01*
X161519894Y-88976277D01*
X161516442Y-88970297D01*
X161517374Y-88969758D01*
X161494900Y-88911641D01*
X161498693Y-88869227D01*
X161525500Y-88769183D01*
X161525500Y-88630817D01*
X161489688Y-88497164D01*
X161421752Y-88379495D01*
X161420507Y-88377338D01*
X161420503Y-88377333D01*
X161322666Y-88279496D01*
X161322661Y-88279492D01*
X161202838Y-88210313D01*
X161202837Y-88210312D01*
X161202836Y-88210312D01*
X161069183Y-88174500D01*
X160930817Y-88174500D01*
X160797164Y-88210312D01*
X160797161Y-88210313D01*
X160677338Y-88279492D01*
X160677333Y-88279496D01*
X160579496Y-88377333D01*
X160579492Y-88377338D01*
X160510313Y-88497161D01*
X160510312Y-88497164D01*
X160474500Y-88630817D01*
X159425500Y-88630817D01*
X159417232Y-88599960D01*
X159416700Y-88597607D01*
X159418760Y-88565089D01*
X159419535Y-88532510D01*
X159420957Y-88530408D01*
X159421118Y-88527877D01*
X159440429Y-88501638D01*
X159458697Y-88474647D01*
X159461029Y-88473648D01*
X159462533Y-88471605D01*
X159492964Y-88459971D01*
X159522924Y-88447141D01*
X159526196Y-88447267D01*
X159527796Y-88446656D01*
X159531750Y-88447482D01*
X159561839Y-88448647D01*
X159571153Y-88450499D01*
X159571156Y-88450500D01*
X159571158Y-88450500D01*
X159728844Y-88450500D01*
X159728845Y-88450499D01*
X159883497Y-88419737D01*
X160029179Y-88359394D01*
X160160289Y-88271789D01*
X160271789Y-88160289D01*
X160359394Y-88029179D01*
X160419737Y-87883497D01*
X160450500Y-87728842D01*
X160450500Y-87571158D01*
X160450500Y-87571155D01*
X160450499Y-87571153D01*
X160435958Y-87498052D01*
X160419737Y-87416503D01*
X160370306Y-87297164D01*
X160359397Y-87270827D01*
X160359390Y-87270814D01*
X160271789Y-87139711D01*
X160271786Y-87139707D01*
X160160292Y-87028213D01*
X160160288Y-87028210D01*
X160029185Y-86940609D01*
X160029172Y-86940602D01*
X159883501Y-86880264D01*
X159883491Y-86880261D01*
X159737983Y-86851317D01*
X159676072Y-86818932D01*
X159641498Y-86758216D01*
X159645239Y-86688446D01*
X159686105Y-86631775D01*
X159742776Y-86607227D01*
X159869409Y-86587171D01*
X160041639Y-86531211D01*
X160202994Y-86448996D01*
X160349501Y-86342553D01*
X160477553Y-86214501D01*
X160583996Y-86067994D01*
X160666211Y-85906639D01*
X160722171Y-85734409D01*
X160746707Y-85579495D01*
X160750500Y-85555551D01*
X160750500Y-85374448D01*
X160731698Y-85255744D01*
X160722171Y-85195591D01*
X160680231Y-85066510D01*
X160666212Y-85023363D01*
X160666211Y-85023360D01*
X160618797Y-84930307D01*
X160583996Y-84862006D01*
X160529117Y-84786471D01*
X160477558Y-84715505D01*
X160477554Y-84715500D01*
X160349499Y-84587445D01*
X160349494Y-84587441D01*
X160202995Y-84481004D01*
X160198116Y-84478518D01*
X160198115Y-84478518D01*
X160041639Y-84398788D01*
X160041636Y-84398787D01*
X159869410Y-84342829D01*
X159737728Y-84321972D01*
X159674594Y-84292042D01*
X159637663Y-84232731D01*
X159638661Y-84162868D01*
X159677271Y-84104636D01*
X159741235Y-84076522D01*
X159757120Y-84075499D01*
X160494864Y-84075499D01*
X160494879Y-84075497D01*
X160494882Y-84075497D01*
X160519987Y-84072586D01*
X160519988Y-84072585D01*
X160519991Y-84072585D01*
X160622765Y-84027206D01*
X160702206Y-83947765D01*
X160747585Y-83844991D01*
X160750500Y-83819865D01*
X160750499Y-83021153D01*
X167999500Y-83021153D01*
X167999500Y-83178846D01*
X168030261Y-83333489D01*
X168030264Y-83333501D01*
X168090602Y-83479172D01*
X168090609Y-83479185D01*
X168178210Y-83610288D01*
X168178213Y-83610292D01*
X168289707Y-83721786D01*
X168289711Y-83721789D01*
X168420814Y-83809390D01*
X168420827Y-83809397D01*
X168506760Y-83844991D01*
X168566503Y-83869737D01*
X168694428Y-83895183D01*
X168721153Y-83900499D01*
X168721156Y-83900500D01*
X168721158Y-83900500D01*
X168878844Y-83900500D01*
X168878845Y-83900499D01*
X169033497Y-83869737D01*
X169179179Y-83809394D01*
X169310289Y-83721789D01*
X169421789Y-83610289D01*
X169509394Y-83479179D01*
X169569737Y-83333497D01*
X169600500Y-83178842D01*
X169600500Y-83021158D01*
X169600500Y-83021155D01*
X169600499Y-83021153D01*
X169574531Y-82890606D01*
X169569737Y-82866503D01*
X169569735Y-82866498D01*
X169509397Y-82720827D01*
X169509390Y-82720814D01*
X169421789Y-82589711D01*
X169421786Y-82589707D01*
X169310292Y-82478213D01*
X169310288Y-82478210D01*
X169179185Y-82390609D01*
X169179172Y-82390602D01*
X169033501Y-82330264D01*
X169033489Y-82330261D01*
X168878845Y-82299500D01*
X168878842Y-82299500D01*
X168721158Y-82299500D01*
X168721155Y-82299500D01*
X168566510Y-82330261D01*
X168566498Y-82330264D01*
X168420827Y-82390602D01*
X168420814Y-82390609D01*
X168289711Y-82478210D01*
X168289707Y-82478213D01*
X168178213Y-82589707D01*
X168178210Y-82589711D01*
X168090609Y-82720814D01*
X168090602Y-82720827D01*
X168030264Y-82866498D01*
X168030261Y-82866510D01*
X167999500Y-83021153D01*
X160750499Y-83021153D01*
X160750499Y-82920945D01*
X160750499Y-82030143D01*
X160750499Y-82030136D01*
X160750497Y-82030117D01*
X160747586Y-82005012D01*
X160747585Y-82005010D01*
X160747585Y-82005009D01*
X160702206Y-81902235D01*
X160622765Y-81822794D01*
X160617576Y-81820503D01*
X160519992Y-81777415D01*
X160494865Y-81774500D01*
X158705143Y-81774500D01*
X158705117Y-81774502D01*
X158680012Y-81777413D01*
X158680008Y-81777415D01*
X158577235Y-81822793D01*
X158497794Y-81902234D01*
X158452415Y-82005006D01*
X158452415Y-82005008D01*
X158449500Y-82030131D01*
X158449500Y-83819856D01*
X158449502Y-83819882D01*
X158452413Y-83844987D01*
X158452415Y-83844991D01*
X158497793Y-83947764D01*
X158497794Y-83947765D01*
X158577235Y-84027206D01*
X158680009Y-84072585D01*
X158705135Y-84075500D01*
X159442873Y-84075499D01*
X159509910Y-84095183D01*
X159555665Y-84147987D01*
X159565609Y-84217146D01*
X159536584Y-84280702D01*
X159477806Y-84318476D01*
X159462270Y-84321972D01*
X159330589Y-84342829D01*
X159158363Y-84398787D01*
X159158360Y-84398788D01*
X158997002Y-84481006D01*
X158850505Y-84587441D01*
X158850500Y-84587445D01*
X158722445Y-84715500D01*
X158722441Y-84715505D01*
X158616006Y-84862002D01*
X158533788Y-85023360D01*
X158533787Y-85023363D01*
X158477829Y-85195589D01*
X158449500Y-85374448D01*
X158449500Y-85555551D01*
X158477829Y-85734410D01*
X158533787Y-85906636D01*
X158533788Y-85906639D01*
X158586144Y-86009390D01*
X158605696Y-86047764D01*
X158616006Y-86067997D01*
X158722441Y-86214494D01*
X158722445Y-86214499D01*
X158850500Y-86342554D01*
X158850505Y-86342558D01*
X158957791Y-86420505D01*
X158997006Y-86448996D01*
X159076868Y-86489688D01*
X159158360Y-86531211D01*
X159158363Y-86531212D01*
X159244476Y-86559191D01*
X159330591Y-86587171D01*
X159454973Y-86606871D01*
X159512893Y-86616045D01*
X159576028Y-86645974D01*
X159612959Y-86705286D01*
X159611961Y-86775148D01*
X159573351Y-86833381D01*
X159517687Y-86860135D01*
X159416508Y-86880261D01*
X159416498Y-86880264D01*
X159270827Y-86940602D01*
X159270814Y-86940609D01*
X159139711Y-87028210D01*
X159139707Y-87028213D01*
X159028213Y-87139707D01*
X159028210Y-87139711D01*
X158940609Y-87270814D01*
X158940602Y-87270827D01*
X158880264Y-87416498D01*
X158880261Y-87416510D01*
X158849500Y-87571153D01*
X158849500Y-87728846D01*
X158880261Y-87883489D01*
X158880264Y-87883501D01*
X158930168Y-88003980D01*
X158937637Y-88073449D01*
X158906362Y-88135928D01*
X158846273Y-88171580D01*
X158831803Y-88174370D01*
X158830820Y-88174499D01*
X158697164Y-88210312D01*
X158697161Y-88210313D01*
X158577338Y-88279492D01*
X158577333Y-88279496D01*
X158479496Y-88377333D01*
X158479492Y-88377338D01*
X158410313Y-88497161D01*
X158410312Y-88497164D01*
X158374500Y-88630817D01*
X146867505Y-88630817D01*
X146853334Y-88604864D01*
X146850500Y-88578506D01*
X146850500Y-85767242D01*
X146864016Y-85710946D01*
X146866211Y-85706639D01*
X146922171Y-85534409D01*
X146946810Y-85378846D01*
X146950500Y-85355551D01*
X146950500Y-85174448D01*
X146933402Y-85066503D01*
X146922171Y-84995591D01*
X146881099Y-84869181D01*
X146866212Y-84823363D01*
X146866211Y-84823360D01*
X146837740Y-84767484D01*
X146783996Y-84662006D01*
X146736884Y-84597161D01*
X146677558Y-84515505D01*
X146677554Y-84515500D01*
X146549499Y-84387445D01*
X146549494Y-84387441D01*
X146402997Y-84281006D01*
X146402996Y-84281005D01*
X146402994Y-84281004D01*
X146351300Y-84254664D01*
X146241639Y-84198788D01*
X146241636Y-84198787D01*
X146069410Y-84142829D01*
X145937728Y-84121972D01*
X145874594Y-84092042D01*
X145837663Y-84032731D01*
X145838661Y-83962868D01*
X145877271Y-83904636D01*
X145941235Y-83876522D01*
X145957120Y-83875499D01*
X146694864Y-83875499D01*
X146694879Y-83875497D01*
X146694882Y-83875497D01*
X146719987Y-83872586D01*
X146719988Y-83872585D01*
X146719991Y-83872585D01*
X146822765Y-83827206D01*
X146902206Y-83747765D01*
X146947585Y-83644991D01*
X146950500Y-83619865D01*
X146950500Y-83521153D01*
X150399500Y-83521153D01*
X150399500Y-83678846D01*
X150430261Y-83833489D01*
X150430264Y-83833501D01*
X150490604Y-83979177D01*
X150490605Y-83979179D01*
X150491899Y-83981115D01*
X150492264Y-83982282D01*
X150493476Y-83984549D01*
X150493045Y-83984778D01*
X150512773Y-84047794D01*
X150494285Y-84115173D01*
X150491899Y-84118885D01*
X150490605Y-84120820D01*
X150490604Y-84120822D01*
X150430264Y-84266498D01*
X150430261Y-84266510D01*
X150399500Y-84421153D01*
X150399500Y-84578846D01*
X150430261Y-84733489D01*
X150430264Y-84733501D01*
X150490602Y-84879172D01*
X150490609Y-84879185D01*
X150578210Y-85010288D01*
X150578213Y-85010292D01*
X150689707Y-85121786D01*
X150689711Y-85121789D01*
X150820814Y-85209390D01*
X150820827Y-85209397D01*
X150966498Y-85269735D01*
X150966503Y-85269737D01*
X151066793Y-85289686D01*
X151121153Y-85300499D01*
X151121156Y-85300500D01*
X151121158Y-85300500D01*
X151278844Y-85300500D01*
X151278845Y-85300499D01*
X151433497Y-85269737D01*
X151552350Y-85220507D01*
X151579172Y-85209397D01*
X151579172Y-85209396D01*
X151579179Y-85209394D01*
X151710289Y-85121789D01*
X151821789Y-85010289D01*
X151909394Y-84879179D01*
X151913535Y-84869183D01*
X151923067Y-84846166D01*
X151969737Y-84733497D01*
X152000500Y-84578842D01*
X152000500Y-84421158D01*
X152000500Y-84421155D01*
X152000499Y-84421153D01*
X151984919Y-84342829D01*
X151969737Y-84266503D01*
X151956065Y-84233496D01*
X151909397Y-84120827D01*
X151909394Y-84120822D01*
X151909394Y-84120821D01*
X151908103Y-84118889D01*
X151907737Y-84117723D01*
X151906525Y-84115454D01*
X151906955Y-84115223D01*
X151887226Y-84052214D01*
X151905710Y-83984834D01*
X151908100Y-83981115D01*
X151909394Y-83979179D01*
X151969737Y-83833497D01*
X152000500Y-83678842D01*
X152000500Y-83521158D01*
X152000500Y-83521155D01*
X152000499Y-83521153D01*
X154299500Y-83521153D01*
X154299500Y-83678846D01*
X154330261Y-83833489D01*
X154330264Y-83833501D01*
X154390602Y-83979172D01*
X154390609Y-83979185D01*
X154478210Y-84110288D01*
X154478213Y-84110292D01*
X154589707Y-84221786D01*
X154589711Y-84221789D01*
X154720814Y-84309390D01*
X154720827Y-84309397D01*
X154866498Y-84369735D01*
X154866503Y-84369737D01*
X154955527Y-84387445D01*
X155021153Y-84400499D01*
X155021156Y-84400500D01*
X155021158Y-84400500D01*
X155178844Y-84400500D01*
X155178845Y-84400499D01*
X155333497Y-84369737D01*
X155466852Y-84314500D01*
X155479172Y-84309397D01*
X155479172Y-84309396D01*
X155479179Y-84309394D01*
X155610289Y-84221789D01*
X155721789Y-84110289D01*
X155809394Y-83979179D01*
X155869737Y-83833497D01*
X155900500Y-83678842D01*
X155900500Y-83521158D01*
X155900500Y-83521155D01*
X155900499Y-83521153D01*
X155892417Y-83480524D01*
X155869737Y-83366503D01*
X155833698Y-83279496D01*
X155809397Y-83220827D01*
X155809390Y-83220814D01*
X155721789Y-83089711D01*
X155721786Y-83089707D01*
X155610292Y-82978213D01*
X155610288Y-82978210D01*
X155479185Y-82890609D01*
X155479172Y-82890602D01*
X155333501Y-82830264D01*
X155333489Y-82830261D01*
X155178845Y-82799500D01*
X155178842Y-82799500D01*
X155021158Y-82799500D01*
X155021155Y-82799500D01*
X154866510Y-82830261D01*
X154866498Y-82830264D01*
X154720827Y-82890602D01*
X154720814Y-82890609D01*
X154589711Y-82978210D01*
X154589707Y-82978213D01*
X154478213Y-83089707D01*
X154478210Y-83089711D01*
X154390609Y-83220814D01*
X154390602Y-83220827D01*
X154330264Y-83366498D01*
X154330261Y-83366510D01*
X154299500Y-83521153D01*
X152000499Y-83521153D01*
X151992417Y-83480524D01*
X151969737Y-83366503D01*
X151933698Y-83279496D01*
X151909397Y-83220827D01*
X151909390Y-83220814D01*
X151821789Y-83089711D01*
X151821786Y-83089707D01*
X151710292Y-82978213D01*
X151710288Y-82978210D01*
X151579185Y-82890609D01*
X151579172Y-82890602D01*
X151433501Y-82830264D01*
X151433489Y-82830261D01*
X151278845Y-82799500D01*
X151278842Y-82799500D01*
X151121158Y-82799500D01*
X151121155Y-82799500D01*
X150966510Y-82830261D01*
X150966498Y-82830264D01*
X150820827Y-82890602D01*
X150820814Y-82890609D01*
X150689711Y-82978210D01*
X150689707Y-82978213D01*
X150578213Y-83089707D01*
X150578210Y-83089711D01*
X150490609Y-83220814D01*
X150490602Y-83220827D01*
X150430264Y-83366498D01*
X150430261Y-83366510D01*
X150399500Y-83521153D01*
X146950500Y-83521153D01*
X146950499Y-82720827D01*
X146950499Y-81830143D01*
X146950499Y-81830136D01*
X146949648Y-81822794D01*
X146947586Y-81805012D01*
X146947585Y-81805010D01*
X146947585Y-81805009D01*
X146902206Y-81702235D01*
X146822765Y-81622794D01*
X146777569Y-81602838D01*
X146719992Y-81577415D01*
X146694865Y-81574500D01*
X144905143Y-81574500D01*
X144905117Y-81574502D01*
X144880012Y-81577413D01*
X144880008Y-81577415D01*
X144777235Y-81622793D01*
X144697794Y-81702234D01*
X144652415Y-81805006D01*
X144652415Y-81805008D01*
X144649500Y-81830131D01*
X132415300Y-81830131D01*
X132415300Y-80930817D01*
X161774500Y-80930817D01*
X161774500Y-81069183D01*
X161808792Y-81197161D01*
X161810312Y-81202835D01*
X161810313Y-81202838D01*
X161879492Y-81322661D01*
X161879494Y-81322663D01*
X161879495Y-81322665D01*
X161977335Y-81420505D01*
X162097164Y-81489688D01*
X162230817Y-81525500D01*
X162230819Y-81525500D01*
X162369181Y-81525500D01*
X162369183Y-81525500D01*
X162502836Y-81489688D01*
X162622665Y-81420505D01*
X162712353Y-81330817D01*
X163374500Y-81330817D01*
X163374500Y-81469183D01*
X163402720Y-81574500D01*
X163410312Y-81602835D01*
X163410313Y-81602838D01*
X163479492Y-81722661D01*
X163479494Y-81722664D01*
X163479495Y-81722665D01*
X163577335Y-81820505D01*
X163577336Y-81820506D01*
X163577338Y-81820507D01*
X163637249Y-81855096D01*
X163697164Y-81889688D01*
X163830817Y-81925500D01*
X163830819Y-81925500D01*
X163969181Y-81925500D01*
X163969183Y-81925500D01*
X164102836Y-81889688D01*
X164221906Y-81820943D01*
X193839500Y-81820943D01*
X193839500Y-81979057D01*
X193853189Y-82030143D01*
X193880423Y-82131783D01*
X193880426Y-82131790D01*
X193959475Y-82268709D01*
X193959481Y-82268717D01*
X194053083Y-82362319D01*
X194086568Y-82423642D01*
X194081584Y-82493334D01*
X194053083Y-82537681D01*
X193959481Y-82631282D01*
X193959475Y-82631290D01*
X193880426Y-82768209D01*
X193880423Y-82768216D01*
X193839500Y-82920943D01*
X193839500Y-83079057D01*
X193877486Y-83220821D01*
X193880423Y-83231783D01*
X193880426Y-83231790D01*
X193959475Y-83368709D01*
X193959479Y-83368714D01*
X193959480Y-83368716D01*
X194071284Y-83480520D01*
X194071286Y-83480521D01*
X194071290Y-83480524D01*
X194149192Y-83525500D01*
X194208216Y-83559577D01*
X194314314Y-83588005D01*
X194373973Y-83624370D01*
X194401994Y-83675686D01*
X194430423Y-83781785D01*
X194430426Y-83781790D01*
X194509475Y-83918709D01*
X194509479Y-83918714D01*
X194509480Y-83918716D01*
X194621284Y-84030520D01*
X194621286Y-84030521D01*
X194621290Y-84030524D01*
X194749658Y-84104636D01*
X194758216Y-84109577D01*
X194910943Y-84150500D01*
X194910945Y-84150500D01*
X195069055Y-84150500D01*
X195069057Y-84150500D01*
X195221784Y-84109577D01*
X195358716Y-84030520D01*
X195452319Y-83936917D01*
X195513642Y-83903432D01*
X195583334Y-83908416D01*
X195627681Y-83936917D01*
X195721284Y-84030520D01*
X195721286Y-84030521D01*
X195721290Y-84030524D01*
X195849658Y-84104636D01*
X195858216Y-84109577D01*
X196010943Y-84150500D01*
X196010945Y-84150500D01*
X196169055Y-84150500D01*
X196169057Y-84150500D01*
X196321784Y-84109577D01*
X196458716Y-84030520D01*
X196570520Y-83918716D01*
X196649577Y-83781784D01*
X196678005Y-83675685D01*
X196714370Y-83616026D01*
X196765685Y-83588006D01*
X196871784Y-83559577D01*
X197008716Y-83480520D01*
X197120520Y-83368716D01*
X197199577Y-83231784D01*
X197240500Y-83079057D01*
X197240500Y-82930817D01*
X198474500Y-82930817D01*
X198474500Y-83069183D01*
X198503884Y-83178844D01*
X198510312Y-83202835D01*
X198510313Y-83202838D01*
X198579492Y-83322661D01*
X198579494Y-83322664D01*
X198579495Y-83322665D01*
X198677335Y-83420505D01*
X198797164Y-83489688D01*
X198930817Y-83525500D01*
X198930819Y-83525500D01*
X199069181Y-83525500D01*
X199069183Y-83525500D01*
X199202836Y-83489688D01*
X199322665Y-83420505D01*
X199420505Y-83322665D01*
X199489688Y-83202836D01*
X199525500Y-83069183D01*
X199525500Y-82930817D01*
X199489688Y-82797164D01*
X199420505Y-82677335D01*
X199322665Y-82579495D01*
X199322664Y-82579494D01*
X199322661Y-82579492D01*
X199202838Y-82510313D01*
X199202837Y-82510312D01*
X199202836Y-82510312D01*
X199069183Y-82474500D01*
X198930817Y-82474500D01*
X198797164Y-82510312D01*
X198797161Y-82510313D01*
X198677338Y-82579492D01*
X198677333Y-82579496D01*
X198579496Y-82677333D01*
X198579492Y-82677338D01*
X198510313Y-82797161D01*
X198510312Y-82797164D01*
X198474500Y-82930817D01*
X197240500Y-82930817D01*
X197240500Y-82920943D01*
X197199577Y-82768216D01*
X197147109Y-82677338D01*
X197120524Y-82631290D01*
X197120518Y-82631282D01*
X197026917Y-82537681D01*
X196993432Y-82476358D01*
X196998416Y-82406666D01*
X197026917Y-82362319D01*
X197058975Y-82330261D01*
X197120520Y-82268716D01*
X197199577Y-82131784D01*
X197240500Y-81979057D01*
X197240500Y-81820943D01*
X197199577Y-81668216D01*
X197173352Y-81622793D01*
X197120524Y-81531290D01*
X197120518Y-81531282D01*
X197008717Y-81419481D01*
X197008709Y-81419475D01*
X196871790Y-81340426D01*
X196871785Y-81340423D01*
X196765686Y-81311994D01*
X196706026Y-81275628D01*
X196678006Y-81224314D01*
X196649577Y-81118216D01*
X196649573Y-81118209D01*
X196570524Y-80981290D01*
X196570518Y-80981282D01*
X196458717Y-80869481D01*
X196458709Y-80869475D01*
X196321790Y-80790426D01*
X196321786Y-80790424D01*
X196321784Y-80790423D01*
X196169057Y-80749500D01*
X196010943Y-80749500D01*
X195858216Y-80790423D01*
X195858209Y-80790426D01*
X195721290Y-80869475D01*
X195721282Y-80869481D01*
X195627681Y-80963083D01*
X195566358Y-80996568D01*
X195496666Y-80991584D01*
X195452319Y-80963083D01*
X195358717Y-80869481D01*
X195358709Y-80869475D01*
X195221790Y-80790426D01*
X195221786Y-80790424D01*
X195221784Y-80790423D01*
X195069057Y-80749500D01*
X194910943Y-80749500D01*
X194758216Y-80790423D01*
X194758209Y-80790426D01*
X194621290Y-80869475D01*
X194621282Y-80869481D01*
X194509481Y-80981282D01*
X194509475Y-80981290D01*
X194430426Y-81118209D01*
X194430424Y-81118213D01*
X194401994Y-81224314D01*
X194365628Y-81283974D01*
X194314314Y-81311994D01*
X194274505Y-81322661D01*
X194208216Y-81340423D01*
X194208215Y-81340423D01*
X194208213Y-81340424D01*
X194208209Y-81340426D01*
X194071290Y-81419475D01*
X194071282Y-81419481D01*
X193959481Y-81531282D01*
X193959475Y-81531290D01*
X193880426Y-81668209D01*
X193880423Y-81668216D01*
X193839500Y-81820943D01*
X164221906Y-81820943D01*
X164222665Y-81820505D01*
X164320505Y-81722665D01*
X164389688Y-81602836D01*
X164425500Y-81469183D01*
X164425500Y-81330817D01*
X164389688Y-81197164D01*
X164382485Y-81184688D01*
X164382485Y-81184687D01*
X164351383Y-81130817D01*
X167074500Y-81130817D01*
X167074500Y-81269183D01*
X167093590Y-81340426D01*
X167110312Y-81402835D01*
X167110313Y-81402838D01*
X167179492Y-81522661D01*
X167179494Y-81522664D01*
X167179495Y-81522665D01*
X167277335Y-81620505D01*
X167277336Y-81620506D01*
X167277338Y-81620507D01*
X167337249Y-81655096D01*
X167397164Y-81689688D01*
X167530817Y-81725500D01*
X167530819Y-81725500D01*
X167669181Y-81725500D01*
X167669183Y-81725500D01*
X167802836Y-81689688D01*
X167922665Y-81620505D01*
X168020505Y-81522665D01*
X168089688Y-81402836D01*
X168125500Y-81269183D01*
X168125500Y-81130817D01*
X168089688Y-80997164D01*
X168020505Y-80877335D01*
X167922665Y-80779495D01*
X167922664Y-80779494D01*
X167922661Y-80779492D01*
X167802838Y-80710313D01*
X167802837Y-80710312D01*
X167802836Y-80710312D01*
X167669183Y-80674500D01*
X167530817Y-80674500D01*
X167397164Y-80710312D01*
X167397161Y-80710313D01*
X167277338Y-80779492D01*
X167277333Y-80779496D01*
X167179496Y-80877333D01*
X167179492Y-80877338D01*
X167110313Y-80997161D01*
X167110312Y-80997164D01*
X167074500Y-81130817D01*
X164351383Y-81130817D01*
X164320509Y-81077341D01*
X164320503Y-81077333D01*
X164222666Y-80979496D01*
X164222661Y-80979492D01*
X164102838Y-80910313D01*
X164102837Y-80910312D01*
X164102836Y-80910312D01*
X163969183Y-80874500D01*
X163830817Y-80874500D01*
X163697164Y-80910312D01*
X163697161Y-80910313D01*
X163577338Y-80979492D01*
X163577333Y-80979496D01*
X163479496Y-81077333D01*
X163479492Y-81077338D01*
X163410313Y-81197161D01*
X163410312Y-81197164D01*
X163374500Y-81330817D01*
X162712353Y-81330817D01*
X162720505Y-81322665D01*
X162789688Y-81202836D01*
X162825500Y-81069183D01*
X162825500Y-80930817D01*
X162789688Y-80797164D01*
X162720505Y-80677335D01*
X162622665Y-80579495D01*
X162622664Y-80579494D01*
X162622661Y-80579492D01*
X162502838Y-80510313D01*
X162502837Y-80510312D01*
X162502836Y-80510312D01*
X162369183Y-80474500D01*
X162230817Y-80474500D01*
X162097164Y-80510312D01*
X162097161Y-80510313D01*
X161977338Y-80579492D01*
X161977333Y-80579496D01*
X161879496Y-80677333D01*
X161879492Y-80677338D01*
X161810313Y-80797161D01*
X161810312Y-80797164D01*
X161774500Y-80930817D01*
X132415300Y-80930817D01*
X132415300Y-77581995D01*
X140099500Y-77581995D01*
X140099500Y-77818004D01*
X140099501Y-77818020D01*
X140127516Y-78030819D01*
X140130307Y-78052014D01*
X140135841Y-78072666D01*
X140191394Y-78279993D01*
X140281714Y-78498045D01*
X140281719Y-78498056D01*
X140334623Y-78589687D01*
X140399727Y-78702450D01*
X140399729Y-78702453D01*
X140399730Y-78702454D01*
X140543406Y-78889697D01*
X140543412Y-78889704D01*
X140710295Y-79056587D01*
X140710301Y-79056592D01*
X140897550Y-79200273D01*
X141028918Y-79276118D01*
X141101943Y-79318280D01*
X141101948Y-79318282D01*
X141101951Y-79318284D01*
X141320007Y-79408606D01*
X141547986Y-79469693D01*
X141781989Y-79500500D01*
X141781996Y-79500500D01*
X141824924Y-79500500D01*
X141891963Y-79520185D01*
X141937718Y-79572989D01*
X141947662Y-79642147D01*
X141918637Y-79705703D01*
X141859859Y-79743477D01*
X141857053Y-79744264D01*
X141797164Y-79760312D01*
X141797161Y-79760313D01*
X141677338Y-79829492D01*
X141677333Y-79829496D01*
X141579496Y-79927333D01*
X141579492Y-79927338D01*
X141510313Y-80047161D01*
X141510312Y-80047164D01*
X141474500Y-80180817D01*
X141474500Y-80319183D01*
X141508792Y-80447161D01*
X141510312Y-80452835D01*
X141510313Y-80452838D01*
X141579492Y-80572661D01*
X141579494Y-80572664D01*
X141579495Y-80572665D01*
X141677335Y-80670505D01*
X141677336Y-80670506D01*
X141677338Y-80670507D01*
X141689161Y-80677333D01*
X141797164Y-80739688D01*
X141930817Y-80775500D01*
X141930819Y-80775500D01*
X142069181Y-80775500D01*
X142069183Y-80775500D01*
X142202836Y-80739688D01*
X142322665Y-80670505D01*
X142420505Y-80572665D01*
X142489688Y-80452836D01*
X142525500Y-80319183D01*
X142525500Y-80180817D01*
X142489688Y-80047164D01*
X142420505Y-79927335D01*
X142322665Y-79829495D01*
X142322664Y-79829494D01*
X142322661Y-79829492D01*
X142202838Y-79760313D01*
X142202837Y-79760312D01*
X142093912Y-79731126D01*
X142034252Y-79694761D01*
X142003723Y-79631913D01*
X142012018Y-79562538D01*
X142038209Y-79530817D01*
X169474500Y-79530817D01*
X169474500Y-79669183D01*
X169505132Y-79783501D01*
X169510312Y-79802835D01*
X169510313Y-79802838D01*
X169579492Y-79922661D01*
X169579494Y-79922664D01*
X169579495Y-79922665D01*
X169677335Y-80020505D01*
X169677336Y-80020506D01*
X169677338Y-80020507D01*
X169723505Y-80047161D01*
X169797164Y-80089688D01*
X169930817Y-80125500D01*
X169930819Y-80125500D01*
X170069181Y-80125500D01*
X170069183Y-80125500D01*
X170202836Y-80089688D01*
X170322665Y-80020505D01*
X170420505Y-79922665D01*
X170444666Y-79880817D01*
X171974500Y-79880817D01*
X171974500Y-80019183D01*
X172002988Y-80125500D01*
X172010312Y-80152835D01*
X172010312Y-80152836D01*
X172059481Y-80238001D01*
X172075952Y-80305902D01*
X172059481Y-80361999D01*
X172010312Y-80447163D01*
X172010312Y-80447164D01*
X171974500Y-80580817D01*
X171974500Y-80719183D01*
X171993590Y-80790426D01*
X172010312Y-80852835D01*
X172010313Y-80852838D01*
X172079492Y-80972661D01*
X172079494Y-80972664D01*
X172079495Y-80972665D01*
X172177335Y-81070505D01*
X172297164Y-81139688D01*
X172430817Y-81175500D01*
X172430819Y-81175500D01*
X172569181Y-81175500D01*
X172569183Y-81175500D01*
X172702836Y-81139688D01*
X172822665Y-81070505D01*
X172920505Y-80972665D01*
X172989688Y-80852836D01*
X173022383Y-80730817D01*
X185874500Y-80730817D01*
X185874500Y-80869183D01*
X185908792Y-80997161D01*
X185910312Y-81002835D01*
X185910313Y-81002838D01*
X185979492Y-81122661D01*
X185979494Y-81122664D01*
X185979495Y-81122665D01*
X186077335Y-81220505D01*
X186077336Y-81220506D01*
X186077338Y-81220507D01*
X186083932Y-81224314D01*
X186197164Y-81289688D01*
X186330817Y-81325500D01*
X186330819Y-81325500D01*
X186469181Y-81325500D01*
X186469183Y-81325500D01*
X186602836Y-81289688D01*
X186722665Y-81220505D01*
X186820505Y-81122665D01*
X186889688Y-81002836D01*
X186925500Y-80869183D01*
X186925500Y-80730817D01*
X186889688Y-80597164D01*
X186820505Y-80477335D01*
X186722665Y-80379495D01*
X186722664Y-80379494D01*
X186722661Y-80379492D01*
X186602838Y-80310313D01*
X186602837Y-80310312D01*
X186602836Y-80310312D01*
X186469183Y-80274500D01*
X186330817Y-80274500D01*
X186197164Y-80310312D01*
X186197161Y-80310313D01*
X186077338Y-80379492D01*
X186077333Y-80379496D01*
X185979496Y-80477333D01*
X185979492Y-80477338D01*
X185910313Y-80597161D01*
X185910312Y-80597164D01*
X185874500Y-80730817D01*
X173022383Y-80730817D01*
X173025500Y-80719183D01*
X173025500Y-80580817D01*
X172989688Y-80447164D01*
X172950620Y-80379496D01*
X172940519Y-80362000D01*
X172924046Y-80294099D01*
X172940519Y-80238000D01*
X172973533Y-80180817D01*
X172989688Y-80152836D01*
X173025500Y-80019183D01*
X173025500Y-79880817D01*
X172989688Y-79747164D01*
X172923148Y-79631913D01*
X172920507Y-79627338D01*
X172920503Y-79627333D01*
X172822666Y-79529496D01*
X172822657Y-79529489D01*
X172702842Y-79460315D01*
X172702838Y-79460313D01*
X172702836Y-79460312D01*
X172592759Y-79430817D01*
X185774500Y-79430817D01*
X185774500Y-79569183D01*
X185808149Y-79694761D01*
X185810312Y-79702835D01*
X185810313Y-79702838D01*
X185879492Y-79822661D01*
X185879494Y-79822664D01*
X185879495Y-79822665D01*
X185977335Y-79920505D01*
X185977336Y-79920506D01*
X185977338Y-79920507D01*
X185992359Y-79929179D01*
X186097164Y-79989688D01*
X186230817Y-80025500D01*
X186230819Y-80025500D01*
X186369181Y-80025500D01*
X186369183Y-80025500D01*
X186502836Y-79989688D01*
X186622665Y-79920505D01*
X186720505Y-79822665D01*
X186789688Y-79702836D01*
X186825500Y-79569183D01*
X186825500Y-79471153D01*
X198899500Y-79471153D01*
X198899500Y-79628846D01*
X198930261Y-79783489D01*
X198930264Y-79783501D01*
X198990602Y-79929172D01*
X198990609Y-79929185D01*
X199078210Y-80060288D01*
X199078213Y-80060292D01*
X199189707Y-80171786D01*
X199189711Y-80171789D01*
X199320814Y-80259390D01*
X199320827Y-80259397D01*
X199466498Y-80319735D01*
X199466503Y-80319737D01*
X199621153Y-80350499D01*
X199621156Y-80350500D01*
X199621158Y-80350500D01*
X199778844Y-80350500D01*
X199778845Y-80350499D01*
X199933497Y-80319737D01*
X200079179Y-80259394D01*
X200210289Y-80171789D01*
X200321789Y-80060289D01*
X200409394Y-79929179D01*
X200469737Y-79783497D01*
X200500500Y-79628842D01*
X200500500Y-79471158D01*
X200500500Y-79471155D01*
X200500499Y-79471153D01*
X200491219Y-79424500D01*
X200469737Y-79316503D01*
X200461725Y-79297161D01*
X200409397Y-79170827D01*
X200409390Y-79170814D01*
X200321789Y-79039711D01*
X200321786Y-79039707D01*
X200210292Y-78928213D01*
X200210288Y-78928210D01*
X200079185Y-78840609D01*
X200079172Y-78840602D01*
X199933501Y-78780264D01*
X199933489Y-78780261D01*
X199778845Y-78749500D01*
X199778842Y-78749500D01*
X199621158Y-78749500D01*
X199621155Y-78749500D01*
X199466510Y-78780261D01*
X199466498Y-78780264D01*
X199320827Y-78840602D01*
X199320814Y-78840609D01*
X199189711Y-78928210D01*
X199189707Y-78928213D01*
X199078213Y-79039707D01*
X199078210Y-79039711D01*
X198990609Y-79170814D01*
X198990602Y-79170827D01*
X198930264Y-79316498D01*
X198930261Y-79316510D01*
X198899500Y-79471153D01*
X186825500Y-79471153D01*
X186825500Y-79430817D01*
X186789688Y-79297164D01*
X186721752Y-79179495D01*
X186720507Y-79177338D01*
X186720503Y-79177333D01*
X186622666Y-79079496D01*
X186622661Y-79079492D01*
X186502838Y-79010313D01*
X186502837Y-79010312D01*
X186502836Y-79010312D01*
X186369183Y-78974500D01*
X186230817Y-78974500D01*
X186097164Y-79010312D01*
X186097161Y-79010313D01*
X185977338Y-79079492D01*
X185977333Y-79079496D01*
X185879496Y-79177333D01*
X185879492Y-79177338D01*
X185810313Y-79297161D01*
X185810312Y-79297164D01*
X185774500Y-79430817D01*
X172592759Y-79430817D01*
X172569183Y-79424500D01*
X172430817Y-79424500D01*
X172297164Y-79460312D01*
X172297161Y-79460313D01*
X172177338Y-79529492D01*
X172177333Y-79529496D01*
X172079496Y-79627333D01*
X172079492Y-79627338D01*
X172010313Y-79747161D01*
X172010312Y-79747164D01*
X171974500Y-79880817D01*
X170444666Y-79880817D01*
X170474296Y-79829496D01*
X170485154Y-79810690D01*
X170486814Y-79807812D01*
X170489688Y-79802836D01*
X170525500Y-79669183D01*
X170525500Y-79530817D01*
X170489688Y-79397164D01*
X170431953Y-79297164D01*
X170420507Y-79277338D01*
X170420503Y-79277333D01*
X170322666Y-79179496D01*
X170322661Y-79179492D01*
X170202838Y-79110313D01*
X170202837Y-79110312D01*
X170202836Y-79110312D01*
X170069183Y-79074500D01*
X169930817Y-79074500D01*
X169797164Y-79110312D01*
X169797161Y-79110313D01*
X169677338Y-79179492D01*
X169677333Y-79179496D01*
X169579496Y-79277333D01*
X169579492Y-79277338D01*
X169510313Y-79397161D01*
X169510312Y-79397164D01*
X169474500Y-79530817D01*
X142038209Y-79530817D01*
X142056503Y-79508660D01*
X142109818Y-79488413D01*
X142252014Y-79469693D01*
X142479993Y-79408606D01*
X142698049Y-79318284D01*
X142902450Y-79200273D01*
X143089699Y-79056592D01*
X143256592Y-78889699D01*
X143400273Y-78702450D01*
X143518284Y-78498049D01*
X143608606Y-78279993D01*
X143669693Y-78052014D01*
X143700500Y-77818011D01*
X143700500Y-77680817D01*
X156474500Y-77680817D01*
X156474500Y-77819183D01*
X156507281Y-77941522D01*
X156510312Y-77952835D01*
X156510313Y-77952838D01*
X156579492Y-78072661D01*
X156579494Y-78072664D01*
X156579495Y-78072665D01*
X156677335Y-78170505D01*
X156797164Y-78239688D01*
X156930817Y-78275500D01*
X156930819Y-78275500D01*
X157069181Y-78275500D01*
X157069183Y-78275500D01*
X157202836Y-78239688D01*
X157322665Y-78170505D01*
X157420505Y-78072665D01*
X157489688Y-77952836D01*
X157525500Y-77819183D01*
X157525500Y-77680817D01*
X157489688Y-77547164D01*
X157420505Y-77427335D01*
X157322665Y-77329495D01*
X157322664Y-77329494D01*
X157322661Y-77329492D01*
X157202838Y-77260313D01*
X157202837Y-77260312D01*
X157202836Y-77260312D01*
X157069183Y-77224500D01*
X156930817Y-77224500D01*
X156797164Y-77260312D01*
X156797161Y-77260313D01*
X156677338Y-77329492D01*
X156677333Y-77329496D01*
X156579496Y-77427333D01*
X156579492Y-77427338D01*
X156510313Y-77547161D01*
X156510312Y-77547164D01*
X156474500Y-77680817D01*
X143700500Y-77680817D01*
X143700500Y-77581989D01*
X143669693Y-77347986D01*
X143608606Y-77120007D01*
X143518284Y-76901951D01*
X143518282Y-76901948D01*
X143518280Y-76901943D01*
X143444700Y-76774500D01*
X143400273Y-76697550D01*
X143256592Y-76510301D01*
X143256587Y-76510295D01*
X143089704Y-76343412D01*
X143089697Y-76343406D01*
X142902454Y-76199730D01*
X142902453Y-76199729D01*
X142902450Y-76199727D01*
X142783098Y-76130819D01*
X142698056Y-76081719D01*
X142698045Y-76081714D01*
X142479993Y-75991394D01*
X142252010Y-75930306D01*
X142018020Y-75899501D01*
X142018017Y-75899500D01*
X142018011Y-75899500D01*
X141781989Y-75899500D01*
X141781983Y-75899500D01*
X141781979Y-75899501D01*
X141547989Y-75930306D01*
X141320006Y-75991394D01*
X141101954Y-76081714D01*
X141101943Y-76081719D01*
X140897545Y-76199730D01*
X140710302Y-76343406D01*
X140710295Y-76343412D01*
X140543412Y-76510295D01*
X140543406Y-76510302D01*
X140399730Y-76697545D01*
X140281719Y-76901943D01*
X140281714Y-76901954D01*
X140191394Y-77120006D01*
X140130306Y-77347989D01*
X140099501Y-77581979D01*
X140099500Y-77581995D01*
X132415300Y-77581995D01*
X132415300Y-75630817D01*
X150474500Y-75630817D01*
X150474500Y-75769183D01*
X150509419Y-75899501D01*
X150510312Y-75902835D01*
X150510313Y-75902838D01*
X150579492Y-76022661D01*
X150579494Y-76022664D01*
X150579495Y-76022665D01*
X150677335Y-76120505D01*
X150677336Y-76120506D01*
X150677338Y-76120507D01*
X150681076Y-76122665D01*
X150797164Y-76189688D01*
X150930817Y-76225500D01*
X150930819Y-76225500D01*
X151069181Y-76225500D01*
X151069183Y-76225500D01*
X151202836Y-76189688D01*
X151322665Y-76120505D01*
X151420505Y-76022665D01*
X151489688Y-75902836D01*
X151508985Y-75830817D01*
X154724500Y-75830817D01*
X154724500Y-75969183D01*
X154754653Y-76081714D01*
X154760312Y-76102835D01*
X154760313Y-76102838D01*
X154829492Y-76222661D01*
X154829494Y-76222664D01*
X154829495Y-76222665D01*
X154927335Y-76320505D01*
X154927336Y-76320506D01*
X154927338Y-76320507D01*
X154967001Y-76343406D01*
X155047164Y-76389688D01*
X155180817Y-76425500D01*
X155180819Y-76425500D01*
X155319181Y-76425500D01*
X155319183Y-76425500D01*
X155452836Y-76389688D01*
X155572665Y-76320505D01*
X155670505Y-76222665D01*
X155739688Y-76102836D01*
X155775500Y-75969183D01*
X155775500Y-75830817D01*
X155739688Y-75697164D01*
X155681953Y-75597164D01*
X155670507Y-75577338D01*
X155670503Y-75577333D01*
X155572666Y-75479496D01*
X155572661Y-75479492D01*
X155452838Y-75410313D01*
X155452837Y-75410312D01*
X155452836Y-75410312D01*
X155319183Y-75374500D01*
X155180817Y-75374500D01*
X155047164Y-75410312D01*
X155047161Y-75410313D01*
X154927338Y-75479492D01*
X154927333Y-75479496D01*
X154829496Y-75577333D01*
X154829492Y-75577338D01*
X154760313Y-75697161D01*
X154760312Y-75697164D01*
X154724500Y-75830817D01*
X151508985Y-75830817D01*
X151525500Y-75769183D01*
X151525500Y-75630817D01*
X151489688Y-75497164D01*
X151421752Y-75379495D01*
X151420507Y-75377338D01*
X151420503Y-75377333D01*
X151322666Y-75279496D01*
X151322661Y-75279492D01*
X151202838Y-75210313D01*
X151202837Y-75210312D01*
X151202836Y-75210312D01*
X151069183Y-75174500D01*
X150930817Y-75174500D01*
X150797164Y-75210312D01*
X150797161Y-75210313D01*
X150677338Y-75279492D01*
X150677333Y-75279496D01*
X150579496Y-75377333D01*
X150579492Y-75377338D01*
X150510313Y-75497161D01*
X150510312Y-75497164D01*
X150474500Y-75630817D01*
X132415300Y-75630817D01*
X132415300Y-72878711D01*
X137149500Y-72878711D01*
X137149500Y-73121288D01*
X137181161Y-73361785D01*
X137243947Y-73596104D01*
X137336773Y-73820205D01*
X137336777Y-73820214D01*
X137342137Y-73829497D01*
X137458064Y-74030289D01*
X137458066Y-74030292D01*
X137458067Y-74030293D01*
X137605733Y-74222736D01*
X137605739Y-74222743D01*
X137777256Y-74394260D01*
X137777263Y-74394266D01*
X137874720Y-74469047D01*
X137969711Y-74541936D01*
X138179788Y-74663224D01*
X138403900Y-74756054D01*
X138638211Y-74818838D01*
X138780809Y-74837611D01*
X138878711Y-74850500D01*
X138878712Y-74850500D01*
X139121289Y-74850500D01*
X139193274Y-74841023D01*
X139361789Y-74818838D01*
X139596100Y-74756054D01*
X139820212Y-74663224D01*
X140030289Y-74541936D01*
X140222738Y-74394265D01*
X140394265Y-74222738D01*
X140541936Y-74030289D01*
X140663224Y-73820212D01*
X140756054Y-73596100D01*
X140818838Y-73361789D01*
X140850500Y-73121288D01*
X140850500Y-72878712D01*
X140850500Y-72878711D01*
X155149500Y-72878711D01*
X155149500Y-73121288D01*
X155181161Y-73361785D01*
X155243947Y-73596104D01*
X155336773Y-73820205D01*
X155336777Y-73820214D01*
X155342137Y-73829497D01*
X155458064Y-74030289D01*
X155458066Y-74030292D01*
X155458067Y-74030293D01*
X155605733Y-74222736D01*
X155605739Y-74222743D01*
X155777256Y-74394260D01*
X155777263Y-74394266D01*
X155874720Y-74469047D01*
X155969711Y-74541936D01*
X156179788Y-74663224D01*
X156403900Y-74756054D01*
X156638211Y-74818838D01*
X156780809Y-74837611D01*
X156878711Y-74850500D01*
X156878712Y-74850500D01*
X157121289Y-74850500D01*
X157193274Y-74841023D01*
X157361789Y-74818838D01*
X157596100Y-74756054D01*
X157820212Y-74663224D01*
X158030289Y-74541936D01*
X158222738Y-74394265D01*
X158394265Y-74222738D01*
X158541936Y-74030289D01*
X158663224Y-73820212D01*
X158756054Y-73596100D01*
X158818838Y-73361789D01*
X158850500Y-73121288D01*
X158850500Y-72878712D01*
X158818838Y-72638211D01*
X158756054Y-72403900D01*
X158663224Y-72179788D01*
X158541936Y-71969711D01*
X158459050Y-71861691D01*
X158394266Y-71777263D01*
X158394260Y-71777256D01*
X158222743Y-71605739D01*
X158222736Y-71605733D01*
X158030293Y-71458067D01*
X158030292Y-71458066D01*
X158030289Y-71458064D01*
X157820212Y-71336776D01*
X157744908Y-71305584D01*
X157744896Y-71305579D01*
X163059300Y-71305579D01*
X163059300Y-72692820D01*
X163095825Y-72876443D01*
X163095827Y-72876451D01*
X163167476Y-73049428D01*
X163167481Y-73049437D01*
X163271497Y-73205107D01*
X163271500Y-73205111D01*
X163403888Y-73337499D01*
X163403892Y-73337502D01*
X163559562Y-73441518D01*
X163559568Y-73441521D01*
X163559569Y-73441522D01*
X163732549Y-73513173D01*
X163916179Y-73549699D01*
X163916183Y-73549700D01*
X163916184Y-73549700D01*
X164103417Y-73549700D01*
X164103418Y-73549699D01*
X164287051Y-73513173D01*
X164460031Y-73441522D01*
X164615708Y-73337502D01*
X164748102Y-73205108D01*
X164852122Y-73049431D01*
X164923773Y-72876451D01*
X164960300Y-72692816D01*
X164960300Y-71305584D01*
X164923773Y-71121949D01*
X164852122Y-70948969D01*
X164852121Y-70948968D01*
X164852118Y-70948962D01*
X164748102Y-70793292D01*
X164748099Y-70793288D01*
X164615711Y-70660900D01*
X164615707Y-70660897D01*
X164460037Y-70556881D01*
X164460028Y-70556876D01*
X164287051Y-70485227D01*
X164287043Y-70485225D01*
X164103420Y-70448700D01*
X164103416Y-70448700D01*
X163916184Y-70448700D01*
X163916179Y-70448700D01*
X163732556Y-70485225D01*
X163732548Y-70485227D01*
X163559571Y-70556876D01*
X163559562Y-70556881D01*
X163403892Y-70660897D01*
X163403888Y-70660900D01*
X163271500Y-70793288D01*
X163271497Y-70793292D01*
X163167481Y-70948962D01*
X163167476Y-70948971D01*
X163095827Y-71121948D01*
X163095825Y-71121956D01*
X163059300Y-71305579D01*
X157744896Y-71305579D01*
X157596104Y-71243947D01*
X157361785Y-71181161D01*
X157121289Y-71149500D01*
X157121288Y-71149500D01*
X156878712Y-71149500D01*
X156878711Y-71149500D01*
X156638214Y-71181161D01*
X156403895Y-71243947D01*
X156179794Y-71336773D01*
X156179785Y-71336777D01*
X155969706Y-71458067D01*
X155777263Y-71605733D01*
X155777256Y-71605739D01*
X155605739Y-71777256D01*
X155605733Y-71777263D01*
X155458067Y-71969706D01*
X155336777Y-72179785D01*
X155336773Y-72179794D01*
X155243947Y-72403895D01*
X155181161Y-72638214D01*
X155149500Y-72878711D01*
X140850500Y-72878711D01*
X140818838Y-72638211D01*
X140756054Y-72403900D01*
X140663224Y-72179788D01*
X140541936Y-71969711D01*
X140459050Y-71861691D01*
X140394266Y-71777263D01*
X140394260Y-71777256D01*
X140222743Y-71605739D01*
X140222736Y-71605733D01*
X140030293Y-71458067D01*
X140030292Y-71458066D01*
X140030289Y-71458064D01*
X139820212Y-71336776D01*
X139744908Y-71305584D01*
X139596104Y-71243947D01*
X139361785Y-71181161D01*
X139121289Y-71149500D01*
X139121288Y-71149500D01*
X138878712Y-71149500D01*
X138878711Y-71149500D01*
X138638214Y-71181161D01*
X138403895Y-71243947D01*
X138179794Y-71336773D01*
X138179785Y-71336777D01*
X137969706Y-71458067D01*
X137777263Y-71605733D01*
X137777256Y-71605739D01*
X137605739Y-71777256D01*
X137605733Y-71777263D01*
X137458067Y-71969706D01*
X137336777Y-72179785D01*
X137336773Y-72179794D01*
X137243947Y-72403895D01*
X137181161Y-72638214D01*
X137149500Y-72878711D01*
X132415300Y-72878711D01*
X132415300Y-69522900D01*
X132434985Y-69455861D01*
X132487789Y-69410106D01*
X132539300Y-69398900D01*
X173643400Y-69398900D01*
X173710439Y-69418585D01*
G37*
%TD.AperFunction*%
M02*
