%TF.GenerationSoftware,KiCad,Pcbnew,9.0.0*%
%TF.CreationDate,2025-03-29T02:07:01-04:00*%
%TF.ProjectId,SHERPENT20250113,53484552-5045-44e5-9432-303235303131,rev?*%
%TF.SameCoordinates,Original*%
%TF.FileFunction,Copper,L2,Inr*%
%TF.FilePolarity,Positive*%
%FSLAX46Y46*%
G04 Gerber Fmt 4.6, Leading zero omitted, Abs format (unit mm)*
G04 Created by KiCad (PCBNEW 9.0.0) date 2025-03-29 02:07:01*
%MOMM*%
%LPD*%
G01*
G04 APERTURE LIST*
%TA.AperFunction,ComponentPad*%
%ADD10C,3.000000*%
%TD*%
%TA.AperFunction,ComponentPad*%
%ADD11R,1.700000X1.700000*%
%TD*%
%TA.AperFunction,ComponentPad*%
%ADD12O,1.700000X1.700000*%
%TD*%
%TA.AperFunction,ComponentPad*%
%ADD13R,1.600000X1.600000*%
%TD*%
%TA.AperFunction,ComponentPad*%
%ADD14C,1.600000*%
%TD*%
%TA.AperFunction,ComponentPad*%
%ADD15C,0.648000*%
%TD*%
%TA.AperFunction,ComponentPad*%
%ADD16O,1.300000X2.500000*%
%TD*%
%TA.AperFunction,ComponentPad*%
%ADD17O,1.300000X3.200000*%
%TD*%
%TA.AperFunction,ComponentPad*%
%ADD18R,2.000000X2.000000*%
%TD*%
%TA.AperFunction,ComponentPad*%
%ADD19C,1.700000*%
%TD*%
%TA.AperFunction,ComponentPad*%
%ADD20C,2.000000*%
%TD*%
%TA.AperFunction,HeatsinkPad*%
%ADD21C,0.600000*%
%TD*%
%TA.AperFunction,ViaPad*%
%ADD22C,0.450000*%
%TD*%
%TA.AperFunction,ViaPad*%
%ADD23C,1.000000*%
%TD*%
%TA.AperFunction,Conductor*%
%ADD24C,0.450000*%
%TD*%
G04 APERTURE END LIST*
D10*
X141900000Y-77700000D03*
X154009327Y-91736442D03*
X195500000Y-118000000D03*
D11*
X194920000Y-133200000D03*
D12*
X197460000Y-133200000D03*
X200000000Y-133200000D03*
D10*
X156700000Y-95200000D03*
X191250000Y-118000000D03*
X170800000Y-86700000D03*
D13*
X180400000Y-120255113D03*
D14*
X180400000Y-118255113D03*
D10*
X174800000Y-85900000D03*
D11*
X178900000Y-85025000D03*
D12*
X178900000Y-87565000D03*
D10*
X204000000Y-118000000D03*
D11*
X154000000Y-124540000D03*
D12*
X154000000Y-122000000D03*
X154000000Y-119460000D03*
D11*
X159600000Y-82925000D03*
D12*
X159600000Y-85465000D03*
D10*
X199750000Y-118010255D03*
D15*
X171304800Y-76649200D03*
X170454800Y-76649200D03*
X169604800Y-76649200D03*
X168754800Y-76649200D03*
X167904800Y-76649200D03*
X167054800Y-76649200D03*
X166204800Y-76649200D03*
X165354800Y-76649200D03*
X165354800Y-75299200D03*
X166204800Y-75299200D03*
X167054800Y-75299200D03*
X167904800Y-75299200D03*
X168754800Y-75299200D03*
X169604800Y-75299200D03*
X170454800Y-75299200D03*
X171304800Y-75299200D03*
D16*
X172649800Y-71999200D03*
X164009800Y-71999200D03*
D17*
X172649800Y-76149200D03*
X164009800Y-76149200D03*
D13*
X148200000Y-121655113D03*
D14*
X148200000Y-119655113D03*
D11*
X185860600Y-121979487D03*
D12*
X185860600Y-119439487D03*
X185860600Y-116899487D03*
D11*
X145800000Y-82725000D03*
D12*
X145800000Y-85265000D03*
D18*
X136187500Y-113912500D03*
X150187500Y-113912500D03*
X136187500Y-90912500D03*
X150187500Y-90912500D03*
X138727500Y-90912500D03*
X147647500Y-90912500D03*
D10*
X176200000Y-73800000D03*
D19*
X165750000Y-132750000D03*
X170250000Y-132750000D03*
D20*
X164500000Y-130250000D03*
X171500000Y-130250000D03*
D21*
X196640000Y-83000000D03*
X196640000Y-81900000D03*
X196090000Y-83550000D03*
X196090000Y-82450000D03*
X196090000Y-81350000D03*
X195540000Y-83000000D03*
X195540000Y-81900000D03*
X194990000Y-83550000D03*
X194990000Y-82450000D03*
X194990000Y-81350000D03*
X194440000Y-83000000D03*
X194440000Y-81900000D03*
D22*
X162300000Y-81000000D03*
X157000000Y-77750000D03*
X158900000Y-88700000D03*
X172700000Y-117300000D03*
X172700000Y-120100000D03*
X163600000Y-121600000D03*
D23*
X155100000Y-83600000D03*
X151200000Y-84500000D03*
X151200000Y-83600000D03*
D22*
X164700000Y-101000000D03*
X170200000Y-123600000D03*
X199000000Y-83000000D03*
X182800000Y-78100000D03*
X168762500Y-122062500D03*
X164000000Y-97000000D03*
X198600000Y-125300000D03*
X169400000Y-108300000D03*
X142000000Y-80250000D03*
X164000000Y-94000000D03*
X151000000Y-75700000D03*
X200000000Y-89000000D03*
D23*
X168800000Y-83100000D03*
D22*
X164000000Y-98000000D03*
X164700000Y-97000000D03*
X140400000Y-86000000D03*
X164700000Y-95000000D03*
X164000000Y-99000000D03*
X161100000Y-89300000D03*
X161000000Y-88700000D03*
X164700000Y-98000000D03*
X164000000Y-95000000D03*
X164000000Y-100000000D03*
X135500000Y-117750000D03*
X171300000Y-74100000D03*
X164700000Y-94000000D03*
X164000000Y-96000000D03*
X164700000Y-100000000D03*
X135250000Y-124250000D03*
X164000000Y-101000000D03*
X165300000Y-74200000D03*
X164700000Y-99000000D03*
X164700000Y-96000000D03*
D23*
X205250000Y-89750000D03*
D22*
X170000000Y-79600000D03*
D23*
X154100000Y-103900000D03*
X199700000Y-79550000D03*
D22*
X176750000Y-127500000D03*
X144000000Y-128250000D03*
X170100000Y-120200000D03*
X157200000Y-123800000D03*
X160200000Y-100000000D03*
X159500000Y-100000000D03*
X160200000Y-101000000D03*
X159500000Y-101000000D03*
X160200000Y-97000000D03*
X160200000Y-95000000D03*
X159500000Y-98000000D03*
X159500000Y-96000000D03*
X159500000Y-99000000D03*
X159500000Y-97000000D03*
X159500000Y-95000000D03*
X160200000Y-94000000D03*
X159500000Y-94000000D03*
X166250000Y-101000000D03*
X160200000Y-99000000D03*
X160200000Y-98000000D03*
X160200000Y-96000000D03*
D23*
X165200000Y-89200000D03*
D22*
X191750000Y-76250000D03*
X135500000Y-82500000D03*
X182250000Y-132250000D03*
X150500000Y-130500000D03*
D23*
X202312498Y-78800000D03*
X165200000Y-88000000D03*
X165200000Y-86800000D03*
D22*
X143750000Y-73500000D03*
X141500000Y-123250000D03*
X198500000Y-86000000D03*
X203750000Y-122000000D03*
X179000000Y-81100000D03*
X174500000Y-116250000D03*
X161550000Y-90050000D03*
D23*
X159650000Y-87650000D03*
D22*
X172500000Y-79950000D03*
X172500000Y-80650000D03*
X158503554Y-124396446D03*
X203900000Y-77800000D03*
D23*
X203100000Y-86900000D03*
D22*
X155500000Y-98300000D03*
X162718762Y-102374760D03*
X162014233Y-102413291D03*
X161381070Y-102362140D03*
D23*
X203500000Y-85300000D03*
D22*
X186300000Y-79500000D03*
X185725000Y-77300000D03*
X195500000Y-76200000D03*
X186400000Y-80800000D03*
X182400000Y-84800000D03*
X180000000Y-88800000D03*
X186400000Y-87500000D03*
X180700000Y-75800000D03*
X137800000Y-122600000D03*
X163900000Y-81400000D03*
X155250000Y-75900000D03*
X167600000Y-81200000D03*
X137500000Y-83700000D03*
X184250000Y-126750000D03*
X162894307Y-104547153D03*
X169262500Y-104600000D03*
X190625000Y-85000000D03*
D24*
X171304800Y-74404800D02*
X170600000Y-73700000D01*
X165354800Y-76649200D02*
X165354800Y-77354800D01*
X165354800Y-75299200D02*
X165354800Y-74445200D01*
X165354800Y-77354800D02*
X166000000Y-78000000D01*
X171304800Y-76649200D02*
X171304800Y-77495200D01*
X165354800Y-74445200D02*
X165700000Y-74100000D01*
X171304800Y-74404800D02*
X171304800Y-76649200D01*
X171304800Y-77495200D02*
X170600000Y-78200000D01*
%TA.AperFunction,Conductor*%
G36*
X173385648Y-69413252D02*
G01*
X173400000Y-69447900D01*
X173400000Y-70686894D01*
X173385648Y-70721542D01*
X173351000Y-70735894D01*
X173316352Y-70721542D01*
X173255707Y-70660897D01*
X173217181Y-70635155D01*
X173100031Y-70556878D01*
X173100027Y-70556876D01*
X173100025Y-70556875D01*
X172927058Y-70485229D01*
X172927048Y-70485226D01*
X172852994Y-70470496D01*
X172743416Y-70448700D01*
X172556184Y-70448700D01*
X172464786Y-70466880D01*
X172372551Y-70485226D01*
X172372541Y-70485229D01*
X172199574Y-70556875D01*
X172199570Y-70556877D01*
X172199569Y-70556878D01*
X172159995Y-70583320D01*
X172043892Y-70660897D01*
X171911497Y-70793292D01*
X171807475Y-70948974D01*
X171735829Y-71121941D01*
X171735826Y-71121951D01*
X171724049Y-71181162D01*
X171699300Y-71305584D01*
X171699300Y-72692816D01*
X171720133Y-72797550D01*
X171735826Y-72876448D01*
X171735829Y-72876458D01*
X171807475Y-73049425D01*
X171807476Y-73049427D01*
X171807478Y-73049431D01*
X171911498Y-73205108D01*
X172043892Y-73337502D01*
X172199569Y-73441522D01*
X172199574Y-73441524D01*
X172372541Y-73513170D01*
X172372543Y-73513170D01*
X172372549Y-73513173D01*
X172556184Y-73549700D01*
X172556187Y-73549700D01*
X172743413Y-73549700D01*
X172743416Y-73549700D01*
X172927051Y-73513173D01*
X173100031Y-73441522D01*
X173255708Y-73337502D01*
X173316352Y-73276858D01*
X173351000Y-73262506D01*
X173385648Y-73276858D01*
X173400000Y-73311506D01*
X173400000Y-74486894D01*
X173385648Y-74521542D01*
X173351000Y-74535894D01*
X173316352Y-74521542D01*
X173255707Y-74460897D01*
X173217181Y-74435155D01*
X173100031Y-74356878D01*
X173100027Y-74356876D01*
X173100025Y-74356875D01*
X172927058Y-74285229D01*
X172927048Y-74285226D01*
X172852994Y-74270496D01*
X172743416Y-74248700D01*
X172556184Y-74248700D01*
X172464786Y-74266880D01*
X172372551Y-74285226D01*
X172372541Y-74285229D01*
X172199574Y-74356875D01*
X172199570Y-74356877D01*
X172199569Y-74356878D01*
X172164975Y-74379993D01*
X172043892Y-74460897D01*
X171911497Y-74593292D01*
X171864771Y-74663224D01*
X171808157Y-74747954D01*
X171807475Y-74748974D01*
X171735829Y-74921941D01*
X171735826Y-74921951D01*
X171719628Y-75003388D01*
X171699300Y-75105584D01*
X171699300Y-77192816D01*
X171712726Y-77260312D01*
X171735826Y-77376448D01*
X171735829Y-77376458D01*
X171807475Y-77549425D01*
X171807476Y-77549427D01*
X171807478Y-77549431D01*
X171856412Y-77622666D01*
X171895264Y-77680813D01*
X171911498Y-77705108D01*
X172043892Y-77837502D01*
X172199569Y-77941522D01*
X172199574Y-77941524D01*
X172372541Y-78013170D01*
X172372543Y-78013170D01*
X172372549Y-78013173D01*
X172556184Y-78049700D01*
X172556187Y-78049700D01*
X172743413Y-78049700D01*
X172743416Y-78049700D01*
X172927051Y-78013173D01*
X173100031Y-77941522D01*
X173255708Y-77837502D01*
X173388102Y-77705108D01*
X173492122Y-77549431D01*
X173563773Y-77376451D01*
X173592742Y-77230813D01*
X185199500Y-77230813D01*
X185199500Y-77369186D01*
X185235311Y-77502834D01*
X185235312Y-77502838D01*
X185304495Y-77622665D01*
X185402335Y-77720505D01*
X185420189Y-77730813D01*
X185522161Y-77789687D01*
X185522163Y-77789687D01*
X185522164Y-77789688D01*
X185627571Y-77817931D01*
X185655813Y-77825499D01*
X185655814Y-77825500D01*
X185655817Y-77825500D01*
X185794186Y-77825500D01*
X185794186Y-77825499D01*
X185927836Y-77789688D01*
X186029811Y-77730813D01*
X203374500Y-77730813D01*
X203374500Y-77869186D01*
X203410311Y-78002834D01*
X203410312Y-78002838D01*
X203460986Y-78090606D01*
X203479495Y-78122665D01*
X203577335Y-78220505D01*
X203610561Y-78239688D01*
X203697161Y-78289687D01*
X203697163Y-78289687D01*
X203697164Y-78289688D01*
X203802571Y-78317931D01*
X203830813Y-78325499D01*
X203830814Y-78325500D01*
X203830817Y-78325500D01*
X203969186Y-78325500D01*
X203969186Y-78325499D01*
X204102836Y-78289688D01*
X204222665Y-78220505D01*
X204320505Y-78122665D01*
X204389688Y-78002836D01*
X204425499Y-77869186D01*
X204425500Y-77869186D01*
X204425500Y-77730814D01*
X204425499Y-77730813D01*
X204412102Y-77680814D01*
X204389688Y-77597164D01*
X204389687Y-77597163D01*
X204389687Y-77597161D01*
X204320504Y-77477334D01*
X204222665Y-77379495D01*
X204102838Y-77310312D01*
X204102834Y-77310311D01*
X203969186Y-77274500D01*
X203969183Y-77274500D01*
X203830817Y-77274500D01*
X203830814Y-77274500D01*
X203697165Y-77310311D01*
X203697161Y-77310312D01*
X203577334Y-77379495D01*
X203577334Y-77379496D01*
X203479496Y-77477334D01*
X203479495Y-77477334D01*
X203410312Y-77597161D01*
X203410311Y-77597165D01*
X203374500Y-77730813D01*
X186029811Y-77730813D01*
X186047665Y-77720505D01*
X186145505Y-77622665D01*
X186214688Y-77502836D01*
X186250499Y-77369186D01*
X186250500Y-77369186D01*
X186250500Y-77230814D01*
X186250499Y-77230813D01*
X186220809Y-77120007D01*
X186214688Y-77097164D01*
X186214687Y-77097163D01*
X186214687Y-77097161D01*
X186145504Y-76977334D01*
X186047665Y-76879495D01*
X185927838Y-76810312D01*
X185927834Y-76810311D01*
X185794186Y-76774500D01*
X185794183Y-76774500D01*
X185655817Y-76774500D01*
X185655814Y-76774500D01*
X185522165Y-76810311D01*
X185522161Y-76810312D01*
X185402334Y-76879495D01*
X185402334Y-76879496D01*
X185304496Y-76977334D01*
X185304495Y-76977334D01*
X185235312Y-77097161D01*
X185235311Y-77097165D01*
X185199500Y-77230813D01*
X173592742Y-77230813D01*
X173600300Y-77192816D01*
X173600300Y-75730813D01*
X180174500Y-75730813D01*
X180174500Y-75869186D01*
X180210311Y-76002834D01*
X180210312Y-76002838D01*
X180268047Y-76102836D01*
X180279495Y-76122665D01*
X180377335Y-76220505D01*
X180421194Y-76245827D01*
X180497161Y-76289687D01*
X180497163Y-76289687D01*
X180497164Y-76289688D01*
X180602571Y-76317931D01*
X180630813Y-76325499D01*
X180630814Y-76325500D01*
X180630817Y-76325500D01*
X180769186Y-76325500D01*
X180769186Y-76325499D01*
X180902836Y-76289688D01*
X181022665Y-76220505D01*
X181062357Y-76180813D01*
X191224500Y-76180813D01*
X191224500Y-76319186D01*
X191260311Y-76452834D01*
X191260312Y-76452838D01*
X191300628Y-76522666D01*
X191329495Y-76572665D01*
X191427335Y-76670505D01*
X191460561Y-76689688D01*
X191547161Y-76739687D01*
X191547163Y-76739687D01*
X191547164Y-76739688D01*
X191652571Y-76767931D01*
X191680813Y-76775499D01*
X191680814Y-76775500D01*
X191680817Y-76775500D01*
X191819186Y-76775500D01*
X191819186Y-76775499D01*
X191952836Y-76739688D01*
X192072665Y-76670505D01*
X192170505Y-76572665D01*
X192239688Y-76452836D01*
X192275499Y-76319186D01*
X192275500Y-76319186D01*
X192275500Y-76180814D01*
X192275499Y-76180813D01*
X192264641Y-76140287D01*
X192262102Y-76130813D01*
X194974500Y-76130813D01*
X194974500Y-76269186D01*
X195010311Y-76402834D01*
X195010312Y-76402838D01*
X195079495Y-76522665D01*
X195177335Y-76620505D01*
X195221194Y-76645827D01*
X195297161Y-76689687D01*
X195297163Y-76689687D01*
X195297164Y-76689688D01*
X195375612Y-76710708D01*
X195430813Y-76725499D01*
X195430814Y-76725500D01*
X195430817Y-76725500D01*
X195569186Y-76725500D01*
X195569186Y-76725499D01*
X195702836Y-76689688D01*
X195822665Y-76620505D01*
X195920505Y-76522665D01*
X195989688Y-76402836D01*
X196025499Y-76269186D01*
X196025500Y-76269186D01*
X196025500Y-76130814D01*
X196025499Y-76130813D01*
X196016110Y-76095773D01*
X195989688Y-75997164D01*
X195989687Y-75997163D01*
X195989687Y-75997161D01*
X195920504Y-75877334D01*
X195822665Y-75779495D01*
X195702838Y-75710312D01*
X195702834Y-75710311D01*
X195569186Y-75674500D01*
X195569183Y-75674500D01*
X195430817Y-75674500D01*
X195430814Y-75674500D01*
X195297165Y-75710311D01*
X195297161Y-75710312D01*
X195177334Y-75779495D01*
X195177334Y-75779496D01*
X195079496Y-75877334D01*
X195079495Y-75877334D01*
X195010312Y-75997161D01*
X195010311Y-75997165D01*
X194974500Y-76130813D01*
X192262102Y-76130813D01*
X192239688Y-76047165D01*
X192239687Y-76047161D01*
X192172222Y-75930309D01*
X192170505Y-75927335D01*
X192072665Y-75829495D01*
X191952838Y-75760312D01*
X191952834Y-75760311D01*
X191819186Y-75724500D01*
X191819183Y-75724500D01*
X191680817Y-75724500D01*
X191680814Y-75724500D01*
X191547165Y-75760311D01*
X191547161Y-75760312D01*
X191427334Y-75829495D01*
X191427334Y-75829496D01*
X191329496Y-75927334D01*
X191329495Y-75927334D01*
X191260312Y-76047161D01*
X191260311Y-76047165D01*
X191224500Y-76180813D01*
X181062357Y-76180813D01*
X181120505Y-76122665D01*
X181189688Y-76002836D01*
X181225499Y-75869186D01*
X181225500Y-75869186D01*
X181225500Y-75730814D01*
X181225499Y-75730813D01*
X181190582Y-75600500D01*
X181189688Y-75597164D01*
X181189687Y-75597163D01*
X181189687Y-75597161D01*
X181122829Y-75481361D01*
X181120505Y-75477335D01*
X181022665Y-75379495D01*
X180902838Y-75310312D01*
X180902834Y-75310311D01*
X180769186Y-75274500D01*
X180769183Y-75274500D01*
X180630817Y-75274500D01*
X180630814Y-75274500D01*
X180497165Y-75310311D01*
X180497161Y-75310312D01*
X180377334Y-75379495D01*
X180377334Y-75379496D01*
X180279496Y-75477334D01*
X180279495Y-75477334D01*
X180210312Y-75597161D01*
X180210311Y-75597165D01*
X180174500Y-75730813D01*
X173600300Y-75730813D01*
X173600300Y-75105584D01*
X173563773Y-74921949D01*
X173511985Y-74796922D01*
X173511985Y-74759420D01*
X173538503Y-74732901D01*
X173557352Y-74729172D01*
X174630543Y-74731438D01*
X174665159Y-74745863D01*
X174672873Y-74755938D01*
X174676591Y-74762378D01*
X174696553Y-74796953D01*
X174699725Y-74802446D01*
X174699735Y-74802462D01*
X174843403Y-74989693D01*
X174843413Y-74989705D01*
X175010294Y-75156586D01*
X175010306Y-75156596D01*
X175197537Y-75300264D01*
X175197546Y-75300270D01*
X175197550Y-75300273D01*
X175401951Y-75418284D01*
X175620007Y-75508606D01*
X175620010Y-75508606D01*
X175620013Y-75508608D01*
X175847974Y-75569690D01*
X175847975Y-75569690D01*
X175847986Y-75569693D01*
X176081989Y-75600500D01*
X176081993Y-75600500D01*
X176318007Y-75600500D01*
X176318011Y-75600500D01*
X176552014Y-75569693D01*
X176779993Y-75508606D01*
X176998049Y-75418284D01*
X177202450Y-75300273D01*
X177389699Y-75156592D01*
X177556592Y-74989699D01*
X177687698Y-74818838D01*
X177700264Y-74802462D01*
X177700271Y-74802452D01*
X177700273Y-74802450D01*
X177723304Y-74762557D01*
X177753055Y-74739729D01*
X177765833Y-74738060D01*
X182451106Y-74747954D01*
X182485721Y-74762378D01*
X182500000Y-74796953D01*
X182500000Y-75150000D01*
X206549300Y-75150000D01*
X206583948Y-75164352D01*
X206598300Y-75199000D01*
X206598300Y-91297300D01*
X206583948Y-91331948D01*
X206549300Y-91346300D01*
X172031705Y-91346300D01*
X171904415Y-91380407D01*
X171904411Y-91380408D01*
X171790285Y-91446300D01*
X171790285Y-91446301D01*
X171697101Y-91539485D01*
X171697100Y-91539485D01*
X171631208Y-91653611D01*
X171631207Y-91653615D01*
X171597100Y-91780904D01*
X171597100Y-114213895D01*
X171631207Y-114341184D01*
X171631208Y-114341188D01*
X171697100Y-114455314D01*
X171790286Y-114548500D01*
X171832057Y-114572617D01*
X171904411Y-114614391D01*
X171904413Y-114614391D01*
X171904414Y-114614392D01*
X172004807Y-114641292D01*
X172031704Y-114648499D01*
X172031705Y-114648500D01*
X172031708Y-114648500D01*
X172163492Y-114648500D01*
X206549300Y-114648500D01*
X206583948Y-114662852D01*
X206598300Y-114697500D01*
X206598300Y-136546900D01*
X206583948Y-136581548D01*
X206549300Y-136595900D01*
X132464300Y-136595900D01*
X132429652Y-136581548D01*
X132415300Y-136546900D01*
X132415300Y-132878712D01*
X137149500Y-132878712D01*
X137149500Y-133121288D01*
X137181162Y-133361789D01*
X137181163Y-133361793D01*
X137181164Y-133361800D01*
X137243944Y-133596095D01*
X137243946Y-133596101D01*
X137336776Y-133820213D01*
X137458062Y-134030286D01*
X137458072Y-134030301D01*
X137605730Y-134222732D01*
X137605740Y-134222744D01*
X137777255Y-134394259D01*
X137777267Y-134394269D01*
X137969698Y-134541927D01*
X137969707Y-134541933D01*
X137969711Y-134541936D01*
X138179788Y-134663224D01*
X138403900Y-134756054D01*
X138403904Y-134756055D01*
X138638199Y-134818835D01*
X138638200Y-134818835D01*
X138638211Y-134818838D01*
X138878712Y-134850500D01*
X138878716Y-134850500D01*
X139121284Y-134850500D01*
X139121288Y-134850500D01*
X139361789Y-134818838D01*
X139596100Y-134756054D01*
X139820212Y-134663224D01*
X140030289Y-134541936D01*
X140222738Y-134394265D01*
X140394265Y-134222738D01*
X140541936Y-134030289D01*
X140663224Y-133820212D01*
X140756054Y-133596100D01*
X140818838Y-133361789D01*
X140850500Y-133121288D01*
X140850500Y-132878712D01*
X155149500Y-132878712D01*
X155149500Y-133121288D01*
X155181162Y-133361789D01*
X155181163Y-133361793D01*
X155181164Y-133361800D01*
X155243944Y-133596095D01*
X155243946Y-133596101D01*
X155336776Y-133820213D01*
X155458062Y-134030286D01*
X155458072Y-134030301D01*
X155605730Y-134222732D01*
X155605740Y-134222744D01*
X155777255Y-134394259D01*
X155777267Y-134394269D01*
X155969698Y-134541927D01*
X155969707Y-134541933D01*
X155969711Y-134541936D01*
X156179788Y-134663224D01*
X156403900Y-134756054D01*
X156403904Y-134756055D01*
X156638199Y-134818835D01*
X156638200Y-134818835D01*
X156638211Y-134818838D01*
X156878712Y-134850500D01*
X156878716Y-134850500D01*
X157121284Y-134850500D01*
X157121288Y-134850500D01*
X157361789Y-134818838D01*
X157596100Y-134756054D01*
X157820212Y-134663224D01*
X158030289Y-134541936D01*
X158222738Y-134394265D01*
X158394265Y-134222738D01*
X158541936Y-134030289D01*
X158663224Y-133820212D01*
X158756054Y-133596100D01*
X158818838Y-133361789D01*
X158850500Y-133121288D01*
X158850500Y-132878712D01*
X158821635Y-132659454D01*
X169099500Y-132659454D01*
X169099500Y-132840545D01*
X169127828Y-133019406D01*
X169127829Y-133019409D01*
X169160929Y-133121284D01*
X169183789Y-133191639D01*
X169266004Y-133352994D01*
X169350582Y-133469406D01*
X169372448Y-133499502D01*
X169372452Y-133499507D01*
X169500493Y-133627548D01*
X169500497Y-133627551D01*
X169500499Y-133627553D01*
X169647006Y-133733996D01*
X169808361Y-133816211D01*
X169980591Y-133872171D01*
X170159454Y-133900500D01*
X170159455Y-133900500D01*
X170340545Y-133900500D01*
X170340546Y-133900500D01*
X170519409Y-133872171D01*
X170691639Y-133816211D01*
X170852994Y-133733996D01*
X170999501Y-133627553D01*
X170999504Y-133627549D01*
X170999507Y-133627548D01*
X171127548Y-133499507D01*
X171127549Y-133499504D01*
X171127553Y-133499501D01*
X171233996Y-133352994D01*
X171316211Y-133191639D01*
X171372171Y-133019409D01*
X171400500Y-132840546D01*
X171400500Y-132659454D01*
X171372171Y-132480591D01*
X171316211Y-132308361D01*
X171251222Y-132180813D01*
X181724500Y-132180813D01*
X181724500Y-132319186D01*
X181760311Y-132452834D01*
X181760312Y-132452838D01*
X181776337Y-132480593D01*
X181829495Y-132572665D01*
X181927335Y-132670505D01*
X181971194Y-132695827D01*
X182047161Y-132739687D01*
X182047163Y-132739687D01*
X182047164Y-132739688D01*
X182116853Y-132758361D01*
X182180813Y-132775499D01*
X182180814Y-132775500D01*
X182180817Y-132775500D01*
X182319186Y-132775500D01*
X182319186Y-132775499D01*
X182452836Y-132739688D01*
X182572665Y-132670505D01*
X182670505Y-132572665D01*
X182739688Y-132452836D01*
X182775499Y-132319186D01*
X182775500Y-132319186D01*
X182775500Y-132305134D01*
X193769500Y-132305134D01*
X193769500Y-134094858D01*
X193769501Y-134094868D01*
X193772415Y-134119992D01*
X193817794Y-134222766D01*
X193897233Y-134302205D01*
X194000006Y-134347584D01*
X194000009Y-134347585D01*
X194025135Y-134350500D01*
X195814864Y-134350499D01*
X195839991Y-134347585D01*
X195942765Y-134302206D01*
X196022206Y-134222765D01*
X196067585Y-134119991D01*
X196070500Y-134094865D01*
X196070499Y-133109454D01*
X196309500Y-133109454D01*
X196309500Y-133290545D01*
X196337828Y-133469406D01*
X196337829Y-133469409D01*
X196389211Y-133627551D01*
X196393789Y-133641639D01*
X196476004Y-133802994D01*
X196526263Y-133872170D01*
X196582446Y-133949500D01*
X196582452Y-133949507D01*
X196710493Y-134077548D01*
X196710497Y-134077551D01*
X196710499Y-134077553D01*
X196857006Y-134183996D01*
X197018361Y-134266211D01*
X197190591Y-134322171D01*
X197369454Y-134350500D01*
X197369455Y-134350500D01*
X197550545Y-134350500D01*
X197550546Y-134350500D01*
X197729409Y-134322171D01*
X197901639Y-134266211D01*
X198062994Y-134183996D01*
X198209501Y-134077553D01*
X198209504Y-134077549D01*
X198209507Y-134077548D01*
X198337548Y-133949507D01*
X198337554Y-133949500D01*
X198373154Y-133900500D01*
X198443996Y-133802994D01*
X198526211Y-133641639D01*
X198582171Y-133469409D01*
X198610500Y-133290546D01*
X198610500Y-133109454D01*
X198582171Y-132930591D01*
X198526211Y-132758361D01*
X198443996Y-132597006D01*
X198337553Y-132450499D01*
X198337551Y-132450497D01*
X198337548Y-132450493D01*
X198209507Y-132322452D01*
X198209502Y-132322448D01*
X198209501Y-132322447D01*
X198062994Y-132216004D01*
X197901639Y-132133789D01*
X197901638Y-132133788D01*
X197901637Y-132133788D01*
X197729409Y-132077829D01*
X197729406Y-132077828D01*
X197592007Y-132056066D01*
X197550546Y-132049500D01*
X197369454Y-132049500D01*
X197335794Y-132054831D01*
X197190593Y-132077828D01*
X197190590Y-132077829D01*
X197018362Y-132133788D01*
X196857006Y-132216004D01*
X196710497Y-132322448D01*
X196582448Y-132450497D01*
X196476004Y-132597006D01*
X196393788Y-132758362D01*
X196337829Y-132930590D01*
X196337828Y-132930593D01*
X196309500Y-133109454D01*
X196070499Y-133109454D01*
X196070499Y-132305136D01*
X196067585Y-132280009D01*
X196022206Y-132177235D01*
X196022205Y-132177234D01*
X196022205Y-132177233D01*
X195942766Y-132097794D01*
X195942767Y-132097794D01*
X195839993Y-132052415D01*
X195827428Y-132050957D01*
X195814865Y-132049500D01*
X195814863Y-132049500D01*
X194025141Y-132049500D01*
X194025131Y-132049501D01*
X194000007Y-132052415D01*
X193897233Y-132097794D01*
X193817794Y-132177233D01*
X193772415Y-132280006D01*
X193769500Y-132305134D01*
X182775500Y-132305134D01*
X182775500Y-132180814D01*
X182775499Y-132180813D01*
X182753254Y-132097794D01*
X182739688Y-132047164D01*
X182739687Y-132047163D01*
X182739687Y-132047161D01*
X182670504Y-131927334D01*
X182572665Y-131829495D01*
X182452838Y-131760312D01*
X182452834Y-131760311D01*
X182319186Y-131724500D01*
X182319183Y-131724500D01*
X182180817Y-131724500D01*
X182180814Y-131724500D01*
X182047165Y-131760311D01*
X182047161Y-131760312D01*
X181927334Y-131829495D01*
X181927334Y-131829496D01*
X181829496Y-131927334D01*
X181829495Y-131927334D01*
X181760312Y-132047161D01*
X181760311Y-132047165D01*
X181724500Y-132180813D01*
X171251222Y-132180813D01*
X171233996Y-132147006D01*
X171127553Y-132000499D01*
X171127551Y-132000497D01*
X171127548Y-132000493D01*
X170999507Y-131872452D01*
X170999502Y-131872448D01*
X170999501Y-131872447D01*
X170852994Y-131766004D01*
X170691639Y-131683789D01*
X170691638Y-131683788D01*
X170691637Y-131683788D01*
X170519409Y-131627829D01*
X170519406Y-131627828D01*
X170379881Y-131605730D01*
X170340546Y-131599500D01*
X170159454Y-131599500D01*
X170125794Y-131604831D01*
X169980593Y-131627828D01*
X169980590Y-131627829D01*
X169808362Y-131683788D01*
X169647006Y-131766004D01*
X169500497Y-131872448D01*
X169372448Y-132000497D01*
X169266004Y-132147006D01*
X169183788Y-132308362D01*
X169127829Y-132480590D01*
X169127828Y-132480593D01*
X169099500Y-132659454D01*
X158821635Y-132659454D01*
X158818838Y-132638211D01*
X158756054Y-132403900D01*
X158663224Y-132179788D01*
X158636666Y-132133789D01*
X158586654Y-132047165D01*
X158541936Y-131969711D01*
X158541933Y-131969707D01*
X158541927Y-131969698D01*
X158394269Y-131777267D01*
X158394259Y-131777255D01*
X158222744Y-131605740D01*
X158222732Y-131605730D01*
X158030301Y-131458072D01*
X158030286Y-131458062D01*
X157820212Y-131336776D01*
X157820213Y-131336776D01*
X157596101Y-131243946D01*
X157596095Y-131243944D01*
X157361800Y-131181164D01*
X157361793Y-131181163D01*
X157361789Y-131181162D01*
X157121288Y-131149500D01*
X156878712Y-131149500D01*
X156638211Y-131181162D01*
X156638207Y-131181162D01*
X156638199Y-131181164D01*
X156403904Y-131243944D01*
X156403898Y-131243946D01*
X156179786Y-131336776D01*
X155969713Y-131458062D01*
X155969698Y-131458072D01*
X155777267Y-131605730D01*
X155777255Y-131605740D01*
X155605740Y-131777255D01*
X155605730Y-131777267D01*
X155458072Y-131969698D01*
X155458062Y-131969713D01*
X155336776Y-132179786D01*
X155243946Y-132403898D01*
X155243944Y-132403904D01*
X155181164Y-132638199D01*
X155181162Y-132638207D01*
X155181162Y-132638211D01*
X155149500Y-132878712D01*
X140850500Y-132878712D01*
X140818838Y-132638211D01*
X140756054Y-132403900D01*
X140663224Y-132179788D01*
X140636666Y-132133789D01*
X140586654Y-132047165D01*
X140541936Y-131969711D01*
X140541933Y-131969707D01*
X140541927Y-131969698D01*
X140394269Y-131777267D01*
X140394259Y-131777255D01*
X140222744Y-131605740D01*
X140222732Y-131605730D01*
X140030301Y-131458072D01*
X140030286Y-131458062D01*
X139820212Y-131336776D01*
X139820213Y-131336776D01*
X139596101Y-131243946D01*
X139596095Y-131243944D01*
X139361800Y-131181164D01*
X139361793Y-131181163D01*
X139361789Y-131181162D01*
X139121288Y-131149500D01*
X138878712Y-131149500D01*
X138638211Y-131181162D01*
X138638207Y-131181162D01*
X138638199Y-131181164D01*
X138403904Y-131243944D01*
X138403898Y-131243946D01*
X138179786Y-131336776D01*
X137969713Y-131458062D01*
X137969698Y-131458072D01*
X137777267Y-131605730D01*
X137777255Y-131605740D01*
X137605740Y-131777255D01*
X137605730Y-131777267D01*
X137458072Y-131969698D01*
X137458062Y-131969713D01*
X137336776Y-132179786D01*
X137243946Y-132403898D01*
X137243944Y-132403904D01*
X137181164Y-132638199D01*
X137181162Y-132638207D01*
X137181162Y-132638211D01*
X137149500Y-132878712D01*
X132415300Y-132878712D01*
X132415300Y-130430813D01*
X149974500Y-130430813D01*
X149974500Y-130569186D01*
X150010311Y-130702834D01*
X150010312Y-130702838D01*
X150079495Y-130822665D01*
X150177335Y-130920505D01*
X150221194Y-130945827D01*
X150297161Y-130989687D01*
X150297163Y-130989687D01*
X150297164Y-130989688D01*
X150402571Y-131017931D01*
X150430813Y-131025499D01*
X150430814Y-131025500D01*
X150430817Y-131025500D01*
X150569186Y-131025500D01*
X150569186Y-131025499D01*
X150702836Y-130989688D01*
X150822665Y-130920505D01*
X150920505Y-130822665D01*
X150989688Y-130702836D01*
X151025499Y-130569186D01*
X151025500Y-130569186D01*
X151025500Y-130430814D01*
X151025499Y-130430813D01*
X150989688Y-130297165D01*
X150989687Y-130297161D01*
X150920504Y-130177334D01*
X150822665Y-130079495D01*
X150702838Y-130010312D01*
X150702834Y-130010311D01*
X150569186Y-129974500D01*
X150569183Y-129974500D01*
X150430817Y-129974500D01*
X150430814Y-129974500D01*
X150297165Y-130010311D01*
X150297161Y-130010312D01*
X150177334Y-130079495D01*
X150177334Y-130079496D01*
X150079496Y-130177334D01*
X150079495Y-130177334D01*
X150010312Y-130297161D01*
X150010311Y-130297165D01*
X149974500Y-130430813D01*
X132415300Y-130430813D01*
X132415300Y-126680813D01*
X183724500Y-126680813D01*
X183724500Y-126819186D01*
X183760311Y-126952834D01*
X183760312Y-126952838D01*
X183829495Y-127072665D01*
X183927335Y-127170505D01*
X183971194Y-127195827D01*
X184047161Y-127239687D01*
X184047163Y-127239687D01*
X184047164Y-127239688D01*
X184152571Y-127267931D01*
X184180813Y-127275499D01*
X184180814Y-127275500D01*
X184180817Y-127275500D01*
X184319186Y-127275500D01*
X184319186Y-127275499D01*
X184452836Y-127239688D01*
X184572665Y-127170505D01*
X184670505Y-127072665D01*
X184739688Y-126952836D01*
X184775499Y-126819186D01*
X184775500Y-126819186D01*
X184775500Y-126680814D01*
X184775499Y-126680813D01*
X184739688Y-126547165D01*
X184739687Y-126547161D01*
X184670504Y-126427334D01*
X184572665Y-126329495D01*
X184452838Y-126260312D01*
X184452834Y-126260311D01*
X184319186Y-126224500D01*
X184319183Y-126224500D01*
X184180817Y-126224500D01*
X184180814Y-126224500D01*
X184047165Y-126260311D01*
X184047161Y-126260312D01*
X183927334Y-126329495D01*
X183927334Y-126329496D01*
X183829496Y-126427334D01*
X183829495Y-126427334D01*
X183760312Y-126547161D01*
X183760311Y-126547165D01*
X183724500Y-126680813D01*
X132415300Y-126680813D01*
X132415300Y-123180813D01*
X140974500Y-123180813D01*
X140974500Y-123319186D01*
X141010311Y-123452834D01*
X141010312Y-123452838D01*
X141079495Y-123572665D01*
X141177335Y-123670505D01*
X141221194Y-123695827D01*
X141297161Y-123739687D01*
X141297163Y-123739687D01*
X141297164Y-123739688D01*
X141402571Y-123767931D01*
X141430813Y-123775499D01*
X141430814Y-123775500D01*
X141430817Y-123775500D01*
X141569186Y-123775500D01*
X141569186Y-123775499D01*
X141702836Y-123739688D01*
X141822665Y-123670505D01*
X141848036Y-123645134D01*
X152849500Y-123645134D01*
X152849500Y-125434858D01*
X152849501Y-125434868D01*
X152852415Y-125459992D01*
X152897794Y-125562766D01*
X152977233Y-125642205D01*
X153080006Y-125687584D01*
X153080009Y-125687585D01*
X153105135Y-125690500D01*
X154894864Y-125690499D01*
X154919991Y-125687585D01*
X155022765Y-125642206D01*
X155102206Y-125562765D01*
X155147585Y-125459991D01*
X155150500Y-125434865D01*
X155150499Y-124327259D01*
X157978054Y-124327259D01*
X157978054Y-124465632D01*
X158013865Y-124599280D01*
X158013866Y-124599284D01*
X158083049Y-124719111D01*
X158180889Y-124816951D01*
X158224748Y-124842273D01*
X158300715Y-124886133D01*
X158300717Y-124886133D01*
X158300718Y-124886134D01*
X158406125Y-124914377D01*
X158434367Y-124921945D01*
X158434368Y-124921946D01*
X158434371Y-124921946D01*
X158572740Y-124921946D01*
X158572740Y-124921945D01*
X158706390Y-124886134D01*
X158826219Y-124816951D01*
X158924059Y-124719111D01*
X158993242Y-124599282D01*
X159029053Y-124465632D01*
X159029054Y-124465632D01*
X159029054Y-124327260D01*
X159029053Y-124327259D01*
X158993242Y-124193611D01*
X158993241Y-124193607D01*
X158924058Y-124073780D01*
X158826219Y-123975941D01*
X158706392Y-123906758D01*
X158706388Y-123906757D01*
X158572740Y-123870946D01*
X158572737Y-123870946D01*
X158434371Y-123870946D01*
X158434368Y-123870946D01*
X158300719Y-123906757D01*
X158300715Y-123906758D01*
X158180888Y-123975941D01*
X158180888Y-123975942D01*
X158083050Y-124073780D01*
X158083049Y-124073780D01*
X158013866Y-124193607D01*
X158013865Y-124193611D01*
X157978054Y-124327259D01*
X155150499Y-124327259D01*
X155150499Y-123730813D01*
X156674500Y-123730813D01*
X156674500Y-123869186D01*
X156710311Y-124002834D01*
X156710312Y-124002838D01*
X156779495Y-124122665D01*
X156877335Y-124220505D01*
X156921194Y-124245827D01*
X156997161Y-124289687D01*
X156997163Y-124289687D01*
X156997164Y-124289688D01*
X157102571Y-124317931D01*
X157130813Y-124325499D01*
X157130814Y-124325500D01*
X157130817Y-124325500D01*
X157269186Y-124325500D01*
X157269186Y-124325499D01*
X157402836Y-124289688D01*
X157402838Y-124289687D01*
X157416818Y-124281616D01*
X157450944Y-124261912D01*
X157522665Y-124220505D01*
X157620505Y-124122665D01*
X157689688Y-124002836D01*
X157725499Y-123869186D01*
X157725500Y-123869186D01*
X157725500Y-123730814D01*
X157725499Y-123730813D01*
X157717931Y-123702571D01*
X157689688Y-123597164D01*
X157689687Y-123597163D01*
X157689687Y-123597161D01*
X157620504Y-123477334D01*
X157522665Y-123379495D01*
X157402838Y-123310312D01*
X157402834Y-123310311D01*
X157269186Y-123274500D01*
X157269183Y-123274500D01*
X157130817Y-123274500D01*
X157130814Y-123274500D01*
X156997165Y-123310311D01*
X156997161Y-123310312D01*
X156877334Y-123379495D01*
X156877334Y-123379496D01*
X156779496Y-123477334D01*
X156779495Y-123477334D01*
X156710312Y-123597161D01*
X156710311Y-123597165D01*
X156674500Y-123730813D01*
X155150499Y-123730813D01*
X155150499Y-123645136D01*
X155147585Y-123620009D01*
X155102206Y-123517235D01*
X155102205Y-123517234D01*
X155102205Y-123517233D01*
X155022766Y-123437794D01*
X155022767Y-123437794D01*
X154919993Y-123392415D01*
X154907428Y-123390957D01*
X154894865Y-123389500D01*
X154894863Y-123389500D01*
X153105141Y-123389500D01*
X153105131Y-123389501D01*
X153080007Y-123392415D01*
X152977233Y-123437794D01*
X152897794Y-123517233D01*
X152852415Y-123620006D01*
X152849500Y-123645134D01*
X141848036Y-123645134D01*
X141920505Y-123572665D01*
X141989688Y-123452836D01*
X142025499Y-123319186D01*
X142025500Y-123319186D01*
X142025500Y-123180814D01*
X142025499Y-123180813D01*
X141998940Y-123081692D01*
X141989688Y-123047164D01*
X141989687Y-123047163D01*
X141989687Y-123047161D01*
X141920504Y-122927334D01*
X141822665Y-122829495D01*
X141702838Y-122760312D01*
X141702834Y-122760311D01*
X141569186Y-122724500D01*
X141569183Y-122724500D01*
X141430817Y-122724500D01*
X141430814Y-122724500D01*
X141297165Y-122760311D01*
X141297161Y-122760312D01*
X141177334Y-122829495D01*
X141177334Y-122829496D01*
X141079496Y-122927334D01*
X141079495Y-122927334D01*
X141010312Y-123047161D01*
X141010311Y-123047165D01*
X140974500Y-123180813D01*
X132415300Y-123180813D01*
X132415300Y-122530813D01*
X137274500Y-122530813D01*
X137274500Y-122669186D01*
X137310311Y-122802834D01*
X137310312Y-122802838D01*
X137366109Y-122899480D01*
X137379495Y-122922665D01*
X137477335Y-123020505D01*
X137521194Y-123045827D01*
X137597161Y-123089687D01*
X137597163Y-123089687D01*
X137597164Y-123089688D01*
X137702571Y-123117931D01*
X137730813Y-123125499D01*
X137730814Y-123125500D01*
X137730817Y-123125500D01*
X137869186Y-123125500D01*
X137869186Y-123125499D01*
X138002836Y-123089688D01*
X138122665Y-123020505D01*
X138220505Y-122922665D01*
X138289688Y-122802836D01*
X138325499Y-122669186D01*
X138325500Y-122669186D01*
X138325500Y-122530814D01*
X138325499Y-122530813D01*
X138289688Y-122397165D01*
X138289687Y-122397161D01*
X138220504Y-122277334D01*
X138122665Y-122179495D01*
X138002838Y-122110312D01*
X138002834Y-122110311D01*
X137869186Y-122074500D01*
X137869183Y-122074500D01*
X137730817Y-122074500D01*
X137730814Y-122074500D01*
X137597165Y-122110311D01*
X137597161Y-122110312D01*
X137477334Y-122179495D01*
X137477334Y-122179496D01*
X137379496Y-122277334D01*
X137379495Y-122277334D01*
X137310312Y-122397161D01*
X137310311Y-122397165D01*
X137274500Y-122530813D01*
X132415300Y-122530813D01*
X132415300Y-120810247D01*
X147099500Y-120810247D01*
X147099500Y-122499971D01*
X147099501Y-122499981D01*
X147102415Y-122525105D01*
X147147794Y-122627879D01*
X147227233Y-122707318D01*
X147330006Y-122752697D01*
X147330009Y-122752698D01*
X147355135Y-122755613D01*
X149044864Y-122755612D01*
X149069991Y-122752698D01*
X149172765Y-122707319D01*
X149252206Y-122627878D01*
X149297585Y-122525104D01*
X149300500Y-122499978D01*
X149300499Y-121909454D01*
X152849500Y-121909454D01*
X152849500Y-122090546D01*
X152852631Y-122110312D01*
X152877828Y-122269406D01*
X152877829Y-122269409D01*
X152919338Y-122397165D01*
X152933789Y-122441639D01*
X153016004Y-122602994D01*
X153104283Y-122724500D01*
X153122448Y-122749502D01*
X153122452Y-122749507D01*
X153250493Y-122877548D01*
X153250497Y-122877551D01*
X153250499Y-122877553D01*
X153397006Y-122983996D01*
X153558361Y-123066211D01*
X153730591Y-123122171D01*
X153909454Y-123150500D01*
X153909455Y-123150500D01*
X154090545Y-123150500D01*
X154090546Y-123150500D01*
X154269409Y-123122171D01*
X154441639Y-123066211D01*
X154602994Y-122983996D01*
X154749501Y-122877553D01*
X154749504Y-122877549D01*
X154749507Y-122877548D01*
X154877548Y-122749507D01*
X154877549Y-122749504D01*
X154877553Y-122749501D01*
X154983996Y-122602994D01*
X155066211Y-122441639D01*
X155122171Y-122269409D01*
X155150500Y-122090546D01*
X155150500Y-121909454D01*
X155122171Y-121730591D01*
X155066211Y-121558361D01*
X155052175Y-121530813D01*
X163074500Y-121530813D01*
X163074500Y-121669186D01*
X163110311Y-121802834D01*
X163110312Y-121802838D01*
X163170756Y-121907529D01*
X163179495Y-121922665D01*
X163277335Y-122020505D01*
X163321194Y-122045827D01*
X163397161Y-122089687D01*
X163397163Y-122089687D01*
X163397164Y-122089688D01*
X163502571Y-122117931D01*
X163530813Y-122125499D01*
X163530814Y-122125500D01*
X163530817Y-122125500D01*
X163669186Y-122125500D01*
X163669186Y-122125499D01*
X163802836Y-122089688D01*
X163922665Y-122020505D01*
X164020505Y-121922665D01*
X164089688Y-121802836D01*
X164125499Y-121669186D01*
X164125500Y-121669186D01*
X164125500Y-121530814D01*
X164125499Y-121530813D01*
X164089688Y-121397165D01*
X164089687Y-121397161D01*
X164037816Y-121307319D01*
X164020505Y-121277335D01*
X163922665Y-121179495D01*
X163802838Y-121110312D01*
X163802834Y-121110311D01*
X163669186Y-121074500D01*
X163669183Y-121074500D01*
X163530817Y-121074500D01*
X163530814Y-121074500D01*
X163397165Y-121110311D01*
X163397161Y-121110312D01*
X163277334Y-121179495D01*
X163277334Y-121179496D01*
X163179496Y-121277334D01*
X163179495Y-121277334D01*
X163110312Y-121397161D01*
X163110311Y-121397165D01*
X163074500Y-121530813D01*
X155052175Y-121530813D01*
X154983996Y-121397006D01*
X154877553Y-121250499D01*
X154877551Y-121250497D01*
X154877548Y-121250493D01*
X154749507Y-121122452D01*
X154749502Y-121122448D01*
X154749501Y-121122447D01*
X154602994Y-121016004D01*
X154441639Y-120933789D01*
X154441638Y-120933788D01*
X154441637Y-120933788D01*
X154269409Y-120877829D01*
X154269406Y-120877828D01*
X154132007Y-120856066D01*
X154090546Y-120849500D01*
X153909454Y-120849500D01*
X153875794Y-120854831D01*
X153730593Y-120877828D01*
X153730590Y-120877829D01*
X153558362Y-120933788D01*
X153397006Y-121016004D01*
X153250497Y-121122448D01*
X153122448Y-121250497D01*
X153016004Y-121397006D01*
X152933788Y-121558362D01*
X152877829Y-121730590D01*
X152877828Y-121730593D01*
X152866386Y-121802838D01*
X152849500Y-121909454D01*
X149300499Y-121909454D01*
X149300499Y-121579496D01*
X149300499Y-120810254D01*
X149300498Y-120810248D01*
X149297585Y-120785122D01*
X149252206Y-120682348D01*
X149252205Y-120682347D01*
X149252205Y-120682346D01*
X149172766Y-120602907D01*
X149172767Y-120602907D01*
X149069993Y-120557528D01*
X149057428Y-120556070D01*
X149044865Y-120554613D01*
X149044863Y-120554613D01*
X147355141Y-120554613D01*
X147355131Y-120554614D01*
X147330007Y-120557528D01*
X147227233Y-120602907D01*
X147147794Y-120682346D01*
X147102415Y-120785119D01*
X147099500Y-120810247D01*
X132415300Y-120810247D01*
X132415300Y-120130813D01*
X169574500Y-120130813D01*
X169574500Y-120269186D01*
X169610311Y-120402834D01*
X169610312Y-120402838D01*
X169622232Y-120423483D01*
X169679495Y-120522665D01*
X169777335Y-120620505D01*
X169785985Y-120625499D01*
X169897161Y-120689687D01*
X169897163Y-120689687D01*
X169897164Y-120689688D01*
X170002571Y-120717931D01*
X170030813Y-120725499D01*
X170030814Y-120725500D01*
X170030817Y-120725500D01*
X170169186Y-120725500D01*
X170169186Y-120725499D01*
X170302836Y-120689688D01*
X170422665Y-120620505D01*
X170520505Y-120522665D01*
X170589688Y-120402836D01*
X170625499Y-120269186D01*
X170625500Y-120269186D01*
X170625500Y-120130814D01*
X170625499Y-120130813D01*
X170601243Y-120040287D01*
X170598704Y-120030813D01*
X172174500Y-120030813D01*
X172174500Y-120169186D01*
X172210311Y-120302834D01*
X172210312Y-120302838D01*
X172268047Y-120402836D01*
X172279495Y-120422665D01*
X172377335Y-120520505D01*
X172421194Y-120545827D01*
X172497161Y-120589687D01*
X172497163Y-120589687D01*
X172497164Y-120589688D01*
X172602571Y-120617931D01*
X172630813Y-120625499D01*
X172630814Y-120625500D01*
X172630817Y-120625500D01*
X172769186Y-120625500D01*
X172769186Y-120625499D01*
X172902836Y-120589688D01*
X173022665Y-120520505D01*
X173120505Y-120422665D01*
X173189688Y-120302836D01*
X173225499Y-120169186D01*
X173225500Y-120169186D01*
X173225500Y-120030814D01*
X173225499Y-120030813D01*
X173189688Y-119897165D01*
X173189687Y-119897161D01*
X173133879Y-119800500D01*
X173120505Y-119777335D01*
X173022665Y-119679495D01*
X172902838Y-119610312D01*
X172902834Y-119610311D01*
X172769186Y-119574500D01*
X172769183Y-119574500D01*
X172630817Y-119574500D01*
X172630814Y-119574500D01*
X172497165Y-119610311D01*
X172497161Y-119610312D01*
X172377334Y-119679495D01*
X172377334Y-119679496D01*
X172279496Y-119777334D01*
X172279495Y-119777334D01*
X172210312Y-119897161D01*
X172210311Y-119897165D01*
X172174500Y-120030813D01*
X170598704Y-120030813D01*
X170589688Y-119997165D01*
X170589687Y-119997161D01*
X170531951Y-119897161D01*
X170520505Y-119877335D01*
X170422665Y-119779495D01*
X170418922Y-119777334D01*
X170302838Y-119710312D01*
X170302834Y-119710311D01*
X170169186Y-119674500D01*
X170169183Y-119674500D01*
X170030817Y-119674500D01*
X170030814Y-119674500D01*
X169897165Y-119710311D01*
X169897161Y-119710312D01*
X169777334Y-119779495D01*
X169777334Y-119779496D01*
X169679496Y-119877334D01*
X169679495Y-119877334D01*
X169610312Y-119997161D01*
X169610311Y-119997165D01*
X169574500Y-120130813D01*
X132415300Y-120130813D01*
X132415300Y-119410247D01*
X179299500Y-119410247D01*
X179299500Y-121099971D01*
X179299501Y-121099981D01*
X179302415Y-121125105D01*
X179347794Y-121227879D01*
X179427233Y-121307318D01*
X179530006Y-121352697D01*
X179530009Y-121352698D01*
X179555135Y-121355613D01*
X181244864Y-121355612D01*
X181269991Y-121352698D01*
X181372765Y-121307319D01*
X181452206Y-121227878D01*
X181497585Y-121125104D01*
X181500500Y-121099978D01*
X181500500Y-121084621D01*
X184710100Y-121084621D01*
X184710100Y-122874345D01*
X184710101Y-122874355D01*
X184713015Y-122899479D01*
X184758394Y-123002253D01*
X184837833Y-123081692D01*
X184940606Y-123127071D01*
X184940609Y-123127072D01*
X184965735Y-123129987D01*
X186755464Y-123129986D01*
X186780591Y-123127072D01*
X186883365Y-123081693D01*
X186962806Y-123002252D01*
X187008185Y-122899478D01*
X187011100Y-122874352D01*
X187011099Y-121930813D01*
X203224500Y-121930813D01*
X203224500Y-122069186D01*
X203260311Y-122202834D01*
X203260312Y-122202838D01*
X203329495Y-122322665D01*
X203427335Y-122420505D01*
X203463937Y-122441637D01*
X203547161Y-122489687D01*
X203547163Y-122489687D01*
X203547164Y-122489688D01*
X203652571Y-122517931D01*
X203680813Y-122525499D01*
X203680814Y-122525500D01*
X203680817Y-122525500D01*
X203819186Y-122525500D01*
X203819186Y-122525499D01*
X203952836Y-122489688D01*
X204072665Y-122420505D01*
X204170505Y-122322665D01*
X204239688Y-122202836D01*
X204275499Y-122069186D01*
X204275500Y-122069186D01*
X204275500Y-121930814D01*
X204275499Y-121930813D01*
X204239688Y-121797165D01*
X204239687Y-121797161D01*
X204170504Y-121677334D01*
X204072665Y-121579495D01*
X203952838Y-121510312D01*
X203952834Y-121510311D01*
X203819186Y-121474500D01*
X203819183Y-121474500D01*
X203680817Y-121474500D01*
X203680814Y-121474500D01*
X203547165Y-121510311D01*
X203547161Y-121510312D01*
X203427334Y-121579495D01*
X203427334Y-121579496D01*
X203329496Y-121677334D01*
X203329495Y-121677334D01*
X203260312Y-121797161D01*
X203260311Y-121797165D01*
X203224500Y-121930813D01*
X187011099Y-121930813D01*
X187011099Y-121084623D01*
X187008185Y-121059496D01*
X186962806Y-120956722D01*
X186962805Y-120956721D01*
X186962805Y-120956720D01*
X186883366Y-120877281D01*
X186883367Y-120877281D01*
X186780593Y-120831902D01*
X186768028Y-120830444D01*
X186755465Y-120828987D01*
X186755463Y-120828987D01*
X184965741Y-120828987D01*
X184965731Y-120828988D01*
X184940607Y-120831902D01*
X184837833Y-120877281D01*
X184758394Y-120956720D01*
X184713015Y-121059493D01*
X184710100Y-121084621D01*
X181500500Y-121084621D01*
X181500499Y-119410249D01*
X181497585Y-119385122D01*
X181489516Y-119366847D01*
X181489499Y-119366808D01*
X181481610Y-119348941D01*
X184710100Y-119348941D01*
X184710100Y-119530032D01*
X184738428Y-119708893D01*
X184738429Y-119708896D01*
X184761367Y-119779495D01*
X184794389Y-119881126D01*
X184876604Y-120042481D01*
X184940784Y-120130817D01*
X184983048Y-120188989D01*
X184983052Y-120188994D01*
X185111093Y-120317035D01*
X185111097Y-120317038D01*
X185111099Y-120317040D01*
X185257606Y-120423483D01*
X185418961Y-120505698D01*
X185591191Y-120561658D01*
X185770054Y-120589987D01*
X185770055Y-120589987D01*
X185951145Y-120589987D01*
X185951146Y-120589987D01*
X186130009Y-120561658D01*
X186302239Y-120505698D01*
X186463594Y-120423483D01*
X186610101Y-120317040D01*
X186610104Y-120317036D01*
X186610107Y-120317035D01*
X186738148Y-120188994D01*
X186738149Y-120188991D01*
X186738153Y-120188988D01*
X186844596Y-120042481D01*
X186926811Y-119881126D01*
X186982771Y-119708896D01*
X187011100Y-119530033D01*
X187011100Y-119348941D01*
X186982771Y-119170078D01*
X186926811Y-118997848D01*
X186844596Y-118836493D01*
X186738153Y-118689986D01*
X186738151Y-118689984D01*
X186738148Y-118689980D01*
X186610107Y-118561939D01*
X186610102Y-118561935D01*
X186610101Y-118561934D01*
X186463594Y-118455491D01*
X186302239Y-118373276D01*
X186302238Y-118373275D01*
X186302237Y-118373275D01*
X186130009Y-118317316D01*
X186130006Y-118317315D01*
X185992607Y-118295553D01*
X185951146Y-118288987D01*
X185770054Y-118288987D01*
X185736394Y-118294318D01*
X185591193Y-118317315D01*
X185591190Y-118317316D01*
X185418962Y-118373275D01*
X185257606Y-118455491D01*
X185111097Y-118561935D01*
X184983048Y-118689984D01*
X184876604Y-118836493D01*
X184794388Y-118997849D01*
X184738429Y-119170077D01*
X184738428Y-119170080D01*
X184710100Y-119348941D01*
X181481610Y-119348941D01*
X181452205Y-119282346D01*
X181372766Y-119202907D01*
X181372767Y-119202907D01*
X181269993Y-119157528D01*
X181257428Y-119156070D01*
X181244865Y-119154613D01*
X181244863Y-119154613D01*
X179555141Y-119154613D01*
X179555131Y-119154614D01*
X179530007Y-119157528D01*
X179427233Y-119202907D01*
X179347794Y-119282346D01*
X179302415Y-119385119D01*
X179299500Y-119410247D01*
X132415300Y-119410247D01*
X132415300Y-117881989D01*
X189449500Y-117881989D01*
X189449500Y-118118011D01*
X189480307Y-118352014D01*
X189480308Y-118352018D01*
X189480309Y-118352025D01*
X189541391Y-118579986D01*
X189541395Y-118579996D01*
X189631716Y-118798050D01*
X189749725Y-119002447D01*
X189749735Y-119002462D01*
X189893403Y-119189693D01*
X189893413Y-119189705D01*
X190060294Y-119356586D01*
X190060306Y-119356596D01*
X190247537Y-119500264D01*
X190247546Y-119500270D01*
X190247550Y-119500273D01*
X190451951Y-119618284D01*
X190670007Y-119708606D01*
X190670010Y-119708606D01*
X190670013Y-119708608D01*
X190897974Y-119769690D01*
X190897975Y-119769690D01*
X190897986Y-119769693D01*
X191131989Y-119800500D01*
X191131993Y-119800500D01*
X191368007Y-119800500D01*
X191368011Y-119800500D01*
X191602014Y-119769693D01*
X191669742Y-119751545D01*
X191829986Y-119708608D01*
X191829986Y-119708607D01*
X191829993Y-119708606D01*
X192048049Y-119618284D01*
X192252450Y-119500273D01*
X192439699Y-119356592D01*
X192606592Y-119189699D01*
X192742404Y-119012705D01*
X192750264Y-119002462D01*
X192750265Y-119002459D01*
X192750273Y-119002450D01*
X192868284Y-118798049D01*
X192958606Y-118579993D01*
X193019693Y-118352014D01*
X193050500Y-118118011D01*
X193050500Y-117892244D01*
X197949500Y-117892244D01*
X197949500Y-118128266D01*
X197980307Y-118362269D01*
X197980308Y-118362273D01*
X197980309Y-118362280D01*
X198041391Y-118590241D01*
X198041395Y-118590251D01*
X198131716Y-118808305D01*
X198249725Y-119012702D01*
X198249735Y-119012717D01*
X198393403Y-119199948D01*
X198393413Y-119199960D01*
X198560294Y-119366841D01*
X198560306Y-119366851D01*
X198747537Y-119510519D01*
X198747546Y-119510525D01*
X198747550Y-119510528D01*
X198951951Y-119628539D01*
X199170007Y-119718861D01*
X199170010Y-119718861D01*
X199170013Y-119718863D01*
X199397974Y-119779945D01*
X199397975Y-119779945D01*
X199397986Y-119779948D01*
X199631989Y-119810755D01*
X199631993Y-119810755D01*
X199868007Y-119810755D01*
X199868011Y-119810755D01*
X200102014Y-119779948D01*
X200329993Y-119718861D01*
X200548049Y-119628539D01*
X200752450Y-119510528D01*
X200765827Y-119500264D01*
X200800409Y-119473727D01*
X200939699Y-119366847D01*
X201106592Y-119199954D01*
X201250273Y-119012705D01*
X201368284Y-118808304D01*
X201458606Y-118590248D01*
X201466192Y-118561939D01*
X201519690Y-118362280D01*
X201519689Y-118362280D01*
X201519693Y-118362269D01*
X201550500Y-118128266D01*
X201550500Y-117892244D01*
X201549150Y-117881989D01*
X202199500Y-117881989D01*
X202199500Y-118118011D01*
X202230307Y-118352014D01*
X202230308Y-118352018D01*
X202230309Y-118352025D01*
X202291391Y-118579986D01*
X202291395Y-118579996D01*
X202381716Y-118798050D01*
X202499725Y-119002447D01*
X202499735Y-119002462D01*
X202643403Y-119189693D01*
X202643413Y-119189705D01*
X202810294Y-119356586D01*
X202810306Y-119356596D01*
X202997537Y-119500264D01*
X202997546Y-119500270D01*
X202997550Y-119500273D01*
X203201951Y-119618284D01*
X203420007Y-119708606D01*
X203420010Y-119708606D01*
X203420013Y-119708608D01*
X203647974Y-119769690D01*
X203647975Y-119769690D01*
X203647986Y-119769693D01*
X203881989Y-119800500D01*
X203881993Y-119800500D01*
X204118007Y-119800500D01*
X204118011Y-119800500D01*
X204352014Y-119769693D01*
X204419742Y-119751545D01*
X204579986Y-119708608D01*
X204579986Y-119708607D01*
X204579993Y-119708606D01*
X204798049Y-119618284D01*
X205002450Y-119500273D01*
X205189699Y-119356592D01*
X205356592Y-119189699D01*
X205492404Y-119012705D01*
X205500264Y-119002462D01*
X205500265Y-119002459D01*
X205500273Y-119002450D01*
X205618284Y-118798049D01*
X205708606Y-118579993D01*
X205769693Y-118352014D01*
X205800500Y-118118011D01*
X205800500Y-117881989D01*
X205769693Y-117647986D01*
X205730800Y-117502834D01*
X205708608Y-117420013D01*
X205708604Y-117420003D01*
X205618283Y-117201949D01*
X205500274Y-116997552D01*
X205500264Y-116997537D01*
X205356596Y-116810306D01*
X205356586Y-116810294D01*
X205189705Y-116643413D01*
X205189693Y-116643403D01*
X205002462Y-116499735D01*
X205002447Y-116499725D01*
X204798050Y-116381716D01*
X204579996Y-116291395D01*
X204579986Y-116291391D01*
X204352025Y-116230309D01*
X204352018Y-116230308D01*
X204352014Y-116230307D01*
X204118011Y-116199500D01*
X203881989Y-116199500D01*
X203647986Y-116230307D01*
X203647982Y-116230307D01*
X203647974Y-116230309D01*
X203420013Y-116291391D01*
X203420003Y-116291395D01*
X203201949Y-116381716D01*
X202997552Y-116499725D01*
X202997537Y-116499735D01*
X202810306Y-116643403D01*
X202810294Y-116643413D01*
X202643413Y-116810294D01*
X202643403Y-116810306D01*
X202499735Y-116997537D01*
X202499725Y-116997552D01*
X202381716Y-117201949D01*
X202291395Y-117420003D01*
X202291391Y-117420013D01*
X202230309Y-117647974D01*
X202230307Y-117647982D01*
X202230307Y-117647986D01*
X202199500Y-117881989D01*
X201549150Y-117881989D01*
X201519693Y-117658241D01*
X201510161Y-117622666D01*
X201458608Y-117430268D01*
X201458604Y-117430258D01*
X201454360Y-117420013D01*
X201368284Y-117212206D01*
X201250273Y-117007805D01*
X201250270Y-117007801D01*
X201250264Y-117007792D01*
X201106596Y-116820561D01*
X201106586Y-116820549D01*
X200939705Y-116653668D01*
X200939693Y-116653658D01*
X200752462Y-116509990D01*
X200752447Y-116509980D01*
X200548050Y-116391971D01*
X200329996Y-116301650D01*
X200329986Y-116301646D01*
X200102025Y-116240564D01*
X200102018Y-116240563D01*
X200102014Y-116240562D01*
X199868011Y-116209755D01*
X199631989Y-116209755D01*
X199397986Y-116240562D01*
X199397982Y-116240562D01*
X199397974Y-116240564D01*
X199170013Y-116301646D01*
X199170003Y-116301650D01*
X198951949Y-116391971D01*
X198747552Y-116509980D01*
X198747537Y-116509990D01*
X198560306Y-116653658D01*
X198560294Y-116653668D01*
X198393413Y-116820549D01*
X198393403Y-116820561D01*
X198249735Y-117007792D01*
X198249725Y-117007807D01*
X198131716Y-117212204D01*
X198041395Y-117430258D01*
X198041391Y-117430268D01*
X197980309Y-117658229D01*
X197980307Y-117658237D01*
X197980307Y-117658241D01*
X197949500Y-117892244D01*
X193050500Y-117892244D01*
X193050500Y-117881989D01*
X193019693Y-117647986D01*
X192980800Y-117502834D01*
X192958608Y-117420013D01*
X192958604Y-117420003D01*
X192868283Y-117201949D01*
X192750274Y-116997552D01*
X192750264Y-116997537D01*
X192606596Y-116810306D01*
X192606586Y-116810294D01*
X192439705Y-116643413D01*
X192439693Y-116643403D01*
X192252462Y-116499735D01*
X192252447Y-116499725D01*
X192048050Y-116381716D01*
X191829996Y-116291395D01*
X191829986Y-116291391D01*
X191602025Y-116230309D01*
X191602018Y-116230308D01*
X191602014Y-116230307D01*
X191368011Y-116199500D01*
X191131989Y-116199500D01*
X190897986Y-116230307D01*
X190897982Y-116230307D01*
X190897974Y-116230309D01*
X190670013Y-116291391D01*
X190670003Y-116291395D01*
X190451949Y-116381716D01*
X190247552Y-116499725D01*
X190247537Y-116499735D01*
X190060306Y-116643403D01*
X190060294Y-116643413D01*
X189893413Y-116810294D01*
X189893403Y-116810306D01*
X189749735Y-116997537D01*
X189749725Y-116997552D01*
X189631716Y-117201949D01*
X189541395Y-117420003D01*
X189541391Y-117420013D01*
X189480309Y-117647974D01*
X189480307Y-117647982D01*
X189480307Y-117647986D01*
X189449500Y-117881989D01*
X132415300Y-117881989D01*
X132415300Y-117230813D01*
X172174500Y-117230813D01*
X172174500Y-117369186D01*
X172210311Y-117502834D01*
X172210312Y-117502838D01*
X172279495Y-117622665D01*
X172377335Y-117720505D01*
X172421194Y-117745827D01*
X172497161Y-117789687D01*
X172497163Y-117789687D01*
X172497164Y-117789688D01*
X172602571Y-117817931D01*
X172630813Y-117825499D01*
X172630814Y-117825500D01*
X172630817Y-117825500D01*
X172769186Y-117825500D01*
X172769186Y-117825499D01*
X172902836Y-117789688D01*
X173022665Y-117720505D01*
X173120505Y-117622665D01*
X173189688Y-117502836D01*
X173225499Y-117369186D01*
X173225500Y-117369186D01*
X173225500Y-117230814D01*
X173225499Y-117230813D01*
X173189688Y-117097165D01*
X173189687Y-117097161D01*
X173132176Y-116997550D01*
X173120505Y-116977335D01*
X173022665Y-116879495D01*
X172902838Y-116810312D01*
X172902834Y-116810311D01*
X172769186Y-116774500D01*
X172769183Y-116774500D01*
X172630817Y-116774500D01*
X172630814Y-116774500D01*
X172497165Y-116810311D01*
X172497161Y-116810312D01*
X172377334Y-116879495D01*
X172377334Y-116879496D01*
X172279496Y-116977334D01*
X172279495Y-116977334D01*
X172210312Y-117097161D01*
X172210311Y-117097165D01*
X172174500Y-117230813D01*
X132415300Y-117230813D01*
X132415300Y-116180813D01*
X173974500Y-116180813D01*
X173974500Y-116319186D01*
X174010311Y-116452834D01*
X174010312Y-116452838D01*
X174079495Y-116572665D01*
X174177335Y-116670505D01*
X174221194Y-116695827D01*
X174297161Y-116739687D01*
X174297163Y-116739687D01*
X174297164Y-116739688D01*
X174402571Y-116767931D01*
X174430813Y-116775499D01*
X174430814Y-116775500D01*
X174430817Y-116775500D01*
X174569186Y-116775500D01*
X174569186Y-116775499D01*
X174702836Y-116739688D01*
X174822665Y-116670505D01*
X174920505Y-116572665D01*
X174989688Y-116452836D01*
X175025499Y-116319186D01*
X175025500Y-116319186D01*
X175025500Y-116180814D01*
X175025499Y-116180813D01*
X174989688Y-116047165D01*
X174989687Y-116047161D01*
X174920504Y-115927334D01*
X174822665Y-115829495D01*
X174702838Y-115760312D01*
X174702834Y-115760311D01*
X174569186Y-115724500D01*
X174569183Y-115724500D01*
X174430817Y-115724500D01*
X174430814Y-115724500D01*
X174297165Y-115760311D01*
X174297161Y-115760312D01*
X174177334Y-115829495D01*
X174177334Y-115829496D01*
X174079496Y-115927334D01*
X174079495Y-115927334D01*
X174010312Y-116047161D01*
X174010311Y-116047165D01*
X173974500Y-116180813D01*
X132415300Y-116180813D01*
X132415300Y-112867634D01*
X134887000Y-112867634D01*
X134887000Y-114957358D01*
X134887001Y-114957368D01*
X134889915Y-114982492D01*
X134935294Y-115085266D01*
X135014733Y-115164705D01*
X135117506Y-115210084D01*
X135117509Y-115210085D01*
X135142635Y-115213000D01*
X137232364Y-115212999D01*
X137257491Y-115210085D01*
X137360265Y-115164706D01*
X137439706Y-115085265D01*
X137485085Y-114982491D01*
X137488000Y-114957365D01*
X137487999Y-112867636D01*
X137485085Y-112842509D01*
X137439706Y-112739735D01*
X137439705Y-112739734D01*
X137439705Y-112739733D01*
X137360266Y-112660294D01*
X137360267Y-112660294D01*
X137257493Y-112614915D01*
X137244928Y-112613457D01*
X137232365Y-112612000D01*
X137232363Y-112612000D01*
X135142641Y-112612000D01*
X135142631Y-112612001D01*
X135117507Y-112614915D01*
X135014733Y-112660294D01*
X134935294Y-112739733D01*
X134889915Y-112842506D01*
X134887000Y-112867634D01*
X132415300Y-112867634D01*
X132415300Y-104477966D01*
X162368807Y-104477966D01*
X162368807Y-104616339D01*
X162404618Y-104749987D01*
X162404619Y-104749991D01*
X162435131Y-104802838D01*
X162473802Y-104869818D01*
X162571642Y-104967658D01*
X162615501Y-104992980D01*
X162691468Y-105036840D01*
X162691470Y-105036840D01*
X162691471Y-105036841D01*
X162796878Y-105065084D01*
X162825120Y-105072652D01*
X162825121Y-105072653D01*
X162825124Y-105072653D01*
X162963493Y-105072653D01*
X162963493Y-105072652D01*
X163097143Y-105036841D01*
X163216972Y-104967658D01*
X163314812Y-104869818D01*
X163383995Y-104749989D01*
X163419806Y-104616339D01*
X163419807Y-104616339D01*
X163419807Y-104530813D01*
X168737000Y-104530813D01*
X168737000Y-104669186D01*
X168772811Y-104802834D01*
X168772812Y-104802838D01*
X168811484Y-104869819D01*
X168841995Y-104922665D01*
X168939835Y-105020505D01*
X168968128Y-105036840D01*
X169059661Y-105089687D01*
X169059663Y-105089687D01*
X169059664Y-105089688D01*
X169165071Y-105117931D01*
X169193313Y-105125499D01*
X169193314Y-105125500D01*
X169193317Y-105125500D01*
X169331686Y-105125500D01*
X169331686Y-105125499D01*
X169465336Y-105089688D01*
X169585165Y-105020505D01*
X169683005Y-104922665D01*
X169752188Y-104802836D01*
X169787999Y-104669186D01*
X169788000Y-104669186D01*
X169788000Y-104530814D01*
X169787999Y-104530813D01*
X169752188Y-104397165D01*
X169752187Y-104397161D01*
X169683004Y-104277334D01*
X169585165Y-104179495D01*
X169465338Y-104110312D01*
X169465334Y-104110311D01*
X169331686Y-104074500D01*
X169331683Y-104074500D01*
X169193317Y-104074500D01*
X169193314Y-104074500D01*
X169059665Y-104110311D01*
X169059661Y-104110312D01*
X168939834Y-104179495D01*
X168939834Y-104179496D01*
X168841996Y-104277334D01*
X168841995Y-104277334D01*
X168772812Y-104397161D01*
X168772811Y-104397165D01*
X168737000Y-104530813D01*
X163419807Y-104530813D01*
X163419807Y-104477967D01*
X163419806Y-104477966D01*
X163383995Y-104344318D01*
X163383994Y-104344314D01*
X163314811Y-104224487D01*
X163216972Y-104126648D01*
X163097145Y-104057465D01*
X163097141Y-104057464D01*
X162963493Y-104021653D01*
X162963490Y-104021653D01*
X162825124Y-104021653D01*
X162825121Y-104021653D01*
X162691472Y-104057464D01*
X162691468Y-104057465D01*
X162571641Y-104126648D01*
X162571641Y-104126649D01*
X162473803Y-104224487D01*
X162473802Y-104224487D01*
X162404619Y-104344314D01*
X162404618Y-104344318D01*
X162368807Y-104477966D01*
X132415300Y-104477966D01*
X132415300Y-102292953D01*
X160855570Y-102292953D01*
X160855570Y-102431326D01*
X160891381Y-102564974D01*
X160891382Y-102564978D01*
X160960565Y-102684805D01*
X161058405Y-102782645D01*
X161099722Y-102806499D01*
X161178231Y-102851827D01*
X161178233Y-102851827D01*
X161178234Y-102851828D01*
X161225333Y-102864448D01*
X161311883Y-102887639D01*
X161311884Y-102887640D01*
X161311887Y-102887640D01*
X161450256Y-102887640D01*
X161450256Y-102887639D01*
X161583906Y-102851828D01*
X161608708Y-102837507D01*
X161631031Y-102824620D01*
X161668213Y-102819724D01*
X161690179Y-102832407D01*
X161691568Y-102833796D01*
X161735427Y-102859118D01*
X161811394Y-102902978D01*
X161811396Y-102902978D01*
X161811397Y-102902979D01*
X161916804Y-102931222D01*
X161945046Y-102938790D01*
X161945047Y-102938791D01*
X161945050Y-102938791D01*
X162083419Y-102938791D01*
X162083419Y-102938790D01*
X162217069Y-102902979D01*
X162221779Y-102900260D01*
X162243639Y-102887639D01*
X162336898Y-102833796D01*
X162356407Y-102814286D01*
X162391054Y-102799934D01*
X162415555Y-102806499D01*
X162515923Y-102864447D01*
X162515925Y-102864447D01*
X162515926Y-102864448D01*
X162602477Y-102887639D01*
X162649575Y-102900259D01*
X162649576Y-102900260D01*
X162649579Y-102900260D01*
X162787948Y-102900260D01*
X162787948Y-102900259D01*
X162921598Y-102864448D01*
X163041427Y-102795265D01*
X163139267Y-102697425D01*
X163208450Y-102577596D01*
X163244261Y-102443946D01*
X163244262Y-102443946D01*
X163244262Y-102305574D01*
X163244261Y-102305573D01*
X163208450Y-102171925D01*
X163208449Y-102171921D01*
X163139266Y-102052094D01*
X163041427Y-101954255D01*
X162921600Y-101885072D01*
X162921596Y-101885071D01*
X162787948Y-101849260D01*
X162787945Y-101849260D01*
X162649579Y-101849260D01*
X162649576Y-101849260D01*
X162515927Y-101885071D01*
X162515923Y-101885072D01*
X162396096Y-101954255D01*
X162376586Y-101973765D01*
X162341938Y-101988116D01*
X162317439Y-101981551D01*
X162217071Y-101923603D01*
X162217067Y-101923602D01*
X162083419Y-101887791D01*
X162083416Y-101887791D01*
X161945050Y-101887791D01*
X161945047Y-101887791D01*
X161811398Y-101923602D01*
X161811397Y-101923602D01*
X161764270Y-101950811D01*
X161727088Y-101955705D01*
X161705123Y-101943023D01*
X161703735Y-101941635D01*
X161583908Y-101872452D01*
X161583904Y-101872451D01*
X161450256Y-101836640D01*
X161450253Y-101836640D01*
X161311887Y-101836640D01*
X161311884Y-101836640D01*
X161178235Y-101872451D01*
X161178231Y-101872452D01*
X161058404Y-101941635D01*
X161058404Y-101941636D01*
X160960566Y-102039474D01*
X160960565Y-102039474D01*
X160891382Y-102159301D01*
X160891381Y-102159305D01*
X160855570Y-102292953D01*
X132415300Y-102292953D01*
X132415300Y-98230813D01*
X154974500Y-98230813D01*
X154974500Y-98369186D01*
X155010311Y-98502834D01*
X155010312Y-98502838D01*
X155055498Y-98581101D01*
X155079495Y-98622665D01*
X155177335Y-98720505D01*
X155221194Y-98745827D01*
X155297161Y-98789687D01*
X155297163Y-98789687D01*
X155297164Y-98789688D01*
X155325069Y-98797165D01*
X155430813Y-98825499D01*
X155430814Y-98825500D01*
X155430817Y-98825500D01*
X155569186Y-98825500D01*
X155569186Y-98825499D01*
X155702836Y-98789688D01*
X155822665Y-98720505D01*
X155920505Y-98622665D01*
X155989688Y-98502836D01*
X156025499Y-98369186D01*
X156025500Y-98369186D01*
X156025500Y-98230814D01*
X156025499Y-98230813D01*
X155989688Y-98097165D01*
X155989687Y-98097161D01*
X155920504Y-97977334D01*
X155822665Y-97879495D01*
X155702838Y-97810312D01*
X155702834Y-97810311D01*
X155569186Y-97774500D01*
X155569183Y-97774500D01*
X155430817Y-97774500D01*
X155430814Y-97774500D01*
X155297165Y-97810311D01*
X155297161Y-97810312D01*
X155177334Y-97879495D01*
X155177334Y-97879496D01*
X155079496Y-97977334D01*
X155079495Y-97977334D01*
X155010312Y-98097161D01*
X155010311Y-98097165D01*
X154974500Y-98230813D01*
X132415300Y-98230813D01*
X132415300Y-95081989D01*
X154899500Y-95081989D01*
X154899500Y-95318011D01*
X154930307Y-95552014D01*
X154930308Y-95552018D01*
X154930309Y-95552025D01*
X154991391Y-95779986D01*
X154991395Y-95779996D01*
X155081716Y-95998050D01*
X155199725Y-96202447D01*
X155199735Y-96202462D01*
X155343403Y-96389693D01*
X155343413Y-96389705D01*
X155510294Y-96556586D01*
X155510306Y-96556596D01*
X155697537Y-96700264D01*
X155697546Y-96700270D01*
X155697550Y-96700273D01*
X155901951Y-96818284D01*
X156120007Y-96908606D01*
X156120010Y-96908606D01*
X156120013Y-96908608D01*
X156347974Y-96969690D01*
X156347975Y-96969690D01*
X156347986Y-96969693D01*
X156581989Y-97000500D01*
X156581993Y-97000500D01*
X156818007Y-97000500D01*
X156818011Y-97000500D01*
X157052014Y-96969693D01*
X157279993Y-96908606D01*
X157498049Y-96818284D01*
X157702450Y-96700273D01*
X157732344Y-96677335D01*
X157849738Y-96587255D01*
X157889699Y-96556592D01*
X158056592Y-96389699D01*
X158199977Y-96202836D01*
X158200264Y-96202462D01*
X158200265Y-96202459D01*
X158200273Y-96202450D01*
X158318284Y-95998049D01*
X158408606Y-95779993D01*
X158436114Y-95677334D01*
X158469690Y-95552025D01*
X158469689Y-95552025D01*
X158469693Y-95552014D01*
X158500500Y-95318011D01*
X158500500Y-95081989D01*
X158469693Y-94847986D01*
X158456075Y-94797164D01*
X158408608Y-94620013D01*
X158408604Y-94620003D01*
X158395039Y-94587255D01*
X158318284Y-94401951D01*
X158200273Y-94197550D01*
X158200270Y-94197546D01*
X158200264Y-94197537D01*
X158056596Y-94010306D01*
X158056586Y-94010294D01*
X157977105Y-93930813D01*
X158974500Y-93930813D01*
X158974500Y-94069186D01*
X159010311Y-94202834D01*
X159010312Y-94202838D01*
X159079495Y-94322665D01*
X159177335Y-94420505D01*
X159234756Y-94453657D01*
X159241525Y-94457565D01*
X159264355Y-94487318D01*
X159259460Y-94524500D01*
X159241525Y-94542435D01*
X159177334Y-94579495D01*
X159177334Y-94579496D01*
X159079496Y-94677334D01*
X159079495Y-94677334D01*
X159010312Y-94797161D01*
X159010311Y-94797165D01*
X158974500Y-94930813D01*
X158974500Y-95069186D01*
X159010311Y-95202834D01*
X159010312Y-95202838D01*
X159076806Y-95318007D01*
X159079495Y-95322665D01*
X159177335Y-95420505D01*
X159234756Y-95453657D01*
X159241525Y-95457565D01*
X159264355Y-95487318D01*
X159259460Y-95524500D01*
X159241525Y-95542435D01*
X159177334Y-95579495D01*
X159177334Y-95579496D01*
X159079496Y-95677334D01*
X159079495Y-95677334D01*
X159010312Y-95797161D01*
X159010311Y-95797165D01*
X158974500Y-95930813D01*
X158974500Y-96069186D01*
X159010311Y-96202834D01*
X159010312Y-96202838D01*
X159079495Y-96322665D01*
X159177335Y-96420505D01*
X159234756Y-96453657D01*
X159241525Y-96457565D01*
X159264355Y-96487318D01*
X159259460Y-96524500D01*
X159241525Y-96542435D01*
X159177334Y-96579495D01*
X159177334Y-96579496D01*
X159079496Y-96677334D01*
X159079495Y-96677334D01*
X159010312Y-96797161D01*
X159010311Y-96797165D01*
X158974500Y-96930813D01*
X158974500Y-97069186D01*
X159010311Y-97202834D01*
X159010312Y-97202838D01*
X159079495Y-97322665D01*
X159177335Y-97420505D01*
X159234756Y-97453657D01*
X159241525Y-97457565D01*
X159264355Y-97487318D01*
X159259460Y-97524500D01*
X159241525Y-97542435D01*
X159177334Y-97579495D01*
X159177334Y-97579496D01*
X159079496Y-97677334D01*
X159079495Y-97677334D01*
X159010312Y-97797161D01*
X159010311Y-97797165D01*
X158974500Y-97930813D01*
X158974500Y-98069186D01*
X159010311Y-98202834D01*
X159010312Y-98202838D01*
X159079495Y-98322665D01*
X159177335Y-98420505D01*
X159234756Y-98453657D01*
X159241525Y-98457565D01*
X159264355Y-98487318D01*
X159259460Y-98524500D01*
X159241525Y-98542435D01*
X159177334Y-98579495D01*
X159177334Y-98579496D01*
X159079496Y-98677334D01*
X159079495Y-98677334D01*
X159010312Y-98797161D01*
X159010311Y-98797165D01*
X158974500Y-98930813D01*
X158974500Y-99069186D01*
X159010311Y-99202834D01*
X159010312Y-99202838D01*
X159079495Y-99322665D01*
X159177335Y-99420505D01*
X159234756Y-99453657D01*
X159241525Y-99457565D01*
X159264355Y-99487318D01*
X159259460Y-99524500D01*
X159241525Y-99542435D01*
X159177334Y-99579495D01*
X159177334Y-99579496D01*
X159079496Y-99677334D01*
X159079495Y-99677334D01*
X159010312Y-99797161D01*
X159010311Y-99797165D01*
X158974500Y-99930813D01*
X158974500Y-100069186D01*
X159010311Y-100202834D01*
X159010312Y-100202838D01*
X159079495Y-100322665D01*
X159177335Y-100420505D01*
X159234756Y-100453657D01*
X159241525Y-100457565D01*
X159264355Y-100487318D01*
X159259460Y-100524500D01*
X159241525Y-100542435D01*
X159177334Y-100579495D01*
X159177334Y-100579496D01*
X159079496Y-100677334D01*
X159079495Y-100677334D01*
X159010312Y-100797161D01*
X159010311Y-100797165D01*
X158974500Y-100930813D01*
X158974500Y-101069186D01*
X159010311Y-101202834D01*
X159010312Y-101202838D01*
X159079495Y-101322665D01*
X159177335Y-101420505D01*
X159221194Y-101445827D01*
X159297161Y-101489687D01*
X159297163Y-101489687D01*
X159297164Y-101489688D01*
X159402571Y-101517931D01*
X159430813Y-101525499D01*
X159430814Y-101525500D01*
X159430817Y-101525500D01*
X159569186Y-101525500D01*
X159569186Y-101525499D01*
X159702836Y-101489688D01*
X159822665Y-101420505D01*
X159822665Y-101420504D01*
X159825446Y-101418899D01*
X159826539Y-101420792D01*
X159856078Y-101412670D01*
X159873890Y-101420048D01*
X159874554Y-101418899D01*
X159877334Y-101420504D01*
X159877335Y-101420505D01*
X159917594Y-101443748D01*
X159997161Y-101489687D01*
X159997163Y-101489687D01*
X159997164Y-101489688D01*
X160102571Y-101517931D01*
X160130813Y-101525499D01*
X160130814Y-101525500D01*
X160130817Y-101525500D01*
X160269186Y-101525500D01*
X160269186Y-101525499D01*
X160402836Y-101489688D01*
X160522665Y-101420505D01*
X160620505Y-101322665D01*
X160689688Y-101202836D01*
X160725499Y-101069186D01*
X160725500Y-101069186D01*
X160725500Y-100930814D01*
X160725499Y-100930813D01*
X165724500Y-100930813D01*
X165724500Y-101069186D01*
X165760311Y-101202834D01*
X165760312Y-101202838D01*
X165829495Y-101322665D01*
X165927335Y-101420505D01*
X165971194Y-101445827D01*
X166047161Y-101489687D01*
X166047163Y-101489687D01*
X166047164Y-101489688D01*
X166152571Y-101517931D01*
X166180813Y-101525499D01*
X166180814Y-101525500D01*
X166180817Y-101525500D01*
X166319186Y-101525500D01*
X166319186Y-101525499D01*
X166452836Y-101489688D01*
X166572665Y-101420505D01*
X166670505Y-101322665D01*
X166739688Y-101202836D01*
X166775499Y-101069186D01*
X166775500Y-101069186D01*
X166775500Y-100930814D01*
X166775499Y-100930813D01*
X166739688Y-100797165D01*
X166739687Y-100797161D01*
X166670504Y-100677334D01*
X166572665Y-100579495D01*
X166452838Y-100510312D01*
X166452834Y-100510311D01*
X166319186Y-100474500D01*
X166319183Y-100474500D01*
X166180817Y-100474500D01*
X166180814Y-100474500D01*
X166047165Y-100510311D01*
X166047161Y-100510312D01*
X165927334Y-100579495D01*
X165927334Y-100579496D01*
X165829496Y-100677334D01*
X165829495Y-100677334D01*
X165760312Y-100797161D01*
X165760311Y-100797165D01*
X165724500Y-100930813D01*
X160725499Y-100930813D01*
X160689688Y-100797165D01*
X160689687Y-100797161D01*
X160620504Y-100677334D01*
X160522665Y-100579495D01*
X160458473Y-100542434D01*
X160435644Y-100512682D01*
X160440539Y-100475500D01*
X160458472Y-100457566D01*
X160522665Y-100420505D01*
X160620505Y-100322665D01*
X160689688Y-100202836D01*
X160725499Y-100069186D01*
X160725500Y-100069186D01*
X160725500Y-99930814D01*
X160725499Y-99930813D01*
X160689688Y-99797165D01*
X160689687Y-99797161D01*
X160620504Y-99677334D01*
X160522665Y-99579495D01*
X160458473Y-99542434D01*
X160435644Y-99512682D01*
X160440539Y-99475500D01*
X160458472Y-99457566D01*
X160522665Y-99420505D01*
X160620505Y-99322665D01*
X160689688Y-99202836D01*
X160725499Y-99069186D01*
X160725500Y-99069186D01*
X160725500Y-98930814D01*
X160725499Y-98930813D01*
X160717931Y-98902571D01*
X160689688Y-98797164D01*
X160689687Y-98797163D01*
X160689687Y-98797161D01*
X160620504Y-98677334D01*
X160522665Y-98579495D01*
X160458473Y-98542434D01*
X160435644Y-98512682D01*
X160440539Y-98475500D01*
X160458472Y-98457566D01*
X160522665Y-98420505D01*
X160620505Y-98322665D01*
X160689688Y-98202836D01*
X160725499Y-98069186D01*
X160725500Y-98069186D01*
X160725500Y-97930814D01*
X160725499Y-97930813D01*
X160693211Y-97810312D01*
X160689688Y-97797164D01*
X160689687Y-97797163D01*
X160689687Y-97797161D01*
X160620504Y-97677334D01*
X160522665Y-97579495D01*
X160458473Y-97542434D01*
X160435644Y-97512682D01*
X160440539Y-97475500D01*
X160458472Y-97457566D01*
X160522665Y-97420505D01*
X160620505Y-97322665D01*
X160689688Y-97202836D01*
X160725499Y-97069186D01*
X160725500Y-97069186D01*
X160725500Y-96930814D01*
X160725499Y-96930813D01*
X160689688Y-96797165D01*
X160689687Y-96797161D01*
X160620504Y-96677334D01*
X160522665Y-96579495D01*
X160458473Y-96542434D01*
X160435644Y-96512682D01*
X160440539Y-96475500D01*
X160458472Y-96457566D01*
X160522665Y-96420505D01*
X160620505Y-96322665D01*
X160689688Y-96202836D01*
X160725499Y-96069186D01*
X160725500Y-96069186D01*
X160725500Y-95930814D01*
X160725499Y-95930813D01*
X160689688Y-95797165D01*
X160689687Y-95797161D01*
X160620504Y-95677334D01*
X160522665Y-95579495D01*
X160475066Y-95552014D01*
X160458473Y-95542434D01*
X160435644Y-95512682D01*
X160440539Y-95475500D01*
X160458472Y-95457566D01*
X160522665Y-95420505D01*
X160620505Y-95322665D01*
X160689688Y-95202836D01*
X160725499Y-95069186D01*
X160725500Y-95069186D01*
X160725500Y-94930814D01*
X160725499Y-94930813D01*
X160717931Y-94902571D01*
X160689688Y-94797164D01*
X160689687Y-94797163D01*
X160689687Y-94797161D01*
X160620504Y-94677334D01*
X160522665Y-94579495D01*
X160458473Y-94542434D01*
X160435644Y-94512682D01*
X160440539Y-94475500D01*
X160458472Y-94457566D01*
X160522665Y-94420505D01*
X160620505Y-94322665D01*
X160689688Y-94202836D01*
X160725499Y-94069186D01*
X160725500Y-94069186D01*
X160725500Y-93930814D01*
X160725499Y-93930813D01*
X160702079Y-93843408D01*
X160689688Y-93797164D01*
X160689687Y-93797163D01*
X160689687Y-93797161D01*
X160645827Y-93721194D01*
X160620505Y-93677335D01*
X160522665Y-93579495D01*
X160522384Y-93579333D01*
X160402838Y-93510312D01*
X160402834Y-93510311D01*
X160269186Y-93474500D01*
X160269183Y-93474500D01*
X160130817Y-93474500D01*
X160130814Y-93474500D01*
X159997165Y-93510311D01*
X159997161Y-93510312D01*
X159897368Y-93567928D01*
X159877335Y-93579495D01*
X159877334Y-93579495D01*
X159874554Y-93581101D01*
X159873533Y-93579333D01*
X159843357Y-93587255D01*
X159826035Y-93580080D01*
X159825446Y-93581101D01*
X159822665Y-93579495D01*
X159794136Y-93563024D01*
X159702838Y-93510312D01*
X159702834Y-93510311D01*
X159569186Y-93474500D01*
X159569183Y-93474500D01*
X159430817Y-93474500D01*
X159430814Y-93474500D01*
X159297165Y-93510311D01*
X159297161Y-93510312D01*
X159177334Y-93579495D01*
X159177334Y-93579496D01*
X159079496Y-93677334D01*
X159079495Y-93677334D01*
X159010312Y-93797161D01*
X159010311Y-93797165D01*
X158974500Y-93930813D01*
X157977105Y-93930813D01*
X157889705Y-93843413D01*
X157889693Y-93843403D01*
X157702462Y-93699735D01*
X157702447Y-93699725D01*
X157498050Y-93581716D01*
X157279996Y-93491395D01*
X157279986Y-93491391D01*
X157052025Y-93430309D01*
X157052018Y-93430308D01*
X157052014Y-93430307D01*
X156818011Y-93399500D01*
X156581989Y-93399500D01*
X156347986Y-93430307D01*
X156347982Y-93430307D01*
X156347974Y-93430309D01*
X156120013Y-93491391D01*
X156120003Y-93491395D01*
X155901949Y-93581716D01*
X155697552Y-93699725D01*
X155697537Y-93699735D01*
X155510306Y-93843403D01*
X155510294Y-93843413D01*
X155343413Y-94010294D01*
X155343403Y-94010306D01*
X155199735Y-94197537D01*
X155199725Y-94197552D01*
X155081716Y-94401949D01*
X154991395Y-94620003D01*
X154991391Y-94620013D01*
X154930309Y-94847974D01*
X154930307Y-94847982D01*
X154930307Y-94847986D01*
X154899500Y-95081989D01*
X132415300Y-95081989D01*
X132415300Y-89867634D01*
X134887000Y-89867634D01*
X134887000Y-91957358D01*
X134887001Y-91957368D01*
X134889915Y-91982492D01*
X134935294Y-92085266D01*
X135014733Y-92164705D01*
X135117506Y-92210084D01*
X135117509Y-92210085D01*
X135142635Y-92213000D01*
X137232364Y-92212999D01*
X137257491Y-92210085D01*
X137360265Y-92164706D01*
X137370857Y-92154114D01*
X137422852Y-92102120D01*
X137457500Y-92087768D01*
X137492148Y-92102120D01*
X137554733Y-92164705D01*
X137657506Y-92210084D01*
X137657509Y-92210085D01*
X137682635Y-92213000D01*
X139772364Y-92212999D01*
X139797491Y-92210085D01*
X139900265Y-92164706D01*
X139979706Y-92085265D01*
X140025085Y-91982491D01*
X140028000Y-91957365D01*
X140027999Y-89867636D01*
X140027999Y-89867634D01*
X146347000Y-89867634D01*
X146347000Y-91957358D01*
X146347001Y-91957368D01*
X146349915Y-91982492D01*
X146395294Y-92085266D01*
X146474733Y-92164705D01*
X146577506Y-92210084D01*
X146577509Y-92210085D01*
X146602635Y-92213000D01*
X148692364Y-92212999D01*
X148717491Y-92210085D01*
X148820265Y-92164706D01*
X148899706Y-92085265D01*
X148945085Y-91982491D01*
X148948000Y-91957365D01*
X148948000Y-91618431D01*
X152208827Y-91618431D01*
X152208827Y-91854453D01*
X152239634Y-92088456D01*
X152239635Y-92088460D01*
X152239636Y-92088467D01*
X152300718Y-92316428D01*
X152300722Y-92316438D01*
X152391043Y-92534492D01*
X152509052Y-92738889D01*
X152509062Y-92738904D01*
X152652730Y-92926135D01*
X152652740Y-92926147D01*
X152819621Y-93093028D01*
X152819633Y-93093038D01*
X153006864Y-93236706D01*
X153006873Y-93236712D01*
X153006877Y-93236715D01*
X153211278Y-93354726D01*
X153429334Y-93445048D01*
X153429337Y-93445048D01*
X153429340Y-93445050D01*
X153657301Y-93506132D01*
X153657302Y-93506132D01*
X153657313Y-93506135D01*
X153891316Y-93536942D01*
X153891320Y-93536942D01*
X154127334Y-93536942D01*
X154127338Y-93536942D01*
X154361341Y-93506135D01*
X154589320Y-93445048D01*
X154807376Y-93354726D01*
X155011777Y-93236715D01*
X155199026Y-93093034D01*
X155365919Y-92926141D01*
X155509600Y-92738892D01*
X155627611Y-92534491D01*
X155717933Y-92316435D01*
X155746430Y-92210085D01*
X155779017Y-92088467D01*
X155779016Y-92088467D01*
X155779020Y-92088456D01*
X155809827Y-91854453D01*
X155809827Y-91618431D01*
X155779020Y-91384428D01*
X155717933Y-91156449D01*
X155627611Y-90938393D01*
X155509600Y-90733992D01*
X155509597Y-90733988D01*
X155509591Y-90733979D01*
X155365923Y-90546748D01*
X155365913Y-90546736D01*
X155199032Y-90379855D01*
X155199020Y-90379845D01*
X155011789Y-90236177D01*
X155011774Y-90236167D01*
X154807377Y-90118158D01*
X154589323Y-90027837D01*
X154589317Y-90027835D01*
X154578494Y-90024935D01*
X154578493Y-90024934D01*
X154413832Y-89980813D01*
X161024500Y-89980813D01*
X161024500Y-90119186D01*
X161060311Y-90252834D01*
X161060312Y-90252838D01*
X161129495Y-90372665D01*
X161227335Y-90470505D01*
X161271194Y-90495827D01*
X161347161Y-90539687D01*
X161347163Y-90539687D01*
X161347164Y-90539688D01*
X161452571Y-90567931D01*
X161480813Y-90575499D01*
X161480814Y-90575500D01*
X161480817Y-90575500D01*
X161619186Y-90575500D01*
X161619186Y-90575499D01*
X161752836Y-90539688D01*
X161872665Y-90470505D01*
X161970505Y-90372665D01*
X162039688Y-90252836D01*
X162075499Y-90119186D01*
X162075500Y-90119186D01*
X162075500Y-89980814D01*
X162075499Y-89980813D01*
X162039688Y-89847165D01*
X162039687Y-89847161D01*
X161970504Y-89727334D01*
X161872665Y-89629495D01*
X161752838Y-89560312D01*
X161752834Y-89560311D01*
X161619186Y-89524500D01*
X161619183Y-89524500D01*
X161480817Y-89524500D01*
X161480814Y-89524500D01*
X161347165Y-89560311D01*
X161347161Y-89560312D01*
X161227334Y-89629495D01*
X161227334Y-89629496D01*
X161129496Y-89727334D01*
X161129495Y-89727334D01*
X161060312Y-89847161D01*
X161060311Y-89847165D01*
X161024500Y-89980813D01*
X154413832Y-89980813D01*
X154361352Y-89966751D01*
X154361345Y-89966750D01*
X154361341Y-89966749D01*
X154127338Y-89935942D01*
X153891316Y-89935942D01*
X153657313Y-89966749D01*
X153657309Y-89966749D01*
X153657301Y-89966751D01*
X153429340Y-90027833D01*
X153429330Y-90027837D01*
X153211276Y-90118158D01*
X153006879Y-90236167D01*
X153006864Y-90236177D01*
X152819633Y-90379845D01*
X152819621Y-90379855D01*
X152652740Y-90546736D01*
X152652730Y-90546748D01*
X152509062Y-90733979D01*
X152509052Y-90733994D01*
X152391043Y-90938391D01*
X152300722Y-91156445D01*
X152300718Y-91156455D01*
X152239636Y-91384416D01*
X152239634Y-91384424D01*
X152239634Y-91384428D01*
X152208827Y-91618431D01*
X148948000Y-91618431D01*
X148947999Y-89867636D01*
X148945085Y-89842509D01*
X148899706Y-89739735D01*
X148899705Y-89739734D01*
X148899705Y-89739733D01*
X148820266Y-89660294D01*
X148820267Y-89660294D01*
X148717493Y-89614915D01*
X148704928Y-89613457D01*
X148692365Y-89612000D01*
X148692363Y-89612000D01*
X146602641Y-89612000D01*
X146602631Y-89612001D01*
X146577507Y-89614915D01*
X146474733Y-89660294D01*
X146395294Y-89739733D01*
X146349915Y-89842506D01*
X146347000Y-89867634D01*
X140027999Y-89867634D01*
X140025085Y-89842509D01*
X139979706Y-89739735D01*
X139979705Y-89739734D01*
X139979705Y-89739733D01*
X139900266Y-89660294D01*
X139900267Y-89660294D01*
X139797493Y-89614915D01*
X139784928Y-89613457D01*
X139772365Y-89612000D01*
X139772363Y-89612000D01*
X137682641Y-89612000D01*
X137682631Y-89612001D01*
X137657507Y-89614915D01*
X137554733Y-89660294D01*
X137492148Y-89722880D01*
X137457500Y-89737232D01*
X137422852Y-89722880D01*
X137360266Y-89660294D01*
X137360267Y-89660294D01*
X137257493Y-89614915D01*
X137244928Y-89613457D01*
X137232365Y-89612000D01*
X137232363Y-89612000D01*
X135142641Y-89612000D01*
X135142631Y-89612001D01*
X135117507Y-89614915D01*
X135014733Y-89660294D01*
X134935294Y-89739733D01*
X134889915Y-89842506D01*
X134887000Y-89867634D01*
X132415300Y-89867634D01*
X132415300Y-87571152D01*
X158849500Y-87571152D01*
X158849500Y-87728847D01*
X158880260Y-87883487D01*
X158880263Y-87883498D01*
X158939082Y-88025500D01*
X158940606Y-88029179D01*
X159028211Y-88160289D01*
X159139711Y-88271789D01*
X159270821Y-88359394D01*
X159416503Y-88419737D01*
X159416509Y-88419738D01*
X159416512Y-88419739D01*
X159571152Y-88450499D01*
X159571158Y-88450500D01*
X159728842Y-88450500D01*
X159883497Y-88419737D01*
X160029179Y-88359394D01*
X160160289Y-88271789D01*
X160271789Y-88160289D01*
X160359394Y-88029179D01*
X160419737Y-87883497D01*
X160450500Y-87728842D01*
X160450500Y-87571158D01*
X160439983Y-87518284D01*
X160419739Y-87416512D01*
X160419736Y-87416501D01*
X160413014Y-87400273D01*
X160359394Y-87270821D01*
X160271789Y-87139711D01*
X160160289Y-87028211D01*
X160029179Y-86940606D01*
X160029176Y-86940604D01*
X160029175Y-86940604D01*
X159883498Y-86880263D01*
X159883487Y-86880260D01*
X159728847Y-86849500D01*
X159728842Y-86849500D01*
X159571158Y-86849500D01*
X159571152Y-86849500D01*
X159416512Y-86880260D01*
X159416501Y-86880263D01*
X159270824Y-86940604D01*
X159139711Y-87028210D01*
X159028210Y-87139711D01*
X158940604Y-87270824D01*
X158880263Y-87416501D01*
X158880260Y-87416512D01*
X158849500Y-87571152D01*
X132415300Y-87571152D01*
X132415300Y-86721152D01*
X164399500Y-86721152D01*
X164399500Y-86878847D01*
X164430260Y-87033487D01*
X164430263Y-87033498D01*
X164489842Y-87177335D01*
X164490606Y-87179179D01*
X164549271Y-87266978D01*
X164578210Y-87310288D01*
X164633274Y-87365352D01*
X164647626Y-87400000D01*
X164633274Y-87434648D01*
X164578210Y-87489711D01*
X164490604Y-87620824D01*
X164430263Y-87766501D01*
X164430260Y-87766512D01*
X164399500Y-87921152D01*
X164399500Y-88078847D01*
X164430260Y-88233487D01*
X164430263Y-88233498D01*
X164482411Y-88359395D01*
X164490606Y-88379179D01*
X164532948Y-88442548D01*
X164578210Y-88510288D01*
X164633274Y-88565352D01*
X164647626Y-88600000D01*
X164633274Y-88634648D01*
X164578210Y-88689711D01*
X164490604Y-88820824D01*
X164430263Y-88966501D01*
X164430260Y-88966512D01*
X164399500Y-89121152D01*
X164399500Y-89278847D01*
X164430260Y-89433487D01*
X164430263Y-89433498D01*
X164482791Y-89560312D01*
X164490606Y-89579179D01*
X164578211Y-89710289D01*
X164689711Y-89821789D01*
X164820821Y-89909394D01*
X164966503Y-89969737D01*
X164966509Y-89969738D01*
X164966512Y-89969739D01*
X165121152Y-90000499D01*
X165121158Y-90000500D01*
X165278842Y-90000500D01*
X165433497Y-89969737D01*
X165579179Y-89909394D01*
X165710289Y-89821789D01*
X165821789Y-89710289D01*
X165909394Y-89579179D01*
X165969737Y-89433497D01*
X166000500Y-89278842D01*
X166000500Y-89121158D01*
X165969737Y-88966503D01*
X165909394Y-88820821D01*
X165821789Y-88689711D01*
X165766726Y-88634648D01*
X165752374Y-88600000D01*
X165766726Y-88565352D01*
X165783083Y-88548995D01*
X165821789Y-88510289D01*
X165909394Y-88379179D01*
X165969737Y-88233497D01*
X165976348Y-88200264D01*
X166000499Y-88078847D01*
X166000500Y-88078842D01*
X166000500Y-87921158D01*
X166000499Y-87921152D01*
X165969739Y-87766512D01*
X165969736Y-87766501D01*
X165943365Y-87702836D01*
X165909394Y-87620821D01*
X165821789Y-87489711D01*
X165766726Y-87434648D01*
X165752374Y-87400000D01*
X165766726Y-87365352D01*
X165821789Y-87310289D01*
X165909394Y-87179179D01*
X165969737Y-87033497D01*
X166000500Y-86878842D01*
X166000500Y-86721158D01*
X165972817Y-86581989D01*
X168999500Y-86581989D01*
X168999500Y-86818011D01*
X169030307Y-87052014D01*
X169030308Y-87052018D01*
X169030309Y-87052025D01*
X169091391Y-87279986D01*
X169091395Y-87279996D01*
X169181716Y-87498050D01*
X169299725Y-87702447D01*
X169299735Y-87702462D01*
X169443403Y-87889693D01*
X169443413Y-87889705D01*
X169610294Y-88056586D01*
X169610306Y-88056596D01*
X169797537Y-88200264D01*
X169797552Y-88200274D01*
X169995398Y-88314501D01*
X170001951Y-88318284D01*
X170220007Y-88408606D01*
X170220010Y-88408606D01*
X170220013Y-88408608D01*
X170447974Y-88469690D01*
X170447975Y-88469690D01*
X170447986Y-88469693D01*
X170681989Y-88500500D01*
X170681993Y-88500500D01*
X170918007Y-88500500D01*
X170918011Y-88500500D01*
X171152014Y-88469693D01*
X171253320Y-88442548D01*
X171379986Y-88408608D01*
X171379986Y-88408607D01*
X171379993Y-88408606D01*
X171598049Y-88318284D01*
X171802450Y-88200273D01*
X171989699Y-88056592D01*
X172156592Y-87889699D01*
X172299977Y-87702836D01*
X172300264Y-87702462D01*
X172300265Y-87702459D01*
X172300273Y-87702450D01*
X172418284Y-87498049D01*
X172508606Y-87279993D01*
X172536114Y-87177334D01*
X172569690Y-87052025D01*
X172569689Y-87052025D01*
X172569693Y-87052014D01*
X172600500Y-86818011D01*
X172600500Y-86581989D01*
X172569693Y-86347986D01*
X172550997Y-86278210D01*
X172508608Y-86120013D01*
X172508604Y-86120003D01*
X172500111Y-86099500D01*
X172418284Y-85901951D01*
X172357783Y-85797161D01*
X172349023Y-85781989D01*
X172999500Y-85781989D01*
X172999500Y-86018011D01*
X173030307Y-86252014D01*
X173030308Y-86252018D01*
X173030309Y-86252025D01*
X173091391Y-86479986D01*
X173091395Y-86479996D01*
X173181716Y-86698050D01*
X173299725Y-86902447D01*
X173299735Y-86902462D01*
X173443403Y-87089693D01*
X173443413Y-87089705D01*
X173610294Y-87256586D01*
X173610306Y-87256596D01*
X173797537Y-87400264D01*
X173797546Y-87400270D01*
X173797550Y-87400273D01*
X174001951Y-87518284D01*
X174220007Y-87608606D01*
X174220010Y-87608606D01*
X174220013Y-87608608D01*
X174447974Y-87669690D01*
X174447975Y-87669690D01*
X174447986Y-87669693D01*
X174681989Y-87700500D01*
X174681993Y-87700500D01*
X174918007Y-87700500D01*
X174918011Y-87700500D01*
X175152014Y-87669693D01*
X175334406Y-87620821D01*
X175379986Y-87608608D01*
X175379986Y-87608607D01*
X175379993Y-87608606D01*
X175598049Y-87518284D01*
X175673965Y-87474454D01*
X177749500Y-87474454D01*
X177749500Y-87655546D01*
X177751748Y-87669737D01*
X177777828Y-87834406D01*
X177777829Y-87834409D01*
X177805802Y-87920504D01*
X177833789Y-88006639D01*
X177916004Y-88167994D01*
X177991415Y-88271789D01*
X178022448Y-88314502D01*
X178022452Y-88314507D01*
X178150493Y-88442548D01*
X178150497Y-88442551D01*
X178150499Y-88442553D01*
X178297006Y-88548996D01*
X178458361Y-88631211D01*
X178630591Y-88687171D01*
X178809454Y-88715500D01*
X178809455Y-88715500D01*
X178990545Y-88715500D01*
X178990546Y-88715500D01*
X179169409Y-88687171D01*
X179341639Y-88631211D01*
X179428356Y-88587025D01*
X179465743Y-88584083D01*
X179494260Y-88608439D01*
X179497931Y-88643367D01*
X179474500Y-88730813D01*
X179474500Y-88869186D01*
X179510311Y-89002834D01*
X179510312Y-89002838D01*
X179578621Y-89121152D01*
X179579495Y-89122665D01*
X179677335Y-89220505D01*
X179721194Y-89245827D01*
X179797161Y-89289687D01*
X179797163Y-89289687D01*
X179797164Y-89289688D01*
X179902571Y-89317931D01*
X179930813Y-89325499D01*
X179930814Y-89325500D01*
X179930817Y-89325500D01*
X180069186Y-89325500D01*
X180069186Y-89325499D01*
X180202836Y-89289688D01*
X180322665Y-89220505D01*
X180420505Y-89122665D01*
X180489688Y-89002836D01*
X180525499Y-88869186D01*
X180525500Y-88869186D01*
X180525500Y-88730814D01*
X180525499Y-88730813D01*
X180489688Y-88597165D01*
X180489687Y-88597161D01*
X180433879Y-88500500D01*
X180420505Y-88477335D01*
X180322665Y-88379495D01*
X180287849Y-88359394D01*
X180202838Y-88310312D01*
X180202834Y-88310311D01*
X180069186Y-88274500D01*
X180069183Y-88274500D01*
X179930817Y-88274500D01*
X179930815Y-88274500D01*
X179910245Y-88280011D01*
X179873064Y-88275114D01*
X179850234Y-88245360D01*
X179855131Y-88208179D01*
X179857916Y-88203889D01*
X179883996Y-88167994D01*
X179966211Y-88006639D01*
X180022171Y-87834409D01*
X180050500Y-87655546D01*
X180050500Y-87474454D01*
X180043588Y-87430813D01*
X185874500Y-87430813D01*
X185874500Y-87569186D01*
X185910311Y-87702834D01*
X185910312Y-87702838D01*
X185947075Y-87766512D01*
X185979495Y-87822665D01*
X186077335Y-87920505D01*
X186121194Y-87945827D01*
X186197161Y-87989687D01*
X186197163Y-87989687D01*
X186197164Y-87989688D01*
X186302571Y-88017931D01*
X186330813Y-88025499D01*
X186330814Y-88025500D01*
X186330817Y-88025500D01*
X186469186Y-88025500D01*
X186469186Y-88025499D01*
X186602836Y-87989688D01*
X186722665Y-87920505D01*
X186820505Y-87822665D01*
X186889688Y-87702836D01*
X186925499Y-87569186D01*
X186925500Y-87569186D01*
X186925500Y-87430814D01*
X186925499Y-87430813D01*
X186893205Y-87310289D01*
X186889688Y-87297164D01*
X186889687Y-87297163D01*
X186889687Y-87297161D01*
X186845827Y-87221194D01*
X186820505Y-87177335D01*
X186722665Y-87079495D01*
X186602838Y-87010312D01*
X186602834Y-87010311D01*
X186469186Y-86974500D01*
X186469183Y-86974500D01*
X186330817Y-86974500D01*
X186330814Y-86974500D01*
X186197165Y-87010311D01*
X186197161Y-87010312D01*
X186077334Y-87079495D01*
X186077334Y-87079496D01*
X185979496Y-87177334D01*
X185979495Y-87177334D01*
X185910312Y-87297161D01*
X185910311Y-87297165D01*
X185874500Y-87430813D01*
X180043588Y-87430813D01*
X180022171Y-87295591D01*
X179966211Y-87123361D01*
X179883996Y-86962006D01*
X179781660Y-86821152D01*
X202299500Y-86821152D01*
X202299500Y-86978847D01*
X202330260Y-87133487D01*
X202330263Y-87133498D01*
X202381250Y-87256592D01*
X202390606Y-87279179D01*
X202411393Y-87310289D01*
X202471518Y-87400273D01*
X202478211Y-87410289D01*
X202589711Y-87521789D01*
X202720821Y-87609394D01*
X202866503Y-87669737D01*
X202866509Y-87669738D01*
X202866512Y-87669739D01*
X203021152Y-87700499D01*
X203021158Y-87700500D01*
X203178842Y-87700500D01*
X203333497Y-87669737D01*
X203479179Y-87609394D01*
X203610289Y-87521789D01*
X203721789Y-87410289D01*
X203809394Y-87279179D01*
X203869737Y-87133497D01*
X203900500Y-86978842D01*
X203900500Y-86821158D01*
X203899873Y-86818007D01*
X203869739Y-86666512D01*
X203869736Y-86666501D01*
X203836876Y-86587170D01*
X203809394Y-86520821D01*
X203721789Y-86389711D01*
X203610289Y-86278211D01*
X203479179Y-86190606D01*
X203479175Y-86190604D01*
X203478633Y-86190242D01*
X203457798Y-86159060D01*
X203465114Y-86122277D01*
X203496296Y-86101442D01*
X203505856Y-86100500D01*
X203578842Y-86100500D01*
X203733497Y-86069737D01*
X203879179Y-86009394D01*
X204010289Y-85921789D01*
X204121789Y-85810289D01*
X204209394Y-85679179D01*
X204269737Y-85533497D01*
X204300500Y-85378842D01*
X204300500Y-85221158D01*
X204295415Y-85195593D01*
X204269739Y-85066512D01*
X204269736Y-85066501D01*
X204209394Y-84920821D01*
X204121789Y-84789711D01*
X204010289Y-84678211D01*
X204008976Y-84677334D01*
X203966978Y-84649271D01*
X203879179Y-84590606D01*
X203879176Y-84590604D01*
X203879175Y-84590604D01*
X203733498Y-84530263D01*
X203733487Y-84530260D01*
X203578847Y-84499500D01*
X203578842Y-84499500D01*
X203421158Y-84499500D01*
X203421152Y-84499500D01*
X203266512Y-84530260D01*
X203266501Y-84530263D01*
X203120824Y-84590604D01*
X202989711Y-84678210D01*
X202878210Y-84789711D01*
X202790604Y-84920824D01*
X202730263Y-85066501D01*
X202730260Y-85066512D01*
X202699500Y-85221152D01*
X202699500Y-85378847D01*
X202730260Y-85533487D01*
X202730263Y-85533498D01*
X202789842Y-85677335D01*
X202790606Y-85679179D01*
X202827508Y-85734406D01*
X202859303Y-85781992D01*
X202878211Y-85810289D01*
X202989711Y-85921789D01*
X203120821Y-86009394D01*
X203120824Y-86009395D01*
X203121367Y-86009758D01*
X203142202Y-86040940D01*
X203134886Y-86077723D01*
X203103704Y-86098558D01*
X203094144Y-86099500D01*
X203021152Y-86099500D01*
X202866512Y-86130260D01*
X202866501Y-86130263D01*
X202720824Y-86190604D01*
X202589711Y-86278210D01*
X202478210Y-86389711D01*
X202390604Y-86520824D01*
X202330263Y-86666501D01*
X202330260Y-86666512D01*
X202299500Y-86821152D01*
X179781660Y-86821152D01*
X179777553Y-86815499D01*
X179777549Y-86815495D01*
X179777547Y-86815492D01*
X179649507Y-86687452D01*
X179649502Y-86687448D01*
X179620686Y-86666512D01*
X179502994Y-86581004D01*
X179341639Y-86498789D01*
X179341638Y-86498788D01*
X179341637Y-86498788D01*
X179169409Y-86442829D01*
X179169406Y-86442828D01*
X179028454Y-86420504D01*
X178990546Y-86414500D01*
X178809454Y-86414500D01*
X178775794Y-86419831D01*
X178630593Y-86442828D01*
X178630590Y-86442829D01*
X178458362Y-86498788D01*
X178297006Y-86581004D01*
X178150497Y-86687448D01*
X178022448Y-86815497D01*
X177916004Y-86962006D01*
X177833788Y-87123362D01*
X177777829Y-87295590D01*
X177777828Y-87295593D01*
X177755706Y-87435270D01*
X177749500Y-87474454D01*
X175673965Y-87474454D01*
X175802450Y-87400273D01*
X175989699Y-87256592D01*
X176156592Y-87089699D01*
X176300273Y-86902450D01*
X176418284Y-86698049D01*
X176508606Y-86479993D01*
X176569693Y-86252014D01*
X176600500Y-86018011D01*
X176600500Y-85930813D01*
X197974500Y-85930813D01*
X197974500Y-86069186D01*
X198010311Y-86202834D01*
X198010312Y-86202838D01*
X198060469Y-86289711D01*
X198079495Y-86322665D01*
X198177335Y-86420505D01*
X198221194Y-86445827D01*
X198297161Y-86489687D01*
X198297163Y-86489687D01*
X198297164Y-86489688D01*
X198331130Y-86498789D01*
X198430813Y-86525499D01*
X198430814Y-86525500D01*
X198430817Y-86525500D01*
X198569186Y-86525500D01*
X198569186Y-86525499D01*
X198702836Y-86489688D01*
X198822665Y-86420505D01*
X198920505Y-86322665D01*
X198989688Y-86202836D01*
X199025499Y-86069186D01*
X199025500Y-86069186D01*
X199025500Y-85930814D01*
X199025499Y-85930813D01*
X198993205Y-85810289D01*
X198989688Y-85797164D01*
X198989687Y-85797163D01*
X198989687Y-85797161D01*
X198945827Y-85721194D01*
X198920505Y-85677335D01*
X198822665Y-85579495D01*
X198702838Y-85510312D01*
X198702834Y-85510311D01*
X198569186Y-85474500D01*
X198569183Y-85474500D01*
X198430817Y-85474500D01*
X198430814Y-85474500D01*
X198297165Y-85510311D01*
X198297161Y-85510312D01*
X198177334Y-85579495D01*
X198177334Y-85579496D01*
X198079496Y-85677334D01*
X198079495Y-85677334D01*
X198010312Y-85797161D01*
X198010311Y-85797165D01*
X197974500Y-85930813D01*
X176600500Y-85930813D01*
X176600500Y-85781989D01*
X176569693Y-85547986D01*
X176559597Y-85510306D01*
X176508608Y-85320013D01*
X176508604Y-85320003D01*
X176458787Y-85199735D01*
X176418284Y-85101951D01*
X176300273Y-84897550D01*
X176300270Y-84897546D01*
X176300264Y-84897537D01*
X176192759Y-84757434D01*
X176172332Y-84730813D01*
X181874500Y-84730813D01*
X181874500Y-84869186D01*
X181910310Y-85002831D01*
X181910312Y-85002838D01*
X181967536Y-85101951D01*
X181979495Y-85122665D01*
X182077335Y-85220505D01*
X182121194Y-85245827D01*
X182197161Y-85289687D01*
X182197163Y-85289687D01*
X182197164Y-85289688D01*
X182302571Y-85317931D01*
X182330813Y-85325499D01*
X182330814Y-85325500D01*
X182330817Y-85325500D01*
X182469186Y-85325500D01*
X182469186Y-85325499D01*
X182602836Y-85289688D01*
X182722665Y-85220505D01*
X182820505Y-85122665D01*
X182889688Y-85002836D01*
X182889688Y-85002835D01*
X182889690Y-85002831D01*
X182908987Y-84930813D01*
X190099500Y-84930813D01*
X190099500Y-85069186D01*
X190135311Y-85202834D01*
X190135312Y-85202838D01*
X190191698Y-85300500D01*
X190204495Y-85322665D01*
X190302335Y-85420505D01*
X190346194Y-85445827D01*
X190422161Y-85489687D01*
X190422163Y-85489687D01*
X190422164Y-85489688D01*
X190527571Y-85517931D01*
X190555813Y-85525499D01*
X190555814Y-85525500D01*
X190555817Y-85525500D01*
X190694186Y-85525500D01*
X190694186Y-85525499D01*
X190827836Y-85489688D01*
X190947665Y-85420505D01*
X191045505Y-85322665D01*
X191114688Y-85202836D01*
X191150499Y-85069186D01*
X191150500Y-85069186D01*
X191150500Y-84930814D01*
X191150499Y-84930813D01*
X191132062Y-84862006D01*
X191114688Y-84797164D01*
X191114687Y-84797163D01*
X191114687Y-84797161D01*
X191064534Y-84710294D01*
X191045505Y-84677335D01*
X190947665Y-84579495D01*
X190946534Y-84578842D01*
X190827838Y-84510312D01*
X190827834Y-84510311D01*
X190694186Y-84474500D01*
X190694183Y-84474500D01*
X190555817Y-84474500D01*
X190555814Y-84474500D01*
X190422165Y-84510311D01*
X190422161Y-84510312D01*
X190302334Y-84579495D01*
X190302334Y-84579496D01*
X190204496Y-84677334D01*
X190204495Y-84677334D01*
X190135312Y-84797161D01*
X190135311Y-84797165D01*
X190099500Y-84930813D01*
X182908987Y-84930813D01*
X182913245Y-84914923D01*
X182925499Y-84869186D01*
X182925500Y-84869186D01*
X182925500Y-84730814D01*
X182925499Y-84730813D01*
X182889688Y-84597165D01*
X182889687Y-84597161D01*
X182820504Y-84477334D01*
X182722665Y-84379495D01*
X182602838Y-84310312D01*
X182602834Y-84310311D01*
X182469186Y-84274500D01*
X182469183Y-84274500D01*
X182330817Y-84274500D01*
X182330814Y-84274500D01*
X182197165Y-84310311D01*
X182197161Y-84310312D01*
X182077334Y-84379495D01*
X182077334Y-84379496D01*
X181979496Y-84477334D01*
X181979495Y-84477334D01*
X181910312Y-84597161D01*
X181910311Y-84597165D01*
X181874500Y-84730813D01*
X176172332Y-84730813D01*
X176156596Y-84710305D01*
X176156586Y-84710294D01*
X175989705Y-84543413D01*
X175989693Y-84543403D01*
X175802462Y-84399735D01*
X175802447Y-84399725D01*
X175598050Y-84281716D01*
X175379996Y-84191395D01*
X175379986Y-84191391D01*
X175152025Y-84130309D01*
X175152018Y-84130308D01*
X175152014Y-84130307D01*
X174918011Y-84099500D01*
X174681989Y-84099500D01*
X174447986Y-84130307D01*
X174447982Y-84130307D01*
X174447974Y-84130309D01*
X174220013Y-84191391D01*
X174220003Y-84191395D01*
X174001949Y-84281716D01*
X173797552Y-84399725D01*
X173797537Y-84399735D01*
X173610306Y-84543403D01*
X173610294Y-84543413D01*
X173443413Y-84710294D01*
X173443403Y-84710306D01*
X173299735Y-84897537D01*
X173299725Y-84897552D01*
X173181716Y-85101949D01*
X173091395Y-85320003D01*
X173091391Y-85320013D01*
X173030309Y-85547974D01*
X173030307Y-85547982D01*
X173030307Y-85547986D01*
X172999500Y-85781989D01*
X172349023Y-85781989D01*
X172338766Y-85764223D01*
X172300273Y-85697550D01*
X172300270Y-85697546D01*
X172300264Y-85697537D01*
X172156596Y-85510306D01*
X172156586Y-85510294D01*
X171989705Y-85343413D01*
X171989693Y-85343403D01*
X171802462Y-85199735D01*
X171802447Y-85199725D01*
X171598050Y-85081716D01*
X171379996Y-84991395D01*
X171379986Y-84991391D01*
X171152025Y-84930309D01*
X171152018Y-84930308D01*
X171152014Y-84930307D01*
X170918011Y-84899500D01*
X170681989Y-84899500D01*
X170447986Y-84930307D01*
X170447982Y-84930307D01*
X170447974Y-84930309D01*
X170220013Y-84991391D01*
X170220003Y-84991395D01*
X170001949Y-85081716D01*
X169797552Y-85199725D01*
X169797537Y-85199735D01*
X169610306Y-85343403D01*
X169610294Y-85343413D01*
X169443413Y-85510294D01*
X169443403Y-85510306D01*
X169299735Y-85697537D01*
X169299725Y-85697552D01*
X169181716Y-85901949D01*
X169091395Y-86120003D01*
X169091391Y-86120013D01*
X169030309Y-86347974D01*
X169030307Y-86347982D01*
X169030307Y-86347986D01*
X168999500Y-86581989D01*
X165972817Y-86581989D01*
X165969737Y-86566503D01*
X165909394Y-86420821D01*
X165821789Y-86289711D01*
X165710289Y-86178211D01*
X165579179Y-86090606D01*
X165579176Y-86090604D01*
X165579175Y-86090604D01*
X165433498Y-86030263D01*
X165433487Y-86030260D01*
X165278847Y-85999500D01*
X165278842Y-85999500D01*
X165121158Y-85999500D01*
X165121152Y-85999500D01*
X164966512Y-86030260D01*
X164966501Y-86030263D01*
X164820824Y-86090604D01*
X164689711Y-86178210D01*
X164578210Y-86289711D01*
X164490604Y-86420824D01*
X164430263Y-86566501D01*
X164430260Y-86566512D01*
X164399500Y-86721152D01*
X132415300Y-86721152D01*
X132415300Y-85174454D01*
X144649500Y-85174454D01*
X144649500Y-85355545D01*
X144677828Y-85534406D01*
X144677829Y-85534409D01*
X144730836Y-85697552D01*
X144733789Y-85706639D01*
X144816004Y-85867994D01*
X144919001Y-86009758D01*
X144922448Y-86014502D01*
X144922452Y-86014507D01*
X145050493Y-86142548D01*
X145050497Y-86142551D01*
X145050499Y-86142553D01*
X145197006Y-86248996D01*
X145358361Y-86331211D01*
X145530591Y-86387171D01*
X145709454Y-86415500D01*
X145709455Y-86415500D01*
X145890545Y-86415500D01*
X145890546Y-86415500D01*
X146069409Y-86387171D01*
X146241639Y-86331211D01*
X146402994Y-86248996D01*
X146549501Y-86142553D01*
X146549504Y-86142549D01*
X146549507Y-86142548D01*
X146677548Y-86014507D01*
X146677549Y-86014504D01*
X146677553Y-86014501D01*
X146783996Y-85867994D01*
X146866211Y-85706639D01*
X146922171Y-85534409D01*
X146947505Y-85374454D01*
X158449500Y-85374454D01*
X158449500Y-85555545D01*
X158477828Y-85734406D01*
X158477829Y-85734409D01*
X158532265Y-85901951D01*
X158533789Y-85906639D01*
X158616004Y-86067994D01*
X158722447Y-86214501D01*
X158722448Y-86214502D01*
X158722452Y-86214507D01*
X158850493Y-86342548D01*
X158850497Y-86342551D01*
X158850499Y-86342553D01*
X158997006Y-86448996D01*
X159158361Y-86531211D01*
X159330591Y-86587171D01*
X159509454Y-86615500D01*
X159509455Y-86615500D01*
X159690545Y-86615500D01*
X159690546Y-86615500D01*
X159869409Y-86587171D01*
X160041639Y-86531211D01*
X160202994Y-86448996D01*
X160349501Y-86342553D01*
X160349504Y-86342549D01*
X160349507Y-86342548D01*
X160477548Y-86214507D01*
X160477549Y-86214504D01*
X160477553Y-86214501D01*
X160583996Y-86067994D01*
X160666211Y-85906639D01*
X160722171Y-85734409D01*
X160750500Y-85555546D01*
X160750500Y-85374454D01*
X160722171Y-85195591D01*
X160666211Y-85023361D01*
X160583996Y-84862006D01*
X160477553Y-84715499D01*
X160477551Y-84715497D01*
X160477548Y-84715493D01*
X160349507Y-84587452D01*
X160349502Y-84587448D01*
X160337657Y-84578842D01*
X160202994Y-84481004D01*
X160041639Y-84398789D01*
X160041638Y-84398788D01*
X160041637Y-84398788D01*
X159869409Y-84342829D01*
X159869406Y-84342828D01*
X159732007Y-84321066D01*
X159690546Y-84314500D01*
X159509454Y-84314500D01*
X159475794Y-84319831D01*
X159330593Y-84342828D01*
X159330590Y-84342829D01*
X159158362Y-84398788D01*
X158997006Y-84481004D01*
X158850497Y-84587448D01*
X158722448Y-84715497D01*
X158616004Y-84862006D01*
X158533788Y-85023362D01*
X158477829Y-85195590D01*
X158477828Y-85195593D01*
X158449500Y-85374454D01*
X146947505Y-85374454D01*
X146950500Y-85355546D01*
X146950500Y-85174454D01*
X146922171Y-84995591D01*
X146866211Y-84823361D01*
X146783996Y-84662006D01*
X146677553Y-84515499D01*
X146677551Y-84515497D01*
X146677548Y-84515493D01*
X146549507Y-84387452D01*
X146549502Y-84387448D01*
X146538556Y-84379495D01*
X146402994Y-84281004D01*
X146241639Y-84198789D01*
X146241638Y-84198788D01*
X146241637Y-84198788D01*
X146069409Y-84142829D01*
X146069406Y-84142828D01*
X145928454Y-84120504D01*
X145890546Y-84114500D01*
X145709454Y-84114500D01*
X145675794Y-84119831D01*
X145530593Y-84142828D01*
X145530590Y-84142829D01*
X145358362Y-84198788D01*
X145197006Y-84281004D01*
X145050497Y-84387448D01*
X144922448Y-84515497D01*
X144816004Y-84662006D01*
X144733788Y-84823362D01*
X144677829Y-84995590D01*
X144677828Y-84995593D01*
X144649500Y-85174454D01*
X132415300Y-85174454D01*
X132415300Y-83630813D01*
X136974500Y-83630813D01*
X136974500Y-83769186D01*
X137010311Y-83902834D01*
X137010312Y-83902838D01*
X137054387Y-83979177D01*
X137079495Y-84022665D01*
X137177335Y-84120505D01*
X137221194Y-84145827D01*
X137297161Y-84189687D01*
X137297163Y-84189687D01*
X137297164Y-84189688D01*
X137331130Y-84198789D01*
X137430813Y-84225499D01*
X137430814Y-84225500D01*
X137430817Y-84225500D01*
X137569186Y-84225500D01*
X137569186Y-84225499D01*
X137702836Y-84189688D01*
X137822665Y-84120505D01*
X137920505Y-84022665D01*
X137989688Y-83902836D01*
X138025499Y-83769186D01*
X138025500Y-83769186D01*
X138025500Y-83630814D01*
X138025499Y-83630813D01*
X137996117Y-83521158D01*
X137989688Y-83497164D01*
X137989687Y-83497163D01*
X137989687Y-83497161D01*
X137920504Y-83377334D01*
X137822665Y-83279495D01*
X137702838Y-83210312D01*
X137702834Y-83210311D01*
X137569186Y-83174500D01*
X137569183Y-83174500D01*
X137430817Y-83174500D01*
X137430814Y-83174500D01*
X137297165Y-83210311D01*
X137297161Y-83210312D01*
X137177334Y-83279495D01*
X137177334Y-83279496D01*
X137079496Y-83377334D01*
X137079495Y-83377334D01*
X137010312Y-83497161D01*
X137010311Y-83497165D01*
X136974500Y-83630813D01*
X132415300Y-83630813D01*
X132415300Y-82430813D01*
X134974500Y-82430813D01*
X134974500Y-82569186D01*
X135010311Y-82702834D01*
X135010312Y-82702838D01*
X135066121Y-82799500D01*
X135079495Y-82822665D01*
X135177335Y-82920505D01*
X135221194Y-82945827D01*
X135297161Y-82989687D01*
X135297163Y-82989687D01*
X135297164Y-82989688D01*
X135402571Y-83017931D01*
X135430813Y-83025499D01*
X135430814Y-83025500D01*
X135430817Y-83025500D01*
X135569186Y-83025500D01*
X135569186Y-83025499D01*
X135702836Y-82989688D01*
X135822665Y-82920505D01*
X135920505Y-82822665D01*
X135989688Y-82702836D01*
X136025499Y-82569186D01*
X136025500Y-82569186D01*
X136025500Y-82430814D01*
X136025499Y-82430813D01*
X135989688Y-82297165D01*
X135989687Y-82297161D01*
X135920504Y-82177334D01*
X135822665Y-82079495D01*
X135702838Y-82010312D01*
X135702834Y-82010311D01*
X135569186Y-81974500D01*
X135569183Y-81974500D01*
X135430817Y-81974500D01*
X135430814Y-81974500D01*
X135297165Y-82010311D01*
X135297161Y-82010312D01*
X135177334Y-82079495D01*
X135177334Y-82079496D01*
X135079496Y-82177334D01*
X135079495Y-82177334D01*
X135010312Y-82297161D01*
X135010311Y-82297165D01*
X134974500Y-82430813D01*
X132415300Y-82430813D01*
X132415300Y-81830134D01*
X144649500Y-81830134D01*
X144649500Y-83619858D01*
X144649501Y-83619868D01*
X144652415Y-83644992D01*
X144697794Y-83747766D01*
X144777233Y-83827205D01*
X144880006Y-83872584D01*
X144880009Y-83872585D01*
X144905135Y-83875500D01*
X146694864Y-83875499D01*
X146719991Y-83872585D01*
X146822765Y-83827206D01*
X146902206Y-83747765D01*
X146947585Y-83644991D01*
X146950500Y-83619865D01*
X146950500Y-83521152D01*
X150399500Y-83521152D01*
X150399500Y-83678847D01*
X150430260Y-83833487D01*
X150430263Y-83833498D01*
X150490604Y-83979176D01*
X150490606Y-83979180D01*
X150519737Y-84022778D01*
X150527053Y-84059560D01*
X150519737Y-84077222D01*
X150490606Y-84120819D01*
X150490604Y-84120823D01*
X150430263Y-84266501D01*
X150430260Y-84266512D01*
X150399500Y-84421152D01*
X150399500Y-84578847D01*
X150430260Y-84733487D01*
X150430263Y-84733498D01*
X150490604Y-84879175D01*
X150490606Y-84879179D01*
X150549271Y-84966978D01*
X150573227Y-85002831D01*
X150578211Y-85010289D01*
X150689711Y-85121789D01*
X150820821Y-85209394D01*
X150966503Y-85269737D01*
X150966509Y-85269738D01*
X150966512Y-85269739D01*
X151121152Y-85300499D01*
X151121158Y-85300500D01*
X151278842Y-85300500D01*
X151433497Y-85269737D01*
X151579179Y-85209394D01*
X151710289Y-85121789D01*
X151821789Y-85010289D01*
X151909394Y-84879179D01*
X151969737Y-84733497D01*
X152000500Y-84578842D01*
X152000500Y-84421158D01*
X151996237Y-84399725D01*
X151969739Y-84266512D01*
X151969736Y-84266501D01*
X151952753Y-84225500D01*
X151909394Y-84120821D01*
X151880261Y-84077222D01*
X151872945Y-84040441D01*
X151880262Y-84022777D01*
X151880337Y-84022665D01*
X151909394Y-83979179D01*
X151969737Y-83833497D01*
X152000500Y-83678842D01*
X152000500Y-83521158D01*
X152000499Y-83521152D01*
X154299500Y-83521152D01*
X154299500Y-83678847D01*
X154330260Y-83833487D01*
X154330263Y-83833498D01*
X154377594Y-83947765D01*
X154390606Y-83979179D01*
X154478211Y-84110289D01*
X154589711Y-84221789D01*
X154720821Y-84309394D01*
X154866503Y-84369737D01*
X154866509Y-84369738D01*
X154866512Y-84369739D01*
X155021152Y-84400499D01*
X155021158Y-84400500D01*
X155178842Y-84400500D01*
X155333497Y-84369737D01*
X155479179Y-84309394D01*
X155610289Y-84221789D01*
X155721789Y-84110289D01*
X155809394Y-83979179D01*
X155869737Y-83833497D01*
X155900500Y-83678842D01*
X155900500Y-83521158D01*
X155900021Y-83518751D01*
X155869739Y-83366512D01*
X155869736Y-83366501D01*
X155809395Y-83220824D01*
X155809394Y-83220821D01*
X155721789Y-83089711D01*
X155610289Y-82978211D01*
X155479179Y-82890606D01*
X155479176Y-82890604D01*
X155479175Y-82890604D01*
X155333498Y-82830263D01*
X155333487Y-82830260D01*
X155178847Y-82799500D01*
X155178842Y-82799500D01*
X155021158Y-82799500D01*
X155021152Y-82799500D01*
X154866512Y-82830260D01*
X154866501Y-82830263D01*
X154720824Y-82890604D01*
X154589711Y-82978210D01*
X154478210Y-83089711D01*
X154390604Y-83220824D01*
X154330263Y-83366501D01*
X154330260Y-83366512D01*
X154299500Y-83521152D01*
X152000499Y-83521152D01*
X152000021Y-83518751D01*
X151969739Y-83366512D01*
X151969736Y-83366501D01*
X151909395Y-83220824D01*
X151909394Y-83220821D01*
X151821789Y-83089711D01*
X151710289Y-82978211D01*
X151579179Y-82890606D01*
X151579176Y-82890604D01*
X151579175Y-82890604D01*
X151433498Y-82830263D01*
X151433487Y-82830260D01*
X151278847Y-82799500D01*
X151278842Y-82799500D01*
X151121158Y-82799500D01*
X151121152Y-82799500D01*
X150966512Y-82830260D01*
X150966501Y-82830263D01*
X150820824Y-82890604D01*
X150689711Y-82978210D01*
X150578210Y-83089711D01*
X150490604Y-83220824D01*
X150430263Y-83366501D01*
X150430260Y-83366512D01*
X150399500Y-83521152D01*
X146950500Y-83521152D01*
X146950499Y-82030134D01*
X158449500Y-82030134D01*
X158449500Y-83819858D01*
X158449501Y-83819868D01*
X158452415Y-83844992D01*
X158497794Y-83947766D01*
X158577233Y-84027205D01*
X158680006Y-84072584D01*
X158680009Y-84072585D01*
X158705135Y-84075500D01*
X160494864Y-84075499D01*
X160519991Y-84072585D01*
X160622765Y-84027206D01*
X160702206Y-83947765D01*
X160747585Y-83844991D01*
X160750500Y-83819865D01*
X160750499Y-82030136D01*
X160747585Y-82005009D01*
X160702206Y-81902235D01*
X160702205Y-81902234D01*
X160702205Y-81902233D01*
X160622766Y-81822794D01*
X160622767Y-81822794D01*
X160519993Y-81777415D01*
X160507428Y-81775957D01*
X160494865Y-81774500D01*
X160494863Y-81774500D01*
X158705141Y-81774500D01*
X158705131Y-81774501D01*
X158680007Y-81777415D01*
X158577233Y-81822794D01*
X158497794Y-81902233D01*
X158452415Y-82005006D01*
X158449500Y-82030134D01*
X146950499Y-82030134D01*
X146950499Y-81830136D01*
X146947585Y-81805009D01*
X146902206Y-81702235D01*
X146902205Y-81702234D01*
X146902205Y-81702233D01*
X146822766Y-81622794D01*
X146822767Y-81622794D01*
X146719993Y-81577415D01*
X146707428Y-81575957D01*
X146694865Y-81574500D01*
X146694863Y-81574500D01*
X144905141Y-81574500D01*
X144905131Y-81574501D01*
X144880007Y-81577415D01*
X144777233Y-81622794D01*
X144697794Y-81702233D01*
X144652415Y-81805006D01*
X144649500Y-81830134D01*
X132415300Y-81830134D01*
X132415300Y-81330813D01*
X163374500Y-81330813D01*
X163374500Y-81469186D01*
X163410311Y-81602834D01*
X163410312Y-81602838D01*
X163467700Y-81702235D01*
X163479495Y-81722665D01*
X163577335Y-81820505D01*
X163621194Y-81845827D01*
X163697161Y-81889687D01*
X163697163Y-81889687D01*
X163697164Y-81889688D01*
X163802571Y-81917931D01*
X163830813Y-81925499D01*
X163830814Y-81925500D01*
X163830817Y-81925500D01*
X163969186Y-81925500D01*
X163969186Y-81925499D01*
X164102836Y-81889688D01*
X164222665Y-81820505D01*
X164320505Y-81722665D01*
X164389688Y-81602836D01*
X164425499Y-81469186D01*
X164425500Y-81469186D01*
X164425500Y-81330814D01*
X164425499Y-81330813D01*
X164389688Y-81197165D01*
X164389687Y-81197162D01*
X164363673Y-81152105D01*
X164356504Y-81139688D01*
X164351380Y-81130813D01*
X167074500Y-81130813D01*
X167074500Y-81269186D01*
X167110311Y-81402834D01*
X167110312Y-81402838D01*
X167148617Y-81469183D01*
X167179495Y-81522665D01*
X167277335Y-81620505D01*
X167281300Y-81622794D01*
X167397161Y-81689687D01*
X167397163Y-81689687D01*
X167397164Y-81689688D01*
X167502571Y-81717931D01*
X167530813Y-81725499D01*
X167530814Y-81725500D01*
X167530817Y-81725500D01*
X167669186Y-81725500D01*
X167669186Y-81725499D01*
X167802836Y-81689688D01*
X167922665Y-81620505D01*
X168020505Y-81522665D01*
X168089688Y-81402836D01*
X168125499Y-81269186D01*
X168125500Y-81269186D01*
X168125500Y-81130814D01*
X168125499Y-81130813D01*
X168111169Y-81077334D01*
X168089688Y-80997164D01*
X168089687Y-80997163D01*
X168089687Y-80997161D01*
X168020504Y-80877334D01*
X167922665Y-80779495D01*
X167802838Y-80710312D01*
X167802834Y-80710311D01*
X167669186Y-80674500D01*
X167669183Y-80674500D01*
X167530817Y-80674500D01*
X167530814Y-80674500D01*
X167397165Y-80710311D01*
X167397161Y-80710312D01*
X167277334Y-80779495D01*
X167277334Y-80779496D01*
X167179496Y-80877334D01*
X167179495Y-80877334D01*
X167110312Y-80997161D01*
X167110311Y-80997165D01*
X167074500Y-81130813D01*
X164351380Y-81130813D01*
X164320505Y-81077335D01*
X164222665Y-80979495D01*
X164210835Y-80972665D01*
X164102838Y-80910312D01*
X164102834Y-80910311D01*
X163969186Y-80874500D01*
X163969183Y-80874500D01*
X163830817Y-80874500D01*
X163830814Y-80874500D01*
X163697165Y-80910311D01*
X163697161Y-80910312D01*
X163577334Y-80979495D01*
X163577334Y-80979496D01*
X163479496Y-81077334D01*
X163479495Y-81077334D01*
X163410312Y-81197161D01*
X163410311Y-81197165D01*
X163374500Y-81330813D01*
X132415300Y-81330813D01*
X132415300Y-79880813D01*
X171974500Y-79880813D01*
X171974500Y-80019186D01*
X172010311Y-80152834D01*
X172010312Y-80152838D01*
X172081101Y-80275446D01*
X172079333Y-80276466D01*
X172087255Y-80306643D01*
X172080080Y-80323964D01*
X172081101Y-80324554D01*
X172010312Y-80447161D01*
X172010311Y-80447165D01*
X171974500Y-80580813D01*
X171974500Y-80719186D01*
X172010311Y-80852834D01*
X172010312Y-80852838D01*
X172079495Y-80972665D01*
X172177335Y-81070505D01*
X172189165Y-81077335D01*
X172297161Y-81139687D01*
X172297163Y-81139687D01*
X172297164Y-81139688D01*
X172402571Y-81167931D01*
X172430813Y-81175499D01*
X172430814Y-81175500D01*
X172430817Y-81175500D01*
X172569186Y-81175500D01*
X172569186Y-81175499D01*
X172702836Y-81139688D01*
X172822665Y-81070505D01*
X172862357Y-81030813D01*
X178474500Y-81030813D01*
X178474500Y-81169186D01*
X178510311Y-81302834D01*
X178510312Y-81302838D01*
X178568047Y-81402836D01*
X178579495Y-81422665D01*
X178677335Y-81520505D01*
X178721194Y-81545827D01*
X178797161Y-81589687D01*
X178797163Y-81589687D01*
X178797164Y-81589688D01*
X178846241Y-81602838D01*
X178930813Y-81625499D01*
X178930814Y-81625500D01*
X178930817Y-81625500D01*
X179069186Y-81625500D01*
X179069186Y-81625499D01*
X179202836Y-81589688D01*
X179322665Y-81520505D01*
X179420505Y-81422665D01*
X179489688Y-81302836D01*
X179525499Y-81169186D01*
X179525500Y-81169186D01*
X179525500Y-81030814D01*
X179525499Y-81030813D01*
X179493211Y-80910312D01*
X179489688Y-80897164D01*
X179489687Y-80897163D01*
X179489687Y-80897161D01*
X179445827Y-80821194D01*
X179420505Y-80777335D01*
X179373983Y-80730813D01*
X185874500Y-80730813D01*
X185874500Y-80869186D01*
X185910311Y-81002834D01*
X185910312Y-81002838D01*
X185979495Y-81122665D01*
X186077335Y-81220505D01*
X186121194Y-81245827D01*
X186197161Y-81289687D01*
X186197163Y-81289687D01*
X186197164Y-81289688D01*
X186246241Y-81302838D01*
X186330813Y-81325499D01*
X186330814Y-81325500D01*
X186330817Y-81325500D01*
X186469186Y-81325500D01*
X186469186Y-81325499D01*
X186602836Y-81289688D01*
X186722665Y-81220505D01*
X186820505Y-81122665D01*
X186889688Y-81002836D01*
X186925499Y-80869186D01*
X186925500Y-80869186D01*
X186925500Y-80730814D01*
X186925499Y-80730813D01*
X186893211Y-80610312D01*
X186889688Y-80597164D01*
X186889687Y-80597163D01*
X186889687Y-80597161D01*
X186820504Y-80477334D01*
X186722665Y-80379495D01*
X186602838Y-80310312D01*
X186602834Y-80310311D01*
X186469186Y-80274500D01*
X186469183Y-80274500D01*
X186330817Y-80274500D01*
X186330814Y-80274500D01*
X186197165Y-80310311D01*
X186197161Y-80310312D01*
X186077334Y-80379495D01*
X186077334Y-80379496D01*
X185979496Y-80477334D01*
X185979495Y-80477334D01*
X185910312Y-80597161D01*
X185910311Y-80597165D01*
X185874500Y-80730813D01*
X179373983Y-80730813D01*
X179322665Y-80679495D01*
X179202838Y-80610312D01*
X179202834Y-80610311D01*
X179069186Y-80574500D01*
X179069183Y-80574500D01*
X178930817Y-80574500D01*
X178930814Y-80574500D01*
X178797165Y-80610311D01*
X178797161Y-80610312D01*
X178677334Y-80679495D01*
X178677334Y-80679496D01*
X178579496Y-80777334D01*
X178579495Y-80777334D01*
X178510312Y-80897161D01*
X178510311Y-80897165D01*
X178474500Y-81030813D01*
X172862357Y-81030813D01*
X172920505Y-80972665D01*
X172989688Y-80852836D01*
X173025499Y-80719186D01*
X173025500Y-80719186D01*
X173025500Y-80580814D01*
X173025499Y-80580813D01*
X172989688Y-80447165D01*
X172989687Y-80447161D01*
X172918899Y-80324554D01*
X172920792Y-80323460D01*
X172912670Y-80293922D01*
X172920048Y-80276109D01*
X172918899Y-80275446D01*
X172989687Y-80152838D01*
X172989687Y-80152837D01*
X172989688Y-80152836D01*
X173025499Y-80019186D01*
X173025500Y-80019186D01*
X173025500Y-79880814D01*
X173025499Y-79880813D01*
X172989688Y-79747165D01*
X172989687Y-79747161D01*
X172920504Y-79627334D01*
X172822665Y-79529495D01*
X172719686Y-79470040D01*
X172702838Y-79460312D01*
X172702834Y-79460311D01*
X172592746Y-79430813D01*
X185774500Y-79430813D01*
X185774500Y-79569186D01*
X185810311Y-79702834D01*
X185810312Y-79702838D01*
X185835905Y-79747165D01*
X185879495Y-79822665D01*
X185977335Y-79920505D01*
X186021194Y-79945827D01*
X186097161Y-79989687D01*
X186097163Y-79989687D01*
X186097164Y-79989688D01*
X186202571Y-80017931D01*
X186230813Y-80025499D01*
X186230814Y-80025500D01*
X186230817Y-80025500D01*
X186369186Y-80025500D01*
X186369186Y-80025499D01*
X186502836Y-79989688D01*
X186622665Y-79920505D01*
X186720505Y-79822665D01*
X186789688Y-79702836D01*
X186825499Y-79569186D01*
X186825500Y-79569186D01*
X186825500Y-79430814D01*
X186825499Y-79430813D01*
X186793205Y-79310289D01*
X186789688Y-79297164D01*
X186789687Y-79297163D01*
X186789687Y-79297161D01*
X186733743Y-79200264D01*
X186720505Y-79177335D01*
X186622665Y-79079495D01*
X186582996Y-79056592D01*
X186502838Y-79010312D01*
X186502834Y-79010311D01*
X186369186Y-78974500D01*
X186369183Y-78974500D01*
X186230817Y-78974500D01*
X186230814Y-78974500D01*
X186097165Y-79010311D01*
X186097161Y-79010312D01*
X185977334Y-79079495D01*
X185977334Y-79079496D01*
X185879496Y-79177334D01*
X185879495Y-79177334D01*
X185810312Y-79297161D01*
X185810311Y-79297165D01*
X185774500Y-79430813D01*
X172592746Y-79430813D01*
X172569186Y-79424500D01*
X172569183Y-79424500D01*
X172430817Y-79424500D01*
X172430814Y-79424500D01*
X172297165Y-79460311D01*
X172297161Y-79460312D01*
X172177334Y-79529495D01*
X172177334Y-79529496D01*
X172079496Y-79627334D01*
X172079495Y-79627334D01*
X172010312Y-79747161D01*
X172010311Y-79747165D01*
X171974500Y-79880813D01*
X132415300Y-79880813D01*
X132415300Y-77581989D01*
X140099500Y-77581989D01*
X140099500Y-77818011D01*
X140130307Y-78052014D01*
X140130308Y-78052018D01*
X140130309Y-78052025D01*
X140191391Y-78279986D01*
X140191395Y-78279996D01*
X140281716Y-78498050D01*
X140399725Y-78702447D01*
X140399735Y-78702462D01*
X140543403Y-78889693D01*
X140543413Y-78889705D01*
X140710294Y-79056586D01*
X140710306Y-79056596D01*
X140897537Y-79200264D01*
X140897552Y-79200274D01*
X141088101Y-79310288D01*
X141101951Y-79318284D01*
X141320007Y-79408606D01*
X141320010Y-79408606D01*
X141320013Y-79408608D01*
X141547974Y-79469690D01*
X141547975Y-79469690D01*
X141547986Y-79469693D01*
X141781989Y-79500500D01*
X141781993Y-79500500D01*
X142018007Y-79500500D01*
X142018011Y-79500500D01*
X142252014Y-79469693D01*
X142479993Y-79408606D01*
X142698049Y-79318284D01*
X142902450Y-79200273D01*
X142929946Y-79179175D01*
X142950409Y-79163472D01*
X143089699Y-79056592D01*
X143256592Y-78889699D01*
X143385918Y-78721158D01*
X143385923Y-78721152D01*
X201511998Y-78721152D01*
X201511998Y-78878847D01*
X201542758Y-79033487D01*
X201542761Y-79033498D01*
X201602340Y-79177335D01*
X201603104Y-79179179D01*
X201690709Y-79310289D01*
X201802209Y-79421789D01*
X201933319Y-79509394D01*
X202079001Y-79569737D01*
X202079007Y-79569738D01*
X202079010Y-79569739D01*
X202233650Y-79600499D01*
X202233656Y-79600500D01*
X202391340Y-79600500D01*
X202545995Y-79569737D01*
X202691677Y-79509394D01*
X202822787Y-79421789D01*
X202934287Y-79310289D01*
X203021892Y-79179179D01*
X203082235Y-79033497D01*
X203112998Y-78878842D01*
X203112998Y-78721158D01*
X203107646Y-78694250D01*
X203082237Y-78566512D01*
X203082234Y-78566501D01*
X203053881Y-78498050D01*
X203021892Y-78420821D01*
X202934287Y-78289711D01*
X202822787Y-78178211D01*
X202811254Y-78170505D01*
X202739658Y-78122666D01*
X202691677Y-78090606D01*
X202691674Y-78090604D01*
X202691673Y-78090604D01*
X202545996Y-78030263D01*
X202545985Y-78030260D01*
X202391345Y-77999500D01*
X202391340Y-77999500D01*
X202233656Y-77999500D01*
X202233650Y-77999500D01*
X202079010Y-78030260D01*
X202078999Y-78030263D01*
X201933322Y-78090604D01*
X201802209Y-78178210D01*
X201690708Y-78289711D01*
X201603102Y-78420824D01*
X201542761Y-78566501D01*
X201542758Y-78566512D01*
X201511998Y-78721152D01*
X143385923Y-78721152D01*
X143400264Y-78702462D01*
X143400264Y-78702460D01*
X143400273Y-78702450D01*
X143518284Y-78498049D01*
X143608606Y-78279993D01*
X143635879Y-78178211D01*
X143669690Y-78052025D01*
X143669689Y-78052025D01*
X143669693Y-78052014D01*
X143700500Y-77818011D01*
X143700500Y-77680813D01*
X156474500Y-77680813D01*
X156474500Y-77819186D01*
X156510311Y-77952834D01*
X156510312Y-77952838D01*
X156579495Y-78072665D01*
X156677335Y-78170505D01*
X156721194Y-78195827D01*
X156797161Y-78239687D01*
X156797163Y-78239687D01*
X156797164Y-78239688D01*
X156902571Y-78267931D01*
X156930813Y-78275499D01*
X156930814Y-78275500D01*
X156930817Y-78275500D01*
X157069186Y-78275500D01*
X157069186Y-78275499D01*
X157202836Y-78239688D01*
X157322665Y-78170505D01*
X157420505Y-78072665D01*
X157489688Y-77952836D01*
X157525499Y-77819186D01*
X157525500Y-77819186D01*
X157525500Y-77680814D01*
X157525499Y-77680813D01*
X157503085Y-77597164D01*
X157489688Y-77547164D01*
X157489687Y-77547163D01*
X157489687Y-77547161D01*
X157420504Y-77427334D01*
X157322665Y-77329495D01*
X157202838Y-77260312D01*
X157202834Y-77260311D01*
X157069186Y-77224500D01*
X157069183Y-77224500D01*
X156930817Y-77224500D01*
X156930814Y-77224500D01*
X156797165Y-77260311D01*
X156797161Y-77260312D01*
X156677334Y-77329495D01*
X156677334Y-77329496D01*
X156579496Y-77427334D01*
X156579495Y-77427334D01*
X156510312Y-77547161D01*
X156510311Y-77547165D01*
X156474500Y-77680813D01*
X143700500Y-77680813D01*
X143700500Y-77581989D01*
X143669693Y-77347986D01*
X143664739Y-77329496D01*
X143608608Y-77120013D01*
X143608604Y-77120003D01*
X143599144Y-77097165D01*
X143518284Y-76901951D01*
X143400273Y-76697550D01*
X143400270Y-76697546D01*
X143400264Y-76697537D01*
X143256596Y-76510306D01*
X143256586Y-76510294D01*
X143089705Y-76343413D01*
X143089693Y-76343403D01*
X142902462Y-76199735D01*
X142902447Y-76199725D01*
X142698050Y-76081716D01*
X142479996Y-75991395D01*
X142479986Y-75991391D01*
X142252025Y-75930309D01*
X142252018Y-75930308D01*
X142252014Y-75930307D01*
X142018011Y-75899500D01*
X141781989Y-75899500D01*
X141547986Y-75930307D01*
X141547982Y-75930307D01*
X141547974Y-75930309D01*
X141320013Y-75991391D01*
X141320003Y-75991395D01*
X141101949Y-76081716D01*
X140897552Y-76199725D01*
X140897537Y-76199735D01*
X140710306Y-76343403D01*
X140710294Y-76343413D01*
X140543413Y-76510294D01*
X140543403Y-76510306D01*
X140399735Y-76697537D01*
X140399725Y-76697552D01*
X140281716Y-76901949D01*
X140191395Y-77120003D01*
X140191391Y-77120013D01*
X140130309Y-77347974D01*
X140130307Y-77347982D01*
X140130307Y-77347986D01*
X140099500Y-77581989D01*
X132415300Y-77581989D01*
X132415300Y-75830813D01*
X154724500Y-75830813D01*
X154724500Y-75969186D01*
X154760311Y-76102834D01*
X154760312Y-76102838D01*
X154816252Y-76199727D01*
X154829495Y-76222665D01*
X154927335Y-76320505D01*
X154935985Y-76325499D01*
X155047161Y-76389687D01*
X155047163Y-76389687D01*
X155047164Y-76389688D01*
X155096241Y-76402838D01*
X155180813Y-76425499D01*
X155180814Y-76425500D01*
X155180817Y-76425500D01*
X155319186Y-76425500D01*
X155319186Y-76425499D01*
X155452836Y-76389688D01*
X155572665Y-76320505D01*
X155670505Y-76222665D01*
X155739688Y-76102836D01*
X155775499Y-75969186D01*
X155775500Y-75969186D01*
X155775500Y-75830814D01*
X155775499Y-75830813D01*
X155761748Y-75779495D01*
X155739688Y-75697164D01*
X155739687Y-75697163D01*
X155739687Y-75697161D01*
X155683879Y-75600500D01*
X155670505Y-75577335D01*
X155572665Y-75479495D01*
X155568922Y-75477334D01*
X155452838Y-75410312D01*
X155452834Y-75410311D01*
X155319186Y-75374500D01*
X155319183Y-75374500D01*
X155180817Y-75374500D01*
X155180814Y-75374500D01*
X155047165Y-75410311D01*
X155047161Y-75410312D01*
X154927334Y-75479495D01*
X154927334Y-75479496D01*
X154829496Y-75577334D01*
X154829495Y-75577334D01*
X154760312Y-75697161D01*
X154760311Y-75697165D01*
X154724500Y-75830813D01*
X132415300Y-75830813D01*
X132415300Y-75105584D01*
X163059300Y-75105584D01*
X163059300Y-77192816D01*
X163072726Y-77260312D01*
X163095826Y-77376448D01*
X163095829Y-77376458D01*
X163167475Y-77549425D01*
X163167476Y-77549427D01*
X163167478Y-77549431D01*
X163216412Y-77622666D01*
X163255264Y-77680813D01*
X163271498Y-77705108D01*
X163403892Y-77837502D01*
X163559569Y-77941522D01*
X163559574Y-77941524D01*
X163732541Y-78013170D01*
X163732543Y-78013170D01*
X163732549Y-78013173D01*
X163916184Y-78049700D01*
X163916187Y-78049700D01*
X164103413Y-78049700D01*
X164103416Y-78049700D01*
X164287051Y-78013173D01*
X164460031Y-77941522D01*
X164615708Y-77837502D01*
X164748102Y-77705108D01*
X164852122Y-77549431D01*
X164923773Y-77376451D01*
X164960300Y-77192816D01*
X164960300Y-76587692D01*
X165580300Y-76587692D01*
X165580300Y-76710708D01*
X165592989Y-76774500D01*
X165604299Y-76831360D01*
X165604299Y-76831361D01*
X165651373Y-76945008D01*
X165651375Y-76945012D01*
X165719719Y-77047296D01*
X165806704Y-77134281D01*
X165908988Y-77202625D01*
X166022640Y-77249701D01*
X166143292Y-77273700D01*
X166143295Y-77273700D01*
X166266305Y-77273700D01*
X166266308Y-77273700D01*
X166386960Y-77249701D01*
X166500612Y-77202625D01*
X166602577Y-77134493D01*
X166639360Y-77127178D01*
X166657022Y-77134493D01*
X166758988Y-77202625D01*
X166872640Y-77249701D01*
X166993292Y-77273700D01*
X166993295Y-77273700D01*
X167116305Y-77273700D01*
X167116308Y-77273700D01*
X167236960Y-77249701D01*
X167350612Y-77202625D01*
X167452577Y-77134493D01*
X167489360Y-77127178D01*
X167507022Y-77134493D01*
X167608988Y-77202625D01*
X167722640Y-77249701D01*
X167843292Y-77273700D01*
X167843295Y-77273700D01*
X167966305Y-77273700D01*
X167966308Y-77273700D01*
X168086960Y-77249701D01*
X168200612Y-77202625D01*
X168302577Y-77134493D01*
X168339360Y-77127178D01*
X168357022Y-77134493D01*
X168458988Y-77202625D01*
X168572640Y-77249701D01*
X168693292Y-77273700D01*
X168693295Y-77273700D01*
X168816305Y-77273700D01*
X168816308Y-77273700D01*
X168936960Y-77249701D01*
X169050612Y-77202625D01*
X169152577Y-77134493D01*
X169189360Y-77127178D01*
X169207022Y-77134493D01*
X169308988Y-77202625D01*
X169422640Y-77249701D01*
X169543292Y-77273700D01*
X169543295Y-77273700D01*
X169666305Y-77273700D01*
X169666308Y-77273700D01*
X169786960Y-77249701D01*
X169900612Y-77202625D01*
X170002577Y-77134493D01*
X170039360Y-77127178D01*
X170057022Y-77134493D01*
X170158988Y-77202625D01*
X170272640Y-77249701D01*
X170393292Y-77273700D01*
X170393295Y-77273700D01*
X170516305Y-77273700D01*
X170516308Y-77273700D01*
X170636960Y-77249701D01*
X170750612Y-77202625D01*
X170852896Y-77134281D01*
X170939881Y-77047296D01*
X171008225Y-76945012D01*
X171055301Y-76831360D01*
X171079300Y-76710708D01*
X171079300Y-76587692D01*
X171055301Y-76467040D01*
X171008225Y-76353388D01*
X170939881Y-76251104D01*
X170852896Y-76164119D01*
X170750612Y-76095775D01*
X170750609Y-76095773D01*
X170750608Y-76095773D01*
X170636960Y-76048699D01*
X170629228Y-76047161D01*
X170516308Y-76024700D01*
X170393292Y-76024700D01*
X170302803Y-76042699D01*
X170272639Y-76048699D01*
X170272638Y-76048699D01*
X170158991Y-76095773D01*
X170057023Y-76163905D01*
X170020240Y-76171221D01*
X170002577Y-76163905D01*
X169940856Y-76122665D01*
X169900612Y-76095775D01*
X169900609Y-76095773D01*
X169786960Y-76048699D01*
X169779228Y-76047161D01*
X169666308Y-76024700D01*
X169543292Y-76024700D01*
X169452803Y-76042699D01*
X169422639Y-76048699D01*
X169422638Y-76048699D01*
X169308991Y-76095773D01*
X169207023Y-76163905D01*
X169170240Y-76171221D01*
X169152577Y-76163905D01*
X169090856Y-76122665D01*
X169050612Y-76095775D01*
X169050609Y-76095773D01*
X168936960Y-76048699D01*
X168929228Y-76047161D01*
X168816308Y-76024700D01*
X168693292Y-76024700D01*
X168602803Y-76042699D01*
X168572639Y-76048699D01*
X168572638Y-76048699D01*
X168458991Y-76095773D01*
X168357023Y-76163905D01*
X168320240Y-76171221D01*
X168302577Y-76163905D01*
X168240856Y-76122665D01*
X168200612Y-76095775D01*
X168200609Y-76095773D01*
X168086960Y-76048699D01*
X168079228Y-76047161D01*
X167966308Y-76024700D01*
X167843292Y-76024700D01*
X167752803Y-76042699D01*
X167722639Y-76048699D01*
X167722638Y-76048699D01*
X167608991Y-76095773D01*
X167507023Y-76163905D01*
X167470240Y-76171221D01*
X167452577Y-76163905D01*
X167390856Y-76122665D01*
X167350612Y-76095775D01*
X167350609Y-76095773D01*
X167236960Y-76048699D01*
X167229228Y-76047161D01*
X167116308Y-76024700D01*
X166993292Y-76024700D01*
X166902803Y-76042699D01*
X166872639Y-76048699D01*
X166872638Y-76048699D01*
X166758991Y-76095773D01*
X166657023Y-76163905D01*
X166620240Y-76171221D01*
X166602577Y-76163905D01*
X166540856Y-76122665D01*
X166500612Y-76095775D01*
X166500609Y-76095773D01*
X166386960Y-76048699D01*
X166379228Y-76047161D01*
X166266308Y-76024700D01*
X166143292Y-76024700D01*
X166052803Y-76042699D01*
X166022639Y-76048699D01*
X166022638Y-76048699D01*
X165908991Y-76095773D01*
X165806704Y-76164118D01*
X165719718Y-76251104D01*
X165651373Y-76353391D01*
X165604299Y-76467038D01*
X165604299Y-76467039D01*
X165604299Y-76467040D01*
X165580300Y-76587692D01*
X164960300Y-76587692D01*
X164960300Y-75237692D01*
X165580300Y-75237692D01*
X165580300Y-75360708D01*
X165603498Y-75477334D01*
X165604299Y-75481360D01*
X165604299Y-75481361D01*
X165644053Y-75577335D01*
X165651375Y-75595012D01*
X165697142Y-75663507D01*
X165719630Y-75697164D01*
X165719719Y-75697296D01*
X165806704Y-75784281D01*
X165908988Y-75852625D01*
X166022640Y-75899701D01*
X166143292Y-75923700D01*
X166143295Y-75923700D01*
X166266305Y-75923700D01*
X166266308Y-75923700D01*
X166386960Y-75899701D01*
X166500612Y-75852625D01*
X166602577Y-75784493D01*
X166639360Y-75777178D01*
X166657022Y-75784493D01*
X166758988Y-75852625D01*
X166872640Y-75899701D01*
X166993292Y-75923700D01*
X166993295Y-75923700D01*
X167116305Y-75923700D01*
X167116308Y-75923700D01*
X167236960Y-75899701D01*
X167350612Y-75852625D01*
X167452577Y-75784493D01*
X167489360Y-75777178D01*
X167507022Y-75784493D01*
X167608988Y-75852625D01*
X167722640Y-75899701D01*
X167843292Y-75923700D01*
X167843295Y-75923700D01*
X167966305Y-75923700D01*
X167966308Y-75923700D01*
X168086960Y-75899701D01*
X168200612Y-75852625D01*
X168302577Y-75784493D01*
X168339360Y-75777178D01*
X168357022Y-75784493D01*
X168458988Y-75852625D01*
X168572640Y-75899701D01*
X168693292Y-75923700D01*
X168693295Y-75923700D01*
X168816305Y-75923700D01*
X168816308Y-75923700D01*
X168936960Y-75899701D01*
X169050612Y-75852625D01*
X169152577Y-75784493D01*
X169189360Y-75777178D01*
X169207022Y-75784493D01*
X169308988Y-75852625D01*
X169422640Y-75899701D01*
X169543292Y-75923700D01*
X169543295Y-75923700D01*
X169666305Y-75923700D01*
X169666308Y-75923700D01*
X169786960Y-75899701D01*
X169900612Y-75852625D01*
X170002577Y-75784493D01*
X170039360Y-75777178D01*
X170057022Y-75784493D01*
X170158988Y-75852625D01*
X170272640Y-75899701D01*
X170393292Y-75923700D01*
X170393295Y-75923700D01*
X170516305Y-75923700D01*
X170516308Y-75923700D01*
X170636960Y-75899701D01*
X170750612Y-75852625D01*
X170852896Y-75784281D01*
X170939881Y-75697296D01*
X171008225Y-75595012D01*
X171055301Y-75481360D01*
X171079300Y-75360708D01*
X171079300Y-75237692D01*
X171055301Y-75117040D01*
X171008225Y-75003388D01*
X170939881Y-74901104D01*
X170852896Y-74814119D01*
X170750612Y-74745775D01*
X170750609Y-74745773D01*
X170750608Y-74745773D01*
X170636960Y-74698699D01*
X170516308Y-74674700D01*
X170393292Y-74674700D01*
X170302803Y-74692699D01*
X170272639Y-74698699D01*
X170272638Y-74698699D01*
X170158991Y-74745773D01*
X170057023Y-74813905D01*
X170020240Y-74821221D01*
X170002577Y-74813905D01*
X169945628Y-74775853D01*
X169900612Y-74745775D01*
X169900609Y-74745773D01*
X169786960Y-74698699D01*
X169666308Y-74674700D01*
X169543292Y-74674700D01*
X169452803Y-74692699D01*
X169422639Y-74698699D01*
X169422638Y-74698699D01*
X169308991Y-74745773D01*
X169207023Y-74813905D01*
X169170240Y-74821221D01*
X169152577Y-74813905D01*
X169095628Y-74775853D01*
X169050612Y-74745775D01*
X169050609Y-74745773D01*
X168936960Y-74698699D01*
X168816308Y-74674700D01*
X168693292Y-74674700D01*
X168602803Y-74692699D01*
X168572639Y-74698699D01*
X168572638Y-74698699D01*
X168458991Y-74745773D01*
X168357023Y-74813905D01*
X168320240Y-74821221D01*
X168302577Y-74813905D01*
X168245628Y-74775853D01*
X168200612Y-74745775D01*
X168200609Y-74745773D01*
X168086960Y-74698699D01*
X167966308Y-74674700D01*
X167843292Y-74674700D01*
X167752803Y-74692699D01*
X167722639Y-74698699D01*
X167722638Y-74698699D01*
X167608991Y-74745773D01*
X167507023Y-74813905D01*
X167470240Y-74821221D01*
X167452577Y-74813905D01*
X167395628Y-74775853D01*
X167350612Y-74745775D01*
X167350609Y-74745773D01*
X167236960Y-74698699D01*
X167116308Y-74674700D01*
X166993292Y-74674700D01*
X166902803Y-74692699D01*
X166872639Y-74698699D01*
X166872638Y-74698699D01*
X166758991Y-74745773D01*
X166657023Y-74813905D01*
X166620240Y-74821221D01*
X166602577Y-74813905D01*
X166545628Y-74775853D01*
X166500612Y-74745775D01*
X166500609Y-74745773D01*
X166386960Y-74698699D01*
X166266308Y-74674700D01*
X166143292Y-74674700D01*
X166052803Y-74692699D01*
X166022639Y-74698699D01*
X166022638Y-74698699D01*
X165908991Y-74745773D01*
X165806704Y-74814118D01*
X165719718Y-74901104D01*
X165651373Y-75003391D01*
X165604299Y-75117038D01*
X165604299Y-75117039D01*
X165604299Y-75117040D01*
X165580300Y-75237692D01*
X164960300Y-75237692D01*
X164960300Y-75105584D01*
X164923773Y-74921949D01*
X164879019Y-74813905D01*
X164852124Y-74748974D01*
X164852122Y-74748969D01*
X164748102Y-74593292D01*
X164615708Y-74460898D01*
X164460031Y-74356878D01*
X164460027Y-74356876D01*
X164460025Y-74356875D01*
X164287058Y-74285229D01*
X164287048Y-74285226D01*
X164212994Y-74270496D01*
X164103416Y-74248700D01*
X163916184Y-74248700D01*
X163824786Y-74266880D01*
X163732551Y-74285226D01*
X163732541Y-74285229D01*
X163559574Y-74356875D01*
X163559570Y-74356877D01*
X163559569Y-74356878D01*
X163524975Y-74379993D01*
X163403892Y-74460897D01*
X163271497Y-74593292D01*
X163224771Y-74663224D01*
X163168157Y-74747954D01*
X163167475Y-74748974D01*
X163095829Y-74921941D01*
X163095826Y-74921951D01*
X163079628Y-75003388D01*
X163059300Y-75105584D01*
X132415300Y-75105584D01*
X132415300Y-72878712D01*
X137149500Y-72878712D01*
X137149500Y-73121288D01*
X137181162Y-73361789D01*
X137181163Y-73361793D01*
X137181164Y-73361800D01*
X137243944Y-73596095D01*
X137243946Y-73596101D01*
X137336776Y-73820213D01*
X137458062Y-74030286D01*
X137458072Y-74030301D01*
X137605730Y-74222732D01*
X137605740Y-74222744D01*
X137777255Y-74394259D01*
X137777267Y-74394269D01*
X137969698Y-74541927D01*
X137969707Y-74541933D01*
X137969711Y-74541936D01*
X138179788Y-74663224D01*
X138403900Y-74756054D01*
X138403904Y-74756055D01*
X138638199Y-74818835D01*
X138638200Y-74818835D01*
X138638211Y-74818838D01*
X138878712Y-74850500D01*
X138878716Y-74850500D01*
X139121284Y-74850500D01*
X139121288Y-74850500D01*
X139361789Y-74818838D01*
X139596100Y-74756054D01*
X139820212Y-74663224D01*
X140030289Y-74541936D01*
X140222738Y-74394265D01*
X140394265Y-74222738D01*
X140541936Y-74030289D01*
X140663224Y-73820212D01*
X140756054Y-73596100D01*
X140780367Y-73505360D01*
X140800343Y-73430813D01*
X143224500Y-73430813D01*
X143224500Y-73569186D01*
X143260311Y-73702834D01*
X143260312Y-73702838D01*
X143328079Y-73820212D01*
X143329495Y-73822665D01*
X143427335Y-73920505D01*
X143471194Y-73945827D01*
X143547161Y-73989687D01*
X143547163Y-73989687D01*
X143547164Y-73989688D01*
X143652571Y-74017931D01*
X143680813Y-74025499D01*
X143680814Y-74025500D01*
X143680817Y-74025500D01*
X143819186Y-74025500D01*
X143819186Y-74025499D01*
X143952836Y-73989688D01*
X144072665Y-73920505D01*
X144170505Y-73822665D01*
X144239688Y-73702836D01*
X144275499Y-73569186D01*
X144275500Y-73569186D01*
X144275500Y-73430814D01*
X144275499Y-73430813D01*
X144257007Y-73361800D01*
X144239688Y-73297164D01*
X144239687Y-73297163D01*
X144239687Y-73297161D01*
X144170504Y-73177334D01*
X144072665Y-73079495D01*
X143952838Y-73010312D01*
X143952834Y-73010311D01*
X143819186Y-72974500D01*
X143819183Y-72974500D01*
X143680817Y-72974500D01*
X143680814Y-72974500D01*
X143547165Y-73010311D01*
X143547161Y-73010312D01*
X143427334Y-73079495D01*
X143427334Y-73079496D01*
X143329496Y-73177334D01*
X143329495Y-73177334D01*
X143260312Y-73297161D01*
X143260311Y-73297165D01*
X143224500Y-73430813D01*
X140800343Y-73430813D01*
X140804601Y-73414923D01*
X140804601Y-73414922D01*
X140818836Y-73361798D01*
X140818836Y-73361794D01*
X140818838Y-73361789D01*
X140850500Y-73121288D01*
X140850500Y-72878712D01*
X155149500Y-72878712D01*
X155149500Y-73121288D01*
X155181162Y-73361789D01*
X155181163Y-73361793D01*
X155181164Y-73361800D01*
X155243944Y-73596095D01*
X155243946Y-73596101D01*
X155336776Y-73820213D01*
X155458062Y-74030286D01*
X155458072Y-74030301D01*
X155605730Y-74222732D01*
X155605740Y-74222744D01*
X155777255Y-74394259D01*
X155777267Y-74394269D01*
X155969698Y-74541927D01*
X155969707Y-74541933D01*
X155969711Y-74541936D01*
X156179788Y-74663224D01*
X156403900Y-74756054D01*
X156403904Y-74756055D01*
X156638199Y-74818835D01*
X156638200Y-74818835D01*
X156638211Y-74818838D01*
X156878712Y-74850500D01*
X156878716Y-74850500D01*
X157121284Y-74850500D01*
X157121288Y-74850500D01*
X157361789Y-74818838D01*
X157596100Y-74756054D01*
X157820212Y-74663224D01*
X158030289Y-74541936D01*
X158222738Y-74394265D01*
X158394265Y-74222738D01*
X158541936Y-74030289D01*
X158663224Y-73820212D01*
X158756054Y-73596100D01*
X158818838Y-73361789D01*
X158850500Y-73121288D01*
X158850500Y-72878712D01*
X158818838Y-72638211D01*
X158811359Y-72610301D01*
X158756055Y-72403904D01*
X158756053Y-72403898D01*
X158664023Y-72181716D01*
X158663224Y-72179788D01*
X158541936Y-71969711D01*
X158541933Y-71969707D01*
X158541927Y-71969698D01*
X158394269Y-71777267D01*
X158394259Y-71777255D01*
X158222744Y-71605740D01*
X158222732Y-71605730D01*
X158030301Y-71458072D01*
X158030286Y-71458062D01*
X157835516Y-71345612D01*
X157820212Y-71336776D01*
X157744908Y-71305584D01*
X163059300Y-71305584D01*
X163059300Y-72692816D01*
X163080133Y-72797550D01*
X163095826Y-72876448D01*
X163095829Y-72876458D01*
X163167475Y-73049425D01*
X163167476Y-73049427D01*
X163167478Y-73049431D01*
X163271498Y-73205108D01*
X163403892Y-73337502D01*
X163559569Y-73441522D01*
X163559574Y-73441524D01*
X163732541Y-73513170D01*
X163732543Y-73513170D01*
X163732549Y-73513173D01*
X163916184Y-73549700D01*
X163916187Y-73549700D01*
X164103413Y-73549700D01*
X164103416Y-73549700D01*
X164287051Y-73513173D01*
X164460031Y-73441522D01*
X164615708Y-73337502D01*
X164748102Y-73205108D01*
X164852122Y-73049431D01*
X164923773Y-72876451D01*
X164960300Y-72692816D01*
X164960300Y-71305584D01*
X164923773Y-71121949D01*
X164852122Y-70948969D01*
X164748102Y-70793292D01*
X164615708Y-70660898D01*
X164460031Y-70556878D01*
X164460027Y-70556876D01*
X164460025Y-70556875D01*
X164287058Y-70485229D01*
X164287048Y-70485226D01*
X164212994Y-70470496D01*
X164103416Y-70448700D01*
X163916184Y-70448700D01*
X163824786Y-70466880D01*
X163732551Y-70485226D01*
X163732541Y-70485229D01*
X163559574Y-70556875D01*
X163559570Y-70556877D01*
X163559569Y-70556878D01*
X163519995Y-70583320D01*
X163403892Y-70660897D01*
X163271497Y-70793292D01*
X163167475Y-70948974D01*
X163095829Y-71121941D01*
X163095826Y-71121951D01*
X163084049Y-71181162D01*
X163059300Y-71305584D01*
X157744908Y-71305584D01*
X157737424Y-71302484D01*
X157596101Y-71243946D01*
X157596095Y-71243944D01*
X157361800Y-71181164D01*
X157361793Y-71181163D01*
X157361789Y-71181162D01*
X157121288Y-71149500D01*
X156878712Y-71149500D01*
X156638211Y-71181162D01*
X156638207Y-71181162D01*
X156638199Y-71181164D01*
X156403904Y-71243944D01*
X156403898Y-71243946D01*
X156179786Y-71336776D01*
X155969713Y-71458062D01*
X155969698Y-71458072D01*
X155777267Y-71605730D01*
X155777255Y-71605740D01*
X155605740Y-71777255D01*
X155605730Y-71777267D01*
X155458072Y-71969698D01*
X155458062Y-71969713D01*
X155336776Y-72179786D01*
X155243946Y-72403898D01*
X155243944Y-72403904D01*
X155181164Y-72638199D01*
X155181162Y-72638207D01*
X155181162Y-72638211D01*
X155149500Y-72878712D01*
X140850500Y-72878712D01*
X140818838Y-72638211D01*
X140811359Y-72610301D01*
X140756055Y-72403904D01*
X140756053Y-72403898D01*
X140664023Y-72181716D01*
X140663224Y-72179788D01*
X140541936Y-71969711D01*
X140541933Y-71969707D01*
X140541927Y-71969698D01*
X140394269Y-71777267D01*
X140394259Y-71777255D01*
X140222744Y-71605740D01*
X140222732Y-71605730D01*
X140030301Y-71458072D01*
X140030286Y-71458062D01*
X139820212Y-71336776D01*
X139820213Y-71336776D01*
X139596101Y-71243946D01*
X139596095Y-71243944D01*
X139361800Y-71181164D01*
X139361793Y-71181163D01*
X139361789Y-71181162D01*
X139121288Y-71149500D01*
X138878712Y-71149500D01*
X138638211Y-71181162D01*
X138638207Y-71181162D01*
X138638199Y-71181164D01*
X138403904Y-71243944D01*
X138403898Y-71243946D01*
X138179786Y-71336776D01*
X137969713Y-71458062D01*
X137969698Y-71458072D01*
X137777267Y-71605730D01*
X137777255Y-71605740D01*
X137605740Y-71777255D01*
X137605730Y-71777267D01*
X137458072Y-71969698D01*
X137458062Y-71969713D01*
X137336776Y-72179786D01*
X137243946Y-72403898D01*
X137243944Y-72403904D01*
X137181164Y-72638199D01*
X137181162Y-72638207D01*
X137181162Y-72638211D01*
X137149500Y-72878712D01*
X132415300Y-72878712D01*
X132415300Y-69447900D01*
X132429652Y-69413252D01*
X132464300Y-69398900D01*
X173351000Y-69398900D01*
X173385648Y-69413252D01*
G37*
%TD.AperFunction*%
M02*
