M48
; DRILL file {KiCad 8.0.7} date 2025-02-05T21:47:24-0500
; FORMAT={-:-/ absolute / inch / decimal}
; #@! TF.CreationDate,2025-02-05T21:47:24-05:00
; #@! TF.GenerationSoftware,Kicad,Pcbnew,8.0.7
; #@! TF.FileFunction,Plated,1,4,PTH
FMAT,2
INCH
; #@! TA.AperFunction,Plated,PTH,ViaDrill
T1C0.0079
; #@! TA.AperFunction,Plated,PTH,ViaDrill
T2C0.0118
; #@! TA.AperFunction,Plated,PTH,ViaDrill
T3C0.0157
; #@! TA.AperFunction,Plated,PTH,ComponentDrill
T4C0.0157
; #@! TA.AperFunction,Plated,PTH,ViaDrill
T5C0.0197
; #@! TA.AperFunction,Plated,PTH,ComponentDrill
T6C0.0276
; #@! TA.AperFunction,Plated,PTH,ComponentDrill
T7C0.0315
; #@! TA.AperFunction,Plated,PTH,ComponentDrill
T8C0.0394
; #@! TA.AperFunction,Plated,PTH,ComponentDrill
T9C0.0472
; #@! TA.AperFunction,Plated,PTH,ComponentDrill
T10C0.0512
; #@! TA.AperFunction,Plated,PTH,ComponentDrill
T11C0.0591
%
G90
G05
T1
X6.3585Y-4.0305
X6.4011Y-4.0303
T2
X5.5262Y-3.4829
X5.689Y-3.7126
X5.7756Y-3.2835
X5.7756Y-3.3268
X6.0039Y-3.4803
X6.0531Y-3.5335
X6.0531Y-3.563
X6.0531Y-3.5925
X6.0827Y-3.5335
X6.0827Y-3.563
X6.0827Y-3.5925
X6.1417Y-3.5925
X6.1713Y-3.5433
X6.1713Y-3.5728
X6.1735Y-4.457
X6.2008Y-3.5433
X6.2008Y-3.5728
X6.2087Y-3.8661
X6.2303Y-3.5433
X6.2303Y-3.5728
X6.2598Y-3.4828
X6.2795Y-3.5531
X6.2894Y-3.4828
X6.2936Y-4.0295
X6.3091Y-3.5531
X6.3189Y-3.4828
X6.3386Y-3.5531
X6.3484Y-3.4252
X6.3976Y-3.4252
X6.4094Y-3.1535
X6.4679Y-4.0636
X6.4715Y-4.4971
X6.5786Y-4.2246
X6.6496Y-3.5906
X6.6811Y-4.3425
X6.7559Y-3.1693
X6.8711Y-2.9911
X7.2821Y-3.088
X7.4305Y-3.1703
X7.5075Y-3.2265
X7.5352Y-3.2567
X7.5882Y-3.2411
X7.6653Y-3.131
X7.731Y-3.1117
X7.8025Y-4.804
X7.8715Y-3.3395
X7.9016Y-3.3661
X7.9259Y-3.245
X8.0461Y-3.3374
T3
X5.2756Y-3.2879
X5.3307Y-4.6299
X5.5197Y-4.8661
X5.6485Y-2.9271
X5.6795Y-4.996
X5.9825Y-3.058
X6.0145Y-5.185
X6.0735Y-3.292
X6.1025Y-4.087
X6.3168Y-4.3923
X6.3522Y-4.5852
X6.3936Y-4.1021
X6.4125Y-3.671
X6.5979Y-3.358
X6.6339Y-2.7598
X6.6905Y-3.792
X6.9614Y-4.8951
X7.0236Y-3.4646
X7.0315Y-3.119
X7.0945Y-2.9961
X7.1575Y-3.2283
X7.2445Y-3.4085
X7.2539Y-3.3405
X7.2874Y-3.0079
X7.2965Y-5.025
X7.3287Y-3.3216
X7.4961Y-3.4488
X7.5387Y-3.1744
X7.5415Y-3.4035
X7.5591Y-3.0276
X7.5887Y-3.175
X7.702Y-3.384
X7.7161Y-3.004
X7.7258Y-3.0428
X7.733Y-3.078
X7.7874Y-3.2402
X7.8345Y-4.9321
X7.8346Y-3.4449
X7.8995Y-3.0865
X7.932Y-2.979
X7.9545Y-3.0255
X8.0615Y-3.0655
X8.0771Y-3.1935
X8.084Y-3.362
X8.0855Y-4.735
T4
X6.51Y-2.9645
X6.51Y-3.0177
X6.5435Y-2.9645
X6.5435Y-3.0177
X6.577Y-2.9645
X6.577Y-3.0177
X6.6104Y-2.9645
X6.6104Y-3.0177
X6.6439Y-2.9645
X6.6439Y-3.0177
X6.6774Y-2.9645
X6.6774Y-3.0177
X6.7108Y-2.9645
X6.7108Y-3.0177
X6.7443Y-2.9645
X6.7443Y-3.0177
T5
X6.0591Y-4.2756
X6.1265Y-4.268
X6.1319Y-3.9272
X6.1319Y-3.9764
X6.1614Y-3.878
X6.1909Y-3.9272
X6.1909Y-3.9764
X6.2681Y-3.9866
X6.3155Y-3.956
X6.437Y-3.9322
X6.4469Y-3.8386
X6.4469Y-3.8878
X6.4764Y-3.9665
X6.4862Y-3.8189
X6.4862Y-3.8681
X6.4862Y-3.9173
X6.5256Y-3.8386
X6.5256Y-3.8878
X6.7323Y-2.8253
T7
X6.1496Y-4.7695
X6.1496Y-4.8482
X6.7638Y-4.6163
X6.7638Y-4.6951
X7.1365Y-3.4012
X7.1365Y-3.5012
T8
X5.6756Y-3.2938
X5.6756Y-3.3938
X5.8683Y-3.2948
X5.8683Y-3.3948
X5.8898Y-4.6526
X5.8898Y-4.7526
X5.8898Y-4.8526
X6.5256Y-5.2264
X6.7028Y-5.2264
X7.1205Y-4.573
X7.1205Y-4.673
X7.1205Y-4.773
T9
X5.3617Y-3.5792
X5.3617Y-4.4847
X5.4617Y-3.5792
X5.8129Y-3.5792
X5.9129Y-3.5792
X5.9129Y-4.4847
T10
X6.4764Y-5.128
X6.752Y-5.128
T11
X6.0995Y-3.168
X6.2265Y-3.746
X6.3346Y-4.7126
X6.8583Y-3.3937
X7.9865Y-5.088
T6
G00X6.4571Y-2.8523
M15
G01X6.4571Y-2.8169
M16
G05
G00X6.4571Y-3.0236
M15
G01X6.4571Y-2.9724
M16
G05
G00X6.7972Y-2.8523
M15
G01X6.7972Y-2.8169
M16
G05
G00X6.7972Y-3.0236
M15
G01X6.7972Y-2.9724
M16
G05
M30
