%TF.GenerationSoftware,KiCad,Pcbnew,8.0.7*%
%TF.CreationDate,2025-02-05T21:47:27-05:00*%
%TF.ProjectId,SHERPENT20250113,53484552-5045-44e5-9432-303235303131,rev?*%
%TF.SameCoordinates,Original*%
%TF.FileFunction,Soldermask,Bot*%
%TF.FilePolarity,Negative*%
%FSLAX46Y46*%
G04 Gerber Fmt 4.6, Leading zero omitted, Abs format (unit mm)*
G04 Created by KiCad (PCBNEW 8.0.7) date 2025-02-05 21:47:27*
%MOMM*%
%LPD*%
G01*
G04 APERTURE LIST*
G04 Aperture macros list*
%AMRoundRect*
0 Rectangle with rounded corners*
0 $1 Rounding radius*
0 $2 $3 $4 $5 $6 $7 $8 $9 X,Y pos of 4 corners*
0 Add a 4 corners polygon primitive as box body*
4,1,4,$2,$3,$4,$5,$6,$7,$8,$9,$2,$3,0*
0 Add four circle primitives for the rounded corners*
1,1,$1+$1,$2,$3*
1,1,$1+$1,$4,$5*
1,1,$1+$1,$6,$7*
1,1,$1+$1,$8,$9*
0 Add four rect primitives between the rounded corners*
20,1,$1+$1,$2,$3,$4,$5,0*
20,1,$1+$1,$4,$5,$6,$7,0*
20,1,$1+$1,$6,$7,$8,$9,0*
20,1,$1+$1,$8,$9,$2,$3,0*%
%AMFreePoly0*
4,1,6,1.000000,0.000000,0.500000,-0.750000,-0.500000,-0.750000,-0.500000,0.750000,0.500000,0.750000,1.000000,0.000000,1.000000,0.000000,$1*%
%AMFreePoly1*
4,1,6,0.500000,-0.750000,-0.650000,-0.750000,-0.150000,0.000000,-0.650000,0.750000,0.500000,0.750000,0.500000,-0.750000,0.500000,-0.750000,$1*%
G04 Aperture macros list end*
%ADD10C,0.387500*%
%ADD11C,3.000000*%
%ADD12C,2.700000*%
%ADD13R,1.600000X1.600000*%
%ADD14C,1.600000*%
%ADD15R,1.700000X1.700000*%
%ADD16O,1.700000X1.700000*%
%ADD17O,1.452400X2.652400*%
%ADD18O,1.452400X3.352400*%
%ADD19C,1.400000*%
%ADD20R,2.000000X2.000000*%
%ADD21C,1.700000*%
%ADD22C,2.000000*%
%ADD23RoundRect,0.150000X0.150000X-0.587500X0.150000X0.587500X-0.150000X0.587500X-0.150000X-0.587500X0*%
%ADD24RoundRect,0.200000X-0.275000X0.200000X-0.275000X-0.200000X0.275000X-0.200000X0.275000X0.200000X0*%
%ADD25RoundRect,0.090000X0.660000X0.360000X-0.660000X0.360000X-0.660000X-0.360000X0.660000X-0.360000X0*%
%ADD26RoundRect,0.150000X-0.150000X0.587500X-0.150000X-0.587500X0.150000X-0.587500X0.150000X0.587500X0*%
%ADD27RoundRect,0.090000X-0.660000X-0.360000X0.660000X-0.360000X0.660000X0.360000X-0.660000X0.360000X0*%
%ADD28FreePoly0,180.000000*%
%ADD29FreePoly1,180.000000*%
%ADD30FreePoly0,0.000000*%
%ADD31FreePoly1,0.000000*%
G04 APERTURE END LIST*
D10*
%TO.C,J1*%
X167248550Y-75299200D02*
G75*
G02*
X166861050Y-75299200I-193750J0D01*
G01*
X166861050Y-75299200D02*
G75*
G02*
X167248550Y-75299200I193750J0D01*
G01*
X167248550Y-76649200D02*
G75*
G02*
X166861050Y-76649200I-193750J0D01*
G01*
X166861050Y-76649200D02*
G75*
G02*
X167248550Y-76649200I193750J0D01*
G01*
X168098550Y-75299200D02*
G75*
G02*
X167711050Y-75299200I-193750J0D01*
G01*
X167711050Y-75299200D02*
G75*
G02*
X168098550Y-75299200I193750J0D01*
G01*
X168098550Y-76649200D02*
G75*
G02*
X167711050Y-76649200I-193750J0D01*
G01*
X167711050Y-76649200D02*
G75*
G02*
X168098550Y-76649200I193750J0D01*
G01*
X168948550Y-75299200D02*
G75*
G02*
X168561050Y-75299200I-193750J0D01*
G01*
X168561050Y-75299200D02*
G75*
G02*
X168948550Y-75299200I193750J0D01*
G01*
X168948550Y-76649200D02*
G75*
G02*
X168561050Y-76649200I-193750J0D01*
G01*
X168561050Y-76649200D02*
G75*
G02*
X168948550Y-76649200I193750J0D01*
G01*
X169798550Y-75299200D02*
G75*
G02*
X169411050Y-75299200I-193750J0D01*
G01*
X169411050Y-75299200D02*
G75*
G02*
X169798550Y-75299200I193750J0D01*
G01*
X169798550Y-76649200D02*
G75*
G02*
X169411050Y-76649200I-193750J0D01*
G01*
X169411050Y-76649200D02*
G75*
G02*
X169798550Y-76649200I193750J0D01*
G01*
%TD*%
D11*
%TO.C,TP1*%
X154927200Y-80467600D03*
%TD*%
D12*
%TO.C,H2*%
X157000000Y-73000000D03*
%TD*%
%TO.C,H3*%
X139000000Y-133000000D03*
%TD*%
D11*
%TO.C,TP7*%
X158153000Y-95148800D03*
%TD*%
D13*
%TO.C,C8*%
X171800000Y-119255113D03*
D14*
X171800000Y-117255113D03*
%TD*%
D12*
%TO.C,H1*%
X139000000Y-73000000D03*
%TD*%
D11*
%TO.C,NEO-END1*%
X202857000Y-129235600D03*
%TD*%
%TO.C,TP4*%
X174200000Y-86200000D03*
%TD*%
D15*
%TO.C,J2*%
X149600000Y-118175000D03*
D16*
X149600000Y-120715000D03*
X149600000Y-123255000D03*
%TD*%
D15*
%TO.C,BT1*%
X149053945Y-83687345D03*
D16*
X149053945Y-86227345D03*
%TD*%
D17*
%TO.C,J1*%
X172649800Y-71999200D03*
X164009800Y-71999200D03*
D18*
X172649800Y-76149200D03*
X164009800Y-76149200D03*
%TD*%
D13*
%TO.C,C7*%
X156200000Y-121144888D03*
D14*
X156200000Y-123144888D03*
%TD*%
D15*
%TO.C,J3*%
X180860600Y-121234600D03*
D16*
X180860600Y-118694600D03*
X180860600Y-116154600D03*
%TD*%
D19*
%TO.C,JP19*%
X181267000Y-88931200D03*
X181267000Y-86391200D03*
%TD*%
D12*
%TO.C,H4*%
X157000000Y-133000000D03*
%TD*%
D15*
%TO.C,BT2*%
X144159545Y-83661945D03*
D16*
X144159545Y-86201945D03*
%TD*%
D20*
%TO.C,U4*%
X136187500Y-113912500D03*
X150187500Y-113912500D03*
X136187500Y-90912500D03*
X150187500Y-90912500D03*
X138727500Y-90912500D03*
X147647500Y-90912500D03*
%TD*%
D11*
%TO.C,TP2*%
X160900000Y-119700000D03*
%TD*%
D21*
%TO.C,SW1*%
X165750000Y-132750000D03*
X170250000Y-132750000D03*
D22*
X164500000Y-130250000D03*
X171500000Y-130250000D03*
%TD*%
D23*
%TO.C,D27*%
X170250000Y-80837500D03*
X168350000Y-80837500D03*
X169300000Y-78962500D03*
%TD*%
D24*
%TO.C,R25*%
X174500000Y-77000000D03*
X174500000Y-78650000D03*
%TD*%
D25*
%TO.C,D19*%
X205242400Y-121975000D03*
X205242400Y-125275000D03*
X200342400Y-125275000D03*
X200342400Y-121975000D03*
%TD*%
D26*
%TO.C,D26*%
X168050000Y-71762500D03*
X169950000Y-71762500D03*
X169000000Y-73637500D03*
%TD*%
D27*
%TO.C,D7*%
X200342400Y-79998200D03*
X200342400Y-76698200D03*
X205242400Y-76698200D03*
X205242400Y-79998200D03*
%TD*%
D28*
%TO.C,JP1*%
X203517400Y-78348200D03*
D29*
X202067400Y-78348200D03*
%TD*%
D30*
%TO.C,JP15*%
X202067400Y-123625000D03*
D31*
X203517400Y-123625000D03*
%TD*%
M02*
