%TF.GenerationSoftware,KiCad,Pcbnew,8.0.7*%
%TF.CreationDate,2025-02-05T21:47:27-05:00*%
%TF.ProjectId,SHERPENT20250113,53484552-5045-44e5-9432-303235303131,rev?*%
%TF.SameCoordinates,Original*%
%TF.FileFunction,Copper,L1,Top*%
%TF.FilePolarity,Positive*%
%FSLAX46Y46*%
G04 Gerber Fmt 4.6, Leading zero omitted, Abs format (unit mm)*
G04 Created by KiCad (PCBNEW 8.0.7) date 2025-02-05 21:47:27*
%MOMM*%
%LPD*%
G01*
G04 APERTURE LIST*
G04 Aperture macros list*
%AMRoundRect*
0 Rectangle with rounded corners*
0 $1 Rounding radius*
0 $2 $3 $4 $5 $6 $7 $8 $9 X,Y pos of 4 corners*
0 Add a 4 corners polygon primitive as box body*
4,1,4,$2,$3,$4,$5,$6,$7,$8,$9,$2,$3,0*
0 Add four circle primitives for the rounded corners*
1,1,$1+$1,$2,$3*
1,1,$1+$1,$4,$5*
1,1,$1+$1,$6,$7*
1,1,$1+$1,$8,$9*
0 Add four rect primitives between the rounded corners*
20,1,$1+$1,$2,$3,$4,$5,0*
20,1,$1+$1,$4,$5,$6,$7,0*
20,1,$1+$1,$6,$7,$8,$9,0*
20,1,$1+$1,$8,$9,$2,$3,0*%
%AMRotRect*
0 Rectangle, with rotation*
0 The origin of the aperture is its center*
0 $1 length*
0 $2 width*
0 $3 Rotation angle, in degrees counterclockwise*
0 Add horizontal line*
21,1,$1,$2,0,0,$3*%
%AMFreePoly0*
4,1,6,1.000000,0.000000,0.500000,-0.750000,-0.500000,-0.750000,-0.500000,0.750000,0.500000,0.750000,1.000000,0.000000,1.000000,0.000000,$1*%
%AMFreePoly1*
4,1,6,0.500000,-0.750000,-0.650000,-0.750000,-0.150000,0.000000,-0.650000,0.750000,0.500000,0.750000,0.500000,-0.750000,0.500000,-0.750000,$1*%
%AMFreePoly2*
4,1,5,0.200000,-0.625000,-0.200000,-0.625000,-0.200000,0.625000,0.200000,0.625000,0.200000,-0.625000,0.200000,-0.625000,$1*%
%AMFreePoly3*
4,1,5,0.200000,-0.725000,-0.200000,-0.725000,-0.200000,0.725000,0.200000,0.725000,0.200000,-0.725000,0.200000,-0.725000,$1*%
G04 Aperture macros list end*
%TA.AperFunction,EtchedComponent*%
%ADD10C,0.010000*%
%TD*%
%TA.AperFunction,SMDPad,CuDef*%
%ADD11RoundRect,0.160000X-0.026517X-0.252791X0.252791X0.026517X0.026517X0.252791X-0.252791X-0.026517X0*%
%TD*%
%TA.AperFunction,SMDPad,CuDef*%
%ADD12RoundRect,0.090000X-0.660000X-0.360000X0.660000X-0.360000X0.660000X0.360000X-0.660000X0.360000X0*%
%TD*%
%TA.AperFunction,SMDPad,CuDef*%
%ADD13RoundRect,0.237500X-0.300000X-0.237500X0.300000X-0.237500X0.300000X0.237500X-0.300000X0.237500X0*%
%TD*%
%TA.AperFunction,SMDPad,CuDef*%
%ADD14FreePoly0,180.000000*%
%TD*%
%TA.AperFunction,SMDPad,CuDef*%
%ADD15FreePoly1,180.000000*%
%TD*%
%TA.AperFunction,SMDPad,CuDef*%
%ADD16RoundRect,0.237500X0.237500X-0.287500X0.237500X0.287500X-0.237500X0.287500X-0.237500X-0.287500X0*%
%TD*%
%TA.AperFunction,SMDPad,CuDef*%
%ADD17RoundRect,0.200000X0.275000X-0.200000X0.275000X0.200000X-0.275000X0.200000X-0.275000X-0.200000X0*%
%TD*%
%TA.AperFunction,SMDPad,CuDef*%
%ADD18RoundRect,0.150000X-0.150000X0.587500X-0.150000X-0.587500X0.150000X-0.587500X0.150000X0.587500X0*%
%TD*%
%TA.AperFunction,SMDPad,CuDef*%
%ADD19RoundRect,0.155000X0.212500X0.155000X-0.212500X0.155000X-0.212500X-0.155000X0.212500X-0.155000X0*%
%TD*%
%TA.AperFunction,SMDPad,CuDef*%
%ADD20RoundRect,0.237500X0.237500X-0.300000X0.237500X0.300000X-0.237500X0.300000X-0.237500X-0.300000X0*%
%TD*%
%TA.AperFunction,SMDPad,CuDef*%
%ADD21FreePoly0,0.000000*%
%TD*%
%TA.AperFunction,SMDPad,CuDef*%
%ADD22FreePoly1,0.000000*%
%TD*%
%TA.AperFunction,SMDPad,CuDef*%
%ADD23RoundRect,0.237500X0.300000X0.237500X-0.300000X0.237500X-0.300000X-0.237500X0.300000X-0.237500X0*%
%TD*%
%TA.AperFunction,SMDPad,CuDef*%
%ADD24RoundRect,0.200000X0.200000X0.275000X-0.200000X0.275000X-0.200000X-0.275000X0.200000X-0.275000X0*%
%TD*%
%TA.AperFunction,SMDPad,CuDef*%
%ADD25RoundRect,0.200000X-0.200000X-0.275000X0.200000X-0.275000X0.200000X0.275000X-0.200000X0.275000X0*%
%TD*%
%TA.AperFunction,SMDPad,CuDef*%
%ADD26RoundRect,0.155000X-0.212500X-0.155000X0.212500X-0.155000X0.212500X0.155000X-0.212500X0.155000X0*%
%TD*%
%TA.AperFunction,SMDPad,CuDef*%
%ADD27RoundRect,0.155000X-0.155000X0.212500X-0.155000X-0.212500X0.155000X-0.212500X0.155000X0.212500X0*%
%TD*%
%TA.AperFunction,ComponentPad*%
%ADD28C,3.000000*%
%TD*%
%TA.AperFunction,SMDPad,CuDef*%
%ADD29RoundRect,0.200000X-0.275000X0.200000X-0.275000X-0.200000X0.275000X-0.200000X0.275000X0.200000X0*%
%TD*%
%TA.AperFunction,SMDPad,CuDef*%
%ADD30RoundRect,0.090000X0.660000X0.360000X-0.660000X0.360000X-0.660000X-0.360000X0.660000X-0.360000X0*%
%TD*%
%TA.AperFunction,SMDPad,CuDef*%
%ADD31RoundRect,0.160000X-0.160000X0.222500X-0.160000X-0.222500X0.160000X-0.222500X0.160000X0.222500X0*%
%TD*%
%TA.AperFunction,SMDPad,CuDef*%
%ADD32RoundRect,0.218750X0.218750X0.256250X-0.218750X0.256250X-0.218750X-0.256250X0.218750X-0.256250X0*%
%TD*%
%TA.AperFunction,SMDPad,CuDef*%
%ADD33RoundRect,0.010000X-0.445000X-0.445000X0.445000X-0.445000X0.445000X0.445000X-0.445000X0.445000X0*%
%TD*%
%TA.AperFunction,SMDPad,CuDef*%
%ADD34RoundRect,0.010190X-0.244810X-0.244810X0.244810X-0.244810X0.244810X0.244810X-0.244810X0.244810X0*%
%TD*%
%TA.AperFunction,ComponentPad*%
%ADD35R,1.600000X1.600000*%
%TD*%
%TA.AperFunction,ComponentPad*%
%ADD36C,1.600000*%
%TD*%
%TA.AperFunction,SMDPad,CuDef*%
%ADD37RoundRect,0.155000X0.040659X0.259862X-0.259862X-0.040659X-0.040659X-0.259862X0.259862X0.040659X0*%
%TD*%
%TA.AperFunction,SMDPad,CuDef*%
%ADD38RoundRect,0.237500X-0.237500X0.300000X-0.237500X-0.300000X0.237500X-0.300000X0.237500X0.300000X0*%
%TD*%
%TA.AperFunction,SMDPad,CuDef*%
%ADD39RoundRect,0.150000X-0.587500X-0.150000X0.587500X-0.150000X0.587500X0.150000X-0.587500X0.150000X0*%
%TD*%
%TA.AperFunction,SMDPad,CuDef*%
%ADD40RoundRect,0.237500X0.250000X0.237500X-0.250000X0.237500X-0.250000X-0.237500X0.250000X-0.237500X0*%
%TD*%
%TA.AperFunction,ComponentPad*%
%ADD41R,1.700000X1.700000*%
%TD*%
%TA.AperFunction,ComponentPad*%
%ADD42O,1.700000X1.700000*%
%TD*%
%TA.AperFunction,SMDPad,CuDef*%
%ADD43RoundRect,0.218750X-0.218750X-0.256250X0.218750X-0.256250X0.218750X0.256250X-0.218750X0.256250X0*%
%TD*%
%TA.AperFunction,SMDPad,CuDef*%
%ADD44RoundRect,0.237500X0.287500X0.237500X-0.287500X0.237500X-0.287500X-0.237500X0.287500X-0.237500X0*%
%TD*%
%TA.AperFunction,SMDPad,CuDef*%
%ADD45R,0.575000X0.250000*%
%TD*%
%TA.AperFunction,SMDPad,CuDef*%
%ADD46R,0.225000X0.700000*%
%TD*%
%TA.AperFunction,SMDPad,CuDef*%
%ADD47R,0.549999X0.249999*%
%TD*%
%TA.AperFunction,SMDPad,CuDef*%
%ADD48FreePoly2,90.000000*%
%TD*%
%TA.AperFunction,SMDPad,CuDef*%
%ADD49FreePoly3,180.000000*%
%TD*%
%TA.AperFunction,SMDPad,CuDef*%
%ADD50R,0.399999X1.000000*%
%TD*%
%TA.AperFunction,SMDPad,CuDef*%
%ADD51FreePoly2,270.000000*%
%TD*%
%TA.AperFunction,SMDPad,CuDef*%
%ADD52R,0.249999X0.549999*%
%TD*%
%TA.AperFunction,SMDPad,CuDef*%
%ADD53RoundRect,0.375000X0.375000X-0.625000X0.375000X0.625000X-0.375000X0.625000X-0.375000X-0.625000X0*%
%TD*%
%TA.AperFunction,SMDPad,CuDef*%
%ADD54RoundRect,0.500000X1.400000X-0.500000X1.400000X0.500000X-1.400000X0.500000X-1.400000X-0.500000X0*%
%TD*%
%TA.AperFunction,SMDPad,CuDef*%
%ADD55R,0.889000X1.803400*%
%TD*%
%TA.AperFunction,SMDPad,CuDef*%
%ADD56RoundRect,0.237500X-0.237500X0.287500X-0.237500X-0.287500X0.237500X-0.287500X0.237500X0.287500X0*%
%TD*%
%TA.AperFunction,ComponentPad*%
%ADD57C,0.648000*%
%TD*%
%TA.AperFunction,ComponentPad*%
%ADD58O,1.300000X2.500000*%
%TD*%
%TA.AperFunction,ComponentPad*%
%ADD59O,1.300000X3.200000*%
%TD*%
%TA.AperFunction,SMDPad,CuDef*%
%ADD60RoundRect,0.237500X0.237500X-0.250000X0.237500X0.250000X-0.237500X0.250000X-0.237500X-0.250000X0*%
%TD*%
%TA.AperFunction,ComponentPad*%
%ADD61C,1.400000*%
%TD*%
%TA.AperFunction,SMDPad,CuDef*%
%ADD62RotRect,0.838200X0.533400X225.000000*%
%TD*%
%TA.AperFunction,SMDPad,CuDef*%
%ADD63RoundRect,0.150000X0.150000X-0.587500X0.150000X0.587500X-0.150000X0.587500X-0.150000X-0.587500X0*%
%TD*%
%TA.AperFunction,SMDPad,CuDef*%
%ADD64RoundRect,0.218750X0.256250X-0.218750X0.256250X0.218750X-0.256250X0.218750X-0.256250X-0.218750X0*%
%TD*%
%TA.AperFunction,SMDPad,CuDef*%
%ADD65R,0.254000X0.660400*%
%TD*%
%TA.AperFunction,SMDPad,CuDef*%
%ADD66R,0.660400X0.254000*%
%TD*%
%TA.AperFunction,SMDPad,CuDef*%
%ADD67R,3.759200X3.759200*%
%TD*%
%TA.AperFunction,SMDPad,CuDef*%
%ADD68R,1.270000X0.558800*%
%TD*%
%TA.AperFunction,SMDPad,CuDef*%
%ADD69RoundRect,0.155000X-0.259862X0.040659X0.040659X-0.259862X0.259862X-0.040659X-0.040659X0.259862X0*%
%TD*%
%TA.AperFunction,ComponentPad*%
%ADD70R,2.000000X2.000000*%
%TD*%
%TA.AperFunction,ComponentPad*%
%ADD71C,1.700000*%
%TD*%
%TA.AperFunction,ComponentPad*%
%ADD72C,2.000000*%
%TD*%
%TA.AperFunction,ViaPad*%
%ADD73C,1.000000*%
%TD*%
%TA.AperFunction,ViaPad*%
%ADD74C,0.800000*%
%TD*%
%TA.AperFunction,ViaPad*%
%ADD75C,0.700000*%
%TD*%
%TA.AperFunction,ViaPad*%
%ADD76C,0.450000*%
%TD*%
%TA.AperFunction,ViaPad*%
%ADD77C,0.500000*%
%TD*%
%TA.AperFunction,ViaPad*%
%ADD78C,0.600000*%
%TD*%
%TA.AperFunction,Conductor*%
%ADD79C,0.450000*%
%TD*%
%TA.AperFunction,Conductor*%
%ADD80C,0.160000*%
%TD*%
%TA.AperFunction,Conductor*%
%ADD81C,0.300000*%
%TD*%
%TA.AperFunction,Conductor*%
%ADD82C,1.000000*%
%TD*%
%TA.AperFunction,Conductor*%
%ADD83C,0.200000*%
%TD*%
G04 APERTURE END LIST*
%TO.C,U6*%
D10*
X187603150Y-70188800D02*
X188103150Y-70188800D01*
X188103150Y-74128800D01*
X187603150Y-74128800D01*
X187603150Y-70188800D01*
%TA.AperFunction,EtchedComponent*%
G36*
X187603150Y-70188800D02*
G01*
X188103150Y-70188800D01*
X188103150Y-74128800D01*
X187603150Y-74128800D01*
X187603150Y-70188800D01*
G37*
%TD.AperFunction*%
X189803150Y-70188800D02*
X190303150Y-70188800D01*
X190303150Y-72828800D01*
X189803150Y-72828800D01*
X189803150Y-70188800D01*
%TA.AperFunction,EtchedComponent*%
G36*
X189803150Y-70188800D02*
G01*
X190303150Y-70188800D01*
X190303150Y-72828800D01*
X189803150Y-72828800D01*
X189803150Y-70188800D01*
G37*
%TD.AperFunction*%
X190303150Y-70188800D02*
X187603150Y-70188800D01*
X187603150Y-69688800D01*
X190303150Y-69688800D01*
X190303150Y-70188800D01*
%TA.AperFunction,EtchedComponent*%
G36*
X190303150Y-70188800D02*
G01*
X187603150Y-70188800D01*
X187603150Y-69688800D01*
X190303150Y-69688800D01*
X190303150Y-70188800D01*
G37*
%TD.AperFunction*%
X192303150Y-70188800D02*
X192803150Y-70188800D01*
X192803150Y-72828800D01*
X192303150Y-72828800D01*
X192303150Y-70188800D01*
%TA.AperFunction,EtchedComponent*%
G36*
X192303150Y-70188800D02*
G01*
X192803150Y-70188800D01*
X192803150Y-72828800D01*
X192303150Y-72828800D01*
X192303150Y-70188800D01*
G37*
%TD.AperFunction*%
X192303150Y-72828800D02*
X190303150Y-72828800D01*
X190303150Y-72328800D01*
X192303150Y-72328800D01*
X192303150Y-72828800D01*
%TA.AperFunction,EtchedComponent*%
G36*
X192303150Y-72828800D02*
G01*
X190303150Y-72828800D01*
X190303150Y-72328800D01*
X192303150Y-72328800D01*
X192303150Y-72828800D01*
G37*
%TD.AperFunction*%
X194503150Y-70188800D02*
X195003150Y-70188800D01*
X195003150Y-72828800D01*
X194503150Y-72828800D01*
X194503150Y-70188800D01*
%TA.AperFunction,EtchedComponent*%
G36*
X194503150Y-70188800D02*
G01*
X195003150Y-70188800D01*
X195003150Y-72828800D01*
X194503150Y-72828800D01*
X194503150Y-70188800D01*
G37*
%TD.AperFunction*%
X195003150Y-70188800D02*
X192303150Y-70188800D01*
X192303150Y-69688800D01*
X195003150Y-69688800D01*
X195003150Y-70188800D01*
%TA.AperFunction,EtchedComponent*%
G36*
X195003150Y-70188800D02*
G01*
X192303150Y-70188800D01*
X192303150Y-69688800D01*
X195003150Y-69688800D01*
X195003150Y-70188800D01*
G37*
%TD.AperFunction*%
X197003150Y-70188800D02*
X197503150Y-70188800D01*
X197503150Y-72828800D01*
X197003150Y-72828800D01*
X197003150Y-70188800D01*
%TA.AperFunction,EtchedComponent*%
G36*
X197003150Y-70188800D02*
G01*
X197503150Y-70188800D01*
X197503150Y-72828800D01*
X197003150Y-72828800D01*
X197003150Y-70188800D01*
G37*
%TD.AperFunction*%
X197003150Y-72828800D02*
X195003150Y-72828800D01*
X195003150Y-72328800D01*
X197003150Y-72328800D01*
X197003150Y-72828800D01*
%TA.AperFunction,EtchedComponent*%
G36*
X197003150Y-72828800D02*
G01*
X195003150Y-72828800D01*
X195003150Y-72328800D01*
X197003150Y-72328800D01*
X197003150Y-72828800D01*
G37*
%TD.AperFunction*%
X199703150Y-70188800D02*
X199203150Y-70188800D01*
X199203150Y-74608800D01*
X199703150Y-74608800D01*
X199703150Y-70188800D01*
%TA.AperFunction,EtchedComponent*%
G36*
X199703150Y-70188800D02*
G01*
X199203150Y-70188800D01*
X199203150Y-74608800D01*
X199703150Y-74608800D01*
X199703150Y-70188800D01*
G37*
%TD.AperFunction*%
X202003150Y-70188800D02*
X197003150Y-70188800D01*
X197003150Y-69688800D01*
X202003150Y-69688800D01*
X202003150Y-70188800D01*
%TA.AperFunction,EtchedComponent*%
G36*
X202003150Y-70188800D02*
G01*
X197003150Y-70188800D01*
X197003150Y-69688800D01*
X202003150Y-69688800D01*
X202003150Y-70188800D01*
G37*
%TD.AperFunction*%
X202003150Y-74218800D02*
X201103150Y-74218800D01*
X201103150Y-70188800D01*
X202003150Y-70188800D01*
X202003150Y-74218800D01*
%TA.AperFunction,EtchedComponent*%
G36*
X202003150Y-74218800D02*
G01*
X201103150Y-74218800D01*
X201103150Y-70188800D01*
X202003150Y-70188800D01*
X202003150Y-74218800D01*
G37*
%TD.AperFunction*%
%TD*%
D11*
%TO.P,R24,1*%
%TO.N,Net-(U7-XTAL_P)*%
X201697904Y-81563696D03*
%TO.P,R24,2*%
%TO.N,Net-(C27-Pad1)*%
X202542896Y-80718704D03*
%TD*%
D12*
%TO.P,D9,1,VDD*%
%TO.N,+9V*%
X145517600Y-74347200D03*
%TO.P,D9,2,DOUT*%
%TO.N,Net-(D10-DIN)*%
X145517600Y-77647200D03*
%TO.P,D9,3,VSS*%
%TO.N,GND*%
X150417600Y-77647200D03*
%TO.P,D9,4,DIN*%
%TO.N,Net-(D8-DOUT)*%
X150417600Y-74347200D03*
%TD*%
D13*
%TO.P,C12,1*%
%TO.N,Net-(U2-COMP)*%
X166007988Y-102196888D03*
%TO.P,C12,2*%
%TO.N,GND*%
X167732988Y-102196888D03*
%TD*%
D14*
%TO.P,JP2,1,A*%
%TO.N,Net-(D7-DOUT)*%
X181585600Y-80010400D03*
D15*
%TO.P,JP2,2,B*%
%TO.N,Net-(D8-DOUT)*%
X180135600Y-80010400D03*
%TD*%
D16*
%TO.P,D2,1,K*%
%TO.N,Net-(D2-K)*%
X162344000Y-110781200D03*
%TO.P,D2,2,A*%
%TO.N,Net-(D2-A)*%
X162344000Y-109031200D03*
%TD*%
D12*
%TO.P,D8,1,VDD*%
%TO.N,+9V*%
X178410600Y-78360400D03*
%TO.P,D8,2,DOUT*%
%TO.N,Net-(D8-DOUT)*%
X178410600Y-81660400D03*
%TO.P,D8,3,VSS*%
%TO.N,GND*%
X183310600Y-81660400D03*
%TO.P,D8,4,DIN*%
%TO.N,Net-(D7-DOUT)*%
X183310600Y-78360400D03*
%TD*%
D17*
%TO.P,R9,1*%
%TO.N,Net-(Q4-D)*%
X157492600Y-103987088D03*
%TO.P,R9,2*%
%TO.N,GND*%
X157492600Y-102337088D03*
%TD*%
D18*
%TO.P,Q4,1,D*%
%TO.N,Net-(Q4-D)*%
X167596600Y-109426100D03*
%TO.P,Q4,2,G*%
%TO.N,Net-(D2-A)*%
X165696600Y-109426100D03*
%TO.P,Q4,3,S*%
%TO.N,Net-(D29-K)*%
X166646600Y-111301100D03*
%TD*%
D16*
%TO.P,D3,1,K*%
%TO.N,Net-(D3-K)*%
X157835545Y-85781945D03*
%TO.P,D3,2,A*%
%TO.N,Net-(D3-A)*%
X157835545Y-84031945D03*
%TD*%
D19*
%TO.P,C25,1*%
%TO.N,Net-(C25-Pad1)*%
X198376300Y-79196900D03*
%TO.P,C25,2*%
%TO.N,GND*%
X197241300Y-79196900D03*
%TD*%
D13*
%TO.P,C3,1*%
%TO.N,Net-(D29-K)*%
X162699600Y-106807400D03*
%TO.P,C3,2*%
%TO.N,GND*%
X164424600Y-106807400D03*
%TD*%
D20*
%TO.P,C4,1*%
%TO.N,/VUSB*%
X161899545Y-89813700D03*
%TO.P,C4,2*%
%TO.N,GND*%
X161899545Y-88088700D03*
%TD*%
D21*
%TO.P,JP17,1,A*%
%TO.N,Net-(D16-DOUT)*%
X147275000Y-129998600D03*
D22*
%TO.P,JP17,2,B*%
%TO.N,Net-(D17-DOUT)*%
X148725000Y-129998600D03*
%TD*%
D23*
%TO.P,C5,1*%
%TO.N,Net-(C5-Pad1)*%
X161123700Y-104445200D03*
%TO.P,C5,2*%
%TO.N,Net-(U2-BST)*%
X159398700Y-104445200D03*
%TD*%
D13*
%TO.P,C29,1*%
%TO.N,+9V*%
X191637500Y-126800000D03*
%TO.P,C29,2*%
%TO.N,GND*%
X193362500Y-126800000D03*
%TD*%
D24*
%TO.P,R2,1*%
%TO.N,GND*%
X153974200Y-87274800D03*
%TO.P,R2,2*%
%TO.N,/CHARGE*%
X152324200Y-87274800D03*
%TD*%
D25*
%TO.P,R18,1*%
%TO.N,/B-*%
X148050000Y-94000000D03*
%TO.P,R18,2*%
%TO.N,GND*%
X149700000Y-94000000D03*
%TD*%
D26*
%TO.P,C16,1*%
%TO.N,Net-(U6-FP)*%
X199485200Y-75945700D03*
%TO.P,C16,2*%
%TO.N,GND*%
X200620200Y-75945700D03*
%TD*%
D27*
%TO.P,C23,1*%
%TO.N,+3.3V*%
X197402400Y-76995100D03*
%TO.P,C23,2*%
%TO.N,GND*%
X197402400Y-78130100D03*
%TD*%
D28*
%TO.P,TP1,1,1*%
%TO.N,/VBATT*%
X154927200Y-80467600D03*
%TD*%
D29*
%TO.P,R10,1*%
%TO.N,Net-(J1-CC2)*%
X175000000Y-81500000D03*
%TO.P,R10,2*%
%TO.N,GND*%
X175000000Y-83150000D03*
%TD*%
D21*
%TO.P,JP18,1,A*%
%TO.N,/NEO_Row2*%
X137191400Y-120578000D03*
D22*
%TO.P,JP18,2,B*%
%TO.N,Net-(D16-DOUT)*%
X138641400Y-120578000D03*
%TD*%
D30*
%TO.P,D17,1,VDD*%
%TO.N,+9V*%
X150450000Y-131648600D03*
%TO.P,D17,2,DOUT*%
%TO.N,Net-(D17-DOUT)*%
X150450000Y-128348600D03*
%TO.P,D17,3,VSS*%
%TO.N,GND*%
X145550000Y-128348600D03*
%TO.P,D17,4,DIN*%
%TO.N,Net-(D16-DOUT)*%
X145550000Y-131648600D03*
%TD*%
D12*
%TO.P,D10,1,VDD*%
%TO.N,+9V*%
X135466400Y-83512800D03*
%TO.P,D10,2,DOUT*%
%TO.N,/NEO_Row2*%
X135466400Y-86812800D03*
%TO.P,D10,3,VSS*%
%TO.N,GND*%
X140366400Y-86812800D03*
%TO.P,D10,4,DIN*%
%TO.N,Net-(D10-DIN)*%
X140366400Y-83512800D03*
%TD*%
D24*
%TO.P,R1,1*%
%TO.N,+3.3V*%
X182475000Y-84100000D03*
%TO.P,R1,2*%
%TO.N,/Button*%
X180825000Y-84100000D03*
%TD*%
D25*
%TO.P,R26,1*%
%TO.N,Net-(D29-K)*%
X155829400Y-105435800D03*
%TO.P,R26,2*%
%TO.N,Net-(Q4-D)*%
X157479400Y-105435800D03*
%TD*%
D16*
%TO.P,D6,1,K*%
%TO.N,GND*%
X187261400Y-86599600D03*
%TO.P,D6,2,A*%
%TO.N,Net-(D6-A)*%
X187261400Y-84849600D03*
%TD*%
D31*
%TO.P,L2,1,1*%
%TO.N,Net-(U6-FP)*%
X199434400Y-76998800D03*
%TO.P,L2,2,2*%
%TO.N,Net-(U7-LNA_IN)*%
X199434400Y-78143800D03*
%TD*%
D25*
%TO.P,R13,1*%
%TO.N,Net-(U2-FB)*%
X165890888Y-103720888D03*
%TO.P,R13,2*%
%TO.N,GND*%
X167540888Y-103720888D03*
%TD*%
%TO.P,R11,1*%
%TO.N,Net-(U2-COMP)*%
X165891988Y-100647488D03*
%TO.P,R11,2*%
%TO.N,Net-(C11-Pad1)*%
X167541988Y-100647488D03*
%TD*%
D14*
%TO.P,JP4,1,A*%
%TO.N,Net-(D10-DIN)*%
X138641400Y-85162800D03*
D15*
%TO.P,JP4,2,B*%
%TO.N,/NEO_Row2*%
X137191400Y-85162800D03*
%TD*%
D23*
%TO.P,C14,1*%
%TO.N,/VUSB*%
X166162500Y-81800000D03*
%TO.P,C14,2*%
%TO.N,GND*%
X164437500Y-81800000D03*
%TD*%
D28*
%TO.P,TP7,1,1*%
%TO.N,+9V*%
X158153000Y-95148800D03*
%TD*%
D20*
%TO.P,C11,1*%
%TO.N,Net-(C11-Pad1)*%
X167478988Y-99070488D03*
%TO.P,C11,2*%
%TO.N,GND*%
X167478988Y-97345488D03*
%TD*%
D17*
%TO.P,R14,1*%
%TO.N,Net-(D3-K)*%
X156070200Y-85673600D03*
%TO.P,R14,2*%
%TO.N,/VUSB*%
X156070200Y-84023600D03*
%TD*%
D32*
%TO.P,F3,1*%
%TO.N,Net-(BT1-+)*%
X149287500Y-81000000D03*
%TO.P,F3,2*%
%TO.N,/VBATT*%
X147712500Y-81000000D03*
%TD*%
D19*
%TO.P,C20,1*%
%TO.N,+3.3V*%
X198401700Y-75945700D03*
%TO.P,C20,2*%
%TO.N,GND*%
X197266700Y-75945700D03*
%TD*%
D31*
%TO.P,L3,1,1*%
%TO.N,+3.3V*%
X198418400Y-76998800D03*
%TO.P,L3,2,2*%
%TO.N,Net-(C25-Pad1)*%
X198418400Y-78143800D03*
%TD*%
D24*
%TO.P,R20,1*%
%TO.N,Net-(U7-GPIO9)*%
X186625000Y-83198600D03*
%TO.P,R20,2*%
%TO.N,+3.3V*%
X184975000Y-83198600D03*
%TD*%
D20*
%TO.P,C30,1*%
%TO.N,GND*%
X161898200Y-93216900D03*
%TO.P,C30,2*%
%TO.N,+3.3V*%
X161898200Y-91491900D03*
%TD*%
D33*
%TO.P,U6,1,GND*%
%TO.N,GND*%
X201553150Y-74638800D03*
D34*
%TO.P,U6,2,FP*%
%TO.N,Net-(U6-FP)*%
X199453400Y-74838550D03*
%TD*%
D35*
%TO.P,C8,1*%
%TO.N,+9V*%
X171800000Y-119255113D03*
D36*
%TO.P,C8,2*%
%TO.N,GND*%
X171800000Y-117255113D03*
%TD*%
D24*
%TO.P,R17,1*%
%TO.N,Net-(U7-GPIO2)*%
X186625000Y-79845800D03*
%TO.P,R17,2*%
%TO.N,+3.3V*%
X184975000Y-79845800D03*
%TD*%
D28*
%TO.P,NEO-END1,1,1*%
%TO.N,Net-(D19-DOUT)*%
X202857000Y-129235600D03*
%TD*%
D30*
%TO.P,D16,1,VDD*%
%TO.N,+9V*%
X140366400Y-122228000D03*
%TO.P,D16,2,DOUT*%
%TO.N,Net-(D16-DOUT)*%
X140366400Y-118928000D03*
%TO.P,D16,3,VSS*%
%TO.N,GND*%
X135466400Y-118928000D03*
%TO.P,D16,4,DIN*%
%TO.N,/NEO_Row2*%
X135466400Y-122228000D03*
%TD*%
D28*
%TO.P,TP4,1,1*%
%TO.N,+3.3V*%
X174200000Y-86200000D03*
%TD*%
D37*
%TO.P,C28,1*%
%TO.N,GND*%
X204121655Y-83443817D03*
%TO.P,C28,2*%
%TO.N,Net-(U7-XTAL_N)*%
X203319089Y-84246383D03*
%TD*%
D17*
%TO.P,R22,1*%
%TO.N,Net-(U7-CHIP_EN)*%
X194800000Y-77925000D03*
%TO.P,R22,2*%
%TO.N,+3.3V*%
X194800000Y-76275000D03*
%TD*%
D38*
%TO.P,C10,1*%
%TO.N,+9V*%
X152300000Y-121237500D03*
%TO.P,C10,2*%
%TO.N,GND*%
X152300000Y-122962500D03*
%TD*%
D39*
%TO.P,Q3,1,D*%
%TO.N,Net-(D2-A)*%
X158609100Y-109713600D03*
%TO.P,Q3,2,G*%
%TO.N,Net-(D1-K)*%
X158609100Y-111613600D03*
%TO.P,Q3,3,S*%
%TO.N,GND*%
X160484100Y-110663600D03*
%TD*%
D14*
%TO.P,JP3,1,A*%
%TO.N,Net-(D8-DOUT)*%
X148692600Y-75997200D03*
D15*
%TO.P,JP3,2,B*%
%TO.N,Net-(D10-DIN)*%
X147242600Y-75997200D03*
%TD*%
D23*
%TO.P,C15,1*%
%TO.N,+9V*%
X169785100Y-95301200D03*
%TO.P,C15,2*%
%TO.N,GND*%
X168060100Y-95301200D03*
%TD*%
D20*
%TO.P,C1,1*%
%TO.N,/VBATT*%
X155587600Y-89966100D03*
%TO.P,C1,2*%
%TO.N,GND*%
X155587600Y-88241100D03*
%TD*%
D13*
%TO.P,C21,1*%
%TO.N,GND*%
X163437500Y-126800000D03*
%TO.P,C21,2*%
%TO.N,Net-(D2-K)*%
X165162500Y-126800000D03*
%TD*%
D29*
%TO.P,R5,1*%
%TO.N,Net-(D1-K)*%
X159946600Y-114838600D03*
%TO.P,R5,2*%
%TO.N,GND*%
X159946600Y-116488600D03*
%TD*%
D40*
%TO.P,D28,1,K*%
%TO.N,/VUSB*%
X166212500Y-80100000D03*
%TO.P,D28,2,A*%
%TO.N,GND*%
X164387500Y-80100000D03*
%TD*%
D41*
%TO.P,J2,1,Pin_1*%
%TO.N,/Moteur1_PWM*%
X149600000Y-118175000D03*
D42*
%TO.P,J2,2,Pin_2*%
%TO.N,+9V*%
X149600000Y-120715000D03*
%TO.P,J2,3,Pin_3*%
%TO.N,GND*%
X149600000Y-123255000D03*
%TD*%
D25*
%TO.P,R7,1*%
%TO.N,Net-(D3-A)*%
X159601345Y-84017945D03*
%TO.P,R7,2*%
%TO.N,/VUSB*%
X161251345Y-84017945D03*
%TD*%
D43*
%TO.P,F2,1*%
%TO.N,Net-(BT2-+)*%
X144212500Y-81000000D03*
%TO.P,F2,2*%
%TO.N,/VBATT*%
X145787500Y-81000000D03*
%TD*%
D20*
%TO.P,C26,1*%
%TO.N,Net-(U7-CHIP_EN)*%
X192910350Y-77862500D03*
%TO.P,C26,2*%
%TO.N,GND*%
X192910350Y-76137500D03*
%TD*%
D41*
%TO.P,BT1,1,+*%
%TO.N,Net-(BT1-+)*%
X149053945Y-83687345D03*
D42*
%TO.P,BT1,2,-*%
%TO.N,/B-*%
X149053945Y-86227345D03*
%TD*%
D25*
%TO.P,R16,1*%
%TO.N,+3.3V*%
X184974000Y-81534900D03*
%TO.P,R16,2*%
%TO.N,Net-(U7-GPIO8)*%
X186624000Y-81534900D03*
%TD*%
D44*
%TO.P,D29,1,K*%
%TO.N,Net-(D29-K)*%
X157427800Y-107036000D03*
%TO.P,D29,2,A*%
%TO.N,/VBATT*%
X155677800Y-107036000D03*
%TD*%
D17*
%TO.P,R6,1*%
%TO.N,Net-(D29-K)*%
X163946600Y-110688600D03*
%TO.P,R6,2*%
%TO.N,Net-(D2-A)*%
X163946600Y-109038600D03*
%TD*%
D45*
%TO.P,U2,1,FB*%
%TO.N,Net-(U2-FB)*%
X163456213Y-102791213D03*
D46*
X163281213Y-103016213D03*
D47*
%TO.P,U2,2,COMP*%
%TO.N,Net-(U2-COMP)*%
X163468714Y-102291214D03*
D48*
%TO.P,U2,3,PGND*%
%TO.N,GND*%
X163118713Y-101716213D03*
D49*
X162693713Y-101191213D03*
D50*
%TO.P,U2,4,SW*%
%TO.N,Net-(C5-Pad1)*%
X162043713Y-101666213D03*
D49*
%TO.P,U2,5,VOUT*%
%TO.N,+9V*%
X161393713Y-101191213D03*
D51*
X160963713Y-101716213D03*
D47*
%TO.P,U2,6,EN*%
%TO.N,Net-(Q4-D)*%
X160618712Y-102291214D03*
D46*
%TO.P,U2,7,VIN*%
%TO.N,Net-(D29-K)*%
X160806213Y-103016213D03*
D45*
X160631213Y-102791213D03*
D52*
%TO.P,U2,8,BST*%
%TO.N,Net-(U2-BST)*%
X161293712Y-103091212D03*
%TO.P,U2,9,SW*%
%TO.N,Net-(C5-Pad1)*%
X161793713Y-103091212D03*
%TO.P,U2,10,AGND*%
%TO.N,GND*%
X162293713Y-103091212D03*
%TO.P,U2,11,VCC*%
%TO.N,Net-(U2-VCC)*%
X162793714Y-103091212D03*
%TD*%
D30*
%TO.P,D18,1,VDD*%
%TO.N,+9V*%
X183310600Y-127635400D03*
%TO.P,D18,2,DOUT*%
%TO.N,Net-(D18-DOUT)*%
X183310600Y-124335400D03*
%TO.P,D18,3,VSS*%
%TO.N,GND*%
X178410600Y-124335400D03*
%TO.P,D18,4,DIN*%
%TO.N,Net-(D17-DOUT)*%
X178410600Y-127635400D03*
%TD*%
D24*
%TO.P,R28,1*%
%TO.N,GND*%
X205333000Y-86551400D03*
%TO.P,R28,2*%
%TO.N,Net-(U7-U0RXD)*%
X203683000Y-86551400D03*
%TD*%
D20*
%TO.P,C9,1*%
%TO.N,+9V*%
X176700000Y-118862500D03*
%TO.P,C9,2*%
%TO.N,GND*%
X176700000Y-117137500D03*
%TD*%
D17*
%TO.P,R12,1*%
%TO.N,+9V*%
X158918088Y-99846888D03*
%TO.P,R12,2*%
%TO.N,Net-(U2-FB)*%
X158918088Y-98196888D03*
%TD*%
D18*
%TO.P,Q1,1,D*%
%TO.N,/Button*%
X163496600Y-114226100D03*
%TO.P,Q1,2,G*%
%TO.N,Net-(D2-K)*%
X161596600Y-114226100D03*
%TO.P,Q1,3,S*%
%TO.N,GND*%
X162546600Y-116101100D03*
%TD*%
D29*
%TO.P,R23,1*%
%TO.N,Net-(D6-A)*%
X189166400Y-84850600D03*
%TO.P,R23,2*%
%TO.N,Net-(U7-GPIO10)*%
X189166400Y-86500600D03*
%TD*%
D53*
%TO.P,U5,1,GND*%
%TO.N,GND*%
X164144800Y-93243800D03*
%TO.P,U5,2,VO*%
%TO.N,+3.3V*%
X166444800Y-93243800D03*
D54*
X166444800Y-86943800D03*
D53*
%TO.P,U5,3,VI*%
%TO.N,+9V*%
X168744800Y-93243800D03*
%TD*%
D13*
%TO.P,C13,1*%
%TO.N,+9V*%
X160667600Y-98908000D03*
%TO.P,C13,2*%
%TO.N,GND*%
X162392600Y-98908000D03*
%TD*%
%TO.P,C6,1*%
%TO.N,Net-(U2-VCC)*%
X166006888Y-105270288D03*
%TO.P,C6,2*%
%TO.N,GND*%
X167731888Y-105270288D03*
%TD*%
%TO.P,C19,1*%
%TO.N,+3.3V*%
X201975500Y-77726000D03*
%TO.P,C19,2*%
%TO.N,GND*%
X203700500Y-77726000D03*
%TD*%
D55*
%TO.P,SW2,1,1*%
%TO.N,GND*%
X186742902Y-77139500D03*
%TO.P,SW2,2,2*%
%TO.N,Net-(U7-CHIP_EN)*%
X190842898Y-77139500D03*
%TD*%
D56*
%TO.P,D25,1,K*%
%TO.N,Net-(D1-K)*%
X158046600Y-114988600D03*
%TO.P,D25,2,A*%
%TO.N,/VUSB*%
X158046600Y-116738600D03*
%TD*%
D13*
%TO.P,C2,1*%
%TO.N,Net-(D29-K)*%
X162700700Y-105283400D03*
%TO.P,C2,2*%
%TO.N,GND*%
X164425700Y-105283400D03*
%TD*%
D24*
%TO.P,R8,1*%
%TO.N,GND*%
X161251345Y-85821345D03*
%TO.P,R8,2*%
%TO.N,Net-(U1-PROG)*%
X159601345Y-85821345D03*
%TD*%
D25*
%TO.P,R21,1*%
%TO.N,GND*%
X188023400Y-83198600D03*
%TO.P,R21,2*%
%TO.N,Net-(U7-GPIO9)*%
X189673400Y-83198600D03*
%TD*%
D44*
%TO.P,D1,1,K*%
%TO.N,Net-(D1-K)*%
X159721600Y-113263600D03*
%TO.P,D1,2,A*%
%TO.N,/StayOn*%
X157971600Y-113263600D03*
%TD*%
D57*
%TO.P,J1,A1,GND1*%
%TO.N,GND*%
X171304800Y-76649200D03*
%TO.P,J1,A4,VBUS1*%
%TO.N,/VUSB*%
X170454800Y-76649200D03*
%TO.P,J1,A5,CC1*%
%TO.N,Net-(J1-CC1)*%
X169604800Y-76649200D03*
%TO.P,J1,A6,DA+*%
%TO.N,/USB_ESP32P*%
X168754800Y-76649200D03*
%TO.P,J1,A7,DA-*%
%TO.N,/USB_ESP32N*%
X167904800Y-76649200D03*
%TO.P,J1,A8,SBU1*%
%TO.N,unconnected-(J1-SBU1-PadA8)*%
X167054800Y-76649200D03*
%TO.P,J1,A9,VBUS2*%
%TO.N,/VUSB*%
X166204800Y-76649200D03*
%TO.P,J1,A12,GND2*%
%TO.N,GND*%
X165354800Y-76649200D03*
%TO.P,J1,B1,GND3*%
X165354800Y-75299200D03*
%TO.P,J1,B4,VBUS3*%
%TO.N,/VUSB*%
X166204800Y-75299200D03*
%TO.P,J1,B5,CC2*%
%TO.N,Net-(J1-CC2)*%
X167054800Y-75299200D03*
%TO.P,J1,B6,DB+*%
%TO.N,/USB_ESP32P*%
X167904800Y-75299200D03*
%TO.P,J1,B7,DB-*%
%TO.N,/USB_ESP32N*%
X168754800Y-75299200D03*
%TO.P,J1,B8,SBU2*%
%TO.N,unconnected-(J1-SBU2-PadB8)*%
X169604800Y-75299200D03*
%TO.P,J1,B9,VBUS4*%
%TO.N,/VUSB*%
X170454800Y-75299200D03*
%TO.P,J1,B12,GND4*%
%TO.N,GND*%
X171304800Y-75299200D03*
D58*
%TO.P,J1,SH1,SHIELD1*%
%TO.N,unconnected-(J1-SHIELD1-PadSH1)*%
X172649800Y-71999200D03*
%TO.P,J1,SH2,SHIELD2*%
%TO.N,unconnected-(J1-SHIELD2-PadSH2)*%
X164009800Y-71999200D03*
D59*
%TO.P,J1,SH3,SHIELD3*%
%TO.N,unconnected-(J1-SHIELD3-PadSH3)*%
X172649800Y-76149200D03*
%TO.P,J1,SH4,SHIELD4*%
%TO.N,unconnected-(J1-SHIELD4-PadSH4)*%
X164009800Y-76149200D03*
%TD*%
D35*
%TO.P,C7,1*%
%TO.N,+9V*%
X156200000Y-121144888D03*
D36*
%TO.P,C7,2*%
%TO.N,GND*%
X156200000Y-123144888D03*
%TD*%
D24*
%TO.P,R27,1*%
%TO.N,Net-(U7-U0RXD)*%
X202310400Y-86551400D03*
%TO.P,R27,2*%
%TO.N,/VBATT*%
X200660400Y-86551400D03*
%TD*%
D60*
%TO.P,D4,1,K*%
%TO.N,+3.3V*%
X177500000Y-85512500D03*
%TO.P,D4,2,A*%
%TO.N,GND*%
X177500000Y-83687500D03*
%TD*%
D41*
%TO.P,J3,1,Pin_1*%
%TO.N,/Moteur2_PWM*%
X180860600Y-121234600D03*
D42*
%TO.P,J3,2,Pin_2*%
%TO.N,+9V*%
X180860600Y-118694600D03*
%TO.P,J3,3,Pin_3*%
%TO.N,GND*%
X180860600Y-116154600D03*
%TD*%
D24*
%TO.P,R4,1*%
%TO.N,GND*%
X172025000Y-84100000D03*
%TO.P,R4,2*%
%TO.N,Net-(J1-CC1)*%
X170375000Y-84100000D03*
%TD*%
D61*
%TO.P,JP19,1,A*%
%TO.N,/VUSB*%
X181267000Y-88931200D03*
%TO.P,JP19,2,B*%
%TO.N,/VBATT*%
X181267000Y-86391200D03*
%TD*%
D62*
%TO.P,Y1,1,1*%
%TO.N,Net-(C27-Pad1)*%
X202997028Y-81631254D03*
%TO.P,Y1,2,2*%
%TO.N,GND*%
X201883477Y-82744805D03*
%TO.P,Y1,3,3*%
%TO.N,Net-(U7-XTAL_N)*%
X202678972Y-83540300D03*
%TO.P,Y1,4,4*%
%TO.N,GND*%
X203792523Y-82426749D03*
%TD*%
D63*
%TO.P,Q2,1,D*%
%TO.N,/CHARGE*%
X152265200Y-85491145D03*
%TO.P,Q2,2,G*%
%TO.N,Net-(D3-K)*%
X154165200Y-85491145D03*
%TO.P,Q2,3,S*%
%TO.N,+3.3V*%
X153215200Y-83616145D03*
%TD*%
D64*
%TO.P,L1,1,1*%
%TO.N,Net-(D29-K)*%
X161124800Y-107518600D03*
%TO.P,L1,2,2*%
%TO.N,Net-(C5-Pad1)*%
X161124800Y-105943600D03*
%TD*%
D24*
%TO.P,R3,1*%
%TO.N,Net-(D29-K)*%
X163971600Y-112363600D03*
%TO.P,R3,2*%
%TO.N,Net-(D2-K)*%
X162321600Y-112363600D03*
%TD*%
D23*
%TO.P,C17,1*%
%TO.N,+3.3V*%
X194398800Y-86449800D03*
%TO.P,C17,2*%
%TO.N,GND*%
X192673800Y-86449800D03*
%TD*%
D13*
%TO.P,C22,1*%
%TO.N,+3.3V*%
X201975500Y-79250000D03*
%TO.P,C22,2*%
%TO.N,GND*%
X203700500Y-79250000D03*
%TD*%
D65*
%TO.P,U7,1,LNA_IN*%
%TO.N,Net-(U7-LNA_IN)*%
X199266699Y-80202801D03*
%TO.P,U7,2,VDD3P3*%
%TO.N,Net-(C25-Pad1)*%
X198766700Y-80202801D03*
%TO.P,U7,3,VDD3P3*%
X198266701Y-80202801D03*
%TO.P,U7,4,XTAL_32K_P*%
%TO.N,unconnected-(U7-XTAL_32K_P-Pad4)*%
X197766700Y-80202801D03*
%TO.P,U7,5,XTAL_32K_N*%
%TO.N,unconnected-(U7-XTAL_32K_N-Pad5)*%
X197266700Y-80202801D03*
%TO.P,U7,6,GPIO2*%
%TO.N,Net-(U7-GPIO2)*%
X196766699Y-80202801D03*
%TO.P,U7,7,CHIP_EN*%
%TO.N,Net-(U7-CHIP_EN)*%
X196266700Y-80202801D03*
%TO.P,U7,8,GPIO3*%
%TO.N,/Button*%
X195766701Y-80202801D03*
D66*
%TO.P,U7,9,MTMS*%
%TO.N,/CHARGE*%
X195116400Y-80853102D03*
%TO.P,U7,10,MTDI*%
%TO.N,/StayOn*%
X195116400Y-81353101D03*
%TO.P,U7,11,VDD3P3_RTC*%
%TO.N,+3.3V*%
X195116400Y-81853100D03*
%TO.P,U7,12,MTCK*%
%TO.N,/Moteur1_PWM*%
X195116400Y-82353101D03*
%TO.P,U7,13,MTDO*%
%TO.N,/Moteur2_PWM*%
X195116400Y-82853101D03*
%TO.P,U7,14,GPIO8*%
%TO.N,Net-(U7-GPIO8)*%
X195116400Y-83353102D03*
%TO.P,U7,15,GPIO9*%
%TO.N,Net-(U7-GPIO9)*%
X195116400Y-83853101D03*
%TO.P,U7,16,GPIO10*%
%TO.N,Net-(U7-GPIO10)*%
X195116400Y-84353100D03*
D65*
%TO.P,U7,17,VDD3P3_CPU*%
%TO.N,+3.3V*%
X195766701Y-85003401D03*
%TO.P,U7,18,VDD_SPI*%
%TO.N,unconnected-(U7-VDD_SPI-Pad18)*%
X196266700Y-85003401D03*
%TO.P,U7,19,SPIHD*%
%TO.N,unconnected-(U7-SPIHD-Pad19)*%
X196766699Y-85003401D03*
%TO.P,U7,20,SPIWP*%
%TO.N,unconnected-(U7-SPIWP-Pad20)*%
X197266700Y-85003401D03*
%TO.P,U7,21,SPICS0*%
%TO.N,unconnected-(U7-SPICS0-Pad21)*%
X197766700Y-85003401D03*
%TO.P,U7,22,SPICLK*%
%TO.N,unconnected-(U7-SPICLK-Pad22)*%
X198266701Y-85003401D03*
%TO.P,U7,23,SPID*%
%TO.N,unconnected-(U7-SPID-Pad23)*%
X198766700Y-85003401D03*
%TO.P,U7,24,SPIQ*%
%TO.N,unconnected-(U7-SPIQ-Pad24)*%
X199266699Y-85003401D03*
D66*
%TO.P,U7,25,GPIO18*%
%TO.N,/USB_ESP32N*%
X199917000Y-84353100D03*
%TO.P,U7,26,GPIO19*%
%TO.N,/USB_ESP32P*%
X199917000Y-83853101D03*
%TO.P,U7,27,U0RXD*%
%TO.N,Net-(U7-U0RXD)*%
X199917000Y-83353102D03*
%TO.P,U7,28,U0TXD*%
%TO.N,/NEOPX*%
X199917000Y-82853101D03*
%TO.P,U7,29,XTAL_N*%
%TO.N,Net-(U7-XTAL_N)*%
X199917000Y-82353101D03*
%TO.P,U7,30,XTAL_P*%
%TO.N,Net-(U7-XTAL_P)*%
X199917000Y-81853100D03*
%TO.P,U7,31,VDDA*%
%TO.N,+3.3V*%
X199917000Y-81353101D03*
%TO.P,U7,32,VDDA*%
X199917000Y-80853102D03*
D67*
%TO.P,U7,33,GND*%
%TO.N,GND*%
X197516700Y-82603101D03*
%TD*%
D68*
%TO.P,U1,1,STAT*%
%TO.N,Net-(D3-K)*%
X157479945Y-87523145D03*
%TO.P,U1,2,VSS*%
%TO.N,GND*%
X157479945Y-88462945D03*
%TO.P,U1,3,VBAT*%
%TO.N,/VBATT*%
X157479945Y-89402745D03*
%TO.P,U1,4,VDD*%
%TO.N,/VUSB*%
X160070745Y-89402745D03*
%TO.P,U1,5,PROG*%
%TO.N,Net-(U1-PROG)*%
X160070745Y-87523145D03*
%TD*%
D69*
%TO.P,C27,1*%
%TO.N,Net-(C27-Pad1)*%
X203796572Y-80873300D03*
%TO.P,C27,2*%
%TO.N,GND*%
X204599138Y-81675866D03*
%TD*%
D41*
%TO.P,BT2,1,+*%
%TO.N,Net-(BT2-+)*%
X144159545Y-83661945D03*
D42*
%TO.P,BT2,2,-*%
%TO.N,/B-*%
X144159545Y-86201945D03*
%TD*%
D70*
%TO.P,U4,1,5V_IN*%
%TO.N,/VUSB*%
X136187500Y-113912500D03*
%TO.P,U4,2,GND*%
%TO.N,GND*%
X150187500Y-113912500D03*
%TO.P,U4,3,Out+*%
%TO.N,/VBATT*%
X136187500Y-90912500D03*
%TO.P,U4,4,Out-*%
%TO.N,GND*%
X150187500Y-90912500D03*
%TO.P,U4,5,B+*%
%TO.N,/VBATT*%
X138727500Y-90912500D03*
%TO.P,U4,6,B-*%
%TO.N,/B-*%
X147647500Y-90912500D03*
%TD*%
D21*
%TO.P,JP16,1,A*%
%TO.N,Net-(D17-DOUT)*%
X180135600Y-125985400D03*
D22*
%TO.P,JP16,2,B*%
%TO.N,Net-(D18-DOUT)*%
X181585600Y-125985400D03*
%TD*%
D23*
%TO.P,C24,1*%
%TO.N,+3.3V*%
X193609200Y-81522200D03*
%TO.P,C24,2*%
%TO.N,GND*%
X191884200Y-81522200D03*
%TD*%
D26*
%TO.P,C18,1*%
%TO.N,Net-(U7-LNA_IN)*%
X199476500Y-79196900D03*
%TO.P,C18,2*%
%TO.N,GND*%
X200611500Y-79196900D03*
%TD*%
D28*
%TO.P,TP2,1,1*%
%TO.N,/VUSB*%
X160900000Y-119700000D03*
%TD*%
D71*
%TO.P,SW1,1*%
%TO.N,GND*%
X165750000Y-132750000D03*
%TO.P,SW1,2*%
%TO.N,Net-(D2-K)*%
X170250000Y-132750000D03*
D72*
%TO.P,SW1,3*%
%TO.N,GND*%
X164500000Y-130250000D03*
%TO.P,SW1,4*%
X171500000Y-130250000D03*
%TD*%
D73*
%TO.N,GND*%
X164750000Y-97000000D03*
X165750000Y-98750000D03*
D74*
X191554000Y-86449800D03*
D73*
X165750000Y-97500000D03*
D74*
X151955400Y-77673600D03*
D75*
X162500000Y-87000000D03*
X161250000Y-87000000D03*
D74*
X197800000Y-82300000D03*
X185100000Y-76400000D03*
D75*
X195988519Y-76300766D03*
D74*
X162397899Y-104192749D03*
D76*
X201318509Y-82422109D03*
D73*
X163750000Y-98750000D03*
D75*
X171600000Y-80500000D03*
D74*
X176820000Y-124335400D03*
D73*
X163500000Y-99877150D03*
D75*
X196419422Y-78180577D03*
X162800000Y-80100000D03*
D74*
X205159204Y-81115800D03*
D75*
X159000000Y-88462945D03*
X140366400Y-88466400D03*
D74*
X201472700Y-75667500D03*
D73*
X164500000Y-100750000D03*
D74*
X200647200Y-78398000D03*
X198996200Y-125275000D03*
D75*
X160500000Y-88462945D03*
D74*
X155003400Y-103810200D03*
X161346600Y-116463600D03*
X160446600Y-111563600D03*
X162877400Y-93243800D03*
D75*
X159750000Y-88462945D03*
D73*
X164750000Y-99500000D03*
D74*
X181800000Y-82000000D03*
X204762000Y-77864600D03*
X144259200Y-126898800D03*
X192000000Y-76900000D03*
X184250000Y-84849600D03*
X135400000Y-117600000D03*
D73*
X163750000Y-97500000D03*
D74*
X205333000Y-85395200D03*
D73*
X164750000Y-98250000D03*
D74*
X186148841Y-84368051D03*
X191482160Y-80631013D03*
%TO.N,/VBATT*%
X199000000Y-87500000D03*
D75*
X156000000Y-91250000D03*
X157500000Y-90000000D03*
D73*
X155613000Y-108407600D03*
D75*
X154500000Y-89750000D03*
X156750000Y-90000000D03*
X158250000Y-90000000D03*
X146700000Y-83400000D03*
X157500000Y-90750000D03*
X146700000Y-84500000D03*
X156750000Y-90750000D03*
X154500000Y-91250000D03*
X153750000Y-89750000D03*
X153750000Y-91250000D03*
X153750000Y-90500000D03*
X158250000Y-90750000D03*
D74*
X190400000Y-87600000D03*
D75*
X154500000Y-90500000D03*
D74*
%TO.N,+9V*%
X169938600Y-96317200D03*
X185331000Y-127635400D03*
D73*
X155750000Y-101000000D03*
X155750000Y-99750000D03*
D75*
X168900000Y-91200000D03*
D74*
X134000000Y-83512800D03*
X205371600Y-120269400D03*
X143470800Y-74347200D03*
X168500000Y-70100000D03*
D73*
X156500000Y-98500000D03*
X159208771Y-101260110D03*
X160413599Y-100482800D03*
D74*
X178600000Y-79223000D03*
X140200000Y-123600000D03*
D73*
X157250000Y-99750000D03*
D74*
X152768200Y-131699400D03*
D73*
X157250000Y-101000000D03*
D74*
X180200000Y-76100000D03*
%TO.N,+3.3V*%
X192752355Y-80646261D03*
X154266800Y-83616145D03*
D75*
X174525000Y-75975000D03*
D74*
X167587800Y-85293200D03*
X202044200Y-76848600D03*
D75*
X196236288Y-77286455D03*
D74*
X184010200Y-86576800D03*
X195630700Y-85954500D03*
D75*
%TO.N,/VUSB*%
X160250000Y-90250000D03*
X159500000Y-90250000D03*
D73*
X171000000Y-71762500D03*
D74*
X178400000Y-88000000D03*
D73*
X153900000Y-108600000D03*
D75*
X161000000Y-90250000D03*
%TO.N,/USB_ESP32P*%
X200700000Y-85500000D03*
%TO.N,/USB_ESP32N*%
X199936000Y-84822148D03*
%TO.N,/Moteur1_PWM*%
X192740613Y-82324212D03*
X144500000Y-94300000D03*
%TO.N,/StayOn*%
X156806800Y-113208200D03*
X190690400Y-81954000D03*
%TO.N,/CHARGE*%
X152500000Y-88400000D03*
X188735873Y-80525000D03*
%TO.N,/Moteur2_PWM*%
X191392852Y-82720775D03*
D77*
%TO.N,Net-(C5-Pad1)*%
X162587040Y-102368840D03*
X161504968Y-102374556D03*
D75*
%TO.N,/NEOPX*%
X204369846Y-84769846D03*
%TO.N,/Button*%
X164376000Y-114226100D03*
X169700000Y-110300000D03*
%TO.N,Net-(Q4-D)*%
X167096600Y-107305600D03*
X159856278Y-102348739D03*
%TO.N,Net-(U2-FB)*%
X164283400Y-103216600D03*
X157700000Y-98200000D03*
%TO.N,Net-(U7-GPIO2)*%
X194698859Y-79526223D03*
D78*
X196367813Y-79036896D03*
D75*
%TO.N,Net-(D7-DOUT)*%
X184964600Y-78435400D03*
%TO.N,Net-(D18-DOUT)*%
X198183400Y-122022000D03*
%TD*%
D79*
%TO.N,GND*%
X135466400Y-117666400D02*
X135400000Y-117600000D01*
X135466400Y-118928000D02*
X135466400Y-117666400D01*
%TO.N,/NEO_Row2*%
X134728000Y-122228000D02*
X135466400Y-122228000D01*
X133200000Y-120700000D02*
X134728000Y-122228000D01*
X133200000Y-90000000D02*
X133200000Y-120700000D01*
X133200000Y-89079200D02*
X133200000Y-90000000D01*
X135466400Y-86812800D02*
X133200000Y-89079200D01*
%TO.N,GND*%
X161251345Y-85821345D02*
X161899545Y-86469545D01*
X193362500Y-126800000D02*
X197471200Y-126800000D01*
X155003400Y-103810200D02*
X155838512Y-103810200D01*
X171304800Y-75299200D02*
X171304800Y-76649200D01*
X160446600Y-110701100D02*
X160484100Y-110663600D01*
X164387500Y-80100000D02*
X162800000Y-80100000D01*
X201587000Y-75553200D02*
X201587000Y-74638800D01*
X204543406Y-81675866D02*
X203792523Y-82426749D01*
X161899545Y-86469545D02*
X161899545Y-88088700D01*
X191884200Y-81033053D02*
X191884200Y-81573000D01*
X205333000Y-86551400D02*
X205333000Y-85395200D01*
X161925100Y-93243800D02*
X161898200Y-93216900D01*
X145550000Y-128348600D02*
X144259200Y-127057800D01*
X204599138Y-81675866D02*
X205159204Y-81115800D01*
X192000000Y-76900000D02*
X192602600Y-76297400D01*
X176582387Y-117255113D02*
X176700000Y-117137500D01*
X164144800Y-93243800D02*
X162877400Y-93243800D01*
X149700000Y-94000000D02*
X150000000Y-93700000D01*
X196469899Y-78130100D02*
X196419422Y-78180577D01*
X151929000Y-77647200D02*
X151955400Y-77673600D01*
X159946600Y-116488600D02*
X161321600Y-116488600D01*
D80*
X186148841Y-84368051D02*
X186516892Y-84000000D01*
D79*
X162392600Y-98908000D02*
X163178250Y-98908000D01*
X162293713Y-104020913D02*
X162397899Y-104125099D01*
X162877400Y-93243800D02*
X161925100Y-93243800D01*
X172975000Y-83150000D02*
X172025000Y-84100000D01*
X150000000Y-91100000D02*
X150187500Y-90912500D01*
X203700500Y-77850700D02*
X204748100Y-77850700D01*
X185100000Y-76400000D02*
X185839500Y-77139500D01*
X155809445Y-88462945D02*
X157479945Y-88462945D01*
X203700500Y-79374700D02*
X203700500Y-77850700D01*
D80*
X188001400Y-83198600D02*
X188023400Y-83198600D01*
D79*
X159626200Y-88462945D02*
X159000000Y-88462945D01*
X200620200Y-75945700D02*
X201194500Y-75945700D01*
X164500000Y-100750000D02*
X164500000Y-100229750D01*
X201472700Y-75667500D02*
X201587000Y-75553200D01*
X192602600Y-76297400D02*
X192910350Y-76297400D01*
X163437500Y-129187500D02*
X164500000Y-130250000D01*
X197471200Y-126800000D02*
X198996200Y-125275000D01*
X161321600Y-116488600D02*
X161346600Y-116463600D01*
X168946600Y-102055600D02*
X167874276Y-102055600D01*
X160591400Y-88462945D02*
X160500000Y-88462945D01*
X162693713Y-99877150D02*
X162693713Y-101191213D01*
X191482160Y-80631013D02*
X191884200Y-81033053D01*
D80*
X187200000Y-84000000D02*
X188001400Y-83198600D01*
D79*
X164387500Y-80100000D02*
X164387500Y-81750000D01*
X195988519Y-76300766D02*
X196343585Y-75945700D01*
X196343585Y-75945700D02*
X197266700Y-75945700D01*
X178410600Y-124335400D02*
X176820000Y-124335400D01*
X162546600Y-116104400D02*
X162187400Y-116463600D01*
X167732988Y-105269188D02*
X167731888Y-105270288D01*
X184250000Y-84849600D02*
X185331000Y-84849600D01*
X162397899Y-104125099D02*
X162397899Y-104192749D01*
X201641205Y-82744805D02*
X201883477Y-82744805D01*
X164387500Y-81750000D02*
X164437500Y-81800000D01*
X155587600Y-88241100D02*
X154940500Y-88241100D01*
X155587600Y-88241100D02*
X155809445Y-88462945D01*
X197402400Y-78130100D02*
X196469899Y-78130100D01*
X152482388Y-123144888D02*
X152300000Y-122962500D01*
X164500000Y-100229750D02*
X164147400Y-99877150D01*
X140366400Y-86812800D02*
X140366400Y-88466400D01*
X140366400Y-88466400D02*
X140400000Y-88500000D01*
X197241300Y-78291200D02*
X197402400Y-78130100D01*
X163118713Y-101716213D02*
X164283787Y-101716213D01*
X192673800Y-86449800D02*
X191554000Y-86449800D01*
X178062500Y-117137500D02*
X179045400Y-116154600D01*
X171800000Y-117255113D02*
X176582387Y-117255113D01*
X187081000Y-86599600D02*
X185331000Y-84849600D01*
X164283787Y-101716213D02*
X164500000Y-101500000D01*
X152300000Y-122962500D02*
X149892500Y-122962500D01*
X163178250Y-98908000D02*
X164147400Y-99877150D01*
X161899545Y-88088700D02*
X161525300Y-88462945D01*
X150000000Y-93700000D02*
X150000000Y-91100000D01*
X187261400Y-86599600D02*
X187081000Y-86599600D01*
X201194500Y-75945700D02*
X201472700Y-75667500D01*
X204748100Y-77850700D02*
X204762000Y-77864600D01*
X200647200Y-78398000D02*
X200611500Y-78433700D01*
X197241300Y-79196900D02*
X197241300Y-78291200D01*
D80*
X186516892Y-84000000D02*
X187200000Y-84000000D01*
D79*
X163437500Y-126800000D02*
X163437500Y-129187500D01*
X201318509Y-82422109D02*
X201641205Y-82744805D01*
X164147400Y-99877150D02*
X163500000Y-99877150D01*
X161525300Y-88462945D02*
X160591400Y-88462945D01*
X160446600Y-111563600D02*
X160446600Y-110701100D01*
X157479945Y-88462945D02*
X158668745Y-88462945D01*
X160500000Y-88462945D02*
X159750000Y-88462945D01*
X200611500Y-78433700D02*
X200611500Y-79196900D01*
X172975000Y-83150000D02*
X172975000Y-81875000D01*
X204599138Y-81675866D02*
X204543406Y-81675866D01*
D81*
X162293713Y-103091212D02*
X162293713Y-104020913D01*
D79*
X203792523Y-83114685D02*
X204121655Y-83443817D01*
X149892500Y-122962500D02*
X149600000Y-123255000D01*
X164500000Y-101500000D02*
X164500000Y-100750000D01*
X182139600Y-81660400D02*
X181800000Y-82000000D01*
X162546600Y-116101100D02*
X162546600Y-116104400D01*
X155838512Y-103810200D02*
X157311624Y-102337088D01*
X150417600Y-77647200D02*
X151929000Y-77647200D01*
X203792523Y-82426749D02*
X203792523Y-83114685D01*
X172975000Y-81875000D02*
X171600000Y-80500000D01*
X154940500Y-88241100D02*
X153974200Y-87274800D01*
X167732988Y-102196888D02*
X167732988Y-105269188D01*
X183310600Y-81660400D02*
X182139600Y-81660400D01*
X167874276Y-102055600D02*
X167732988Y-102196888D01*
X175000000Y-83150000D02*
X176962500Y-83150000D01*
X176962500Y-83150000D02*
X177500000Y-83687500D01*
X156200000Y-123144888D02*
X152482388Y-123144888D01*
X159000000Y-88462945D02*
X158668745Y-88462945D01*
X159750000Y-88462945D02*
X159626200Y-88462945D01*
X163500000Y-99877150D02*
X162693713Y-99877150D01*
X185839500Y-77139500D02*
X186742902Y-77139500D01*
X176700000Y-117137500D02*
X178062500Y-117137500D01*
X144259200Y-127057800D02*
X144259200Y-126898800D01*
X179045400Y-116154600D02*
X180860600Y-116154600D01*
X162187400Y-116463600D02*
X161346600Y-116463600D01*
X175000000Y-83150000D02*
X172975000Y-83150000D01*
%TO.N,Net-(BT1-+)*%
X149387500Y-83353790D02*
X149053945Y-83687345D01*
D82*
X149287500Y-81000000D02*
X149287500Y-83453790D01*
X149287500Y-83453790D02*
X149053945Y-83687345D01*
%TO.N,/VBATT*%
X155613000Y-108407600D02*
X155613000Y-107100800D01*
D79*
X155587600Y-89966100D02*
X156150955Y-89402745D01*
X200660400Y-86551400D02*
X199631200Y-86551400D01*
X182475800Y-87600000D02*
X181267000Y-86391200D01*
X149744900Y-78967600D02*
X147712500Y-81000000D01*
D82*
X146700000Y-81000000D02*
X146700000Y-83400000D01*
D79*
X199500000Y-87000000D02*
X199000000Y-87500000D01*
D82*
X145787500Y-81000000D02*
X146700000Y-81000000D01*
D79*
X153427200Y-78967600D02*
X149744900Y-78967600D01*
X190400000Y-87600000D02*
X182475800Y-87600000D01*
X199500000Y-86572600D02*
X199500000Y-87000000D01*
D82*
X136187500Y-90912500D02*
X138727500Y-90912500D01*
D79*
X154927200Y-80467600D02*
X153427200Y-78967600D01*
D82*
X146700000Y-83400000D02*
X146700000Y-84500000D01*
D79*
X156150955Y-89402745D02*
X157479945Y-89402745D01*
D82*
X146700000Y-81000000D02*
X147712500Y-81000000D01*
X155613000Y-107100800D02*
X155677800Y-107036000D01*
D79*
%TO.N,+9V*%
X140200000Y-122394400D02*
X140366400Y-122228000D01*
X180200000Y-76100000D02*
X179400000Y-75300000D01*
X180200000Y-76571000D02*
X180200000Y-76100000D01*
X149600000Y-120715000D02*
X151777500Y-120715000D01*
X178600000Y-78549800D02*
X178410600Y-78360400D01*
X152717400Y-131648600D02*
X152768200Y-131699400D01*
X173525000Y-70200000D02*
X168600000Y-70200000D01*
X156107388Y-121237500D02*
X156200000Y-121144888D01*
X135466400Y-83512800D02*
X134000000Y-83512800D01*
X169938600Y-94437600D02*
X169938600Y-96317200D01*
X152300000Y-121237500D02*
X156107388Y-121237500D01*
X159691088Y-99846888D02*
X160518288Y-99019688D01*
X172192613Y-118862500D02*
X171800000Y-119255113D01*
X140200000Y-123600000D02*
X140200000Y-122394400D01*
X178600000Y-79223000D02*
X178600000Y-78549800D01*
X158918088Y-99846888D02*
X159691088Y-99846888D01*
X176700000Y-118862500D02*
X172192613Y-118862500D01*
X160273739Y-101673739D02*
X160000000Y-101400000D01*
X178625000Y-75300000D02*
X173525000Y-70200000D01*
X161393713Y-101191213D02*
X161393713Y-100143713D01*
X143470800Y-74347200D02*
X145517600Y-74347200D01*
X180692700Y-118862500D02*
X180860600Y-118694600D01*
X160921239Y-101673739D02*
X160273739Y-101673739D01*
X179400000Y-75300000D02*
X178625000Y-75300000D01*
X168744800Y-93243800D02*
X169938600Y-94437600D01*
X151777500Y-120715000D02*
X152300000Y-121237500D01*
X191637500Y-126800000D02*
X186166400Y-126800000D01*
X186166400Y-126800000D02*
X185331000Y-127635400D01*
X168600000Y-70200000D02*
X168500000Y-70100000D01*
X176700000Y-118862500D02*
X180692700Y-118862500D01*
X178410600Y-78360400D02*
X180200000Y-76571000D01*
X183310600Y-127635400D02*
X185331000Y-127635400D01*
X168744800Y-91355200D02*
X168900000Y-91200000D01*
X150450000Y-131648600D02*
X152717400Y-131648600D01*
X168744800Y-93243800D02*
X168744800Y-91355200D01*
D81*
%TO.N,+3.3V*%
X200497098Y-80853102D02*
X201975500Y-79374700D01*
D79*
X184371200Y-83198600D02*
X184771200Y-83198600D01*
X183232400Y-85799000D02*
X183232400Y-84337400D01*
X167587800Y-85293200D02*
X167587800Y-85800800D01*
D81*
X199917000Y-81353101D02*
X199917000Y-80853102D01*
D79*
X161898200Y-91491900D02*
X164998100Y-91491900D01*
X184010200Y-86576800D02*
X183232400Y-85799000D01*
X196236288Y-77286455D02*
X196527643Y-76995100D01*
X195135400Y-86449800D02*
X195630700Y-85954500D01*
X153215200Y-83616145D02*
X154266800Y-83616145D01*
X196527643Y-76995100D02*
X197402400Y-76995100D01*
X195736505Y-77286455D02*
X194815350Y-76365300D01*
X197406100Y-76998800D02*
X197402400Y-76995100D01*
X177500000Y-85512500D02*
X175812500Y-85512500D01*
X198401700Y-75945700D02*
X198401700Y-76982100D01*
X184772200Y-83197600D02*
X184771200Y-83198600D01*
X194398800Y-86449800D02*
X195135400Y-86449800D01*
X192752355Y-80646261D02*
X192752355Y-80716155D01*
X182475000Y-84100000D02*
X182995000Y-84100000D01*
X175812500Y-85512500D02*
X174525000Y-86800000D01*
X184772200Y-79845800D02*
X184772200Y-83197600D01*
D81*
X195766701Y-85818499D02*
X195766701Y-85003401D01*
D79*
X202044200Y-76848600D02*
X201975500Y-76917300D01*
X198401700Y-76982100D02*
X198418400Y-76998800D01*
D81*
X199917000Y-80853102D02*
X200497098Y-80853102D01*
D79*
X167587800Y-85800800D02*
X166444800Y-86943800D01*
D81*
X193743700Y-81838500D02*
X195101800Y-81838500D01*
D79*
X166444800Y-93243800D02*
X166444800Y-86943800D01*
X164998100Y-91491900D02*
X166444800Y-92938600D01*
X196236288Y-77286455D02*
X195736505Y-77286455D01*
X201975500Y-76917300D02*
X201975500Y-77850700D01*
X183232400Y-84337400D02*
X184371200Y-83198600D01*
X166444800Y-92938600D02*
X166444800Y-93243800D01*
X192752355Y-80716155D02*
X193609200Y-81573000D01*
X201975500Y-77850700D02*
X201975500Y-79374700D01*
X198418400Y-76998800D02*
X197406100Y-76998800D01*
X182995000Y-84100000D02*
X183232400Y-84337400D01*
D80*
%TO.N,Net-(D3-A)*%
X159601345Y-84017945D02*
X157849545Y-84017945D01*
X157849545Y-84017945D02*
X157835545Y-84031945D01*
%TO.N,Net-(J1-CC1)*%
X169600000Y-81274025D02*
X169600000Y-83325000D01*
X169604800Y-81269225D02*
X169600000Y-81274025D01*
X169600000Y-83325000D02*
X170375000Y-84100000D01*
X169604800Y-76649200D02*
X169604800Y-81269225D01*
%TO.N,Net-(J1-CC2)*%
X173800000Y-74900000D02*
X173125000Y-74225000D01*
X175000000Y-81500000D02*
X173800000Y-80300000D01*
X167054800Y-74840995D02*
X167054800Y-75299200D01*
X173125000Y-74225000D02*
X167670795Y-74225000D01*
X167670795Y-74225000D02*
X167054800Y-74840995D01*
X173800000Y-80300000D02*
X173800000Y-74900000D01*
%TO.N,Net-(U7-U0RXD)*%
X202310400Y-85454415D02*
X200209087Y-83353102D01*
X203683000Y-86551400D02*
X202310400Y-86551400D01*
X200209087Y-83353102D02*
X199917000Y-83353102D01*
X202310400Y-86551400D02*
X202310400Y-85454415D01*
D79*
%TO.N,/VUSB*%
X156070200Y-84023600D02*
X157086200Y-83007600D01*
X161899545Y-89813700D02*
X161488590Y-89402745D01*
X160070745Y-90919655D02*
X160070745Y-89402745D01*
D82*
X157060600Y-116738600D02*
X153900000Y-113578000D01*
X163700000Y-86466600D02*
X163700000Y-88500000D01*
D79*
X179600000Y-89200000D02*
X180998200Y-89200000D01*
X160400000Y-120000000D02*
X158200000Y-117800000D01*
D82*
X153900000Y-93551200D02*
X153900000Y-108600000D01*
X161251345Y-84017945D02*
X163700000Y-86466600D01*
X163183855Y-85416145D02*
X162649545Y-85416145D01*
X154951200Y-92500000D02*
X158490400Y-92500000D01*
D79*
X161488590Y-89402745D02*
X160070745Y-89402745D01*
X166204800Y-75299200D02*
X166204800Y-78800000D01*
X170454800Y-75299200D02*
X170454800Y-76649200D01*
X166204800Y-78800000D02*
X166204800Y-81860890D01*
D82*
X166162500Y-78842300D02*
X166204800Y-78800000D01*
X153900000Y-113578000D02*
X153900000Y-108600000D01*
X158490400Y-92500000D02*
X160070745Y-90919655D01*
X166204800Y-82395200D02*
X163183855Y-85416145D01*
X166162500Y-81800000D02*
X166162500Y-78842300D01*
X153900000Y-93551200D02*
X154951200Y-92500000D01*
X158046600Y-116738600D02*
X157060600Y-116738600D01*
D79*
X158200000Y-116892000D02*
X158046600Y-116738600D01*
X158200000Y-117800000D02*
X158200000Y-116892000D01*
D82*
X166204800Y-81860890D02*
X166204800Y-82395200D01*
D79*
X180998200Y-89200000D02*
X181267000Y-88931200D01*
X178400000Y-88000000D02*
X179600000Y-89200000D01*
X160241000Y-83007600D02*
X161251345Y-84017945D01*
D82*
X163700000Y-88500000D02*
X162386300Y-89813700D01*
X162386300Y-89813700D02*
X161899545Y-89813700D01*
D79*
X162649545Y-85416145D02*
X161251345Y-84017945D01*
X157086200Y-83007600D02*
X160241000Y-83007600D01*
%TO.N,Net-(BT2-+)*%
X144212500Y-81000000D02*
X144312500Y-81100000D01*
X144312500Y-83508990D02*
X144159545Y-83661945D01*
D82*
X144312500Y-81100000D02*
X144312500Y-83508990D01*
D80*
%TO.N,/USB_ESP32P*%
X200148913Y-83853101D02*
X199917000Y-83853101D01*
D83*
X168754800Y-76407639D02*
X167904800Y-75557639D01*
X167904800Y-75557639D02*
X167904800Y-75299200D01*
X168754800Y-76649200D02*
X168754800Y-76407639D01*
D80*
X200647200Y-85447200D02*
X200647200Y-84351388D01*
X200700000Y-85500000D02*
X200647200Y-85447200D01*
X200647200Y-84351388D02*
X200148913Y-83853101D01*
D83*
%TO.N,/USB_ESP32N*%
X199936000Y-84822148D02*
X199917000Y-84803148D01*
D80*
X199917000Y-84803148D02*
X199917000Y-84353100D01*
D79*
%TO.N,/Moteur1_PWM*%
X151433600Y-118175000D02*
X149600000Y-118175000D01*
X144500000Y-94300000D02*
X144500000Y-95700000D01*
X152700000Y-103900000D02*
X152700000Y-116908600D01*
X152700000Y-116908600D02*
X151433600Y-118175000D01*
X144500000Y-95700000D02*
X152700000Y-103900000D01*
D80*
X195116400Y-82353101D02*
X192842101Y-82353101D01*
%TO.N,/StayOn*%
X194849504Y-81353101D02*
X195116400Y-81353101D01*
X190690400Y-81954000D02*
X190690400Y-80109600D01*
X191000000Y-79800000D02*
X193296403Y-79800000D01*
X156806800Y-113208200D02*
X157916200Y-113208200D01*
X193296403Y-79800000D02*
X194849504Y-81353101D01*
X157916200Y-113208200D02*
X157971600Y-113263600D01*
X190690400Y-80109600D02*
X191000000Y-79800000D01*
%TO.N,/CHARGE*%
X152387200Y-88287200D02*
X152387200Y-85546945D01*
X193683298Y-79420000D02*
X195116400Y-80853102D01*
X152500000Y-88400000D02*
X152387200Y-88287200D01*
X190609316Y-79420000D02*
X193683298Y-79420000D01*
X188735873Y-80525000D02*
X188806673Y-80595800D01*
X189433516Y-80595800D02*
X190609316Y-79420000D01*
X188806673Y-80595800D02*
X189433516Y-80595800D01*
%TO.N,/Moteur2_PWM*%
X195114139Y-82855362D02*
X194969501Y-83000000D01*
X191672077Y-83000000D02*
X191392852Y-82720775D01*
X194969501Y-83000000D02*
X191672077Y-83000000D01*
%TO.N,Net-(C5-Pad1)*%
X161793713Y-103623887D02*
X161793713Y-103091212D01*
D79*
X161150200Y-104649500D02*
X160870800Y-104370100D01*
X161150200Y-105588100D02*
X161150200Y-104649500D01*
D80*
X162043713Y-101666213D02*
X162043713Y-102316213D01*
X160844300Y-104343600D02*
X161074000Y-104343600D01*
X161074000Y-104343600D02*
X161793713Y-103623887D01*
X162043713Y-102316213D02*
X161793713Y-102566213D01*
X161793713Y-102566213D02*
X161793713Y-103091212D01*
D79*
X160870800Y-105867500D02*
X161150200Y-105588100D01*
D80*
X160870800Y-104370100D02*
X160844300Y-104343600D01*
%TO.N,Net-(U2-BST)*%
X159906700Y-103657800D02*
X159119300Y-104445200D01*
X161293712Y-103091212D02*
X161293712Y-103438088D01*
X161293712Y-103438088D02*
X161074000Y-103657800D01*
X161074000Y-103657800D02*
X159906700Y-103657800D01*
%TO.N,Net-(U2-VCC)*%
X162793714Y-103091212D02*
X162793714Y-103591214D01*
X163302500Y-104100000D02*
X164836600Y-104100000D01*
X162793714Y-103591214D02*
X163302500Y-104100000D01*
X164836600Y-104100000D02*
X166006888Y-105270288D01*
%TO.N,Net-(C11-Pad1)*%
X167478988Y-99070488D02*
X167478988Y-100584488D01*
X167478988Y-100584488D02*
X167541988Y-100647488D01*
%TO.N,Net-(U2-COMP)*%
X165913662Y-102291214D02*
X163468714Y-102291214D01*
X165891988Y-100647488D02*
X165891988Y-102080888D01*
X166007988Y-102196888D02*
X165913662Y-102291214D01*
X165891988Y-102080888D02*
X166007988Y-102196888D01*
D79*
%TO.N,Net-(U6-FP)*%
X199434400Y-75016650D02*
X199487250Y-74963800D01*
X199434400Y-76998800D02*
X199434400Y-75016650D01*
%TO.N,Net-(U7-LNA_IN)*%
X199351800Y-78226400D02*
X199434400Y-78143800D01*
X199351800Y-79072200D02*
X199351800Y-78226400D01*
D81*
X199266699Y-80202801D02*
X199266699Y-79406701D01*
D79*
X199476500Y-79196900D02*
X199351800Y-79072200D01*
%TO.N,Net-(C25-Pad1)*%
X198376300Y-78185900D02*
X198418400Y-78143800D01*
X198266701Y-79306499D02*
X198376300Y-79196900D01*
D81*
X198266701Y-80202801D02*
X198266701Y-79306499D01*
X198766700Y-80202801D02*
X198266701Y-80202801D01*
D79*
X198376300Y-79196900D02*
X198376300Y-78185900D01*
D80*
%TO.N,Net-(U7-CHIP_EN)*%
X195615300Y-78015300D02*
X192917450Y-78015300D01*
X191725798Y-78022400D02*
X190842898Y-77139500D01*
X195781805Y-78181805D02*
X195615300Y-78015300D01*
X192910350Y-78022400D02*
X191725798Y-78022400D01*
X195781805Y-79323665D02*
X195781805Y-78181805D01*
X192917450Y-78015300D02*
X192910350Y-78022400D01*
X196266700Y-80202801D02*
X196266700Y-79808560D01*
X196266700Y-79808560D02*
X195781805Y-79323665D01*
D81*
%TO.N,Net-(C27-Pad1)*%
X202997028Y-81484428D02*
X202958600Y-81446000D01*
X203038618Y-81631254D02*
X203796572Y-80873300D01*
X202958600Y-81134408D02*
X202542896Y-80718704D01*
X202997028Y-81631254D02*
X202997028Y-81484428D01*
X202997028Y-81631254D02*
X203038618Y-81631254D01*
X202958600Y-81446000D02*
X202958600Y-81134408D01*
%TO.N,Net-(U7-XTAL_N)*%
X203319089Y-84246383D02*
X203319089Y-84180417D01*
X201882786Y-83836649D02*
X202382623Y-83836649D01*
X199917000Y-82353101D02*
X200399238Y-82353101D01*
X203319089Y-84180417D02*
X202678972Y-83540300D01*
X202382623Y-83836649D02*
X202678972Y-83540300D01*
X200399238Y-82353101D02*
X201882786Y-83836649D01*
D80*
%TO.N,Net-(D2-A)*%
X163896600Y-108988600D02*
X163946600Y-109038600D01*
X162346600Y-108988600D02*
X163896600Y-108988600D01*
X158645100Y-109677600D02*
X161657600Y-109677600D01*
X165309100Y-109038600D02*
X165696600Y-109426100D01*
X161657600Y-109677600D02*
X162346600Y-108988600D01*
X163946600Y-109038600D02*
X165309100Y-109038600D01*
X158609100Y-109713600D02*
X158645100Y-109677600D01*
%TO.N,Net-(D2-K)*%
X170250000Y-132750000D02*
X165400000Y-127900000D01*
X162070198Y-114226100D02*
X161596600Y-114226100D01*
X162321600Y-112363600D02*
X162321600Y-113188600D01*
X161596600Y-113913600D02*
X161596600Y-114226100D01*
X162346600Y-112338600D02*
X162321600Y-112363600D01*
X162321600Y-113188600D02*
X161596600Y-113913600D01*
X162346600Y-110738600D02*
X162346600Y-112338600D01*
X165400000Y-117555902D02*
X162070198Y-114226100D01*
X165400000Y-127900000D02*
X165400000Y-117555902D01*
%TO.N,Net-(D3-K)*%
X157695800Y-87307290D02*
X157695800Y-85921690D01*
X157695800Y-85921690D02*
X157835545Y-85781945D01*
X156070200Y-85673600D02*
X154347655Y-85673600D01*
X156178545Y-85781945D02*
X156070200Y-85673600D01*
X154347655Y-85673600D02*
X154165200Y-85491145D01*
X157835545Y-85781945D02*
X156178545Y-85781945D01*
X157479945Y-87523145D02*
X157695800Y-87307290D01*
%TO.N,Net-(D6-A)*%
X189166400Y-84850600D02*
X187262400Y-84850600D01*
X187262400Y-84850600D02*
X187261400Y-84849600D01*
%TO.N,/NEOPX*%
X200285203Y-82853101D02*
X202432102Y-85000000D01*
X202432102Y-85000000D02*
X204139692Y-85000000D01*
X204139692Y-85000000D02*
X204369846Y-84769846D01*
X199917000Y-82853101D02*
X200273466Y-82853101D01*
X200273466Y-82853101D02*
X200285203Y-82853101D01*
%TO.N,/Button*%
X195376823Y-79313232D02*
X195376823Y-79812923D01*
X175250000Y-89775000D02*
X180825000Y-84200000D01*
X195376823Y-79812923D02*
X195766701Y-80202801D01*
X194763591Y-78700000D02*
X195376823Y-79313232D01*
X180825000Y-81975000D02*
X181663636Y-81136364D01*
X169700000Y-110300000D02*
X171000000Y-109000000D01*
X164376000Y-114226100D02*
X163496600Y-114226100D01*
X172600000Y-89775000D02*
X175250000Y-89775000D01*
X189285771Y-79076842D02*
X189662613Y-78700000D01*
X182263636Y-81136364D02*
X184323158Y-79076842D01*
X189662613Y-78700000D02*
X194763591Y-78700000D01*
X180825000Y-84100000D02*
X180825000Y-81975000D01*
X180825000Y-84200000D02*
X180825000Y-84100000D01*
X184323158Y-79076842D02*
X189285771Y-79076842D01*
X171000000Y-91375000D02*
X172600000Y-89775000D01*
X171000000Y-109000000D02*
X171000000Y-91375000D01*
X181663636Y-81136364D02*
X182263636Y-81136364D01*
%TO.N,Net-(Q4-D)*%
X167096600Y-107305600D02*
X167596600Y-107805600D01*
X159856278Y-102348739D02*
X159106088Y-102348739D01*
X167596600Y-107805600D02*
X167596600Y-109426100D01*
X159106088Y-102348739D02*
X157492600Y-103962227D01*
X157492600Y-103962227D02*
X157492600Y-103987088D01*
X159913803Y-102291214D02*
X160618712Y-102291214D01*
X157492600Y-105398200D02*
X157492600Y-103987088D01*
X159856278Y-102348739D02*
X159913803Y-102291214D01*
%TO.N,Net-(U1-PROG)*%
X160070745Y-87523145D02*
X160070745Y-86290745D01*
X160070745Y-86290745D02*
X159601345Y-85821345D01*
%TO.N,Net-(U2-FB)*%
X163858013Y-102791213D02*
X163456213Y-102791213D01*
X158914976Y-98200000D02*
X158918088Y-98196888D01*
X164283400Y-103216600D02*
X163858013Y-102791213D01*
X164787688Y-103720888D02*
X164283400Y-103216600D01*
X165890888Y-103720888D02*
X164787688Y-103720888D01*
X157700000Y-98200000D02*
X158914976Y-98200000D01*
%TO.N,Net-(U7-GPIO8)*%
X191165708Y-83401800D02*
X189298808Y-81534900D01*
X195116400Y-83353102D02*
X195067702Y-83401800D01*
X186421200Y-81534900D02*
X189298808Y-81534900D01*
X195067702Y-83401800D02*
X191165708Y-83401800D01*
%TO.N,Net-(U7-GPIO2)*%
X196589443Y-79553155D02*
X196766699Y-79730411D01*
X196766699Y-79730411D02*
X196766699Y-80202801D01*
X189674400Y-79845800D02*
X186422200Y-79845800D01*
X196367813Y-79067813D02*
X196589443Y-79289443D01*
X194698859Y-79526223D02*
X194232636Y-79060000D01*
X194232636Y-79060000D02*
X190460200Y-79060000D01*
X190460200Y-79060000D02*
X189674400Y-79845800D01*
X196367813Y-79036896D02*
X196367813Y-79067813D01*
X196589443Y-79289443D02*
X196589443Y-79553155D01*
%TO.N,Net-(U7-GPIO9)*%
X186421200Y-83198600D02*
X187419800Y-82200000D01*
X188674800Y-82200000D02*
X189673400Y-83198600D01*
X190327901Y-83853101D02*
X195116400Y-83853101D01*
X189673400Y-83198600D02*
X190327901Y-83853101D01*
X187419800Y-82200000D02*
X188674800Y-82200000D01*
%TO.N,Net-(U7-GPIO10)*%
X195116400Y-84353100D02*
X191313900Y-84353100D01*
X191313900Y-84353100D02*
X189166400Y-86500600D01*
D81*
%TO.N,Net-(U7-XTAL_P)*%
X199917000Y-81853100D02*
X200697300Y-81853100D01*
X200697300Y-81853100D02*
X200986704Y-81563696D01*
X200986704Y-81563696D02*
X201697904Y-81563696D01*
D80*
%TO.N,Net-(D1-K)*%
X158609100Y-111613600D02*
X158796600Y-111613600D01*
X159721600Y-113263600D02*
X159721600Y-114613600D01*
X159721600Y-112538600D02*
X159721600Y-113263600D01*
X158796600Y-111613600D02*
X159721600Y-112538600D01*
X158046600Y-114988600D02*
X159796600Y-114988600D01*
X159721600Y-114613600D02*
X159946600Y-114838600D01*
X159796600Y-114988600D02*
X159946600Y-114838600D01*
D79*
%TO.N,Net-(D7-DOUT)*%
X184889600Y-78360400D02*
X183310600Y-78360400D01*
X183235600Y-78360400D02*
X181585600Y-80010400D01*
X184964600Y-78435400D02*
X184889600Y-78360400D01*
%TO.N,/NEO_Row2*%
X137116400Y-120578000D02*
X135466400Y-122228000D01*
X137191400Y-120578000D02*
X137116400Y-120578000D01*
%TO.N,Net-(D10-DIN)*%
X140291400Y-83512800D02*
X138641400Y-85162800D01*
X141400000Y-82479200D02*
X140366400Y-83512800D01*
X145517600Y-77647200D02*
X143452800Y-77647200D01*
X140366400Y-83512800D02*
X140291400Y-83512800D01*
X141400000Y-79700000D02*
X141400000Y-82479200D01*
X147167600Y-75997200D02*
X145517600Y-77647200D01*
X147242600Y-75997200D02*
X147167600Y-75997200D01*
X143452800Y-77647200D02*
X141400000Y-79700000D01*
%TO.N,Net-(D8-DOUT)*%
X175432351Y-79157351D02*
X175432351Y-74932351D01*
X175432351Y-74932351D02*
X174200000Y-73700000D01*
X161485700Y-75714300D02*
X151784700Y-75714300D01*
X174200000Y-73700000D02*
X163500000Y-73700000D01*
X150417600Y-74347200D02*
X150342600Y-74347200D01*
X151784700Y-75714300D02*
X150417600Y-74347200D01*
X150342600Y-74347200D02*
X148692600Y-75997200D01*
X178410600Y-81660400D02*
X177935400Y-81660400D01*
X180060600Y-80010400D02*
X178410600Y-81660400D01*
X163500000Y-73700000D02*
X161485700Y-75714300D01*
X177935400Y-81660400D02*
X175432351Y-79157351D01*
X180135600Y-80010400D02*
X180060600Y-80010400D01*
%TO.N,/NEO_Row2*%
X137116400Y-85162800D02*
X135466400Y-86812800D01*
X137191400Y-85162800D02*
X137116400Y-85162800D01*
%TO.N,Net-(D16-DOUT)*%
X138716400Y-120578000D02*
X140366400Y-118928000D01*
X145550000Y-131648600D02*
X145625000Y-131648600D01*
X142300000Y-128398600D02*
X145550000Y-131648600D01*
X145625000Y-131648600D02*
X147275000Y-129998600D01*
X140366400Y-118928000D02*
X141628000Y-118928000D01*
X142300000Y-119600000D02*
X142300000Y-128398600D01*
X141628000Y-118928000D02*
X142300000Y-119600000D01*
X138641400Y-120578000D02*
X138716400Y-120578000D01*
%TO.N,Net-(D17-DOUT)*%
X157554542Y-128300000D02*
X163954542Y-134700000D01*
X163954542Y-134700000D02*
X171346000Y-134700000D01*
X180060600Y-125985400D02*
X178410600Y-127635400D01*
X150498600Y-128300000D02*
X157554542Y-128300000D01*
X148725000Y-129998600D02*
X148800000Y-129998600D01*
X180135600Y-125985400D02*
X180060600Y-125985400D01*
X148800000Y-129998600D02*
X150450000Y-128348600D01*
X150450000Y-128348600D02*
X150498600Y-128300000D01*
X171346000Y-134700000D02*
X178410600Y-127635400D01*
%TO.N,Net-(D18-DOUT)*%
X181585600Y-125985400D02*
X181660600Y-125985400D01*
X181660600Y-125985400D02*
X183310600Y-124335400D01*
X195870000Y-124335400D02*
X198183400Y-122022000D01*
X183310600Y-124335400D02*
X195870000Y-124335400D01*
%TO.N,Net-(D29-K)*%
X159238502Y-103124400D02*
X160667600Y-103124400D01*
X165634328Y-107809000D02*
X163369900Y-107809000D01*
X157427800Y-107034200D02*
X155829400Y-105435800D01*
X166646600Y-111301100D02*
X165389900Y-111301100D01*
X163946600Y-110688600D02*
X163946600Y-112338600D01*
X160667600Y-103124400D02*
X160667600Y-103048200D01*
X162471000Y-106907900D02*
X162469900Y-106909000D01*
X161124600Y-107518800D02*
X157963200Y-107518800D01*
X157963200Y-107518800D02*
X157492600Y-107048200D01*
X157427800Y-107036000D02*
X158392600Y-106071200D01*
X166687400Y-111260300D02*
X166687400Y-108862072D01*
X165389900Y-111301100D02*
X164777400Y-110688600D01*
X157427800Y-107036000D02*
X157427800Y-107034200D01*
X166687400Y-108862072D02*
X165634328Y-107809000D01*
X158392600Y-103970302D02*
X159238502Y-103124400D01*
X163946600Y-112338600D02*
X163971600Y-112363600D01*
X162471000Y-105283400D02*
X162471000Y-106907900D01*
X163369900Y-107809000D02*
X162469900Y-106909000D01*
X164777400Y-110688600D02*
X163946600Y-110688600D01*
X160667600Y-103048200D02*
X160616800Y-102997400D01*
X161734400Y-106909000D02*
X161124600Y-107518800D01*
X158392600Y-106071200D02*
X158392600Y-103970302D01*
X166646600Y-111301100D02*
X166687400Y-111260300D01*
X162469900Y-106909000D02*
X161734400Y-106909000D01*
%TO.N,/B-*%
X147647500Y-93597500D02*
X148050000Y-94000000D01*
X147647500Y-90912500D02*
X147647500Y-93597500D01*
%TD*%
%TA.AperFunction,Conductor*%
%TO.N,/B-*%
G36*
X143219979Y-85019685D02*
G01*
X143265734Y-85072489D01*
X143275678Y-85141647D01*
X143246653Y-85205203D01*
X143240621Y-85211681D01*
X143121436Y-85330865D01*
X143121431Y-85330871D01*
X142985945Y-85524365D01*
X142985944Y-85524367D01*
X142886115Y-85738452D01*
X142886112Y-85738458D01*
X142828909Y-85951944D01*
X142828909Y-85951945D01*
X143726533Y-85951945D01*
X143693620Y-86008952D01*
X143659545Y-86136119D01*
X143659545Y-86267771D01*
X143693620Y-86394938D01*
X143726533Y-86451945D01*
X142828909Y-86451945D01*
X142886112Y-86665431D01*
X142886115Y-86665437D01*
X142985944Y-86879523D01*
X143121439Y-87073027D01*
X143288462Y-87240050D01*
X143481966Y-87375545D01*
X143696052Y-87475374D01*
X143696061Y-87475378D01*
X143909545Y-87532579D01*
X143909545Y-86634957D01*
X143966552Y-86667870D01*
X144093719Y-86701945D01*
X144225371Y-86701945D01*
X144352538Y-86667870D01*
X144409545Y-86634957D01*
X144409545Y-87532578D01*
X144623028Y-87475378D01*
X144623037Y-87475374D01*
X144837123Y-87375545D01*
X145030627Y-87240050D01*
X145197650Y-87073027D01*
X145333145Y-86879523D01*
X145432974Y-86665437D01*
X145432977Y-86665431D01*
X145490181Y-86451945D01*
X144592557Y-86451945D01*
X144625470Y-86394938D01*
X144659545Y-86267771D01*
X144659545Y-86136119D01*
X144625470Y-86008952D01*
X144592557Y-85951945D01*
X145490181Y-85951945D01*
X145490180Y-85951944D01*
X145432977Y-85738458D01*
X145432974Y-85738452D01*
X145333145Y-85524367D01*
X145333144Y-85524365D01*
X145197658Y-85330871D01*
X145197653Y-85330865D01*
X145078469Y-85211681D01*
X145044984Y-85150358D01*
X145049968Y-85080666D01*
X145091840Y-85024733D01*
X145157304Y-85000316D01*
X145166150Y-85000000D01*
X146157981Y-85000000D01*
X146225020Y-85019685D01*
X146245662Y-85036319D01*
X146253454Y-85044111D01*
X146253458Y-85044114D01*
X146368182Y-85120771D01*
X146368195Y-85120778D01*
X146495667Y-85173578D01*
X146495672Y-85173580D01*
X146495676Y-85173580D01*
X146495677Y-85173581D01*
X146631004Y-85200500D01*
X146631007Y-85200500D01*
X146768995Y-85200500D01*
X146860041Y-85182389D01*
X146904328Y-85173580D01*
X147031811Y-85120775D01*
X147146542Y-85044114D01*
X147146545Y-85044111D01*
X147154338Y-85036319D01*
X147215661Y-85002834D01*
X147242019Y-85000000D01*
X148072740Y-85000000D01*
X148139779Y-85019685D01*
X148185534Y-85072489D01*
X148195478Y-85141647D01*
X148166453Y-85205203D01*
X148160421Y-85211681D01*
X148015836Y-85356265D01*
X148015831Y-85356271D01*
X147880345Y-85549765D01*
X147880344Y-85549767D01*
X147780515Y-85763852D01*
X147780512Y-85763858D01*
X147723309Y-85977344D01*
X147723309Y-85977345D01*
X148620933Y-85977345D01*
X148588020Y-86034352D01*
X148553945Y-86161519D01*
X148553945Y-86293171D01*
X148588020Y-86420338D01*
X148620933Y-86477345D01*
X147723309Y-86477345D01*
X147780512Y-86690831D01*
X147780515Y-86690837D01*
X147880344Y-86904923D01*
X148015839Y-87098427D01*
X148182862Y-87265450D01*
X148376366Y-87400945D01*
X148590452Y-87500774D01*
X148590461Y-87500778D01*
X148803945Y-87557979D01*
X148803945Y-86660357D01*
X148860952Y-86693270D01*
X148988119Y-86727345D01*
X149119771Y-86727345D01*
X149246938Y-86693270D01*
X149303945Y-86660357D01*
X149303945Y-87557978D01*
X149517428Y-87500778D01*
X149517437Y-87500774D01*
X149731523Y-87400945D01*
X149925027Y-87265450D01*
X150092050Y-87098427D01*
X150227545Y-86904923D01*
X150327374Y-86690837D01*
X150327377Y-86690831D01*
X150384581Y-86477345D01*
X149486957Y-86477345D01*
X149519870Y-86420338D01*
X149553945Y-86293171D01*
X149553945Y-86161519D01*
X149519870Y-86034352D01*
X149486957Y-85977345D01*
X150384581Y-85977345D01*
X150384580Y-85977344D01*
X150327377Y-85763858D01*
X150327374Y-85763852D01*
X150227545Y-85549767D01*
X150227544Y-85549765D01*
X150092058Y-85356271D01*
X150092053Y-85356265D01*
X149947469Y-85211681D01*
X149913984Y-85150358D01*
X149918968Y-85080666D01*
X149960840Y-85024733D01*
X150026304Y-85000316D01*
X150035150Y-85000000D01*
X151076000Y-85000000D01*
X151143039Y-85019685D01*
X151188794Y-85072489D01*
X151200000Y-85124000D01*
X151200000Y-87834147D01*
X151180315Y-87901186D01*
X151132673Y-87944438D01*
X148302353Y-89398791D01*
X148245680Y-89412500D01*
X147897500Y-89412500D01*
X147897500Y-90364017D01*
X147879091Y-90353389D01*
X147726491Y-90312500D01*
X147568509Y-90312500D01*
X147415909Y-90353389D01*
X147397500Y-90364017D01*
X147397500Y-89412500D01*
X146599655Y-89412500D01*
X146540127Y-89418901D01*
X146540120Y-89418903D01*
X146405413Y-89469145D01*
X146405406Y-89469149D01*
X146290312Y-89555309D01*
X146290309Y-89555312D01*
X146204149Y-89670406D01*
X146204145Y-89670413D01*
X146153903Y-89805120D01*
X146153901Y-89805127D01*
X146147500Y-89864655D01*
X146147500Y-90662500D01*
X147099018Y-90662500D01*
X147088389Y-90680909D01*
X147047500Y-90833509D01*
X147047500Y-90991491D01*
X147088389Y-91144091D01*
X147099018Y-91162500D01*
X146147500Y-91162500D01*
X146147500Y-91960344D01*
X146153901Y-92019872D01*
X146153903Y-92019879D01*
X146204145Y-92154586D01*
X146204149Y-92154593D01*
X146290309Y-92269687D01*
X146290312Y-92269690D01*
X146405406Y-92355850D01*
X146405413Y-92355854D01*
X146540120Y-92406096D01*
X146540127Y-92406098D01*
X146599655Y-92412499D01*
X146599672Y-92412500D01*
X147397500Y-92412500D01*
X147397500Y-91460982D01*
X147415909Y-91471611D01*
X147568509Y-91512500D01*
X147726491Y-91512500D01*
X147879091Y-91471611D01*
X147897500Y-91460982D01*
X147897500Y-92412500D01*
X148176000Y-92412500D01*
X148243039Y-92432185D01*
X148288794Y-92484989D01*
X148300000Y-92536500D01*
X148300000Y-92976000D01*
X148280315Y-93043039D01*
X148227511Y-93088794D01*
X148176000Y-93100000D01*
X146555225Y-93100000D01*
X146488186Y-93080315D01*
X146463057Y-93058952D01*
X142031832Y-88135368D01*
X142001616Y-88072369D01*
X142000000Y-88052416D01*
X142000000Y-85124000D01*
X142019685Y-85056961D01*
X142072489Y-85011206D01*
X142124000Y-85000000D01*
X143152940Y-85000000D01*
X143219979Y-85019685D01*
G37*
%TD.AperFunction*%
%TD*%
%TA.AperFunction,Conductor*%
%TO.N,GND*%
G36*
X161296695Y-85053952D02*
G01*
X161486993Y-85244250D01*
X161501345Y-85278898D01*
X161501345Y-85571345D01*
X161755977Y-85571345D01*
X161782716Y-85560269D01*
X161817364Y-85574621D01*
X162985148Y-86742405D01*
X162999500Y-86777053D01*
X162999500Y-88189546D01*
X162985148Y-88224194D01*
X162403769Y-88805572D01*
X162369121Y-88819924D01*
X162368805Y-88819923D01*
X162219285Y-88818959D01*
X162184730Y-88804384D01*
X162170602Y-88769644D01*
X162185177Y-88735089D01*
X162213208Y-88721379D01*
X162225741Y-88719729D01*
X162333615Y-88669426D01*
X162417771Y-88585270D01*
X162468074Y-88477396D01*
X162474544Y-88428243D01*
X162474545Y-88428241D01*
X162474545Y-88338700D01*
X161324546Y-88338700D01*
X161324546Y-88428244D01*
X161331015Y-88477396D01*
X161381318Y-88585270D01*
X161465474Y-88669426D01*
X161465476Y-88669427D01*
X161576650Y-88721269D01*
X161601987Y-88748919D01*
X161600351Y-88786386D01*
X161572701Y-88811723D01*
X161555626Y-88814677D01*
X160846447Y-88810102D01*
X160805681Y-88813918D01*
X160786632Y-88817643D01*
X160786631Y-88817643D01*
X160758202Y-88825352D01*
X160680762Y-88874004D01*
X160654238Y-88900524D01*
X160653621Y-88901393D01*
X160653048Y-88902201D01*
X160621294Y-88922153D01*
X160613087Y-88922845D01*
X159542601Y-88922845D01*
X159507953Y-88908493D01*
X159500946Y-88899649D01*
X159491429Y-88884283D01*
X159448564Y-88853450D01*
X159417187Y-88830880D01*
X159415025Y-88829968D01*
X159382632Y-88816304D01*
X159382630Y-88816303D01*
X159382629Y-88816303D01*
X159304089Y-88800152D01*
X159304093Y-88800152D01*
X159109660Y-88798898D01*
X159109659Y-88798898D01*
X159109658Y-88798898D01*
X159107998Y-88798944D01*
X159095540Y-88799292D01*
X159088903Y-88799705D01*
X159074853Y-88801066D01*
X159002977Y-88810529D01*
X159002975Y-88810529D01*
X158938899Y-88829968D01*
X158910656Y-88843898D01*
X158910653Y-88843900D01*
X158866054Y-88874004D01*
X158864618Y-88874973D01*
X158864615Y-88874975D01*
X158811696Y-88949557D01*
X158796422Y-88986432D01*
X158794998Y-88985842D01*
X158773986Y-89011203D01*
X158750958Y-89016881D01*
X158725314Y-89016812D01*
X158690705Y-89002367D01*
X158677437Y-88977616D01*
X158676457Y-88972814D01*
X158666619Y-88949560D01*
X158661848Y-88938282D01*
X158661846Y-88938278D01*
X158624783Y-88880267D01*
X158624781Y-88880265D01*
X158549801Y-88827905D01*
X158549799Y-88827904D01*
X158515047Y-88813815D01*
X158515045Y-88813814D01*
X158515044Y-88813814D01*
X158515039Y-88813813D01*
X158436284Y-88798763D01*
X158436282Y-88798763D01*
X158264313Y-88800059D01*
X158229559Y-88785970D01*
X158214946Y-88751431D01*
X158214945Y-88751061D01*
X158214945Y-88712945D01*
X156744946Y-88712945D01*
X156744946Y-88752188D01*
X156745170Y-88753315D01*
X156745094Y-88753695D01*
X156745182Y-88754585D01*
X156744912Y-88754611D01*
X156737853Y-88790097D01*
X156706670Y-88810933D01*
X156697480Y-88811873D01*
X156504268Y-88813330D01*
X156469513Y-88799240D01*
X156454900Y-88764700D01*
X156454908Y-88763411D01*
X156474425Y-87798009D01*
X156489474Y-87763659D01*
X156523415Y-87750000D01*
X156595445Y-87750000D01*
X156630093Y-87764352D01*
X156644445Y-87799000D01*
X156644445Y-87822293D01*
X156656078Y-87880776D01*
X156673827Y-87907340D01*
X156700392Y-87947097D01*
X156726957Y-87964846D01*
X156766714Y-87991412D01*
X156794508Y-87996940D01*
X156825689Y-88017774D01*
X156833007Y-88054556D01*
X156812172Y-88085739D01*
X156807932Y-88088006D01*
X156772847Y-88111449D01*
X156750747Y-88144525D01*
X156744945Y-88173699D01*
X156744945Y-88212945D01*
X158214944Y-88212945D01*
X158214944Y-88173700D01*
X158214943Y-88173699D01*
X158209142Y-88144526D01*
X158209140Y-88144522D01*
X158187040Y-88111447D01*
X158149951Y-88086666D01*
X158151005Y-88085087D01*
X158129669Y-88063749D01*
X158129670Y-88026246D01*
X158156190Y-87999728D01*
X158165373Y-87996942D01*
X158193176Y-87991412D01*
X158259497Y-87947097D01*
X158303812Y-87880776D01*
X158315445Y-87822293D01*
X158315445Y-87799000D01*
X158329797Y-87764352D01*
X158364445Y-87750000D01*
X159186245Y-87750000D01*
X159220893Y-87764352D01*
X159235245Y-87799000D01*
X159235245Y-87822293D01*
X159246878Y-87880776D01*
X159264627Y-87907340D01*
X159291192Y-87947097D01*
X159317757Y-87964846D01*
X159357514Y-87991412D01*
X159415997Y-88003045D01*
X159416000Y-88003045D01*
X160725490Y-88003045D01*
X160725493Y-88003045D01*
X160783976Y-87991412D01*
X160850297Y-87947097D01*
X160894612Y-87880776D01*
X160906245Y-87822293D01*
X160906245Y-87749156D01*
X161324545Y-87749156D01*
X161324545Y-87838700D01*
X161649545Y-87838700D01*
X162149545Y-87838700D01*
X162474544Y-87838700D01*
X162474544Y-87749161D01*
X162474543Y-87749155D01*
X162468074Y-87700003D01*
X162417771Y-87592129D01*
X162333615Y-87507973D01*
X162225741Y-87457670D01*
X162176588Y-87451200D01*
X162149545Y-87451200D01*
X162149545Y-87838700D01*
X161649545Y-87838700D01*
X161649545Y-87451200D01*
X161649544Y-87451199D01*
X161622506Y-87451200D01*
X161622499Y-87451201D01*
X161573348Y-87457670D01*
X161465474Y-87507973D01*
X161381318Y-87592129D01*
X161331015Y-87700003D01*
X161324545Y-87749156D01*
X160906245Y-87749156D01*
X160906245Y-87223997D01*
X160894612Y-87165514D01*
X160879058Y-87142236D01*
X160870800Y-87115013D01*
X160870800Y-86419769D01*
X160885152Y-86385121D01*
X160919800Y-86370769D01*
X160939592Y-86374944D01*
X160981469Y-86393434D01*
X160981467Y-86393434D01*
X161001345Y-86395739D01*
X161001345Y-86395738D01*
X161501345Y-86395738D01*
X161521221Y-86393434D01*
X161623824Y-86348131D01*
X161703131Y-86268824D01*
X161748435Y-86166218D01*
X161751343Y-86141155D01*
X161751345Y-86141135D01*
X161751345Y-86071345D01*
X161501345Y-86071345D01*
X161501345Y-86395738D01*
X161001345Y-86395738D01*
X161001345Y-85246949D01*
X160981467Y-85249255D01*
X160939591Y-85267745D01*
X160902098Y-85268611D01*
X160874975Y-85242711D01*
X160870800Y-85222920D01*
X160870800Y-85088600D01*
X160885152Y-85053952D01*
X160919800Y-85039600D01*
X161262047Y-85039600D01*
X161296695Y-85053952D01*
G37*
%TD.AperFunction*%
%TD*%
%TA.AperFunction,Conductor*%
%TO.N,+9V*%
G36*
X161208215Y-92980092D02*
G01*
X161222700Y-93014685D01*
X161222700Y-93569646D01*
X161222701Y-93569667D01*
X161225474Y-93599242D01*
X161225475Y-93599251D01*
X161249987Y-93669300D01*
X161269084Y-93723875D01*
X161269085Y-93723877D01*
X161269084Y-93723877D01*
X161347488Y-93830111D01*
X161453722Y-93908514D01*
X161453725Y-93908516D01*
X161526669Y-93934040D01*
X161554632Y-93959030D01*
X161559485Y-93980151D01*
X161577474Y-100312074D01*
X161563221Y-100346763D01*
X161528613Y-100361213D01*
X161193713Y-100361213D01*
X161161264Y-100366352D01*
X161108766Y-100404495D01*
X161108765Y-100404497D01*
X161088713Y-100466214D01*
X161088713Y-100786212D01*
X161145486Y-100729440D01*
X161180134Y-100715088D01*
X161214782Y-100729440D01*
X161500486Y-101015144D01*
X161514838Y-101049792D01*
X161500486Y-101084440D01*
X161393713Y-101191213D01*
X161500485Y-101297985D01*
X161514837Y-101332633D01*
X161500485Y-101367281D01*
X161412633Y-101455133D01*
X161412633Y-101455134D01*
X161425485Y-101467986D01*
X161439837Y-101502634D01*
X161425485Y-101537282D01*
X161139781Y-101822985D01*
X161105133Y-101837337D01*
X161070485Y-101822985D01*
X160963713Y-101716213D01*
X160856940Y-101822986D01*
X160822292Y-101837338D01*
X160787644Y-101822986D01*
X160501940Y-101537282D01*
X160487588Y-101502634D01*
X160501940Y-101467986D01*
X160558713Y-101411213D01*
X160338713Y-101411213D01*
X160306264Y-101416352D01*
X160253766Y-101454495D01*
X160253765Y-101454497D01*
X160233713Y-101516214D01*
X160233713Y-101845103D01*
X160219361Y-101879751D01*
X160184713Y-101894103D01*
X160154885Y-101883978D01*
X160133903Y-101867878D01*
X160133900Y-101867877D01*
X160133898Y-101867875D01*
X159999986Y-101812408D01*
X159856278Y-101793489D01*
X159712569Y-101812408D01*
X159578653Y-101867877D01*
X159553526Y-101887157D01*
X159523510Y-101897281D01*
X158108852Y-101891840D01*
X158074392Y-101877488D01*
X158005942Y-101809038D01*
X158005935Y-101809033D01*
X157892908Y-101751443D01*
X157892905Y-101751442D01*
X157892904Y-101751442D01*
X157799119Y-101736588D01*
X157799117Y-101736588D01*
X157186082Y-101736588D01*
X157092296Y-101751441D01*
X156979264Y-101809033D01*
X156979260Y-101809036D01*
X156915529Y-101872766D01*
X156880880Y-101887117D01*
X156880693Y-101887117D01*
X155026672Y-101879987D01*
X154992079Y-101865502D01*
X154977860Y-101831129D01*
X154976095Y-101213370D01*
X161088713Y-101213370D01*
X161110871Y-101191213D01*
X161088713Y-101169055D01*
X161088713Y-101213370D01*
X154976095Y-101213370D01*
X154972905Y-100096888D01*
X158343693Y-100096888D01*
X158345998Y-100116764D01*
X158391301Y-100219367D01*
X158470608Y-100298674D01*
X158573214Y-100343978D01*
X158598277Y-100346886D01*
X158598297Y-100346887D01*
X158668087Y-100346887D01*
X159168088Y-100346887D01*
X159237876Y-100346887D01*
X159237882Y-100346886D01*
X159262964Y-100343977D01*
X159365567Y-100298674D01*
X159444874Y-100219367D01*
X159490177Y-100116764D01*
X159492484Y-100096888D01*
X159168088Y-100096888D01*
X159168088Y-100346887D01*
X158668087Y-100346887D01*
X158668088Y-100346886D01*
X158668088Y-100096888D01*
X158343693Y-100096888D01*
X154972905Y-100096888D01*
X154971477Y-99596888D01*
X158343692Y-99596888D01*
X158668088Y-99596888D01*
X159168088Y-99596888D01*
X159492482Y-99596888D01*
X159490177Y-99577011D01*
X159444874Y-99474408D01*
X159365567Y-99395101D01*
X159365568Y-99395101D01*
X159262961Y-99349797D01*
X159237898Y-99346889D01*
X159237878Y-99346888D01*
X159168088Y-99346888D01*
X159168088Y-99596888D01*
X158668088Y-99596888D01*
X158668088Y-99346888D01*
X158598300Y-99346888D01*
X158598293Y-99346889D01*
X158573211Y-99349798D01*
X158470608Y-99395101D01*
X158391301Y-99474408D01*
X158345998Y-99577011D01*
X158343692Y-99596888D01*
X154971477Y-99596888D01*
X154970300Y-99185044D01*
X160030101Y-99185044D01*
X160036570Y-99234196D01*
X160086873Y-99342070D01*
X160171029Y-99426226D01*
X160278903Y-99476529D01*
X160328057Y-99482999D01*
X160417599Y-99482999D01*
X160917600Y-99482999D01*
X161007139Y-99482999D01*
X161007144Y-99482998D01*
X161056296Y-99476529D01*
X161164170Y-99426226D01*
X161248326Y-99342070D01*
X161298629Y-99234196D01*
X161305099Y-99185043D01*
X161305100Y-99185041D01*
X161305100Y-99158000D01*
X160917600Y-99158000D01*
X160917600Y-99482999D01*
X160417599Y-99482999D01*
X160417600Y-99482998D01*
X160417600Y-99158000D01*
X160030101Y-99158000D01*
X160030101Y-99185044D01*
X154970300Y-99185044D01*
X154967486Y-98200000D01*
X157144750Y-98200000D01*
X157163669Y-98343708D01*
X157219136Y-98477620D01*
X157219139Y-98477625D01*
X157253333Y-98522188D01*
X157307379Y-98592621D01*
X157422375Y-98680861D01*
X157422377Y-98680861D01*
X157422379Y-98680863D01*
X157556291Y-98736330D01*
X157700000Y-98755250D01*
X157843709Y-98736330D01*
X157977625Y-98680861D01*
X158092621Y-98592621D01*
X158163945Y-98499669D01*
X158196423Y-98480919D01*
X158202819Y-98480500D01*
X158208988Y-98480500D01*
X158243636Y-98494852D01*
X158255774Y-98518673D01*
X158256248Y-98518520D01*
X158257220Y-98521512D01*
X158257384Y-98521833D01*
X158257440Y-98522188D01*
X158257441Y-98522190D01*
X158315033Y-98635223D01*
X158315038Y-98635230D01*
X158404745Y-98724937D01*
X158404752Y-98724942D01*
X158517779Y-98782532D01*
X158517780Y-98782532D01*
X158517784Y-98782534D01*
X158611569Y-98797388D01*
X159224606Y-98797387D01*
X159318392Y-98782534D01*
X159379475Y-98751410D01*
X159431423Y-98724942D01*
X159431425Y-98724940D01*
X159431430Y-98724938D01*
X159521138Y-98635230D01*
X159521142Y-98635223D01*
X159523316Y-98630956D01*
X160030100Y-98630956D01*
X160030100Y-98658000D01*
X160417600Y-98658000D01*
X160917600Y-98658000D01*
X161305099Y-98658000D01*
X161305099Y-98630961D01*
X161305098Y-98630955D01*
X161298629Y-98581803D01*
X161248326Y-98473929D01*
X161164170Y-98389773D01*
X161056296Y-98339470D01*
X161007143Y-98333000D01*
X160917600Y-98333000D01*
X160917600Y-98658000D01*
X160417600Y-98658000D01*
X160417600Y-98333000D01*
X160328059Y-98333000D01*
X160328054Y-98333001D01*
X160278903Y-98339470D01*
X160171029Y-98389773D01*
X160086873Y-98473929D01*
X160036570Y-98581803D01*
X160030100Y-98630956D01*
X159523316Y-98630956D01*
X159578732Y-98522197D01*
X159578732Y-98522195D01*
X159578734Y-98522192D01*
X159593588Y-98428407D01*
X159593587Y-97965370D01*
X159578734Y-97871584D01*
X159546020Y-97807379D01*
X159521142Y-97758552D01*
X159521137Y-97758545D01*
X159431430Y-97668838D01*
X159431423Y-97668833D01*
X159318396Y-97611243D01*
X159318393Y-97611242D01*
X159318392Y-97611242D01*
X159224607Y-97596388D01*
X159224605Y-97596388D01*
X158611570Y-97596388D01*
X158517784Y-97611241D01*
X158404752Y-97668833D01*
X158404745Y-97668838D01*
X158315038Y-97758545D01*
X158315033Y-97758552D01*
X158257443Y-97871578D01*
X158257441Y-97871585D01*
X158256399Y-97878167D01*
X158236803Y-97910143D01*
X158208003Y-97919500D01*
X158202819Y-97919500D01*
X158168171Y-97905148D01*
X158163945Y-97900330D01*
X158141888Y-97871585D01*
X158092621Y-97807379D01*
X158092619Y-97807378D01*
X158092619Y-97807377D01*
X157977625Y-97719139D01*
X157977620Y-97719136D01*
X157843708Y-97663669D01*
X157700000Y-97644750D01*
X157556291Y-97663669D01*
X157422379Y-97719136D01*
X157422374Y-97719139D01*
X157307379Y-97807378D01*
X157307378Y-97807379D01*
X157219139Y-97922374D01*
X157219136Y-97922379D01*
X157163669Y-98056291D01*
X157144750Y-98200000D01*
X154967486Y-98200000D01*
X154958768Y-95148800D01*
X156548052Y-95148800D01*
X156567812Y-95399872D01*
X156626603Y-95644754D01*
X156722982Y-95877434D01*
X156722984Y-95877437D01*
X156854561Y-96092152D01*
X156854568Y-96092162D01*
X156855266Y-96092979D01*
X157475421Y-95472824D01*
X157488359Y-95504058D01*
X157570437Y-95626897D01*
X157674903Y-95731363D01*
X157797742Y-95813441D01*
X157828974Y-95826377D01*
X157208819Y-96446532D01*
X157209637Y-96447231D01*
X157424362Y-96578815D01*
X157424365Y-96578817D01*
X157657045Y-96675196D01*
X157901927Y-96733987D01*
X158153000Y-96753747D01*
X158404072Y-96733987D01*
X158648954Y-96675196D01*
X158881634Y-96578817D01*
X158881637Y-96578815D01*
X159096360Y-96447232D01*
X159096369Y-96447226D01*
X159097179Y-96446533D01*
X159097180Y-96446532D01*
X158477025Y-95826378D01*
X158508258Y-95813441D01*
X158631097Y-95731363D01*
X158735563Y-95626897D01*
X158817641Y-95504058D01*
X158830578Y-95472825D01*
X159450732Y-96092980D01*
X159450733Y-96092979D01*
X159451426Y-96092169D01*
X159451432Y-96092160D01*
X159583015Y-95877437D01*
X159583017Y-95877434D01*
X159679396Y-95644754D01*
X159738187Y-95399872D01*
X159757947Y-95148800D01*
X159738187Y-94897727D01*
X159679396Y-94652845D01*
X159583017Y-94420165D01*
X159583015Y-94420162D01*
X159451431Y-94205437D01*
X159450732Y-94204619D01*
X158830577Y-94824773D01*
X158817641Y-94793542D01*
X158735563Y-94670703D01*
X158631097Y-94566237D01*
X158508258Y-94484159D01*
X158477023Y-94471221D01*
X159097179Y-93851066D01*
X159096362Y-93850368D01*
X159096352Y-93850361D01*
X158881637Y-93718784D01*
X158881634Y-93718782D01*
X158648954Y-93622403D01*
X158404072Y-93563612D01*
X158153000Y-93543852D01*
X157901927Y-93563612D01*
X157657045Y-93622403D01*
X157424365Y-93718782D01*
X157424362Y-93718784D01*
X157209641Y-93850364D01*
X157209632Y-93850371D01*
X157208819Y-93851065D01*
X157208819Y-93851066D01*
X157828974Y-94471221D01*
X157797742Y-94484159D01*
X157674903Y-94566237D01*
X157570437Y-94670703D01*
X157488359Y-94793542D01*
X157475421Y-94824774D01*
X156855266Y-94204619D01*
X156855265Y-94204619D01*
X156854571Y-94205432D01*
X156854564Y-94205441D01*
X156722984Y-94420162D01*
X156722982Y-94420165D01*
X156626603Y-94652845D01*
X156567812Y-94897727D01*
X156548052Y-95148800D01*
X154958768Y-95148800D01*
X154954081Y-93508208D01*
X154968331Y-93473525D01*
X155227005Y-93214852D01*
X155261653Y-93200500D01*
X158559394Y-93200500D01*
X158694728Y-93173580D01*
X158822211Y-93120775D01*
X158936943Y-93044114D01*
X158992579Y-92988477D01*
X159027032Y-92974129D01*
X161173513Y-92965873D01*
X161208215Y-92980092D01*
G37*
%TD.AperFunction*%
%TD*%
%TA.AperFunction,Conductor*%
%TO.N,GND*%
G36*
X164918804Y-92014352D02*
G01*
X165479948Y-92575496D01*
X165494300Y-92610144D01*
X165494300Y-93906520D01*
X165495155Y-93913011D01*
X165509112Y-94019035D01*
X165567099Y-94159028D01*
X165567102Y-94159033D01*
X165654828Y-94273360D01*
X165659349Y-94279251D01*
X165779567Y-94371498D01*
X165779569Y-94371498D01*
X165779571Y-94371500D01*
X165878054Y-94412293D01*
X165919564Y-94429487D01*
X166032080Y-94444300D01*
X166032084Y-94444300D01*
X166857516Y-94444300D01*
X166857520Y-94444300D01*
X166970036Y-94429487D01*
X167110033Y-94371498D01*
X167230251Y-94279251D01*
X167322498Y-94159033D01*
X167380487Y-94019036D01*
X167395300Y-93906520D01*
X167395300Y-92581080D01*
X167380487Y-92468564D01*
X167322498Y-92328567D01*
X167230251Y-92208349D01*
X167154054Y-92149881D01*
X167110033Y-92116102D01*
X167110031Y-92116101D01*
X167057326Y-92094270D01*
X167030808Y-92067751D01*
X167030808Y-92030248D01*
X167057327Y-92003730D01*
X167076078Y-92000000D01*
X168113522Y-92000000D01*
X168148170Y-92014352D01*
X168162522Y-92049000D01*
X168148170Y-92083648D01*
X168132274Y-92094270D01*
X168079568Y-92116101D01*
X168079566Y-92116102D01*
X167959349Y-92208348D01*
X167959348Y-92208349D01*
X167867102Y-92328566D01*
X167867099Y-92328571D01*
X167809112Y-92468564D01*
X167802763Y-92516797D01*
X167794300Y-92581080D01*
X167794300Y-93906520D01*
X167795155Y-93913011D01*
X167809112Y-94019035D01*
X167867099Y-94159028D01*
X167867102Y-94159033D01*
X167954828Y-94273360D01*
X167959349Y-94279251D01*
X168079567Y-94371498D01*
X168079569Y-94371498D01*
X168079571Y-94371500D01*
X168178054Y-94412293D01*
X168219564Y-94429487D01*
X168332080Y-94444300D01*
X168332084Y-94444300D01*
X169157516Y-94444300D01*
X169157520Y-94444300D01*
X169270036Y-94429487D01*
X169281295Y-94424822D01*
X169318797Y-94424821D01*
X169334696Y-94435444D01*
X169443309Y-94544057D01*
X169457661Y-94578705D01*
X169443309Y-94613353D01*
X169413238Y-94627491D01*
X169402755Y-94628474D01*
X169402748Y-94628475D01*
X169278122Y-94672085D01*
X169171888Y-94750488D01*
X169093485Y-94856722D01*
X169049875Y-94981348D01*
X169049874Y-94981357D01*
X169047101Y-95010932D01*
X169047100Y-95010953D01*
X169047100Y-95591446D01*
X169047101Y-95591467D01*
X169049874Y-95621042D01*
X169049875Y-95621051D01*
X169073806Y-95689440D01*
X169093484Y-95745675D01*
X169093485Y-95745677D01*
X169093484Y-95745677D01*
X169171888Y-95851911D01*
X169219139Y-95886783D01*
X169278125Y-95930316D01*
X169359388Y-95958751D01*
X169378339Y-95965383D01*
X169406303Y-95990373D01*
X169408405Y-96027817D01*
X169407425Y-96030384D01*
X169353555Y-96160438D01*
X169332918Y-96317200D01*
X169353555Y-96473961D01*
X169414061Y-96620036D01*
X169414064Y-96620041D01*
X169486512Y-96714458D01*
X169510318Y-96745482D01*
X169635759Y-96841736D01*
X169635761Y-96841736D01*
X169635763Y-96841738D01*
X169653095Y-96848917D01*
X169781838Y-96902244D01*
X169938600Y-96922882D01*
X170095362Y-96902244D01*
X170241441Y-96841736D01*
X170366882Y-96745482D01*
X170463136Y-96620041D01*
X170523644Y-96473962D01*
X170544282Y-96317200D01*
X170523644Y-96160438D01*
X170469774Y-96030384D01*
X170463138Y-96014363D01*
X170463137Y-96014362D01*
X170463136Y-96014359D01*
X170390506Y-95919706D01*
X170380801Y-95883482D01*
X170396867Y-95855654D01*
X170395717Y-95854504D01*
X170398303Y-95851916D01*
X170398311Y-95851911D01*
X170476716Y-95745675D01*
X170520325Y-95621049D01*
X170523100Y-95591456D01*
X170523100Y-95010944D01*
X170520325Y-94981351D01*
X170476716Y-94856725D01*
X170476714Y-94856722D01*
X170476715Y-94856722D01*
X170398312Y-94750489D01*
X170384002Y-94739928D01*
X170364647Y-94707805D01*
X170364100Y-94700503D01*
X170364100Y-94381579D01*
X170364099Y-94381578D01*
X170339556Y-94289983D01*
X170335103Y-94273363D01*
X170335102Y-94273362D01*
X170335102Y-94273360D01*
X170279084Y-94176336D01*
X169709652Y-93606904D01*
X169695300Y-93572256D01*
X169695300Y-92581083D01*
X169695078Y-92579400D01*
X169680487Y-92468564D01*
X169622498Y-92328567D01*
X169530251Y-92208349D01*
X169454054Y-92149881D01*
X169410033Y-92116102D01*
X169410031Y-92116101D01*
X169357326Y-92094270D01*
X169330808Y-92067751D01*
X169330808Y-92030248D01*
X169357327Y-92003730D01*
X169376078Y-92000000D01*
X170670500Y-92000000D01*
X170705148Y-92014352D01*
X170719500Y-92049000D01*
X170719500Y-107698200D01*
X170705148Y-107732848D01*
X170670500Y-107747200D01*
X167908946Y-107747200D01*
X167874298Y-107732848D01*
X167861616Y-107710884D01*
X167857984Y-107697331D01*
X167857982Y-107697328D01*
X167821060Y-107633375D01*
X167821057Y-107633372D01*
X167821056Y-107633369D01*
X167768831Y-107581144D01*
X167768830Y-107581143D01*
X167650488Y-107462802D01*
X167636137Y-107428155D01*
X167636556Y-107421759D01*
X167651850Y-107305600D01*
X167632930Y-107161891D01*
X167618581Y-107127249D01*
X167577463Y-107027979D01*
X167577460Y-107027974D01*
X167522571Y-106956442D01*
X167489221Y-106912979D01*
X167374225Y-106824739D01*
X167374220Y-106824736D01*
X167240308Y-106769269D01*
X167096600Y-106750350D01*
X166952891Y-106769269D01*
X166818979Y-106824736D01*
X166818974Y-106824739D01*
X166703979Y-106912978D01*
X166703978Y-106912979D01*
X166615739Y-107027974D01*
X166615736Y-107027979D01*
X166560269Y-107161891D01*
X166541350Y-107305600D01*
X166560269Y-107449308D01*
X166615736Y-107583220D01*
X166615739Y-107583225D01*
X166681074Y-107668371D01*
X166690781Y-107704596D01*
X166672029Y-107737074D01*
X166642200Y-107747200D01*
X166194572Y-107747200D01*
X166159924Y-107732848D01*
X165895591Y-107468515D01*
X165798567Y-107412497D01*
X165798563Y-107412496D01*
X165690349Y-107383500D01*
X165690346Y-107383500D01*
X164981593Y-107383500D01*
X164946945Y-107369148D01*
X164932593Y-107334500D01*
X164946945Y-107299852D01*
X165005326Y-107241470D01*
X165055629Y-107133596D01*
X165062099Y-107084443D01*
X165062100Y-107084441D01*
X165062100Y-107057400D01*
X163787101Y-107057400D01*
X163787101Y-107084444D01*
X163793570Y-107133596D01*
X163843873Y-107241470D01*
X163902255Y-107299852D01*
X163916607Y-107334500D01*
X163902255Y-107369148D01*
X163867607Y-107383500D01*
X163566443Y-107383500D01*
X163531795Y-107369148D01*
X163475952Y-107313305D01*
X163461600Y-107278657D01*
X163461600Y-106530356D01*
X163787100Y-106530356D01*
X163787100Y-106557400D01*
X164174600Y-106557400D01*
X164674600Y-106557400D01*
X165062099Y-106557400D01*
X165062099Y-106530361D01*
X165062098Y-106530355D01*
X165055629Y-106481203D01*
X165005326Y-106373329D01*
X164921170Y-106289173D01*
X164813296Y-106238870D01*
X164764143Y-106232400D01*
X164674600Y-106232400D01*
X164674600Y-106557400D01*
X164174600Y-106557400D01*
X164174600Y-106232400D01*
X164085059Y-106232400D01*
X164085054Y-106232401D01*
X164035903Y-106238870D01*
X163928029Y-106289173D01*
X163843873Y-106373329D01*
X163793570Y-106481203D01*
X163787100Y-106530356D01*
X163461600Y-106530356D01*
X163461600Y-105560444D01*
X163788201Y-105560444D01*
X163794670Y-105609596D01*
X163844973Y-105717470D01*
X163929129Y-105801626D01*
X164037003Y-105851929D01*
X164086157Y-105858399D01*
X164175699Y-105858399D01*
X164675700Y-105858399D01*
X164765239Y-105858399D01*
X164765244Y-105858398D01*
X164814396Y-105851929D01*
X164922270Y-105801626D01*
X165006426Y-105717470D01*
X165056729Y-105609596D01*
X165063199Y-105560443D01*
X165063200Y-105560441D01*
X165063200Y-105533400D01*
X164675700Y-105533400D01*
X164675700Y-105858399D01*
X164175699Y-105858399D01*
X164175700Y-105858398D01*
X164175700Y-105533400D01*
X163788201Y-105533400D01*
X163788201Y-105560444D01*
X163461600Y-105560444D01*
X163461600Y-104773600D01*
X163475952Y-104738952D01*
X163510600Y-104724600D01*
X163851407Y-104724600D01*
X163886055Y-104738952D01*
X163900407Y-104773600D01*
X163886055Y-104808248D01*
X163844973Y-104849329D01*
X163794670Y-104957203D01*
X163788200Y-105006356D01*
X163788200Y-105033400D01*
X165063199Y-105033400D01*
X165063199Y-105006361D01*
X165063198Y-105006355D01*
X165056729Y-104957203D01*
X165006426Y-104849329D01*
X164965345Y-104808248D01*
X164950993Y-104773600D01*
X164965345Y-104738952D01*
X164999993Y-104724600D01*
X165044217Y-104724600D01*
X165078865Y-104738952D01*
X165256976Y-104917063D01*
X165271328Y-104951711D01*
X165271114Y-104956284D01*
X165268889Y-104980017D01*
X165268888Y-104980041D01*
X165268888Y-105560534D01*
X165268889Y-105560555D01*
X165271662Y-105590130D01*
X165271663Y-105590139D01*
X165276251Y-105603249D01*
X165315272Y-105714763D01*
X165315273Y-105714765D01*
X165315272Y-105714765D01*
X165393676Y-105820999D01*
X165499910Y-105899402D01*
X165499913Y-105899404D01*
X165624539Y-105943013D01*
X165654132Y-105945788D01*
X165654142Y-105945788D01*
X166359634Y-105945788D01*
X166359644Y-105945788D01*
X166389237Y-105943013D01*
X166513863Y-105899404D01*
X166620099Y-105820999D01*
X166698504Y-105714763D01*
X166742113Y-105590137D01*
X166744888Y-105560544D01*
X166744888Y-105547332D01*
X167094389Y-105547332D01*
X167100858Y-105596484D01*
X167151161Y-105704358D01*
X167235317Y-105788514D01*
X167343191Y-105838817D01*
X167392345Y-105845287D01*
X167481887Y-105845287D01*
X167981888Y-105845287D01*
X168071427Y-105845287D01*
X168071432Y-105845286D01*
X168120584Y-105838817D01*
X168228458Y-105788514D01*
X168312614Y-105704358D01*
X168362917Y-105596484D01*
X168369387Y-105547331D01*
X168369388Y-105547329D01*
X168369388Y-105520288D01*
X167981888Y-105520288D01*
X167981888Y-105845287D01*
X167481887Y-105845287D01*
X167481888Y-105845286D01*
X167481888Y-105520288D01*
X167094389Y-105520288D01*
X167094389Y-105547332D01*
X166744888Y-105547332D01*
X166744888Y-104993244D01*
X167094388Y-104993244D01*
X167094388Y-105020288D01*
X167481888Y-105020288D01*
X167981888Y-105020288D01*
X168369387Y-105020288D01*
X168369387Y-104993249D01*
X168369386Y-104993243D01*
X168362917Y-104944091D01*
X168312614Y-104836217D01*
X168228458Y-104752061D01*
X168120584Y-104701758D01*
X168071431Y-104695288D01*
X167981888Y-104695288D01*
X167981888Y-105020288D01*
X167481888Y-105020288D01*
X167481888Y-104695288D01*
X167392347Y-104695288D01*
X167392342Y-104695289D01*
X167343191Y-104701758D01*
X167235317Y-104752061D01*
X167151161Y-104836217D01*
X167100858Y-104944091D01*
X167094388Y-104993244D01*
X166744888Y-104993244D01*
X166744888Y-104980032D01*
X166742113Y-104950439D01*
X166698504Y-104825813D01*
X166681443Y-104802696D01*
X166672416Y-104766297D01*
X166691771Y-104734175D01*
X166720869Y-104724600D01*
X166865200Y-104724600D01*
X166865200Y-104040682D01*
X167040889Y-104040682D01*
X167043798Y-104065764D01*
X167089101Y-104168367D01*
X167168408Y-104247674D01*
X167271012Y-104292977D01*
X167271010Y-104292977D01*
X167290888Y-104295282D01*
X167290888Y-104295281D01*
X167790888Y-104295281D01*
X167810764Y-104292977D01*
X167913367Y-104247674D01*
X167992674Y-104168367D01*
X168037978Y-104065761D01*
X168040886Y-104040698D01*
X168040888Y-104040678D01*
X168040888Y-103970888D01*
X167790888Y-103970888D01*
X167790888Y-104295281D01*
X167290888Y-104295281D01*
X167290888Y-103970888D01*
X167040889Y-103970888D01*
X167040889Y-104040682D01*
X166865200Y-104040682D01*
X166865200Y-103401097D01*
X167040888Y-103401097D01*
X167040888Y-103470888D01*
X167290888Y-103470888D01*
X167790888Y-103470888D01*
X168040887Y-103470888D01*
X168040887Y-103401100D01*
X168040886Y-103401093D01*
X168037977Y-103376011D01*
X167992674Y-103273408D01*
X167913367Y-103194101D01*
X167913368Y-103194101D01*
X167810764Y-103148798D01*
X167790888Y-103146492D01*
X167790888Y-103470888D01*
X167290888Y-103470888D01*
X167290888Y-103146492D01*
X167271011Y-103148798D01*
X167168408Y-103194101D01*
X167089101Y-103273408D01*
X167043797Y-103376014D01*
X167040889Y-103401077D01*
X167040888Y-103401097D01*
X166865200Y-103401097D01*
X166865200Y-102473932D01*
X167095489Y-102473932D01*
X167101958Y-102523084D01*
X167152261Y-102630958D01*
X167236417Y-102715114D01*
X167344291Y-102765417D01*
X167393445Y-102771887D01*
X167482987Y-102771887D01*
X167982988Y-102771887D01*
X168072527Y-102771887D01*
X168072532Y-102771886D01*
X168121684Y-102765417D01*
X168229558Y-102715114D01*
X168313714Y-102630958D01*
X168364017Y-102523084D01*
X168370487Y-102473931D01*
X168370488Y-102473929D01*
X168370488Y-102446888D01*
X167982988Y-102446888D01*
X167982988Y-102771887D01*
X167482987Y-102771887D01*
X167482988Y-102771886D01*
X167482988Y-102446888D01*
X167095489Y-102446888D01*
X167095489Y-102473932D01*
X166865200Y-102473932D01*
X166865200Y-101919844D01*
X167095488Y-101919844D01*
X167095488Y-101946888D01*
X167482988Y-101946888D01*
X167982988Y-101946888D01*
X168370487Y-101946888D01*
X168370487Y-101919849D01*
X168370486Y-101919843D01*
X168364017Y-101870691D01*
X168313714Y-101762817D01*
X168229558Y-101678661D01*
X168121684Y-101628358D01*
X168072531Y-101621888D01*
X167982988Y-101621888D01*
X167982988Y-101946888D01*
X167482988Y-101946888D01*
X167482988Y-101621888D01*
X167393447Y-101621888D01*
X167393442Y-101621889D01*
X167344291Y-101628358D01*
X167236417Y-101678661D01*
X167152261Y-101762817D01*
X167101958Y-101870691D01*
X167095488Y-101919844D01*
X166865200Y-101919844D01*
X166865200Y-101905200D01*
X166787834Y-101905200D01*
X166753186Y-101890848D01*
X166741584Y-101872384D01*
X166735921Y-101856200D01*
X166699604Y-101752413D01*
X166699602Y-101752410D01*
X166699603Y-101752410D01*
X166621199Y-101646176D01*
X166514965Y-101567773D01*
X166514963Y-101567772D01*
X166477557Y-101554682D01*
X166390339Y-101524163D01*
X166390330Y-101524162D01*
X166360755Y-101521389D01*
X166360754Y-101521388D01*
X166360744Y-101521388D01*
X166360734Y-101521388D01*
X166221488Y-101521388D01*
X166186840Y-101507036D01*
X166172488Y-101472388D01*
X166172488Y-101357080D01*
X166186840Y-101322432D01*
X166213826Y-101308683D01*
X166214870Y-101308517D01*
X166217292Y-101308134D01*
X166277305Y-101277555D01*
X166330323Y-101250542D01*
X166330325Y-101250540D01*
X166330330Y-101250538D01*
X166420038Y-101160830D01*
X166427356Y-101146468D01*
X166477632Y-101047797D01*
X166477632Y-101047795D01*
X166477634Y-101047792D01*
X166492488Y-100954007D01*
X166492487Y-100340970D01*
X166477634Y-100247184D01*
X166477631Y-100247178D01*
X166420042Y-100134152D01*
X166420037Y-100134145D01*
X166330330Y-100044438D01*
X166330323Y-100044433D01*
X166217296Y-99986843D01*
X166217293Y-99986842D01*
X166217292Y-99986842D01*
X166123507Y-99971988D01*
X166123505Y-99971988D01*
X165660470Y-99971988D01*
X165566684Y-99986841D01*
X165453652Y-100044433D01*
X165453645Y-100044438D01*
X165363938Y-100134145D01*
X165363933Y-100134152D01*
X165306343Y-100247178D01*
X165306343Y-100247180D01*
X165291488Y-100340970D01*
X165291488Y-100954005D01*
X165306341Y-101047791D01*
X165363933Y-101160823D01*
X165363938Y-101160830D01*
X165453645Y-101250537D01*
X165453652Y-101250542D01*
X165527029Y-101287929D01*
X165566684Y-101308134D01*
X165570149Y-101308683D01*
X165602127Y-101328275D01*
X165611488Y-101357080D01*
X165611488Y-101494347D01*
X165597136Y-101528995D01*
X165578672Y-101540597D01*
X165501010Y-101567773D01*
X165394776Y-101646176D01*
X165316373Y-101752410D01*
X165274392Y-101872384D01*
X165249402Y-101900348D01*
X165228142Y-101905200D01*
X163897713Y-101905200D01*
X163863065Y-101890848D01*
X163848713Y-101856200D01*
X163848713Y-101516213D01*
X163843573Y-101483764D01*
X163805430Y-101431266D01*
X163805428Y-101431265D01*
X163743712Y-101411213D01*
X163523713Y-101411213D01*
X163580486Y-101467986D01*
X163594838Y-101502634D01*
X163580486Y-101537282D01*
X163294782Y-101822986D01*
X163260134Y-101837338D01*
X163225486Y-101822986D01*
X163118713Y-101716213D01*
X163011940Y-101822986D01*
X162977292Y-101837338D01*
X162942644Y-101822986D01*
X162656939Y-101537281D01*
X162642587Y-101502633D01*
X162656939Y-101467985D01*
X162656939Y-101467984D01*
X162672291Y-101452631D01*
X162552292Y-101332634D01*
X162458565Y-101238907D01*
X162444213Y-101204259D01*
X162444213Y-101191211D01*
X162976555Y-101191211D01*
X162976555Y-101191212D01*
X162998713Y-101213370D01*
X162998713Y-101169055D01*
X162998712Y-101169055D01*
X162976555Y-101191211D01*
X162444213Y-101191211D01*
X162444213Y-101146468D01*
X162444213Y-101146465D01*
X162432580Y-101087982D01*
X162405725Y-101047791D01*
X162388265Y-101021660D01*
X162348508Y-100995095D01*
X162321944Y-100977346D01*
X162263461Y-100965713D01*
X162117085Y-100965713D01*
X162082437Y-100951361D01*
X162068085Y-100916713D01*
X162068085Y-100916540D01*
X162069672Y-100466214D01*
X162388713Y-100466214D01*
X162388713Y-100786212D01*
X162445486Y-100729440D01*
X162480134Y-100715088D01*
X162514782Y-100729440D01*
X162693713Y-100908371D01*
X162872644Y-100729440D01*
X162907292Y-100715088D01*
X162941940Y-100729440D01*
X162998713Y-100786213D01*
X162998713Y-100466213D01*
X162993573Y-100433764D01*
X162955430Y-100381266D01*
X162955428Y-100381265D01*
X162893712Y-100361213D01*
X162493713Y-100361213D01*
X162461264Y-100366352D01*
X162408766Y-100404495D01*
X162408765Y-100404497D01*
X162388713Y-100466214D01*
X162069672Y-100466214D01*
X162070024Y-100366352D01*
X162072966Y-99531825D01*
X162087440Y-99497229D01*
X162121966Y-99482999D01*
X162142600Y-99482999D01*
X162642600Y-99482999D01*
X162732139Y-99482999D01*
X162732144Y-99482998D01*
X162781296Y-99476529D01*
X162889170Y-99426226D01*
X162973326Y-99342070D01*
X163023629Y-99234196D01*
X163030099Y-99185043D01*
X163030100Y-99185041D01*
X163030100Y-99158000D01*
X162642600Y-99158000D01*
X162642600Y-99482999D01*
X162142600Y-99482999D01*
X162142600Y-98717741D01*
X166803488Y-98717741D01*
X166803488Y-99423234D01*
X166803489Y-99423255D01*
X166806262Y-99452830D01*
X166806263Y-99452839D01*
X166833902Y-99531825D01*
X166849872Y-99577463D01*
X166849873Y-99577465D01*
X166849872Y-99577465D01*
X166928276Y-99683699D01*
X167034510Y-99762102D01*
X167034513Y-99762104D01*
X167159139Y-99805713D01*
X167159146Y-99805713D01*
X167159943Y-99805888D01*
X167160250Y-99806101D01*
X167161954Y-99806698D01*
X167161788Y-99807171D01*
X167190731Y-99827302D01*
X167198488Y-99853760D01*
X167198488Y-99966086D01*
X167184136Y-100000734D01*
X167171734Y-100009745D01*
X167103648Y-100044436D01*
X167103642Y-100044441D01*
X167013938Y-100134145D01*
X167013933Y-100134152D01*
X166956343Y-100247178D01*
X166956343Y-100247180D01*
X166941488Y-100340970D01*
X166941488Y-100954005D01*
X166956341Y-101047791D01*
X167013933Y-101160823D01*
X167013938Y-101160830D01*
X167103645Y-101250537D01*
X167103652Y-101250542D01*
X167216679Y-101308132D01*
X167216680Y-101308132D01*
X167216684Y-101308134D01*
X167310469Y-101322988D01*
X167773506Y-101322987D01*
X167867292Y-101308134D01*
X167928375Y-101277010D01*
X167980323Y-101250542D01*
X167980325Y-101250540D01*
X167980330Y-101250538D01*
X168070038Y-101160830D01*
X168077356Y-101146468D01*
X168127632Y-101047797D01*
X168127632Y-101047795D01*
X168127634Y-101047792D01*
X168142488Y-100954007D01*
X168142487Y-100340970D01*
X168127634Y-100247184D01*
X168127631Y-100247178D01*
X168070042Y-100134152D01*
X168070037Y-100134145D01*
X167980330Y-100044438D01*
X167980323Y-100044433D01*
X167867296Y-99986843D01*
X167867293Y-99986842D01*
X167867292Y-99986842D01*
X167820785Y-99979476D01*
X167800822Y-99976314D01*
X167768846Y-99956718D01*
X167759488Y-99927917D01*
X167759488Y-99853760D01*
X167773840Y-99819112D01*
X167796106Y-99806940D01*
X167796022Y-99806698D01*
X167797492Y-99806183D01*
X167798033Y-99805888D01*
X167798828Y-99805713D01*
X167798837Y-99805713D01*
X167923463Y-99762104D01*
X168029699Y-99683699D01*
X168108104Y-99577463D01*
X168151713Y-99452837D01*
X168154488Y-99423244D01*
X168154488Y-98717732D01*
X168151713Y-98688139D01*
X168108104Y-98563513D01*
X168108102Y-98563510D01*
X168108103Y-98563510D01*
X168029699Y-98457276D01*
X167923465Y-98378873D01*
X167923463Y-98378872D01*
X167886057Y-98365782D01*
X167798839Y-98335263D01*
X167798830Y-98335262D01*
X167769255Y-98332489D01*
X167769254Y-98332488D01*
X167769244Y-98332488D01*
X167188732Y-98332488D01*
X167188722Y-98332488D01*
X167188720Y-98332489D01*
X167159145Y-98335262D01*
X167159136Y-98335263D01*
X167034510Y-98378873D01*
X166928276Y-98457276D01*
X166849873Y-98563510D01*
X166806263Y-98688136D01*
X166806262Y-98688145D01*
X166803489Y-98717720D01*
X166803488Y-98717741D01*
X162142600Y-98717741D01*
X162142600Y-98658000D01*
X162642600Y-98658000D01*
X163030099Y-98658000D01*
X163030099Y-98630961D01*
X163030098Y-98630955D01*
X163023629Y-98581803D01*
X162973326Y-98473929D01*
X162889170Y-98389773D01*
X162781296Y-98339470D01*
X162732143Y-98333000D01*
X162642600Y-98333000D01*
X162642600Y-98658000D01*
X162142600Y-98658000D01*
X162142600Y-98333000D01*
X162126365Y-98333000D01*
X162091717Y-98318648D01*
X162077365Y-98284000D01*
X162077365Y-98283827D01*
X162078426Y-97982987D01*
X162079476Y-97685032D01*
X166903989Y-97685032D01*
X166910458Y-97734184D01*
X166960761Y-97842058D01*
X167044917Y-97926214D01*
X167152791Y-97976517D01*
X167201944Y-97982987D01*
X167728988Y-97982987D01*
X167756027Y-97982987D01*
X167756032Y-97982986D01*
X167805184Y-97976517D01*
X167913058Y-97926214D01*
X167997214Y-97842058D01*
X168047517Y-97734184D01*
X168053987Y-97685031D01*
X168053988Y-97685029D01*
X168053988Y-97595488D01*
X167728988Y-97595488D01*
X167728988Y-97982987D01*
X167201944Y-97982987D01*
X167228987Y-97982986D01*
X167228988Y-97982986D01*
X167228988Y-97595488D01*
X166903989Y-97595488D01*
X166903989Y-97685032D01*
X162079476Y-97685032D01*
X162081870Y-97005944D01*
X166903988Y-97005944D01*
X166903988Y-97095488D01*
X167228988Y-97095488D01*
X167728988Y-97095488D01*
X168053987Y-97095488D01*
X168053987Y-97005949D01*
X168053986Y-97005943D01*
X168047517Y-96956791D01*
X167997214Y-96848917D01*
X167913058Y-96764761D01*
X167805184Y-96714458D01*
X167756031Y-96707988D01*
X167728988Y-96707988D01*
X167728988Y-97095488D01*
X167228988Y-97095488D01*
X167228988Y-96707988D01*
X167228987Y-96707987D01*
X167201949Y-96707988D01*
X167201942Y-96707989D01*
X167152791Y-96714458D01*
X167044917Y-96764761D01*
X166960761Y-96848917D01*
X166910458Y-96956791D01*
X166903988Y-97005944D01*
X162081870Y-97005944D01*
X162086903Y-95578244D01*
X167422601Y-95578244D01*
X167429070Y-95627396D01*
X167479373Y-95735270D01*
X167563529Y-95819426D01*
X167671403Y-95869729D01*
X167720557Y-95876199D01*
X167810099Y-95876199D01*
X168310100Y-95876199D01*
X168399639Y-95876199D01*
X168399644Y-95876198D01*
X168448796Y-95869729D01*
X168556670Y-95819426D01*
X168640826Y-95735270D01*
X168691129Y-95627396D01*
X168697599Y-95578243D01*
X168697600Y-95578241D01*
X168697600Y-95551200D01*
X168310100Y-95551200D01*
X168310100Y-95876199D01*
X167810099Y-95876199D01*
X167810100Y-95876198D01*
X167810100Y-95551200D01*
X167422601Y-95551200D01*
X167422601Y-95578244D01*
X162086903Y-95578244D01*
X162088856Y-95024156D01*
X167422600Y-95024156D01*
X167422600Y-95051200D01*
X167810100Y-95051200D01*
X168310100Y-95051200D01*
X168697599Y-95051200D01*
X168697599Y-95024161D01*
X168697598Y-95024155D01*
X168691129Y-94975003D01*
X168640826Y-94867129D01*
X168556670Y-94782973D01*
X168448796Y-94732670D01*
X168399643Y-94726200D01*
X168310100Y-94726200D01*
X168310100Y-95051200D01*
X167810100Y-95051200D01*
X167810100Y-94726200D01*
X167720559Y-94726200D01*
X167720554Y-94726201D01*
X167671403Y-94732670D01*
X167563529Y-94782973D01*
X167479373Y-94867129D01*
X167429070Y-94975003D01*
X167422600Y-95024156D01*
X162088856Y-95024156D01*
X162092768Y-93914242D01*
X163294801Y-93914242D01*
X163300880Y-93970802D01*
X163300883Y-93970811D01*
X163348613Y-94098781D01*
X163348616Y-94098785D01*
X163430470Y-94208129D01*
X163539814Y-94289983D01*
X163539818Y-94289986D01*
X163667792Y-94337718D01*
X163724356Y-94343799D01*
X163894799Y-94343799D01*
X164394800Y-94343799D01*
X164565242Y-94343799D01*
X164621802Y-94337719D01*
X164621811Y-94337716D01*
X164749781Y-94289986D01*
X164749785Y-94289983D01*
X164859129Y-94208129D01*
X164940983Y-94098785D01*
X164940986Y-94098781D01*
X164988718Y-93970807D01*
X164994800Y-93914243D01*
X164994800Y-93493800D01*
X164394800Y-93493800D01*
X164394800Y-94343799D01*
X163894799Y-94343799D01*
X163894800Y-94343798D01*
X163894800Y-93493800D01*
X163294801Y-93493800D01*
X163294801Y-93914242D01*
X162092768Y-93914242D01*
X162092807Y-93903225D01*
X162107281Y-93868629D01*
X162141807Y-93854399D01*
X162175239Y-93854399D01*
X162175244Y-93854398D01*
X162224396Y-93847929D01*
X162332270Y-93797626D01*
X162416426Y-93713470D01*
X162466729Y-93605596D01*
X162473199Y-93556443D01*
X162473200Y-93556441D01*
X162473200Y-93466900D01*
X162094345Y-93466900D01*
X162096108Y-92966900D01*
X162473199Y-92966900D01*
X162473199Y-92877361D01*
X162473198Y-92877355D01*
X162466729Y-92828203D01*
X162416426Y-92720329D01*
X162332270Y-92636173D01*
X162224396Y-92585870D01*
X162175243Y-92579400D01*
X162146646Y-92579400D01*
X162132055Y-92573356D01*
X163294800Y-92573356D01*
X163294800Y-92993800D01*
X163894800Y-92993800D01*
X164394800Y-92993800D01*
X164994799Y-92993800D01*
X164994799Y-92573357D01*
X164988719Y-92516797D01*
X164988716Y-92516788D01*
X164940986Y-92388818D01*
X164940983Y-92388814D01*
X164859129Y-92279470D01*
X164749785Y-92197616D01*
X164749781Y-92197613D01*
X164621807Y-92149881D01*
X164565243Y-92143800D01*
X164394800Y-92143800D01*
X164394800Y-92993800D01*
X163894800Y-92993800D01*
X163894800Y-92143800D01*
X163724356Y-92143800D01*
X163667797Y-92149880D01*
X163667788Y-92149883D01*
X163539818Y-92197613D01*
X163539814Y-92197616D01*
X163430470Y-92279470D01*
X163348616Y-92388814D01*
X163348613Y-92388818D01*
X163300881Y-92516792D01*
X163294800Y-92573356D01*
X162132055Y-92573356D01*
X162111998Y-92565048D01*
X162097646Y-92530400D01*
X162098533Y-92278725D01*
X162113007Y-92244130D01*
X162147533Y-92229900D01*
X162188446Y-92229900D01*
X162188456Y-92229900D01*
X162218049Y-92227125D01*
X162342675Y-92183516D01*
X162434020Y-92116101D01*
X162448909Y-92105113D01*
X162448909Y-92105111D01*
X162448911Y-92105111D01*
X162511797Y-92019902D01*
X162543918Y-92000547D01*
X162551222Y-92000000D01*
X164884156Y-92000000D01*
X164918804Y-92014352D01*
G37*
%TD.AperFunction*%
%TD*%
%TA.AperFunction,Conductor*%
%TO.N,/VUSB*%
G36*
X159302764Y-89005648D02*
G01*
X159337317Y-89020223D01*
X159351445Y-89054963D01*
X159343191Y-89081865D01*
X159341547Y-89084324D01*
X159335745Y-89113499D01*
X159335745Y-89152745D01*
X160805744Y-89152745D01*
X160805744Y-89113500D01*
X160805743Y-89113499D01*
X160799942Y-89084327D01*
X160799536Y-89083346D01*
X160799536Y-89082284D01*
X160799001Y-89079594D01*
X160799536Y-89079487D01*
X160799539Y-89045843D01*
X160826060Y-89019326D01*
X160845121Y-89015599D01*
X162519335Y-89026400D01*
X162553888Y-89040975D01*
X162568016Y-89075715D01*
X162562349Y-89098276D01*
X162557800Y-89106892D01*
X162557800Y-89396395D01*
X162543448Y-89431043D01*
X162508800Y-89445395D01*
X162474152Y-89431043D01*
X162464391Y-89417104D01*
X162417771Y-89317129D01*
X162333615Y-89232973D01*
X162225741Y-89182670D01*
X162176588Y-89176200D01*
X162149545Y-89176200D01*
X162149545Y-90451199D01*
X162176584Y-90451199D01*
X162176589Y-90451198D01*
X162225741Y-90444729D01*
X162333615Y-90394426D01*
X162417771Y-90310270D01*
X162417772Y-90310268D01*
X162464391Y-90210296D01*
X162492041Y-90184959D01*
X162529508Y-90186595D01*
X162554845Y-90214245D01*
X162557800Y-90231004D01*
X162557800Y-90775637D01*
X162543448Y-90810285D01*
X162509210Y-90824635D01*
X162393518Y-90825603D01*
X162364011Y-90816030D01*
X162342677Y-90800285D01*
X162342675Y-90800284D01*
X162272239Y-90775637D01*
X162218051Y-90756675D01*
X162218042Y-90756674D01*
X162188467Y-90753901D01*
X162188466Y-90753900D01*
X162188456Y-90753900D01*
X161607944Y-90753900D01*
X161607934Y-90753900D01*
X161607932Y-90753901D01*
X161578357Y-90756674D01*
X161578348Y-90756675D01*
X161453726Y-90800283D01*
X161453722Y-90800285D01*
X161421035Y-90824409D01*
X161392349Y-90833981D01*
X159036610Y-90853694D01*
X159001843Y-90839633D01*
X158987202Y-90805106D01*
X158987200Y-90804696D01*
X158987200Y-90153244D01*
X161324546Y-90153244D01*
X161331015Y-90202396D01*
X161381318Y-90310270D01*
X161465474Y-90394426D01*
X161573348Y-90444729D01*
X161622501Y-90451199D01*
X161649544Y-90451198D01*
X161649545Y-90451198D01*
X161649545Y-90063700D01*
X161324546Y-90063700D01*
X161324546Y-90153244D01*
X158987200Y-90153244D01*
X158987200Y-89691990D01*
X159335746Y-89691990D01*
X159341547Y-89721163D01*
X159341549Y-89721167D01*
X159363649Y-89754242D01*
X159396725Y-89776342D01*
X159425899Y-89782144D01*
X159820744Y-89782144D01*
X160320745Y-89782144D01*
X160715590Y-89782144D01*
X160715590Y-89782143D01*
X160744763Y-89776342D01*
X160744767Y-89776340D01*
X160777842Y-89754240D01*
X160799942Y-89721164D01*
X160805745Y-89691990D01*
X160805745Y-89652745D01*
X160320745Y-89652745D01*
X160320745Y-89782144D01*
X159820744Y-89782144D01*
X159820745Y-89782143D01*
X159820745Y-89652745D01*
X159335746Y-89652745D01*
X159335746Y-89691990D01*
X158987200Y-89691990D01*
X158987200Y-89474156D01*
X161324545Y-89474156D01*
X161324545Y-89563700D01*
X161649545Y-89563700D01*
X161649545Y-89176200D01*
X161649544Y-89176199D01*
X161622506Y-89176200D01*
X161622499Y-89176201D01*
X161573348Y-89182670D01*
X161465474Y-89232973D01*
X161381318Y-89317129D01*
X161331015Y-89425003D01*
X161324545Y-89474156D01*
X158987200Y-89474156D01*
X158987200Y-89062851D01*
X159001552Y-89028203D01*
X159029800Y-89014271D01*
X159101672Y-89004809D01*
X159108333Y-89004394D01*
X159302764Y-89005648D01*
G37*
%TD.AperFunction*%
%TD*%
%TA.AperFunction,Conductor*%
%TO.N,/VBATT*%
G36*
X158472586Y-89018348D02*
G01*
X158487199Y-89052887D01*
X158487200Y-89053256D01*
X158487200Y-90905902D01*
X158472848Y-90940550D01*
X158453944Y-90952304D01*
X155964604Y-91796902D01*
X155948860Y-91799500D01*
X154882201Y-91799500D01*
X154773790Y-91821065D01*
X154752225Y-91825354D01*
X154746870Y-91826420D01*
X154709532Y-91841886D01*
X154619394Y-91879222D01*
X154619393Y-91879222D01*
X154550612Y-91925180D01*
X154504657Y-91955885D01*
X154170895Y-92289648D01*
X154136247Y-92304000D01*
X153299000Y-92304000D01*
X153264352Y-92289648D01*
X153250000Y-92255000D01*
X153250000Y-90305644D01*
X155012601Y-90305644D01*
X155019070Y-90354796D01*
X155069373Y-90462670D01*
X155153529Y-90546826D01*
X155261403Y-90597129D01*
X155310556Y-90603599D01*
X155837600Y-90603599D01*
X155864639Y-90603599D01*
X155864644Y-90603598D01*
X155913796Y-90597129D01*
X156021670Y-90546826D01*
X156105826Y-90462670D01*
X156156129Y-90354796D01*
X156162599Y-90305643D01*
X156162600Y-90305641D01*
X156162600Y-90216100D01*
X155837600Y-90216100D01*
X155837600Y-90603599D01*
X155310556Y-90603599D01*
X155337599Y-90603598D01*
X155337600Y-90603598D01*
X155337600Y-90216100D01*
X155012601Y-90216100D01*
X155012601Y-90305644D01*
X153250000Y-90305644D01*
X153250000Y-89626556D01*
X155012600Y-89626556D01*
X155012600Y-89716100D01*
X155337600Y-89716100D01*
X155837600Y-89716100D01*
X156162599Y-89716100D01*
X156162599Y-89691990D01*
X156744946Y-89691990D01*
X156750747Y-89721163D01*
X156750749Y-89721167D01*
X156772849Y-89754242D01*
X156805925Y-89776342D01*
X156835099Y-89782144D01*
X157229944Y-89782144D01*
X157729945Y-89782144D01*
X158124790Y-89782144D01*
X158124790Y-89782143D01*
X158153963Y-89776342D01*
X158153967Y-89776340D01*
X158187042Y-89754240D01*
X158209142Y-89721164D01*
X158214945Y-89691990D01*
X158214945Y-89652745D01*
X157729945Y-89652745D01*
X157729945Y-89782144D01*
X157229944Y-89782144D01*
X157229945Y-89782143D01*
X157229945Y-89652745D01*
X156744946Y-89652745D01*
X156744946Y-89691990D01*
X156162599Y-89691990D01*
X156162599Y-89626561D01*
X156162598Y-89626555D01*
X156156129Y-89577403D01*
X156105826Y-89469529D01*
X156021670Y-89385373D01*
X155913796Y-89335070D01*
X155864643Y-89328600D01*
X155837600Y-89328600D01*
X155837600Y-89716100D01*
X155337600Y-89716100D01*
X155337600Y-89328600D01*
X155337599Y-89328599D01*
X155310561Y-89328600D01*
X155310554Y-89328601D01*
X155261403Y-89335070D01*
X155153529Y-89385373D01*
X155069373Y-89469529D01*
X155019070Y-89577403D01*
X155012600Y-89626556D01*
X153250000Y-89626556D01*
X153250000Y-89092007D01*
X153264352Y-89057359D01*
X153298630Y-89043008D01*
X156704799Y-89017324D01*
X156739552Y-89031414D01*
X156754165Y-89065954D01*
X156751513Y-89079558D01*
X156751689Y-89079593D01*
X156744945Y-89113499D01*
X156744945Y-89152745D01*
X158214944Y-89152745D01*
X158214944Y-89113500D01*
X158214943Y-89113499D01*
X158209142Y-89084326D01*
X158209140Y-89084321D01*
X158207530Y-89081912D01*
X158200212Y-89045130D01*
X158221047Y-89013947D01*
X158247900Y-89005689D01*
X158437831Y-89004257D01*
X158472586Y-89018348D01*
G37*
%TD.AperFunction*%
%TD*%
%TA.AperFunction,Conductor*%
%TO.N,Net-(C5-Pad1)*%
G36*
X162243712Y-102266212D02*
G01*
X162253558Y-102266212D01*
X162253558Y-102266211D01*
X162282731Y-102260410D01*
X162282735Y-102260408D01*
X162315810Y-102238308D01*
X162337910Y-102205232D01*
X162343713Y-102176058D01*
X162343713Y-102148920D01*
X162358065Y-102114272D01*
X162392713Y-102099920D01*
X162403617Y-102101149D01*
X162404549Y-102101361D01*
X162404550Y-102101362D01*
X162493710Y-102121712D01*
X162493711Y-102121713D01*
X162493713Y-102121713D01*
X162893713Y-102121713D01*
X162944214Y-102121713D01*
X162978862Y-102136065D01*
X162993214Y-102170713D01*
X162993214Y-102435962D01*
X163004847Y-102494445D01*
X163005406Y-102495281D01*
X163005602Y-102496270D01*
X163006693Y-102498902D01*
X163006169Y-102499118D01*
X163012722Y-102532063D01*
X163005407Y-102549726D01*
X162991958Y-102569854D01*
X162979846Y-102587982D01*
X162979845Y-102587983D01*
X162977166Y-102591994D01*
X162975485Y-102590870D01*
X162954362Y-102611986D01*
X162935619Y-102615712D01*
X162648966Y-102615712D01*
X162614463Y-102622575D01*
X162590481Y-102627345D01*
X162570934Y-102640406D01*
X162534152Y-102647721D01*
X162516491Y-102640406D01*
X162496944Y-102627345D01*
X162438461Y-102615712D01*
X162148965Y-102615712D01*
X162090482Y-102627345D01*
X162024163Y-102671657D01*
X162024162Y-102671659D01*
X162004857Y-102700549D01*
X161973673Y-102721383D01*
X161954557Y-102721383D01*
X161928559Y-102716212D01*
X161918712Y-102716212D01*
X161918712Y-103042212D01*
X161904360Y-103076860D01*
X161869712Y-103091212D01*
X161717714Y-103091212D01*
X161683066Y-103076860D01*
X161668714Y-103042212D01*
X161668714Y-102716211D01*
X161658870Y-102716212D01*
X161658860Y-102716213D01*
X161632864Y-102721383D01*
X161596082Y-102714064D01*
X161582566Y-102700547D01*
X161563264Y-102671659D01*
X161516490Y-102640406D01*
X161496943Y-102627345D01*
X161438460Y-102615712D01*
X161151807Y-102615712D01*
X161117159Y-102601360D01*
X161110702Y-102591699D01*
X161110261Y-102591995D01*
X161082019Y-102549728D01*
X161074703Y-102512946D01*
X161082021Y-102495278D01*
X161082579Y-102494445D01*
X161094212Y-102435962D01*
X161094212Y-102170713D01*
X161108564Y-102136065D01*
X161143212Y-102121713D01*
X161593714Y-102121713D01*
X161598344Y-102121191D01*
X161639441Y-102116561D01*
X161673454Y-102100180D01*
X161710896Y-102098077D01*
X161738861Y-102123066D01*
X161743714Y-102144328D01*
X161743714Y-102176058D01*
X161749515Y-102205231D01*
X161749517Y-102205235D01*
X161771617Y-102238310D01*
X161804693Y-102260410D01*
X161833866Y-102266212D01*
X161843714Y-102266211D01*
X161843714Y-101981400D01*
X162243712Y-101981400D01*
X162243712Y-102266212D01*
G37*
%TD.AperFunction*%
%TD*%
%TA.AperFunction,Conductor*%
%TO.N,GND*%
G36*
X204125438Y-81789796D02*
G01*
X204429475Y-82093833D01*
X204432902Y-82102106D01*
X204430654Y-82109002D01*
X204280054Y-82315423D01*
X204273152Y-82319946D01*
X203809802Y-82423438D01*
X203800981Y-82421897D01*
X203795833Y-82414569D01*
X203795833Y-82409469D01*
X203899325Y-81946115D01*
X203903845Y-81939217D01*
X204110270Y-81788616D01*
X204118972Y-81786509D01*
X204125438Y-81789796D01*
G37*
%TD.AperFunction*%
%TD*%
%TA.AperFunction,Conductor*%
%TO.N,GND*%
G36*
X204589638Y-81673959D02*
G01*
X204597454Y-81678328D01*
X204599971Y-81685434D01*
X204604805Y-82076561D01*
X204601481Y-82084876D01*
X204598478Y-82087100D01*
X204299562Y-82241578D01*
X204290639Y-82242332D01*
X204285917Y-82239457D01*
X203980735Y-81934275D01*
X203977308Y-81926002D01*
X203979448Y-81919256D01*
X204181988Y-81632223D01*
X204189557Y-81627440D01*
X204192911Y-81627350D01*
X204589638Y-81673959D01*
G37*
%TD.AperFunction*%
%TD*%
%TA.AperFunction,Conductor*%
%TO.N,GND*%
G36*
X204884937Y-81084853D02*
G01*
X205190150Y-81390066D01*
X205193577Y-81398339D01*
X205191880Y-81404408D01*
X205014829Y-81696201D01*
X205007607Y-81701497D01*
X205004100Y-81701809D01*
X204608740Y-81677214D01*
X204600695Y-81673281D01*
X204597789Y-81666264D01*
X204573193Y-81270901D01*
X204576099Y-81262433D01*
X204578797Y-81260176D01*
X204870597Y-81083122D01*
X204879445Y-81081761D01*
X204884937Y-81084853D01*
G37*
%TD.AperFunction*%
%TD*%
%TA.AperFunction,Conductor*%
%TO.N,GND*%
G36*
X201551011Y-82331759D02*
G01*
X201825296Y-82416709D01*
X201832185Y-82422430D01*
X201833390Y-82426048D01*
X201882339Y-82733911D01*
X201880254Y-82742619D01*
X201872621Y-82747303D01*
X201872576Y-82747310D01*
X201441234Y-82814154D01*
X201432533Y-82812035D01*
X201432176Y-82811762D01*
X201236331Y-82656028D01*
X201231989Y-82648197D01*
X201234456Y-82639589D01*
X201235332Y-82638607D01*
X201539278Y-82334661D01*
X201547550Y-82331235D01*
X201551011Y-82331759D01*
G37*
%TD.AperFunction*%
%TD*%
%TA.AperFunction,Conductor*%
%TO.N,GND*%
G36*
X204019594Y-82960966D02*
G01*
X204212111Y-83036995D01*
X204218547Y-83043221D01*
X204219171Y-83050687D01*
X204124036Y-83435192D01*
X204118722Y-83442400D01*
X204111770Y-83444047D01*
X203733644Y-83414624D01*
X203725662Y-83410565D01*
X203723506Y-83406816D01*
X203572956Y-82975705D01*
X203573464Y-82966765D01*
X203580145Y-82960802D01*
X203584002Y-82960148D01*
X204015296Y-82960148D01*
X204019594Y-82960966D01*
G37*
%TD.AperFunction*%
%TD*%
%TA.AperFunction,Conductor*%
%TO.N,GND*%
G36*
X203800581Y-82429117D02*
G01*
X204051412Y-82533955D01*
X204057723Y-82540306D01*
X204058563Y-82545661D01*
X204018366Y-83059832D01*
X204014305Y-83067813D01*
X204006702Y-83070620D01*
X203577789Y-83070620D01*
X203569516Y-83067193D01*
X203566188Y-83060442D01*
X203556290Y-82984994D01*
X203526479Y-82757749D01*
X203528801Y-82749102D01*
X203528992Y-82748860D01*
X203787003Y-82432516D01*
X203794887Y-82428272D01*
X203800581Y-82429117D01*
G37*
%TD.AperFunction*%
%TD*%
%TA.AperFunction,Conductor*%
%TO.N,+3.3V*%
G36*
X195270956Y-85805478D02*
G01*
X195283830Y-85810797D01*
X195627200Y-85952641D01*
X195633538Y-85958967D01*
X195633553Y-85959003D01*
X195779530Y-86313741D01*
X195779509Y-86322695D01*
X195773678Y-86328786D01*
X195052527Y-86666983D01*
X195043581Y-86667393D01*
X195036966Y-86661358D01*
X195035859Y-86656390D01*
X195035859Y-86227719D01*
X195037230Y-86222223D01*
X195179693Y-85954500D01*
X195256162Y-85810795D01*
X195263073Y-85805103D01*
X195270956Y-85805478D01*
G37*
%TD.AperFunction*%
%TD*%
%TA.AperFunction,Conductor*%
%TO.N,+3.3V*%
G36*
X195914873Y-85184979D02*
G01*
X195918175Y-85191545D01*
X196028727Y-85941126D01*
X196026544Y-85949811D01*
X196018859Y-85954408D01*
X196017181Y-85954533D01*
X195633055Y-85955494D01*
X195628524Y-85954593D01*
X195464432Y-85886180D01*
X195273398Y-85806534D01*
X195267080Y-85800187D01*
X195267101Y-85791233D01*
X195267746Y-85789922D01*
X195613329Y-85187431D01*
X195620418Y-85181959D01*
X195623478Y-85181552D01*
X195906600Y-85181552D01*
X195914873Y-85184979D01*
G37*
%TD.AperFunction*%
%TD*%
%TA.AperFunction,Conductor*%
%TO.N,Net-(C5-Pad1)*%
G36*
X161375202Y-105072027D02*
G01*
X161377959Y-105076397D01*
X161568843Y-105615828D01*
X161568372Y-105624770D01*
X161564631Y-105629239D01*
X161132084Y-105939376D01*
X161123363Y-105941412D01*
X161117860Y-105938926D01*
X160704094Y-105600635D01*
X160699858Y-105592745D01*
X160700762Y-105586929D01*
X160922147Y-105075651D01*
X160928579Y-105069421D01*
X160932884Y-105068600D01*
X161366929Y-105068600D01*
X161375202Y-105072027D01*
G37*
%TD.AperFunction*%
%TD*%
%TA.AperFunction,Conductor*%
%TO.N,Net-(C5-Pad1)*%
G36*
X161131357Y-104450186D02*
G01*
X161602484Y-104818497D01*
X161606891Y-104826293D01*
X161606103Y-104832154D01*
X161378178Y-105387939D01*
X161371868Y-105394294D01*
X161367353Y-105395200D01*
X160932498Y-105395200D01*
X160924225Y-105391773D01*
X160921990Y-105388645D01*
X160921644Y-105387939D01*
X160663841Y-104861428D01*
X160663282Y-104852492D01*
X160666609Y-104847511D01*
X160684014Y-104832154D01*
X161116412Y-104450630D01*
X161124881Y-104447727D01*
X161131357Y-104450186D01*
G37*
%TD.AperFunction*%
%TD*%
%TA.AperFunction,Conductor*%
%TO.N,Net-(C5-Pad1)*%
G36*
X161728590Y-103587503D02*
G01*
X161831445Y-103690358D01*
X161834872Y-103698631D01*
X161834628Y-103701008D01*
X161663490Y-104525763D01*
X161658454Y-104533167D01*
X161650086Y-104534923D01*
X161129004Y-104446922D01*
X161121417Y-104442165D01*
X161120384Y-104440403D01*
X160902534Y-103980799D01*
X160902088Y-103971857D01*
X160908096Y-103965217D01*
X160908100Y-103965214D01*
X160962906Y-103939414D01*
X160967889Y-103938300D01*
X161110931Y-103938300D01*
X161110931Y-103938299D01*
X161161074Y-103924863D01*
X161182266Y-103919185D01*
X161182266Y-103919184D01*
X161182269Y-103919184D01*
X161246231Y-103882256D01*
X161298456Y-103830031D01*
X161298457Y-103830029D01*
X161388822Y-103739664D01*
X161392095Y-103737362D01*
X161715336Y-103585189D01*
X161724278Y-103584767D01*
X161728590Y-103587503D01*
G37*
%TD.AperFunction*%
%TD*%
%TA.AperFunction,Conductor*%
%TO.N,Net-(U6-FP)*%
G36*
X199658062Y-76299727D02*
G01*
X199661266Y-76305728D01*
X199752917Y-76768808D01*
X199751162Y-76777589D01*
X199748139Y-76780672D01*
X199441099Y-76995121D01*
X199432355Y-76997049D01*
X199427701Y-76995121D01*
X199120660Y-76780672D01*
X199115839Y-76773125D01*
X199115881Y-76768812D01*
X199207534Y-76305727D01*
X199212502Y-76298278D01*
X199219011Y-76296300D01*
X199649789Y-76296300D01*
X199658062Y-76299727D01*
G37*
%TD.AperFunction*%
%TD*%
%TA.AperFunction,Conductor*%
%TO.N,Net-(U6-FP)*%
G36*
X199461504Y-74845989D02*
G01*
X199461519Y-74846005D01*
X199695052Y-75089202D01*
X199698311Y-75097543D01*
X199698174Y-75099103D01*
X199660939Y-75338647D01*
X199656282Y-75346296D01*
X199649378Y-75348550D01*
X199220625Y-75348550D01*
X199212352Y-75345123D01*
X199208935Y-75337335D01*
X199198618Y-75088617D01*
X199201699Y-75080209D01*
X199202179Y-75079716D01*
X199444961Y-74845684D01*
X199453295Y-74842411D01*
X199461504Y-74845989D01*
G37*
%TD.AperFunction*%
%TD*%
%TA.AperFunction,Conductor*%
%TO.N,Net-(U7-LNA_IN)*%
G36*
X199441314Y-78150555D02*
G01*
X199714422Y-78456870D01*
X199717370Y-78465325D01*
X199716660Y-78468720D01*
X199579627Y-78838664D01*
X199573540Y-78845232D01*
X199568656Y-78846300D01*
X199138202Y-78846300D01*
X199129929Y-78842873D01*
X199126506Y-78834902D01*
X199116875Y-78462123D01*
X199114562Y-78372588D01*
X199117774Y-78364231D01*
X199119554Y-78362700D01*
X199425882Y-78148748D01*
X199434626Y-78146821D01*
X199441314Y-78150555D01*
G37*
%TD.AperFunction*%
%TD*%
%TA.AperFunction,Conductor*%
%TO.N,Net-(U7-LNA_IN)*%
G36*
X199577757Y-78580327D02*
G01*
X199580003Y-78583477D01*
X199728616Y-78888594D01*
X199729158Y-78897532D01*
X199727035Y-78901266D01*
X199482808Y-79190430D01*
X199474852Y-79194540D01*
X199468029Y-79193019D01*
X199124932Y-78995349D01*
X199119474Y-78988249D01*
X199119075Y-78984995D01*
X199126583Y-78588379D01*
X199130166Y-78580172D01*
X199138281Y-78576900D01*
X199569484Y-78576900D01*
X199577757Y-78580327D01*
G37*
%TD.AperFunction*%
%TD*%
%TA.AperFunction,Conductor*%
%TO.N,Net-(U7-LNA_IN)*%
G36*
X199481964Y-79203475D02*
G01*
X199693799Y-79497163D01*
X199695860Y-79505877D01*
X199692982Y-79511861D01*
X199420182Y-79813054D01*
X199412088Y-79816886D01*
X199411510Y-79816900D01*
X199128206Y-79816900D01*
X199119933Y-79813473D01*
X199116508Y-79805394D01*
X199111405Y-79497163D01*
X199109130Y-79359781D01*
X199112419Y-79351454D01*
X199116252Y-79348821D01*
X199467903Y-79199548D01*
X199476858Y-79199471D01*
X199481964Y-79203475D01*
G37*
%TD.AperFunction*%
%TD*%
%TA.AperFunction,Conductor*%
%TO.N,Net-(C25-Pad1)*%
G36*
X198382827Y-79203415D02*
G01*
X198631969Y-79490268D01*
X198634807Y-79498761D01*
X198632758Y-79504597D01*
X198420190Y-79811857D01*
X198412665Y-79816711D01*
X198410568Y-79816900D01*
X198125986Y-79816900D01*
X198117713Y-79813473D01*
X198114592Y-79807857D01*
X198040531Y-79490268D01*
X198024808Y-79422841D01*
X198026266Y-79414007D01*
X198030042Y-79410238D01*
X198367836Y-79201138D01*
X198376674Y-79199698D01*
X198382827Y-79203415D01*
G37*
%TD.AperFunction*%
%TD*%
%TA.AperFunction,Conductor*%
%TO.N,Net-(C25-Pad1)*%
G36*
X198600391Y-78580327D02*
G01*
X198603483Y-78585819D01*
X198684618Y-78917340D01*
X198683256Y-78926190D01*
X198680997Y-78928892D01*
X198384044Y-79191063D01*
X198375574Y-79193969D01*
X198368556Y-79191063D01*
X198071602Y-78928892D01*
X198067669Y-78920847D01*
X198067980Y-78917343D01*
X198149117Y-78585818D01*
X198154413Y-78578597D01*
X198160482Y-78576900D01*
X198592118Y-78576900D01*
X198600391Y-78580327D01*
G37*
%TD.AperFunction*%
%TD*%
%TA.AperFunction,Conductor*%
%TO.N,Net-(C25-Pad1)*%
G36*
X198425328Y-78149469D02*
G01*
X198716409Y-78429666D01*
X198719993Y-78437872D01*
X198719526Y-78441374D01*
X198603759Y-78837879D01*
X198598151Y-78844860D01*
X198592528Y-78846300D01*
X198161782Y-78846300D01*
X198153509Y-78842873D01*
X198150152Y-78835882D01*
X198099160Y-78373198D01*
X198101660Y-78364599D01*
X198104085Y-78362328D01*
X198410517Y-78148305D01*
X198419259Y-78146378D01*
X198425328Y-78149469D01*
G37*
%TD.AperFunction*%
%TD*%
%TA.AperFunction,Conductor*%
%TO.N,Net-(C27-Pad1)*%
G36*
X203786970Y-80871951D02*
G01*
X203795014Y-80875885D01*
X203797920Y-80882902D01*
X203822414Y-81276634D01*
X203819508Y-81285104D01*
X203814790Y-81288336D01*
X203471260Y-81415177D01*
X203462312Y-81414828D01*
X203458934Y-81412474D01*
X203257397Y-81210937D01*
X203253970Y-81202664D01*
X203254692Y-81198617D01*
X203381535Y-80855078D01*
X203387615Y-80848506D01*
X203393234Y-80847456D01*
X203786970Y-80871951D01*
G37*
%TD.AperFunction*%
%TD*%
%TA.AperFunction,Conductor*%
%TO.N,Net-(C27-Pad1)*%
G36*
X203398692Y-81063980D02*
G01*
X203401891Y-81066249D01*
X203602825Y-81267183D01*
X203606252Y-81275456D01*
X203604988Y-81280745D01*
X203484458Y-81518564D01*
X203477661Y-81524395D01*
X203476572Y-81524694D01*
X203014931Y-81627804D01*
X203006110Y-81626263D01*
X203000962Y-81618935D01*
X203001045Y-81613489D01*
X203115784Y-81164936D01*
X203121153Y-81157772D01*
X203123240Y-81156798D01*
X203389751Y-81063479D01*
X203398692Y-81063980D01*
G37*
%TD.AperFunction*%
%TD*%
%TA.AperFunction,Conductor*%
%TO.N,Net-(C27-Pad1)*%
G36*
X202953721Y-80702763D02*
G01*
X202956979Y-80707863D01*
X203090226Y-81128511D01*
X203103775Y-81171282D01*
X203103006Y-81180204D01*
X203096154Y-81185969D01*
X203092621Y-81186515D01*
X202809692Y-81186515D01*
X202807527Y-81186313D01*
X202526552Y-81133410D01*
X202519056Y-81128511D01*
X202517041Y-81121164D01*
X202542225Y-80728172D01*
X202546173Y-80720138D01*
X202553376Y-80717235D01*
X202945305Y-80699709D01*
X202953721Y-80702763D01*
G37*
%TD.AperFunction*%
%TD*%
%TA.AperFunction,Conductor*%
%TO.N,Net-(C27-Pad1)*%
G36*
X202994697Y-80961277D02*
G01*
X202995916Y-80962709D01*
X203184688Y-81224649D01*
X203186745Y-81233365D01*
X203185762Y-81236514D01*
X203002068Y-81622846D01*
X202995421Y-81628846D01*
X202988082Y-81629010D01*
X202928848Y-81610907D01*
X202717695Y-81546374D01*
X202710785Y-81540679D01*
X202709598Y-81533123D01*
X202775098Y-81167295D01*
X202778339Y-81161089D01*
X202978152Y-80961276D01*
X202986424Y-80957850D01*
X202994697Y-80961277D01*
G37*
%TD.AperFunction*%
%TD*%
%TA.AperFunction,Conductor*%
%TO.N,Net-(U7-XTAL_N)*%
G36*
X203048171Y-83540285D02*
G01*
X203056438Y-83543727D01*
X203059045Y-83547722D01*
X203159421Y-83804279D01*
X203159244Y-83813232D01*
X203156798Y-83816815D01*
X202955487Y-84018126D01*
X202947214Y-84021553D01*
X202942951Y-84020749D01*
X202686394Y-83920373D01*
X202679938Y-83914167D01*
X202678957Y-83909499D01*
X202678286Y-83551333D01*
X202681697Y-83543056D01*
X202689961Y-83539614D01*
X203048171Y-83540285D01*
G37*
%TD.AperFunction*%
%TD*%
%TA.AperFunction,Conductor*%
%TO.N,Net-(U7-XTAL_N)*%
G36*
X203027156Y-83672397D02*
G01*
X203319225Y-83808871D01*
X203365832Y-83830650D01*
X203371877Y-83837257D01*
X203372481Y-83842762D01*
X203321119Y-84236932D01*
X203316652Y-84244693D01*
X203309552Y-84247120D01*
X202920795Y-84248294D01*
X202912512Y-84244892D01*
X202909506Y-84239793D01*
X202809477Y-83887668D01*
X202810513Y-83878775D01*
X202812455Y-83876204D01*
X203013935Y-83674724D01*
X203022207Y-83671298D01*
X203027156Y-83672397D01*
G37*
%TD.AperFunction*%
%TD*%
%TA.AperFunction,Conductor*%
%TO.N,Net-(U7-XTAL_N)*%
G36*
X202524950Y-83333592D02*
G01*
X202525622Y-83334409D01*
X202675725Y-83534635D01*
X202677946Y-83543310D01*
X202676925Y-83546689D01*
X202491041Y-83936471D01*
X202484386Y-83942464D01*
X202481864Y-83943053D01*
X202129007Y-83985090D01*
X202120387Y-83982666D01*
X202116005Y-83974856D01*
X202115923Y-83973472D01*
X202115923Y-83691853D01*
X202119350Y-83683580D01*
X202119788Y-83683164D01*
X202271145Y-83546689D01*
X202508427Y-83332737D01*
X202516865Y-83329743D01*
X202524950Y-83333592D01*
G37*
%TD.AperFunction*%
%TD*%
%TA.AperFunction,Conductor*%
%TO.N,/NEOPX*%
G36*
X204130648Y-84530632D02*
G01*
X204131030Y-84530996D01*
X204367388Y-84766402D01*
X204370832Y-84774667D01*
X204370832Y-84774724D01*
X204369881Y-85107390D01*
X204366430Y-85115654D01*
X204358148Y-85119057D01*
X204357417Y-85119032D01*
X203771713Y-85080715D01*
X203763681Y-85076755D01*
X203760777Y-85069040D01*
X203760777Y-84924523D01*
X203763821Y-84916652D01*
X204114123Y-84531415D01*
X204122222Y-84527601D01*
X204130648Y-84530632D01*
G37*
%TD.AperFunction*%
%TD*%
%TA.AperFunction,Conductor*%
%TO.N,/NEOPX*%
G36*
X200248211Y-82729382D02*
G01*
X200252544Y-82732710D01*
X200282602Y-82769884D01*
X200285203Y-82777238D01*
X200285203Y-82928963D01*
X200282601Y-82936318D01*
X200260621Y-82963501D01*
X200252546Y-82973489D01*
X200244679Y-82977767D01*
X200239259Y-82977056D01*
X200124630Y-82933101D01*
X199944487Y-82864024D01*
X199937990Y-82857864D01*
X199937753Y-82848912D01*
X199943914Y-82842414D01*
X199944488Y-82842177D01*
X200239261Y-82729145D01*
X200248211Y-82729382D01*
G37*
%TD.AperFunction*%
%TD*%
%TA.AperFunction,Conductor*%
%TO.N,Net-(U7-XTAL_P)*%
G36*
X201562568Y-81249230D02*
G01*
X201568003Y-81255073D01*
X201696351Y-81557662D01*
X201696427Y-81566617D01*
X201695750Y-81568016D01*
X201520134Y-81876719D01*
X201513064Y-81882216D01*
X201504966Y-81881513D01*
X201341672Y-81804356D01*
X201083068Y-81682166D01*
X201079793Y-81679860D01*
X200882637Y-81482704D01*
X200879210Y-81474431D01*
X200882637Y-81466158D01*
X200887320Y-81463295D01*
X201553643Y-81248506D01*
X201562568Y-81249230D01*
G37*
%TD.AperFunction*%
%TD*%
M02*
