G04 #@! TF.GenerationSoftware,KiCad,Pcbnew,8.0.7-8.0.7-0~ubuntu22.04.1*
G04 #@! TF.CreationDate,2025-02-05T23:47:26-05:00*
G04 #@! TF.ProjectId,SHERPENT20250113,53484552-5045-44e5-9432-303235303131,rev?*
G04 #@! TF.SameCoordinates,Original*
G04 #@! TF.FileFunction,Copper,L2,Inr*
G04 #@! TF.FilePolarity,Positive*
%FSLAX46Y46*%
G04 Gerber Fmt 4.6, Leading zero omitted, Abs format (unit mm)*
G04 Created by KiCad (PCBNEW 8.0.7-8.0.7-0~ubuntu22.04.1) date 2025-02-05 23:47:26*
%MOMM*%
%LPD*%
G01*
G04 APERTURE LIST*
G04 #@! TA.AperFunction,ComponentPad*
%ADD10O,1.300000X2.500000*%
G04 #@! TD*
G04 #@! TA.AperFunction,ComponentPad*
%ADD11O,1.300000X3.200000*%
G04 #@! TD*
G04 #@! TA.AperFunction,ComponentPad*
%ADD12C,0.648000*%
G04 #@! TD*
G04 #@! TA.AperFunction,ComponentPad*
%ADD13C,3.000000*%
G04 #@! TD*
G04 #@! TA.AperFunction,ComponentPad*
%ADD14R,1.700000X1.700000*%
G04 #@! TD*
G04 #@! TA.AperFunction,ComponentPad*
%ADD15O,1.700000X1.700000*%
G04 #@! TD*
G04 #@! TA.AperFunction,ComponentPad*
%ADD16R,1.600000X1.600000*%
G04 #@! TD*
G04 #@! TA.AperFunction,ComponentPad*
%ADD17C,1.600000*%
G04 #@! TD*
G04 #@! TA.AperFunction,ComponentPad*
%ADD18C,1.400000*%
G04 #@! TD*
G04 #@! TA.AperFunction,ComponentPad*
%ADD19R,2.000000X2.000000*%
G04 #@! TD*
G04 #@! TA.AperFunction,ComponentPad*
%ADD20C,1.700000*%
G04 #@! TD*
G04 #@! TA.AperFunction,ComponentPad*
%ADD21C,2.000000*%
G04 #@! TD*
G04 #@! TA.AperFunction,ViaPad*
%ADD22C,1.000000*%
G04 #@! TD*
G04 #@! TA.AperFunction,ViaPad*
%ADD23C,0.800000*%
G04 #@! TD*
G04 #@! TA.AperFunction,ViaPad*
%ADD24C,0.700000*%
G04 #@! TD*
G04 #@! TA.AperFunction,ViaPad*
%ADD25C,0.450000*%
G04 #@! TD*
G04 #@! TA.AperFunction,ViaPad*
%ADD26C,0.500000*%
G04 #@! TD*
G04 #@! TA.AperFunction,ViaPad*
%ADD27C,0.600000*%
G04 #@! TD*
G04 #@! TA.AperFunction,Conductor*
%ADD28C,0.450000*%
G04 #@! TD*
G04 APERTURE END LIST*
D10*
X172649800Y-71999200D03*
X164009800Y-71999200D03*
D11*
X172649800Y-76149200D03*
X164009800Y-76149200D03*
D12*
X171304800Y-76649200D03*
X170454800Y-76649200D03*
X169604800Y-76649200D03*
X168754800Y-76649200D03*
X167904800Y-76649200D03*
X167054800Y-76649200D03*
X166204800Y-76649200D03*
X165354800Y-76649200D03*
X171304800Y-75299200D03*
X170454800Y-75299200D03*
X169604800Y-75299200D03*
X168754800Y-75299200D03*
X167904800Y-75299200D03*
X167054800Y-75299200D03*
X166204800Y-75299200D03*
X165354800Y-75299200D03*
D13*
X154927200Y-80467600D03*
D14*
X194920000Y-133200000D03*
D15*
X197460000Y-133200000D03*
X200000000Y-133200000D03*
D13*
X158153000Y-95148800D03*
D16*
X171800000Y-119255113D03*
D17*
X171800000Y-117255113D03*
D13*
X202857000Y-129235600D03*
X174200000Y-86200000D03*
D14*
X149600000Y-118175000D03*
D15*
X149600000Y-120715000D03*
X149600000Y-123255000D03*
D14*
X149053945Y-83687345D03*
D15*
X149053945Y-86227345D03*
D16*
X156200000Y-121144888D03*
D17*
X156200000Y-123144888D03*
D14*
X180860600Y-121234600D03*
D15*
X180860600Y-118694600D03*
X180860600Y-116154600D03*
D18*
X181267000Y-88931200D03*
X181267000Y-86391200D03*
D14*
X144159545Y-83661945D03*
D15*
X144159545Y-86201945D03*
D19*
X136187500Y-113912500D03*
X150187500Y-113912500D03*
X136187500Y-90912500D03*
X150187500Y-90912500D03*
X138727500Y-90912500D03*
X147647500Y-90912500D03*
D13*
X160900000Y-119700000D03*
D20*
X165750000Y-132750000D03*
X170250000Y-132750000D03*
D21*
X164500000Y-130250000D03*
X171500000Y-130250000D03*
D22*
X164750000Y-97000000D03*
X165750000Y-98750000D03*
D23*
X191554000Y-86449800D03*
D22*
X165750000Y-97500000D03*
D23*
X151955400Y-77673600D03*
D24*
X162500000Y-87000000D03*
X161250000Y-87000000D03*
D23*
X197800000Y-82300000D03*
X185100000Y-76400000D03*
D24*
X195988519Y-76300766D03*
D23*
X162397899Y-104192749D03*
D25*
X201318509Y-82422109D03*
D22*
X163750000Y-98750000D03*
D26*
X140600000Y-78800000D03*
D24*
X171600000Y-80500000D03*
D23*
X176820000Y-124335400D03*
D22*
X163500000Y-99877150D03*
D24*
X196419422Y-78180577D03*
X162800000Y-80100000D03*
D23*
X205159204Y-81115800D03*
D24*
X159000000Y-88462945D03*
X140366400Y-88466400D03*
D23*
X201472700Y-75667500D03*
D22*
X164500000Y-100750000D03*
D23*
X200647200Y-78398000D03*
X198996200Y-125275000D03*
D24*
X160500000Y-88462945D03*
D23*
X155003400Y-103810200D03*
X161346600Y-116463600D03*
X160446600Y-111563600D03*
X162877400Y-93243800D03*
D24*
X159750000Y-88462945D03*
D22*
X164750000Y-99500000D03*
D26*
X135400000Y-127000000D03*
D23*
X181800000Y-82000000D03*
X204762000Y-77864600D03*
X144259200Y-126898800D03*
X192000000Y-76900000D03*
X184250000Y-84849600D03*
X134000000Y-118928000D03*
D22*
X163750000Y-97500000D03*
D23*
X205333000Y-85395200D03*
D22*
X164750000Y-98250000D03*
D23*
X186148841Y-84368051D03*
X191482160Y-80631013D03*
X199000000Y-87500000D03*
D24*
X156000000Y-91250000D03*
X157500000Y-90000000D03*
D22*
X155613000Y-108407600D03*
D24*
X154500000Y-89750000D03*
X156750000Y-90000000D03*
X158250000Y-90000000D03*
X146700000Y-83400000D03*
X157500000Y-90750000D03*
X146700000Y-84500000D03*
X156750000Y-90750000D03*
X154500000Y-91250000D03*
X153750000Y-89750000D03*
X153750000Y-91250000D03*
X153750000Y-90500000D03*
X158250000Y-90750000D03*
D23*
X190400000Y-87600000D03*
D24*
X154500000Y-90500000D03*
D23*
X169938600Y-96317200D03*
X185331000Y-127635400D03*
D22*
X155750000Y-101000000D03*
X155750000Y-99750000D03*
D24*
X168900000Y-91200000D03*
D23*
X134000000Y-83512800D03*
X205371600Y-120269400D03*
X143470800Y-74347200D03*
X168500000Y-70100000D03*
D22*
X156500000Y-98500000D03*
X159208771Y-101260110D03*
X160413599Y-100482800D03*
D23*
X178600000Y-79223000D03*
X140200000Y-123600000D03*
D22*
X157250000Y-99750000D03*
D23*
X152768200Y-131699400D03*
D22*
X157250000Y-101000000D03*
D23*
X180200000Y-76100000D03*
X192752355Y-80646261D03*
X154266800Y-83616145D03*
D24*
X174525000Y-75975000D03*
D23*
X167587800Y-85293200D03*
X202221606Y-76599444D03*
D24*
X196236288Y-77286455D03*
D23*
X184010200Y-86576800D03*
X195630700Y-85954500D03*
D24*
X160250000Y-90250000D03*
X159500000Y-90250000D03*
D22*
X171000000Y-71762500D03*
D23*
X178400000Y-88000000D03*
D22*
X153900000Y-108600000D03*
D24*
X161000000Y-90250000D03*
X200700000Y-85500000D03*
X199936000Y-84822148D03*
X192740613Y-82324212D03*
X144500000Y-94300000D03*
X156806800Y-113208200D03*
X190690400Y-81954000D03*
X152500000Y-88400000D03*
X188735873Y-80525000D03*
X191392852Y-82720775D03*
D26*
X162587040Y-102368840D03*
X161504968Y-102374556D03*
D24*
X204369846Y-84769846D03*
X164376000Y-114226100D03*
X169700000Y-110300000D03*
X167096600Y-107305600D03*
X159856278Y-102348739D03*
X164283400Y-103216600D03*
X157700000Y-98200000D03*
X194698859Y-79526223D03*
D27*
X196367813Y-79036896D03*
D24*
X184964600Y-78435400D03*
D26*
X137400000Y-118600000D03*
X137800000Y-83600000D03*
D24*
X198183400Y-122022000D03*
D28*
X165354800Y-75299200D02*
X165354800Y-76649200D01*
X171304800Y-74404800D02*
X170600000Y-73700000D01*
X165354800Y-76649200D02*
X165354800Y-77354800D01*
X165354800Y-75299200D02*
X165354800Y-74445200D01*
X165354800Y-77354800D02*
X166000000Y-78000000D01*
X171304800Y-76649200D02*
X171304800Y-77495200D01*
X165354800Y-74445200D02*
X165700000Y-74100000D01*
X171304800Y-74404800D02*
X171304800Y-76649200D01*
X171304800Y-77495200D02*
X170600000Y-78200000D01*
G04 #@! TA.AperFunction,Conductor*
G36*
X168164333Y-69413252D02*
G01*
X168178685Y-69447900D01*
X168164333Y-69482548D01*
X168152456Y-69491287D01*
X168099159Y-69519259D01*
X168099151Y-69519264D01*
X168099148Y-69519266D01*
X168099146Y-69519268D01*
X167971816Y-69632071D01*
X167875182Y-69772068D01*
X167875181Y-69772070D01*
X167814861Y-69931125D01*
X167814860Y-69931128D01*
X167794355Y-70100000D01*
X167814860Y-70268872D01*
X167814861Y-70268874D01*
X167875181Y-70427929D01*
X167875182Y-70427931D01*
X167964187Y-70556875D01*
X167971817Y-70567929D01*
X168099148Y-70680734D01*
X168249775Y-70759790D01*
X168414944Y-70800500D01*
X168585056Y-70800500D01*
X168750225Y-70759790D01*
X168900852Y-70680734D01*
X169028183Y-70567929D01*
X169124818Y-70427930D01*
X169185140Y-70268872D01*
X169205645Y-70100000D01*
X169185140Y-69931128D01*
X169124818Y-69772070D01*
X169028183Y-69632071D01*
X168900852Y-69519266D01*
X168900844Y-69519261D01*
X168900840Y-69519259D01*
X168847544Y-69491287D01*
X168823534Y-69462478D01*
X168826928Y-69425129D01*
X168855737Y-69401119D01*
X168870315Y-69398900D01*
X173351000Y-69398900D01*
X173385648Y-69413252D01*
X173400000Y-69447900D01*
X173400000Y-70686894D01*
X173385648Y-70721542D01*
X173351000Y-70735894D01*
X173316352Y-70721542D01*
X173255707Y-70660897D01*
X173217181Y-70635155D01*
X173100031Y-70556878D01*
X173100027Y-70556876D01*
X173100025Y-70556875D01*
X172927058Y-70485229D01*
X172927048Y-70485226D01*
X172852994Y-70470496D01*
X172743416Y-70448700D01*
X172556184Y-70448700D01*
X172464786Y-70466880D01*
X172372551Y-70485226D01*
X172372541Y-70485229D01*
X172199574Y-70556875D01*
X172199570Y-70556877D01*
X172199569Y-70556878D01*
X172183030Y-70567929D01*
X172043892Y-70660897D01*
X171911497Y-70793292D01*
X171807475Y-70948974D01*
X171735829Y-71121941D01*
X171735824Y-71121960D01*
X171713179Y-71235806D01*
X171692344Y-71266989D01*
X171655562Y-71274305D01*
X171630473Y-71260895D01*
X171502263Y-71132685D01*
X171502259Y-71132682D01*
X171349526Y-71036712D01*
X171179258Y-70977133D01*
X171179257Y-70977132D01*
X171179255Y-70977132D01*
X171179251Y-70977131D01*
X171179249Y-70977131D01*
X171000000Y-70956935D01*
X170820750Y-70977131D01*
X170820741Y-70977133D01*
X170650473Y-71036712D01*
X170497740Y-71132682D01*
X170497736Y-71132685D01*
X170370185Y-71260236D01*
X170370182Y-71260240D01*
X170274212Y-71412973D01*
X170214633Y-71583241D01*
X170214631Y-71583250D01*
X170194435Y-71762500D01*
X170214631Y-71941749D01*
X170214633Y-71941758D01*
X170274212Y-72112026D01*
X170370066Y-72264574D01*
X170370184Y-72264762D01*
X170497738Y-72392316D01*
X170497740Y-72392317D01*
X170650473Y-72488287D01*
X170650477Y-72488288D01*
X170650478Y-72488289D01*
X170820745Y-72547868D01*
X171000000Y-72568065D01*
X171179255Y-72547868D01*
X171349522Y-72488289D01*
X171349524Y-72488287D01*
X171349526Y-72488287D01*
X171405596Y-72453055D01*
X171502262Y-72392316D01*
X171615652Y-72278926D01*
X171650300Y-72264574D01*
X171684948Y-72278926D01*
X171699300Y-72313574D01*
X171699300Y-72692816D01*
X171723540Y-72814679D01*
X171735826Y-72876448D01*
X171735829Y-72876458D01*
X171807475Y-73049425D01*
X171807476Y-73049427D01*
X171807478Y-73049431D01*
X171911498Y-73205108D01*
X172043892Y-73337502D01*
X172199569Y-73441522D01*
X172199574Y-73441524D01*
X172372541Y-73513170D01*
X172372543Y-73513170D01*
X172372549Y-73513173D01*
X172556184Y-73549700D01*
X172556187Y-73549700D01*
X172743413Y-73549700D01*
X172743416Y-73549700D01*
X172927051Y-73513173D01*
X173100031Y-73441522D01*
X173255708Y-73337502D01*
X173316352Y-73276858D01*
X173351000Y-73262506D01*
X173385648Y-73276858D01*
X173400000Y-73311506D01*
X173400000Y-74486894D01*
X173385648Y-74521542D01*
X173351000Y-74535894D01*
X173316352Y-74521542D01*
X173255707Y-74460897D01*
X173217181Y-74435155D01*
X173100031Y-74356878D01*
X173100027Y-74356876D01*
X173100025Y-74356875D01*
X172927058Y-74285229D01*
X172927048Y-74285226D01*
X172852994Y-74270496D01*
X172743416Y-74248700D01*
X172556184Y-74248700D01*
X172464786Y-74266880D01*
X172372551Y-74285226D01*
X172372541Y-74285229D01*
X172199574Y-74356875D01*
X172199570Y-74356877D01*
X172199569Y-74356878D01*
X172181622Y-74368870D01*
X172043892Y-74460897D01*
X171911497Y-74593292D01*
X171807475Y-74748974D01*
X171735829Y-74921941D01*
X171735826Y-74921951D01*
X171718940Y-75006847D01*
X171699300Y-75105584D01*
X171699300Y-77192816D01*
X171715389Y-77273700D01*
X171735826Y-77376448D01*
X171735829Y-77376458D01*
X171807475Y-77549425D01*
X171807476Y-77549427D01*
X171807478Y-77549431D01*
X171911498Y-77705108D01*
X172043892Y-77837502D01*
X172199569Y-77941522D01*
X172199574Y-77941524D01*
X172372541Y-78013170D01*
X172372543Y-78013170D01*
X172372549Y-78013173D01*
X172556184Y-78049700D01*
X172556187Y-78049700D01*
X172743413Y-78049700D01*
X172743416Y-78049700D01*
X172927051Y-78013173D01*
X173100031Y-77941522D01*
X173255708Y-77837502D01*
X173388102Y-77705108D01*
X173492122Y-77549431D01*
X173563773Y-77376451D01*
X173581674Y-77286455D01*
X195581010Y-77286455D01*
X195600051Y-77443274D01*
X195656068Y-77590979D01*
X195713915Y-77674785D01*
X195745805Y-77720985D01*
X195864048Y-77825738D01*
X196003923Y-77899151D01*
X196157303Y-77936955D01*
X196157304Y-77936955D01*
X196315271Y-77936955D01*
X196315273Y-77936955D01*
X196468653Y-77899151D01*
X196608528Y-77825738D01*
X196726771Y-77720985D01*
X196816508Y-77590978D01*
X196872525Y-77443273D01*
X196891566Y-77286455D01*
X196872525Y-77129637D01*
X196816508Y-76981932D01*
X196726771Y-76851925D01*
X196726768Y-76851922D01*
X196726767Y-76851921D01*
X196608527Y-76747171D01*
X196468652Y-76673758D01*
X196353076Y-76645272D01*
X196315273Y-76635955D01*
X196157303Y-76635955D01*
X196126975Y-76643430D01*
X196003923Y-76673758D01*
X195864048Y-76747171D01*
X195745808Y-76851921D01*
X195745804Y-76851926D01*
X195656068Y-76981930D01*
X195600051Y-77129635D01*
X195581010Y-77286455D01*
X173581674Y-77286455D01*
X173600300Y-77192816D01*
X173600300Y-75975000D01*
X173869722Y-75975000D01*
X173888763Y-76131819D01*
X173944780Y-76279524D01*
X173998153Y-76356847D01*
X174034517Y-76409530D01*
X174034519Y-76409531D01*
X174034520Y-76409533D01*
X174135114Y-76498650D01*
X174152760Y-76514283D01*
X174292635Y-76587696D01*
X174446015Y-76625500D01*
X174446016Y-76625500D01*
X174603983Y-76625500D01*
X174603985Y-76625500D01*
X174757365Y-76587696D01*
X174897240Y-76514283D01*
X175015483Y-76409530D01*
X175105220Y-76279523D01*
X175161237Y-76131818D01*
X175165100Y-76100000D01*
X179494355Y-76100000D01*
X179514860Y-76268872D01*
X179518900Y-76279524D01*
X179575181Y-76427929D01*
X179575182Y-76427931D01*
X179671816Y-76567928D01*
X179671817Y-76567929D01*
X179799148Y-76680734D01*
X179949775Y-76759790D01*
X180114944Y-76800500D01*
X180285056Y-76800500D01*
X180450225Y-76759790D01*
X180600852Y-76680734D01*
X180692610Y-76599444D01*
X201515961Y-76599444D01*
X201536466Y-76768316D01*
X201536467Y-76768318D01*
X201596787Y-76927373D01*
X201596788Y-76927375D01*
X201692725Y-77066362D01*
X201693423Y-77067373D01*
X201820754Y-77180178D01*
X201971381Y-77259234D01*
X202136550Y-77299944D01*
X202306662Y-77299944D01*
X202471831Y-77259234D01*
X202622458Y-77180178D01*
X202749789Y-77067373D01*
X202846424Y-76927374D01*
X202906746Y-76768316D01*
X202927251Y-76599444D01*
X202906746Y-76430572D01*
X202846424Y-76271514D01*
X202844600Y-76268872D01*
X202749789Y-76131515D01*
X202749735Y-76131467D01*
X202622458Y-76018710D01*
X202622450Y-76018706D01*
X202622449Y-76018705D01*
X202471830Y-75939653D01*
X202306662Y-75898944D01*
X202136550Y-75898944D01*
X201971381Y-75939653D01*
X201820762Y-76018705D01*
X201820757Y-76018708D01*
X201820754Y-76018710D01*
X201820752Y-76018712D01*
X201693422Y-76131515D01*
X201596788Y-76271512D01*
X201596787Y-76271514D01*
X201536467Y-76430569D01*
X201536466Y-76430572D01*
X201515961Y-76599444D01*
X180692610Y-76599444D01*
X180728183Y-76567929D01*
X180824818Y-76427930D01*
X180885140Y-76268872D01*
X180905645Y-76100000D01*
X180885140Y-75931128D01*
X180824818Y-75772070D01*
X180786365Y-75716362D01*
X180728183Y-75632071D01*
X180682445Y-75591551D01*
X180600852Y-75519266D01*
X180600844Y-75519262D01*
X180600843Y-75519261D01*
X180450224Y-75440209D01*
X180285056Y-75399500D01*
X180114944Y-75399500D01*
X179949775Y-75440209D01*
X179799156Y-75519261D01*
X179799151Y-75519264D01*
X179799148Y-75519266D01*
X179799146Y-75519268D01*
X179671816Y-75632071D01*
X179575182Y-75772068D01*
X179575181Y-75772070D01*
X179517677Y-75923700D01*
X179514860Y-75931128D01*
X179494355Y-76100000D01*
X175165100Y-76100000D01*
X175180278Y-75975000D01*
X175161237Y-75818182D01*
X175105220Y-75670477D01*
X175015483Y-75540470D01*
X175015480Y-75540467D01*
X175015479Y-75540466D01*
X174897239Y-75435716D01*
X174757364Y-75362303D01*
X174641788Y-75333817D01*
X174603985Y-75324500D01*
X174446015Y-75324500D01*
X174415687Y-75331975D01*
X174292635Y-75362303D01*
X174152760Y-75435716D01*
X174034520Y-75540466D01*
X174034516Y-75540471D01*
X173944780Y-75670475D01*
X173888763Y-75818180D01*
X173869722Y-75975000D01*
X173600300Y-75975000D01*
X173600300Y-75105584D01*
X173563773Y-74921949D01*
X173511985Y-74796922D01*
X173511985Y-74759420D01*
X173538503Y-74732901D01*
X173557351Y-74729172D01*
X206549405Y-74798846D01*
X206584021Y-74813271D01*
X206598300Y-74847846D01*
X206598300Y-91297300D01*
X206583948Y-91331948D01*
X206549300Y-91346300D01*
X172031705Y-91346300D01*
X171904415Y-91380407D01*
X171904411Y-91380408D01*
X171790285Y-91446300D01*
X171790285Y-91446301D01*
X171697101Y-91539485D01*
X171697100Y-91539485D01*
X171631208Y-91653611D01*
X171631207Y-91653615D01*
X171597100Y-91780904D01*
X171597100Y-114213895D01*
X171631207Y-114341184D01*
X171631208Y-114341188D01*
X171697100Y-114455314D01*
X171790286Y-114548500D01*
X171832057Y-114572617D01*
X171904411Y-114614391D01*
X171904413Y-114614391D01*
X171904414Y-114614392D01*
X172004807Y-114641292D01*
X172031704Y-114648499D01*
X172031705Y-114648500D01*
X172031708Y-114648500D01*
X172163492Y-114648500D01*
X206549300Y-114648500D01*
X206583948Y-114662852D01*
X206598300Y-114697500D01*
X206598300Y-136546900D01*
X206583948Y-136581548D01*
X206549300Y-136595900D01*
X132464300Y-136595900D01*
X132429652Y-136581548D01*
X132415300Y-136546900D01*
X132415300Y-132874038D01*
X137399500Y-132874038D01*
X137399500Y-133125961D01*
X137438909Y-133374782D01*
X137438910Y-133374785D01*
X137516759Y-133614380D01*
X137615544Y-133808256D01*
X137631130Y-133838845D01*
X137732527Y-133978407D01*
X137779208Y-134042657D01*
X137779212Y-134042662D01*
X137957338Y-134220788D01*
X137957342Y-134220791D01*
X137957344Y-134220793D01*
X138161155Y-134368870D01*
X138385621Y-134483241D01*
X138625215Y-134561090D01*
X138874038Y-134600500D01*
X138874039Y-134600500D01*
X139125961Y-134600500D01*
X139125962Y-134600500D01*
X139374785Y-134561090D01*
X139614379Y-134483241D01*
X139838845Y-134368870D01*
X140042656Y-134220793D01*
X140042659Y-134220789D01*
X140042662Y-134220788D01*
X140220788Y-134042662D01*
X140220789Y-134042659D01*
X140220793Y-134042656D01*
X140368870Y-133838845D01*
X140483241Y-133614379D01*
X140561090Y-133374785D01*
X140600500Y-133125962D01*
X140600500Y-132874038D01*
X155399500Y-132874038D01*
X155399500Y-133125961D01*
X155438909Y-133374782D01*
X155438910Y-133374785D01*
X155516759Y-133614380D01*
X155615544Y-133808256D01*
X155631130Y-133838845D01*
X155732527Y-133978407D01*
X155779208Y-134042657D01*
X155779212Y-134042662D01*
X155957338Y-134220788D01*
X155957342Y-134220791D01*
X155957344Y-134220793D01*
X156161155Y-134368870D01*
X156385621Y-134483241D01*
X156625215Y-134561090D01*
X156874038Y-134600500D01*
X156874039Y-134600500D01*
X157125961Y-134600500D01*
X157125962Y-134600500D01*
X157374785Y-134561090D01*
X157614379Y-134483241D01*
X157838845Y-134368870D01*
X158042656Y-134220793D01*
X158042659Y-134220789D01*
X158042662Y-134220788D01*
X158220788Y-134042662D01*
X158220789Y-134042659D01*
X158220793Y-134042656D01*
X158368870Y-133838845D01*
X158483241Y-133614379D01*
X158561090Y-133374785D01*
X158600500Y-133125962D01*
X158600500Y-132874038D01*
X158580854Y-132750000D01*
X169094571Y-132750000D01*
X169114243Y-132962306D01*
X169114244Y-132962312D01*
X169172593Y-133167384D01*
X169172597Y-133167394D01*
X169267632Y-133358252D01*
X169267635Y-133358256D01*
X169396125Y-133528404D01*
X169396128Y-133528407D01*
X169553693Y-133672048D01*
X169553694Y-133672049D01*
X169553698Y-133672052D01*
X169734981Y-133784298D01*
X169734984Y-133784299D01*
X169933796Y-133861319D01*
X169933797Y-133861319D01*
X169933802Y-133861321D01*
X170143390Y-133900500D01*
X170143392Y-133900500D01*
X170356608Y-133900500D01*
X170356610Y-133900500D01*
X170566198Y-133861321D01*
X170765019Y-133784298D01*
X170946302Y-133672052D01*
X171103872Y-133528407D01*
X171232366Y-133358255D01*
X171327405Y-133167389D01*
X171385756Y-132962310D01*
X171405429Y-132750000D01*
X171385756Y-132537690D01*
X171327405Y-132332611D01*
X171313723Y-132305134D01*
X193769500Y-132305134D01*
X193769500Y-134094858D01*
X193769501Y-134094868D01*
X193772415Y-134119992D01*
X193817794Y-134222766D01*
X193897233Y-134302205D01*
X194000006Y-134347584D01*
X194000009Y-134347585D01*
X194025135Y-134350500D01*
X195814864Y-134350499D01*
X195839991Y-134347585D01*
X195942765Y-134302206D01*
X196022206Y-134222765D01*
X196067585Y-134119991D01*
X196070500Y-134094865D01*
X196070499Y-133200000D01*
X196304571Y-133200000D01*
X196324243Y-133412306D01*
X196324244Y-133412312D01*
X196382593Y-133617384D01*
X196382597Y-133617394D01*
X196477632Y-133808252D01*
X196477633Y-133808254D01*
X196477634Y-133808255D01*
X196500735Y-133838845D01*
X196606125Y-133978404D01*
X196606128Y-133978407D01*
X196763693Y-134122048D01*
X196763694Y-134122049D01*
X196763698Y-134122052D01*
X196944981Y-134234298D01*
X196944984Y-134234299D01*
X197143796Y-134311319D01*
X197143797Y-134311319D01*
X197143802Y-134311321D01*
X197353390Y-134350500D01*
X197353392Y-134350500D01*
X197566608Y-134350500D01*
X197566610Y-134350500D01*
X197776198Y-134311321D01*
X197975019Y-134234298D01*
X198156302Y-134122052D01*
X198313872Y-133978407D01*
X198442366Y-133808255D01*
X198537405Y-133617389D01*
X198595756Y-133412310D01*
X198615429Y-133200000D01*
X198595756Y-132987690D01*
X198537405Y-132782611D01*
X198442366Y-132591745D01*
X198313872Y-132421593D01*
X198245420Y-132359190D01*
X198156306Y-132277951D01*
X198156303Y-132277949D01*
X198156302Y-132277948D01*
X197975019Y-132165702D01*
X197975016Y-132165701D01*
X197975015Y-132165700D01*
X197776203Y-132088680D01*
X197776198Y-132088679D01*
X197566610Y-132049500D01*
X197353390Y-132049500D01*
X197195236Y-132079064D01*
X197143796Y-132088680D01*
X196944984Y-132165700D01*
X196763693Y-132277951D01*
X196606128Y-132421592D01*
X196606125Y-132421595D01*
X196477635Y-132591743D01*
X196477632Y-132591747D01*
X196382597Y-132782605D01*
X196382593Y-132782615D01*
X196324244Y-132987687D01*
X196324243Y-132987693D01*
X196304571Y-133200000D01*
X196070499Y-133200000D01*
X196070499Y-132305136D01*
X196067585Y-132280009D01*
X196022206Y-132177235D01*
X196022205Y-132177234D01*
X196022205Y-132177233D01*
X195942766Y-132097794D01*
X195942767Y-132097794D01*
X195839993Y-132052415D01*
X195827428Y-132050957D01*
X195814865Y-132049500D01*
X195814863Y-132049500D01*
X194025141Y-132049500D01*
X194025131Y-132049501D01*
X194000007Y-132052415D01*
X193897233Y-132097794D01*
X193817794Y-132177233D01*
X193772415Y-132280006D01*
X193769500Y-132305134D01*
X171313723Y-132305134D01*
X171232366Y-132141745D01*
X171168119Y-132056669D01*
X171103874Y-131971595D01*
X171103871Y-131971592D01*
X170946306Y-131827951D01*
X170946303Y-131827949D01*
X170946302Y-131827948D01*
X170765019Y-131715702D01*
X170765016Y-131715701D01*
X170765015Y-131715700D01*
X170566203Y-131638680D01*
X170566198Y-131638679D01*
X170356610Y-131599500D01*
X170143390Y-131599500D01*
X169985236Y-131629064D01*
X169933796Y-131638680D01*
X169734984Y-131715700D01*
X169553693Y-131827951D01*
X169396128Y-131971592D01*
X169396125Y-131971595D01*
X169267635Y-132141743D01*
X169267632Y-132141747D01*
X169172597Y-132332605D01*
X169172593Y-132332615D01*
X169114244Y-132537687D01*
X169114243Y-132537693D01*
X169094571Y-132750000D01*
X158580854Y-132750000D01*
X158561090Y-132625215D01*
X158483241Y-132385621D01*
X158368870Y-132161155D01*
X158220793Y-131957344D01*
X158220791Y-131957342D01*
X158220788Y-131957338D01*
X158042662Y-131779212D01*
X158042657Y-131779208D01*
X157955248Y-131715702D01*
X157838845Y-131631130D01*
X157838844Y-131631129D01*
X157838842Y-131631128D01*
X157614380Y-131516759D01*
X157374785Y-131438910D01*
X157374782Y-131438909D01*
X157183642Y-131408635D01*
X157125962Y-131399500D01*
X156874038Y-131399500D01*
X156827212Y-131406916D01*
X156625217Y-131438909D01*
X156625214Y-131438910D01*
X156385619Y-131516759D01*
X156161157Y-131631128D01*
X155957342Y-131779208D01*
X155779208Y-131957342D01*
X155631128Y-132161157D01*
X155516759Y-132385619D01*
X155438910Y-132625214D01*
X155438909Y-132625217D01*
X155399500Y-132874038D01*
X140600500Y-132874038D01*
X140561090Y-132625215D01*
X140483241Y-132385621D01*
X140368870Y-132161155D01*
X140220793Y-131957344D01*
X140220791Y-131957342D01*
X140220788Y-131957338D01*
X140042662Y-131779212D01*
X140042657Y-131779208D01*
X139955248Y-131715702D01*
X139932810Y-131699400D01*
X152062555Y-131699400D01*
X152083060Y-131868272D01*
X152083061Y-131868274D01*
X152143381Y-132027329D01*
X152143382Y-132027331D01*
X152238894Y-132165702D01*
X152240017Y-132167329D01*
X152367348Y-132280134D01*
X152517975Y-132359190D01*
X152683144Y-132399900D01*
X152853256Y-132399900D01*
X153018425Y-132359190D01*
X153169052Y-132280134D01*
X153296383Y-132167329D01*
X153393018Y-132027330D01*
X153453340Y-131868272D01*
X153473845Y-131699400D01*
X153453340Y-131530528D01*
X153393018Y-131371470D01*
X153296383Y-131231471D01*
X153169052Y-131118666D01*
X153169044Y-131118662D01*
X153169043Y-131118661D01*
X153018424Y-131039609D01*
X152853256Y-130998900D01*
X152683144Y-130998900D01*
X152517975Y-131039609D01*
X152367356Y-131118661D01*
X152367351Y-131118664D01*
X152367348Y-131118666D01*
X152367346Y-131118668D01*
X152240016Y-131231471D01*
X152143382Y-131371468D01*
X152143381Y-131371470D01*
X152088282Y-131516759D01*
X152083060Y-131530528D01*
X152062555Y-131699400D01*
X139932810Y-131699400D01*
X139838845Y-131631130D01*
X139838844Y-131631129D01*
X139838842Y-131631128D01*
X139614380Y-131516759D01*
X139374785Y-131438910D01*
X139374782Y-131438909D01*
X139183642Y-131408635D01*
X139125962Y-131399500D01*
X138874038Y-131399500D01*
X138827212Y-131406916D01*
X138625217Y-131438909D01*
X138625214Y-131438910D01*
X138385619Y-131516759D01*
X138161157Y-131631128D01*
X137957342Y-131779208D01*
X137779208Y-131957342D01*
X137631128Y-132161157D01*
X137516759Y-132385619D01*
X137438910Y-132625214D01*
X137438909Y-132625217D01*
X137399500Y-132874038D01*
X132415300Y-132874038D01*
X132415300Y-129235600D01*
X201051451Y-129235600D01*
X201071616Y-129504697D01*
X201071618Y-129504706D01*
X201131666Y-129767796D01*
X201230256Y-130018996D01*
X201230259Y-130019001D01*
X201365181Y-130252697D01*
X201365184Y-130252701D01*
X201533434Y-130463680D01*
X201533439Y-130463685D01*
X201731259Y-130647235D01*
X201954226Y-130799251D01*
X201954227Y-130799251D01*
X201954228Y-130799252D01*
X202197352Y-130916335D01*
X202197355Y-130916336D01*
X202197359Y-130916338D01*
X202455228Y-130995880D01*
X202722071Y-131036100D01*
X202722073Y-131036100D01*
X202991927Y-131036100D01*
X202991929Y-131036100D01*
X203258772Y-130995880D01*
X203516641Y-130916338D01*
X203759775Y-130799251D01*
X203982741Y-130647235D01*
X204180561Y-130463685D01*
X204348815Y-130252702D01*
X204483743Y-130018998D01*
X204582334Y-129767795D01*
X204642383Y-129504703D01*
X204662549Y-129235600D01*
X204642383Y-128966497D01*
X204582334Y-128703405D01*
X204483743Y-128452202D01*
X204393093Y-128295190D01*
X204348818Y-128218502D01*
X204348815Y-128218498D01*
X204180565Y-128007519D01*
X204180560Y-128007514D01*
X203982742Y-127823966D01*
X203982740Y-127823964D01*
X203759772Y-127671947D01*
X203516647Y-127554864D01*
X203516634Y-127554859D01*
X203339486Y-127500217D01*
X203258772Y-127475320D01*
X202991929Y-127435100D01*
X202722071Y-127435100D01*
X202455228Y-127475320D01*
X202455225Y-127475321D01*
X202197365Y-127554859D01*
X202197352Y-127554864D01*
X201954228Y-127671947D01*
X201731259Y-127823964D01*
X201731257Y-127823966D01*
X201533439Y-128007514D01*
X201533434Y-128007519D01*
X201365184Y-128218498D01*
X201365181Y-128218502D01*
X201230259Y-128452198D01*
X201230256Y-128452203D01*
X201131666Y-128703403D01*
X201071618Y-128966493D01*
X201071616Y-128966502D01*
X201051451Y-129235600D01*
X132415300Y-129235600D01*
X132415300Y-127635400D01*
X184625355Y-127635400D01*
X184645860Y-127804272D01*
X184653329Y-127823966D01*
X184706181Y-127963329D01*
X184706182Y-127963331D01*
X184802816Y-128103328D01*
X184802817Y-128103329D01*
X184930148Y-128216134D01*
X185080775Y-128295190D01*
X185245944Y-128335900D01*
X185416056Y-128335900D01*
X185581225Y-128295190D01*
X185731852Y-128216134D01*
X185859183Y-128103329D01*
X185955818Y-127963330D01*
X186016140Y-127804272D01*
X186036645Y-127635400D01*
X186016140Y-127466528D01*
X185955818Y-127307470D01*
X185859183Y-127167471D01*
X185731852Y-127054666D01*
X185731844Y-127054662D01*
X185731843Y-127054661D01*
X185581224Y-126975609D01*
X185416056Y-126934900D01*
X185245944Y-126934900D01*
X185080775Y-126975609D01*
X184930156Y-127054661D01*
X184930151Y-127054664D01*
X184930148Y-127054666D01*
X184930146Y-127054668D01*
X184802816Y-127167471D01*
X184706182Y-127307468D01*
X184706181Y-127307470D01*
X184657779Y-127435100D01*
X184645860Y-127466528D01*
X184625355Y-127635400D01*
X132415300Y-127635400D01*
X132415300Y-123600000D01*
X139494355Y-123600000D01*
X139514860Y-123768872D01*
X139514861Y-123768874D01*
X139575181Y-123927929D01*
X139575182Y-123927931D01*
X139671816Y-124067928D01*
X139671817Y-124067929D01*
X139799148Y-124180734D01*
X139949775Y-124259790D01*
X140114944Y-124300500D01*
X140285056Y-124300500D01*
X140450225Y-124259790D01*
X140600852Y-124180734D01*
X140728183Y-124067929D01*
X140824818Y-123927930D01*
X140885140Y-123768872D01*
X140905645Y-123600000D01*
X140885140Y-123431128D01*
X140824818Y-123272070D01*
X140728183Y-123132071D01*
X140600852Y-123019266D01*
X140600844Y-123019262D01*
X140600843Y-123019261D01*
X140450224Y-122940209D01*
X140285056Y-122899500D01*
X140114944Y-122899500D01*
X139949775Y-122940209D01*
X139799156Y-123019261D01*
X139799151Y-123019264D01*
X139799148Y-123019266D01*
X139799146Y-123019268D01*
X139671816Y-123132071D01*
X139575182Y-123272068D01*
X139575181Y-123272070D01*
X139514861Y-123431125D01*
X139514860Y-123431128D01*
X139494355Y-123600000D01*
X132415300Y-123600000D01*
X132415300Y-120715000D01*
X148444571Y-120715000D01*
X148464243Y-120927306D01*
X148464244Y-120927312D01*
X148522593Y-121132384D01*
X148522597Y-121132394D01*
X148617632Y-121323252D01*
X148617635Y-121323256D01*
X148746125Y-121493404D01*
X148746128Y-121493407D01*
X148903693Y-121637048D01*
X148903694Y-121637049D01*
X148903698Y-121637052D01*
X149084981Y-121749298D01*
X149084984Y-121749299D01*
X149283796Y-121826319D01*
X149283797Y-121826319D01*
X149283802Y-121826321D01*
X149493390Y-121865500D01*
X149493392Y-121865500D01*
X149706608Y-121865500D01*
X149706610Y-121865500D01*
X149916198Y-121826321D01*
X150115019Y-121749298D01*
X150296302Y-121637052D01*
X150453872Y-121493407D01*
X150582366Y-121323255D01*
X150677405Y-121132389D01*
X150735756Y-120927310D01*
X150755429Y-120715000D01*
X150735756Y-120502690D01*
X150678091Y-120300022D01*
X155099500Y-120300022D01*
X155099500Y-121989746D01*
X155099501Y-121989756D01*
X155102415Y-122014880D01*
X155147794Y-122117654D01*
X155227233Y-122197093D01*
X155330006Y-122242472D01*
X155330009Y-122242473D01*
X155355135Y-122245388D01*
X157044864Y-122245387D01*
X157069991Y-122242473D01*
X157172765Y-122197094D01*
X157252206Y-122117653D01*
X157297585Y-122014879D01*
X157300500Y-121989753D01*
X157300499Y-120300024D01*
X157297585Y-120274897D01*
X157252206Y-120172123D01*
X157252205Y-120172122D01*
X157252205Y-120172121D01*
X157172766Y-120092682D01*
X157172767Y-120092682D01*
X157069993Y-120047303D01*
X157057428Y-120045845D01*
X157044865Y-120044388D01*
X157044863Y-120044388D01*
X155355141Y-120044388D01*
X155355131Y-120044389D01*
X155330007Y-120047303D01*
X155227233Y-120092682D01*
X155147794Y-120172121D01*
X155102415Y-120274894D01*
X155099500Y-120300022D01*
X150678091Y-120300022D01*
X150677405Y-120297611D01*
X150582366Y-120106745D01*
X150457555Y-119941470D01*
X150453874Y-119936595D01*
X150453871Y-119936592D01*
X150296306Y-119792951D01*
X150296303Y-119792949D01*
X150296302Y-119792948D01*
X150146186Y-119700000D01*
X159094451Y-119700000D01*
X159114616Y-119969097D01*
X159114618Y-119969106D01*
X159174666Y-120232196D01*
X159255546Y-120438272D01*
X159273257Y-120483398D01*
X159284395Y-120502690D01*
X159408181Y-120717097D01*
X159408184Y-120717101D01*
X159576434Y-120928080D01*
X159576439Y-120928085D01*
X159774259Y-121111635D01*
X159997226Y-121263651D01*
X159997227Y-121263651D01*
X159997228Y-121263652D01*
X160240352Y-121380735D01*
X160240355Y-121380736D01*
X160240359Y-121380738D01*
X160498228Y-121460280D01*
X160765071Y-121500500D01*
X160765073Y-121500500D01*
X161034927Y-121500500D01*
X161034929Y-121500500D01*
X161301772Y-121460280D01*
X161559641Y-121380738D01*
X161802775Y-121263651D01*
X162025741Y-121111635D01*
X162223561Y-120928085D01*
X162391815Y-120717102D01*
X162526743Y-120483398D01*
X162625334Y-120232195D01*
X162685383Y-119969103D01*
X162705549Y-119700000D01*
X162685383Y-119430897D01*
X162625334Y-119167805D01*
X162526743Y-118916602D01*
X162426924Y-118743709D01*
X162391818Y-118682902D01*
X162391815Y-118682898D01*
X162223565Y-118471919D01*
X162223560Y-118471914D01*
X162157099Y-118410247D01*
X170699500Y-118410247D01*
X170699500Y-120099971D01*
X170699501Y-120099981D01*
X170702415Y-120125105D01*
X170747794Y-120227879D01*
X170827233Y-120307318D01*
X170930006Y-120352697D01*
X170930009Y-120352698D01*
X170955135Y-120355613D01*
X172644864Y-120355612D01*
X172669991Y-120352698D01*
X172699352Y-120339734D01*
X179710100Y-120339734D01*
X179710100Y-122129458D01*
X179710101Y-122129468D01*
X179713015Y-122154592D01*
X179758394Y-122257366D01*
X179837833Y-122336805D01*
X179940606Y-122382184D01*
X179940609Y-122382185D01*
X179965735Y-122385100D01*
X181755464Y-122385099D01*
X181780591Y-122382185D01*
X181883365Y-122336806D01*
X181962806Y-122257365D01*
X182008185Y-122154591D01*
X182011100Y-122129465D01*
X182011100Y-122022000D01*
X197528122Y-122022000D01*
X197547163Y-122178819D01*
X197603180Y-122326524D01*
X197661027Y-122410330D01*
X197692917Y-122456530D01*
X197811160Y-122561283D01*
X197951035Y-122634696D01*
X198104415Y-122672500D01*
X198104416Y-122672500D01*
X198262383Y-122672500D01*
X198262385Y-122672500D01*
X198415765Y-122634696D01*
X198555640Y-122561283D01*
X198673883Y-122456530D01*
X198763620Y-122326523D01*
X198819637Y-122178818D01*
X198838678Y-122022000D01*
X198819637Y-121865182D01*
X198763620Y-121717477D01*
X198673883Y-121587470D01*
X198673880Y-121587467D01*
X198673879Y-121587466D01*
X198555639Y-121482716D01*
X198415764Y-121409303D01*
X198299854Y-121380735D01*
X198262385Y-121371500D01*
X198104415Y-121371500D01*
X198074087Y-121378975D01*
X197951035Y-121409303D01*
X197811160Y-121482716D01*
X197692920Y-121587466D01*
X197692916Y-121587471D01*
X197603180Y-121717475D01*
X197547163Y-121865180D01*
X197528122Y-122022000D01*
X182011100Y-122022000D01*
X182011099Y-120339736D01*
X182008185Y-120314609D01*
X181988223Y-120269400D01*
X204665955Y-120269400D01*
X204686460Y-120438272D01*
X204686461Y-120438274D01*
X204746781Y-120597329D01*
X204746782Y-120597331D01*
X204829455Y-120717102D01*
X204843417Y-120737329D01*
X204970748Y-120850134D01*
X205121375Y-120929190D01*
X205286544Y-120969900D01*
X205456656Y-120969900D01*
X205621825Y-120929190D01*
X205772452Y-120850134D01*
X205899783Y-120737329D01*
X205996418Y-120597330D01*
X206056740Y-120438272D01*
X206077245Y-120269400D01*
X206056740Y-120100528D01*
X205996418Y-119941470D01*
X205899783Y-119801471D01*
X205772452Y-119688666D01*
X205772444Y-119688662D01*
X205772443Y-119688661D01*
X205621824Y-119609609D01*
X205456656Y-119568900D01*
X205286544Y-119568900D01*
X205121375Y-119609609D01*
X204970756Y-119688661D01*
X204970751Y-119688664D01*
X204970748Y-119688666D01*
X204970746Y-119688668D01*
X204843416Y-119801471D01*
X204746782Y-119941468D01*
X204746781Y-119941470D01*
X204686667Y-120099981D01*
X204686460Y-120100528D01*
X204665955Y-120269400D01*
X181988223Y-120269400D01*
X181962806Y-120211835D01*
X181962805Y-120211834D01*
X181962805Y-120211833D01*
X181883366Y-120132394D01*
X181883367Y-120132394D01*
X181780593Y-120087015D01*
X181768028Y-120085557D01*
X181755465Y-120084100D01*
X181755463Y-120084100D01*
X179965741Y-120084100D01*
X179965731Y-120084101D01*
X179940607Y-120087015D01*
X179837833Y-120132394D01*
X179758394Y-120211833D01*
X179713015Y-120314606D01*
X179710100Y-120339734D01*
X172699352Y-120339734D01*
X172772765Y-120307319D01*
X172852206Y-120227878D01*
X172897585Y-120125104D01*
X172900500Y-120099978D01*
X172900499Y-118694600D01*
X179705171Y-118694600D01*
X179724843Y-118906906D01*
X179724844Y-118906912D01*
X179783193Y-119111984D01*
X179783197Y-119111994D01*
X179878232Y-119302852D01*
X179878235Y-119302856D01*
X180006725Y-119473004D01*
X180006728Y-119473007D01*
X180164293Y-119616648D01*
X180164294Y-119616649D01*
X180164298Y-119616652D01*
X180345581Y-119728898D01*
X180345584Y-119728899D01*
X180544396Y-119805919D01*
X180544397Y-119805919D01*
X180544402Y-119805921D01*
X180753990Y-119845100D01*
X180753992Y-119845100D01*
X180967208Y-119845100D01*
X180967210Y-119845100D01*
X181176798Y-119805921D01*
X181375619Y-119728898D01*
X181556902Y-119616652D01*
X181714472Y-119473007D01*
X181842966Y-119302855D01*
X181938005Y-119111989D01*
X181996356Y-118906910D01*
X182016029Y-118694600D01*
X181996356Y-118482290D01*
X181938005Y-118277211D01*
X181842966Y-118086345D01*
X181714472Y-117916193D01*
X181696161Y-117899500D01*
X181556906Y-117772551D01*
X181556903Y-117772549D01*
X181556902Y-117772548D01*
X181375619Y-117660302D01*
X181375616Y-117660301D01*
X181375615Y-117660300D01*
X181176803Y-117583280D01*
X181176798Y-117583279D01*
X180967210Y-117544100D01*
X180753990Y-117544100D01*
X180595836Y-117573664D01*
X180544396Y-117583280D01*
X180345584Y-117660300D01*
X180164293Y-117772551D01*
X180006728Y-117916192D01*
X180006725Y-117916195D01*
X179878235Y-118086343D01*
X179878232Y-118086347D01*
X179783197Y-118277205D01*
X179783193Y-118277215D01*
X179724844Y-118482287D01*
X179724843Y-118482293D01*
X179705171Y-118694600D01*
X172900499Y-118694600D01*
X172900499Y-118410249D01*
X172897585Y-118385122D01*
X172852206Y-118282348D01*
X172852205Y-118282347D01*
X172852205Y-118282346D01*
X172772766Y-118202907D01*
X172772767Y-118202907D01*
X172669993Y-118157528D01*
X172657428Y-118156070D01*
X172644865Y-118154613D01*
X172644863Y-118154613D01*
X170955141Y-118154613D01*
X170955131Y-118154614D01*
X170930007Y-118157528D01*
X170827233Y-118202907D01*
X170747794Y-118282346D01*
X170702415Y-118385119D01*
X170699500Y-118410247D01*
X162157099Y-118410247D01*
X162025742Y-118288366D01*
X162025740Y-118288364D01*
X161802772Y-118136347D01*
X161559647Y-118019264D01*
X161559634Y-118019259D01*
X161382486Y-117964617D01*
X161301772Y-117939720D01*
X161034929Y-117899500D01*
X160765071Y-117899500D01*
X160498228Y-117939720D01*
X160498225Y-117939721D01*
X160240365Y-118019259D01*
X160240352Y-118019264D01*
X159997228Y-118136347D01*
X159774259Y-118288364D01*
X159774257Y-118288366D01*
X159576439Y-118471914D01*
X159576434Y-118471919D01*
X159408184Y-118682898D01*
X159408181Y-118682902D01*
X159273259Y-118916598D01*
X159273256Y-118916603D01*
X159174666Y-119167803D01*
X159114618Y-119430893D01*
X159114616Y-119430902D01*
X159094451Y-119700000D01*
X150146186Y-119700000D01*
X150115019Y-119680702D01*
X150115016Y-119680701D01*
X150115015Y-119680700D01*
X149916203Y-119603680D01*
X149916198Y-119603679D01*
X149706610Y-119564500D01*
X149493390Y-119564500D01*
X149335236Y-119594064D01*
X149283796Y-119603680D01*
X149084984Y-119680700D01*
X148903693Y-119792951D01*
X148746128Y-119936592D01*
X148746125Y-119936595D01*
X148617635Y-120106743D01*
X148617632Y-120106747D01*
X148522597Y-120297605D01*
X148522593Y-120297615D01*
X148464244Y-120502687D01*
X148464243Y-120502693D01*
X148444571Y-120715000D01*
X132415300Y-120715000D01*
X132415300Y-118600000D01*
X136844750Y-118600000D01*
X136863669Y-118743708D01*
X136919136Y-118877620D01*
X136919139Y-118877625D01*
X137007379Y-118992621D01*
X137122375Y-119080861D01*
X137122377Y-119080861D01*
X137122379Y-119080863D01*
X137256291Y-119136330D01*
X137400000Y-119155250D01*
X137543709Y-119136330D01*
X137677625Y-119080861D01*
X137792621Y-118992621D01*
X137880861Y-118877625D01*
X137936330Y-118743709D01*
X137955250Y-118600000D01*
X137936330Y-118456291D01*
X137906851Y-118385122D01*
X137880863Y-118322379D01*
X137880860Y-118322374D01*
X137850145Y-118282346D01*
X137792621Y-118207379D01*
X137677625Y-118119139D01*
X137677620Y-118119136D01*
X137543708Y-118063669D01*
X137400000Y-118044750D01*
X137256291Y-118063669D01*
X137122379Y-118119136D01*
X137122374Y-118119139D01*
X137007379Y-118207378D01*
X137007378Y-118207379D01*
X136919139Y-118322374D01*
X136919136Y-118322379D01*
X136863669Y-118456291D01*
X136844750Y-118600000D01*
X132415300Y-118600000D01*
X132415300Y-117280134D01*
X148449500Y-117280134D01*
X148449500Y-119069858D01*
X148449501Y-119069868D01*
X148452415Y-119094992D01*
X148497794Y-119197766D01*
X148577233Y-119277205D01*
X148680006Y-119322584D01*
X148680009Y-119322585D01*
X148705135Y-119325500D01*
X150494864Y-119325499D01*
X150519991Y-119322585D01*
X150622765Y-119277206D01*
X150702206Y-119197765D01*
X150747585Y-119094991D01*
X150750500Y-119069865D01*
X150750499Y-117280136D01*
X150747585Y-117255009D01*
X150702206Y-117152235D01*
X150702205Y-117152234D01*
X150702205Y-117152233D01*
X150622766Y-117072794D01*
X150622767Y-117072794D01*
X150519993Y-117027415D01*
X150507428Y-117025957D01*
X150494865Y-117024500D01*
X150494863Y-117024500D01*
X148705141Y-117024500D01*
X148705131Y-117024501D01*
X148680007Y-117027415D01*
X148577233Y-117072794D01*
X148497794Y-117152233D01*
X148452415Y-117255006D01*
X148449500Y-117280134D01*
X132415300Y-117280134D01*
X132415300Y-112867634D01*
X134887000Y-112867634D01*
X134887000Y-114957358D01*
X134887001Y-114957368D01*
X134889915Y-114982492D01*
X134935294Y-115085266D01*
X135014733Y-115164705D01*
X135117506Y-115210084D01*
X135117509Y-115210085D01*
X135142635Y-115213000D01*
X137232364Y-115212999D01*
X137257491Y-115210085D01*
X137360265Y-115164706D01*
X137439706Y-115085265D01*
X137485085Y-114982491D01*
X137488000Y-114957365D01*
X137488000Y-114226100D01*
X163720722Y-114226100D01*
X163739763Y-114382919D01*
X163795780Y-114530624D01*
X163853601Y-114614391D01*
X163885517Y-114660630D01*
X164003760Y-114765383D01*
X164143635Y-114838796D01*
X164297015Y-114876600D01*
X164297016Y-114876600D01*
X164454983Y-114876600D01*
X164454985Y-114876600D01*
X164608365Y-114838796D01*
X164748240Y-114765383D01*
X164866483Y-114660630D01*
X164956220Y-114530623D01*
X165012237Y-114382918D01*
X165031278Y-114226100D01*
X165012237Y-114069282D01*
X164956220Y-113921577D01*
X164866483Y-113791570D01*
X164866480Y-113791567D01*
X164866479Y-113791566D01*
X164748239Y-113686816D01*
X164608364Y-113613403D01*
X164492788Y-113584917D01*
X164454985Y-113575600D01*
X164297015Y-113575600D01*
X164266687Y-113583075D01*
X164143635Y-113613403D01*
X164003760Y-113686816D01*
X163885520Y-113791566D01*
X163885516Y-113791571D01*
X163795780Y-113921575D01*
X163739763Y-114069280D01*
X163720722Y-114226100D01*
X137488000Y-114226100D01*
X137487999Y-113208200D01*
X156151522Y-113208200D01*
X156170563Y-113365019D01*
X156226580Y-113512724D01*
X156269981Y-113575600D01*
X156316317Y-113642730D01*
X156316319Y-113642731D01*
X156316320Y-113642733D01*
X156366080Y-113686816D01*
X156434560Y-113747483D01*
X156574435Y-113820896D01*
X156727815Y-113858700D01*
X156727816Y-113858700D01*
X156885783Y-113858700D01*
X156885785Y-113858700D01*
X157039165Y-113820896D01*
X157179040Y-113747483D01*
X157297283Y-113642730D01*
X157387020Y-113512723D01*
X157443037Y-113365018D01*
X157462078Y-113208200D01*
X157443037Y-113051382D01*
X157387020Y-112903677D01*
X157297283Y-112773670D01*
X157297280Y-112773667D01*
X157297279Y-112773666D01*
X157179039Y-112668916D01*
X157039164Y-112595503D01*
X156923588Y-112567017D01*
X156885785Y-112557700D01*
X156727815Y-112557700D01*
X156697487Y-112565175D01*
X156574435Y-112595503D01*
X156434560Y-112668916D01*
X156316320Y-112773666D01*
X156316316Y-112773671D01*
X156226580Y-112903675D01*
X156170563Y-113051380D01*
X156151522Y-113208200D01*
X137487999Y-113208200D01*
X137487999Y-112867636D01*
X137485085Y-112842509D01*
X137439706Y-112739735D01*
X137439705Y-112739734D01*
X137439705Y-112739733D01*
X137360266Y-112660294D01*
X137360267Y-112660294D01*
X137257493Y-112614915D01*
X137244928Y-112613457D01*
X137232365Y-112612000D01*
X137232363Y-112612000D01*
X135142641Y-112612000D01*
X135142631Y-112612001D01*
X135117507Y-112614915D01*
X135014733Y-112660294D01*
X134935294Y-112739733D01*
X134889915Y-112842506D01*
X134887000Y-112867634D01*
X132415300Y-112867634D01*
X132415300Y-110300000D01*
X169044722Y-110300000D01*
X169063763Y-110456819D01*
X169119780Y-110604524D01*
X169177627Y-110688330D01*
X169209517Y-110734530D01*
X169327760Y-110839283D01*
X169467635Y-110912696D01*
X169621015Y-110950500D01*
X169621016Y-110950500D01*
X169778983Y-110950500D01*
X169778985Y-110950500D01*
X169932365Y-110912696D01*
X170072240Y-110839283D01*
X170190483Y-110734530D01*
X170280220Y-110604523D01*
X170336237Y-110456818D01*
X170355278Y-110300000D01*
X170336237Y-110143182D01*
X170280220Y-109995477D01*
X170190483Y-109865470D01*
X170190480Y-109865467D01*
X170190479Y-109865466D01*
X170072239Y-109760716D01*
X169932364Y-109687303D01*
X169816788Y-109658817D01*
X169778985Y-109649500D01*
X169621015Y-109649500D01*
X169590687Y-109656975D01*
X169467635Y-109687303D01*
X169327760Y-109760716D01*
X169209520Y-109865466D01*
X169209516Y-109865471D01*
X169119780Y-109995475D01*
X169063763Y-110143180D01*
X169044722Y-110300000D01*
X132415300Y-110300000D01*
X132415300Y-108600000D01*
X153094435Y-108600000D01*
X153114631Y-108779249D01*
X153114633Y-108779258D01*
X153174212Y-108949526D01*
X153270182Y-109102259D01*
X153270184Y-109102262D01*
X153397738Y-109229816D01*
X153397740Y-109229817D01*
X153550473Y-109325787D01*
X153550477Y-109325788D01*
X153550478Y-109325789D01*
X153720745Y-109385368D01*
X153900000Y-109405565D01*
X154079255Y-109385368D01*
X154249522Y-109325789D01*
X154249524Y-109325787D01*
X154249526Y-109325787D01*
X154305596Y-109290555D01*
X154402262Y-109229816D01*
X154529816Y-109102262D01*
X154590555Y-109005596D01*
X154625787Y-108949526D01*
X154625787Y-108949524D01*
X154625789Y-108949522D01*
X154685368Y-108779255D01*
X154705565Y-108600000D01*
X154685368Y-108420745D01*
X154680768Y-108407600D01*
X154807435Y-108407600D01*
X154827631Y-108586849D01*
X154827633Y-108586858D01*
X154887212Y-108757126D01*
X154983182Y-108909859D01*
X154983184Y-108909862D01*
X155110738Y-109037416D01*
X155110740Y-109037417D01*
X155263473Y-109133387D01*
X155263477Y-109133388D01*
X155263478Y-109133389D01*
X155433745Y-109192968D01*
X155613000Y-109213165D01*
X155792255Y-109192968D01*
X155962522Y-109133389D01*
X155962524Y-109133387D01*
X155962526Y-109133387D01*
X156018596Y-109098155D01*
X156115262Y-109037416D01*
X156242816Y-108909862D01*
X156324886Y-108779249D01*
X156338787Y-108757126D01*
X156338787Y-108757124D01*
X156338789Y-108757122D01*
X156398368Y-108586855D01*
X156418565Y-108407600D01*
X156398368Y-108228345D01*
X156338789Y-108058078D01*
X156338788Y-108058077D01*
X156338787Y-108058073D01*
X156242817Y-107905340D01*
X156242816Y-107905338D01*
X156115262Y-107777784D01*
X156115259Y-107777782D01*
X155962526Y-107681812D01*
X155792258Y-107622233D01*
X155792257Y-107622232D01*
X155792255Y-107622232D01*
X155792251Y-107622231D01*
X155792249Y-107622231D01*
X155613000Y-107602035D01*
X155433750Y-107622231D01*
X155433741Y-107622233D01*
X155263473Y-107681812D01*
X155110740Y-107777782D01*
X155110736Y-107777785D01*
X154983185Y-107905336D01*
X154983182Y-107905340D01*
X154887212Y-108058073D01*
X154827633Y-108228341D01*
X154827631Y-108228350D01*
X154807435Y-108407600D01*
X154680768Y-108407600D01*
X154625789Y-108250478D01*
X154625788Y-108250477D01*
X154625787Y-108250473D01*
X154529817Y-108097740D01*
X154529816Y-108097738D01*
X154402262Y-107970184D01*
X154402259Y-107970182D01*
X154249526Y-107874212D01*
X154079258Y-107814633D01*
X154079257Y-107814632D01*
X154079255Y-107814632D01*
X154079251Y-107814631D01*
X154079249Y-107814631D01*
X153900000Y-107794435D01*
X153720750Y-107814631D01*
X153720741Y-107814633D01*
X153550473Y-107874212D01*
X153397740Y-107970182D01*
X153397736Y-107970185D01*
X153270185Y-108097736D01*
X153270182Y-108097740D01*
X153174212Y-108250473D01*
X153114633Y-108420741D01*
X153114631Y-108420750D01*
X153094435Y-108600000D01*
X132415300Y-108600000D01*
X132415300Y-107305600D01*
X166441322Y-107305600D01*
X166460363Y-107462419D01*
X166516380Y-107610124D01*
X166565862Y-107681811D01*
X166606117Y-107740130D01*
X166724360Y-107844883D01*
X166864235Y-107918296D01*
X167017615Y-107956100D01*
X167017616Y-107956100D01*
X167175583Y-107956100D01*
X167175585Y-107956100D01*
X167328965Y-107918296D01*
X167468840Y-107844883D01*
X167587083Y-107740130D01*
X167676820Y-107610123D01*
X167732837Y-107462418D01*
X167751878Y-107305600D01*
X167732837Y-107148782D01*
X167676820Y-107001077D01*
X167587083Y-106871070D01*
X167587080Y-106871067D01*
X167587079Y-106871066D01*
X167468839Y-106766316D01*
X167328964Y-106692903D01*
X167213388Y-106664417D01*
X167175585Y-106655100D01*
X167017615Y-106655100D01*
X166987287Y-106662575D01*
X166864235Y-106692903D01*
X166724360Y-106766316D01*
X166606120Y-106871066D01*
X166606116Y-106871071D01*
X166516380Y-107001075D01*
X166460363Y-107148780D01*
X166441322Y-107305600D01*
X132415300Y-107305600D01*
X132415300Y-103216600D01*
X163628122Y-103216600D01*
X163647163Y-103373419D01*
X163703180Y-103521124D01*
X163761027Y-103604930D01*
X163792917Y-103651130D01*
X163911160Y-103755883D01*
X164051035Y-103829296D01*
X164204415Y-103867100D01*
X164204416Y-103867100D01*
X164362383Y-103867100D01*
X164362385Y-103867100D01*
X164515765Y-103829296D01*
X164655640Y-103755883D01*
X164773883Y-103651130D01*
X164863620Y-103521123D01*
X164919637Y-103373418D01*
X164938678Y-103216600D01*
X164919637Y-103059782D01*
X164863620Y-102912077D01*
X164858852Y-102905170D01*
X164824512Y-102855419D01*
X164773883Y-102782070D01*
X164773880Y-102782067D01*
X164773879Y-102782066D01*
X164655639Y-102677316D01*
X164515764Y-102603903D01*
X164400188Y-102575417D01*
X164362385Y-102566100D01*
X164204415Y-102566100D01*
X164174087Y-102573575D01*
X164051035Y-102603903D01*
X163911160Y-102677316D01*
X163792920Y-102782066D01*
X163792916Y-102782071D01*
X163703180Y-102912075D01*
X163647163Y-103059780D01*
X163628122Y-103216600D01*
X132415300Y-103216600D01*
X132415300Y-99750000D01*
X154944435Y-99750000D01*
X154964631Y-99929249D01*
X154964633Y-99929258D01*
X155024212Y-100099526D01*
X155120182Y-100252259D01*
X155120185Y-100252263D01*
X155208274Y-100340352D01*
X155222626Y-100375000D01*
X155208274Y-100409648D01*
X155120185Y-100497736D01*
X155120182Y-100497740D01*
X155024212Y-100650473D01*
X154964633Y-100820741D01*
X154964631Y-100820750D01*
X154944435Y-101000000D01*
X154964631Y-101179249D01*
X154964633Y-101179258D01*
X155024212Y-101349526D01*
X155120182Y-101502259D01*
X155120184Y-101502262D01*
X155247738Y-101629816D01*
X155247740Y-101629817D01*
X155400473Y-101725787D01*
X155400477Y-101725788D01*
X155400478Y-101725789D01*
X155570745Y-101785368D01*
X155750000Y-101805565D01*
X155929255Y-101785368D01*
X156099522Y-101725789D01*
X156099524Y-101725787D01*
X156099526Y-101725787D01*
X156155596Y-101690555D01*
X156252262Y-101629816D01*
X156379816Y-101502262D01*
X156421536Y-101435864D01*
X156458511Y-101377021D01*
X156489097Y-101355319D01*
X156526070Y-101361602D01*
X156541489Y-101377021D01*
X156580659Y-101439359D01*
X156620184Y-101502262D01*
X156747738Y-101629816D01*
X156747740Y-101629817D01*
X156900473Y-101725787D01*
X156900477Y-101725788D01*
X156900478Y-101725789D01*
X157070745Y-101785368D01*
X157250000Y-101805565D01*
X157429255Y-101785368D01*
X157599522Y-101725789D01*
X157599524Y-101725787D01*
X157599526Y-101725787D01*
X157655596Y-101690555D01*
X157752262Y-101629816D01*
X157879816Y-101502262D01*
X157968199Y-101361602D01*
X157975787Y-101349526D01*
X157975787Y-101349524D01*
X157975789Y-101349522D01*
X158007076Y-101260110D01*
X158403206Y-101260110D01*
X158423402Y-101439359D01*
X158423404Y-101439368D01*
X158482983Y-101609636D01*
X158562411Y-101736043D01*
X158578955Y-101762372D01*
X158706509Y-101889926D01*
X158734546Y-101907542D01*
X158859244Y-101985897D01*
X158859248Y-101985898D01*
X158859249Y-101985899D01*
X159029516Y-102045478D01*
X159202790Y-102065001D01*
X159235612Y-102083141D01*
X159245994Y-102119178D01*
X159243118Y-102131067D01*
X159220042Y-102191917D01*
X159220041Y-102191919D01*
X159220041Y-102191921D01*
X159216009Y-102225131D01*
X159201000Y-102348739D01*
X159220041Y-102505558D01*
X159276058Y-102653263D01*
X159333905Y-102737069D01*
X159365795Y-102783269D01*
X159484038Y-102888022D01*
X159623913Y-102961435D01*
X159777293Y-102999239D01*
X159777294Y-102999239D01*
X159935261Y-102999239D01*
X159935263Y-102999239D01*
X160088643Y-102961435D01*
X160228518Y-102888022D01*
X160346761Y-102783269D01*
X160436498Y-102653262D01*
X160492515Y-102505557D01*
X160508421Y-102374556D01*
X160949718Y-102374556D01*
X160968637Y-102518264D01*
X161024104Y-102652176D01*
X161024107Y-102652181D01*
X161112347Y-102767177D01*
X161227343Y-102855417D01*
X161227345Y-102855417D01*
X161227347Y-102855419D01*
X161347459Y-102905170D01*
X161361259Y-102910886D01*
X161504968Y-102929806D01*
X161648677Y-102910886D01*
X161782593Y-102855417D01*
X161897589Y-102767177D01*
X161985829Y-102652181D01*
X162001918Y-102613337D01*
X162028434Y-102586820D01*
X162065937Y-102586819D01*
X162092457Y-102613337D01*
X162092457Y-102613338D01*
X162092458Y-102613340D01*
X162106179Y-102646465D01*
X162194419Y-102761461D01*
X162309415Y-102849701D01*
X162309417Y-102849701D01*
X162309419Y-102849703D01*
X162401931Y-102888022D01*
X162443331Y-102905170D01*
X162587040Y-102924090D01*
X162730749Y-102905170D01*
X162864665Y-102849701D01*
X162979661Y-102761461D01*
X163067901Y-102646465D01*
X163123370Y-102512549D01*
X163142290Y-102368840D01*
X163123370Y-102225131D01*
X163083989Y-102130056D01*
X163067903Y-102091219D01*
X163067900Y-102091214D01*
X163061705Y-102083141D01*
X162979661Y-101976219D01*
X162898848Y-101914209D01*
X162864665Y-101887979D01*
X162864660Y-101887976D01*
X162730748Y-101832509D01*
X162587040Y-101813590D01*
X162443331Y-101832509D01*
X162309419Y-101887976D01*
X162309414Y-101887979D01*
X162194419Y-101976218D01*
X162194418Y-101976219D01*
X162106179Y-102091214D01*
X162106178Y-102091216D01*
X162090090Y-102130057D01*
X162063571Y-102156575D01*
X162026068Y-102156575D01*
X161999550Y-102130056D01*
X161985831Y-102096935D01*
X161985828Y-102096930D01*
X161981443Y-102091216D01*
X161897589Y-101981935D01*
X161890138Y-101976218D01*
X161782593Y-101893695D01*
X161782588Y-101893692D01*
X161648676Y-101838225D01*
X161504968Y-101819306D01*
X161361259Y-101838225D01*
X161227347Y-101893692D01*
X161227342Y-101893695D01*
X161112347Y-101981934D01*
X161112346Y-101981935D01*
X161024107Y-102096930D01*
X161024104Y-102096935D01*
X160968637Y-102230847D01*
X160949718Y-102374556D01*
X160508421Y-102374556D01*
X160511556Y-102348739D01*
X160492515Y-102191921D01*
X160436498Y-102044216D01*
X160346761Y-101914209D01*
X160346758Y-101914206D01*
X160346757Y-101914205D01*
X160228517Y-101809455D01*
X160088642Y-101736042D01*
X159952285Y-101702434D01*
X159922078Y-101680208D01*
X159916435Y-101643132D01*
X159922519Y-101628793D01*
X159934560Y-101609632D01*
X159994139Y-101439365D01*
X160014336Y-101260110D01*
X160014335Y-101260109D01*
X160014644Y-101257376D01*
X160015483Y-101257470D01*
X160028688Y-101225594D01*
X160063336Y-101211242D01*
X160079515Y-101213991D01*
X160234344Y-101268168D01*
X160413599Y-101288365D01*
X160592854Y-101268168D01*
X160763121Y-101208589D01*
X160763123Y-101208587D01*
X160763125Y-101208587D01*
X160819195Y-101173355D01*
X160915861Y-101112616D01*
X161043415Y-100985062D01*
X161104154Y-100888396D01*
X161139386Y-100832326D01*
X161139386Y-100832324D01*
X161139388Y-100832322D01*
X161198967Y-100662055D01*
X161219164Y-100482800D01*
X161198967Y-100303545D01*
X161139388Y-100133278D01*
X161139387Y-100133277D01*
X161139386Y-100133273D01*
X161043416Y-99980540D01*
X161043415Y-99980538D01*
X160915861Y-99852984D01*
X160915858Y-99852982D01*
X160763125Y-99757012D01*
X160592857Y-99697433D01*
X160592856Y-99697432D01*
X160592854Y-99697432D01*
X160592850Y-99697431D01*
X160592848Y-99697431D01*
X160413599Y-99677235D01*
X160234349Y-99697431D01*
X160234340Y-99697433D01*
X160064072Y-99757012D01*
X159911339Y-99852982D01*
X159911335Y-99852985D01*
X159783784Y-99980536D01*
X159783781Y-99980540D01*
X159687811Y-100133273D01*
X159628232Y-100303541D01*
X159628230Y-100303550D01*
X159607726Y-100485534D01*
X159606885Y-100485439D01*
X159593682Y-100517315D01*
X159559034Y-100531667D01*
X159542850Y-100528917D01*
X159388029Y-100474743D01*
X159388028Y-100474742D01*
X159388026Y-100474742D01*
X159388022Y-100474741D01*
X159388020Y-100474741D01*
X159208771Y-100454545D01*
X159029521Y-100474741D01*
X159029512Y-100474743D01*
X158859244Y-100534322D01*
X158706511Y-100630292D01*
X158706507Y-100630295D01*
X158578956Y-100757846D01*
X158578953Y-100757850D01*
X158482983Y-100910583D01*
X158423404Y-101080851D01*
X158423402Y-101080860D01*
X158403206Y-101260110D01*
X158007076Y-101260110D01*
X158035368Y-101179255D01*
X158055565Y-101000000D01*
X158035368Y-100820745D01*
X157975789Y-100650478D01*
X157975788Y-100650477D01*
X157975787Y-100650473D01*
X157879817Y-100497740D01*
X157879816Y-100497738D01*
X157791726Y-100409648D01*
X157777374Y-100375000D01*
X157791726Y-100340352D01*
X157828537Y-100303541D01*
X157879816Y-100252262D01*
X157968199Y-100111602D01*
X157975787Y-100099526D01*
X157975787Y-100099524D01*
X157975789Y-100099522D01*
X158035368Y-99929255D01*
X158055565Y-99750000D01*
X158035368Y-99570745D01*
X157975789Y-99400478D01*
X157975788Y-99400477D01*
X157975787Y-99400473D01*
X157879817Y-99247740D01*
X157879816Y-99247738D01*
X157752262Y-99120184D01*
X157752259Y-99120182D01*
X157599526Y-99024212D01*
X157429258Y-98964633D01*
X157429257Y-98964632D01*
X157429255Y-98964632D01*
X157429251Y-98964631D01*
X157429249Y-98964631D01*
X157249187Y-98944343D01*
X157216363Y-98926202D01*
X157205981Y-98890165D01*
X157213182Y-98869585D01*
X157225789Y-98849522D01*
X157255479Y-98764670D01*
X157280468Y-98736707D01*
X157317912Y-98734604D01*
X157324981Y-98738200D01*
X157325136Y-98737906D01*
X157327760Y-98739283D01*
X157467635Y-98812696D01*
X157621015Y-98850500D01*
X157621016Y-98850500D01*
X157778983Y-98850500D01*
X157778985Y-98850500D01*
X157932365Y-98812696D01*
X158072240Y-98739283D01*
X158190483Y-98634530D01*
X158280220Y-98504523D01*
X158336237Y-98356818D01*
X158355278Y-98200000D01*
X158336237Y-98043182D01*
X158280220Y-97895477D01*
X158280217Y-97895473D01*
X158196516Y-97774211D01*
X158190483Y-97765470D01*
X158190480Y-97765467D01*
X158190479Y-97765466D01*
X158072239Y-97660716D01*
X157932364Y-97587303D01*
X157816788Y-97558817D01*
X157778985Y-97549500D01*
X157621015Y-97549500D01*
X157590687Y-97556975D01*
X157467635Y-97587303D01*
X157327760Y-97660716D01*
X157209520Y-97765466D01*
X157209516Y-97765471D01*
X157119781Y-97895473D01*
X157118981Y-97896999D01*
X157118387Y-97897493D01*
X157118096Y-97897916D01*
X157117978Y-97897834D01*
X157090168Y-97921005D01*
X157052819Y-97917607D01*
X157040948Y-97908870D01*
X157002263Y-97870185D01*
X157002259Y-97870182D01*
X156849526Y-97774212D01*
X156679258Y-97714633D01*
X156679257Y-97714632D01*
X156679255Y-97714632D01*
X156679251Y-97714631D01*
X156679249Y-97714631D01*
X156500000Y-97694435D01*
X156320750Y-97714631D01*
X156320741Y-97714633D01*
X156150473Y-97774212D01*
X155997740Y-97870182D01*
X155997736Y-97870185D01*
X155870185Y-97997736D01*
X155870182Y-97997740D01*
X155774212Y-98150473D01*
X155714633Y-98320741D01*
X155714631Y-98320750D01*
X155694435Y-98500000D01*
X155714631Y-98679249D01*
X155714633Y-98679258D01*
X155774212Y-98849526D01*
X155786814Y-98869581D01*
X155793096Y-98906554D01*
X155771395Y-98937140D01*
X155750811Y-98944343D01*
X155570750Y-98964631D01*
X155570741Y-98964633D01*
X155400473Y-99024212D01*
X155247740Y-99120182D01*
X155247736Y-99120185D01*
X155120185Y-99247736D01*
X155120182Y-99247740D01*
X155024212Y-99400473D01*
X154964633Y-99570741D01*
X154964631Y-99570750D01*
X154944435Y-99750000D01*
X132415300Y-99750000D01*
X132415300Y-95148800D01*
X156347451Y-95148800D01*
X156367616Y-95417897D01*
X156367618Y-95417906D01*
X156427666Y-95680996D01*
X156526256Y-95932196D01*
X156526259Y-95932201D01*
X156661181Y-96165897D01*
X156661184Y-96165901D01*
X156829434Y-96376880D01*
X156829439Y-96376885D01*
X157027259Y-96560435D01*
X157250226Y-96712451D01*
X157250227Y-96712451D01*
X157250228Y-96712452D01*
X157493352Y-96829535D01*
X157493355Y-96829536D01*
X157493359Y-96829538D01*
X157751228Y-96909080D01*
X158018071Y-96949300D01*
X158018073Y-96949300D01*
X158287927Y-96949300D01*
X158287929Y-96949300D01*
X158554772Y-96909080D01*
X158812641Y-96829538D01*
X159055775Y-96712451D01*
X159278741Y-96560435D01*
X159476561Y-96376885D01*
X159524158Y-96317200D01*
X169232955Y-96317200D01*
X169253460Y-96486072D01*
X169253461Y-96486074D01*
X169313781Y-96645129D01*
X169313782Y-96645131D01*
X169360251Y-96712452D01*
X169410417Y-96785129D01*
X169537748Y-96897934D01*
X169688375Y-96976990D01*
X169853544Y-97017700D01*
X170023656Y-97017700D01*
X170188825Y-96976990D01*
X170339452Y-96897934D01*
X170466783Y-96785129D01*
X170563418Y-96645130D01*
X170623740Y-96486072D01*
X170644245Y-96317200D01*
X170623740Y-96148328D01*
X170563418Y-95989270D01*
X170524022Y-95932196D01*
X170466783Y-95849271D01*
X170339452Y-95736466D01*
X170339444Y-95736462D01*
X170339443Y-95736461D01*
X170188824Y-95657409D01*
X170023656Y-95616700D01*
X169853544Y-95616700D01*
X169688375Y-95657409D01*
X169537756Y-95736461D01*
X169537751Y-95736464D01*
X169537748Y-95736466D01*
X169537746Y-95736468D01*
X169410416Y-95849271D01*
X169313782Y-95989268D01*
X169313781Y-95989270D01*
X169253461Y-96148325D01*
X169253460Y-96148328D01*
X169232955Y-96317200D01*
X159524158Y-96317200D01*
X159644815Y-96165902D01*
X159779743Y-95932198D01*
X159878334Y-95680995D01*
X159938383Y-95417903D01*
X159958549Y-95148800D01*
X159938383Y-94879697D01*
X159878334Y-94616605D01*
X159779743Y-94365402D01*
X159712279Y-94248550D01*
X159644818Y-94131702D01*
X159644815Y-94131698D01*
X159476565Y-93920719D01*
X159476560Y-93920714D01*
X159278742Y-93737166D01*
X159278740Y-93737164D01*
X159055772Y-93585147D01*
X158812647Y-93468064D01*
X158812634Y-93468059D01*
X158635486Y-93413417D01*
X158554772Y-93388520D01*
X158287929Y-93348300D01*
X158018071Y-93348300D01*
X157751228Y-93388520D01*
X157751225Y-93388521D01*
X157493365Y-93468059D01*
X157493352Y-93468064D01*
X157250228Y-93585147D01*
X157027259Y-93737164D01*
X157027257Y-93737166D01*
X156829439Y-93920714D01*
X156829434Y-93920719D01*
X156661184Y-94131698D01*
X156661181Y-94131702D01*
X156526259Y-94365398D01*
X156526256Y-94365403D01*
X156427666Y-94616603D01*
X156367618Y-94879693D01*
X156367616Y-94879702D01*
X156347451Y-95148800D01*
X132415300Y-95148800D01*
X132415300Y-94300000D01*
X143844722Y-94300000D01*
X143863763Y-94456819D01*
X143919780Y-94604524D01*
X143977627Y-94688330D01*
X144009517Y-94734530D01*
X144127760Y-94839283D01*
X144267635Y-94912696D01*
X144421015Y-94950500D01*
X144421016Y-94950500D01*
X144578983Y-94950500D01*
X144578985Y-94950500D01*
X144732365Y-94912696D01*
X144872240Y-94839283D01*
X144990483Y-94734530D01*
X145080220Y-94604523D01*
X145136237Y-94456818D01*
X145155278Y-94300000D01*
X145136237Y-94143182D01*
X145080220Y-93995477D01*
X144990483Y-93865470D01*
X144990480Y-93865467D01*
X144990479Y-93865466D01*
X144872239Y-93760716D01*
X144732364Y-93687303D01*
X144616788Y-93658817D01*
X144578985Y-93649500D01*
X144421015Y-93649500D01*
X144390687Y-93656975D01*
X144267635Y-93687303D01*
X144127760Y-93760716D01*
X144009520Y-93865466D01*
X144009516Y-93865471D01*
X143919780Y-93995475D01*
X143863763Y-94143180D01*
X143844722Y-94300000D01*
X132415300Y-94300000D01*
X132415300Y-89867634D01*
X134887000Y-89867634D01*
X134887000Y-91957358D01*
X134887001Y-91957368D01*
X134889915Y-91982492D01*
X134935294Y-92085266D01*
X135014733Y-92164705D01*
X135117506Y-92210084D01*
X135117509Y-92210085D01*
X135142635Y-92213000D01*
X137232364Y-92212999D01*
X137257491Y-92210085D01*
X137360265Y-92164706D01*
X137370857Y-92154114D01*
X137422852Y-92102120D01*
X137457500Y-92087768D01*
X137492148Y-92102120D01*
X137554733Y-92164705D01*
X137657506Y-92210084D01*
X137657509Y-92210085D01*
X137682635Y-92213000D01*
X139772364Y-92212999D01*
X139797491Y-92210085D01*
X139900265Y-92164706D01*
X139979706Y-92085265D01*
X140025085Y-91982491D01*
X140028000Y-91957365D01*
X140027999Y-89867636D01*
X140027999Y-89867634D01*
X146347000Y-89867634D01*
X146347000Y-91957358D01*
X146347001Y-91957368D01*
X146349915Y-91982492D01*
X146395294Y-92085266D01*
X146474733Y-92164705D01*
X146577506Y-92210084D01*
X146577509Y-92210085D01*
X146602635Y-92213000D01*
X148692364Y-92212999D01*
X148717491Y-92210085D01*
X148820265Y-92164706D01*
X148899706Y-92085265D01*
X148945085Y-91982491D01*
X148948000Y-91957365D01*
X148947999Y-89867636D01*
X148945085Y-89842509D01*
X148904238Y-89750000D01*
X153094722Y-89750000D01*
X153113763Y-89906819D01*
X153169780Y-90054524D01*
X153199213Y-90097166D01*
X153207083Y-90133833D01*
X153199213Y-90152834D01*
X153169780Y-90195475D01*
X153113763Y-90343180D01*
X153094722Y-90500000D01*
X153113763Y-90656819D01*
X153169780Y-90804524D01*
X153199213Y-90847166D01*
X153207083Y-90883833D01*
X153199213Y-90902834D01*
X153169780Y-90945475D01*
X153113763Y-91093180D01*
X153094722Y-91250000D01*
X153113763Y-91406819D01*
X153169780Y-91554524D01*
X153225003Y-91634528D01*
X153259517Y-91684530D01*
X153377760Y-91789283D01*
X153517635Y-91862696D01*
X153671015Y-91900500D01*
X153671016Y-91900500D01*
X153828983Y-91900500D01*
X153828985Y-91900500D01*
X153982365Y-91862696D01*
X154102228Y-91799785D01*
X154139577Y-91796392D01*
X154147769Y-91799785D01*
X154267635Y-91862696D01*
X154421015Y-91900500D01*
X154421016Y-91900500D01*
X154578983Y-91900500D01*
X154578985Y-91900500D01*
X154732365Y-91862696D01*
X154872240Y-91789283D01*
X154990483Y-91684530D01*
X155080220Y-91554523D01*
X155136237Y-91406818D01*
X155155278Y-91250000D01*
X155344722Y-91250000D01*
X155363763Y-91406819D01*
X155419780Y-91554524D01*
X155475003Y-91634528D01*
X155509517Y-91684530D01*
X155627760Y-91789283D01*
X155767635Y-91862696D01*
X155921015Y-91900500D01*
X155921016Y-91900500D01*
X156078983Y-91900500D01*
X156078985Y-91900500D01*
X156232365Y-91862696D01*
X156372240Y-91789283D01*
X156490483Y-91684530D01*
X156580220Y-91554523D01*
X156626639Y-91432124D01*
X156652345Y-91404817D01*
X156672455Y-91400500D01*
X156828983Y-91400500D01*
X156828985Y-91400500D01*
X156982365Y-91362696D01*
X157102228Y-91299785D01*
X157139577Y-91296392D01*
X157147769Y-91299785D01*
X157267635Y-91362696D01*
X157421015Y-91400500D01*
X157421016Y-91400500D01*
X157578983Y-91400500D01*
X157578985Y-91400500D01*
X157732365Y-91362696D01*
X157852228Y-91299785D01*
X157889577Y-91296392D01*
X157897769Y-91299785D01*
X158017635Y-91362696D01*
X158171015Y-91400500D01*
X158171016Y-91400500D01*
X158328983Y-91400500D01*
X158328985Y-91400500D01*
X158482365Y-91362696D01*
X158622240Y-91289283D01*
X158723021Y-91200000D01*
X168244722Y-91200000D01*
X168263763Y-91356819D01*
X168319780Y-91504524D01*
X168354292Y-91554523D01*
X168409517Y-91634530D01*
X168409519Y-91634531D01*
X168409520Y-91634533D01*
X168465956Y-91684530D01*
X168527760Y-91739283D01*
X168667635Y-91812696D01*
X168821015Y-91850500D01*
X168821016Y-91850500D01*
X168978983Y-91850500D01*
X168978985Y-91850500D01*
X169132365Y-91812696D01*
X169272240Y-91739283D01*
X169390483Y-91634530D01*
X169480220Y-91504523D01*
X169536237Y-91356818D01*
X169555278Y-91200000D01*
X169536237Y-91043182D01*
X169480220Y-90895477D01*
X169390483Y-90765470D01*
X169390480Y-90765467D01*
X169390479Y-90765466D01*
X169272239Y-90660716D01*
X169132364Y-90587303D01*
X169016788Y-90558817D01*
X168978985Y-90549500D01*
X168821015Y-90549500D01*
X168790687Y-90556975D01*
X168667635Y-90587303D01*
X168527760Y-90660716D01*
X168409520Y-90765466D01*
X168409516Y-90765471D01*
X168319780Y-90895475D01*
X168263763Y-91043180D01*
X168244722Y-91200000D01*
X158723021Y-91200000D01*
X158740483Y-91184530D01*
X158830220Y-91054523D01*
X158886237Y-90906818D01*
X158905278Y-90750000D01*
X158897343Y-90684651D01*
X158907414Y-90648527D01*
X158940080Y-90630103D01*
X158976205Y-90640174D01*
X158986310Y-90650909D01*
X159009517Y-90684530D01*
X159009519Y-90684531D01*
X159009520Y-90684533D01*
X159124999Y-90786837D01*
X159127760Y-90789283D01*
X159267635Y-90862696D01*
X159421015Y-90900500D01*
X159421016Y-90900500D01*
X159578983Y-90900500D01*
X159578985Y-90900500D01*
X159732365Y-90862696D01*
X159852228Y-90799785D01*
X159889577Y-90796392D01*
X159897769Y-90799785D01*
X160017635Y-90862696D01*
X160171015Y-90900500D01*
X160171016Y-90900500D01*
X160328983Y-90900500D01*
X160328985Y-90900500D01*
X160482365Y-90862696D01*
X160602228Y-90799785D01*
X160639577Y-90796392D01*
X160647769Y-90799785D01*
X160767635Y-90862696D01*
X160921015Y-90900500D01*
X160921016Y-90900500D01*
X161078983Y-90900500D01*
X161078985Y-90900500D01*
X161232365Y-90862696D01*
X161372240Y-90789283D01*
X161490483Y-90684530D01*
X161580220Y-90554523D01*
X161636237Y-90406818D01*
X161655278Y-90250000D01*
X161636237Y-90093182D01*
X161580220Y-89945477D01*
X161560718Y-89917224D01*
X161526490Y-89867636D01*
X161490483Y-89815470D01*
X161490480Y-89815467D01*
X161490479Y-89815466D01*
X161372239Y-89710716D01*
X161232364Y-89637303D01*
X161116788Y-89608817D01*
X161078985Y-89599500D01*
X160921015Y-89599500D01*
X160890687Y-89606975D01*
X160767635Y-89637303D01*
X160647772Y-89700213D01*
X160610422Y-89703607D01*
X160602228Y-89700213D01*
X160482364Y-89637303D01*
X160366788Y-89608817D01*
X160328985Y-89599500D01*
X160171015Y-89599500D01*
X160140687Y-89606975D01*
X160017635Y-89637303D01*
X159897772Y-89700213D01*
X159860422Y-89703607D01*
X159852228Y-89700213D01*
X159732364Y-89637303D01*
X159616788Y-89608817D01*
X159578985Y-89599500D01*
X159421015Y-89599500D01*
X159390687Y-89606975D01*
X159267635Y-89637303D01*
X159127760Y-89710716D01*
X159009520Y-89815466D01*
X159009518Y-89815468D01*
X159009517Y-89815470D01*
X158978771Y-89860014D01*
X158975212Y-89865170D01*
X158943718Y-89885531D01*
X158907050Y-89877660D01*
X158886689Y-89846166D01*
X158886243Y-89843234D01*
X158886237Y-89843182D01*
X158830220Y-89695477D01*
X158740483Y-89565470D01*
X158740480Y-89565467D01*
X158740479Y-89565466D01*
X158622239Y-89460716D01*
X158482364Y-89387303D01*
X158366788Y-89358817D01*
X158328985Y-89349500D01*
X158171015Y-89349500D01*
X158140687Y-89356975D01*
X158017635Y-89387303D01*
X157897772Y-89450213D01*
X157860422Y-89453607D01*
X157852228Y-89450213D01*
X157732364Y-89387303D01*
X157616788Y-89358817D01*
X157578985Y-89349500D01*
X157421015Y-89349500D01*
X157390687Y-89356975D01*
X157267635Y-89387303D01*
X157147772Y-89450213D01*
X157110422Y-89453607D01*
X157102228Y-89450213D01*
X156982364Y-89387303D01*
X156866788Y-89358817D01*
X156828985Y-89349500D01*
X156671015Y-89349500D01*
X156640687Y-89356975D01*
X156517635Y-89387303D01*
X156377760Y-89460716D01*
X156259520Y-89565466D01*
X156259516Y-89565471D01*
X156169780Y-89695475D01*
X156113763Y-89843180D01*
X156094722Y-90000000D01*
X156113763Y-90156819D01*
X156169780Y-90304524D01*
X156199213Y-90347166D01*
X156207083Y-90383833D01*
X156199213Y-90402834D01*
X156169780Y-90445475D01*
X156123360Y-90567876D01*
X156097654Y-90595183D01*
X156077544Y-90599500D01*
X155921015Y-90599500D01*
X155890687Y-90606975D01*
X155767635Y-90637303D01*
X155627760Y-90710716D01*
X155509520Y-90815466D01*
X155509516Y-90815471D01*
X155419780Y-90945475D01*
X155363763Y-91093180D01*
X155344722Y-91250000D01*
X155155278Y-91250000D01*
X155136237Y-91093182D01*
X155080220Y-90945477D01*
X155050785Y-90902834D01*
X155042915Y-90866168D01*
X155050784Y-90847167D01*
X155080220Y-90804523D01*
X155136237Y-90656818D01*
X155155278Y-90500000D01*
X155136237Y-90343182D01*
X155080220Y-90195477D01*
X155050785Y-90152834D01*
X155042915Y-90116168D01*
X155050784Y-90097167D01*
X155080220Y-90054523D01*
X155136237Y-89906818D01*
X155155278Y-89750000D01*
X155136237Y-89593182D01*
X155080220Y-89445477D01*
X154990483Y-89315470D01*
X154990480Y-89315467D01*
X154990479Y-89315466D01*
X154872239Y-89210716D01*
X154732364Y-89137303D01*
X154616788Y-89108817D01*
X154578985Y-89099500D01*
X154421015Y-89099500D01*
X154390687Y-89106975D01*
X154267635Y-89137303D01*
X154147772Y-89200213D01*
X154110422Y-89203607D01*
X154102228Y-89200213D01*
X153982364Y-89137303D01*
X153866788Y-89108817D01*
X153828985Y-89099500D01*
X153671015Y-89099500D01*
X153640687Y-89106975D01*
X153517635Y-89137303D01*
X153377760Y-89210716D01*
X153259520Y-89315466D01*
X153259516Y-89315471D01*
X153169780Y-89445475D01*
X153113763Y-89593180D01*
X153094722Y-89750000D01*
X148904238Y-89750000D01*
X148899706Y-89739735D01*
X148899705Y-89739734D01*
X148899705Y-89739733D01*
X148820266Y-89660294D01*
X148820267Y-89660294D01*
X148717493Y-89614915D01*
X148704928Y-89613457D01*
X148692365Y-89612000D01*
X148692363Y-89612000D01*
X146602641Y-89612000D01*
X146602631Y-89612001D01*
X146577507Y-89614915D01*
X146474733Y-89660294D01*
X146395294Y-89739733D01*
X146349915Y-89842506D01*
X146347000Y-89867634D01*
X140027999Y-89867634D01*
X140025085Y-89842509D01*
X139979706Y-89739735D01*
X139979705Y-89739734D01*
X139979705Y-89739733D01*
X139900266Y-89660294D01*
X139900267Y-89660294D01*
X139797493Y-89614915D01*
X139784928Y-89613457D01*
X139772365Y-89612000D01*
X139772363Y-89612000D01*
X137682641Y-89612000D01*
X137682631Y-89612001D01*
X137657507Y-89614915D01*
X137554733Y-89660294D01*
X137492148Y-89722880D01*
X137457500Y-89737232D01*
X137422852Y-89722880D01*
X137360266Y-89660294D01*
X137360267Y-89660294D01*
X137257493Y-89614915D01*
X137244928Y-89613457D01*
X137232365Y-89612000D01*
X137232363Y-89612000D01*
X135142641Y-89612000D01*
X135142631Y-89612001D01*
X135117507Y-89614915D01*
X135014733Y-89660294D01*
X134935294Y-89739733D01*
X134889915Y-89842506D01*
X134887000Y-89867634D01*
X132415300Y-89867634D01*
X132415300Y-88400000D01*
X151844722Y-88400000D01*
X151863763Y-88556819D01*
X151919780Y-88704524D01*
X151977627Y-88788330D01*
X152009517Y-88834530D01*
X152127760Y-88939283D01*
X152267635Y-89012696D01*
X152421015Y-89050500D01*
X152421016Y-89050500D01*
X152578983Y-89050500D01*
X152578985Y-89050500D01*
X152732365Y-89012696D01*
X152872240Y-88939283D01*
X152881365Y-88931199D01*
X180261659Y-88931199D01*
X180261659Y-88931200D01*
X180280976Y-89127332D01*
X180280976Y-89127333D01*
X180338185Y-89315926D01*
X180338186Y-89315927D01*
X180415577Y-89460716D01*
X180431092Y-89489741D01*
X180431094Y-89489744D01*
X180493239Y-89565466D01*
X180556117Y-89642083D01*
X180626948Y-89700213D01*
X180708455Y-89767105D01*
X180708458Y-89767107D01*
X180708462Y-89767110D01*
X180882273Y-89860014D01*
X181070868Y-89917224D01*
X181267000Y-89936541D01*
X181463132Y-89917224D01*
X181651727Y-89860014D01*
X181825538Y-89767110D01*
X181977883Y-89642083D01*
X182102910Y-89489738D01*
X182195814Y-89315927D01*
X182253024Y-89127332D01*
X182272341Y-88931200D01*
X182253024Y-88735068D01*
X182195814Y-88546473D01*
X182102910Y-88372662D01*
X182102907Y-88372658D01*
X182102905Y-88372655D01*
X182043688Y-88300500D01*
X181977883Y-88220317D01*
X181904131Y-88159790D01*
X181825544Y-88095294D01*
X181825541Y-88095292D01*
X181825539Y-88095291D01*
X181825538Y-88095290D01*
X181745592Y-88052558D01*
X181651726Y-88002385D01*
X181463132Y-87945176D01*
X181267000Y-87925859D01*
X181070867Y-87945176D01*
X181070866Y-87945176D01*
X180882273Y-88002385D01*
X180708458Y-88095292D01*
X180708455Y-88095294D01*
X180556117Y-88220317D01*
X180431094Y-88372655D01*
X180431092Y-88372658D01*
X180338185Y-88546473D01*
X180280976Y-88735066D01*
X180280976Y-88735067D01*
X180261659Y-88931199D01*
X152881365Y-88931199D01*
X152990483Y-88834530D01*
X153080220Y-88704523D01*
X153136237Y-88556818D01*
X153155278Y-88400000D01*
X153136237Y-88243182D01*
X153080220Y-88095477D01*
X153080092Y-88095292D01*
X152992180Y-87967929D01*
X152990483Y-87965470D01*
X152990480Y-87965467D01*
X152990479Y-87965466D01*
X152872239Y-87860716D01*
X152732364Y-87787303D01*
X152616788Y-87758817D01*
X152578985Y-87749500D01*
X152421015Y-87749500D01*
X152390687Y-87756975D01*
X152267635Y-87787303D01*
X152127760Y-87860716D01*
X152009520Y-87965466D01*
X152009516Y-87965471D01*
X151919780Y-88095475D01*
X151863763Y-88243180D01*
X151844722Y-88400000D01*
X132415300Y-88400000D01*
X132415300Y-86201945D01*
X143004116Y-86201945D01*
X143023788Y-86414251D01*
X143023789Y-86414257D01*
X143082138Y-86619329D01*
X143082142Y-86619339D01*
X143177177Y-86810197D01*
X143177180Y-86810201D01*
X143305670Y-86980349D01*
X143305673Y-86980352D01*
X143463238Y-87123993D01*
X143463239Y-87123994D01*
X143463243Y-87123997D01*
X143644526Y-87236243D01*
X143644529Y-87236244D01*
X143843341Y-87313264D01*
X143843342Y-87313264D01*
X143843347Y-87313266D01*
X144052935Y-87352445D01*
X144052937Y-87352445D01*
X144266153Y-87352445D01*
X144266155Y-87352445D01*
X144475743Y-87313266D01*
X144674564Y-87236243D01*
X144855847Y-87123997D01*
X145013417Y-86980352D01*
X145141911Y-86810200D01*
X145236950Y-86619334D01*
X145295301Y-86414255D01*
X145312620Y-86227345D01*
X147898516Y-86227345D01*
X147918188Y-86439651D01*
X147918189Y-86439657D01*
X147976538Y-86644729D01*
X147976542Y-86644739D01*
X148071577Y-86835597D01*
X148071578Y-86835599D01*
X148071579Y-86835600D01*
X148103702Y-86878138D01*
X148200070Y-87005749D01*
X148200073Y-87005752D01*
X148357638Y-87149393D01*
X148357639Y-87149394D01*
X148357643Y-87149397D01*
X148538926Y-87261643D01*
X148579342Y-87277300D01*
X148737741Y-87338664D01*
X148737742Y-87338664D01*
X148737747Y-87338666D01*
X148947335Y-87377845D01*
X148947337Y-87377845D01*
X149160553Y-87377845D01*
X149160555Y-87377845D01*
X149370143Y-87338666D01*
X149568964Y-87261643D01*
X149750247Y-87149397D01*
X149907817Y-87005752D01*
X150036311Y-86835600D01*
X150131350Y-86644734D01*
X150189701Y-86439655D01*
X150209374Y-86227345D01*
X150206840Y-86200000D01*
X172394451Y-86200000D01*
X172414616Y-86469097D01*
X172414618Y-86469106D01*
X172474666Y-86732196D01*
X172573256Y-86983396D01*
X172573259Y-86983401D01*
X172708181Y-87217097D01*
X172708184Y-87217101D01*
X172876434Y-87428080D01*
X172876439Y-87428085D01*
X173074259Y-87611635D01*
X173297226Y-87763651D01*
X173297227Y-87763651D01*
X173297228Y-87763652D01*
X173540352Y-87880735D01*
X173540355Y-87880736D01*
X173540359Y-87880738D01*
X173798228Y-87960280D01*
X174065071Y-88000500D01*
X174065073Y-88000500D01*
X174334927Y-88000500D01*
X174334929Y-88000500D01*
X174338246Y-88000000D01*
X177694355Y-88000000D01*
X177714860Y-88168872D01*
X177719359Y-88180734D01*
X177775181Y-88327929D01*
X177775182Y-88327931D01*
X177871816Y-88467928D01*
X177871817Y-88467929D01*
X177999148Y-88580734D01*
X178149775Y-88659790D01*
X178314944Y-88700500D01*
X178485056Y-88700500D01*
X178650225Y-88659790D01*
X178800852Y-88580734D01*
X178928183Y-88467929D01*
X179024818Y-88327930D01*
X179085140Y-88168872D01*
X179105645Y-88000000D01*
X179085140Y-87831128D01*
X179024818Y-87672070D01*
X178983102Y-87611635D01*
X178975071Y-87600000D01*
X189694355Y-87600000D01*
X189714860Y-87768872D01*
X189714861Y-87768874D01*
X189775181Y-87927929D01*
X189775182Y-87927931D01*
X189871816Y-88067928D01*
X189871817Y-88067929D01*
X189999148Y-88180734D01*
X190149775Y-88259790D01*
X190314944Y-88300500D01*
X190485056Y-88300500D01*
X190650225Y-88259790D01*
X190800852Y-88180734D01*
X190928183Y-88067929D01*
X191024818Y-87927930D01*
X191085140Y-87768872D01*
X191105645Y-87600000D01*
X191093503Y-87500000D01*
X198294355Y-87500000D01*
X198314860Y-87668872D01*
X198314861Y-87668874D01*
X198375181Y-87827929D01*
X198375182Y-87827931D01*
X198470120Y-87965471D01*
X198471817Y-87967929D01*
X198599148Y-88080734D01*
X198749775Y-88159790D01*
X198914944Y-88200500D01*
X199085056Y-88200500D01*
X199250225Y-88159790D01*
X199400852Y-88080734D01*
X199528183Y-87967929D01*
X199624818Y-87827930D01*
X199685140Y-87668872D01*
X199705645Y-87500000D01*
X199685140Y-87331128D01*
X199624818Y-87172070D01*
X199614787Y-87157538D01*
X199528183Y-87032071D01*
X199498471Y-87005749D01*
X199400852Y-86919266D01*
X199400844Y-86919262D01*
X199400843Y-86919261D01*
X199250224Y-86840209D01*
X199085056Y-86799500D01*
X198914944Y-86799500D01*
X198749775Y-86840209D01*
X198599156Y-86919261D01*
X198599151Y-86919264D01*
X198599148Y-86919266D01*
X198599146Y-86919268D01*
X198471816Y-87032071D01*
X198375182Y-87172068D01*
X198375181Y-87172070D01*
X198321635Y-87313264D01*
X198314860Y-87331128D01*
X198294355Y-87500000D01*
X191093503Y-87500000D01*
X191085140Y-87431128D01*
X191024818Y-87272070D01*
X191017621Y-87261644D01*
X190928183Y-87132071D01*
X190894332Y-87102082D01*
X190800852Y-87019266D01*
X190800844Y-87019262D01*
X190800843Y-87019261D01*
X190650224Y-86940209D01*
X190485056Y-86899500D01*
X190314944Y-86899500D01*
X190149775Y-86940209D01*
X189999156Y-87019261D01*
X189999151Y-87019264D01*
X189999148Y-87019266D01*
X189999146Y-87019268D01*
X189871816Y-87132071D01*
X189775182Y-87272068D01*
X189775181Y-87272070D01*
X189719358Y-87419268D01*
X189714860Y-87431128D01*
X189694355Y-87600000D01*
X178975071Y-87600000D01*
X178928183Y-87532071D01*
X178891982Y-87500000D01*
X178800852Y-87419266D01*
X178800844Y-87419262D01*
X178800843Y-87419261D01*
X178650224Y-87340209D01*
X178485056Y-87299500D01*
X178314944Y-87299500D01*
X178149775Y-87340209D01*
X177999156Y-87419261D01*
X177999151Y-87419264D01*
X177999148Y-87419266D01*
X177985762Y-87431125D01*
X177871816Y-87532071D01*
X177775182Y-87672068D01*
X177775181Y-87672070D01*
X177731480Y-87787303D01*
X177714860Y-87831128D01*
X177694355Y-88000000D01*
X174338246Y-88000000D01*
X174601772Y-87960280D01*
X174859641Y-87880738D01*
X175102775Y-87763651D01*
X175325741Y-87611635D01*
X175523561Y-87428085D01*
X175691815Y-87217102D01*
X175826743Y-86983398D01*
X175925334Y-86732195D01*
X175985383Y-86469103D01*
X175991221Y-86391199D01*
X180261659Y-86391199D01*
X180261659Y-86391200D01*
X180280976Y-86587332D01*
X180280976Y-86587333D01*
X180338185Y-86775926D01*
X180356505Y-86810200D01*
X180425997Y-86940210D01*
X180431092Y-86949741D01*
X180431094Y-86949744D01*
X180488146Y-87019261D01*
X180556117Y-87102083D01*
X180641396Y-87172070D01*
X180708455Y-87227105D01*
X180708458Y-87227107D01*
X180708462Y-87227110D01*
X180882273Y-87320014D01*
X181070868Y-87377224D01*
X181267000Y-87396541D01*
X181463132Y-87377224D01*
X181651727Y-87320014D01*
X181825538Y-87227110D01*
X181977883Y-87102083D01*
X182102910Y-86949738D01*
X182195814Y-86775927D01*
X182253024Y-86587332D01*
X182254061Y-86576800D01*
X183304555Y-86576800D01*
X183325060Y-86745672D01*
X183325061Y-86745674D01*
X183385381Y-86904729D01*
X183385382Y-86904731D01*
X183482016Y-87044728D01*
X183482017Y-87044729D01*
X183609348Y-87157534D01*
X183759975Y-87236590D01*
X183925144Y-87277300D01*
X184095256Y-87277300D01*
X184260425Y-87236590D01*
X184411052Y-87157534D01*
X184538383Y-87044729D01*
X184635018Y-86904730D01*
X184695340Y-86745672D01*
X184715845Y-86576800D01*
X184695340Y-86407928D01*
X184635018Y-86248870D01*
X184620160Y-86227345D01*
X184538383Y-86108871D01*
X184411052Y-85996066D01*
X184411044Y-85996062D01*
X184411043Y-85996061D01*
X184331856Y-85954500D01*
X194925055Y-85954500D01*
X194945560Y-86123372D01*
X194945561Y-86123374D01*
X195005881Y-86282429D01*
X195005882Y-86282431D01*
X195096872Y-86414251D01*
X195102517Y-86422429D01*
X195229848Y-86535234D01*
X195380475Y-86614290D01*
X195545644Y-86655000D01*
X195715756Y-86655000D01*
X195880925Y-86614290D01*
X196031552Y-86535234D01*
X196158883Y-86422429D01*
X196255518Y-86282430D01*
X196315840Y-86123372D01*
X196336345Y-85954500D01*
X196315840Y-85785628D01*
X196255518Y-85626570D01*
X196251762Y-85621129D01*
X196158883Y-85486571D01*
X196133685Y-85464248D01*
X196031552Y-85373766D01*
X196031544Y-85373762D01*
X196031543Y-85373761D01*
X195880924Y-85294709D01*
X195715756Y-85254000D01*
X195545644Y-85254000D01*
X195380475Y-85294709D01*
X195229856Y-85373761D01*
X195229851Y-85373764D01*
X195229848Y-85373766D01*
X195229846Y-85373768D01*
X195102516Y-85486571D01*
X195005882Y-85626568D01*
X195005881Y-85626570D01*
X194945965Y-85784560D01*
X194945560Y-85785628D01*
X194925055Y-85954500D01*
X184331856Y-85954500D01*
X184260424Y-85917009D01*
X184095256Y-85876300D01*
X183925144Y-85876300D01*
X183759975Y-85917009D01*
X183609356Y-85996061D01*
X183609351Y-85996064D01*
X183609348Y-85996066D01*
X183609346Y-85996068D01*
X183482016Y-86108871D01*
X183385382Y-86248868D01*
X183385381Y-86248870D01*
X183331404Y-86391199D01*
X183325060Y-86407928D01*
X183304555Y-86576800D01*
X182254061Y-86576800D01*
X182272341Y-86391200D01*
X182253024Y-86195068D01*
X182195814Y-86006473D01*
X182102910Y-85832662D01*
X182102907Y-85832658D01*
X182102905Y-85832655D01*
X182044203Y-85761128D01*
X181977883Y-85680317D01*
X181872331Y-85593692D01*
X181825544Y-85555294D01*
X181825541Y-85555292D01*
X181825539Y-85555291D01*
X181825538Y-85555290D01*
X181696974Y-85486571D01*
X181651726Y-85462385D01*
X181463132Y-85405176D01*
X181267000Y-85385859D01*
X181070867Y-85405176D01*
X181070866Y-85405176D01*
X180882273Y-85462385D01*
X180708458Y-85555292D01*
X180708455Y-85555294D01*
X180556117Y-85680317D01*
X180431094Y-85832655D01*
X180431092Y-85832658D01*
X180338185Y-86006473D01*
X180280976Y-86195066D01*
X180280976Y-86195067D01*
X180261659Y-86391199D01*
X175991221Y-86391199D01*
X176005549Y-86200000D01*
X175985383Y-85930897D01*
X175925334Y-85667805D01*
X175826743Y-85416602D01*
X175747815Y-85279893D01*
X175691818Y-85182902D01*
X175691815Y-85182898D01*
X175523565Y-84971919D01*
X175523560Y-84971914D01*
X175362150Y-84822148D01*
X199280722Y-84822148D01*
X199299763Y-84978967D01*
X199355780Y-85126672D01*
X199394593Y-85182902D01*
X199445517Y-85256678D01*
X199445519Y-85256679D01*
X199445520Y-85256681D01*
X199543159Y-85343180D01*
X199563760Y-85361431D01*
X199703635Y-85434844D01*
X199857015Y-85472648D01*
X199857016Y-85472648D01*
X199997991Y-85472648D01*
X200032639Y-85487000D01*
X200046633Y-85515740D01*
X200051436Y-85555292D01*
X200063763Y-85656819D01*
X200119780Y-85804524D01*
X200169324Y-85876300D01*
X200209517Y-85934530D01*
X200209519Y-85934531D01*
X200209520Y-85934533D01*
X200278980Y-85996068D01*
X200327760Y-86039283D01*
X200467635Y-86112696D01*
X200621015Y-86150500D01*
X200621016Y-86150500D01*
X200778983Y-86150500D01*
X200778985Y-86150500D01*
X200932365Y-86112696D01*
X201072240Y-86039283D01*
X201190483Y-85934530D01*
X201280220Y-85804523D01*
X201336237Y-85656818D01*
X201355278Y-85500000D01*
X201336237Y-85343182D01*
X201280220Y-85195477D01*
X201278541Y-85193045D01*
X201248330Y-85149277D01*
X201190483Y-85065470D01*
X201190480Y-85065467D01*
X201190479Y-85065466D01*
X201072239Y-84960716D01*
X200932364Y-84887303D01*
X200813062Y-84857899D01*
X200778985Y-84849500D01*
X200638009Y-84849500D01*
X200603361Y-84835148D01*
X200589366Y-84806407D01*
X200584927Y-84769846D01*
X203714568Y-84769846D01*
X203733609Y-84926665D01*
X203789626Y-85074370D01*
X203816081Y-85112696D01*
X203879363Y-85204376D01*
X203879365Y-85204377D01*
X203879366Y-85204379D01*
X203938398Y-85256676D01*
X203997606Y-85309129D01*
X204137481Y-85382542D01*
X204290861Y-85420346D01*
X204290862Y-85420346D01*
X204448829Y-85420346D01*
X204448831Y-85420346D01*
X204602211Y-85382542D01*
X204742086Y-85309129D01*
X204860329Y-85204376D01*
X204950066Y-85074369D01*
X205006083Y-84926664D01*
X205025124Y-84769846D01*
X205006083Y-84613028D01*
X204950066Y-84465323D01*
X204860329Y-84335316D01*
X204860326Y-84335313D01*
X204860325Y-84335312D01*
X204742085Y-84230562D01*
X204602210Y-84157149D01*
X204486634Y-84128663D01*
X204448831Y-84119346D01*
X204290861Y-84119346D01*
X204260533Y-84126821D01*
X204137481Y-84157149D01*
X203997606Y-84230562D01*
X203879366Y-84335312D01*
X203879362Y-84335317D01*
X203789626Y-84465321D01*
X203733609Y-84613026D01*
X203714568Y-84769846D01*
X200584927Y-84769846D01*
X200572237Y-84665330D01*
X200516220Y-84517625D01*
X200504054Y-84500000D01*
X200462446Y-84439720D01*
X200426483Y-84387618D01*
X200426480Y-84387615D01*
X200426479Y-84387614D01*
X200308239Y-84282864D01*
X200168364Y-84209451D01*
X200052788Y-84180965D01*
X200014985Y-84171648D01*
X199857015Y-84171648D01*
X199826687Y-84179123D01*
X199703635Y-84209451D01*
X199563760Y-84282864D01*
X199445520Y-84387614D01*
X199445516Y-84387619D01*
X199355780Y-84517623D01*
X199299763Y-84665328D01*
X199280722Y-84822148D01*
X175362150Y-84822148D01*
X175325742Y-84788366D01*
X175325740Y-84788364D01*
X175102772Y-84636347D01*
X174859647Y-84519264D01*
X174859634Y-84519259D01*
X174682486Y-84464617D01*
X174601772Y-84439720D01*
X174334929Y-84399500D01*
X174065071Y-84399500D01*
X173798228Y-84439720D01*
X173798225Y-84439721D01*
X173540365Y-84519259D01*
X173540352Y-84519264D01*
X173297228Y-84636347D01*
X173074259Y-84788364D01*
X173074257Y-84788366D01*
X172876439Y-84971914D01*
X172876434Y-84971919D01*
X172708184Y-85182898D01*
X172708181Y-85182902D01*
X172573259Y-85416598D01*
X172573256Y-85416603D01*
X172474666Y-85667803D01*
X172414618Y-85930893D01*
X172414616Y-85930902D01*
X172394451Y-86200000D01*
X150206840Y-86200000D01*
X150189701Y-86015035D01*
X150131350Y-85809956D01*
X150036311Y-85619090D01*
X149946378Y-85500000D01*
X149907819Y-85448940D01*
X149907816Y-85448937D01*
X149750251Y-85305296D01*
X149750248Y-85305294D01*
X149750247Y-85305293D01*
X149730716Y-85293200D01*
X166882155Y-85293200D01*
X166902660Y-85462072D01*
X166902661Y-85462074D01*
X166962981Y-85621129D01*
X166962982Y-85621131D01*
X167003836Y-85680317D01*
X167059617Y-85761129D01*
X167186948Y-85873934D01*
X167337575Y-85952990D01*
X167502744Y-85993700D01*
X167672856Y-85993700D01*
X167838025Y-85952990D01*
X167988652Y-85873934D01*
X168115983Y-85761129D01*
X168212618Y-85621130D01*
X168272940Y-85462072D01*
X168293445Y-85293200D01*
X168272940Y-85124328D01*
X168212618Y-84965270D01*
X168209475Y-84960717D01*
X168115983Y-84825271D01*
X168075662Y-84789550D01*
X167988652Y-84712466D01*
X167988644Y-84712462D01*
X167988643Y-84712461D01*
X167838024Y-84633409D01*
X167672856Y-84592700D01*
X167502744Y-84592700D01*
X167337575Y-84633409D01*
X167186956Y-84712461D01*
X167186951Y-84712464D01*
X167186948Y-84712466D01*
X167186946Y-84712468D01*
X167059616Y-84825271D01*
X166962982Y-84965268D01*
X166962981Y-84965270D01*
X166907071Y-85112696D01*
X166902660Y-85124328D01*
X166882155Y-85293200D01*
X149730716Y-85293200D01*
X149568964Y-85193047D01*
X149568961Y-85193046D01*
X149568960Y-85193045D01*
X149370148Y-85116025D01*
X149370143Y-85116024D01*
X149160555Y-85076845D01*
X148947335Y-85076845D01*
X148789181Y-85106409D01*
X148737741Y-85116025D01*
X148538929Y-85193045D01*
X148357638Y-85305296D01*
X148200073Y-85448937D01*
X148200070Y-85448940D01*
X148071580Y-85619088D01*
X148071577Y-85619092D01*
X147976542Y-85809950D01*
X147976538Y-85809960D01*
X147918189Y-86015032D01*
X147918188Y-86015038D01*
X147898516Y-86227345D01*
X145312620Y-86227345D01*
X145314974Y-86201945D01*
X145295301Y-85989635D01*
X145236950Y-85784556D01*
X145141911Y-85593690D01*
X145061018Y-85486571D01*
X145013419Y-85423540D01*
X145013416Y-85423537D01*
X144855851Y-85279896D01*
X144855848Y-85279894D01*
X144855847Y-85279893D01*
X144674564Y-85167647D01*
X144674561Y-85167646D01*
X144674560Y-85167645D01*
X144475748Y-85090625D01*
X144475743Y-85090624D01*
X144266155Y-85051445D01*
X144052935Y-85051445D01*
X143930298Y-85074370D01*
X143843341Y-85090625D01*
X143644529Y-85167645D01*
X143463238Y-85279896D01*
X143305673Y-85423537D01*
X143305670Y-85423540D01*
X143177180Y-85593688D01*
X143177177Y-85593692D01*
X143082142Y-85784550D01*
X143082138Y-85784560D01*
X143023789Y-85989632D01*
X143023788Y-85989638D01*
X143004116Y-86201945D01*
X132415300Y-86201945D01*
X132415300Y-83512800D01*
X133294355Y-83512800D01*
X133314860Y-83681672D01*
X133314861Y-83681674D01*
X133375181Y-83840729D01*
X133375182Y-83840731D01*
X133471816Y-83980728D01*
X133471817Y-83980729D01*
X133599148Y-84093534D01*
X133749775Y-84172590D01*
X133914944Y-84213300D01*
X134085056Y-84213300D01*
X134250225Y-84172590D01*
X134400852Y-84093534D01*
X134528183Y-83980729D01*
X134624818Y-83840730D01*
X134685140Y-83681672D01*
X134695057Y-83600000D01*
X137244750Y-83600000D01*
X137263669Y-83743708D01*
X137319136Y-83877620D01*
X137319139Y-83877625D01*
X137374674Y-83950000D01*
X137407379Y-83992621D01*
X137522375Y-84080861D01*
X137522377Y-84080861D01*
X137522379Y-84080863D01*
X137552980Y-84093538D01*
X137656291Y-84136330D01*
X137800000Y-84155250D01*
X137943709Y-84136330D01*
X138077625Y-84080861D01*
X138192621Y-83992621D01*
X138280861Y-83877625D01*
X138336330Y-83743709D01*
X138355250Y-83600000D01*
X138336330Y-83456291D01*
X138301116Y-83371275D01*
X138280863Y-83322379D01*
X138280860Y-83322374D01*
X138192621Y-83207379D01*
X138192620Y-83207378D01*
X138077625Y-83119139D01*
X138077620Y-83119136D01*
X137943708Y-83063669D01*
X137800000Y-83044750D01*
X137656291Y-83063669D01*
X137522379Y-83119136D01*
X137522374Y-83119139D01*
X137407379Y-83207378D01*
X137407378Y-83207379D01*
X137319139Y-83322374D01*
X137319136Y-83322379D01*
X137263669Y-83456291D01*
X137244750Y-83600000D01*
X134695057Y-83600000D01*
X134705645Y-83512800D01*
X134685140Y-83343928D01*
X134624818Y-83184870D01*
X134604409Y-83155303D01*
X134528183Y-83044871D01*
X134517499Y-83035406D01*
X134400852Y-82932066D01*
X134400844Y-82932062D01*
X134400843Y-82932061D01*
X134250224Y-82853009D01*
X134085056Y-82812300D01*
X133914944Y-82812300D01*
X133749775Y-82853009D01*
X133599156Y-82932061D01*
X133599151Y-82932064D01*
X133599148Y-82932066D01*
X133573069Y-82955169D01*
X133471816Y-83044871D01*
X133375182Y-83184868D01*
X133375181Y-83184870D01*
X133323034Y-83322374D01*
X133314860Y-83343928D01*
X133294355Y-83512800D01*
X132415300Y-83512800D01*
X132415300Y-82767079D01*
X143009045Y-82767079D01*
X143009045Y-84556803D01*
X143009046Y-84556813D01*
X143011960Y-84581937D01*
X143057339Y-84684711D01*
X143136778Y-84764150D01*
X143239551Y-84809529D01*
X143239554Y-84809530D01*
X143264680Y-84812445D01*
X145054409Y-84812444D01*
X145079536Y-84809530D01*
X145182310Y-84764151D01*
X145261751Y-84684710D01*
X145307130Y-84581936D01*
X145310045Y-84556810D01*
X145310044Y-83400000D01*
X146044722Y-83400000D01*
X146063763Y-83556819D01*
X146119780Y-83704524D01*
X146146827Y-83743708D01*
X146209517Y-83834530D01*
X146209519Y-83834531D01*
X146209520Y-83834533D01*
X146298456Y-83913323D01*
X146314874Y-83947041D01*
X146302640Y-83982493D01*
X146298456Y-83986677D01*
X146209520Y-84065466D01*
X146209516Y-84065471D01*
X146119780Y-84195475D01*
X146063763Y-84343180D01*
X146044722Y-84500000D01*
X146063763Y-84656819D01*
X146119780Y-84804524D01*
X146176919Y-84887303D01*
X146209517Y-84934530D01*
X146209519Y-84934531D01*
X146209520Y-84934533D01*
X146327760Y-85039283D01*
X146467635Y-85112696D01*
X146621015Y-85150500D01*
X146621016Y-85150500D01*
X146778983Y-85150500D01*
X146778985Y-85150500D01*
X146932365Y-85112696D01*
X147072240Y-85039283D01*
X147190483Y-84934530D01*
X147280220Y-84804523D01*
X147336237Y-84656818D01*
X147355278Y-84500000D01*
X147336237Y-84343182D01*
X147280220Y-84195477D01*
X147190483Y-84065470D01*
X147190480Y-84065467D01*
X147190479Y-84065466D01*
X147101543Y-83986677D01*
X147085125Y-83952959D01*
X147097359Y-83917507D01*
X147101543Y-83913323D01*
X147183483Y-83840731D01*
X147190483Y-83834530D01*
X147280220Y-83704523D01*
X147336237Y-83556818D01*
X147355278Y-83400000D01*
X147336237Y-83243182D01*
X147280220Y-83095477D01*
X147190483Y-82965470D01*
X147190480Y-82965467D01*
X147190479Y-82965466D01*
X147072239Y-82860716D01*
X146942226Y-82792479D01*
X147903445Y-82792479D01*
X147903445Y-84582203D01*
X147903446Y-84582213D01*
X147906360Y-84607337D01*
X147951739Y-84710111D01*
X148031178Y-84789550D01*
X148133951Y-84834929D01*
X148133954Y-84834930D01*
X148159080Y-84837845D01*
X149948809Y-84837844D01*
X149973936Y-84834930D01*
X150076710Y-84789551D01*
X150156151Y-84710110D01*
X150201530Y-84607336D01*
X150204445Y-84582210D01*
X150204444Y-83616145D01*
X153561155Y-83616145D01*
X153581660Y-83785017D01*
X153581661Y-83785019D01*
X153641981Y-83944074D01*
X153641982Y-83944076D01*
X153738616Y-84084073D01*
X153738617Y-84084074D01*
X153865948Y-84196879D01*
X154016575Y-84275935D01*
X154181744Y-84316645D01*
X154351856Y-84316645D01*
X154517025Y-84275935D01*
X154667652Y-84196879D01*
X154794983Y-84084074D01*
X154891618Y-83944075D01*
X154951940Y-83785017D01*
X154972445Y-83616145D01*
X154951940Y-83447273D01*
X154891618Y-83288215D01*
X154872182Y-83260058D01*
X154794983Y-83148216D01*
X154667652Y-83035411D01*
X154667644Y-83035407D01*
X154667643Y-83035406D01*
X154517024Y-82956354D01*
X154351856Y-82915645D01*
X154181744Y-82915645D01*
X154016575Y-82956354D01*
X153865956Y-83035406D01*
X153865951Y-83035409D01*
X153865948Y-83035411D01*
X153855270Y-83044871D01*
X153738616Y-83148216D01*
X153641982Y-83288213D01*
X153641981Y-83288215D01*
X153599588Y-83400000D01*
X153581660Y-83447273D01*
X153561155Y-83616145D01*
X150204444Y-83616145D01*
X150204444Y-82792481D01*
X150201530Y-82767354D01*
X150156151Y-82664580D01*
X150156150Y-82664579D01*
X150156150Y-82664578D01*
X150076711Y-82585139D01*
X150076712Y-82585139D01*
X149973938Y-82539760D01*
X149961373Y-82538302D01*
X149948810Y-82536845D01*
X149948808Y-82536845D01*
X148159086Y-82536845D01*
X148159076Y-82536846D01*
X148133952Y-82539760D01*
X148031178Y-82585139D01*
X147951739Y-82664578D01*
X147906360Y-82767351D01*
X147903445Y-82792479D01*
X146942226Y-82792479D01*
X146932364Y-82787303D01*
X146816474Y-82758740D01*
X146778985Y-82749500D01*
X146621015Y-82749500D01*
X146590687Y-82756975D01*
X146467635Y-82787303D01*
X146327760Y-82860716D01*
X146209520Y-82965466D01*
X146209516Y-82965471D01*
X146119780Y-83095475D01*
X146063763Y-83243180D01*
X146044722Y-83400000D01*
X145310044Y-83400000D01*
X145310044Y-82767081D01*
X145307130Y-82741954D01*
X145261751Y-82639180D01*
X145261750Y-82639179D01*
X145261750Y-82639178D01*
X145182311Y-82559739D01*
X145182312Y-82559739D01*
X145079538Y-82514360D01*
X145066973Y-82512902D01*
X145054410Y-82511445D01*
X145054408Y-82511445D01*
X143264686Y-82511445D01*
X143264676Y-82511446D01*
X143239552Y-82514360D01*
X143136778Y-82559739D01*
X143057339Y-82639178D01*
X143011960Y-82741951D01*
X143009045Y-82767079D01*
X132415300Y-82767079D01*
X132415300Y-80467600D01*
X153121651Y-80467600D01*
X153141816Y-80736697D01*
X153141818Y-80736706D01*
X153201866Y-80999796D01*
X153300456Y-81250996D01*
X153300459Y-81251001D01*
X153435381Y-81484697D01*
X153435384Y-81484701D01*
X153603634Y-81695680D01*
X153603639Y-81695685D01*
X153801459Y-81879235D01*
X154024426Y-82031251D01*
X154024427Y-82031251D01*
X154024428Y-82031252D01*
X154267552Y-82148335D01*
X154267555Y-82148336D01*
X154267559Y-82148338D01*
X154525428Y-82227880D01*
X154792271Y-82268100D01*
X154792273Y-82268100D01*
X155062127Y-82268100D01*
X155062129Y-82268100D01*
X155328972Y-82227880D01*
X155586841Y-82148338D01*
X155829975Y-82031251D01*
X155943281Y-81954000D01*
X190035122Y-81954000D01*
X190054163Y-82110819D01*
X190110180Y-82258524D01*
X190155522Y-82324212D01*
X190199917Y-82388530D01*
X190199919Y-82388531D01*
X190199920Y-82388533D01*
X190231209Y-82416252D01*
X190318160Y-82493283D01*
X190458035Y-82566696D01*
X190611415Y-82604500D01*
X190696382Y-82604500D01*
X190731030Y-82618852D01*
X190745382Y-82653500D01*
X190745025Y-82659406D01*
X190737574Y-82720775D01*
X190746281Y-82792481D01*
X190756615Y-82877594D01*
X190812632Y-83025299D01*
X190826142Y-83044871D01*
X190902369Y-83155305D01*
X191020612Y-83260058D01*
X191160487Y-83333471D01*
X191313867Y-83371275D01*
X191313868Y-83371275D01*
X191471835Y-83371275D01*
X191471837Y-83371275D01*
X191625217Y-83333471D01*
X191765092Y-83260058D01*
X191883335Y-83155305D01*
X191973072Y-83025298D01*
X192029089Y-82877593D01*
X192048130Y-82720775D01*
X192029089Y-82563957D01*
X191973072Y-82416252D01*
X191909542Y-82324212D01*
X192085335Y-82324212D01*
X192104376Y-82481031D01*
X192160393Y-82628736D01*
X192185135Y-82664580D01*
X192250130Y-82758742D01*
X192250132Y-82758743D01*
X192250133Y-82758745D01*
X192310585Y-82812300D01*
X192368373Y-82863495D01*
X192508248Y-82936908D01*
X192661628Y-82974712D01*
X192661629Y-82974712D01*
X192819596Y-82974712D01*
X192819598Y-82974712D01*
X192972978Y-82936908D01*
X193112853Y-82863495D01*
X193231096Y-82758742D01*
X193320833Y-82628735D01*
X193376850Y-82481030D01*
X193395891Y-82324212D01*
X193376850Y-82167394D01*
X193320833Y-82019689D01*
X193231096Y-81889682D01*
X193231093Y-81889679D01*
X193231092Y-81889678D01*
X193112852Y-81784928D01*
X192972977Y-81711515D01*
X192857401Y-81683029D01*
X192819598Y-81673712D01*
X192661628Y-81673712D01*
X192631300Y-81681187D01*
X192508248Y-81711515D01*
X192368373Y-81784928D01*
X192250133Y-81889678D01*
X192250129Y-81889683D01*
X192160393Y-82019687D01*
X192104376Y-82167392D01*
X192085335Y-82324212D01*
X191909542Y-82324212D01*
X191883335Y-82286245D01*
X191883332Y-82286242D01*
X191883331Y-82286241D01*
X191765091Y-82181491D01*
X191625216Y-82108078D01*
X191509640Y-82079592D01*
X191471837Y-82070275D01*
X191471836Y-82070275D01*
X191386870Y-82070275D01*
X191352222Y-82055923D01*
X191337870Y-82021275D01*
X191338227Y-82015369D01*
X191340221Y-81998937D01*
X191345678Y-81954000D01*
X191326637Y-81797182D01*
X191270620Y-81649477D01*
X191180883Y-81519470D01*
X191180880Y-81519467D01*
X191180879Y-81519466D01*
X191062639Y-81414716D01*
X190922764Y-81341303D01*
X190807188Y-81312817D01*
X190769385Y-81303500D01*
X190611415Y-81303500D01*
X190581087Y-81310975D01*
X190458035Y-81341303D01*
X190318160Y-81414716D01*
X190199920Y-81519466D01*
X190199916Y-81519471D01*
X190110180Y-81649475D01*
X190054163Y-81797180D01*
X190035122Y-81954000D01*
X155943281Y-81954000D01*
X156052941Y-81879235D01*
X156250761Y-81695685D01*
X156419015Y-81484702D01*
X156553943Y-81250998D01*
X156652534Y-80999795D01*
X156712583Y-80736703D01*
X156728448Y-80525000D01*
X188080595Y-80525000D01*
X188099636Y-80681819D01*
X188155653Y-80829524D01*
X188213500Y-80913330D01*
X188245390Y-80959530D01*
X188363633Y-81064283D01*
X188503508Y-81137696D01*
X188656888Y-81175500D01*
X188656889Y-81175500D01*
X188814856Y-81175500D01*
X188814858Y-81175500D01*
X188968238Y-81137696D01*
X189108113Y-81064283D01*
X189226356Y-80959530D01*
X189316093Y-80829523D01*
X189372110Y-80681818D01*
X189376427Y-80646261D01*
X192046710Y-80646261D01*
X192067215Y-80815133D01*
X192072673Y-80829524D01*
X192127536Y-80974190D01*
X192127537Y-80974192D01*
X192189723Y-81064283D01*
X192224172Y-81114190D01*
X192351503Y-81226995D01*
X192502130Y-81306051D01*
X192667299Y-81346761D01*
X192837411Y-81346761D01*
X193002580Y-81306051D01*
X193153207Y-81226995D01*
X193280538Y-81114190D01*
X193377173Y-80974191D01*
X193437495Y-80815133D01*
X193458000Y-80646261D01*
X193437495Y-80477389D01*
X193377173Y-80318331D01*
X193309627Y-80220475D01*
X193280538Y-80178332D01*
X193278722Y-80176723D01*
X193153207Y-80065527D01*
X193153199Y-80065523D01*
X193153198Y-80065522D01*
X193002579Y-79986470D01*
X192837411Y-79945761D01*
X192667299Y-79945761D01*
X192502130Y-79986470D01*
X192351511Y-80065522D01*
X192351506Y-80065525D01*
X192351503Y-80065527D01*
X192351501Y-80065529D01*
X192224171Y-80178332D01*
X192127537Y-80318329D01*
X192127536Y-80318331D01*
X192108631Y-80368182D01*
X192067215Y-80477389D01*
X192046710Y-80646261D01*
X189376427Y-80646261D01*
X189391151Y-80525000D01*
X189372110Y-80368182D01*
X189316093Y-80220477D01*
X189300921Y-80198497D01*
X189259798Y-80138919D01*
X189226356Y-80090470D01*
X189226353Y-80090467D01*
X189226352Y-80090466D01*
X189108112Y-79985716D01*
X188968237Y-79912303D01*
X188852661Y-79883817D01*
X188814858Y-79874500D01*
X188656888Y-79874500D01*
X188626560Y-79881975D01*
X188503508Y-79912303D01*
X188363633Y-79985716D01*
X188245393Y-80090466D01*
X188245389Y-80090471D01*
X188155653Y-80220475D01*
X188099636Y-80368180D01*
X188080595Y-80525000D01*
X156728448Y-80525000D01*
X156732749Y-80467600D01*
X156712583Y-80198497D01*
X156652534Y-79935405D01*
X156553943Y-79684202D01*
X156476999Y-79550930D01*
X156419018Y-79450502D01*
X156419015Y-79450498D01*
X156250765Y-79239519D01*
X156250760Y-79239514D01*
X156232962Y-79223000D01*
X177894355Y-79223000D01*
X177914860Y-79391872D01*
X177914861Y-79391874D01*
X177975181Y-79550929D01*
X177975182Y-79550931D01*
X178067174Y-79684203D01*
X178071817Y-79690929D01*
X178199148Y-79803734D01*
X178349775Y-79882790D01*
X178514944Y-79923500D01*
X178685056Y-79923500D01*
X178850225Y-79882790D01*
X179000852Y-79803734D01*
X179128183Y-79690929D01*
X179224818Y-79550930D01*
X179234188Y-79526223D01*
X194043581Y-79526223D01*
X194062622Y-79683042D01*
X194118639Y-79830747D01*
X194174934Y-79912304D01*
X194208376Y-79960753D01*
X194208378Y-79960754D01*
X194208379Y-79960756D01*
X194236555Y-79985717D01*
X194326619Y-80065506D01*
X194466494Y-80138919D01*
X194619874Y-80176723D01*
X194619875Y-80176723D01*
X194777842Y-80176723D01*
X194777844Y-80176723D01*
X194931224Y-80138919D01*
X195071099Y-80065506D01*
X195189342Y-79960753D01*
X195279079Y-79830746D01*
X195335096Y-79683041D01*
X195354137Y-79526223D01*
X195335096Y-79369405D01*
X195279079Y-79221700D01*
X195259722Y-79193657D01*
X195247189Y-79175500D01*
X195189342Y-79091693D01*
X195189339Y-79091690D01*
X195189338Y-79091689D01*
X195127489Y-79036896D01*
X195762131Y-79036896D01*
X195782768Y-79193657D01*
X195843274Y-79339732D01*
X195843277Y-79339737D01*
X195928266Y-79450498D01*
X195939531Y-79465178D01*
X196064972Y-79561432D01*
X196064974Y-79561432D01*
X196064976Y-79561434D01*
X196211051Y-79621940D01*
X196367813Y-79642578D01*
X196524575Y-79621940D01*
X196670654Y-79561432D01*
X196796095Y-79465178D01*
X196892349Y-79339737D01*
X196952857Y-79193658D01*
X196973495Y-79036896D01*
X196952857Y-78880134D01*
X196914223Y-78786864D01*
X196892351Y-78734059D01*
X196892348Y-78734054D01*
X196871834Y-78707320D01*
X196796095Y-78608614D01*
X196774727Y-78592218D01*
X196670654Y-78512360D01*
X196670649Y-78512357D01*
X196524574Y-78451851D01*
X196367813Y-78431214D01*
X196211051Y-78451851D01*
X196064976Y-78512357D01*
X196064971Y-78512360D01*
X195939531Y-78608613D01*
X195939530Y-78608614D01*
X195843277Y-78734054D01*
X195843274Y-78734059D01*
X195782768Y-78880134D01*
X195762131Y-79036896D01*
X195127489Y-79036896D01*
X195071098Y-78986939D01*
X194931223Y-78913526D01*
X194795740Y-78880134D01*
X194777844Y-78875723D01*
X194619874Y-78875723D01*
X194601978Y-78880134D01*
X194466494Y-78913526D01*
X194326619Y-78986939D01*
X194208379Y-79091689D01*
X194208375Y-79091694D01*
X194118639Y-79221698D01*
X194062622Y-79369403D01*
X194043581Y-79526223D01*
X179234188Y-79526223D01*
X179285140Y-79391872D01*
X179305645Y-79223000D01*
X179285140Y-79054128D01*
X179224818Y-78895070D01*
X179214508Y-78880134D01*
X179128183Y-78755071D01*
X179000852Y-78642266D01*
X179000844Y-78642262D01*
X179000843Y-78642261D01*
X178850224Y-78563209D01*
X178685056Y-78522500D01*
X178514944Y-78522500D01*
X178349775Y-78563209D01*
X178199156Y-78642261D01*
X178199151Y-78642264D01*
X178199148Y-78642266D01*
X178199146Y-78642268D01*
X178071816Y-78755071D01*
X177975182Y-78895068D01*
X177975181Y-78895070D01*
X177914861Y-79054125D01*
X177914860Y-79054128D01*
X177894355Y-79223000D01*
X156232962Y-79223000D01*
X156052942Y-79055966D01*
X156052940Y-79055964D01*
X155829972Y-78903947D01*
X155586847Y-78786864D01*
X155586834Y-78786859D01*
X155409686Y-78732217D01*
X155328972Y-78707320D01*
X155062129Y-78667100D01*
X154792271Y-78667100D01*
X154525428Y-78707320D01*
X154525425Y-78707321D01*
X154267565Y-78786859D01*
X154267552Y-78786864D01*
X154024428Y-78903947D01*
X153801459Y-79055964D01*
X153801457Y-79055966D01*
X153603639Y-79239514D01*
X153603634Y-79239519D01*
X153435384Y-79450498D01*
X153435381Y-79450502D01*
X153300459Y-79684198D01*
X153300456Y-79684203D01*
X153201866Y-79935403D01*
X153141818Y-80198493D01*
X153141816Y-80198502D01*
X153121651Y-80467600D01*
X132415300Y-80467600D01*
X132415300Y-78435400D01*
X184309322Y-78435400D01*
X184328363Y-78592219D01*
X184384380Y-78739924D01*
X184416781Y-78786864D01*
X184474117Y-78869930D01*
X184474119Y-78869931D01*
X184474120Y-78869933D01*
X184512517Y-78903949D01*
X184592360Y-78974683D01*
X184732235Y-79048096D01*
X184885615Y-79085900D01*
X184885616Y-79085900D01*
X185043583Y-79085900D01*
X185043585Y-79085900D01*
X185196965Y-79048096D01*
X185336840Y-78974683D01*
X185455083Y-78869930D01*
X185544820Y-78739923D01*
X185600837Y-78592218D01*
X185619878Y-78435400D01*
X185600837Y-78278582D01*
X185544820Y-78130877D01*
X185455083Y-78000870D01*
X185455080Y-78000867D01*
X185455079Y-78000866D01*
X185336839Y-77896116D01*
X185196964Y-77822703D01*
X185081388Y-77794217D01*
X185043585Y-77784900D01*
X184885615Y-77784900D01*
X184855287Y-77792375D01*
X184732235Y-77822703D01*
X184592360Y-77896116D01*
X184474120Y-78000866D01*
X184474116Y-78000871D01*
X184384380Y-78130875D01*
X184328363Y-78278580D01*
X184309322Y-78435400D01*
X132415300Y-78435400D01*
X132415300Y-75105584D01*
X163059300Y-75105584D01*
X163059300Y-77192816D01*
X163075389Y-77273700D01*
X163095826Y-77376448D01*
X163095829Y-77376458D01*
X163167475Y-77549425D01*
X163167476Y-77549427D01*
X163167478Y-77549431D01*
X163271498Y-77705108D01*
X163403892Y-77837502D01*
X163559569Y-77941522D01*
X163559574Y-77941524D01*
X163732541Y-78013170D01*
X163732543Y-78013170D01*
X163732549Y-78013173D01*
X163916184Y-78049700D01*
X163916187Y-78049700D01*
X164103413Y-78049700D01*
X164103416Y-78049700D01*
X164287051Y-78013173D01*
X164460031Y-77941522D01*
X164615708Y-77837502D01*
X164748102Y-77705108D01*
X164852122Y-77549431D01*
X164923773Y-77376451D01*
X164960300Y-77192816D01*
X164960300Y-76649200D01*
X165575713Y-76649200D01*
X165593993Y-76799751D01*
X165647771Y-76941552D01*
X165733922Y-77066363D01*
X165779800Y-77107006D01*
X165847438Y-77166928D01*
X165981723Y-77237407D01*
X166128972Y-77273700D01*
X166128973Y-77273700D01*
X166280626Y-77273700D01*
X166280628Y-77273700D01*
X166427877Y-77237407D01*
X166562162Y-77166928D01*
X166597309Y-77135790D01*
X166632758Y-77123557D01*
X166662290Y-77135789D01*
X166697438Y-77166928D01*
X166831723Y-77237407D01*
X166978972Y-77273700D01*
X166978973Y-77273700D01*
X167130626Y-77273700D01*
X167130628Y-77273700D01*
X167277877Y-77237407D01*
X167412162Y-77166928D01*
X167447309Y-77135790D01*
X167482758Y-77123557D01*
X167512290Y-77135789D01*
X167547438Y-77166928D01*
X167681723Y-77237407D01*
X167828972Y-77273700D01*
X167828973Y-77273700D01*
X167980626Y-77273700D01*
X167980628Y-77273700D01*
X168127877Y-77237407D01*
X168262162Y-77166928D01*
X168297309Y-77135790D01*
X168332758Y-77123557D01*
X168362290Y-77135789D01*
X168397438Y-77166928D01*
X168531723Y-77237407D01*
X168678972Y-77273700D01*
X168678973Y-77273700D01*
X168830626Y-77273700D01*
X168830628Y-77273700D01*
X168977877Y-77237407D01*
X169112162Y-77166928D01*
X169147309Y-77135790D01*
X169182758Y-77123557D01*
X169212290Y-77135789D01*
X169247438Y-77166928D01*
X169381723Y-77237407D01*
X169528972Y-77273700D01*
X169528973Y-77273700D01*
X169680626Y-77273700D01*
X169680628Y-77273700D01*
X169827877Y-77237407D01*
X169962162Y-77166928D01*
X169997309Y-77135790D01*
X170032758Y-77123557D01*
X170062290Y-77135789D01*
X170097438Y-77166928D01*
X170231723Y-77237407D01*
X170378972Y-77273700D01*
X170378973Y-77273700D01*
X170530626Y-77273700D01*
X170530628Y-77273700D01*
X170677877Y-77237407D01*
X170812162Y-77166928D01*
X170925678Y-77066362D01*
X171011829Y-76941551D01*
X171065607Y-76799750D01*
X171083887Y-76649200D01*
X171065607Y-76498650D01*
X171011829Y-76356849D01*
X170958456Y-76279524D01*
X170925677Y-76232036D01*
X170847306Y-76162607D01*
X170812162Y-76131472D01*
X170812154Y-76131468D01*
X170812153Y-76131467D01*
X170677876Y-76060992D01*
X170566920Y-76033645D01*
X170530628Y-76024700D01*
X170378972Y-76024700D01*
X170349856Y-76031876D01*
X170231723Y-76060992D01*
X170097438Y-76131471D01*
X170062293Y-76162607D01*
X170026841Y-76174841D01*
X169997307Y-76162607D01*
X169962161Y-76131471D01*
X169827876Y-76060992D01*
X169716920Y-76033645D01*
X169680628Y-76024700D01*
X169528972Y-76024700D01*
X169499856Y-76031876D01*
X169381723Y-76060992D01*
X169247438Y-76131471D01*
X169212293Y-76162607D01*
X169176841Y-76174841D01*
X169147307Y-76162607D01*
X169112161Y-76131471D01*
X168977876Y-76060992D01*
X168866920Y-76033645D01*
X168830628Y-76024700D01*
X168678972Y-76024700D01*
X168649856Y-76031876D01*
X168531723Y-76060992D01*
X168397438Y-76131471D01*
X168362293Y-76162607D01*
X168326841Y-76174841D01*
X168297307Y-76162607D01*
X168262161Y-76131471D01*
X168127876Y-76060992D01*
X168016920Y-76033645D01*
X167980628Y-76024700D01*
X167828972Y-76024700D01*
X167799856Y-76031876D01*
X167681723Y-76060992D01*
X167547438Y-76131471D01*
X167512293Y-76162607D01*
X167476841Y-76174841D01*
X167447307Y-76162607D01*
X167412161Y-76131471D01*
X167277876Y-76060992D01*
X167166920Y-76033645D01*
X167130628Y-76024700D01*
X166978972Y-76024700D01*
X166949856Y-76031876D01*
X166831723Y-76060992D01*
X166697438Y-76131471D01*
X166662293Y-76162607D01*
X166626841Y-76174841D01*
X166597307Y-76162607D01*
X166562161Y-76131471D01*
X166427876Y-76060992D01*
X166316920Y-76033645D01*
X166280628Y-76024700D01*
X166128972Y-76024700D01*
X166099856Y-76031876D01*
X165981723Y-76060992D01*
X165847446Y-76131467D01*
X165847441Y-76131470D01*
X165847438Y-76131472D01*
X165835812Y-76141771D01*
X165733922Y-76232036D01*
X165647771Y-76356847D01*
X165593993Y-76498648D01*
X165575713Y-76649200D01*
X164960300Y-76649200D01*
X164960300Y-75299200D01*
X165575713Y-75299200D01*
X165593993Y-75449751D01*
X165647771Y-75591552D01*
X165733922Y-75716363D01*
X165779800Y-75757006D01*
X165847438Y-75816928D01*
X165981723Y-75887407D01*
X166128972Y-75923700D01*
X166128973Y-75923700D01*
X166280626Y-75923700D01*
X166280628Y-75923700D01*
X166427877Y-75887407D01*
X166562162Y-75816928D01*
X166597309Y-75785790D01*
X166632758Y-75773557D01*
X166662290Y-75785789D01*
X166697438Y-75816928D01*
X166831723Y-75887407D01*
X166978972Y-75923700D01*
X166978973Y-75923700D01*
X167130626Y-75923700D01*
X167130628Y-75923700D01*
X167277877Y-75887407D01*
X167412162Y-75816928D01*
X167447309Y-75785790D01*
X167482758Y-75773557D01*
X167512290Y-75785789D01*
X167547438Y-75816928D01*
X167681723Y-75887407D01*
X167828972Y-75923700D01*
X167828973Y-75923700D01*
X167980626Y-75923700D01*
X167980628Y-75923700D01*
X168127877Y-75887407D01*
X168262162Y-75816928D01*
X168297309Y-75785790D01*
X168332758Y-75773557D01*
X168362290Y-75785789D01*
X168397438Y-75816928D01*
X168531723Y-75887407D01*
X168678972Y-75923700D01*
X168678973Y-75923700D01*
X168830626Y-75923700D01*
X168830628Y-75923700D01*
X168977877Y-75887407D01*
X169112162Y-75816928D01*
X169147309Y-75785790D01*
X169182758Y-75773557D01*
X169212290Y-75785789D01*
X169247438Y-75816928D01*
X169381723Y-75887407D01*
X169528972Y-75923700D01*
X169528973Y-75923700D01*
X169680626Y-75923700D01*
X169680628Y-75923700D01*
X169827877Y-75887407D01*
X169962162Y-75816928D01*
X169997309Y-75785790D01*
X170032758Y-75773557D01*
X170062290Y-75785789D01*
X170097438Y-75816928D01*
X170231723Y-75887407D01*
X170378972Y-75923700D01*
X170378973Y-75923700D01*
X170530626Y-75923700D01*
X170530628Y-75923700D01*
X170677877Y-75887407D01*
X170812162Y-75816928D01*
X170925678Y-75716362D01*
X171011829Y-75591551D01*
X171065607Y-75449750D01*
X171083887Y-75299200D01*
X171065607Y-75148650D01*
X171011829Y-75006849D01*
X170925678Y-74882038D01*
X170925677Y-74882036D01*
X170850152Y-74815128D01*
X170812162Y-74781472D01*
X170812154Y-74781468D01*
X170812153Y-74781467D01*
X170677876Y-74710992D01*
X170566920Y-74683645D01*
X170530628Y-74674700D01*
X170378972Y-74674700D01*
X170349856Y-74681876D01*
X170231723Y-74710992D01*
X170097438Y-74781471D01*
X170062293Y-74812607D01*
X170026841Y-74824841D01*
X169997307Y-74812607D01*
X169962161Y-74781471D01*
X169827876Y-74710992D01*
X169716920Y-74683645D01*
X169680628Y-74674700D01*
X169528972Y-74674700D01*
X169499856Y-74681876D01*
X169381723Y-74710992D01*
X169247438Y-74781471D01*
X169212293Y-74812607D01*
X169176841Y-74824841D01*
X169147307Y-74812607D01*
X169112161Y-74781471D01*
X168977876Y-74710992D01*
X168866920Y-74683645D01*
X168830628Y-74674700D01*
X168678972Y-74674700D01*
X168649856Y-74681876D01*
X168531723Y-74710992D01*
X168397438Y-74781471D01*
X168362293Y-74812607D01*
X168326841Y-74824841D01*
X168297307Y-74812607D01*
X168262161Y-74781471D01*
X168127876Y-74710992D01*
X168016920Y-74683645D01*
X167980628Y-74674700D01*
X167828972Y-74674700D01*
X167799856Y-74681876D01*
X167681723Y-74710992D01*
X167547438Y-74781471D01*
X167512293Y-74812607D01*
X167476841Y-74824841D01*
X167447307Y-74812607D01*
X167412161Y-74781471D01*
X167277876Y-74710992D01*
X167166920Y-74683645D01*
X167130628Y-74674700D01*
X166978972Y-74674700D01*
X166949856Y-74681876D01*
X166831723Y-74710992D01*
X166697438Y-74781471D01*
X166662293Y-74812607D01*
X166626841Y-74824841D01*
X166597307Y-74812607D01*
X166562161Y-74781471D01*
X166427876Y-74710992D01*
X166316920Y-74683645D01*
X166280628Y-74674700D01*
X166128972Y-74674700D01*
X166099856Y-74681876D01*
X165981723Y-74710992D01*
X165847446Y-74781467D01*
X165847441Y-74781470D01*
X165847438Y-74781472D01*
X165847436Y-74781474D01*
X165733922Y-74882036D01*
X165647771Y-75006847D01*
X165593993Y-75148648D01*
X165575713Y-75299200D01*
X164960300Y-75299200D01*
X164960300Y-75105584D01*
X164923773Y-74921949D01*
X164907240Y-74882036D01*
X164852124Y-74748974D01*
X164852122Y-74748969D01*
X164748102Y-74593292D01*
X164615708Y-74460898D01*
X164460031Y-74356878D01*
X164460027Y-74356876D01*
X164460025Y-74356875D01*
X164287058Y-74285229D01*
X164287048Y-74285226D01*
X164212994Y-74270496D01*
X164103416Y-74248700D01*
X163916184Y-74248700D01*
X163824786Y-74266880D01*
X163732551Y-74285226D01*
X163732541Y-74285229D01*
X163559574Y-74356875D01*
X163559570Y-74356877D01*
X163559569Y-74356878D01*
X163541622Y-74368870D01*
X163403892Y-74460897D01*
X163271497Y-74593292D01*
X163167475Y-74748974D01*
X163095829Y-74921941D01*
X163095826Y-74921951D01*
X163078940Y-75006847D01*
X163059300Y-75105584D01*
X132415300Y-75105584D01*
X132415300Y-72874038D01*
X137399500Y-72874038D01*
X137399500Y-73125961D01*
X137438909Y-73374782D01*
X137438910Y-73374785D01*
X137516759Y-73614380D01*
X137631128Y-73838842D01*
X137779208Y-74042657D01*
X137779212Y-74042662D01*
X137957338Y-74220788D01*
X137957342Y-74220791D01*
X137957344Y-74220793D01*
X138161155Y-74368870D01*
X138385621Y-74483241D01*
X138625215Y-74561090D01*
X138874038Y-74600500D01*
X138874039Y-74600500D01*
X139125961Y-74600500D01*
X139125962Y-74600500D01*
X139374785Y-74561090D01*
X139614379Y-74483241D01*
X139838845Y-74368870D01*
X139868671Y-74347200D01*
X142765155Y-74347200D01*
X142785660Y-74516072D01*
X142802555Y-74560623D01*
X142845981Y-74675129D01*
X142845982Y-74675131D01*
X142942616Y-74815128D01*
X142942617Y-74815129D01*
X143069948Y-74927934D01*
X143220575Y-75006990D01*
X143385744Y-75047700D01*
X143555856Y-75047700D01*
X143721025Y-75006990D01*
X143871652Y-74927934D01*
X143998983Y-74815129D01*
X144095618Y-74675130D01*
X144155940Y-74516072D01*
X144176445Y-74347200D01*
X144155940Y-74178328D01*
X144095618Y-74019270D01*
X143998983Y-73879271D01*
X143871652Y-73766466D01*
X143871644Y-73766462D01*
X143871643Y-73766461D01*
X143721024Y-73687409D01*
X143555856Y-73646700D01*
X143385744Y-73646700D01*
X143220575Y-73687409D01*
X143069956Y-73766461D01*
X143069951Y-73766464D01*
X143069948Y-73766466D01*
X143069946Y-73766468D01*
X142942616Y-73879271D01*
X142845982Y-74019268D01*
X142845981Y-74019270D01*
X142785661Y-74178325D01*
X142785660Y-74178328D01*
X142765155Y-74347200D01*
X139868671Y-74347200D01*
X140042656Y-74220793D01*
X140042659Y-74220789D01*
X140042662Y-74220788D01*
X140220788Y-74042662D01*
X140220789Y-74042659D01*
X140220793Y-74042656D01*
X140368870Y-73838845D01*
X140483241Y-73614379D01*
X140561090Y-73374785D01*
X140600500Y-73125962D01*
X140600500Y-72874038D01*
X155399500Y-72874038D01*
X155399500Y-73125961D01*
X155438909Y-73374782D01*
X155438910Y-73374785D01*
X155516759Y-73614380D01*
X155631128Y-73838842D01*
X155779208Y-74042657D01*
X155779212Y-74042662D01*
X155957338Y-74220788D01*
X155957342Y-74220791D01*
X155957344Y-74220793D01*
X156161155Y-74368870D01*
X156385621Y-74483241D01*
X156625215Y-74561090D01*
X156874038Y-74600500D01*
X156874039Y-74600500D01*
X157125961Y-74600500D01*
X157125962Y-74600500D01*
X157374785Y-74561090D01*
X157614379Y-74483241D01*
X157838845Y-74368870D01*
X158042656Y-74220793D01*
X158042659Y-74220789D01*
X158042662Y-74220788D01*
X158220788Y-74042662D01*
X158220789Y-74042659D01*
X158220793Y-74042656D01*
X158368870Y-73838845D01*
X158483241Y-73614379D01*
X158561090Y-73374785D01*
X158600500Y-73125962D01*
X158600500Y-72874038D01*
X158561090Y-72625215D01*
X158483241Y-72385621D01*
X158368870Y-72161155D01*
X158220793Y-71957344D01*
X158220791Y-71957342D01*
X158220788Y-71957338D01*
X158042662Y-71779212D01*
X158042657Y-71779208D01*
X158019660Y-71762500D01*
X157838845Y-71631130D01*
X157838844Y-71631129D01*
X157838842Y-71631128D01*
X157614380Y-71516759D01*
X157374785Y-71438910D01*
X157374782Y-71438909D01*
X157183642Y-71408635D01*
X157125962Y-71399500D01*
X156874038Y-71399500D01*
X156827212Y-71406916D01*
X156625217Y-71438909D01*
X156625214Y-71438910D01*
X156385619Y-71516759D01*
X156161157Y-71631128D01*
X155957342Y-71779208D01*
X155779208Y-71957342D01*
X155631128Y-72161157D01*
X155516759Y-72385619D01*
X155438910Y-72625214D01*
X155438909Y-72625217D01*
X155399500Y-72874038D01*
X140600500Y-72874038D01*
X140561090Y-72625215D01*
X140483241Y-72385621D01*
X140368870Y-72161155D01*
X140220793Y-71957344D01*
X140220791Y-71957342D01*
X140220788Y-71957338D01*
X140042662Y-71779212D01*
X140042657Y-71779208D01*
X140019660Y-71762500D01*
X139838845Y-71631130D01*
X139838844Y-71631129D01*
X139838842Y-71631128D01*
X139614380Y-71516759D01*
X139374785Y-71438910D01*
X139374782Y-71438909D01*
X139183642Y-71408635D01*
X139125962Y-71399500D01*
X138874038Y-71399500D01*
X138827212Y-71406916D01*
X138625217Y-71438909D01*
X138625214Y-71438910D01*
X138385619Y-71516759D01*
X138161157Y-71631128D01*
X137957342Y-71779208D01*
X137779208Y-71957342D01*
X137631128Y-72161157D01*
X137516759Y-72385619D01*
X137438910Y-72625214D01*
X137438909Y-72625217D01*
X137399500Y-72874038D01*
X132415300Y-72874038D01*
X132415300Y-71305584D01*
X163059300Y-71305584D01*
X163059300Y-72692816D01*
X163083540Y-72814679D01*
X163095826Y-72876448D01*
X163095829Y-72876458D01*
X163167475Y-73049425D01*
X163167476Y-73049427D01*
X163167478Y-73049431D01*
X163271498Y-73205108D01*
X163403892Y-73337502D01*
X163559569Y-73441522D01*
X163559574Y-73441524D01*
X163732541Y-73513170D01*
X163732543Y-73513170D01*
X163732549Y-73513173D01*
X163916184Y-73549700D01*
X163916187Y-73549700D01*
X164103413Y-73549700D01*
X164103416Y-73549700D01*
X164287051Y-73513173D01*
X164460031Y-73441522D01*
X164615708Y-73337502D01*
X164748102Y-73205108D01*
X164852122Y-73049431D01*
X164923773Y-72876451D01*
X164960300Y-72692816D01*
X164960300Y-71305584D01*
X164923773Y-71121949D01*
X164852122Y-70948969D01*
X164748102Y-70793292D01*
X164615708Y-70660898D01*
X164460031Y-70556878D01*
X164460027Y-70556876D01*
X164460025Y-70556875D01*
X164287058Y-70485229D01*
X164287048Y-70485226D01*
X164212994Y-70470496D01*
X164103416Y-70448700D01*
X163916184Y-70448700D01*
X163824786Y-70466880D01*
X163732551Y-70485226D01*
X163732541Y-70485229D01*
X163559574Y-70556875D01*
X163559570Y-70556877D01*
X163559569Y-70556878D01*
X163543030Y-70567929D01*
X163403892Y-70660897D01*
X163271497Y-70793292D01*
X163167475Y-70948974D01*
X163095829Y-71121941D01*
X163095826Y-71121951D01*
X163093691Y-71132685D01*
X163059300Y-71305584D01*
X132415300Y-71305584D01*
X132415300Y-69447900D01*
X132429652Y-69413252D01*
X132464300Y-69398900D01*
X168129685Y-69398900D01*
X168164333Y-69413252D01*
G37*
G04 #@! TD.AperFunction*
M02*
