M48
; DRILL file {KiCad 8.0.7-8.0.7-0~ubuntu22.04.1} date 2025-02-05T23:47:47-0500
; FORMAT={-:-/ absolute / metric / decimal}
; #@! TF.CreationDate,2025-02-05T23:47:47-05:00
; #@! TF.GenerationSoftware,Kicad,Pcbnew,8.0.7-8.0.7-0~ubuntu22.04.1
; #@! TF.FileFunction,Plated,1,4,PTH
FMAT,2
METRIC
; #@! TA.AperFunction,Plated,PTH,ViaDrill
T1C0.200
; #@! TA.AperFunction,Plated,PTH,ViaDrill
T2C0.300
; #@! TA.AperFunction,Plated,PTH,ViaDrill
T3C0.400
; #@! TA.AperFunction,Plated,PTH,ComponentDrill
T4C0.400
; #@! TA.AperFunction,Plated,PTH,ViaDrill
T5C0.500
; #@! TA.AperFunction,Plated,PTH,ComponentDrill
T6C0.700
; #@! TA.AperFunction,Plated,PTH,ComponentDrill
T7C0.800
; #@! TA.AperFunction,Plated,PTH,ComponentDrill
T8C1.000
; #@! TA.AperFunction,Plated,PTH,ComponentDrill
T9C1.200
; #@! TA.AperFunction,Plated,PTH,ComponentDrill
T10C1.300
; #@! TA.AperFunction,Plated,PTH,ComponentDrill
T11C1.500
%
G90
G05
T1
X161.505Y-102.375
X162.587Y-102.369
T2
X135.4Y-127.0
X137.4Y-118.6
X137.8Y-83.6
X140.366Y-88.466
X140.6Y-78.8
X144.5Y-94.3
X146.7Y-83.4
X146.7Y-84.5
X152.5Y-88.4
X153.75Y-89.75
X153.75Y-90.5
X153.75Y-91.25
X154.5Y-89.75
X154.5Y-90.5
X154.5Y-91.25
X156.0Y-91.25
X156.75Y-90.0
X156.75Y-90.75
X156.807Y-113.208
X157.5Y-90.0
X157.5Y-90.75
X157.7Y-98.2
X158.25Y-90.0
X158.25Y-90.75
X159.0Y-88.463
X159.5Y-90.25
X159.75Y-88.463
X159.856Y-102.349
X160.25Y-90.25
X160.5Y-88.463
X161.0Y-90.25
X161.25Y-87.0
X162.5Y-87.0
X162.8Y-80.1
X164.283Y-103.217
X164.376Y-114.226
X167.097Y-107.306
X168.9Y-91.2
X169.7Y-110.3
X171.6Y-80.5
X174.525Y-75.975
X184.965Y-78.435
X188.736Y-80.525
X190.69Y-81.954
X191.393Y-82.721
X192.741Y-82.324
X194.699Y-79.526
X196.368Y-79.037
X198.183Y-122.022
X199.936Y-84.822
X200.7Y-85.5
X201.319Y-82.422
X204.37Y-84.77
T3
X134.0Y-83.513
X134.0Y-118.928
X140.2Y-123.6
X143.471Y-74.347
X144.259Y-126.899
X151.955Y-77.674
X152.768Y-131.699
X154.267Y-83.616
X155.003Y-103.81
X160.447Y-111.564
X161.347Y-116.464
X162.398Y-104.193
X162.877Y-93.244
X167.588Y-85.293
X168.5Y-70.1
X169.939Y-96.317
X176.82Y-124.335
X178.4Y-88.0
X178.6Y-79.223
X180.2Y-76.1
X181.8Y-82.0
X184.01Y-86.577
X184.25Y-84.85
X185.1Y-76.4
X185.331Y-127.635
X186.149Y-84.368
X190.4Y-87.6
X191.482Y-80.631
X191.554Y-86.45
X192.0Y-76.9
X192.752Y-80.646
X195.631Y-85.954
X195.989Y-76.301
X196.236Y-77.286
X196.419Y-78.181
X197.8Y-82.3
X198.996Y-125.275
X199.0Y-87.5
X200.647Y-78.398
X201.473Y-75.667
X202.222Y-76.599
X204.762Y-77.865
X205.159Y-81.116
X205.333Y-85.395
X205.372Y-120.269
T4
X165.355Y-75.299
X165.355Y-76.649
X166.205Y-75.299
X166.205Y-76.649
X167.055Y-75.299
X167.055Y-76.649
X167.905Y-75.299
X167.905Y-76.649
X168.755Y-75.299
X168.755Y-76.649
X169.605Y-75.299
X169.605Y-76.649
X170.455Y-75.299
X170.455Y-76.649
X171.305Y-75.299
X171.305Y-76.649
T5
X153.9Y-108.6
X155.613Y-108.408
X155.75Y-99.75
X155.75Y-101.0
X156.5Y-98.5
X157.25Y-99.75
X157.25Y-101.0
X159.209Y-101.26
X160.414Y-100.483
X163.5Y-99.877
X163.75Y-97.5
X163.75Y-98.75
X164.5Y-100.75
X164.75Y-97.0
X164.75Y-98.25
X164.75Y-99.5
X165.75Y-97.5
X165.75Y-98.75
X171.0Y-71.763
T7
X156.2Y-121.145
X156.2Y-123.145
X171.8Y-117.255
X171.8Y-119.255
X181.267Y-86.391
X181.267Y-88.931
T8
X144.16Y-83.662
X144.16Y-86.202
X149.054Y-83.687
X149.054Y-86.227
X149.6Y-118.175
X149.6Y-120.715
X149.6Y-123.255
X165.75Y-132.75
X170.25Y-132.75
X180.861Y-116.155
X180.861Y-118.695
X180.861Y-121.235
X194.92Y-133.2
X197.46Y-133.2
X200.0Y-133.2
T9
X136.188Y-90.912
X136.188Y-113.912
X138.727Y-90.912
X147.647Y-90.912
X150.188Y-90.912
X150.188Y-113.912
T10
X164.5Y-130.25
X171.5Y-130.25
T11
X154.927Y-80.468
X158.153Y-95.149
X160.9Y-119.7
X174.2Y-86.2
X202.857Y-129.236
T6
X164.01Y-72.449G85X164.01Y-71.549
G05
X164.01Y-76.799G85X164.01Y-75.499
G05
X172.65Y-72.449G85X172.65Y-71.549
G05
X172.65Y-76.799G85X172.65Y-75.499
G05
M30
