%TF.GenerationSoftware,KiCad,Pcbnew,9.0.0*%
%TF.CreationDate,2025-03-29T02:07:02-04:00*%
%TF.ProjectId,SHERPENT20250113,53484552-5045-44e5-9432-303235303131,rev?*%
%TF.SameCoordinates,Original*%
%TF.FileFunction,Copper,L4,Bot*%
%TF.FilePolarity,Positive*%
%FSLAX46Y46*%
G04 Gerber Fmt 4.6, Leading zero omitted, Abs format (unit mm)*
G04 Created by KiCad (PCBNEW 9.0.0) date 2025-03-29 02:07:02*
%MOMM*%
%LPD*%
G01*
G04 APERTURE LIST*
G04 Aperture macros list*
%AMRoundRect*
0 Rectangle with rounded corners*
0 $1 Rounding radius*
0 $2 $3 $4 $5 $6 $7 $8 $9 X,Y pos of 4 corners*
0 Add a 4 corners polygon primitive as box body*
4,1,4,$2,$3,$4,$5,$6,$7,$8,$9,$2,$3,0*
0 Add four circle primitives for the rounded corners*
1,1,$1+$1,$2,$3*
1,1,$1+$1,$4,$5*
1,1,$1+$1,$6,$7*
1,1,$1+$1,$8,$9*
0 Add four rect primitives between the rounded corners*
20,1,$1+$1,$2,$3,$4,$5,0*
20,1,$1+$1,$4,$5,$6,$7,0*
20,1,$1+$1,$6,$7,$8,$9,0*
20,1,$1+$1,$8,$9,$2,$3,0*%
%AMFreePoly0*
4,1,6,1.000000,0.000000,0.500000,-0.750000,-0.500000,-0.750000,-0.500000,0.750000,0.500000,0.750000,1.000000,0.000000,1.000000,0.000000,$1*%
%AMFreePoly1*
4,1,6,0.500000,-0.750000,-0.650000,-0.750000,-0.150000,0.000000,-0.650000,0.750000,0.500000,0.750000,0.500000,-0.750000,0.500000,-0.750000,$1*%
G04 Aperture macros list end*
%TA.AperFunction,ComponentPad*%
%ADD10C,3.000000*%
%TD*%
%TA.AperFunction,SMDPad,CuDef*%
%ADD11RoundRect,0.250000X-1.000000X-0.650000X1.000000X-0.650000X1.000000X0.650000X-1.000000X0.650000X0*%
%TD*%
%TA.AperFunction,SMDPad,CuDef*%
%ADD12RoundRect,0.250000X1.000000X0.650000X-1.000000X0.650000X-1.000000X-0.650000X1.000000X-0.650000X0*%
%TD*%
%TA.AperFunction,ComponentPad*%
%ADD13R,1.700000X1.700000*%
%TD*%
%TA.AperFunction,ComponentPad*%
%ADD14O,1.700000X1.700000*%
%TD*%
%TA.AperFunction,ComponentPad*%
%ADD15R,1.600000X1.600000*%
%TD*%
%TA.AperFunction,ComponentPad*%
%ADD16C,1.600000*%
%TD*%
%TA.AperFunction,ComponentPad*%
%ADD17C,0.648000*%
%TD*%
%TA.AperFunction,ComponentPad*%
%ADD18O,1.300000X2.500000*%
%TD*%
%TA.AperFunction,ComponentPad*%
%ADD19O,1.300000X3.200000*%
%TD*%
%TA.AperFunction,ComponentPad*%
%ADD20R,2.000000X2.000000*%
%TD*%
%TA.AperFunction,ComponentPad*%
%ADD21C,1.700000*%
%TD*%
%TA.AperFunction,ComponentPad*%
%ADD22C,2.000000*%
%TD*%
%TA.AperFunction,SMDPad,CuDef*%
%ADD23FreePoly0,180.000000*%
%TD*%
%TA.AperFunction,SMDPad,CuDef*%
%ADD24FreePoly1,180.000000*%
%TD*%
%TA.AperFunction,SMDPad,CuDef*%
%ADD25RoundRect,0.090000X-0.660000X-0.360000X0.660000X-0.360000X0.660000X0.360000X-0.660000X0.360000X0*%
%TD*%
%TA.AperFunction,SMDPad,CuDef*%
%ADD26RoundRect,0.375000X-0.375000X0.625000X-0.375000X-0.625000X0.375000X-0.625000X0.375000X0.625000X0*%
%TD*%
%TA.AperFunction,SMDPad,CuDef*%
%ADD27RoundRect,0.500000X-1.400000X0.500000X-1.400000X-0.500000X1.400000X-0.500000X1.400000X0.500000X0*%
%TD*%
%TA.AperFunction,SMDPad,CuDef*%
%ADD28RoundRect,0.090000X0.660000X0.360000X-0.660000X0.360000X-0.660000X-0.360000X0.660000X-0.360000X0*%
%TD*%
%TA.AperFunction,SMDPad,CuDef*%
%ADD29R,1.500000X0.900000*%
%TD*%
%TA.AperFunction,HeatsinkPad*%
%ADD30C,0.600000*%
%TD*%
%TA.AperFunction,HeatsinkPad*%
%ADD31R,2.900000X2.900000*%
%TD*%
%TA.AperFunction,SMDPad,CuDef*%
%ADD32FreePoly0,0.000000*%
%TD*%
%TA.AperFunction,SMDPad,CuDef*%
%ADD33FreePoly1,0.000000*%
%TD*%
%TA.AperFunction,ViaPad*%
%ADD34C,0.450000*%
%TD*%
%TA.AperFunction,ViaPad*%
%ADD35C,1.000000*%
%TD*%
%TA.AperFunction,Conductor*%
%ADD36C,0.280000*%
%TD*%
%TA.AperFunction,Conductor*%
%ADD37C,0.150000*%
%TD*%
%TA.AperFunction,Conductor*%
%ADD38C,1.500000*%
%TD*%
%TA.AperFunction,Conductor*%
%ADD39C,1.000000*%
%TD*%
%TA.AperFunction,Conductor*%
%ADD40C,0.450000*%
%TD*%
%TA.AperFunction,Conductor*%
%ADD41C,0.300000*%
%TD*%
G04 APERTURE END LIST*
D10*
X141900000Y-77700000D03*
X154009327Y-91736442D03*
D11*
X143100000Y-88000000D03*
X147100000Y-88000000D03*
D12*
X155200000Y-77800000D03*
X151200000Y-77800000D03*
D10*
X195500000Y-118000000D03*
D13*
X194920000Y-133200000D03*
D14*
X197460000Y-133200000D03*
X200000000Y-133200000D03*
D10*
X156700000Y-95200000D03*
X191250000Y-118000000D03*
X170800000Y-86700000D03*
D15*
X180400000Y-120255113D03*
D16*
X180400000Y-118255113D03*
D10*
X174800000Y-85900000D03*
D13*
X178900000Y-85025000D03*
D14*
X178900000Y-87565000D03*
D10*
X204000000Y-118000000D03*
D13*
X154000000Y-124540000D03*
D14*
X154000000Y-122000000D03*
X154000000Y-119460000D03*
D13*
X159600000Y-82925000D03*
D14*
X159600000Y-85465000D03*
D10*
X199750000Y-118010255D03*
D17*
X171304800Y-76649200D03*
X170454800Y-76649200D03*
X169604800Y-76649200D03*
X168754800Y-76649200D03*
X167904800Y-76649200D03*
X167054800Y-76649200D03*
X166204800Y-76649200D03*
X165354800Y-76649200D03*
X165354800Y-75299200D03*
X166204800Y-75299200D03*
X167054800Y-75299200D03*
X167904800Y-75299200D03*
X168754800Y-75299200D03*
X169604800Y-75299200D03*
X170454800Y-75299200D03*
X171304800Y-75299200D03*
D18*
X172649800Y-71999200D03*
X164009800Y-71999200D03*
D19*
X172649800Y-76149200D03*
X164009800Y-76149200D03*
D15*
X148200000Y-121655113D03*
D16*
X148200000Y-119655113D03*
D13*
X185860600Y-121979487D03*
D14*
X185860600Y-119439487D03*
X185860600Y-116899487D03*
D13*
X145800000Y-82725000D03*
D14*
X145800000Y-85265000D03*
D20*
X136187500Y-113912500D03*
X150187500Y-113912500D03*
X136187500Y-90912500D03*
X150187500Y-90912500D03*
X138727500Y-90912500D03*
X147647500Y-90912500D03*
D10*
X176200000Y-73800000D03*
D21*
X165750000Y-132750000D03*
X170250000Y-132750000D03*
D22*
X164500000Y-130250000D03*
X171500000Y-130250000D03*
D23*
X180725000Y-78700000D03*
D24*
X179275000Y-78700000D03*
D25*
X177550000Y-80350000D03*
X177550000Y-77050000D03*
X182450000Y-77050000D03*
X182450000Y-80350000D03*
D26*
X150200000Y-81050000D03*
X152500000Y-81050000D03*
X154800000Y-81050000D03*
D27*
X152500000Y-87350000D03*
D23*
X138750000Y-81800000D03*
D24*
X137300000Y-81800000D03*
D28*
X205242400Y-121975000D03*
X205242400Y-125275000D03*
X200342400Y-125275000D03*
X200342400Y-121975000D03*
X140340000Y-122265000D03*
X140340000Y-125565000D03*
X135440000Y-125565000D03*
X135440000Y-122265000D03*
D29*
X205250000Y-76250000D03*
X205250000Y-77750000D03*
X205250000Y-79250000D03*
X205250000Y-80750000D03*
X205250000Y-82250000D03*
X205250000Y-83750000D03*
X205250000Y-85250000D03*
X205250000Y-86750000D03*
X205250000Y-88250000D03*
X187750000Y-88250000D03*
X187750000Y-86750000D03*
X187750000Y-85250000D03*
X187750000Y-83750000D03*
X187750000Y-82250000D03*
X187750000Y-80750000D03*
X187750000Y-79250000D03*
X187750000Y-77750000D03*
X187750000Y-76250000D03*
D30*
X196640000Y-83000000D03*
X196640000Y-81900000D03*
X196090000Y-83550000D03*
X196090000Y-82450000D03*
X196090000Y-81350000D03*
X195540000Y-83000000D03*
D31*
X195540000Y-82450000D03*
D30*
X195540000Y-81900000D03*
X194990000Y-83550000D03*
X194990000Y-82450000D03*
X194990000Y-81350000D03*
X194440000Y-83000000D03*
X194440000Y-81900000D03*
D32*
X137200000Y-124000000D03*
D33*
X138650000Y-124000000D03*
D25*
X135600000Y-83500000D03*
X135600000Y-80200000D03*
X140500000Y-80200000D03*
X140500000Y-83500000D03*
D32*
X202067400Y-123625000D03*
D33*
X203517400Y-123625000D03*
D34*
X162300000Y-81000000D03*
X157000000Y-77750000D03*
X158900000Y-88700000D03*
X172700000Y-117300000D03*
X172700000Y-120100000D03*
X163600000Y-121600000D03*
D35*
X155100000Y-83600000D03*
X151200000Y-84500000D03*
X151200000Y-83600000D03*
D34*
X164700000Y-101000000D03*
X170200000Y-123600000D03*
X199000000Y-83000000D03*
X182800000Y-78100000D03*
X168762500Y-122062500D03*
X164000000Y-97000000D03*
X198600000Y-125300000D03*
X169400000Y-108300000D03*
X142000000Y-80250000D03*
X164000000Y-94000000D03*
X151000000Y-75700000D03*
X200000000Y-89000000D03*
D35*
X168800000Y-83100000D03*
D34*
X164000000Y-98000000D03*
X164700000Y-97000000D03*
X140400000Y-86000000D03*
X164700000Y-95000000D03*
X164000000Y-99000000D03*
X161100000Y-89300000D03*
X161000000Y-88700000D03*
X164700000Y-98000000D03*
X164000000Y-95000000D03*
X164000000Y-100000000D03*
X135500000Y-117750000D03*
X171300000Y-74100000D03*
X164700000Y-94000000D03*
X164000000Y-96000000D03*
X164700000Y-100000000D03*
X135250000Y-124250000D03*
X164000000Y-101000000D03*
X165300000Y-74200000D03*
X164700000Y-99000000D03*
X164700000Y-96000000D03*
D35*
X205250000Y-89750000D03*
D34*
X170000000Y-79600000D03*
D35*
X154100000Y-103900000D03*
X199700000Y-79550000D03*
D34*
X176750000Y-127500000D03*
X144000000Y-128250000D03*
X170100000Y-120200000D03*
X157200000Y-123800000D03*
X160200000Y-100000000D03*
X159500000Y-100000000D03*
X160200000Y-101000000D03*
X159500000Y-101000000D03*
X160200000Y-97000000D03*
X160200000Y-95000000D03*
X159500000Y-98000000D03*
X159500000Y-96000000D03*
X159500000Y-99000000D03*
X159500000Y-97000000D03*
X159500000Y-95000000D03*
X160200000Y-94000000D03*
X159500000Y-94000000D03*
X166250000Y-101000000D03*
X160200000Y-99000000D03*
X160200000Y-98000000D03*
X160200000Y-96000000D03*
D35*
X165200000Y-89200000D03*
D34*
X191750000Y-76250000D03*
X135500000Y-82500000D03*
X182250000Y-132250000D03*
X150500000Y-130500000D03*
D35*
X202312498Y-78800000D03*
X165200000Y-88000000D03*
X165200000Y-86800000D03*
D34*
X143750000Y-73500000D03*
X141500000Y-123250000D03*
X198500000Y-86000000D03*
X203750000Y-122000000D03*
X179000000Y-81100000D03*
X174500000Y-116250000D03*
X161550000Y-90050000D03*
D35*
X159650000Y-87650000D03*
D34*
X172500000Y-79950000D03*
X172500000Y-80650000D03*
X158503554Y-124396446D03*
X203900000Y-77800000D03*
D35*
X203100000Y-86900000D03*
D34*
X155500000Y-98300000D03*
X162718762Y-102374760D03*
X162014233Y-102413291D03*
X161381070Y-102362140D03*
D35*
X203500000Y-85300000D03*
D34*
X186300000Y-79500000D03*
X185725000Y-77300000D03*
X195500000Y-76200000D03*
X186400000Y-80800000D03*
X182400000Y-84800000D03*
X180000000Y-88800000D03*
X186400000Y-87500000D03*
X180700000Y-75800000D03*
X137800000Y-122600000D03*
X163900000Y-81400000D03*
X155250000Y-75900000D03*
X167600000Y-81200000D03*
X137500000Y-83700000D03*
X184250000Y-126750000D03*
X162894307Y-104547153D03*
X169262500Y-104600000D03*
X190625000Y-85000000D03*
D36*
X157000000Y-77750000D02*
X155250000Y-77750000D01*
X155250000Y-77750000D02*
X155200000Y-77800000D01*
D37*
X172700000Y-120100000D02*
X172700000Y-117300000D01*
X205250000Y-80750000D02*
X204848000Y-80750000D01*
X204848000Y-80750000D02*
X195598000Y-90000000D01*
X195598000Y-90000000D02*
X171300000Y-90000000D01*
X171300000Y-90000000D02*
X165600000Y-95700000D01*
X165600000Y-119000000D02*
X163600000Y-121000000D01*
X165600000Y-95700000D02*
X165600000Y-119000000D01*
X163600000Y-121000000D02*
X163600000Y-121600000D01*
X159407108Y-125300000D02*
X158503554Y-124396446D01*
D36*
X167000000Y-118500000D02*
X170000000Y-118500000D01*
D37*
X162814588Y-125300000D02*
X159407108Y-125300000D01*
X165577000Y-122537588D02*
X162814588Y-125300000D01*
X167000000Y-118500000D02*
X165577000Y-119923000D01*
X165577000Y-119923000D02*
X165577000Y-122537588D01*
X204050000Y-82250000D02*
X205250000Y-82250000D01*
X195900000Y-90400000D02*
X204050000Y-82250000D01*
X171608520Y-90400000D02*
X195900000Y-90400000D01*
D36*
X187250000Y-124250000D02*
X191000000Y-120500000D01*
D37*
X167000000Y-118500000D02*
X167000000Y-95008520D01*
D36*
X201500000Y-120500000D02*
X204000000Y-118000000D01*
D37*
X167000000Y-95008520D02*
X171608520Y-90400000D01*
D36*
X170000000Y-118500000D02*
X175750000Y-124250000D01*
X175750000Y-124250000D02*
X187250000Y-124250000D01*
X191000000Y-120500000D02*
X201500000Y-120500000D01*
D37*
X158992479Y-125801000D02*
X164315479Y-125801000D01*
X157200000Y-123800000D02*
X158500000Y-125100000D01*
X158500000Y-125100000D02*
X158500000Y-125308521D01*
X164315479Y-125801000D02*
X169916479Y-120200000D01*
X158500000Y-125308521D02*
X158992479Y-125801000D01*
X169916479Y-120200000D02*
X170100000Y-120200000D01*
D38*
X136187500Y-90912500D02*
X138727500Y-90912500D01*
D39*
X152500000Y-81050000D02*
X152500000Y-83500000D01*
X155100000Y-83600000D02*
X152600000Y-83600000D01*
X152600000Y-83600000D02*
X152500000Y-83500000D01*
X154800000Y-81050000D02*
X157000000Y-83250000D01*
X157000000Y-83250000D02*
X157000000Y-88745769D01*
X157000000Y-88745769D02*
X154009327Y-91736442D01*
D40*
X159650000Y-87650000D02*
X159650000Y-89050000D01*
X159650000Y-89050000D02*
X141300000Y-107400000D01*
X141300000Y-107400000D02*
X139900000Y-107400000D01*
D39*
X154009327Y-91736442D02*
X152509327Y-93236442D01*
X152509327Y-93236442D02*
X141051442Y-93236442D01*
X141051442Y-93236442D02*
X138727500Y-90912500D01*
X143100000Y-87700000D02*
X141940000Y-87700000D01*
X141940000Y-87700000D02*
X138727500Y-90912500D01*
X147100000Y-87700000D02*
X148000000Y-87700000D01*
X148000000Y-87700000D02*
X151200000Y-84500000D01*
X155200000Y-77800000D02*
X155200000Y-80650000D01*
X155200000Y-80650000D02*
X154800000Y-81050000D01*
X151200000Y-77800000D02*
X152500000Y-79100000D01*
X152500000Y-79100000D02*
X152500000Y-81050000D01*
X152500000Y-83500000D02*
X152500000Y-87350000D01*
D40*
X141900000Y-77700000D02*
X143400000Y-79200000D01*
X143400000Y-79200000D02*
X143400000Y-82865000D01*
X143400000Y-82865000D02*
X145800000Y-85265000D01*
D37*
X187750000Y-88250000D02*
X187600000Y-88400000D01*
X156900000Y-98300000D02*
X155500000Y-98300000D01*
X187600000Y-88400000D02*
X187300000Y-88400000D01*
X159300000Y-90800000D02*
X158700000Y-91400000D01*
X187300000Y-88400000D02*
X186051000Y-89649000D01*
X186051000Y-89649000D02*
X171151000Y-89649000D01*
X171151000Y-89649000D02*
X170000000Y-90800000D01*
X170000000Y-90800000D02*
X159300000Y-90800000D01*
X158700000Y-91400000D02*
X158700000Y-96500000D01*
X158700000Y-96500000D02*
X156900000Y-98300000D01*
X200342400Y-125275000D02*
X198625000Y-125275000D01*
D36*
X182450000Y-77750000D02*
X182800000Y-78100000D01*
X135440000Y-125565000D02*
X135440000Y-124440000D01*
X141950000Y-80200000D02*
X142000000Y-80250000D01*
X135440000Y-124440000D02*
X135250000Y-124250000D01*
X182450000Y-77050000D02*
X182450000Y-77750000D01*
X140500000Y-80200000D02*
X141950000Y-80200000D01*
D37*
X198625000Y-125275000D02*
X198600000Y-125300000D01*
D40*
X205250000Y-88250000D02*
X205250000Y-89750000D01*
D36*
X179000000Y-81100000D02*
X178300000Y-81100000D01*
X135500000Y-83400000D02*
X135600000Y-83500000D01*
D39*
X202312498Y-77650002D02*
X203762500Y-76200000D01*
X205200000Y-76200000D02*
X205250000Y-76250000D01*
D40*
X205217400Y-122000000D02*
X205242400Y-121975000D01*
D36*
X135500000Y-82500000D02*
X135500000Y-83400000D01*
D39*
X202312498Y-78800000D02*
X202312498Y-77650002D01*
X203762500Y-76200000D02*
X205200000Y-76200000D01*
D36*
X178300000Y-81100000D02*
X177550000Y-80350000D01*
D40*
X203750000Y-122000000D02*
X205217400Y-122000000D01*
X166204800Y-81095200D02*
X159650000Y-87650000D01*
X140100000Y-107200000D02*
X136187500Y-111112500D01*
X136187500Y-111112500D02*
X136187500Y-113912500D01*
X166204800Y-76649200D02*
X166204800Y-81095200D01*
D36*
X181115412Y-82350412D02*
X180900000Y-82350412D01*
X167904800Y-75708747D02*
X168754800Y-76558747D01*
X180515412Y-82735000D02*
X180300000Y-82735000D01*
X187750000Y-82250000D02*
X186624999Y-82250000D01*
X177709768Y-82735000D02*
X175047461Y-80072693D01*
X186624999Y-82250000D02*
X186139999Y-82735000D01*
X186139999Y-82735000D02*
X181500000Y-82735000D01*
X175009768Y-80035000D02*
X172585000Y-80035000D01*
X167904800Y-75299200D02*
X167904800Y-75708747D01*
X180300000Y-82735000D02*
X177709768Y-82735000D01*
X168754800Y-76558747D02*
X168754800Y-76649200D01*
X172585000Y-80035000D02*
X172500000Y-79950000D01*
X175047461Y-80072693D02*
X175009768Y-80035000D01*
X181307706Y-82542706D02*
G75*
G03*
X181115412Y-82350394I-192306J6D01*
G01*
X181500000Y-82735000D02*
G75*
G02*
X181307700Y-82542706I0J192300D01*
G01*
X180900000Y-82350412D02*
G75*
G03*
X180707712Y-82542706I0J-192288D01*
G01*
X180707706Y-82542706D02*
G75*
G02*
X180515412Y-82735006I-192306J6D01*
G01*
X177490232Y-83265000D02*
X186139999Y-83265000D01*
X174790232Y-80565000D02*
X177490232Y-83265000D01*
X186624999Y-83750000D02*
X187750000Y-83750000D01*
X172500000Y-80650000D02*
X172585000Y-80565000D01*
X186139999Y-83265000D02*
X186624999Y-83750000D01*
X172585000Y-80565000D02*
X174790232Y-80565000D01*
D37*
X203950000Y-77750000D02*
X203900000Y-77800000D01*
X205250000Y-77750000D02*
X203950000Y-77750000D01*
X171900000Y-91000000D02*
X170800000Y-92100000D01*
X203846504Y-83750000D02*
X196596504Y-91000000D01*
X179008434Y-121979487D02*
X185860600Y-121979487D01*
X170800000Y-113771053D02*
X179008434Y-121979487D01*
X205250000Y-83750000D02*
X203846504Y-83750000D01*
X196596504Y-91000000D02*
X171900000Y-91000000D01*
X170800000Y-92100000D02*
X170800000Y-113771053D01*
D41*
X203100000Y-86900000D02*
X203250000Y-86750000D01*
X203250000Y-86750000D02*
X205250000Y-86750000D01*
D37*
X155500000Y-98300000D02*
X155500000Y-98400000D01*
X203500000Y-85300000D02*
X203550000Y-85250000D01*
D41*
X203550000Y-85250000D02*
X205250000Y-85250000D01*
X186550000Y-79250000D02*
X186300000Y-79500000D01*
X187750000Y-79250000D02*
X186550000Y-79250000D01*
X185725000Y-77300000D02*
X186300000Y-77300000D01*
X186300000Y-77300000D02*
X186750000Y-77750000D01*
X186750000Y-77750000D02*
X187750000Y-77750000D01*
D36*
X188600000Y-76816000D02*
X188034000Y-76250000D01*
X188034000Y-76250000D02*
X187750000Y-76250000D01*
X194884000Y-76816000D02*
X188600000Y-76816000D01*
X195500000Y-76200000D02*
X194884000Y-76816000D01*
D37*
X181600000Y-85600000D02*
X182400000Y-84800000D01*
X180000000Y-88800000D02*
X181600000Y-87200000D01*
D41*
X186400000Y-80800000D02*
X187700000Y-80800000D01*
D37*
X181600000Y-87200000D02*
X181600000Y-85600000D01*
D41*
X187700000Y-80800000D02*
X187750000Y-80750000D01*
D36*
X186400000Y-86300000D02*
X187450000Y-85250000D01*
X186400000Y-87500000D02*
X186400000Y-86300000D01*
X187450000Y-85250000D02*
X187750000Y-85250000D01*
X180700000Y-75800000D02*
X180700000Y-78675000D01*
X180725000Y-79025000D02*
X182050000Y-80350000D01*
X182050000Y-80350000D02*
X182450000Y-80350000D01*
X180725000Y-78700000D02*
X180725000Y-79025000D01*
X180700000Y-78675000D02*
X180725000Y-78700000D01*
X139965000Y-125565000D02*
X140340000Y-125565000D01*
X138650000Y-124000000D02*
X138650000Y-124250000D01*
X138650000Y-123450000D02*
X138650000Y-124000000D01*
X137800000Y-122600000D02*
X138650000Y-123450000D01*
X138650000Y-124250000D02*
X139965000Y-125565000D01*
X179275000Y-78700000D02*
X179275000Y-78475000D01*
X177850000Y-77050000D02*
X177550000Y-77050000D01*
X174650000Y-77050000D02*
X177550000Y-77050000D01*
X160600000Y-75900000D02*
X163900000Y-79200000D01*
X172600000Y-78900000D02*
X172800000Y-78900000D01*
X172800000Y-78900000D02*
X174650000Y-77050000D01*
X155250000Y-75900000D02*
X160600000Y-75900000D01*
X167600000Y-81200000D02*
X170300000Y-81200000D01*
X170300000Y-81200000D02*
X172600000Y-78900000D01*
X179275000Y-78475000D02*
X177850000Y-77050000D01*
X163900000Y-79200000D02*
X163900000Y-81400000D01*
X138750000Y-82050000D02*
X140200000Y-83500000D01*
X138750000Y-81800000D02*
X138750000Y-82050000D01*
X139500000Y-84100000D02*
X137900000Y-84100000D01*
X140500000Y-83500000D02*
X140100000Y-83500000D01*
X137900000Y-84100000D02*
X137500000Y-83700000D01*
X140100000Y-83500000D02*
X139500000Y-84100000D01*
X140200000Y-83500000D02*
X140500000Y-83500000D01*
X133900000Y-81900000D02*
X135600000Y-80200000D01*
X137300000Y-81600000D02*
X137300000Y-81800000D01*
X137200000Y-123762500D02*
X135702500Y-122265000D01*
X135900000Y-80200000D02*
X137300000Y-81600000D01*
X135702500Y-122265000D02*
X135440000Y-122265000D01*
X133900000Y-120725000D02*
X133900000Y-81900000D01*
X135600000Y-80200000D02*
X135900000Y-80200000D01*
X137200000Y-124000000D02*
X137200000Y-123762500D01*
X135440000Y-122265000D02*
X133900000Y-120725000D01*
X205300000Y-125300000D02*
X205275000Y-125275000D01*
X204900000Y-125300000D02*
X205300000Y-125300000D01*
X205275000Y-125275000D02*
X205242400Y-125275000D01*
X203517400Y-123917400D02*
X204900000Y-125300000D01*
X203525000Y-125275000D02*
X197460000Y-131340000D01*
X205242400Y-125275000D02*
X203525000Y-125275000D01*
X203517400Y-123625000D02*
X203517400Y-123917400D01*
X197460000Y-131340000D02*
X197460000Y-133200000D01*
X202067400Y-123625000D02*
X202067400Y-123367400D01*
X184250000Y-126750000D02*
X186850000Y-126750000D01*
X186850000Y-126750000D02*
X191625000Y-121975000D01*
X191625000Y-121975000D02*
X200342400Y-121975000D01*
X200367400Y-122000000D02*
X200342400Y-121975000D01*
X202067400Y-123367400D02*
X200700000Y-122000000D01*
X200700000Y-122000000D02*
X200367400Y-122000000D01*
D38*
X147002081Y-85265000D02*
X150200000Y-82067081D01*
X145800000Y-85265000D02*
X147002081Y-85265000D01*
X150200000Y-82067081D02*
X150200000Y-81050000D01*
D37*
X190625000Y-85000000D02*
X199200000Y-85000000D01*
X199200000Y-85000000D02*
X204950000Y-79250000D01*
X205250000Y-79250000D02*
X204848000Y-79250000D01*
X204950000Y-79250000D02*
X205250000Y-79250000D01*
%TA.AperFunction,Conductor*%
G36*
X163218648Y-101995752D02*
G01*
X163233000Y-102030400D01*
X163233000Y-102506589D01*
X163230323Y-102522563D01*
X162990388Y-103218374D01*
X162965525Y-103246451D01*
X162944065Y-103251400D01*
X161134335Y-103251400D01*
X161099687Y-103237048D01*
X161088012Y-103218374D01*
X160848077Y-102522563D01*
X160845400Y-102506589D01*
X160845400Y-102030400D01*
X160859752Y-101995752D01*
X160894400Y-101981400D01*
X163184000Y-101981400D01*
X163218648Y-101995752D01*
G37*
%TD.AperFunction*%
M02*
