%TF.GenerationSoftware,KiCad,Pcbnew,9.0.0*%
%TF.CreationDate,2025-03-29T01:56:17-04:00*%
%TF.ProjectId,SHERPENT20250113,53484552-5045-44e5-9432-303235303131,rev?*%
%TF.SameCoordinates,Original*%
%TF.FileFunction,Plated,1,4,PTH,Mixed*%
%TF.FilePolarity,Positive*%
%FSLAX46Y46*%
G04 Gerber Fmt 4.6, Leading zero omitted, Abs format (unit mm)*
G04 Created by KiCad (PCBNEW 9.0.0) date 2025-03-29 01:56:17*
%MOMM*%
%LPD*%
G01*
G04 APERTURE LIST*
%TA.AperFunction,ViaDrill*%
%ADD10C,0.200000*%
%TD*%
%TA.AperFunction,ComponentDrill*%
%ADD11C,0.200000*%
%TD*%
%TA.AperFunction,ViaDrill*%
%ADD12C,0.300000*%
%TD*%
%TA.AperFunction,ComponentDrill*%
%ADD13C,0.400000*%
%TD*%
%TA.AperFunction,ViaDrill*%
%ADD14C,0.500000*%
%TD*%
G04 aperture for slot hole*
%TA.AperFunction,ComponentDrill*%
%ADD15C,0.700000*%
%TD*%
%TA.AperFunction,ComponentDrill*%
%ADD16C,0.800000*%
%TD*%
%TA.AperFunction,ComponentDrill*%
%ADD17C,1.000000*%
%TD*%
%TA.AperFunction,ComponentDrill*%
%ADD18C,1.200000*%
%TD*%
%TA.AperFunction,ComponentDrill*%
%ADD19C,1.300000*%
%TD*%
%TA.AperFunction,ComponentDrill*%
%ADD20C,1.500000*%
%TD*%
G04 APERTURE END LIST*
D10*
X135250000Y-124250000D03*
X135500000Y-82500000D03*
X135500000Y-117750000D03*
X137500000Y-83700000D03*
X137800000Y-122600000D03*
X140400000Y-86000000D03*
X141500000Y-123250000D03*
X142000000Y-80250000D03*
X143750000Y-73500000D03*
X144000000Y-128250000D03*
X150500000Y-130500000D03*
X151000000Y-75700000D03*
X155250000Y-75900000D03*
X155500000Y-98300000D03*
X157200000Y-123800000D03*
X158503554Y-124396446D03*
X161000000Y-88700000D03*
X161100000Y-89300000D03*
X161381070Y-102362140D03*
X161550000Y-90050000D03*
X162014233Y-102413291D03*
X162718762Y-102374760D03*
X163900000Y-81400000D03*
X165300000Y-74200000D03*
X166250000Y-101000000D03*
X167600000Y-81200000D03*
X169400000Y-108300000D03*
X170000000Y-79600000D03*
X171300000Y-74100000D03*
X172500000Y-79950000D03*
X172500000Y-80650000D03*
X174500000Y-116250000D03*
X176750000Y-127500000D03*
X179000000Y-81100000D03*
X180000000Y-88800000D03*
X180700000Y-75800000D03*
X182250000Y-132250000D03*
X182400000Y-84800000D03*
X182800000Y-78100000D03*
X184250000Y-126750000D03*
X185725000Y-77300000D03*
X186300000Y-79500000D03*
X186400000Y-80800000D03*
X186400000Y-87500000D03*
X190625000Y-85000000D03*
X191750000Y-76250000D03*
X195500000Y-76200000D03*
X198500000Y-86000000D03*
X198600000Y-125300000D03*
X199000000Y-83000000D03*
X200000000Y-89000000D03*
X203750000Y-122000000D03*
X203900000Y-77800000D03*
D11*
%TO.C,U8*%
X194440000Y-81900000D03*
X194440000Y-83000000D03*
X194990000Y-81350000D03*
X194990000Y-82450000D03*
X194990000Y-83550000D03*
X195540000Y-81900000D03*
X195540000Y-83000000D03*
X196090000Y-81350000D03*
X196090000Y-82450000D03*
X196090000Y-83550000D03*
X196640000Y-81900000D03*
X196640000Y-83000000D03*
%TD*%
D12*
X157000000Y-77750000D03*
X158900000Y-88700000D03*
X159500000Y-94000000D03*
X159500000Y-95000000D03*
X159500000Y-96000000D03*
X159500000Y-97000000D03*
X159500000Y-98000000D03*
X159500000Y-99000000D03*
X159500000Y-100000000D03*
X159500000Y-101000000D03*
X160200000Y-94000000D03*
X160200000Y-95000000D03*
X160200000Y-96000000D03*
X160200000Y-97000000D03*
X160200000Y-98000000D03*
X160200000Y-99000000D03*
X160200000Y-100000000D03*
X160200000Y-101000000D03*
X162300000Y-81000000D03*
X162894307Y-104547153D03*
X163600000Y-121600000D03*
X164000000Y-94000000D03*
X164000000Y-95000000D03*
X164000000Y-96000000D03*
X164000000Y-97000000D03*
X164000000Y-98000000D03*
X164000000Y-99000000D03*
X164000000Y-100000000D03*
X164000000Y-101000000D03*
X164700000Y-94000000D03*
X164700000Y-95000000D03*
X164700000Y-96000000D03*
X164700000Y-97000000D03*
X164700000Y-98000000D03*
X164700000Y-99000000D03*
X164700000Y-100000000D03*
X164700000Y-101000000D03*
X168762500Y-122062500D03*
X169262500Y-104600000D03*
X170100000Y-120200000D03*
X170200000Y-123600000D03*
X172700000Y-117300000D03*
X172700000Y-120100000D03*
D13*
%TO.C,J1*%
X165354800Y-75299200D03*
X165354800Y-76649200D03*
X166204800Y-75299200D03*
X166204800Y-76649200D03*
X167054800Y-75299200D03*
X167054800Y-76649200D03*
X167904800Y-75299200D03*
X167904800Y-76649200D03*
X168754800Y-75299200D03*
X168754800Y-76649200D03*
X169604800Y-75299200D03*
X169604800Y-76649200D03*
X170454800Y-75299200D03*
X170454800Y-76649200D03*
X171304800Y-75299200D03*
X171304800Y-76649200D03*
%TD*%
D14*
X151200000Y-83600000D03*
X151200000Y-84500000D03*
X154100000Y-103900000D03*
X155100000Y-83600000D03*
X159650000Y-87650000D03*
X165200000Y-86800000D03*
X165200000Y-88000000D03*
X165200000Y-89200000D03*
X168800000Y-83100000D03*
X199700000Y-79550000D03*
X202312498Y-78800000D03*
X203100000Y-86900000D03*
X203500000Y-85300000D03*
X205250000Y-89750000D03*
D15*
%TO.C,J1*%
X164009800Y-71549200D02*
X164009800Y-72449200D01*
X164009800Y-75499200D02*
X164009800Y-76799200D01*
X172649800Y-71549200D02*
X172649800Y-72449200D01*
X172649800Y-75499200D02*
X172649800Y-76799200D01*
D16*
%TO.C,C7*%
X148200000Y-119655113D03*
X148200000Y-121655113D03*
%TO.C,C8*%
X180400000Y-118255113D03*
X180400000Y-120255113D03*
D17*
%TO.C,BT2*%
X145800000Y-82725000D03*
X145800000Y-85265000D03*
%TO.C,J2*%
X154000000Y-119460000D03*
X154000000Y-122000000D03*
X154000000Y-124540000D03*
%TO.C,BT1*%
X159600000Y-82925000D03*
X159600000Y-85465000D03*
%TO.C,SW1*%
X165750000Y-132750000D03*
X170250000Y-132750000D03*
%TO.C,JP7*%
X178900000Y-85025000D03*
X178900000Y-87565000D03*
%TO.C,J3*%
X185860600Y-116899487D03*
X185860600Y-119439487D03*
X185860600Y-121979487D03*
%TO.C,J4*%
X194920000Y-133200000D03*
X197460000Y-133200000D03*
X200000000Y-133200000D03*
D18*
%TO.C,U4*%
X136187500Y-90912500D03*
X136187500Y-113912500D03*
X138727500Y-90912500D03*
X147647500Y-90912500D03*
X150187500Y-90912500D03*
X150187500Y-113912500D03*
D19*
%TO.C,SW1*%
X164500000Y-130250000D03*
X171500000Y-130250000D03*
D20*
%TO.C,TP11*%
X141900000Y-77700000D03*
%TO.C,TP10*%
X154009327Y-91736442D03*
%TO.C,TP14*%
X156700000Y-95200000D03*
%TO.C,TP7*%
X170800000Y-86700000D03*
%TO.C,TP4*%
X174800000Y-85900000D03*
%TO.C,TP2*%
X176200000Y-73800000D03*
%TO.C,TP15*%
X191250000Y-118000000D03*
%TO.C,TP16*%
X195500000Y-118000000D03*
%TO.C,TP13*%
X199750000Y-118010255D03*
%TO.C,TP12*%
X204000000Y-118000000D03*
M02*
