%TF.GenerationSoftware,KiCad,Pcbnew,8.0.7*%
%TF.CreationDate,2025-02-05T21:47:47-05:00*%
%TF.ProjectId,SHERPENT20250113,53484552-5045-44e5-9432-303235303131,rev?*%
%TF.SameCoordinates,Original*%
%TF.FileFunction,Soldermask,Top*%
%TF.FilePolarity,Negative*%
%FSLAX46Y46*%
G04 Gerber Fmt 4.6, Leading zero omitted, Abs format (unit mm)*
G04 Created by KiCad (PCBNEW 8.0.7) date 2025-02-05 21:47:47*
%MOMM*%
%LPD*%
G01*
G04 APERTURE LIST*
G04 Aperture macros list*
%AMRoundRect*
0 Rectangle with rounded corners*
0 $1 Rounding radius*
0 $2 $3 $4 $5 $6 $7 $8 $9 X,Y pos of 4 corners*
0 Add a 4 corners polygon primitive as box body*
4,1,4,$2,$3,$4,$5,$6,$7,$8,$9,$2,$3,0*
0 Add four circle primitives for the rounded corners*
1,1,$1+$1,$2,$3*
1,1,$1+$1,$4,$5*
1,1,$1+$1,$6,$7*
1,1,$1+$1,$8,$9*
0 Add four rect primitives between the rounded corners*
20,1,$1+$1,$2,$3,$4,$5,0*
20,1,$1+$1,$4,$5,$6,$7,0*
20,1,$1+$1,$6,$7,$8,$9,0*
20,1,$1+$1,$8,$9,$2,$3,0*%
%AMRotRect*
0 Rectangle, with rotation*
0 The origin of the aperture is its center*
0 $1 length*
0 $2 width*
0 $3 Rotation angle, in degrees counterclockwise*
0 Add horizontal line*
21,1,$1,$2,0,0,$3*%
%AMFreePoly0*
4,1,6,1.000000,0.000000,0.500000,-0.750000,-0.500000,-0.750000,-0.500000,0.750000,0.500000,0.750000,1.000000,0.000000,1.000000,0.000000,$1*%
%AMFreePoly1*
4,1,6,0.500000,-0.750000,-0.650000,-0.750000,-0.150000,0.000000,-0.650000,0.750000,0.500000,0.750000,0.500000,-0.750000,0.500000,-0.750000,$1*%
%AMFreePoly2*
4,1,5,0.200000,-0.625000,-0.200000,-0.625000,-0.200000,0.625000,0.200000,0.625000,0.200000,-0.625000,0.200000,-0.625000,$1*%
%AMFreePoly3*
4,1,5,0.200000,-0.725000,-0.200000,-0.725000,-0.200000,0.725000,0.200000,0.725000,0.200000,-0.725000,0.200000,-0.725000,$1*%
G04 Aperture macros list end*
%ADD10C,0.000000*%
%ADD11C,0.387500*%
%ADD12RoundRect,0.160000X-0.026517X-0.252791X0.252791X0.026517X0.026517X0.252791X-0.252791X-0.026517X0*%
%ADD13RoundRect,0.090000X-0.660000X-0.360000X0.660000X-0.360000X0.660000X0.360000X-0.660000X0.360000X0*%
%ADD14RoundRect,0.237500X-0.300000X-0.237500X0.300000X-0.237500X0.300000X0.237500X-0.300000X0.237500X0*%
%ADD15FreePoly0,180.000000*%
%ADD16FreePoly1,180.000000*%
%ADD17RoundRect,0.237500X0.237500X-0.287500X0.237500X0.287500X-0.237500X0.287500X-0.237500X-0.287500X0*%
%ADD18RoundRect,0.200000X0.275000X-0.200000X0.275000X0.200000X-0.275000X0.200000X-0.275000X-0.200000X0*%
%ADD19RoundRect,0.150000X-0.150000X0.587500X-0.150000X-0.587500X0.150000X-0.587500X0.150000X0.587500X0*%
%ADD20RoundRect,0.155000X0.212500X0.155000X-0.212500X0.155000X-0.212500X-0.155000X0.212500X-0.155000X0*%
%ADD21RoundRect,0.237500X0.237500X-0.300000X0.237500X0.300000X-0.237500X0.300000X-0.237500X-0.300000X0*%
%ADD22FreePoly0,0.000000*%
%ADD23FreePoly1,0.000000*%
%ADD24RoundRect,0.237500X0.300000X0.237500X-0.300000X0.237500X-0.300000X-0.237500X0.300000X-0.237500X0*%
%ADD25RoundRect,0.200000X0.200000X0.275000X-0.200000X0.275000X-0.200000X-0.275000X0.200000X-0.275000X0*%
%ADD26RoundRect,0.200000X-0.200000X-0.275000X0.200000X-0.275000X0.200000X0.275000X-0.200000X0.275000X0*%
%ADD27RoundRect,0.155000X-0.212500X-0.155000X0.212500X-0.155000X0.212500X0.155000X-0.212500X0.155000X0*%
%ADD28RoundRect,0.155000X-0.155000X0.212500X-0.155000X-0.212500X0.155000X-0.212500X0.155000X0.212500X0*%
%ADD29C,3.000000*%
%ADD30C,2.700000*%
%ADD31RoundRect,0.200000X-0.275000X0.200000X-0.275000X-0.200000X0.275000X-0.200000X0.275000X0.200000X0*%
%ADD32RoundRect,0.090000X0.660000X0.360000X-0.660000X0.360000X-0.660000X-0.360000X0.660000X-0.360000X0*%
%ADD33RoundRect,0.160000X-0.160000X0.222500X-0.160000X-0.222500X0.160000X-0.222500X0.160000X0.222500X0*%
%ADD34RoundRect,0.218750X0.218750X0.256250X-0.218750X0.256250X-0.218750X-0.256250X0.218750X-0.256250X0*%
%ADD35RoundRect,0.010000X-0.445000X-0.445000X0.445000X-0.445000X0.445000X0.445000X-0.445000X0.445000X0*%
%ADD36RoundRect,0.010190X-0.244810X-0.244810X0.244810X-0.244810X0.244810X0.244810X-0.244810X0.244810X0*%
%ADD37R,1.600000X1.600000*%
%ADD38C,1.600000*%
%ADD39RoundRect,0.155000X0.040659X0.259862X-0.259862X-0.040659X-0.040659X-0.259862X0.259862X0.040659X0*%
%ADD40RoundRect,0.237500X-0.237500X0.300000X-0.237500X-0.300000X0.237500X-0.300000X0.237500X0.300000X0*%
%ADD41RoundRect,0.150000X-0.587500X-0.150000X0.587500X-0.150000X0.587500X0.150000X-0.587500X0.150000X0*%
%ADD42RoundRect,0.237500X0.250000X0.237500X-0.250000X0.237500X-0.250000X-0.237500X0.250000X-0.237500X0*%
%ADD43R,1.700000X1.700000*%
%ADD44O,1.700000X1.700000*%
%ADD45RoundRect,0.218750X-0.218750X-0.256250X0.218750X-0.256250X0.218750X0.256250X-0.218750X0.256250X0*%
%ADD46RoundRect,0.237500X0.287500X0.237500X-0.287500X0.237500X-0.287500X-0.237500X0.287500X-0.237500X0*%
%ADD47R,0.575000X0.250000*%
%ADD48R,0.225000X0.700000*%
%ADD49R,0.549999X0.249999*%
%ADD50FreePoly2,90.000000*%
%ADD51FreePoly3,180.000000*%
%ADD52R,0.399999X1.000000*%
%ADD53FreePoly2,270.000000*%
%ADD54R,0.249999X0.549999*%
%ADD55RoundRect,0.375000X0.375000X-0.625000X0.375000X0.625000X-0.375000X0.625000X-0.375000X-0.625000X0*%
%ADD56RoundRect,0.500000X1.400000X-0.500000X1.400000X0.500000X-1.400000X0.500000X-1.400000X-0.500000X0*%
%ADD57R,0.889000X1.803400*%
%ADD58RoundRect,0.237500X-0.237500X0.287500X-0.237500X-0.287500X0.237500X-0.287500X0.237500X0.287500X0*%
%ADD59O,1.452400X2.652400*%
%ADD60O,1.452400X3.352400*%
%ADD61RoundRect,0.237500X0.237500X-0.250000X0.237500X0.250000X-0.237500X0.250000X-0.237500X-0.250000X0*%
%ADD62C,1.400000*%
%ADD63RotRect,0.838200X0.533400X225.000000*%
%ADD64RoundRect,0.150000X0.150000X-0.587500X0.150000X0.587500X-0.150000X0.587500X-0.150000X-0.587500X0*%
%ADD65RoundRect,0.218750X0.256250X-0.218750X0.256250X0.218750X-0.256250X0.218750X-0.256250X-0.218750X0*%
%ADD66R,0.254000X0.660400*%
%ADD67R,0.660400X0.254000*%
%ADD68R,3.759200X3.759200*%
%ADD69RoundRect,0.102000X-0.635000X-0.279400X0.635000X-0.279400X0.635000X0.279400X-0.635000X0.279400X0*%
%ADD70RoundRect,0.155000X-0.259862X0.040659X0.040659X-0.259862X0.259862X-0.040659X-0.040659X0.259862X0*%
%ADD71R,2.000000X2.000000*%
%ADD72C,1.700000*%
%ADD73C,2.000000*%
G04 APERTURE END LIST*
D10*
%TO.C,U2*%
G36*
X160918714Y-102716214D02*
G01*
X160918711Y-103316213D01*
X160868714Y-103366213D01*
X160743713Y-103366213D01*
X160693713Y-103316213D01*
X160693713Y-102916214D01*
X160393714Y-102916214D01*
X160343714Y-102866214D01*
X160343714Y-102716214D01*
X160393714Y-102666214D01*
X160868714Y-102666211D01*
X160918714Y-102716214D01*
G37*
G36*
X161593714Y-100516213D02*
G01*
X161593714Y-101866213D01*
X161543714Y-101916213D01*
X160393714Y-101916213D01*
X160343714Y-101866213D01*
X160343714Y-101566214D01*
X160393714Y-101516214D01*
X161193712Y-101516214D01*
X161193712Y-100516213D01*
X161243712Y-100466213D01*
X161543711Y-100466213D01*
X161593714Y-100516213D01*
G37*
G36*
X162893714Y-100516213D02*
G01*
X162893714Y-101516214D01*
X163693712Y-101516214D01*
X163743712Y-101566214D01*
X163743712Y-101866213D01*
X163693712Y-101916213D01*
X162543712Y-101916213D01*
X162493712Y-101866213D01*
X162493712Y-100516213D01*
X162543715Y-100466213D01*
X162843714Y-100466213D01*
X162893714Y-100516213D01*
G37*
G36*
X163743712Y-102716214D02*
G01*
X163743712Y-102866211D01*
X163693712Y-102916214D01*
X163393713Y-102916214D01*
X163393713Y-103316213D01*
X163343713Y-103366213D01*
X163218712Y-103366213D01*
X163168715Y-103316213D01*
X163168712Y-102716214D01*
X163218714Y-102666214D01*
X163693712Y-102666211D01*
X163743712Y-102716214D01*
G37*
D11*
%TO.C,J1*%
X167248550Y-75299200D02*
G75*
G02*
X166861050Y-75299200I-193750J0D01*
G01*
X166861050Y-75299200D02*
G75*
G02*
X167248550Y-75299200I193750J0D01*
G01*
X167248550Y-76649200D02*
G75*
G02*
X166861050Y-76649200I-193750J0D01*
G01*
X166861050Y-76649200D02*
G75*
G02*
X167248550Y-76649200I193750J0D01*
G01*
X168098550Y-75299200D02*
G75*
G02*
X167711050Y-75299200I-193750J0D01*
G01*
X167711050Y-75299200D02*
G75*
G02*
X168098550Y-75299200I193750J0D01*
G01*
X168098550Y-76649200D02*
G75*
G02*
X167711050Y-76649200I-193750J0D01*
G01*
X167711050Y-76649200D02*
G75*
G02*
X168098550Y-76649200I193750J0D01*
G01*
X168948550Y-75299200D02*
G75*
G02*
X168561050Y-75299200I-193750J0D01*
G01*
X168561050Y-75299200D02*
G75*
G02*
X168948550Y-75299200I193750J0D01*
G01*
X168948550Y-76649200D02*
G75*
G02*
X168561050Y-76649200I-193750J0D01*
G01*
X168561050Y-76649200D02*
G75*
G02*
X168948550Y-76649200I193750J0D01*
G01*
X169798550Y-75299200D02*
G75*
G02*
X169411050Y-75299200I-193750J0D01*
G01*
X169411050Y-75299200D02*
G75*
G02*
X169798550Y-75299200I193750J0D01*
G01*
X169798550Y-76649200D02*
G75*
G02*
X169411050Y-76649200I-193750J0D01*
G01*
X169411050Y-76649200D02*
G75*
G02*
X169798550Y-76649200I193750J0D01*
G01*
%TD*%
D12*
%TO.C,R24*%
X201697904Y-81563696D03*
X202542896Y-80718704D03*
%TD*%
D13*
%TO.C,D9*%
X145517600Y-74347200D03*
X145517600Y-77647200D03*
X150417600Y-77647200D03*
X150417600Y-74347200D03*
%TD*%
D14*
%TO.C,C12*%
X166007988Y-102196888D03*
X167732988Y-102196888D03*
%TD*%
D15*
%TO.C,JP2*%
X181585600Y-80010400D03*
D16*
X180135600Y-80010400D03*
%TD*%
D17*
%TO.C,D2*%
X162344000Y-110781200D03*
X162344000Y-109031200D03*
%TD*%
D13*
%TO.C,D8*%
X178410600Y-78360400D03*
X178410600Y-81660400D03*
X183310600Y-81660400D03*
X183310600Y-78360400D03*
%TD*%
D18*
%TO.C,R9*%
X157492600Y-103987088D03*
X157492600Y-102337088D03*
%TD*%
D19*
%TO.C,Q4*%
X167596600Y-109426100D03*
X165696600Y-109426100D03*
X166646600Y-111301100D03*
%TD*%
D17*
%TO.C,D3*%
X157835545Y-85781945D03*
X157835545Y-84031945D03*
%TD*%
D20*
%TO.C,C25*%
X198376300Y-79196900D03*
X197241300Y-79196900D03*
%TD*%
D14*
%TO.C,C3*%
X162699600Y-106807400D03*
X164424600Y-106807400D03*
%TD*%
D21*
%TO.C,C4*%
X161899545Y-89813700D03*
X161899545Y-88088700D03*
%TD*%
D22*
%TO.C,JP17*%
X147275000Y-129998600D03*
D23*
X148725000Y-129998600D03*
%TD*%
D24*
%TO.C,C5*%
X161123700Y-104445200D03*
X159398700Y-104445200D03*
%TD*%
D14*
%TO.C,C29*%
X191637500Y-126800000D03*
X193362500Y-126800000D03*
%TD*%
D25*
%TO.C,R2*%
X153974200Y-87274800D03*
X152324200Y-87274800D03*
%TD*%
D26*
%TO.C,R18*%
X148050000Y-94000000D03*
X149700000Y-94000000D03*
%TD*%
D27*
%TO.C,C16*%
X199485200Y-75945700D03*
X200620200Y-75945700D03*
%TD*%
D28*
%TO.C,C23*%
X197402400Y-76995100D03*
X197402400Y-78130100D03*
%TD*%
D29*
%TO.C,TP1*%
X154927200Y-80467600D03*
%TD*%
D30*
%TO.C,H2*%
X157000000Y-73000000D03*
%TD*%
D31*
%TO.C,R10*%
X175000000Y-81500000D03*
X175000000Y-83150000D03*
%TD*%
D22*
%TO.C,JP18*%
X137191400Y-120578000D03*
D23*
X138641400Y-120578000D03*
%TD*%
D30*
%TO.C,H3*%
X139000000Y-133000000D03*
%TD*%
D32*
%TO.C,D17*%
X150450000Y-131648600D03*
X150450000Y-128348600D03*
X145550000Y-128348600D03*
X145550000Y-131648600D03*
%TD*%
D13*
%TO.C,D10*%
X135466400Y-83512800D03*
X135466400Y-86812800D03*
X140366400Y-86812800D03*
X140366400Y-83512800D03*
%TD*%
D25*
%TO.C,R1*%
X182475000Y-84100000D03*
X180825000Y-84100000D03*
%TD*%
D26*
%TO.C,R26*%
X155829400Y-105435800D03*
X157479400Y-105435800D03*
%TD*%
D17*
%TO.C,D6*%
X187261400Y-86599600D03*
X187261400Y-84849600D03*
%TD*%
D33*
%TO.C,L2*%
X199434400Y-76998800D03*
X199434400Y-78143800D03*
%TD*%
D26*
%TO.C,R13*%
X165890888Y-103720888D03*
X167540888Y-103720888D03*
%TD*%
%TO.C,R11*%
X165891988Y-100647488D03*
X167541988Y-100647488D03*
%TD*%
D15*
%TO.C,JP4*%
X138641400Y-85162800D03*
D16*
X137191400Y-85162800D03*
%TD*%
D24*
%TO.C,C14*%
X166162500Y-81800000D03*
X164437500Y-81800000D03*
%TD*%
D29*
%TO.C,TP7*%
X158153000Y-95148800D03*
%TD*%
D21*
%TO.C,C11*%
X167478988Y-99070488D03*
X167478988Y-97345488D03*
%TD*%
D18*
%TO.C,R14*%
X156070200Y-85673600D03*
X156070200Y-84023600D03*
%TD*%
D34*
%TO.C,F3*%
X149287500Y-81000000D03*
X147712500Y-81000000D03*
%TD*%
D20*
%TO.C,C20*%
X198401700Y-75945700D03*
X197266700Y-75945700D03*
%TD*%
D33*
%TO.C,L3*%
X198418400Y-76998800D03*
X198418400Y-78143800D03*
%TD*%
D25*
%TO.C,R20*%
X186625000Y-83198600D03*
X184975000Y-83198600D03*
%TD*%
D21*
%TO.C,C30*%
X161898200Y-93216900D03*
X161898200Y-91491900D03*
%TD*%
D35*
%TO.C,U6*%
X201553150Y-74638800D03*
D36*
X199453400Y-74838550D03*
%TD*%
D37*
%TO.C,C8*%
X171800000Y-119255113D03*
D38*
X171800000Y-117255113D03*
%TD*%
D25*
%TO.C,R17*%
X186625000Y-79845800D03*
X184975000Y-79845800D03*
%TD*%
D30*
%TO.C,H1*%
X139000000Y-73000000D03*
%TD*%
D29*
%TO.C,NEO-END1*%
X202857000Y-129235600D03*
%TD*%
D32*
%TO.C,D16*%
X140366400Y-122228000D03*
X140366400Y-118928000D03*
X135466400Y-118928000D03*
X135466400Y-122228000D03*
%TD*%
D29*
%TO.C,TP4*%
X174200000Y-86200000D03*
%TD*%
D39*
%TO.C,C28*%
X204121655Y-83443817D03*
X203319089Y-84246383D03*
%TD*%
D18*
%TO.C,R22*%
X194800000Y-77925000D03*
X194800000Y-76275000D03*
%TD*%
D40*
%TO.C,C10*%
X152300000Y-121237500D03*
X152300000Y-122962500D03*
%TD*%
D41*
%TO.C,Q3*%
X158609100Y-109713600D03*
X158609100Y-111613600D03*
X160484100Y-110663600D03*
%TD*%
D15*
%TO.C,JP3*%
X148692600Y-75997200D03*
D16*
X147242600Y-75997200D03*
%TD*%
D24*
%TO.C,C15*%
X169785100Y-95301200D03*
X168060100Y-95301200D03*
%TD*%
D21*
%TO.C,C1*%
X155587600Y-89966100D03*
X155587600Y-88241100D03*
%TD*%
D14*
%TO.C,C21*%
X163437500Y-126800000D03*
X165162500Y-126800000D03*
%TD*%
D31*
%TO.C,R5*%
X159946600Y-114838600D03*
X159946600Y-116488600D03*
%TD*%
D42*
%TO.C,D28*%
X166212500Y-80100000D03*
X164387500Y-80100000D03*
%TD*%
D43*
%TO.C,J2*%
X149600000Y-118175000D03*
D44*
X149600000Y-120715000D03*
X149600000Y-123255000D03*
%TD*%
D26*
%TO.C,R7*%
X159601345Y-84017945D03*
X161251345Y-84017945D03*
%TD*%
D45*
%TO.C,F2*%
X144212500Y-81000000D03*
X145787500Y-81000000D03*
%TD*%
D21*
%TO.C,C26*%
X192910350Y-77862500D03*
X192910350Y-76137500D03*
%TD*%
D43*
%TO.C,BT1*%
X149053945Y-83687345D03*
D44*
X149053945Y-86227345D03*
%TD*%
D26*
%TO.C,R16*%
X184974000Y-81534900D03*
X186624000Y-81534900D03*
%TD*%
D46*
%TO.C,D29*%
X157427800Y-107036000D03*
X155677800Y-107036000D03*
%TD*%
D18*
%TO.C,R6*%
X163946600Y-110688600D03*
X163946600Y-109038600D03*
%TD*%
D47*
%TO.C,U2*%
X163456213Y-102791213D03*
D48*
X163281213Y-103016213D03*
D49*
X163468714Y-102291214D03*
D50*
X163118713Y-101716213D03*
D51*
X162693713Y-101191213D03*
D52*
X162043713Y-101666213D03*
D51*
X161393713Y-101191213D03*
D53*
X160963713Y-101716213D03*
D49*
X160618712Y-102291214D03*
D48*
X160806213Y-103016213D03*
D47*
X160631213Y-102791213D03*
D54*
X161293712Y-103091212D03*
X161793713Y-103091212D03*
X162293713Y-103091212D03*
X162793714Y-103091212D03*
%TD*%
D32*
%TO.C,D18*%
X183310600Y-127635400D03*
X183310600Y-124335400D03*
X178410600Y-124335400D03*
X178410600Y-127635400D03*
%TD*%
D25*
%TO.C,R28*%
X205333000Y-86551400D03*
X203683000Y-86551400D03*
%TD*%
D21*
%TO.C,C9*%
X176700000Y-118862500D03*
X176700000Y-117137500D03*
%TD*%
D18*
%TO.C,R12*%
X158918088Y-99846888D03*
X158918088Y-98196888D03*
%TD*%
D19*
%TO.C,Q1*%
X163496600Y-114226100D03*
X161596600Y-114226100D03*
X162546600Y-116101100D03*
%TD*%
D31*
%TO.C,R23*%
X189166400Y-84850600D03*
X189166400Y-86500600D03*
%TD*%
D55*
%TO.C,U5*%
X164144800Y-93243800D03*
X166444800Y-93243800D03*
D56*
X166444800Y-86943800D03*
D55*
X168744800Y-93243800D03*
%TD*%
D14*
%TO.C,C13*%
X160667600Y-98908000D03*
X162392600Y-98908000D03*
%TD*%
%TO.C,C6*%
X166006888Y-105270288D03*
X167731888Y-105270288D03*
%TD*%
%TO.C,C19*%
X201975500Y-77726000D03*
X203700500Y-77726000D03*
%TD*%
D57*
%TO.C,SW2*%
X186742902Y-77139500D03*
X190842898Y-77139500D03*
%TD*%
D58*
%TO.C,D25*%
X158046600Y-114988600D03*
X158046600Y-116738600D03*
%TD*%
D14*
%TO.C,C2*%
X162700700Y-105283400D03*
X164425700Y-105283400D03*
%TD*%
D25*
%TO.C,R8*%
X161251345Y-85821345D03*
X159601345Y-85821345D03*
%TD*%
D26*
%TO.C,R21*%
X188023400Y-83198600D03*
X189673400Y-83198600D03*
%TD*%
D46*
%TO.C,D1*%
X159721600Y-113263600D03*
X157971600Y-113263600D03*
%TD*%
D59*
%TO.C,J1*%
X172649800Y-71999200D03*
X164009800Y-71999200D03*
D60*
X172649800Y-76149200D03*
X164009800Y-76149200D03*
%TD*%
D37*
%TO.C,C7*%
X156200000Y-121144888D03*
D38*
X156200000Y-123144888D03*
%TD*%
D25*
%TO.C,R27*%
X202310400Y-86551400D03*
X200660400Y-86551400D03*
%TD*%
D61*
%TO.C,D4*%
X177500000Y-85512500D03*
X177500000Y-83687500D03*
%TD*%
D43*
%TO.C,J3*%
X180860600Y-121234600D03*
D44*
X180860600Y-118694600D03*
X180860600Y-116154600D03*
%TD*%
D25*
%TO.C,R4*%
X172025000Y-84100000D03*
X170375000Y-84100000D03*
%TD*%
D62*
%TO.C,JP19*%
X181267000Y-88931200D03*
X181267000Y-86391200D03*
%TD*%
D63*
%TO.C,Y1*%
X202997028Y-81631254D03*
X201883477Y-82744805D03*
X202678972Y-83540300D03*
X203792523Y-82426749D03*
%TD*%
D64*
%TO.C,Q2*%
X152265200Y-85491145D03*
X154165200Y-85491145D03*
X153215200Y-83616145D03*
%TD*%
D30*
%TO.C,H4*%
X157000000Y-133000000D03*
%TD*%
D65*
%TO.C,L1*%
X161124800Y-107518600D03*
X161124800Y-105943600D03*
%TD*%
D25*
%TO.C,R3*%
X163971600Y-112363600D03*
X162321600Y-112363600D03*
%TD*%
D24*
%TO.C,C17*%
X194398800Y-86449800D03*
X192673800Y-86449800D03*
%TD*%
D14*
%TO.C,C22*%
X201975500Y-79250000D03*
X203700500Y-79250000D03*
%TD*%
D66*
%TO.C,U7*%
X199266699Y-80202801D03*
X198766700Y-80202801D03*
X198266701Y-80202801D03*
X197766700Y-80202801D03*
X197266700Y-80202801D03*
X196766699Y-80202801D03*
X196266700Y-80202801D03*
X195766701Y-80202801D03*
D67*
X195116400Y-80853102D03*
X195116400Y-81353101D03*
X195116400Y-81853100D03*
X195116400Y-82353101D03*
X195116400Y-82853101D03*
X195116400Y-83353102D03*
X195116400Y-83853101D03*
X195116400Y-84353100D03*
D66*
X195766701Y-85003401D03*
X196266700Y-85003401D03*
X196766699Y-85003401D03*
X197266700Y-85003401D03*
X197766700Y-85003401D03*
X198266701Y-85003401D03*
X198766700Y-85003401D03*
X199266699Y-85003401D03*
D67*
X199917000Y-84353100D03*
X199917000Y-83853101D03*
X199917000Y-83353102D03*
X199917000Y-82853101D03*
X199917000Y-82353101D03*
X199917000Y-81853100D03*
X199917000Y-81353101D03*
X199917000Y-80853102D03*
D68*
X197516700Y-82603101D03*
%TD*%
D69*
%TO.C,U1*%
X157479945Y-87523145D03*
X157479945Y-88462945D03*
X157479945Y-89402745D03*
X160070745Y-89402745D03*
X160070745Y-87523145D03*
%TD*%
D70*
%TO.C,C27*%
X203796572Y-80873300D03*
X204599138Y-81675866D03*
%TD*%
D43*
%TO.C,BT2*%
X144159545Y-83661945D03*
D44*
X144159545Y-86201945D03*
%TD*%
D71*
%TO.C,U4*%
X136187500Y-113912500D03*
X150187500Y-113912500D03*
X136187500Y-90912500D03*
X150187500Y-90912500D03*
X138727500Y-90912500D03*
X147647500Y-90912500D03*
%TD*%
D22*
%TO.C,JP16*%
X180135600Y-125985400D03*
D23*
X181585600Y-125985400D03*
%TD*%
D24*
%TO.C,C24*%
X193609200Y-81522200D03*
X191884200Y-81522200D03*
%TD*%
D27*
%TO.C,C18*%
X199476500Y-79196900D03*
X200611500Y-79196900D03*
%TD*%
D29*
%TO.C,TP2*%
X160900000Y-119700000D03*
%TD*%
D72*
%TO.C,SW1*%
X165750000Y-132750000D03*
X170250000Y-132750000D03*
D73*
X164500000Y-130250000D03*
X171500000Y-130250000D03*
%TD*%
M02*
