%TF.GenerationSoftware,KiCad,Pcbnew,8.0.7*%
%TF.CreationDate,2025-02-05T21:47:47-05:00*%
%TF.ProjectId,SHERPENT20250113,53484552-5045-44e5-9432-303235303131,rev?*%
%TF.SameCoordinates,Original*%
%TF.FileFunction,Copper,L4,Bot*%
%TF.FilePolarity,Positive*%
%FSLAX46Y46*%
G04 Gerber Fmt 4.6, Leading zero omitted, Abs format (unit mm)*
G04 Created by KiCad (PCBNEW 8.0.7) date 2025-02-05 21:47:47*
%MOMM*%
%LPD*%
G01*
G04 APERTURE LIST*
G04 Aperture macros list*
%AMRoundRect*
0 Rectangle with rounded corners*
0 $1 Rounding radius*
0 $2 $3 $4 $5 $6 $7 $8 $9 X,Y pos of 4 corners*
0 Add a 4 corners polygon primitive as box body*
4,1,4,$2,$3,$4,$5,$6,$7,$8,$9,$2,$3,0*
0 Add four circle primitives for the rounded corners*
1,1,$1+$1,$2,$3*
1,1,$1+$1,$4,$5*
1,1,$1+$1,$6,$7*
1,1,$1+$1,$8,$9*
0 Add four rect primitives between the rounded corners*
20,1,$1+$1,$2,$3,$4,$5,0*
20,1,$1+$1,$4,$5,$6,$7,0*
20,1,$1+$1,$6,$7,$8,$9,0*
20,1,$1+$1,$8,$9,$2,$3,0*%
%AMFreePoly0*
4,1,6,1.000000,0.000000,0.500000,-0.750000,-0.500000,-0.750000,-0.500000,0.750000,0.500000,0.750000,1.000000,0.000000,1.000000,0.000000,$1*%
%AMFreePoly1*
4,1,6,0.500000,-0.750000,-0.650000,-0.750000,-0.150000,0.000000,-0.650000,0.750000,0.500000,0.750000,0.500000,-0.750000,0.500000,-0.750000,$1*%
G04 Aperture macros list end*
%TA.AperFunction,ComponentPad*%
%ADD10C,3.000000*%
%TD*%
%TA.AperFunction,ComponentPad*%
%ADD11R,1.600000X1.600000*%
%TD*%
%TA.AperFunction,ComponentPad*%
%ADD12C,1.600000*%
%TD*%
%TA.AperFunction,ComponentPad*%
%ADD13R,1.700000X1.700000*%
%TD*%
%TA.AperFunction,ComponentPad*%
%ADD14O,1.700000X1.700000*%
%TD*%
%TA.AperFunction,ComponentPad*%
%ADD15C,0.648000*%
%TD*%
%TA.AperFunction,ComponentPad*%
%ADD16O,1.300000X2.500000*%
%TD*%
%TA.AperFunction,ComponentPad*%
%ADD17O,1.300000X3.200000*%
%TD*%
%TA.AperFunction,ComponentPad*%
%ADD18C,1.400000*%
%TD*%
%TA.AperFunction,ComponentPad*%
%ADD19R,2.000000X2.000000*%
%TD*%
%TA.AperFunction,ComponentPad*%
%ADD20C,1.700000*%
%TD*%
%TA.AperFunction,ComponentPad*%
%ADD21C,2.000000*%
%TD*%
%TA.AperFunction,SMDPad,CuDef*%
%ADD22RoundRect,0.150000X0.150000X-0.587500X0.150000X0.587500X-0.150000X0.587500X-0.150000X-0.587500X0*%
%TD*%
%TA.AperFunction,SMDPad,CuDef*%
%ADD23RoundRect,0.200000X-0.275000X0.200000X-0.275000X-0.200000X0.275000X-0.200000X0.275000X0.200000X0*%
%TD*%
%TA.AperFunction,SMDPad,CuDef*%
%ADD24RoundRect,0.090000X0.660000X0.360000X-0.660000X0.360000X-0.660000X-0.360000X0.660000X-0.360000X0*%
%TD*%
%TA.AperFunction,SMDPad,CuDef*%
%ADD25RoundRect,0.150000X-0.150000X0.587500X-0.150000X-0.587500X0.150000X-0.587500X0.150000X0.587500X0*%
%TD*%
%TA.AperFunction,SMDPad,CuDef*%
%ADD26RoundRect,0.090000X-0.660000X-0.360000X0.660000X-0.360000X0.660000X0.360000X-0.660000X0.360000X0*%
%TD*%
%TA.AperFunction,SMDPad,CuDef*%
%ADD27FreePoly0,180.000000*%
%TD*%
%TA.AperFunction,SMDPad,CuDef*%
%ADD28FreePoly1,180.000000*%
%TD*%
%TA.AperFunction,SMDPad,CuDef*%
%ADD29FreePoly0,0.000000*%
%TD*%
%TA.AperFunction,SMDPad,CuDef*%
%ADD30FreePoly1,0.000000*%
%TD*%
%TA.AperFunction,ViaPad*%
%ADD31C,1.000000*%
%TD*%
%TA.AperFunction,ViaPad*%
%ADD32C,0.800000*%
%TD*%
%TA.AperFunction,ViaPad*%
%ADD33C,0.700000*%
%TD*%
%TA.AperFunction,ViaPad*%
%ADD34C,0.450000*%
%TD*%
%TA.AperFunction,ViaPad*%
%ADD35C,0.500000*%
%TD*%
%TA.AperFunction,ViaPad*%
%ADD36C,0.600000*%
%TD*%
%TA.AperFunction,Conductor*%
%ADD37C,0.450000*%
%TD*%
%TA.AperFunction,Conductor*%
%ADD38C,1.000000*%
%TD*%
%TA.AperFunction,Conductor*%
%ADD39C,0.200000*%
%TD*%
%TA.AperFunction,Conductor*%
%ADD40C,0.160000*%
%TD*%
G04 APERTURE END LIST*
D10*
%TO.P,TP1,1,1*%
%TO.N,/VBATT*%
X154927200Y-80467600D03*
%TD*%
%TO.P,TP7,1,1*%
%TO.N,+9V*%
X158153000Y-95148800D03*
%TD*%
D11*
%TO.P,C8,1*%
%TO.N,+9V*%
X171800000Y-119255113D03*
D12*
%TO.P,C8,2*%
%TO.N,GND*%
X171800000Y-117255113D03*
%TD*%
D10*
%TO.P,NEO-END1,1,1*%
%TO.N,Net-(D19-DOUT)*%
X202857000Y-129235600D03*
%TD*%
%TO.P,TP4,1,1*%
%TO.N,+3.3V*%
X174200000Y-86200000D03*
%TD*%
D13*
%TO.P,J2,1,Pin_1*%
%TO.N,/Moteur1_PWM*%
X149600000Y-118175000D03*
D14*
%TO.P,J2,2,Pin_2*%
%TO.N,+9V*%
X149600000Y-120715000D03*
%TO.P,J2,3,Pin_3*%
%TO.N,GND*%
X149600000Y-123255000D03*
%TD*%
D13*
%TO.P,BT1,1,+*%
%TO.N,Net-(BT1-+)*%
X149053945Y-83687345D03*
D14*
%TO.P,BT1,2,-*%
%TO.N,/B-*%
X149053945Y-86227345D03*
%TD*%
D15*
%TO.P,J1,A1,GND1*%
%TO.N,GND*%
X171304800Y-76649200D03*
%TO.P,J1,A4,VBUS1*%
%TO.N,/VUSB*%
X170454800Y-76649200D03*
%TO.P,J1,A5,CC1*%
%TO.N,Net-(J1-CC1)*%
X169604800Y-76649200D03*
%TO.P,J1,A6,DA+*%
%TO.N,/USB_ESP32P*%
X168754800Y-76649200D03*
%TO.P,J1,A7,DA-*%
%TO.N,/USB_ESP32N*%
X167904800Y-76649200D03*
%TO.P,J1,A8,SBU1*%
%TO.N,unconnected-(J1-SBU1-PadA8)*%
X167054800Y-76649200D03*
%TO.P,J1,A9,VBUS2*%
%TO.N,/VUSB*%
X166204800Y-76649200D03*
%TO.P,J1,A12,GND2*%
%TO.N,GND*%
X165354800Y-76649200D03*
%TO.P,J1,B1,GND3*%
X165354800Y-75299200D03*
%TO.P,J1,B4,VBUS3*%
%TO.N,/VUSB*%
X166204800Y-75299200D03*
%TO.P,J1,B5,CC2*%
%TO.N,Net-(J1-CC2)*%
X167054800Y-75299200D03*
%TO.P,J1,B6,DB+*%
%TO.N,/USB_ESP32P*%
X167904800Y-75299200D03*
%TO.P,J1,B7,DB-*%
%TO.N,/USB_ESP32N*%
X168754800Y-75299200D03*
%TO.P,J1,B8,SBU2*%
%TO.N,unconnected-(J1-SBU2-PadB8)*%
X169604800Y-75299200D03*
%TO.P,J1,B9,VBUS4*%
%TO.N,/VUSB*%
X170454800Y-75299200D03*
%TO.P,J1,B12,GND4*%
%TO.N,GND*%
X171304800Y-75299200D03*
D16*
%TO.P,J1,SH1,SHIELD1*%
%TO.N,unconnected-(J1-SHIELD1-PadSH1)*%
X172649800Y-71999200D03*
%TO.P,J1,SH2,SHIELD2*%
%TO.N,unconnected-(J1-SHIELD2-PadSH2)*%
X164009800Y-71999200D03*
D17*
%TO.P,J1,SH3,SHIELD3*%
%TO.N,unconnected-(J1-SHIELD3-PadSH3)*%
X172649800Y-76149200D03*
%TO.P,J1,SH4,SHIELD4*%
%TO.N,unconnected-(J1-SHIELD4-PadSH4)*%
X164009800Y-76149200D03*
%TD*%
D11*
%TO.P,C7,1*%
%TO.N,+9V*%
X156200000Y-121144888D03*
D12*
%TO.P,C7,2*%
%TO.N,GND*%
X156200000Y-123144888D03*
%TD*%
D13*
%TO.P,J3,1,Pin_1*%
%TO.N,/Moteur2_PWM*%
X180860600Y-121234600D03*
D14*
%TO.P,J3,2,Pin_2*%
%TO.N,+9V*%
X180860600Y-118694600D03*
%TO.P,J3,3,Pin_3*%
%TO.N,GND*%
X180860600Y-116154600D03*
%TD*%
D18*
%TO.P,JP19,1,A*%
%TO.N,/VUSB*%
X181267000Y-88931200D03*
%TO.P,JP19,2,B*%
%TO.N,/VBATT*%
X181267000Y-86391200D03*
%TD*%
D13*
%TO.P,BT2,1,+*%
%TO.N,Net-(BT2-+)*%
X144159545Y-83661945D03*
D14*
%TO.P,BT2,2,-*%
%TO.N,/B-*%
X144159545Y-86201945D03*
%TD*%
D19*
%TO.P,U4,1,5V_IN*%
%TO.N,/VUSB*%
X136187500Y-113912500D03*
%TO.P,U4,2,GND*%
%TO.N,GND*%
X150187500Y-113912500D03*
%TO.P,U4,3,Out+*%
%TO.N,/VBATT*%
X136187500Y-90912500D03*
%TO.P,U4,4,Out-*%
%TO.N,GND*%
X150187500Y-90912500D03*
%TO.P,U4,5,B+*%
%TO.N,/VBATT*%
X138727500Y-90912500D03*
%TO.P,U4,6,B-*%
%TO.N,/B-*%
X147647500Y-90912500D03*
%TD*%
D10*
%TO.P,TP2,1,1*%
%TO.N,/VUSB*%
X160900000Y-119700000D03*
%TD*%
D20*
%TO.P,SW1,1*%
%TO.N,GND*%
X165750000Y-132750000D03*
%TO.P,SW1,2*%
%TO.N,Net-(D2-K)*%
X170250000Y-132750000D03*
D21*
%TO.P,SW1,3*%
%TO.N,GND*%
X164500000Y-130250000D03*
%TO.P,SW1,4*%
X171500000Y-130250000D03*
%TD*%
D22*
%TO.P,D27,1,K*%
%TO.N,GND*%
X170250000Y-80837500D03*
%TO.P,D27,2,A*%
%TO.N,/VUSB*%
X168350000Y-80837500D03*
%TO.P,D27,3,K*%
%TO.N,/USB_ESP32P*%
X169300000Y-78962500D03*
%TD*%
D23*
%TO.P,R25,1*%
%TO.N,+3.3V*%
X174500000Y-77000000D03*
%TO.P,R25,2*%
%TO.N,/USB_ESP32P*%
X174500000Y-78650000D03*
%TD*%
D24*
%TO.P,D19,1,VDD*%
%TO.N,+9V*%
X205242400Y-121975000D03*
%TO.P,D19,2,DOUT*%
%TO.N,Net-(D19-DOUT)*%
X205242400Y-125275000D03*
%TO.P,D19,3,VSS*%
%TO.N,GND*%
X200342400Y-125275000D03*
%TO.P,D19,4,DIN*%
%TO.N,Net-(D18-DOUT)*%
X200342400Y-121975000D03*
%TD*%
D25*
%TO.P,D26,1,K*%
%TO.N,GND*%
X168050000Y-71762500D03*
%TO.P,D26,2,A*%
%TO.N,/VUSB*%
X169950000Y-71762500D03*
%TO.P,D26,3,K*%
%TO.N,/USB_ESP32N*%
X169000000Y-73637500D03*
%TD*%
D26*
%TO.P,D7,1,VDD*%
%TO.N,+9V*%
X200342400Y-79998200D03*
%TO.P,D7,2,DOUT*%
%TO.N,Net-(D7-DOUT)*%
X200342400Y-76698200D03*
%TO.P,D7,3,VSS*%
%TO.N,GND*%
X205242400Y-76698200D03*
%TO.P,D7,4,DIN*%
%TO.N,/NEOPX*%
X205242400Y-79998200D03*
%TD*%
D27*
%TO.P,JP1,1,A*%
%TO.N,/NEOPX*%
X203517400Y-78348200D03*
D28*
%TO.P,JP1,2,B*%
%TO.N,Net-(D7-DOUT)*%
X202067400Y-78348200D03*
%TD*%
D29*
%TO.P,JP15,1,A*%
%TO.N,Net-(D18-DOUT)*%
X202067400Y-123625000D03*
D30*
%TO.P,JP15,2,B*%
%TO.N,Net-(D19-DOUT)*%
X203517400Y-123625000D03*
%TD*%
D31*
%TO.N,GND*%
X164750000Y-97000000D03*
X165750000Y-98750000D03*
D32*
X191554000Y-86449800D03*
D31*
X165750000Y-97500000D03*
D32*
X151955400Y-77673600D03*
D33*
X162500000Y-87000000D03*
X161250000Y-87000000D03*
D32*
X197800000Y-82300000D03*
X185100000Y-76400000D03*
D33*
X195988519Y-76300766D03*
D32*
X162397899Y-104192749D03*
D34*
X201318509Y-82422109D03*
D31*
X163750000Y-98750000D03*
D33*
X171600000Y-80500000D03*
D32*
X176820000Y-124335400D03*
D31*
X163500000Y-99877150D03*
D33*
X196419422Y-78180577D03*
X162800000Y-80100000D03*
D32*
X205159204Y-81115800D03*
D33*
X159000000Y-88462945D03*
X140366400Y-88466400D03*
D32*
X201472700Y-75667500D03*
D31*
X164500000Y-100750000D03*
D32*
X200647200Y-78398000D03*
X198996200Y-125275000D03*
D33*
X160500000Y-88462945D03*
D32*
X155003400Y-103810200D03*
X161346600Y-116463600D03*
X160446600Y-111563600D03*
X162877400Y-93243800D03*
D33*
X159750000Y-88462945D03*
D31*
X164750000Y-99500000D03*
D32*
X181800000Y-82000000D03*
X204762000Y-77864600D03*
X144259200Y-126898800D03*
X192000000Y-76900000D03*
X184250000Y-84849600D03*
X135400000Y-117600000D03*
D31*
X163750000Y-97500000D03*
D32*
X205333000Y-85395200D03*
D31*
X164750000Y-98250000D03*
D32*
X186148841Y-84368051D03*
X191482160Y-80631013D03*
%TO.N,/VBATT*%
X199000000Y-87500000D03*
D33*
X156000000Y-91250000D03*
X157500000Y-90000000D03*
D31*
X155613000Y-108407600D03*
D33*
X154500000Y-89750000D03*
X156750000Y-90000000D03*
X158250000Y-90000000D03*
X146700000Y-83400000D03*
X157500000Y-90750000D03*
X146700000Y-84500000D03*
X156750000Y-90750000D03*
X154500000Y-91250000D03*
X153750000Y-89750000D03*
X153750000Y-91250000D03*
X153750000Y-90500000D03*
X158250000Y-90750000D03*
D32*
X190400000Y-87600000D03*
D33*
X154500000Y-90500000D03*
D32*
%TO.N,+9V*%
X169938600Y-96317200D03*
X185331000Y-127635400D03*
D31*
X155750000Y-101000000D03*
X155750000Y-99750000D03*
D33*
X168900000Y-91200000D03*
D32*
X134000000Y-83512800D03*
X205371600Y-120269400D03*
X143470800Y-74347200D03*
X168500000Y-70100000D03*
D31*
X156500000Y-98500000D03*
X159208771Y-101260110D03*
X160413599Y-100482800D03*
D32*
X178600000Y-79223000D03*
X140200000Y-123600000D03*
D31*
X157250000Y-99750000D03*
D32*
X152768200Y-131699400D03*
D31*
X157250000Y-101000000D03*
D32*
X180200000Y-76100000D03*
%TO.N,+3.3V*%
X192752355Y-80646261D03*
X154266800Y-83616145D03*
D33*
X174525000Y-75975000D03*
D32*
X167587800Y-85293200D03*
X202044200Y-76848600D03*
D33*
X196236288Y-77286455D03*
D32*
X184010200Y-86576800D03*
X195630700Y-85954500D03*
D33*
%TO.N,/VUSB*%
X160250000Y-90250000D03*
X159500000Y-90250000D03*
D31*
X171000000Y-71762500D03*
D32*
X178400000Y-88000000D03*
D31*
X153900000Y-108600000D03*
D33*
X161000000Y-90250000D03*
%TO.N,/USB_ESP32P*%
X200700000Y-85500000D03*
%TO.N,/USB_ESP32N*%
X199936000Y-84822148D03*
%TO.N,/Moteur1_PWM*%
X192740613Y-82324212D03*
X144500000Y-94300000D03*
%TO.N,/StayOn*%
X156806800Y-113208200D03*
X190690400Y-81954000D03*
%TO.N,/CHARGE*%
X152500000Y-88400000D03*
X188735873Y-80525000D03*
%TO.N,/Moteur2_PWM*%
X191392852Y-82720775D03*
D35*
%TO.N,Net-(C5-Pad1)*%
X162587040Y-102368840D03*
X161504968Y-102374556D03*
D33*
%TO.N,/NEOPX*%
X204369846Y-84769846D03*
%TO.N,/Button*%
X164376000Y-114226100D03*
X169700000Y-110300000D03*
%TO.N,Net-(Q4-D)*%
X167096600Y-107305600D03*
X159856278Y-102348739D03*
%TO.N,Net-(U2-FB)*%
X164283400Y-103216600D03*
X157700000Y-98200000D03*
%TO.N,Net-(U7-GPIO2)*%
X194698859Y-79526223D03*
D36*
X196367813Y-79036896D03*
D33*
%TO.N,Net-(D7-DOUT)*%
X184964600Y-78435400D03*
%TO.N,Net-(D18-DOUT)*%
X198183400Y-122022000D03*
%TD*%
D37*
%TO.N,GND*%
X170250000Y-80837500D02*
X171262500Y-80837500D01*
X205242400Y-77384200D02*
X204762000Y-77864600D01*
X165354800Y-74457700D02*
X168050000Y-71762500D01*
X200342400Y-125275000D02*
X198996200Y-125275000D01*
X205242400Y-76698200D02*
X205242400Y-77384200D01*
X171262500Y-80837500D02*
X171600000Y-80500000D01*
X165354800Y-75299200D02*
X165354800Y-74457700D01*
D38*
%TO.N,/VBATT*%
X139175000Y-96375000D02*
X153150400Y-96375000D01*
D37*
X191109373Y-87500000D02*
X191009373Y-87600000D01*
X178500000Y-89100000D02*
X167021200Y-89100000D01*
X179700000Y-87900000D02*
X178500000Y-89100000D01*
X164821200Y-91300000D02*
X158800000Y-91300000D01*
D38*
X153225400Y-105359600D02*
X153225400Y-96300000D01*
D37*
X158800000Y-91300000D02*
X158250000Y-90750000D01*
D38*
X155613000Y-108407600D02*
X155613000Y-107747200D01*
X136187500Y-93387500D02*
X139175000Y-96375000D01*
X136187500Y-91012500D02*
X136187500Y-93387500D01*
X155613000Y-107747200D02*
X153225400Y-105359600D01*
X146700000Y-86200000D02*
X141887500Y-91012500D01*
X153150400Y-96375000D02*
X153225400Y-96300000D01*
X141887500Y-91012500D02*
X139687500Y-91012500D01*
D37*
X181213825Y-86391200D02*
X179705025Y-87900000D01*
X179705025Y-87900000D02*
X179700000Y-87900000D01*
X181267000Y-86391200D02*
X181213825Y-86391200D01*
D38*
X153225400Y-91774600D02*
X154500000Y-90500000D01*
D37*
X199000000Y-87500000D02*
X191109373Y-87500000D01*
D38*
X153225400Y-96300000D02*
X153225400Y-91774600D01*
D37*
X191009373Y-87600000D02*
X190400000Y-87600000D01*
X167021200Y-89100000D02*
X164821200Y-91300000D01*
D38*
X146700000Y-83400000D02*
X146700000Y-86200000D01*
D37*
%TO.N,+9V*%
X200342400Y-79998200D02*
X198000000Y-77655800D01*
X205242400Y-120398600D02*
X205371600Y-120269400D01*
X198000000Y-76401525D02*
X197098475Y-75500000D01*
X205242400Y-121975000D02*
X205242400Y-120398600D01*
X180800000Y-75500000D02*
X180200000Y-76100000D01*
X198000000Y-77655800D02*
X198000000Y-76401525D01*
X197098475Y-75500000D02*
X180800000Y-75500000D01*
%TO.N,+3.3V*%
X174525000Y-75975000D02*
X174525000Y-76975000D01*
X174525000Y-76975000D02*
X174500000Y-77000000D01*
D38*
%TO.N,/VUSB*%
X141500000Y-108600000D02*
X153900000Y-108600000D01*
X136187500Y-113912500D02*
X141500000Y-108600000D01*
D37*
X166204800Y-78692300D02*
X166204800Y-76649200D01*
X165100000Y-88400000D02*
X163250000Y-90250000D01*
X178000000Y-88400000D02*
X165100000Y-88400000D01*
X169950000Y-71762500D02*
X171000000Y-71762500D01*
X163250000Y-90250000D02*
X161000000Y-90250000D01*
X178400000Y-88000000D02*
X178000000Y-88400000D01*
X168350000Y-80837500D02*
X166204800Y-78692300D01*
D39*
%TO.N,/USB_ESP32P*%
X191720278Y-78600000D02*
X190620278Y-77500000D01*
X177400000Y-77500000D02*
X176425000Y-78475000D01*
X169275000Y-78475000D02*
X168754800Y-77954800D01*
X176425000Y-78475000D02*
X169275000Y-78475000D01*
X199105162Y-85500000D02*
X192205162Y-78600000D01*
X200700000Y-85500000D02*
X199105162Y-85500000D01*
X192205162Y-78600000D02*
X191720278Y-78600000D01*
X168754800Y-77954800D02*
X168754800Y-76649200D01*
X190620278Y-77500000D02*
X177400000Y-77500000D01*
%TO.N,/USB_ESP32N*%
X176075100Y-76873429D02*
X176075100Y-75875100D01*
X176301671Y-77100000D02*
X176075100Y-76873429D01*
X168754800Y-75545200D02*
X168754800Y-75299200D01*
X167904800Y-76649200D02*
X167904800Y-76395200D01*
X167904800Y-76395200D02*
X168754800Y-75545200D01*
X199074227Y-84822148D02*
X192352079Y-78100000D01*
X190785964Y-77100000D02*
X176301671Y-77100000D01*
X169275000Y-74000000D02*
X168754800Y-74520200D01*
X168754800Y-74520200D02*
X168754800Y-75299200D01*
X192352079Y-78100000D02*
X191785964Y-78100000D01*
X191785964Y-78100000D02*
X190785964Y-77100000D01*
X176075100Y-75875100D02*
X174200000Y-74000000D01*
X174200000Y-74000000D02*
X169275000Y-74000000D01*
X199936000Y-84822148D02*
X199074227Y-84822148D01*
D40*
%TO.N,/Moteur1_PWM*%
X191100000Y-81400000D02*
X189250000Y-79550000D01*
X179650000Y-79550000D02*
X176200000Y-83000000D01*
X146550000Y-88100000D02*
X144500000Y-90150000D01*
X151350000Y-88100000D02*
X146550000Y-88100000D01*
X156450000Y-83000000D02*
X151350000Y-88100000D01*
X192740613Y-82324212D02*
X191816401Y-81400000D01*
X144500000Y-90150000D02*
X144500000Y-94300000D01*
X189250000Y-79550000D02*
X179650000Y-79550000D01*
X176200000Y-83000000D02*
X156450000Y-83000000D01*
X191816401Y-81400000D02*
X191100000Y-81400000D01*
%TO.N,/StayOn*%
X170640600Y-107299573D02*
X164731973Y-113208200D01*
X164731973Y-113208200D02*
X156806800Y-113208200D01*
X182800000Y-83500000D02*
X182800000Y-89400000D01*
X182800000Y-89400000D02*
X182100000Y-90100000D01*
X170640600Y-90859400D02*
X170640600Y-107299573D01*
X171400000Y-90100000D02*
X170640600Y-90859400D01*
X190690400Y-81954000D02*
X190588800Y-81852400D01*
X182100000Y-90100000D02*
X171400000Y-90100000D01*
X190588800Y-81852400D02*
X184447600Y-81852400D01*
X184447600Y-81852400D02*
X182800000Y-83500000D01*
%TO.N,/CHARGE*%
X152532000Y-88400000D02*
X157032000Y-83900000D01*
X188510873Y-80300000D02*
X188735873Y-80525000D01*
X152500000Y-88400000D02*
X152532000Y-88400000D01*
X157032000Y-83900000D02*
X177875000Y-83900000D01*
X177875000Y-83900000D02*
X181475000Y-80300000D01*
X181475000Y-80300000D02*
X188510873Y-80300000D01*
D37*
%TO.N,/Moteur2_PWM*%
X171234000Y-91491200D02*
X171234000Y-114309705D01*
X172748695Y-115824400D02*
X175450400Y-115824400D01*
X191392852Y-83136602D02*
X183829454Y-90700000D01*
X171234000Y-114309705D02*
X172748695Y-115824400D01*
X172025200Y-90700000D02*
X171234000Y-91491200D01*
X183829454Y-90700000D02*
X172025200Y-90700000D01*
X175450400Y-115824400D02*
X180860600Y-121234600D01*
X191392852Y-82720775D02*
X191392852Y-83136602D01*
%TO.N,/NEOPX*%
X206100000Y-83039692D02*
X206100000Y-80855800D01*
X205167400Y-79998200D02*
X203517400Y-78348200D01*
X204369846Y-84769846D02*
X206100000Y-83039692D01*
X206100000Y-80855800D02*
X205242400Y-79998200D01*
X205242400Y-79998200D02*
X205167400Y-79998200D01*
D40*
%TO.N,/Button*%
X165773900Y-114226100D02*
X169700000Y-110300000D01*
X164376000Y-114226100D02*
X165773900Y-114226100D01*
%TO.N,Net-(U2-FB)*%
X159000000Y-102400000D02*
X159816600Y-103216600D01*
X159816600Y-103216600D02*
X164283400Y-103216600D01*
X158225000Y-99234000D02*
X158225000Y-101975000D01*
X158225000Y-101975000D02*
X158650000Y-102400000D01*
X158650000Y-102400000D02*
X159000000Y-102400000D01*
X157746600Y-98755600D02*
X158225000Y-99234000D01*
%TO.N,Net-(U7-GPIO2)*%
X196367813Y-79036896D02*
X195188186Y-79036896D01*
X195188186Y-79036896D02*
X194698859Y-79526223D01*
D37*
%TO.N,Net-(D7-DOUT)*%
X201992400Y-78348200D02*
X200342400Y-76698200D01*
D40*
X190950000Y-78550000D02*
X192366261Y-79966261D01*
X192366261Y-79966261D02*
X193034021Y-79966261D01*
D37*
X202067400Y-78348200D02*
X201992400Y-78348200D01*
D40*
X199467760Y-86400000D02*
X200877818Y-86400000D01*
X184964600Y-78435400D02*
X185079200Y-78550000D01*
X193034021Y-79966261D02*
X199467760Y-86400000D01*
X202067400Y-85210418D02*
X202067400Y-78348200D01*
X200877818Y-86400000D02*
X202067400Y-85210418D01*
X185079200Y-78550000D02*
X190950000Y-78550000D01*
D37*
%TO.N,Net-(D18-DOUT)*%
X198183400Y-122022000D02*
X200295400Y-122022000D01*
X202067400Y-123625000D02*
X201992400Y-123625000D01*
X201992400Y-123625000D02*
X200342400Y-121975000D01*
X200295400Y-122022000D02*
X200342400Y-121975000D01*
%TO.N,Net-(D19-DOUT)*%
X205242400Y-126393000D02*
X202857000Y-128778400D01*
X203592400Y-123625000D02*
X205242400Y-125275000D01*
X203517400Y-123625000D02*
X203592400Y-123625000D01*
X202857000Y-128778400D02*
X202857000Y-129235600D01*
X205242400Y-125275000D02*
X205242400Y-126393000D01*
%TD*%
%TA.AperFunction,Conductor*%
%TO.N,GND*%
G36*
X162307277Y-85053952D02*
G01*
X162307603Y-85054280D01*
X162341275Y-85088600D01*
X163599977Y-86371507D01*
X163614000Y-86405824D01*
X163614000Y-88067303D01*
X163599648Y-88101951D01*
X162785609Y-88915989D01*
X162750961Y-88930341D01*
X162716313Y-88915989D01*
X162709307Y-88907145D01*
X162708000Y-88905035D01*
X162707998Y-88905034D01*
X162707998Y-88905033D01*
X162633758Y-88851632D01*
X162615423Y-88843898D01*
X162599203Y-88837056D01*
X162599201Y-88837055D01*
X162599200Y-88837055D01*
X162520662Y-88820904D01*
X162520665Y-88820904D01*
X161530129Y-88814513D01*
X160539597Y-88808123D01*
X160539596Y-88808123D01*
X160539593Y-88808123D01*
X160525493Y-88808515D01*
X160518830Y-88808930D01*
X160504841Y-88810286D01*
X160493730Y-88810096D01*
X160492070Y-88809877D01*
X160491315Y-88809778D01*
X160478616Y-88808506D01*
X160472552Y-88808088D01*
X160459781Y-88807608D01*
X159915362Y-88804096D01*
X159824628Y-88803511D01*
X159824627Y-88803511D01*
X159824626Y-88803511D01*
X159810537Y-88803903D01*
X159803871Y-88804318D01*
X159789811Y-88805679D01*
X159756391Y-88810078D01*
X159743603Y-88810078D01*
X159702678Y-88804691D01*
X159689959Y-88803417D01*
X159683902Y-88803000D01*
X159671136Y-88802520D01*
X159109661Y-88798898D01*
X159109660Y-88798898D01*
X159109659Y-88798898D01*
X159107999Y-88798944D01*
X159095540Y-88799292D01*
X159088903Y-88799705D01*
X159074853Y-88801066D01*
X159002977Y-88810529D01*
X159002975Y-88810529D01*
X158938899Y-88829968D01*
X158910656Y-88843898D01*
X158910653Y-88843900D01*
X158896505Y-88853450D01*
X158864618Y-88874973D01*
X158864615Y-88874975D01*
X158811696Y-88949557D01*
X158796422Y-88986432D01*
X158794998Y-88985842D01*
X158773986Y-89011203D01*
X158750958Y-89016881D01*
X158725314Y-89016812D01*
X158690705Y-89002367D01*
X158677437Y-88977616D01*
X158676457Y-88972814D01*
X158666619Y-88949560D01*
X158661848Y-88938282D01*
X158661846Y-88938278D01*
X158624783Y-88880267D01*
X158624781Y-88880265D01*
X158549801Y-88827905D01*
X158549799Y-88827904D01*
X158515047Y-88813815D01*
X158515045Y-88813814D01*
X158515044Y-88813814D01*
X158495588Y-88810096D01*
X158436283Y-88798763D01*
X158436282Y-88798763D01*
X158420595Y-88798881D01*
X156504268Y-88813330D01*
X156469513Y-88799239D01*
X156454900Y-88764700D01*
X156454908Y-88763411D01*
X156474425Y-87798009D01*
X156489474Y-87763659D01*
X156523415Y-87750000D01*
X160870800Y-87750000D01*
X160870800Y-85088600D01*
X160885152Y-85053952D01*
X160919800Y-85039600D01*
X162272629Y-85039600D01*
X162307277Y-85053952D01*
G37*
%TD.AperFunction*%
%TD*%
%TA.AperFunction,Conductor*%
%TO.N,+9V*%
G36*
X161542254Y-92978807D02*
G01*
X161556739Y-93013400D01*
X161556739Y-93013449D01*
X161581493Y-101726761D01*
X161567240Y-101761450D01*
X161532632Y-101775900D01*
X160894400Y-101775900D01*
X160855259Y-101783685D01*
X160815759Y-101791542D01*
X160815749Y-101791545D01*
X160781116Y-101805891D01*
X160781110Y-101805894D01*
X160781109Y-101805895D01*
X160740949Y-101831129D01*
X160722819Y-101842521D01*
X160695522Y-101880991D01*
X160663766Y-101900943D01*
X160655372Y-101901635D01*
X160192019Y-101899853D01*
X160162378Y-101889728D01*
X160159026Y-101887156D01*
X160133903Y-101867878D01*
X160133900Y-101867877D01*
X160133898Y-101867875D01*
X159999986Y-101812408D01*
X159856278Y-101793489D01*
X159712569Y-101812408D01*
X159578652Y-101867878D01*
X159578648Y-101867880D01*
X159553528Y-101887156D01*
X159523511Y-101897282D01*
X158560372Y-101893577D01*
X158525912Y-101879225D01*
X158519852Y-101873165D01*
X158505500Y-101838517D01*
X158505500Y-99197070D01*
X158495942Y-99161401D01*
X158486384Y-99125731D01*
X158449456Y-99061769D01*
X158397231Y-99009544D01*
X158397230Y-99009543D01*
X158068579Y-98680892D01*
X158054227Y-98646244D01*
X158068579Y-98611596D01*
X158073377Y-98607386D01*
X158092621Y-98592621D01*
X158180861Y-98477625D01*
X158236330Y-98343709D01*
X158255250Y-98200000D01*
X158236330Y-98056291D01*
X158180861Y-97922375D01*
X158092621Y-97807379D01*
X157977625Y-97719139D01*
X157977620Y-97719136D01*
X157843708Y-97663669D01*
X157700000Y-97644750D01*
X157556291Y-97663669D01*
X157422379Y-97719136D01*
X157422374Y-97719139D01*
X157307379Y-97807378D01*
X157307378Y-97807379D01*
X157219139Y-97922374D01*
X157219136Y-97922379D01*
X157163669Y-98056291D01*
X157144750Y-98200000D01*
X157163669Y-98343708D01*
X157219136Y-98477620D01*
X157219139Y-98477625D01*
X157307379Y-98592621D01*
X157422375Y-98680861D01*
X157435850Y-98686442D01*
X157462369Y-98712958D01*
X157466100Y-98731712D01*
X157466100Y-98792530D01*
X157485215Y-98863867D01*
X157485216Y-98863871D01*
X157522141Y-98927825D01*
X157522143Y-98927827D01*
X157522145Y-98927831D01*
X157522148Y-98927834D01*
X157930148Y-99335834D01*
X157944500Y-99370482D01*
X157944500Y-101842019D01*
X157930148Y-101876667D01*
X157895500Y-101891019D01*
X157895312Y-101891019D01*
X155026672Y-101879987D01*
X154992079Y-101865502D01*
X154977860Y-101831129D01*
X154958768Y-95148800D01*
X156548052Y-95148800D01*
X156567812Y-95399872D01*
X156626603Y-95644754D01*
X156722982Y-95877434D01*
X156722984Y-95877437D01*
X156854561Y-96092152D01*
X156854568Y-96092162D01*
X156855266Y-96092979D01*
X157475421Y-95472824D01*
X157488359Y-95504058D01*
X157570437Y-95626897D01*
X157674903Y-95731363D01*
X157797742Y-95813441D01*
X157828974Y-95826377D01*
X157208819Y-96446532D01*
X157209637Y-96447231D01*
X157424362Y-96578815D01*
X157424365Y-96578817D01*
X157657045Y-96675196D01*
X157901927Y-96733987D01*
X158153000Y-96753747D01*
X158404072Y-96733987D01*
X158648954Y-96675196D01*
X158881634Y-96578817D01*
X158881637Y-96578815D01*
X159096360Y-96447232D01*
X159096369Y-96447226D01*
X159097179Y-96446533D01*
X159097180Y-96446532D01*
X158477025Y-95826378D01*
X158508258Y-95813441D01*
X158631097Y-95731363D01*
X158735563Y-95626897D01*
X158817641Y-95504058D01*
X158830578Y-95472825D01*
X159450732Y-96092980D01*
X159450733Y-96092979D01*
X159451426Y-96092169D01*
X159451432Y-96092160D01*
X159583015Y-95877437D01*
X159583017Y-95877434D01*
X159679396Y-95644754D01*
X159738187Y-95399872D01*
X159757947Y-95148800D01*
X159738187Y-94897727D01*
X159679396Y-94652845D01*
X159583017Y-94420165D01*
X159583015Y-94420162D01*
X159451431Y-94205437D01*
X159450732Y-94204619D01*
X158830577Y-94824773D01*
X158817641Y-94793542D01*
X158735563Y-94670703D01*
X158631097Y-94566237D01*
X158508258Y-94484159D01*
X158477023Y-94471221D01*
X159097179Y-93851066D01*
X159096362Y-93850368D01*
X159096352Y-93850361D01*
X158881637Y-93718784D01*
X158881634Y-93718782D01*
X158648954Y-93622403D01*
X158404072Y-93563612D01*
X158153000Y-93543852D01*
X157901927Y-93563612D01*
X157657045Y-93622403D01*
X157424365Y-93718782D01*
X157424362Y-93718784D01*
X157209641Y-93850364D01*
X157209632Y-93850371D01*
X157208819Y-93851065D01*
X157208819Y-93851066D01*
X157828974Y-94471221D01*
X157797742Y-94484159D01*
X157674903Y-94566237D01*
X157570437Y-94670703D01*
X157488359Y-94793542D01*
X157475421Y-94824774D01*
X156855266Y-94204619D01*
X156855265Y-94204619D01*
X156854571Y-94205432D01*
X156854564Y-94205441D01*
X156722984Y-94420162D01*
X156722982Y-94420165D01*
X156626603Y-94652845D01*
X156567812Y-94897727D01*
X156548052Y-95148800D01*
X154958768Y-95148800D01*
X154952739Y-93038748D01*
X154966992Y-93004062D01*
X155001549Y-92989611D01*
X161507552Y-92964588D01*
X161542254Y-92978807D01*
G37*
%TD.AperFunction*%
%TD*%
%TA.AperFunction,Conductor*%
%TO.N,GND*%
G36*
X170345748Y-92014352D02*
G01*
X170360100Y-92049000D01*
X170360100Y-95784352D01*
X170345748Y-95819000D01*
X170311100Y-95833352D01*
X170281272Y-95823227D01*
X170241441Y-95792664D01*
X170241438Y-95792663D01*
X170241436Y-95792661D01*
X170095361Y-95732155D01*
X169938600Y-95711518D01*
X169781838Y-95732155D01*
X169635763Y-95792661D01*
X169635758Y-95792664D01*
X169510318Y-95888917D01*
X169510317Y-95888918D01*
X169414064Y-96014358D01*
X169414061Y-96014363D01*
X169353555Y-96160438D01*
X169332918Y-96317200D01*
X169353555Y-96473961D01*
X169414061Y-96620036D01*
X169414064Y-96620041D01*
X169510318Y-96745482D01*
X169635759Y-96841736D01*
X169635761Y-96841736D01*
X169635763Y-96841738D01*
X169655823Y-96850047D01*
X169781838Y-96902244D01*
X169938600Y-96922882D01*
X170095362Y-96902244D01*
X170241441Y-96841736D01*
X170281271Y-96811172D01*
X170317496Y-96801466D01*
X170349974Y-96820218D01*
X170360100Y-96850047D01*
X170360100Y-107163090D01*
X170345748Y-107197738D01*
X169810638Y-107732848D01*
X169775990Y-107747200D01*
X167551000Y-107747200D01*
X167516352Y-107732848D01*
X167502000Y-107698200D01*
X167512126Y-107668371D01*
X167521548Y-107656091D01*
X167577461Y-107583225D01*
X167632930Y-107449309D01*
X167651850Y-107305600D01*
X167632930Y-107161891D01*
X167577461Y-107027975D01*
X167489221Y-106912979D01*
X167374225Y-106824739D01*
X167374220Y-106824736D01*
X167240308Y-106769269D01*
X167096600Y-106750350D01*
X166952891Y-106769269D01*
X166818979Y-106824736D01*
X166818974Y-106824739D01*
X166703979Y-106912978D01*
X166703978Y-106912979D01*
X166615739Y-107027974D01*
X166615736Y-107027979D01*
X166560269Y-107161891D01*
X166541350Y-107305600D01*
X166560269Y-107449308D01*
X166615736Y-107583220D01*
X166615739Y-107583225D01*
X166681074Y-107668371D01*
X166690781Y-107704596D01*
X166672029Y-107737074D01*
X166642200Y-107747200D01*
X163510600Y-107747200D01*
X163475952Y-107732848D01*
X163461600Y-107698200D01*
X163461600Y-104773600D01*
X163475952Y-104738952D01*
X163510600Y-104724600D01*
X166865200Y-104724600D01*
X166865200Y-101905200D01*
X163428104Y-101905200D01*
X163393456Y-101890848D01*
X163386615Y-101882270D01*
X163371879Y-101858819D01*
X163371878Y-101858817D01*
X163297293Y-101805896D01*
X163262646Y-101791544D01*
X163262640Y-101791542D01*
X163230926Y-101785234D01*
X163184000Y-101775900D01*
X163183997Y-101775900D01*
X162114229Y-101775900D01*
X162079581Y-101761548D01*
X162065229Y-101726900D01*
X162065229Y-101726727D01*
X162082420Y-96850047D01*
X162085365Y-96014358D01*
X162099344Y-92048827D01*
X162113818Y-92014230D01*
X162148344Y-92000000D01*
X170311100Y-92000000D01*
X170345748Y-92014352D01*
G37*
%TD.AperFunction*%
%TD*%
%TA.AperFunction,Conductor*%
%TO.N,/VUSB*%
G36*
X159669796Y-89008016D02*
G01*
X159675853Y-89008433D01*
X159750000Y-89018195D01*
X159816632Y-89009422D01*
X159823302Y-89009007D01*
X160458443Y-89013104D01*
X160464498Y-89013521D01*
X160500000Y-89018195D01*
X160531591Y-89014035D01*
X160538271Y-89013619D01*
X162519335Y-89026400D01*
X162553888Y-89040975D01*
X162568016Y-89075715D01*
X162562349Y-89098276D01*
X162557800Y-89106892D01*
X162557800Y-90775637D01*
X162543448Y-90810285D01*
X162509210Y-90824635D01*
X159036610Y-90853694D01*
X159001843Y-90839633D01*
X158987202Y-90805106D01*
X158987200Y-90804696D01*
X158987200Y-89062851D01*
X159001552Y-89028203D01*
X159029800Y-89014271D01*
X159101672Y-89004809D01*
X159108333Y-89004394D01*
X159669796Y-89008016D01*
G37*
%TD.AperFunction*%
%TD*%
%TA.AperFunction,Conductor*%
%TO.N,/VBATT*%
G36*
X158472586Y-89018348D02*
G01*
X158487199Y-89052887D01*
X158487200Y-89053256D01*
X158487200Y-90905902D01*
X158472848Y-90940550D01*
X158453944Y-90952304D01*
X154477657Y-92301402D01*
X154461913Y-92304000D01*
X153299000Y-92304000D01*
X153264352Y-92289648D01*
X153250000Y-92255000D01*
X153250000Y-89092007D01*
X153264352Y-89057359D01*
X153298630Y-89043008D01*
X158437831Y-89004257D01*
X158472586Y-89018348D01*
G37*
%TD.AperFunction*%
%TD*%
%TA.AperFunction,Conductor*%
%TO.N,Net-(C5-Pad1)*%
G36*
X163218648Y-101995752D02*
G01*
X163233000Y-102030400D01*
X163233000Y-102506589D01*
X163230323Y-102522563D01*
X163099112Y-102903074D01*
X163074249Y-102931151D01*
X163052789Y-102936100D01*
X161025611Y-102936100D01*
X160990963Y-102921748D01*
X160979288Y-102903074D01*
X160848077Y-102522563D01*
X160845400Y-102506589D01*
X160845400Y-102030400D01*
X160859752Y-101995752D01*
X160894400Y-101981400D01*
X163184000Y-101981400D01*
X163218648Y-101995752D01*
G37*
%TD.AperFunction*%
%TD*%
%TA.AperFunction,Conductor*%
%TO.N,/VBATT*%
G36*
X153185648Y-94583648D02*
G01*
X153200000Y-94618296D01*
X153200000Y-98181704D01*
X153185648Y-98216352D01*
X153151000Y-98230704D01*
X153116352Y-98216352D01*
X151334648Y-96434648D01*
X151320296Y-96400000D01*
X151334648Y-96365352D01*
X153116352Y-94583648D01*
X153151000Y-94569296D01*
X153185648Y-94583648D01*
G37*
%TD.AperFunction*%
%TD*%
%TA.AperFunction,Conductor*%
%TO.N,/NEOPX*%
G36*
X204712647Y-84122699D02*
G01*
X205016992Y-84427044D01*
X205020419Y-84435317D01*
X205018318Y-84442007D01*
X204625300Y-85005901D01*
X204617758Y-85010729D01*
X204609011Y-85008810D01*
X204607452Y-85007508D01*
X204369139Y-84770553D01*
X204369091Y-84770505D01*
X204132183Y-84532239D01*
X204128780Y-84523957D01*
X204132231Y-84515693D01*
X204133783Y-84514396D01*
X204697687Y-84121372D01*
X204706431Y-84119454D01*
X204712647Y-84122699D01*
G37*
%TD.AperFunction*%
%TD*%
M02*
